<svg xmlns="http://www.w3.org/2000/svg" xmlns:xlink="http://www.w3.org/1999/xlink" width="117.999" height="118" viewBox="0 0 117.999 118">
  <defs>
    <filter id="Trazado_874925" x="0" y="0" width="117.999" height="118" filterUnits="userSpaceOnUse">
      <feOffset dy="3" input="SourceAlpha"/>
      <feGaussianBlur stdDeviation="3" result="blur"/>
      <feFlood flood-opacity="0.161"/>
      <feComposite operator="in" in2="blur"/>
      <feComposite in="SourceGraphic"/>
    </filter>
  </defs>
  <g id="Grupo_1118820" data-name="Grupo 1118820" transform="translate(-750.051 -2094)">
    <g id="Grupo_1111552" data-name="Grupo 1111552" transform="translate(-49.449 -417.157)">
      <g id="Grupo_1111316" data-name="Grupo 1111316" transform="translate(808.5 2517.157)">
        <g id="Grupo_1109835" data-name="Grupo 1109835" transform="translate(0 0)">
          <g id="Grupo_1107913" data-name="Grupo 1107913" transform="translate(0 0)">
            <g transform="matrix(1, 0, 0, 1, -9, -6)" filter="url(#Trazado_874925)">
              <g id="Trazado_874925-2" data-name="Trazado 874925" transform="translate(9 6)" fill="#fc0" opacity="0.859">
                <path d="M 49.99972534179688 98.4998779296875 C 43.45164108276367 98.4998779296875 37.10022354125977 97.21776580810547 31.12189674377441 94.68914794921875 C 25.34676742553711 92.24647521972656 20.15985298156738 88.74925994873047 15.70523929595947 84.29464721679688 C 11.25062561035156 79.84004974365234 7.753411293029785 74.65313720703125 5.310725212097168 68.87800598144531 C 2.782111167907715 62.89969253540039 1.499996781349182 56.54829406738281 1.499996781349182 50.00022125244141 C 1.499996781349182 43.45157623291016 2.782111167907715 37.10017776489258 5.310725212097168 31.12186431884766 C 7.753411293029785 25.34673500061035 11.25062561035156 20.15983581542969 15.70523929595947 15.70522117614746 C 20.15985298156738 11.25062084197998 25.34676742553711 7.753406524658203 31.12189674377441 5.31073522567749 C 37.10022354125977 2.782120943069458 43.45164108276367 1.500006556510925 49.99972534179688 1.500006556510925 C 56.54780960083008 1.500006556510925 62.89922714233398 2.782120943069458 68.87755584716797 5.31073522567749 C 74.65267944335938 7.753406524658203 79.839599609375 11.25062084197998 84.29421234130859 15.70522117614746 C 88.74882507324219 20.15983581542969 92.24604034423828 25.34673500061035 94.68872833251953 31.12186431884766 C 97.21733856201172 37.10017776489258 98.49945068359375 43.45157623291016 98.49945068359375 49.99964904785156 C 98.49945068359375 56.54829406738281 97.21733856201172 62.89969253540039 94.68872833251953 68.87800598144531 C 92.24604034423828 74.65313720703125 88.74882507324219 79.84004974365234 84.29421234130859 84.29464721679688 C 79.839599609375 88.74925994873047 74.65267944335938 92.24647521972656 68.87755584716797 94.68914794921875 C 62.89922714233398 97.21776580810547 56.54780960083008 98.4998779296875 49.99972534179688 98.4998779296875 Z" stroke="none"/>
                <path d="M 49.99972534179688 3 C 43.65348052978516 3 37.49866485595703 4.242240905761719 31.70623016357422 6.692230224609375 C 26.10989379882812 9.059272766113281 21.08323669433594 12.44853210449219 16.76589202880859 16.76587677001953 C 12.44855499267578 21.08321380615234 9.059295654296875 26.10985565185547 6.692230224609375 31.70618438720703 C 4.24224853515625 37.49859619140625 3 43.65341186523438 3 50.00022888183594 C 3 56.34645843505859 4.24224853515625 62.50127410888672 6.692230224609375 68.29368591308594 C 9.059295654296875 73.8900146484375 12.44855499267578 78.91665649414062 16.76589202880859 83.23399353027344 C 21.08323669433594 87.55132293701172 26.10989379882812 90.94059753417969 31.70623016357422 93.30764007568359 C 37.49866485595703 95.75762939453125 43.65348052978516 96.99987030029297 49.99972534179688 96.99987030029297 C 56.34597015380859 96.99987030029297 62.50078582763672 95.75762939453125 68.293212890625 93.30764007568359 C 73.88955688476562 90.94059753417969 78.91621398925781 87.55132293701172 83.23355865478516 83.23399353027344 C 87.55089569091797 78.91665649414062 90.94015502929688 73.8900146484375 93.30722045898438 68.29368591308594 C 95.7572021484375 62.50127410888672 96.99945068359375 56.34645843505859 96.99945068359375 49.99964141845703 C 96.99945068359375 43.65341186523438 95.7572021484375 37.49859619140625 93.30722045898438 31.70618438720703 C 90.94015502929688 26.10985565185547 87.55089569091797 21.08321380615234 83.23355865478516 16.76587677001953 C 78.91621398925781 12.44853210449219 73.88955688476562 9.059272766113281 68.293212890625 6.692230224609375 C 62.50078582763672 4.242240905761719 56.34597015380859 3 49.99972534179688 3 M 49.99972534179688 0 C 77.61381530761719 0 99.99945068359375 22.38559722900391 99.99945068359375 49.99964141845703 L 99.99945068359375 50.00022888183594 C 99.99945068359375 77.6142578125 77.61381530761719 99.99987030029297 49.99972534179688 99.99987030029297 C 22.38563537597656 99.99987030029297 0 77.6142578125 0 50.00022888183594 L 0 49.99964141845703 C 0 22.38559722900391 22.38563537597656 0 49.99972534179688 0 Z" stroke="none" fill="#fff"/>
              </g>
            </g>
            <g id="Trazado_874923" data-name="Trazado 874923" transform="translate(0 0)" fill="none">
              <path d="M50,0a50,50,0,0,1,50,50h0A50,50,0,0,1,0,50H0A50,50,0,0,1,50,0Z" stroke="none"/>
              <path d="M 49.99972534179688 3 C 43.65348052978516 3 37.49866485595703 4.242240905761719 31.70623016357422 6.692230224609375 C 26.10989379882812 9.059272766113281 21.08323669433594 12.44853210449219 16.76589202880859 16.76587677001953 C 12.44855499267578 21.08321380615234 9.059295654296875 26.10985565185547 6.692230224609375 31.70618438720703 C 4.24224853515625 37.49859619140625 3 43.65341186523438 3 50.00022888183594 C 3 56.34645843505859 4.24224853515625 62.50127410888672 6.692230224609375 68.29368591308594 C 9.059295654296875 73.8900146484375 12.44855499267578 78.91665649414062 16.76589202880859 83.23399353027344 C 21.08323669433594 87.55132293701172 26.10989379882812 90.94059753417969 31.70623016357422 93.30764007568359 C 37.49866485595703 95.75762939453125 43.65348052978516 96.99987030029297 49.99972534179688 96.99987030029297 C 56.34597015380859 96.99987030029297 62.50078582763672 95.75762939453125 68.293212890625 93.30764007568359 C 73.88955688476562 90.94059753417969 78.91621398925781 87.55132293701172 83.23355865478516 83.23399353027344 C 87.55089569091797 78.91665649414062 90.94015502929688 73.8900146484375 93.30722045898438 68.29368591308594 C 95.7572021484375 62.50127410888672 96.99945068359375 56.34645843505859 96.99945068359375 49.99964141845703 C 96.99945068359375 43.65341186523438 95.7572021484375 37.49859619140625 93.30722045898438 31.70618438720703 C 90.94015502929688 26.10985565185547 87.55089569091797 21.08321380615234 83.23355865478516 16.76587677001953 C 78.91621398925781 12.44853210449219 73.88955688476562 9.059272766113281 68.293212890625 6.692230224609375 C 62.50078582763672 4.242240905761719 56.34597015380859 3 49.99972534179688 3 M 49.99972534179688 0 C 77.61381530761719 0 99.99945068359375 22.38559722900391 99.99945068359375 49.99964141845703 L 99.99945068359375 50.00022888183594 C 99.99945068359375 77.6142578125 77.61381530761719 99.99987030029297 49.99972534179688 99.99987030029297 C 22.38563537597656 99.99987030029297 0 77.6142578125 0 50.00022888183594 L 0 49.99964141845703 C 0 22.38559722900391 22.38563537597656 0 49.99972534179688 0 Z" stroke="none" fill="#fff"/>
            </g>
          </g>
        </g>
      </g>
    </g>
    <g id="Grupo_1118819" data-name="Grupo 1118819" transform="translate(771.051 2109)">
      <path id="Trazado_913328" data-name="Trazado 913328" d="M201.624,194.66l-17-17a2.723,2.723,0,1,1,3.85-3.85l-4.379-4.378a2.716,2.716,0,0,1-.8-1.926,2.8,2.8,0,0,1,.035-.436,2.719,2.719,0,0,1,4.356-1.713l-1.666-1.666a2.724,2.724,0,0,1-.8-1.929,2.6,2.6,0,0,1,.036-.443,2.724,2.724,0,0,1,4.615-1.48l1.908,1.908a2.723,2.723,0,1,1,3.85-3.85l11.05,11.051.031-.044a4.979,4.979,0,0,1,7.048.005l5.153,5.153a5.288,5.288,0,0,1,1.548,3.731l0,3.223a5.69,5.69,0,0,0,1.668,4.019l1.149,1.149L210.135,199.32l-1.468-1.468a5.691,5.691,0,0,0-3.652-1.655A5.281,5.281,0,0,1,201.624,194.66Zm0,0" transform="translate(-155.693 -133.437)" fill="#fecbaa"/>
      <path id="Trazado_913329" data-name="Trazado 913329" d="M353.8,356.969l14.916-14.916a1.258,1.258,0,0,1,1.78,0l5.313,5.312a1.259,1.259,0,0,1,0,1.78l-14.917,14.917a1.259,1.259,0,0,1-1.78,0l-5.312-5.313A1.258,1.258,0,0,1,353.8,356.969Zm0,0" transform="translate(-300.21 -290.233)" fill="#fdd559"/>
      <path id="Trazado_913330" data-name="Trazado 913330" d="M84.809,194.67l17-17a2.723,2.723,0,1,0-3.851-3.85l4.379-4.379a2.721,2.721,0,0,0-3.592-4.075l1.666-1.666a2.722,2.722,0,0,0,.8-1.928,2.6,2.6,0,0,0-.036-.443,2.713,2.713,0,0,0-2.253-2.245,2.723,2.723,0,0,0-2.362.764l-1.908,1.908a2.722,2.722,0,1,0-3.85-3.85L79.755,168.952l-.031-.044a4.979,4.979,0,0,0-7.048.005l-5.152,5.153a5.285,5.285,0,0,0-1.548,3.731l0,3.223a5.686,5.686,0,0,1-1.667,4.019l-1.149,1.149L76.3,199.33l1.469-1.468a5.691,5.691,0,0,1,3.652-1.655A5.287,5.287,0,0,0,84.809,194.67Zm0,0" transform="translate(-53.646 -133.445)" fill="#fecbaa"/>
      <path id="Trazado_913331" data-name="Trazado 913331" d="M29.873,356.977,14.956,342.06a1.258,1.258,0,0,0-1.78,0l-5.313,5.313a1.259,1.259,0,0,0,0,1.78L22.78,364.069a1.258,1.258,0,0,0,1.78,0l5.313-5.312A1.259,1.259,0,0,0,29.873,356.977Zm0,0" transform="translate(-6.366 -290.239)" fill="#ff84a7"/>
      <path id="Trazado_913332" data-name="Trazado 913332" d="M177.088,83.419v24.047a2.723,2.723,0,1,1-5.446,0v6.192a2.721,2.721,0,0,1-5.421.342v2.357a2.722,2.722,0,0,1-.8,1.929,2.554,2.554,0,0,1-.339.288,2.724,2.724,0,0,1-4.31-2.216v-2.7a2.723,2.723,0,1,1-5.445,0V98.03l-.053.009a4.98,4.98,0,0,1-4.98-4.987V85.765a5.289,5.289,0,0,1,1.543-3.733l2.277-2.281a5.69,5.69,0,0,0,1.662-4.021V74.105h18.586v2.076a5.7,5.7,0,0,0,1.412,3.753A5.282,5.282,0,0,1,177.088,83.419Zm0,0" transform="translate(-127.665 -62.947)" fill="#fedfc5"/>
      <path id="Trazado_913333" data-name="Trazado 913333" d="M169.839,173.812a2.725,2.725,0,0,0-3.853,0l4.379-4.379a2.721,2.721,0,0,0-3.592-4.075l1.666-1.666a2.722,2.722,0,0,0,.8-1.928,2.542,2.542,0,0,0-.036-.443,2.724,2.724,0,0,0-4.614-1.481l-1.908,1.908a2.723,2.723,0,1,0-3.85-3.85l-11.051,11.051-.031-.044a4.96,4.96,0,0,0-4.509-1.355,7.307,7.307,0,0,0,3.836,2.9v13.7a4.987,4.987,0,0,0,5.954,4.891,4.991,4.991,0,0,0,2.889,2.536l13.918-13.919A2.722,2.722,0,0,0,169.839,173.812Zm0,0" transform="translate(-121.669 -133.445)" fill="#ffae85"/>
      <path id="Trazado_913334" data-name="Trazado 913334" d="M207.362,177.958v-9.617a4.985,4.985,0,0,0-.665.559l-.031.044-11.051-11.051a2.725,2.725,0,0,0-3.853,0,2.725,2.725,0,0,0,0,3.853l-1.908-1.908a2.721,2.721,0,0,0-4.615,1.481,2.6,2.6,0,0,0-.036.443,2.72,2.72,0,0,0,.8,1.928l1.666,1.666a2.721,2.721,0,0,0-3.592,4.075l4.379,4.379a2.722,2.722,0,1,0-3.85,3.85L196,189.049a5,5,0,0,0,.936.088,4.937,4.937,0,0,0,2.914-.943,4.98,4.98,0,0,0,2.067-4.043v-1.228q.23.021.464.021A4.99,4.99,0,0,0,207.362,177.958Zm0,0" transform="translate(-155.683 -133.439)" fill="#ffae85"/>
      <path id="Trazado_913335" data-name="Trazado 913335" d="M177.088,83.419v24.047a2.723,2.723,0,0,1-2.723,2.727c-.041,0-.084,0-.128,0a2.694,2.694,0,0,1-1.462-.512l0,0a2.721,2.721,0,0,1-1.129-2.21v6.192a2.721,2.721,0,0,1-5.421.342v2.357a2.722,2.722,0,0,1-.8,1.929,2.554,2.554,0,0,1-.339.288,2.724,2.724,0,0,1-4.31-2.216v-2.7a2.723,2.723,0,1,1-5.445,0V98.03l-.053.009a4.98,4.98,0,0,1-4.98-4.987V85.765a5.289,5.289,0,0,1,1.543-3.733l2.277-2.281a5.7,5.7,0,0,0,1.662-4.021V74.105h18.586v2.076a5.129,5.129,0,0,0,.179,1.405,5.656,5.656,0,0,0,1.233,2.348A5.325,5.325,0,0,1,177.088,83.419Zm0,0" transform="translate(-127.665 -62.947)" fill="#fedfc5"/>
      <path id="Trazado_913336" data-name="Trazado 913336" d="M206.582,83.419v24.047a2.723,2.723,0,0,1-2.723,2.727c-.041,0-.084,0-.128,0a2.694,2.694,0,0,1-1.462-.512l.046-23.172a3.553,3.553,0,0,0-.091-.643,10.474,10.474,0,0,0-10.478-8.453H185.02a5.67,5.67,0,0,0,.254-1.681V74.105h18.586v2.076a5.13,5.13,0,0,0,.179,1.405,5.656,5.656,0,0,0,1.233,2.348A5.325,5.325,0,0,1,206.582,83.419Zm0,0" transform="translate(-157.159 -62.947)" fill="#fecbaa"/>
      <path id="Trazado_913337" data-name="Trazado 913337" d="M192.053,17.53h-21.1a1.259,1.259,0,0,1-1.258-1.259V8.759A1.259,1.259,0,0,1,170.957,7.5h21.1a1.259,1.259,0,0,1,1.258,1.259v7.513A1.259,1.259,0,0,1,192.053,17.53Zm0,0" transform="translate(-144.146 -6.371)" fill="#83d9ff"/>
      <path id="Trazado_913338" data-name="Trazado 913338" d="M202.709,447.759l-.226,1.106.218-1.108a1.129,1.129,0,1,0-.436,2.216l.021,0a1.152,1.152,0,0,0,.214.021,1.13,1.13,0,0,0,.211-2.239Zm0,0" transform="translate(-171.033 -380.315)"/>
      <path id="Trazado_913339" data-name="Trazado 913339" d="M261.965,450.262l.112,1.123-.116-1.123a1.129,1.129,0,0,0,.114,2.253c.039,0,.078,0,.117-.006l.031,0a1.129,1.129,0,0,0-.259-2.244Zm0,0" transform="translate(-221.654 -382.455)"/>
      <path id="Trazado_913340" data-name="Trazado 913340" d="M232.29,451.232h-.016a1.123,1.123,0,0,0-1.171,1.078,1.136,1.136,0,0,0,1.085,1.179h.052a1.129,1.129,0,0,0,.05-2.258Zm0,0" transform="translate(-196.302 -383.284)"/>
      <path id="Trazado_913341" data-name="Trazado 913341" d="M174.094,439.861l-.014-.005a1.123,1.123,0,0,0-1.438.683,1.133,1.133,0,1,0,1.452-.678Zm0,0" transform="translate(-146.59 -373.566)"/>
      <path id="Trazado_913342" data-name="Trazado 913342" d="M291.2,444.839l.278,1.095-.282-1.093a1.13,1.13,0,0,0,.281,2.223,1.118,1.118,0,0,0,.283-.036l.03-.008a1.129,1.129,0,0,0-.59-2.18Zm0,0" transform="translate(-246.63 -377.824)"/>
      <path id="Trazado_913343" data-name="Trazado 913343" d="M319.272,435.048l.448,1.036-.451-1.035a1.129,1.129,0,1,0,.9,2.071l.028-.012a1.129,1.129,0,0,0-.926-2.06Zm0,0" transform="translate(-270.617 -369.457)"/>
      <path id="Trazado_913344" data-name="Trazado 913344" d="M147.611,80.949a1.13,1.13,0,1,0-.528-2.127l-.014.007a1.128,1.128,0,0,0,.541,2.12Zm0,0" transform="translate(-124.421 -66.84)"/>
      <path id="Trazado_913345" data-name="Trazado 913345" d="M63.842,165.377a1.129,1.129,0,0,0,1.525-.476l.02-.039a1.13,1.13,0,1,0-1.545.515Zm0,0" transform="translate(-53.714 -138.654)"/>
      <path id="Trazado_913346" data-name="Trazado 913346" d="M52.364,193.2a1.128,1.128,0,0,0,1.432-.708l.015-.045a1.13,1.13,0,1,0-1.446.752Zm0,0" transform="translate(-43.827 -162.224)"/>
      <path id="Trazado_913347" data-name="Trazado 913347" d="M79.428,139.65a1.128,1.128,0,0,0,1.578-.249l.015-.02a1.129,1.129,0,0,0-1.838-1.313l.91.669-.913-.665A1.129,1.129,0,0,0,79.428,139.65Zm0,0" transform="translate(-67.073 -116.878)"/>
      <path id="Trazado_913348" data-name="Trazado 913348" d="M122.174,97.091a1.134,1.134,0,1,0-.654-2.052l-.028.021a1.131,1.131,0,0,0,.682,2.032Zm0,0" transform="translate(-102.817 -80.543)"/>
      <path id="Trazado_913349" data-name="Trazado 913349" d="M49.691,311.1a1.13,1.13,0,1,0-.015-.049Zm0,0" transform="translate(-42.162 -262.997)"/>
      <path id="Trazado_913350" data-name="Trazado 913350" d="M99.519,116.875a1.133,1.133,0,1,0-.789-1.936l-.019.019a1.128,1.128,0,0,0,.808,1.918Zm0,0" transform="translate(-83.574 -97.35)"/>
      <path id="Trazado_913351" data-name="Trazado 913351" d="M45.6,281.177a1.13,1.13,0,0,0-2.242.279l.006.045a1.129,1.129,0,0,0,2.235-.325Zm0,0" transform="translate(-36.822 -238.001)"/>
      <path id="Trazado_913352" data-name="Trazado 913352" d="M42.687,252.422h.034a1.129,1.129,0,0,0,1.128-1.1v-.048a1.13,1.13,0,1,0-1.163,1.144Zm0,0" transform="translate(-35.328 -212.481)"/>
      <path id="Trazado_913353" data-name="Trazado 913353" d="M45.263,222.44a1.166,1.166,0,0,0,.2.018,1.13,1.13,0,0,0,1.111-.931c0-.016.005-.033.008-.049a1.13,1.13,0,1,0-1.319.962Zm0,0" transform="translate(-37.657 -187.028)"/>
      <path id="Trazado_913354" data-name="Trazado 913354" d="M403.123,143.537a1.129,1.129,0,0,0,1.859-1.282l-.939.628.935-.633a1.13,1.13,0,0,0-1.87,1.268Zm0,0" transform="translate(-342.243 -120.409)"/>
      <path id="Trazado_913355" data-name="Trazado 913355" d="M436.943,229.03a1.129,1.129,0,0,0-1,1.249l.006.049a1.13,1.13,0,0,0,1.117.969,1.154,1.154,0,0,0,.161-.011,1.137,1.137,0,0,0-.288-2.256Zm0,0" transform="translate(-370.296 -194.536)"/>
      <path id="Trazado_913356" data-name="Trazado 913356" d="M429.685,199.734l0,.015a1.129,1.129,0,0,0,1.083.811,1.112,1.112,0,0,0,.319-.046,1.129,1.129,0,0,0,.765-1.4l0-.015a1.129,1.129,0,0,0-2.167.638Zm0,0" transform="translate(-364.943 -168.428)"/>
      <path id="Trazado_913357" data-name="Trazado 913357" d="M418.655,170.6a1.135,1.135,0,0,0,1.019.634,1.129,1.129,0,0,0,1.011-1.624l-1.023.477,1.022-.479a1.129,1.129,0,0,0-2.045.959Zm0,0" transform="translate(-355.509 -143.515)"/>
      <path id="Trazado_913358" data-name="Trazado 913358" d="M383.528,119.282a1.138,1.138,0,1,0-.034-.036Zm0,0" transform="translate(-325.492 -99.68)"/>
      <path id="Trazado_913359" data-name="Trazado 913359" d="M438.479,260.385a1.136,1.136,0,0,0-.1,2.27l.064,0a1.13,1.13,0,0,0,1.126-1.067l0-.046A1.128,1.128,0,0,0,438.479,260.385Zm0,0" transform="translate(-371.465 -221.175)"/>
      <path id="Trazado_913360" data-name="Trazado 913360" d="M334.14,81.39l.027.015a1.125,1.125,0,0,0,1.521-.464,1.133,1.133,0,0,0-.459-1.529l-.546.988.543-.991a1.129,1.129,0,1,0-1.086,1.98Zm0,0" transform="translate(-283.326 -67.334)"/>
      <path id="Trazado_913361" data-name="Trazado 913361" d="M360.324,98.371l.018.014a1.13,1.13,0,0,0,1.365-1.8l-.008-.005a1.129,1.129,0,1,0-1.375,1.792Zm0,0" transform="translate(-305.691 -81.838)"/>
      <path id="Trazado_913362" data-name="Trazado 913362" d="M76.4,56.307,71.1,51a2.385,2.385,0,0,0-3.377,0l-.123.123-.348-.348a4.558,4.558,0,0,1-.989-1.479,1.1,1.1,0,0,0-.081-.209,4.567,4.567,0,0,1-.263-1.534v-1.5a1.137,1.137,0,1,0-.007-2.008,6.367,6.367,0,0,0-1.866-4.247L58.9,34.639a6.1,6.1,0,0,0-7.8-.7l-.546-.549V20.473a6.413,6.413,0,0,0-1.591-4.229,4.557,4.557,0,0,1-1.132-3.008v-.946h.078A2.39,2.39,0,0,0,50.3,9.9V2.388A2.39,2.39,0,0,0,47.908,0h-21.1a2.39,2.39,0,0,0-2.388,2.388V9.9a2.39,2.39,0,0,0,2.388,2.388h.174v.5a4.531,4.531,0,0,1-1.333,3.223l-2.277,2.281A6.372,6.372,0,0,0,21.5,22.819v7.286a6.09,6.09,0,0,0,.656,2.753A6.064,6.064,0,0,0,18.2,34.639l-5.143,5.152a6.373,6.373,0,0,0-1.873,4.531v3.226A4.531,4.531,0,0,1,9.847,50.77l-.344.345,0,0L9.376,51A2.385,2.385,0,0,0,6,51L.7,56.307a2.394,2.394,0,0,0,0,3.377L2.513,61.5a1.129,1.129,0,1,0,1.6-1.6L2.3,58.088a.131.131,0,0,1,0-.185l5.3-5.311a.127.127,0,0,1,.179,0l.922.923h0L21.285,66.123l1.41,1.413a.131.131,0,0,1,0,.185l-5.3,5.311a.127.127,0,0,1-.18,0L7.308,63.109a1.129,1.129,0,1,0-1.6,1.6l9.906,9.922a2.385,2.385,0,0,0,3.377,0l5.3-5.311a2.394,2.394,0,0,0,0-3.377l-.058-.058.669-.67a4.538,4.538,0,0,1,2.922-1.325,6.39,6.39,0,0,0,4.112-1.865l4.87-4.881A3.867,3.867,0,0,0,39.6,54.2a3.851,3.851,0,0,0,5.5-3.485V48.03a3.849,3.849,0,0,0,5.445-3.51V36.592l3.474,3.491a1.129,1.129,0,0,0,1.6-1.593l-2.9-2.91a3.847,3.847,0,0,1,4.572.656l5.143,5.152a4.129,4.129,0,0,1,1.213,2.935v3.226a6.776,6.776,0,0,0,1.992,4.819l.351.351-1.638,1.641-9.908,9.925L53.9,63.73l-.017-.016-.1-.1a6.8,6.8,0,0,0-4.373-1.982,4.141,4.141,0,0,1-2.663-1.209l-3.711-3.691a1.129,1.129,0,1,0-1.593,1.6l3.709,3.688a6.391,6.391,0,0,0,4.113,1.865,4.54,4.54,0,0,1,2.921,1.324l.055.055a1.086,1.086,0,0,0,.094.094l.521.521-.058.058a2.394,2.394,0,0,0,0,3.377l5.3,5.311a2.386,2.386,0,0,0,3.377,0L76.4,59.684A2.394,2.394,0,0,0,76.4,56.307Zm-9.725-11.23-.021,0-.206-.042ZM30.34,60.427a4.134,4.134,0,0,1-2.659,1.206,6.8,6.8,0,0,0-4.374,1.982l-.666.668-.6-.6-.023-.023L11.095,52.717l.351-.351a6.776,6.776,0,0,0,1.992-4.819V44.322a4.126,4.126,0,0,1,1.213-2.935l5.143-5.152a3.846,3.846,0,0,1,4.578-.653l-2.9,2.906a1.129,1.129,0,0,0,1.6,1.6l3.465-3.472v14.1a3.851,3.851,0,0,0,5.524,3.475,3.87,3.87,0,0,0,1.914,2.6ZM48.294,44.52a1.593,1.593,0,1,1-3.187,0v-12.6a1.129,1.129,0,1,0-2.259,0v18.79a1.592,1.592,0,0,1-3.163.264V31.91a1.141,1.141,0,0,0-2.282.013V50.712a3.872,3.872,0,0,0,.024.424v2.276a1.593,1.593,0,1,1-3.186,0V31.9a1.13,1.13,0,0,0-2.259,0V50.712a1.593,1.593,0,1,1-3.186,0V29.7a1.129,1.129,0,1,0-2.259,0V33.59a1.109,1.109,0,0,0-.272.13,3.865,3.865,0,0,1-2.5-3.615V22.819a4.129,4.129,0,0,1,1.213-2.935L27.252,17.6a6.774,6.774,0,0,0,1.993-4.819v-.5h2.27a1.129,1.129,0,1,0,0-2.259h-4.7a.129.129,0,0,1-.129-.129V2.388a.129.129,0,0,1,.129-.129h21.1a.129.129,0,0,1,.129.129V9.9a.129.129,0,0,1-.129.129H36.817a1.129,1.129,0,0,0,0,2.259h8.754v.946a6.819,6.819,0,0,0,1.692,4.5,4.152,4.152,0,0,1,1.031,2.739ZM74.8,58.088,59.884,73.032a.121.121,0,0,1-.09.038.123.123,0,0,1-.09-.038l-5.3-5.311a.131.131,0,0,1,0-.185l.853-.855h0L63.916,58l5.4-5.413a.126.126,0,0,1,.179,0L74.8,57.9A.131.131,0,0,1,74.8,58.088Zm0,0"/>
      <path id="Trazado_913363" data-name="Trazado 913363" d="M195.019,32.8a1.2,1.2,0,1,0,1.2,1.2A1.2,1.2,0,0,0,195.019,32.8Zm0,0" transform="translate(-164.631 -27.865)"/>
      <path id="Trazado_913364" data-name="Trazado 913364" d="M456.617,374.688a1.2,1.2,0,1,0,1.2,1.2A1.205,1.205,0,0,0,456.617,374.688Zm0,0" transform="translate(-386.837 -318.267)"/>
      <path id="Trazado_913365" data-name="Trazado 913365" d="M111.417,444.408a1.2,1.2,0,1,0-1.2,1.2A1.2,1.2,0,0,0,111.417,444.408Zm0,0" transform="translate(-92.597 -376.465)"/>
    </g>
  </g>
</svg>
