<svg xmlns="http://www.w3.org/2000/svg" xmlns:xlink="http://www.w3.org/1999/xlink" width="118" height="118" viewBox="0 0 118 118">
  <defs>
    <filter id="Trazado_874925" x="0" y="0" width="117.999" height="118" filterUnits="userSpaceOnUse">
      <feOffset dy="3" input="SourceAlpha"/>
      <feGaussianBlur stdDeviation="3" result="blur"/>
      <feFlood flood-opacity="0.161"/>
      <feComposite operator="in" in2="blur"/>
      <feComposite in="SourceGraphic"/>
    </filter>
  </defs>
  <g id="Grupo_1118824" data-name="Grupo 1118824" transform="translate(-1064.051 -2094)">
    <g id="Grupo_1111553" data-name="Grupo 1111553" transform="translate(264.551 -417.157)">
      <g id="Grupo_1111316" data-name="Grupo 1111316" transform="translate(808.5 2517.157)">
        <g id="Grupo_1109835" data-name="Grupo 1109835" transform="translate(0 0)">
          <g id="Grupo_1107913" data-name="Grupo 1107913" transform="translate(0 0)">
            <g transform="matrix(1, 0, 0, 1, -9, -6)" filter="url(#Trazado_874925)">
              <g id="Trazado_874925-2" data-name="Trazado 874925" transform="translate(9 6)" fill="#fc0" opacity="0.859">
                <path d="M 49.99972534179688 98.4998779296875 C 43.45164108276367 98.4998779296875 37.10022354125977 97.21776580810547 31.12189674377441 94.68914794921875 C 25.34676742553711 92.24647521972656 20.15985298156738 88.74925994873047 15.70523929595947 84.29464721679688 C 11.25062561035156 79.84004974365234 7.753411293029785 74.65313720703125 5.310725212097168 68.87800598144531 C 2.782111167907715 62.89969253540039 1.499996781349182 56.54829406738281 1.499996781349182 50.00022125244141 C 1.499996781349182 43.45157623291016 2.782111167907715 37.10017776489258 5.310725212097168 31.12186431884766 C 7.753411293029785 25.34673500061035 11.25062561035156 20.15983581542969 15.70523929595947 15.70522117614746 C 20.15985298156738 11.25062084197998 25.34676742553711 7.753406524658203 31.12189674377441 5.31073522567749 C 37.10022354125977 2.782120943069458 43.45164108276367 1.500006556510925 49.99972534179688 1.500006556510925 C 56.54780960083008 1.500006556510925 62.89922714233398 2.782120943069458 68.87755584716797 5.31073522567749 C 74.65267944335938 7.753406524658203 79.839599609375 11.25062084197998 84.29421234130859 15.70522117614746 C 88.74882507324219 20.15983581542969 92.24604034423828 25.34673500061035 94.68872833251953 31.12186431884766 C 97.21733856201172 37.10017776489258 98.49945068359375 43.45157623291016 98.49945068359375 49.99964904785156 C 98.49945068359375 56.54829406738281 97.21733856201172 62.89969253540039 94.68872833251953 68.87800598144531 C 92.24604034423828 74.65313720703125 88.74882507324219 79.84004974365234 84.29421234130859 84.29464721679688 C 79.839599609375 88.74925994873047 74.65267944335938 92.24647521972656 68.87755584716797 94.68914794921875 C 62.89922714233398 97.21776580810547 56.54780960083008 98.4998779296875 49.99972534179688 98.4998779296875 Z" stroke="none"/>
                <path d="M 49.99972534179688 3 C 43.65348052978516 3 37.49866485595703 4.242240905761719 31.70623016357422 6.692230224609375 C 26.10989379882812 9.059272766113281 21.08323669433594 12.44853210449219 16.76589202880859 16.76587677001953 C 12.44855499267578 21.08321380615234 9.059295654296875 26.10985565185547 6.692230224609375 31.70618438720703 C 4.24224853515625 37.49859619140625 3 43.65341186523438 3 50.00022888183594 C 3 56.34645843505859 4.24224853515625 62.50127410888672 6.692230224609375 68.29368591308594 C 9.059295654296875 73.8900146484375 12.44855499267578 78.91665649414062 16.76589202880859 83.23399353027344 C 21.08323669433594 87.55132293701172 26.10989379882812 90.94059753417969 31.70623016357422 93.30764007568359 C 37.49866485595703 95.75762939453125 43.65348052978516 96.99987030029297 49.99972534179688 96.99987030029297 C 56.34597015380859 96.99987030029297 62.50078582763672 95.75762939453125 68.293212890625 93.30764007568359 C 73.88955688476562 90.94059753417969 78.91621398925781 87.55132293701172 83.23355865478516 83.23399353027344 C 87.55089569091797 78.91665649414062 90.94015502929688 73.8900146484375 93.30722045898438 68.29368591308594 C 95.7572021484375 62.50127410888672 96.99945068359375 56.34645843505859 96.99945068359375 49.99964141845703 C 96.99945068359375 43.65341186523438 95.7572021484375 37.49859619140625 93.30722045898438 31.70618438720703 C 90.94015502929688 26.10985565185547 87.55089569091797 21.08321380615234 83.23355865478516 16.76587677001953 C 78.91621398925781 12.44853210449219 73.88955688476562 9.059272766113281 68.293212890625 6.692230224609375 C 62.50078582763672 4.242240905761719 56.34597015380859 3 49.99972534179688 3 M 49.99972534179688 0 C 77.61381530761719 0 99.99945068359375 22.38559722900391 99.99945068359375 49.99964141845703 L 99.99945068359375 50.00022888183594 C 99.99945068359375 77.6142578125 77.61381530761719 99.99987030029297 49.99972534179688 99.99987030029297 C 22.38563537597656 99.99987030029297 0 77.6142578125 0 50.00022888183594 L 0 49.99964141845703 C 0 22.38559722900391 22.38563537597656 0 49.99972534179688 0 Z" stroke="none" fill="#fff"/>
              </g>
            </g>
            <g id="Trazado_874923" data-name="Trazado 874923" transform="translate(0 0)" fill="none">
              <path d="M50,0a50,50,0,0,1,50,50h0A50,50,0,0,1,0,50H0A50,50,0,0,1,50,0Z" stroke="none"/>
              <path d="M 49.99972534179688 3 C 43.65348052978516 3 37.49866485595703 4.242240905761719 31.70623016357422 6.692230224609375 C 26.10989379882812 9.059272766113281 21.08323669433594 12.44853210449219 16.76589202880859 16.76587677001953 C 12.44855499267578 21.08321380615234 9.059295654296875 26.10985565185547 6.692230224609375 31.70618438720703 C 4.24224853515625 37.49859619140625 3 43.65341186523438 3 50.00022888183594 C 3 56.34645843505859 4.24224853515625 62.50127410888672 6.692230224609375 68.29368591308594 C 9.059295654296875 73.8900146484375 12.44855499267578 78.91665649414062 16.76589202880859 83.23399353027344 C 21.08323669433594 87.55132293701172 26.10989379882812 90.94059753417969 31.70623016357422 93.30764007568359 C 37.49866485595703 95.75762939453125 43.65348052978516 96.99987030029297 49.99972534179688 96.99987030029297 C 56.34597015380859 96.99987030029297 62.50078582763672 95.75762939453125 68.293212890625 93.30764007568359 C 73.88955688476562 90.94059753417969 78.91621398925781 87.55132293701172 83.23355865478516 83.23399353027344 C 87.55089569091797 78.91665649414062 90.94015502929688 73.8900146484375 93.30722045898438 68.29368591308594 C 95.7572021484375 62.50127410888672 96.99945068359375 56.34645843505859 96.99945068359375 49.99964141845703 C 96.99945068359375 43.65341186523438 95.7572021484375 37.49859619140625 93.30722045898438 31.70618438720703 C 90.94015502929688 26.10985565185547 87.55089569091797 21.08321380615234 83.23355865478516 16.76587677001953 C 78.91621398925781 12.44853210449219 73.88955688476562 9.059272766113281 68.293212890625 6.692230224609375 C 62.50078582763672 4.242240905761719 56.34597015380859 3 49.99972534179688 3 M 49.99972534179688 0 C 77.61381530761719 0 99.99945068359375 22.38559722900391 99.99945068359375 49.99964141845703 L 99.99945068359375 50.00022888183594 C 99.99945068359375 77.6142578125 77.61381530761719 99.99987030029297 49.99972534179688 99.99987030029297 C 22.38563537597656 99.99987030029297 0 77.6142578125 0 50.00022888183594 L 0 49.99964141845703 C 0 22.38559722900391 22.38563537597656 0 49.99972534179688 0 Z" stroke="none" fill="#fff"/>
            </g>
          </g>
        </g>
      </g>
    </g>
    <g id="Grupo_1118823" data-name="Grupo 1118823" transform="translate(1093.051 2111.018)">
      <g id="Grupo_1118821" data-name="Grupo 1118821" transform="translate(0.87 11.858)">
        <path id="Trazado_913366" data-name="Trazado 913366" d="M204.378,302.249l-1.429-.9a5.885,5.885,0,0,0,0-2.289l1.429-.9a1.118,1.118,0,0,0,.353-1.541l-1.034-1.649a1.118,1.118,0,0,0-1.541-.353l-1.429.9a5.863,5.863,0,0,0-1.448-.8v-1.686a1.118,1.118,0,0,0-1.118-1.118h-1.946a1.118,1.118,0,0,0-1.118,1.118v1.686a5.863,5.863,0,0,0-1.448.8l-1.429-.9a1.118,1.118,0,0,0-1.541.353l-1.034,1.649a1.118,1.118,0,0,0,.353,1.541l1.429.9a5.886,5.886,0,0,0,0,2.289l-1.429.9a1.118,1.118,0,0,0-.353,1.541l1.034,1.649a1.118,1.118,0,0,0,1.541.353l1.429-.9a5.862,5.862,0,0,0,1.448.8v1.686a1.118,1.118,0,0,0,1.118,1.118h1.946a1.118,1.118,0,0,0,1.118-1.118V305.7a5.862,5.862,0,0,0,1.448-.8l1.429.9a1.118,1.118,0,0,0,1.541-.353l1.034-1.649A1.118,1.118,0,0,0,204.378,302.249Zm-7.19-.018a2.022,2.022,0,1,1,2.022-2.022A2.022,2.022,0,0,1,197.188,302.231Z" transform="translate(-168.373 -260.214)" fill="#8d9ca8"/>
        <path id="Trazado_913367" data-name="Trazado 913367" d="M204.378,302.249l-1.429-.9a5.885,5.885,0,0,0,0-2.289l1.429-.9a1.118,1.118,0,0,0,.353-1.541l-1.034-1.649a1.118,1.118,0,0,0-1.541-.353l-1.429.9a5.863,5.863,0,0,0-1.448-.8v-1.686a1.118,1.118,0,0,0-1.118-1.118h-1.946a1.118,1.118,0,0,0-1.118,1.118v1.686a5.863,5.863,0,0,0-1.448.8l-1.429-.9a1.118,1.118,0,0,0-1.541.353l-1.034,1.649a1.118,1.118,0,0,0,.353,1.541l1.429.9a5.886,5.886,0,0,0,0,2.289l-1.429.9a1.118,1.118,0,0,0-.353,1.541l1.034,1.649a1.118,1.118,0,0,0,1.541.353l1.429-.9a5.862,5.862,0,0,0,1.448.8v1.686a1.118,1.118,0,0,0,1.118,1.118h1.946a1.118,1.118,0,0,0,1.118-1.118V305.7a5.862,5.862,0,0,0,1.448-.8l1.429.9a1.118,1.118,0,0,0,1.541-.353l1.034-1.649A1.118,1.118,0,0,0,204.378,302.249Zm-7.19-.018a2.022,2.022,0,1,1,2.022-2.022A2.022,2.022,0,0,1,197.188,302.231Z" transform="translate(-168.373 -260.214)" fill="#8d9ca8"/>
        <path id="Trazado_913368" data-name="Trazado 913368" d="M247.25,302.244l-1.429-.9a5.879,5.879,0,0,0,0-2.289l1.429-.9a1.117,1.117,0,0,0,.354-1.541l-1.033-1.649a1.118,1.118,0,0,0-1.541-.353l-1.43.9a5.823,5.823,0,0,0-1.448-.8v-1.687a1.118,1.118,0,0,0-1.118-1.118h-1.946a1.118,1.118,0,0,0-1.118,1.118v.081a8.244,8.244,0,0,1,4.112,7.053c0,.019,0,.037,0,.056v.03a8.244,8.244,0,0,1-4.113,7.138,1.117,1.117,0,0,0,1.118,1.111h1.946a1.117,1.117,0,0,0,1.118-1.118v-1.686a5.825,5.825,0,0,0,1.448-.8l1.43.9a1.118,1.118,0,0,0,1.541-.353l1.033-1.649a1.117,1.117,0,0,0-.354-1.541Z" transform="translate(-211.245 -260.21)" fill="#7a8c98"/>
        <path id="Trazado_913369" data-name="Trazado 913369" d="M177.564,81.163,177.4,78.4a1.588,1.588,0,0,0-1.678-1.491l-2.391.141a8.323,8.323,0,0,0-1.257-1.987l1.15-2.1a1.587,1.587,0,0,0-.63-2.155l-2.424-1.328a1.587,1.587,0,0,0-2.155.63l-1.15,2.1a8.32,8.32,0,0,0-2.351.011l-1.169-2.091a1.587,1.587,0,0,0-2.16-.611l-2.412,1.348a1.587,1.587,0,0,0-.611,2.16l1.168,2.09a8.361,8.361,0,0,0-1.562,2.851l-2.39.141a1.588,1.588,0,0,0-1.491,1.678l.163,2.759a1.588,1.588,0,0,0,1.678,1.491l2.391-.141a8.324,8.324,0,0,0,1.257,1.987l-1.15,2.1a1.587,1.587,0,0,0,.63,2.155l2.424,1.328a1.587,1.587,0,0,0,2.155-.63l1.15-2.1a8.32,8.32,0,0,0,2.351-.011l1.169,2.091a1.587,1.587,0,0,0,2.16.611l2.412-1.348a1.587,1.587,0,0,0,.611-2.16l-1.168-2.09a8.361,8.361,0,0,0,1.562-2.851l2.39-.141A1.587,1.587,0,0,0,177.564,81.163Zm-9.319.694a2.872,2.872,0,1,1-1.139-3.9A2.872,2.872,0,0,1,168.245,81.858Z" transform="translate(-136.91 -63.404)" fill="#b6c4cf"/>
        <path id="Trazado_913370" data-name="Trazado 913370" d="M177.564,81.163,177.4,78.4a1.588,1.588,0,0,0-1.678-1.491l-2.391.141a8.323,8.323,0,0,0-1.257-1.987l1.15-2.1a1.587,1.587,0,0,0-.63-2.155l-2.424-1.328a1.587,1.587,0,0,0-2.155.63l-1.15,2.1a8.32,8.32,0,0,0-2.351.011l-1.169-2.091a1.587,1.587,0,0,0-2.16-.611l-2.412,1.348a1.587,1.587,0,0,0-.611,2.16l1.168,2.09a8.361,8.361,0,0,0-1.562,2.851l-2.39.141a1.588,1.588,0,0,0-1.491,1.678l.163,2.759a1.588,1.588,0,0,0,1.678,1.491l2.391-.141a8.324,8.324,0,0,0,1.257,1.987l-1.15,2.1a1.587,1.587,0,0,0,.63,2.155l2.424,1.328a1.587,1.587,0,0,0,2.155-.63l1.15-2.1a8.32,8.32,0,0,0,2.351-.011l1.169,2.091a1.587,1.587,0,0,0,2.16.611l2.412-1.348a1.587,1.587,0,0,0,.611-2.16l-1.168-2.09a8.361,8.361,0,0,0,1.562-2.851l2.39-.141A1.587,1.587,0,0,0,177.564,81.163Zm-9.319.694a2.872,2.872,0,1,1-1.139-3.9A2.872,2.872,0,0,1,168.245,81.858Z" transform="translate(-136.91 -63.404)" fill="#b6c4cf"/>
        <path id="Trazado_913371" data-name="Trazado 913371" d="M277.059,81.165l-.162-2.759a1.588,1.588,0,0,0-1.679-1.491l-2.391.141a8.311,8.311,0,0,0-1.257-1.988l1.15-2.1a1.589,1.589,0,0,0-.63-2.156l-2.423-1.327a1.587,1.587,0,0,0-2.156.63l-1.081,1.972a11.254,11.254,0,0,1,0,16.645l1.168,2.09a1.587,1.587,0,0,0,2.16.611l2.413-1.349a1.589,1.589,0,0,0,.611-2.16l-1.169-2.09a8.386,8.386,0,0,0,.921-1.35,8.475,8.475,0,0,0,.641-1.5l2.39-.141a1.587,1.587,0,0,0,1.491-1.678Z" transform="translate(-236.405 -63.405)" fill="#9facba"/>
        <path id="Trazado_913372" data-name="Trazado 913372" d="M62.956,24.51l-.612,3.448a2.032,2.032,0,0,0,1.645,2.356l-.415,2.334,3.137.557.415-2.334a2.032,2.032,0,0,0,2.356-1.645l.612-3.448a2.244,2.244,0,0,0-1.817-2.6l-2.718-.483a2.244,2.244,0,0,0-2.6,1.817Z" transform="translate(-55.956 -22.18)" fill="#ffe5c2"/>
        <path id="Trazado_913373" data-name="Trazado 913373" d="M79.719,25.777l-.612,3.447a2.034,2.034,0,0,1-2,1.677,2.094,2.094,0,0,1-.357-.031L76.337,33.2,73.2,32.646l.414-2.333a1.978,1.978,0,0,0,2.422-1.456l.547-3.08a2.245,2.245,0,0,0-1.817-2.6l-1.125-.2a2.229,2.229,0,0,1,1.542-.283l2.718.482a2.245,2.245,0,0,1,1.817,2.6Z" transform="translate(-65.582 -22.179)" fill="#fed2a4"/>
        <path id="Trazado_913374" data-name="Trazado 913374" d="M66.869,21.516l8.195,2.5a.874.874,0,0,0,1.106-.636l.582-2.47a.874.874,0,0,0-.679-1.058l-6.327-1.27a2.272,2.272,0,0,0-2.686,1.837Z" transform="translate(-59.985 -18.535)" fill="#fee97d"/>
        <path id="Trazado_913375" data-name="Trazado 913375" d="M127.276,27.622l-.582,2.47a.875.875,0,0,1-1.106.637l-1.568-.478a.986.986,0,0,0,.119-.3l.627-2.811a1.021,1.021,0,0,0-.337-1.011l2.167.435A.874.874,0,0,1,127.276,27.622Z" transform="translate(-110.509 -25.249)" fill="#fedf30"/>
        <path id="Trazado_913376" data-name="Trazado 913376" d="M9.109,244.066l.865,13.824L7.5,271.174a1.811,1.811,0,0,0,1.811,1.812H14.32l-1.742-3L17.721,245.6Z" transform="translate(-7.5 -217.914)" fill="#eaf6ff"/>
        <path id="Trazado_913377" data-name="Trazado 913377" d="M32.164,277.729l1.742,3H30.375a.452.452,0,0,0,.4-.66l-1.032-1.985a1.322,1.322,0,0,1-.066-.719l4.728-24.54,2.9.515Z" transform="translate(-27.086 -225.653)" fill="#d8ecfe"/>
        <path id="Trazado_913378" data-name="Trazado 913378" d="M29.985,125.575l-8.612-1.53,2.339-13.169a3.119,3.119,0,0,1,3.616-2.526l3.38.6a2.195,2.195,0,0,1,1.777,2.545Z" transform="translate(-19.764 -97.893)" fill="#8379c1"/>
        <path id="Trazado_913379" data-name="Trazado 913379" d="M63.893,111.494l-2.5,14.08-3.039-.54,2.4-13.539a2.195,2.195,0,0,0-1.778-2.544l-2.08-.37a3.1,3.1,0,0,1,1.836-.231l3.38.6A2.195,2.195,0,0,1,63.893,111.494Z" transform="translate(-51.172 -97.891)" fill="#6e61b6"/>
        <path id="Trazado_913380" data-name="Trazado 913380" d="M21.373,244.066c0,3.1.183,4.725,1.992,6.909l5.757,6.578.257,13.622a1.811,1.811,0,0,0,1.811,1.811h4.545l-1.742-3,.238-12.718a5.757,5.757,0,0,0-.423-2.278l-3.823-9.4Z" transform="translate(-19.764 -217.914)" fill="#f2fbff"/>
        <path id="Trazado_913381" data-name="Trazado 913381" d="M74.994,279.738l-1.047-1.8a1.712,1.712,0,0,1-.233-.85l-.107-12.261a5.762,5.762,0,0,0-.422-2.279L69.46,252.61l3.036.539,3.824,9.4a5.784,5.784,0,0,1,.423,2.279L76.5,277.543l1.743,3H74.533A.533.533,0,0,0,74.994,279.738Z" transform="translate(-62.275 -225.467)" fill="#eaf6ff"/>
        <path id="Trazado_913382" data-name="Trazado 913382" d="M68.8,252.5l-.087-.015.085.009Z" transform="translate(-61.612 -225.352)" fill="#eaf6ff"/>
        <path id="Trazado_913383" data-name="Trazado 913383" d="M83.195,163.447l-1.367.37a3.589,3.589,0,0,1-1.365.1l-8.145-.966a4.5,4.5,0,0,1-3.661-2.821l-.487-1.235,4-1.884.816,2.01,7.5,1.332,1.808-.437a1.2,1.2,0,0,1,1.448.878l.3,1.2A1.2,1.2,0,0,1,83.195,163.447Z" transform="translate(-61.135 -140.953)" fill="#ffe5c2"/>
        <path id="Trazado_913384" data-name="Trazado 913384" d="M165.57,185.33l-1.367.37a3.589,3.589,0,0,1-1.365.1l-1.488-.176,1.084-.293a1.2,1.2,0,0,0,.852-1.449l-.3-1.2a1.2,1.2,0,0,0-.226-.459l.106.019,1.808-.437a1.2,1.2,0,0,1,1.448.878l.3,1.2A1.2,1.2,0,0,1,165.57,185.33Z" transform="translate(-143.51 -162.836)" fill="#fed2a4"/>
        <path id="Trazado_913385" data-name="Trazado 913385" d="M389.454,24.51l.612,3.448a2.032,2.032,0,0,1-1.645,2.356l.415,2.334L385.7,33.2l-.415-2.334a2.032,2.032,0,0,1-2.356-1.645l-.612-3.448a2.244,2.244,0,0,1,1.817-2.6l2.718-.483a2.244,2.244,0,0,1,2.6,1.817Z" transform="translate(-338.823 -22.18)" fill="#ffbd86"/>
        <path id="Trazado_913386" data-name="Trazado 913386" d="M412.746,27.957l-.612-3.448a2.244,2.244,0,0,0-2.6-1.817l-1.6.283A2.237,2.237,0,0,1,409,24.51l.795,4.069a2.1,2.1,0,0,1-1.829,2.291l.415,2.334,3.137-.557-.415-2.334a2.032,2.032,0,0,0,1.645-2.356Z" transform="translate(-361.502 -22.18)" fill="#f6a96c"/>
        <path id="Trazado_913387" data-name="Trazado 913387" d="M397.032,125.575l8.612-1.53-2.339-13.169a3.119,3.119,0,0,0-3.617-2.526l-3.38.6a2.195,2.195,0,0,0-1.777,2.545Z" transform="translate(-349.622 -97.893)" fill="#fef0ae"/>
        <path id="Trazado_913388" data-name="Trazado 913388" d="M435.315,124.044l-3.17.564-2.3-13.733a3.116,3.116,0,0,0-1.781-2.295l1.3-.231a3.119,3.119,0,0,1,3.617,2.526Z" transform="translate(-379.293 -97.891)" fill="#fee97d"/>
        <path id="Trazado_913389" data-name="Trazado 913389" d="M381.127,244.066c0,3.1-.183,4.725-1.992,6.909l-5.757,6.578-.257,13.622a1.811,1.811,0,0,1-1.811,1.811h-4.545l1.742-3-.238-12.718a5.756,5.756,0,0,1,.423-2.278l3.823-9.4Z" transform="translate(-325.104 -217.914)" fill="#fe76a8"/>
        <path id="Trazado_913390" data-name="Trazado 913390" d="M391.865,244.07c0,3.1-.183,4.725-1.992,6.909l-5.757,6.577-.257,13.622a1.812,1.812,0,0,1-1.812,1.811H378.91a1.812,1.812,0,0,0,1.812-1.811l.243-12.917a1.941,1.941,0,0,1,.478-1.236l5.293-6.046c1.7-2.049,1.963-3.609,1.99-6.351Z" transform="translate(-335.842 -217.917)" fill="#fe5694"/>
        <path id="Trazado_913391" data-name="Trazado 913391" d="M324.449,110.757a2.182,2.182,0,0,1-.153.8l-2.268,5.752a4.5,4.5,0,0,1-3.661,2.821l-8.145.966-.029,0a3.581,3.581,0,0,1-1.336-.1l-1.367-.37a1.2,1.2,0,0,1-.852-1.449l.3-1.2a1.2,1.2,0,0,1,1.448-.878l1.808.437,7.5-1.332,2.545-6.265a2.184,2.184,0,0,1,4.207.823Z" transform="translate(-271.919 -98.132)" fill="#fee97d"/>
        <path id="Trazado_913392" data-name="Trazado 913392" d="M403.958,110.757a2.182,2.182,0,0,1-.153.8l-2.268,5.752a4.5,4.5,0,0,1-3.661,2.821l-1.336.159a4.736,4.736,0,0,0,1.776-2.21l2.353-6.521a2.179,2.179,0,0,0-.463-2.32,2.184,2.184,0,0,1,3.751,1.52Z" transform="translate(-351.428 -98.133)" fill="#fedf30"/>
        <path id="Trazado_913393" data-name="Trazado 913393" d="M424.967,244.066,424.1,257.89l2.474,13.284a1.811,1.811,0,0,1-1.811,1.812h-5.008l1.742-3L416.355,245.6Z" transform="translate(-368.945 -217.914)" fill="#fe76a8"/>
        <path id="Trazado_913394" data-name="Trazado 913394" d="M461.916,271.178a1.811,1.811,0,0,1-1.811,1.811H456.97a1.811,1.811,0,0,0,1.811-1.811L456.4,258.39a4.059,4.059,0,0,1-.06-1l.8-12.758,3.17-.564-.865,13.825Z" transform="translate(-404.285 -217.917)" fill="#fe5694"/>
        <path id="Trazado_913395" data-name="Trazado 913395" d="M57.426,114.19l-4,1.884-1.781-4.517a2.183,2.183,0,0,1,4.054-1.623Z" transform="translate(-46.389 -98.132)" fill="#978ecb"/>
        <path id="Trazado_913396" data-name="Trazado 913396" d="M310.193,182.235V185.8a3.58,3.58,0,0,1-1.336-.1l-1.367-.37a1.2,1.2,0,0,1-.852-1.449l.3-1.2a1.2,1.2,0,0,1,1.448-.878Z" transform="translate(-271.919 -162.836)" fill="#ffbd86"/>
        <path id="Trazado_913397" data-name="Trazado 913397" d="M390.063,27.958a12.064,12.064,0,0,1-7.75-2.18,2.245,2.245,0,0,1,1.817-2.6l2.718-.482a2.243,2.243,0,0,1,2.6,1.817Z" transform="translate(-338.82 -22.18)" fill="#8d9ca8"/>
        <path id="Trazado_913398" data-name="Trazado 913398" d="M412.132,24.51a2.243,2.243,0,0,0-2.6-1.817l-1.6.283A2.237,2.237,0,0,1,409,24.51l.639,3.272a10.424,10.424,0,0,0,3.108.175Z" transform="translate(-361.501 -22.18)" fill="#7a8c98"/>
      </g>
      <g id="Grupo_1118822" data-name="Grupo 1118822" transform="translate(0 10.982)">
        <path id="Trazado_913399" data-name="Trazado 913399" d="M198.834,289.536l-1.034-1.649a1.987,1.987,0,0,0-2.74-.628l-.946.593a6.726,6.726,0,0,0-.6-.332V286.4a1.99,1.99,0,0,0-1.988-1.988h-1.946a1.99,1.99,0,0,0-1.988,1.988v1.117a6.7,6.7,0,0,0-.6.332l-.946-.593a1.987,1.987,0,0,0-2.74.628l-1.034,1.649a1.987,1.987,0,0,0,.628,2.74l.946.593a6.733,6.733,0,0,0,0,1.421l-.946.593a1.99,1.99,0,0,0-.628,2.74l1.034,1.649a1.99,1.99,0,0,0,2.74.628l.946-.593a6.716,6.716,0,0,0,.6.332v1.117a1.99,1.99,0,0,0,1.988,1.988h1.946a1.99,1.99,0,0,0,1.988-1.988v-1.117a6.743,6.743,0,0,0,.6-.332l.946.593a1.99,1.99,0,0,0,2.74-.628l1.034-1.649a1.99,1.99,0,0,0-.628-2.74l-.946-.593a6.733,6.733,0,0,0,0-1.421l.946-.593A1.99,1.99,0,0,0,198.834,289.536Zm-1.552,1.266-1.429.9a.87.87,0,0,0-.391.905,5.02,5.02,0,0,1,0,1.952.87.87,0,0,0,.391.905l1.429.9a.248.248,0,0,1,.078.342l-1.034,1.649a.248.248,0,0,1-.342.078l-1.429-.9a.87.87,0,0,0-.987.043,4.988,4.988,0,0,1-1.234.683.87.87,0,0,0-.56.813v1.686a.248.248,0,0,1-.248.248h-1.946a.248.248,0,0,1-.248-.248v-1.686a.87.87,0,0,0-.56-.813,4.993,4.993,0,0,1-1.234-.683.87.87,0,0,0-.987-.043l-1.429.9a.249.249,0,0,1-.342-.078l-1.034-1.649a.248.248,0,0,1,.078-.342l1.429-.9a.87.87,0,0,0,.391-.905,5.015,5.015,0,0,1,0-1.952.87.87,0,0,0-.391-.905l-1.429-.9a.248.248,0,0,1-.078-.342l1.034-1.649a.248.248,0,0,1,.342-.078l1.429.9a.87.87,0,0,0,.987-.043,4.989,4.989,0,0,1,1.234-.683.87.87,0,0,0,.56-.813V286.4a.248.248,0,0,1,.248-.248h1.946a.248.248,0,0,1,.248.248v1.686a.869.869,0,0,0,.56.813,5,5,0,0,1,1.234.683.869.869,0,0,0,.987.043l1.429-.9a.248.248,0,0,1,.342.078l1.034,1.649A.249.249,0,0,1,197.282,290.8Z" transform="translate(-160.869 -252.709)"/>
        <path id="Trazado_913400" data-name="Trazado 913400" d="M233.952,338.494a2.892,2.892,0,1,0,2.892,2.892A2.9,2.9,0,0,0,233.952,338.494Zm0,4.045a1.153,1.153,0,1,1,1.153-1.153A1.154,1.154,0,0,1,233.952,342.539Z" transform="translate(-204.267 -300.516)"/>
        <path id="Trazado_913401" data-name="Trazado 913401" d="M229.277,133.977a3.742,3.742,0,1,0,1.484,5.079A3.746,3.746,0,0,0,229.277,133.977Zm-.041,4.243a2,2,0,1,1,.166-1.523A2,2,0,0,1,229.236,138.221Z" transform="translate(-197.795 -119.309)"/>
        <path id="Trazado_913402" data-name="Trazado 913402" d="M59.356,64.959,56.9,51.781l.859-13.717a.877.877,0,0,0-1.02-.911l-7.756,1.377-.708-3.987a5.363,5.363,0,0,0,3.512-3.191l2.1-5.314,1.437,8.09a.87.87,0,0,0,1.713-.3L55.41,24.689A3.99,3.99,0,0,0,51.6,21.4l-.148-.834a2.906,2.906,0,0,0,1.516-3.081l-.612-3.447a3.128,3.128,0,0,0-3.611-2.522,27.188,27.188,0,0,0-3.466.715,3.119,3.119,0,0,0-1.773,3.378l.612,3.449a2.9,2.9,0,0,0,2.485,2.37l.147.827a3.065,3.065,0,0,0-1.828,3.36l.643,3.621-3.173.563c.024.011-.165-2.907-.165-2.989a2.467,2.467,0,0,0-2.6-2.309l-1.813.107a9.2,9.2,0,0,0-.743-1.174l.873-1.593a2.462,2.462,0,0,0-.975-3.336l-2.423-1.326a2.469,2.469,0,0,0-3.336.975l-.872,1.593a9.159,9.159,0,0,0-1.388.006l-.887-1.586a2.469,2.469,0,0,0-3.344-.946l-2.413,1.349a2.462,2.462,0,0,0-.946,3.344L22.25,23.5a9.218,9.218,0,0,0-1.148,2.1l-1.813.107a2.467,2.467,0,0,0-2.309,2.6l.089,1.515-3.264-.58.643-3.621a3.064,3.064,0,0,0-1.828-3.36l.147-.826a2.906,2.906,0,0,0,2.485-2.372l.172-.97.272.083A1.756,1.756,0,0,0,17.9,16.9l.582-2.47a1.752,1.752,0,0,0-1.354-2.11L10.8,11.05a3.156,3.156,0,0,0-3.714,2.541c-.124.725-.552,3.13-.688,3.893a2.906,2.906,0,0,0,1.516,3.081l-.148.835a4,4,0,0,0-3.808,3.289L1.622,37.858a18.5,18.5,0,0,0,.2,3.553l.649,10.37L.015,64.959A.864.864,0,0,0,0,65.118,2.684,2.684,0,0,0,2.681,67.8H7.689a.876.876,0,0,0,.752-1.307L6.868,63.786l2.5-11.851.249,13.193A2.684,2.684,0,0,0,12.3,67.8h4.545a.876.876,0,0,0,.752-1.307l-1.742-3a.87.87,0,1,0-1.5.874l.982,1.689H12.3a.943.943,0,0,1-.942-.942c0-.005,0-.011,0-.016L11.1,51.48a.869.869,0,0,0-.215-.556l-5.75-6.569a7.322,7.322,0,0,1-1.775-5.3l7.108,1.262,3.642,8.954a4.859,4.859,0,0,1,.359,1.934l-.161,8.62a.87.87,0,1,0,1.739.033l.161-8.619a6.588,6.588,0,0,0-.487-2.622l-3.729-9.167.821-4.622,7.283.864a4.393,4.393,0,0,0,1.566-.093l-.237.433A2.46,2.46,0,0,0,22.4,39.36l2.424,1.328a2.46,2.46,0,0,0,3.336-.975l.873-1.593a9.216,9.216,0,0,0,1.388-.006l.887,1.586a2.46,2.46,0,0,0,3.344.946L37.063,39.3a2.462,2.462,0,0,0,.945-3.344l-.187-.335a4.39,4.39,0,0,0,1.436.069l7.3-.866.821,4.623-3.73,9.166a6.617,6.617,0,0,0-.487,2.622L43.4,63.707l-1.621,2.785a.876.876,0,0,0,.752,1.307h4.544a2.685,2.685,0,0,0,2.682-2.672L50,51.936l2.5,11.85-1.574,2.706a.876.876,0,0,0,.752,1.307h5.008a2.668,2.668,0,0,0,2.667-2.84ZM49.05,13.227a1.38,1.38,0,0,1,1.594,1.113l.439,2.472A11.514,11.514,0,0,1,45.2,14.977a1.382,1.382,0,0,1,1.13-1.267Zm-3.219,5.524-.28-1.574a12.7,12.7,0,0,0,5.577,1.376,1.161,1.161,0,0,1-.813.583.87.87,0,0,0-.7,1.008l.262,1.477-1.424.253L48.188,20.4a.941.941,0,0,0-1.214-.686A1.162,1.162,0,0,1,45.832,18.751Zm1.022,5.568c.368-.793,3.5-.9,4.2-1.14a1.322,1.322,0,0,1,1.385,1.785L50.17,30.716a3.629,3.629,0,0,1-2.954,2.276l-7.2.854v-1.86l6.786-1.2a.87.87,0,0,0,.654-.529L49.182,26a.87.87,0,1,0-1.611-.655l-.646,1.591-.289-1.626A1.314,1.314,0,0,1,46.854,24.319Zm-8.819,9.564-1.366-.37a.335.335,0,0,1-.236-.4l.3-1.205a.335.335,0,0,1,.4-.242l1.143.276v1.994C38.194,33.921,38.115,33.9,38.035,33.882Zm-25.3-8.574-.289,1.625L11.9,25.58a.87.87,0,1,0-1.611.655l.506,1.245L8.374,28.618,6.933,24.964a1.322,1.322,0,0,1,1.385-1.786l3.344.594a1.331,1.331,0,0,1,1.073,1.536Zm.8-6.557a1.162,1.162,0,0,1-1.347.941.875.875,0,0,0-1.008.7l-.262,1.478L9.5,21.621l.262-1.478a.87.87,0,0,0-.7-1.008,1.164,1.164,0,0,1-.941-1.347l.325-1.831,5.309,1.619ZM8.8,13.89a1.409,1.409,0,0,1,1.658-1.134l6.33,1.276L16.2,16.505l-7.46-2.275ZM5.487,26.04l2.1,5.314a5.362,5.362,0,0,0,3.512,3.191l-.708,3.987-6.9-1.225ZM7.951,50.216,5.1,63.755a.87.87,0,0,0,.1.617l.982,1.688h-3.5a.943.943,0,0,1-.939-.874L4.2,51.994a.867.867,0,0,0,.013-.213l-.393-6.288ZM20.3,33.958l-8.145-.966A3.629,3.629,0,0,1,9.2,30.716l-.188-.476,2.433-1.146.471,1.159a.87.87,0,0,0,.654.529l7.5,1.332a.873.873,0,0,0,.356-.011l1.809-.438a.331.331,0,0,1,.4.242l.3,1.205a.334.334,0,0,1-.235.4l-1.368.37a2.713,2.713,0,0,1-1.035.075Zm15.914,3.821L33.8,39.128a.719.719,0,0,1-.977-.276l-1.169-2.091a.869.869,0,0,0-.886-.436,7.481,7.481,0,0,1-2.106.009.869.869,0,0,0-.881.444l-1.15,2.1a.72.72,0,0,1-.975.285l-2.424-1.328a.718.718,0,0,1-.285-.974l1.15-2.1a2.615,2.615,0,0,0,.527-2.068l-.3-1.2a2.073,2.073,0,0,0-2.5-1.514l-1.631.394-1.37-.243L18.715,28.2a.72.72,0,0,1,.674-.758l2.39-.141a.87.87,0,0,0,.778-.605,7.517,7.517,0,0,1,1.4-2.558.87.87,0,0,0,.091-.981l-1.168-2.088a.72.72,0,0,1,.276-.978l2.413-1.349a.721.721,0,0,1,.977.276L27.716,21.1a.869.869,0,0,0,.886.436,7.439,7.439,0,0,1,2.1-.009.869.869,0,0,0,.882-.444l1.15-2.1a.721.721,0,0,1,.975-.284l2.423,1.326a.72.72,0,0,1,.285.976l-1.15,2.1a.87.87,0,0,0,.1.982A7.435,7.435,0,0,1,36.5,25.865a.867.867,0,0,0,.845.512l2.391-.141a.719.719,0,0,1,.758.675l.164,2.759a.707.707,0,0,1-.134.46l-1.35.24-1.629-.394a2.074,2.074,0,0,0-2.5,1.513l-.3,1.2a2.078,2.078,0,0,0,.548,1.958c.01.021.018.042.029.062L36.489,36.8a.72.72,0,0,1-.276.977ZM48.489,50.924a.871.871,0,0,0-.215.556L48.016,65.1c0,.005,0,.011,0,.016a.943.943,0,0,1-.943.942H44.041l.982-1.688a.871.871,0,0,0,.118-.454L44.9,51.2a4.878,4.878,0,0,1,.359-1.935L48.015,42.5l1.523,7.225Zm8.2,15.136h-3.5l.982-1.689a.87.87,0,0,0,.1-.617L49.316,40.239l6.639-1.179s-.8,12.863-.783,12.933l2.457,13.192a.943.943,0,0,1-.939.874Z" transform="translate(0 -10.982)"/>
      </g>
    </g>
  </g>
</svg>
