<svg xmlns="http://www.w3.org/2000/svg" width="85" height="85" viewBox="0 0 85 85">
  <g id="Grupo_1119172" data-name="Grupo 1119172" transform="translate(-620.051 -6600)">
    <circle id="Elipse_11632" data-name="Elipse 11632" cx="42.5" cy="42.5" r="42.5" transform="translate(620.051 6600)" fill="#fc0"/>
    <g id="Grupo_1119171" data-name="Grupo 1119171" transform="translate(632.551 6608.77)">
      <g id="Grupo_1119168" data-name="Grupo 1119168" transform="translate(0 1.278)">
        <path id="Trazado_913599" data-name="Trazado 913599" d="M260.509,88.754l-3.218,1.416a5.859,5.859,0,0,1-7.723-3l-1.555-3.535,8.581-3.776Z" transform="translate(-218.949 -71.572)" fill="#ffceb7"/>
        <path id="Trazado_913600" data-name="Trazado 913600" d="M185.005,11.123l-6.1,2.682-4.6-4.636-4.386,1.93.31,6.524-6.1,2.682a3.962,3.962,0,0,0-2.031,5.222l28.121-12.373A3.962,3.962,0,0,0,185.005,11.123Z" transform="translate(-142.812 -9.169)" fill="#e6cc9f"/>
        <path id="Trazado_913601" data-name="Trazado 913601" d="M337.55,140.306c-1.543-3.208-5.308-4.866-8.425-3.147-2.233,1.232-3.071,4.044-2.353,7.575.578,2.84,2.732,9.162,4.133,13.14l11.922-5.914S339.257,143.853,337.55,140.306Z" transform="translate(-288.257 -121.551)" fill="#75d2f5"/>
        <path id="Trazado_913602" data-name="Trazado 913602" d="M375.853,268.651l-11.922,5.914c.724,2.055,1.247,3.484,1.247,3.484v17.6h12.3V279.486C379.9,274.4,375.853,268.651,375.853,268.651Z" transform="translate(-321.283 -238.243)" fill="#cdd9dd"/>
        <path id="Trazado_913603" data-name="Trazado 913603" d="M172.576,25.322,166.48,28a3.955,3.955,0,0,0-2.321,3.029l-2.053.9a3.962,3.962,0,0,1,2.031-5.222l6.1-2.682-.311-6.524,2.454-1.079Z" transform="translate(-142.811 -15.579)" fill="#dfba7f"/>
        <path id="Trazado_913604" data-name="Trazado 913604" d="M253.4,109.528l-2.934-6.669-2.454,1.08,1.555,3.535a5.855,5.855,0,0,0,4.71,3.462A5.856,5.856,0,0,1,253.4,109.528Z" transform="translate(-218.95 -91.88)" fill="#ffaa81"/>
        <path id="Trazado_913605" data-name="Trazado 913605" d="M329.7,144.741c-.718-3.531.12-6.343,2.353-7.575a5.575,5.575,0,0,1,1.2-.493,5.51,5.51,0,0,0-4.134.493c-2.233,1.232-3.071,4.044-2.353,7.575.578,2.84,2.732,9.162,4.133,13.14l2.5-1.238C332.025,152.691,330.223,147.3,329.7,144.741Z" transform="translate(-288.257 -121.558)" fill="#2ec2f1"/>
        <path id="Trazado_913606" data-name="Trazado 913606" d="M200.89,287.431a4.955,4.955,0,0,0-3.373,6.066l5.567-1.453-1.526-4.811Z" transform="translate(-174.213 -254.648)" fill="#ffceb7"/>
        <path id="Trazado_913607" data-name="Trazado 913607" d="M251.117,179.671a2.413,2.413,0,0,0-3.287,1.085l-3.965,8.166-10.523,3.112,1.526,4.811,12.4-3.235,4.932-10.8A2.412,2.412,0,0,0,251.117,179.671Z" transform="translate(-205.997 -159.448)" fill="#75d2f5"/>
        <path id="Trazado_913608" data-name="Trazado 913608" d="M366.429,308.538l-2.5,1.24c.724,2.055,1.247,3.484,1.247,3.484v17.6h2.93v-17.6S367.161,310.607,366.429,308.538Z" transform="translate(-321.282 -273.456)" fill="#acbfc7"/>
        <path id="Trazado_913609" data-name="Trazado 913609" d="M0,323.74a39.693,39.693,0,0,1,28.2,11.568,10.14,10.14,0,0,1,4.6-.99c4.837,0,8.214,6.455,18.177,6.455H60v4.944H0Z" transform="translate(0 -286.876)" fill="#e6cc9f"/>
        <path id="Trazado_913610" data-name="Trazado 913610" d="M0,323.74v21.976H2.93V323.843Q1.5,323.742,0,323.74Z" transform="translate(0 -286.876)" fill="#dfba7f"/>
      </g>
      <g id="Grupo_1119169" data-name="Grupo 1119169" transform="translate(29.729 53.496)">
        <path id="Trazado_913611" data-name="Trazado 913611" d="M253.69,454.77h1.758v1.758H253.69Z" transform="translate(-253.69 -454.77)" fill="#fff"/>
        <path id="Trazado_913612" data-name="Trazado 913612" d="M283.69,454.77h1.758v1.758H283.69Z" transform="translate(-280.174 -454.77)" fill="#fff"/>
      </g>
      <g id="Grupo_1119170" data-name="Grupo 1119170" transform="translate(0 0.23)">
        <path id="Trazado_913613" data-name="Trazado 913613" d="M12.149,247.538a40.7,40.7,0,0,0-7.286-1.529v-1.182a3.074,3.074,0,0,1,3.071-3.071V240a4.806,4.806,0,0,0-3.068,1.1,3.074,3.074,0,0,1,3.068-2.978v-1.758a4.826,4.826,0,0,0-3.967,2.08A4.825,4.825,0,0,0,0,236.366v1.758A3.074,3.074,0,0,1,3.068,241.1,4.806,4.806,0,0,0,0,240v1.758a3.074,3.074,0,0,1,3.071,3.071v1.011q-1.527-.111-3.071-.112v1.758a39.426,39.426,0,0,1,11.631,1.734Z" transform="translate(0 -208.694)"/>
        <path id="Trazado_913614" data-name="Trazado 913614" d="M215.38,496.77h34.76v1.758H215.38Z" transform="translate(-190.14 -438.582)"/>
        <path id="Trazado_913615" data-name="Trazado 913615" d="M0,496.77H23.482v1.758H0Z" transform="translate(0 -438.582)"/>
        <path id="Trazado_913616" data-name="Trazado 913616" d="M57.079,54.294V48.632H55.321v5.662c-.488,0-4.667.011-5.042-.012V40.127H48.521V54.152a17.921,17.921,0,0,1-3.747-.856V40.928l-.053-.146c-.006-.018-.406-1.111-.984-2.741l10.508-5.213c.928,1.557,2.938,5.928,1.075,9.494v4.552h1.758V42.714C59.393,37.546,55.845,32,55.34,31.256c-.367-.832-3.65-8.267-5.256-11.6-1.508-3.254-5.4-5.23-8.77-3.934L38.8,10.012l9.77-4.3-.354-.8a4.864,4.864,0,0,0-6.38-2.481L36.3,4.866,31.7.23,26.2,2.646l.31,6.524-5.543,2.439A4.846,4.846,0,0,0,18.49,17.99l.354.8,9.77-4.3,1.2,2.73a6.763,6.763,0,0,0,7.63,3.864,16.325,16.325,0,0,0,.977,6.507l-1.176,2.422-10.819,3.2a5.838,5.838,0,0,0-1.738.846v-.515a3.083,3.083,0,0,1,3.088-3.071V28.72a4.835,4.835,0,0,0-3.086,1.108,3.083,3.083,0,0,1,3.086-2.983V25.088a4.848,4.848,0,0,0-3.967,2.06,4.848,4.848,0,0,0-3.967-2.06v1.758a3.083,3.083,0,0,1,3.086,2.983,4.834,4.834,0,0,0-3.086-1.108v1.758a3.083,3.083,0,0,1,3.088,3.071v2.526a5.8,5.8,0,0,0-.475,4.285l.23.836,18.592-4.852c.837,2.409,1.542,4.358,1.738,4.895V52.587c-5.728-2.7-7.9-6.463-14.614-3.929a39.929,39.929,0,0,0-14.544-9.015L13.266,41.3A38.925,38.925,0,0,1,26.741,49.5c-.553.332-1.07.688-1.583,1.04-5.014,3.874-9.7,2.987-16.68,3.077V51.8a3.074,3.074,0,0,1,3.071-3.071V46.968a4.806,4.806,0,0,0-3.068,1.1,3.074,3.074,0,0,1,3.068-2.978V43.335a4.826,4.826,0,0,0-3.967,2.08,4.826,4.826,0,0,0-3.967-2.08v1.758a3.074,3.074,0,0,1,3.068,2.978,4.806,4.806,0,0,0-3.068-1.1v1.758A3.074,3.074,0,0,1,6.686,51.8v1.825H0v1.758H15.442a16.353,16.353,0,0,0,10.712-3.386c1.87-1.285,3.485-2.4,6.646-2.4,1.734,0,3.313.987,5.311,2.237a32.869,32.869,0,0,0,4.9,2.668v.107h.263a20.27,20.27,0,0,0,7.7,1.442H60V54.294H57.079ZM31.3,2.325l3.274,3.3L28.238,8.412l-.221-4.643Zm-9.62,10.893,6.1-2.682,8.629-3.8,6.144-2.7a3.1,3.1,0,0,1,3.594.827L19.861,16.426a3.089,3.089,0,0,1,1.818-3.208Zm12.5,5.936a4.947,4.947,0,0,1-2.753-2.636l-1.2-2.73,6.972-3.068,2.57,5.84A5.725,5.725,0,0,0,37.91,19.1a4.945,4.945,0,0,1-3.733.051Zm5.2,5.13c-.648-3.184.051-5.6,1.916-6.629,2.939-1.542,5.944.181,7.208,2.758,1.374,2.855,3.994,8.753,4.925,10.858l-10.277,5.1c-.186-.532-.38-1.092-.579-1.67L47,25.006a3.3,3.3,0,0,0-4.026-4.493A3.266,3.266,0,0,0,41.042,22.2l-1.456,3c-.086-.343-.156-.649-.21-.916ZM26.769,34.954l.984,3.1-3.741.976a4.106,4.106,0,0,1,2.756-4.08Zm2.688,2.659-1-3.161,10.035-2.967,4.135-8.515A1.534,1.534,0,0,1,45.4,24.276L40.64,34.694Z" transform="translate(0 -0.23)"/>
      </g>
    </g>
  </g>
</svg>
