<svg xmlns="http://www.w3.org/2000/svg" width="71" height="71" viewBox="0 0 71 71">
  <g id="Grupo_1118800" data-name="Grupo 1118800" transform="translate(-719.051 -1677)">
    <circle id="Elipse_11626" data-name="Elipse 11626" cx="35.5" cy="35.5" r="35.5" transform="translate(719.051 1677)" fill="#fff"/>
    <g id="Grupo_1118799" data-name="Grupo 1118799" transform="translate(731.051 1689)">
      <g id="Grupo_1118797" data-name="Grupo 1118797" transform="translate(0.75 0.75)">
        <g id="Grupo_1118790" data-name="Grupo 1118790" transform="translate(5.996 2.998)">
          <path id="Trazado_913230" data-name="Trazado 913230" d="M10.911,25.987A1.919,1.919,0,0,0,9,27.9V11.3A.733.733,0,0,1,9.067,11H13.5v2.249a.752.752,0,0,0,.75.75H29.237a.752.752,0,0,0,.75-.75v-3a.752.752,0,0,0-.75-.75H15V5.067A.733.733,0,0,1,15.3,5H34.372l-.255.255.187.187A1.5,1.5,0,0,1,33.24,8h-.255v3h.255A1.5,1.5,0,0,1,34.3,13.552l-.187.187,2.121,2.121.187-.187a1.5,1.5,0,0,1,2.556,1.064v.255h1.5V43.226a.752.752,0,0,1-.75.75H16.5v-.75a.752.752,0,0,0-.75-.75l.3-1.207a14.9,14.9,0,0,0,.45-3.635,14.948,14.948,0,0,0-2.136-7.713l-1.806-3.006a1.909,1.909,0,0,0-1.641-.929Z" transform="translate(-9 -5)" fill="#e6e9ed"/>
        </g>
        <g id="Grupo_1118791" data-name="Grupo 1118791" transform="translate(2.998 40.475)">
          <path id="Trazado_913231" data-name="Trazado 913231" d="M15.493,56.5v3H5V55.75A.752.752,0,0,1,5.75,55h8.994a.752.752,0,0,1,.75.75Z" transform="translate(-5 -55)" fill="#ff826e"/>
        </g>
        <g id="Grupo_1118792" data-name="Grupo 1118792" transform="translate(0 15.74)">
          <path id="Trazado_913232" data-name="Trazado 913232" d="M7,32.156a1.919,1.919,0,0,1,1.911-1.911,1.909,1.909,0,0,1,1.641.929l1.806,3.006a14.948,14.948,0,0,1,2.136,7.713,14.9,14.9,0,0,1-.45,3.635l-.3,1.207H4.748L1.637,37.4a12.456,12.456,0,0,1,.172-8.35,12.32,12.32,0,0,1,2.331-3.838L7,22Z" transform="translate(-1 -22)" fill="#f0d0b4"/>
        </g>
        <g id="Grupo_1118793" data-name="Grupo 1118793" transform="translate(10.493 7.495)">
          <path id="Trazado_913233" data-name="Trazado 913233" d="M31.49,11.75v3a.752.752,0,0,1-.75.75H15.75a.752.752,0,0,1-.75-.75V12.5h1.5V11H30.74A.752.752,0,0,1,31.49,11.75Z" transform="translate(-15 -11)" fill="#ff826e"/>
        </g>
        <g id="Grupo_1118794" data-name="Grupo 1118794" transform="translate(6.071 3.073)">
          <path id="Trazado_913234" data-name="Trazado 913234" d="M13.522,11.021H9.1a.609.609,0,0,1,.142-.217L14.8,5.242a.609.609,0,0,1,.217-.142v5.921Z" transform="translate(-9.1 -5.1)" fill="#b4dd7f"/>
        </g>
        <g id="Grupo_1118795" data-name="Grupo 1118795" transform="translate(29.981)">
          <path id="Trazado_913235" data-name="Trazado 913235" d="M47,15.736a1.5,1.5,0,0,0-2.556-1.064l-.187.187-2.121-2.121.187-.187a1.5,1.5,0,0,0-1.064-2.556H41V7h.255A1.5,1.5,0,0,0,42.319,4.44l-.187-.187L42.387,4h.007l1.859-1.866.187.187A1.5,1.5,0,0,0,47,1.255V1h3v.255A1.5,1.5,0,0,0,52.55,2.319l.187-.187,2.121,2.121-.187.187A1.5,1.5,0,0,0,55.736,7h.255v3h-.255a1.5,1.5,0,0,0-1.064,2.556l.187.187-2.121,2.121-.187-.187a1.5,1.5,0,0,0-2.556,1.064v.255H47ZM44,8.5A4.5,4.5,0,1,0,48.5,4,4.5,4.5,0,0,0,44,8.5Z" transform="translate(-41 -1)" fill="#ffc729"/>
        </g>
        <g id="Grupo_1118796" data-name="Grupo 1118796" transform="translate(32.98 2.998)">
          <path id="Trazado_913236" data-name="Trazado 913236" d="M49.5,5A4.5,4.5,0,1,1,45,9.5,4.5,4.5,0,0,1,49.5,5ZM51,9.5A1.5,1.5,0,1,0,49.5,11,1.5,1.5,0,0,0,51,9.5Z" transform="translate(-45 -5)" fill="#fcd770"/>
        </g>
      </g>
      <g id="Grupo_1118798" data-name="Grupo 1118798" transform="translate(0 0)">
        <path id="Trazado_913237" data-name="Trazado 913237" d="M50.249,8A2.249,2.249,0,1,0,52.5,10.249,2.251,2.251,0,0,0,50.249,8Zm0,3a.75.75,0,1,1,.75-.75A.751.751,0,0,1,50.249,11Z" transform="translate(-12.022 -2.004)"/>
        <path id="Trazado_913238" data-name="Trazado 913238" d="M45.465,10.493h1.007V6H45.465a.749.749,0,0,1-.53-1.279L45.647,4,42.466.824l-.712.712a.749.749,0,0,1-1.279-.53V0h-4.5V1.007a.749.749,0,0,1-1.279.53L33.986.824,31.813,3H13.052a1.489,1.489,0,0,0-1.06.439L6.436,8.994A1.489,1.489,0,0,0,6,10.054V16.2l-2.666,3A13.185,13.185,0,0,0,.677,32.133l2.891,8.674A1.492,1.492,0,0,0,3,41.974v4.5H14.991v-3H37.477a1.5,1.5,0,0,0,1.5-1.5V16.49h1.5V15.483a.749.749,0,0,1,1.279-.53l.712.712,3.18-3.18-.712-.712a.749.749,0,0,1,.53-1.279ZM8.555,8.994l3.437-3.437V8.994Zm3.437,1.5h1.5v-1.5H26.983v3H11.993ZM1.5,27.964A11.67,11.67,0,0,1,4.451,20.2L6,18.461v8.188a6.705,6.705,0,0,0,.428,2.362l1.868,4.981,1.4-.526L7.828,28.485A5.2,5.2,0,0,1,7.5,26.649a1.165,1.165,0,0,1,2.164-.6l1.8,3.006a14.242,14.242,0,0,1,2.029,7.326,14.269,14.269,0,0,1-.425,3.453l-.16.64H5.038L2.1,31.659a11.665,11.665,0,0,1-.6-3.7ZM13.492,44.972H4.5v-3h8.994Zm23.985-3H14.991a1.5,1.5,0,0,0-.613-1.2l.143-.573a15.759,15.759,0,0,0,.47-3.817,15.741,15.741,0,0,0-2.243-8.1l-1.8-3.007A2.68,2.68,0,0,0,8.66,23.985a2.634,2.634,0,0,0-1.165.28V10.493h3v1.5a1.5,1.5,0,0,0,1.5,1.5H26.983a1.5,1.5,0,0,0,1.5-1.5v-3a1.5,1.5,0,0,0-1.5-1.5H13.492v-3H31.3l.22.22A.749.749,0,0,1,30.988,6H29.981v4.5h1.007a.749.749,0,0,1,.53,1.279l-.712.712,3.18,3.18.712-.712a.749.749,0,0,1,1.279.53V16.49h1.5Zm5.91-31.591a2.207,2.207,0,0,0,.176,2.066L42.43,13.582a2.255,2.255,0,0,0-3.4,1.409h-1.6a2.255,2.255,0,0,0-3.4-1.409l-1.133-1.133a2.255,2.255,0,0,0-1.409-3.4v-1.6a2.255,2.255,0,0,0,1.409-3.4l1.133-1.133a2.211,2.211,0,0,0,2.066.176A2.209,2.209,0,0,0,37.425,1.5h1.6a2.209,2.209,0,0,0,1.336,1.585,2.205,2.205,0,0,0,2.066-.176l1.133,1.133a2.255,2.255,0,0,0,1.408,3.4v1.6A2.207,2.207,0,0,0,43.387,10.383Z" transform="translate(0 0)"/>
        <path id="Trazado_913239" data-name="Trazado 913239" d="M49.247,4a5.247,5.247,0,1,0,5.247,5.247A5.253,5.253,0,0,0,49.247,4Zm0,8.994a3.748,3.748,0,1,1,3.748-3.748A3.752,3.752,0,0,1,49.247,12.994Z" transform="translate(-11.02 -1.002)"/>
        <path id="Trazado_913240" data-name="Trazado 913240" d="M14,20h3v1.5H14Z" transform="translate(-3.507 -5.009)"/>
        <path id="Trazado_913241" data-name="Trazado 913241" d="M20,20H33.492v1.5H20Z" transform="translate(-5.009 -5.009)"/>
        <path id="Trazado_913242" data-name="Trazado 913242" d="M14,24H31.989v1.5H14Z" transform="translate(-3.507 -6.011)"/>
        <path id="Trazado_913243" data-name="Trazado 913243" d="M14,28H25.993v1.5H14Z" transform="translate(-3.507 -7.013)"/>
        <path id="Trazado_913244" data-name="Trazado 913244" d="M32,28h4.5v1.5H32Z" transform="translate(-8.015 -7.013)"/>
        <path id="Trazado_913245" data-name="Trazado 913245" d="M20,32h1.5v1.5H20Z" transform="translate(-5.009 -8.015)"/>
        <path id="Trazado_913246" data-name="Trazado 913246" d="M24,32h1.5v1.5H24Z" transform="translate(-6.011 -8.015)"/>
        <path id="Trazado_913247" data-name="Trazado 913247" d="M28,32h1.5v1.5H28Z" transform="translate(-7.013 -8.015)"/>
        <path id="Trazado_913248" data-name="Trazado 913248" d="M39.209,39.432a1.49,1.49,0,0,0-.863,1.177l-.33,2.638L37.208,41.9a1.863,1.863,0,0,0-3.4.507l-.047.189L32.7,40.49a1.791,1.791,0,0,0-3.359.45l-.248,1.24-2.9-3.22A2.91,2.91,0,0,0,24.039,38,2.042,2.042,0,0,0,22,40.039a1.97,1.97,0,0,0,.094.612L23.528,45.7l1.442-.409-1.443-5.08a.555.555,0,0,1-.028-.171.541.541,0,0,1,.54-.54,1.405,1.405,0,0,1,1.043.465l3.645,4.05-.341,1.705a2.319,2.319,0,0,0,2.274,2.774,1.833,1.833,0,0,0,1.362-3.059L30.345,43.57l.468-2.336a.3.3,0,0,1,.549-.073l1.055,2.108a1.5,1.5,0,0,0,2.8-.307l.047-.188a.379.379,0,0,1,.664-.1l.807,1.345a1.5,1.5,0,0,0,2.773-.585l.33-2.638,1.24.827.831-1.247-1.24-.827a1.492,1.492,0,0,0-1.455-.115Zm-8.3,7.005a.334.334,0,0,1-.248.557.82.82,0,0,1-.805-.98l.122-.61Z" transform="translate(-5.51 -9.518)"/>
      </g>
    </g>
  </g>
</svg>
