<svg xmlns="http://www.w3.org/2000/svg" width="71" height="71" viewBox="0 0 71 71">
  <g id="Grupo_1118816" data-name="Grupo 1118816" transform="translate(-719.051 -1790)">
    <circle id="Elipse_11628" data-name="Elipse 11628" cx="35.5" cy="35.5" r="35.5" transform="translate(719.051 1790)" fill="#fff"/>
    <g id="Grupo_1118815" data-name="Grupo 1118815" transform="translate(732.051 1803.352)">
      <g id="Grupo_1118812" data-name="Grupo 1118812" transform="translate(0.647 0.743)">
        <g id="Grupo_1118805" data-name="Grupo 1118805" transform="translate(7.158)">
          <g id="Grupo_1118802" data-name="Grupo 1118802" transform="translate(0 21.2)">
            <path id="Trazado_913263" data-name="Trazado 913263" d="M110.229,252.968a14.274,14.274,0,0,1,8.625,13.1v9.158H90.343v-9.158a14.274,14.274,0,0,1,8.625-13.1Z" transform="translate(-90.343 -252.968)" fill="#fff"/>
          </g>
          <path id="Trazado_913264" data-name="Trazado 913264" d="M101.128,252.968a14.259,14.259,0,0,0-8.625,13.1v9.158h-2.16v-9.158a14.274,14.274,0,0,1,8.625-13.1Z" transform="translate(-90.343 -231.768)" fill="#e3e9ee"/>
          <g id="Grupo_1118803" data-name="Grupo 1118803" transform="translate(8.251 20.649)">
            <path id="Trazado_913265" data-name="Trazado 913265" d="M185.843,246.6v12.873a1.3,1.3,0,0,0,2.592,0V246.6Z" transform="translate(-185.843 -246.598)" fill="#ff6a47"/>
            <path id="Trazado_913266" data-name="Trazado 913266" d="M294.843,246.6v12.873a1.3,1.3,0,0,0,2.592,0V246.6Z" transform="translate(-285.425 -246.598)" fill="#ff6a47"/>
          </g>
          <g id="Grupo_1118804" data-name="Grupo 1118804" transform="translate(0.364)">
            <path id="Trazado_913267" data-name="Trazado 913267" d="M114.97,9.59A2.592,2.592,0,0,0,112.448,7.6h-8a2.592,2.592,0,0,0-2.521,1.992l-1.254,5.266-6.116,1.767a2.208,2.208,0,0,0,2.208,2.208h23.368a2.208,2.208,0,0,0,2.208-2.208l-6.116-1.767Z" transform="translate(-94.556 -7.598)" fill="#e6cc9f"/>
          </g>
          <path id="Trazado_913268" data-name="Trazado 913268" d="M175.343,137.6l.021,6.48a6.91,6.91,0,0,0,13.781,0l.021-6.48" transform="translate(-167.999 -126.366)" fill="#ffceb7"/>
          <path id="Trazado_913269" data-name="Trazado 913269" d="M180.175,56.6H166.063l-.72,3.024h15.552Z" transform="translate(-158.863 -52.364)" fill="#ff6a47"/>
          <path id="Trazado_913270" data-name="Trazado 913270" d="M101.923,9.59l-1.254,5.266-6.116,1.767a2.208,2.208,0,0,0,2.208,2.207l4.047-1.592a3.362,3.362,0,0,0,2.054-2.41l1.583-7.23a2.592,2.592,0,0,0-2.522,1.991Z" transform="translate(-94.189 -7.599)" fill="#dfba7f"/>
          <path id="Trazado_913271" data-name="Trazado 913271" d="M168.192,56.6l-.662,3.024h-2.187l.72-3.024Z" transform="translate(-158.863 -52.364)" fill="#fd3501"/>
          <path id="Trazado_913272" data-name="Trazado 913272" d="M177.524,144.078l-.021-6.48h-2.16l.021,6.48a6.907,6.907,0,0,0,7.971,6.308A6.913,6.913,0,0,1,177.524,144.078Z" transform="translate(-167.999 -126.366)" fill="#ffaa81"/>
        </g>
        <g id="Grupo_1118807" data-name="Grupo 1118807" transform="translate(6.861 26.363)">
          <g id="Grupo_1118806" data-name="Grupo 1118806" transform="translate(0 0.723)">
            <path id="Trazado_913273" data-name="Trazado 913273" d="M89.128,327.916c-3.414-2.418-1.892-6.819-1.892-6.819s2.846,1,3.812,2.928c0,0,3.628,4.862,2.241,5.973-1.008.807-4.161-2.082-4.161-2.082Z" transform="translate(-86.897 -321.097)" fill="#8ae897"/>
          </g>
          <path id="Trazado_913274" data-name="Trazado 913274" d="M91.288,327.916a5.73,5.73,0,0,1-2.123-5.839,9.867,9.867,0,0,0-1.929-.98s-1.522,4.4,1.892,6.819c0,0,3.153,2.889,4.161,2.082a.791.791,0,0,0,.258-.385A15.7,15.7,0,0,1,91.288,327.916Z" transform="translate(-86.897 -320.374)" fill="#54e072"/>
          <path id="Trazado_913275" data-name="Trazado 913275" d="M133.958,319.518c1.082,3.158,5.076,4.651,5.076,4.651s2.241-3.628,1.159-6.786-5.076-4.651-5.076-4.651S132.876,316.36,133.958,319.518Z" transform="translate(-129.622 -312.732)" fill="#8ae897"/>
          <path id="Trazado_913276" data-name="Trazado 913276" d="M136.118,319.518c-.758-2.212.115-4.655.706-5.92a10.947,10.947,0,0,0-1.706-.866s-2.241,3.628-1.159,6.786,5.076,4.651,5.076,4.651a9.342,9.342,0,0,0,.454-.866A7.688,7.688,0,0,1,136.118,319.518Z" transform="translate(-129.622 -312.732)" fill="#54e072"/>
        </g>
        <g id="Grupo_1118808" data-name="Grupo 1118808" transform="translate(23.874 25.816)">
          <path id="Trazado_913277" data-name="Trazado 913277" d="M388.864,316.415l-3.452-3.867,3.086-4.935a2.592,2.592,0,0,1,4.131-.352l2.3,2.581a2.592,2.592,0,0,1-.817,4.065Z" transform="translate(-376.634 -306.395)" fill="#8ae897"/>
          <path id="Trazado_913278" data-name="Trazado 913278" d="M387.572,312.549l3.086-4.935a2.57,2.57,0,0,1,1.118-.983,2.594,2.594,0,0,0-3.278.983l-3.086,4.935,3.452,3.867,1.514-.723Z" transform="translate(-376.634 -306.397)" fill="#54e072"/>
          <path id="Trazado_913279" data-name="Trazado 913279" d="M394.372,325.362l-2.3-2.578,6.107-5.451a1.728,1.728,0,1,1,2.3,2.578Z" transform="translate(-382.718 -315.987)" fill="#8ae897"/>
          <path id="Trazado_913280" data-name="Trazado 913280" d="M294.667,360.405c2.033-1.48,3.67-3.134,3.821-4.481.217-1.932-3.234-5.8-5.178-5.8-2.911,0-8.008,6.641-9.32,9.747a3.508,3.508,0,0,0-.172.535Z" transform="translate(-283.818 -346.345)" fill="#ffceb7"/>
          <path id="Trazado_913281" data-name="Trazado 913281" d="M290.557,385.637A6.9,6.9,0,0,0,289,381.261a27.021,27.021,0,0,0-5.006,7.057,3.507,3.507,0,0,0-.172.535h5.942A6.868,6.868,0,0,0,290.557,385.637Z" transform="translate(-283.818 -374.793)" fill="#ffaa81"/>
        </g>
        <g id="Grupo_1118810" data-name="Grupo 1118810" transform="translate(15.192 31.908)">
          <path id="Trazado_913282" data-name="Trazado 913282" d="M191.865,379.62l2.141,2.074,2.141-2.074,2.142,2.074,1.964-1.9a4.753,4.753,0,0,0-4.369-2.881h-3.757a4.753,4.753,0,0,0-4.369,2.881l1.964,1.9Z" transform="translate(-187.376 -376.911)" fill="#8ae897"/>
          <path id="Trazado_913283" data-name="Trazado 913283" d="M196.2,408.434l-1.964,1.9-2.142-2.074-2.142,2.074-2.141-2.074-2.141,2.074-1.964-1.9a4.753,4.753,0,0,0,4.369,6.623h3.757a4.753,4.753,0,0,0,4.369-6.623Z" transform="translate(-183.323 -405.553)" fill="#ff6a47"/>
          <g id="Grupo_1118809" data-name="Grupo 1118809" transform="translate(0)">
            <path id="Trazado_913284" data-name="Trazado 913284" d="M189.919,379.791a4.5,4.5,0,0,1,4.369-2.881h-2.16a4.753,4.753,0,0,0-4.369,2.881l1.964,1.9A12.975,12.975,0,0,1,189.919,379.791Z" transform="translate(-187.376 -376.91)" fill="#54e072"/>
            <path id="Trazado_913285" data-name="Trazado 913285" d="M186.888,410.972l-1.217,1.179-1.964-1.9a4.884,4.884,0,0,0-.383,1.9h0a4.752,4.752,0,0,0,4.751,4.722h2.16C187.83,416.873,185.968,413.664,186.888,410.972Z" transform="translate(-183.323 -407.369)" fill="#fd3501"/>
          </g>
        </g>
        <g id="Grupo_1118811" data-name="Grupo 1118811" transform="translate(0 28.841)">
          <path id="Trazado_913286" data-name="Trazado 913286" d="M10.332,344.9l1.646.854.695-1.6a11.469,11.469,0,0,1-1.1-1.636,2.178,2.178,0,0,0-4.035,1.5c.1.514.245,1.106.436,1.742l1.622.842Z" transform="translate(-7.491 -341.406)" fill="#8ae897"/>
          <path id="Trazado_913287" data-name="Trazado 913287" d="M29.472,377.917A3.689,3.689,0,0,0,25.48,375.5c-2.954.38-5.749.316-7.734-2.263l-.695,1.6-1.646-.854-.74,1.7-1.622-.842c.824,2.745,2.575,6.307,6.251,7.913,2.527,1.1,5.524.619,7.8-.092A3.682,3.682,0,0,0,29.472,377.917Z" transform="translate(-12.564 -370.49)" fill="#fde31d"/>
          <path id="Trazado_913288" data-name="Trazado 913288" d="M9.262,344.023a2.176,2.176,0,0,1,1.27-2.429,2.175,2.175,0,0,0-3,2.429c.1.514.245,1.106.436,1.742l1.622.842.223-.513C9.617,345.413,9.348,344.448,9.262,344.023Z" transform="translate(-7.491 -341.413)" fill="#54e072"/>
          <path id="Trazado_913289" data-name="Trazado 913289" d="M21.024,399.69c-3.523-1.539-5.277-4.874-6.142-7.565l-.215.494-1.622-.841c.824,2.745,2.575,6.306,6.251,7.913a8.943,8.943,0,0,0,4.269.616,7.958,7.958,0,0,1-2.541-.616Z" transform="translate(-12.565 -387.425)" fill="#e9ca1c"/>
        </g>
        <path id="Trazado_913290" data-name="Trazado 913290" d="M68.114,472.713H29V471.29a2.16,2.16,0,0,1,2.16-2.16H65.954a2.16,2.16,0,0,1,2.16,2.16v1.423Z" transform="translate(-27.144 -429.254)" fill="#e6cc9f"/>
        <path id="Trazado_913291" data-name="Trazado 913291" d="M31.163,472.713H29V471.29a2.16,2.16,0,0,1,2.16-2.16Z" transform="translate(-27.144 -429.254)" fill="#dfba7f"/>
      </g>
      <g id="Grupo_1118813" data-name="Grupo 1118813" transform="translate(10.918 37.218)">
        <path id="Trazado_913292" data-name="Trazado 913292" d="M126.368,429.763h1.3v1.3h-1.3Z" transform="translate(-126.368 -429.763)" fill="#fff"/>
        <path id="Trazado_913293" data-name="Trazado 913293" d="M156.368,429.763h1.3v1.3h-1.3Z" transform="translate(-153.776 -429.763)" fill="#fff"/>
      </g>
      <g id="Grupo_1118814" data-name="Grupo 1118814" transform="translate(0 0.095)">
        <path id="Trazado_913294" data-name="Trazado 913294" d="M207.343,176h1.3v3.706h-1.3Z" transform="translate(-189.429 -160.804)"/>
        <path id="Trazado_913295" data-name="Trazado 913295" d="M288.343,176h1.3v3.706h-1.3Z" transform="translate(-263.43 -160.804)"/>
        <path id="Trazado_913296" data-name="Trazado 913296" d="M43.443,29.74a2.381,2.381,0,0,0-2.593-2.9,3.253,3.253,0,0,0-5.015.6l-.507.812a14.883,14.883,0,0,0-2.036-3l-.976.853a13.569,13.569,0,0,1,2.2,3.45l-.11.177c-1.988-.269-4.067,1.7-5.689,3.4V23.17A13.623,13.623,0,0,1,31.452,25.2l.895-.938A14.89,14.89,0,0,0,28.714,21.7v-.177A7.528,7.528,0,0,0,29.6,18.5c.007-.023.018-5.855.021-5.88h4.126A2.919,2.919,0,0,0,36.6,9.28l-6.221-1.8-1.166-4.9A3.23,3.23,0,0,0,26.062.1H20.69v1.3h5.371a1.938,1.938,0,0,1,1.892,1.494L28.3,4.329H15.826l.344-1.444a1.938,1.938,0,0,1,1.892-1.494h1.333V.1H18.061a3.23,3.23,0,0,0-3.152,2.489l-1.166,4.9L7.521,9.28v.487a2.869,2.869,0,0,0,2.856,2.855H14.5l.019,5.834,0,.046a7.528,7.528,0,0,0,.884,3.025V21.7a14.966,14.966,0,0,0-6.3,5.971A10.727,10.727,0,0,0,7.446,27a7.728,7.728,0,0,0,.1,6.108,7.814,7.814,0,0,1-2.257-2.728,2.848,2.848,0,0,0-2.849-1.42,1.989,1.989,0,0,1,1.55-1.8l-.433-1.221a3.22,3.22,0,0,0-2.4,3.537A2.843,2.843,0,0,0,.055,32.323a16.216,16.216,0,0,0,3.751,7.783,2.813,2.813,0,0,0-1.949,2.673V44.2h1.3V42.779a1.514,1.514,0,0,1,1.512-1.512H39.457a1.514,1.514,0,0,1,1.512,1.512V44.2h1.3V42.779a2.811,2.811,0,0,0-2.808-2.808H37.229c1.409-1.268,2.655-2.61,2.615-4.152l2.437-1.164a3.252,3.252,0,0,0,1.16-4.916Zm-1.5-1.265a1.152,1.152,0,0,1,.086,1.371l-3.449,3.078a10.232,10.232,0,0,0-1.439-1.611l3.451-3.081A1.149,1.149,0,0,1,41.938,28.475Zm-5-.355a1.956,1.956,0,0,1,2.587-.673l-3.407,3.042c-.154-.105-.312-.205-.475-.3ZM28.452,37.4a4.088,4.088,0,0,1-.9,2.568H18.06a4.182,4.182,0,0,0,.361-1.863l1.907-1.847,2.142,2.073,2.142-2.074,2.142,2.074L28.4,36.741a4.136,4.136,0,0,1,.053.662ZM12.6,34.055c-1-2.118.112-5.046.685-6.117,1.273.559,4.15,2.4,4.386,4.921A5.423,5.423,0,0,0,16.1,34.4,5.3,5.3,0,0,0,12.6,34.055Zm4.1-10.788A7.454,7.454,0,0,0,18,24.313v5.84a8.012,8.012,0,0,0-1.3-1.5Zm10.713,9.7a5.423,5.423,0,0,0-1.3-.658V24.313a7.454,7.454,0,0,0,1.3-1.045Zm-2.592-.938c-.326-.037-1.267-.017-1.608-.021V29.757h-1.3V32a11.315,11.315,0,0,0-2.626.156V24.975a7.609,7.609,0,0,0,5.53,0ZM17.689,34.5a4.077,4.077,0,0,1,2.9-1.2h3.757a4.117,4.117,0,0,1,3.579,2.095l-1.174,1.137-2.142-2.073-2.142,2.074-2.142-2.074-2.141,2.074-.243-.236a4.48,4.48,0,0,0-.8-1.118,4.108,4.108,0,0,1,.547-.677ZM28.606,5.625l.411,1.728H15.106l.411-1.728ZM9.275,10.871a1.554,1.554,0,0,1-.387-.636l5.489-1.586H29.745l5.489,1.586a1.563,1.563,0,0,1-1.489,1.093H10.378A1.549,1.549,0,0,1,9.275,10.871Zm19.049,1.753L28.3,18.429a6.262,6.262,0,0,1-12.485,0L15.8,12.623Zm-15.884,12.8a13.6,13.6,0,0,1,2.969-2.251v4.478a10.927,10.927,0,0,0-2.678-1.335,11.032,11.032,0,0,0-1.378,2.947,7.448,7.448,0,0,0-1.129-.929,13.6,13.6,0,0,1,2.216-2.909ZM8.286,28.715a6.447,6.447,0,0,1,2.7,2.16,6.92,6.92,0,0,0,.254,3.247,9.067,9.067,0,0,1-1.23-.082A5.185,5.185,0,0,1,8.286,28.715Zm-.179,6.155a10.641,10.641,0,0,0,5.542.369,3.036,3.036,0,0,1,2.929,4.732H5.558a11.831,11.831,0,0,1-3.275-4.705l.783.406.74-1.7,1.646.854.57-1.31a6.565,6.565,0,0,0,2.084,1.355Zm-3.948-3.86a12.254,12.254,0,0,0,.917,1.432l-.258.594-1.646-.854-.74,1.7-.758-.394c-.15-.527-.264-1.011-.347-1.423a1.531,1.531,0,0,1,2.833-1.055Zm34.39,5.055c-.107.945-1.281,2.316-3.237,3.791l-3.063-2.9-.891.941,2.188,2.07H29.1a5.418,5.418,0,0,0-.067-5.257,21.369,21.369,0,0,1,2.048-2.1l2.606,2.353L34.553,34,32.108,31.8a3.7,3.7,0,0,1,1.9-.811c1.52-.018,4.725,3.573,4.536,5.08Zm4.245-3.95a1.927,1.927,0,0,1-1.068,1.37l-2.2,1.053c-.073-.172-.154-.34-.241-.5l3.407-3.042A1.93,1.93,0,0,1,42.792,32.116Z" transform="translate(0 -0.095)"/>
      </g>
    </g>
  </g>
</svg>
