<svg xmlns="http://www.w3.org/2000/svg" width="78.25" height="81.763" viewBox="0 0 78.25 81.763">
  <g id="Grupo_1118818" data-name="Grupo 1118818" transform="translate(-10.998 0)">
    <path id="Trazado_913297" data-name="Trazado 913297" d="M72.57,39.926,62.838,24.11A39.148,39.148,0,0,0,13.421,74.7c1.566,4.231,9.283,19.75,36.371,22.4,0,0,27.536-9.573,33.99-16.027a39.219,39.219,0,0,0,4.507-28.594Z" transform="translate(0 -18.483)" fill="#fc0"/>
    <path id="Trazado_913298" data-name="Trazado 913298" d="M305.169,333.032a18.279,18.279,0,0,0-4.872-7.025.875.875,0,0,0-1.386,1,35.7,35.7,0,0,1,2.787,9.942c.3,1.976,3.9,3.882,3.9,3.882Z" transform="translate(-241.868 -273.754)" fill="#3ecd8d"/>
    <path id="Trazado_913299" data-name="Trazado 913299" d="M336.838,326.006a18.561,18.561,0,0,0-6.117,12.382l2.9,3.8,1.79-5.014a35.619,35.619,0,0,1,2.813-10.168A.876.876,0,0,0,336.838,326.006Z" transform="translate(-268.666 -273.753)" fill="#95db76"/>
    <path id="Trazado_913300" data-name="Trazado 913300" d="M256.487,188.45a33.522,33.522,0,0,1-2.2,13.395l4.179,1.677a18.463,18.463,0,0,0-.351-15.479.858.858,0,0,0-1.627.407Z" transform="translate(-204.437 -157.611)" fill="#3ecd8d"/>
    <path id="Trazado_913301" data-name="Trazado 913301" d="M273.785,212.684a33.524,33.524,0,0,0-7.672,11.2l-4.178-1.677a18.462,18.462,0,0,1,10.956-10.939A.858.858,0,0,1,273.785,212.684Z" transform="translate(-210.863 -177.481)" fill="#95db76"/>
    <path id="Trazado_913302" data-name="Trazado 913302" d="M90.083,393.908a2.308,2.308,0,0,1-3.105,0,7.681,7.681,0,0,0-10.3,0,2.308,2.308,0,0,1-3.105,0,7.68,7.68,0,0,0-10.3,0,2.286,2.286,0,0,1-3.074.029,7.654,7.654,0,0,0-3.49-1.823v2.616a39.348,39.348,0,0,0,10.812,10.25l4.627-1.446,3.021,5.223a38.9,38.9,0,0,0,9.717,2.176l0,0,11.14-5.868Z" transform="translate(-38.407 -329.336)" fill="#9e533b"/>
    <path id="Trazado_913303" data-name="Trazado 913303" d="M282.356,400.092a39.3,39.3,0,0,1-6.82,5.286l-4.427.968-3.259,2.648h0a38.936,38.936,0,0,1-9.714,1.993L255,407.609l2.8-5.68c-4.152-3.194-1.091-8.019-1.091-8.019a7.681,7.681,0,0,1,10.3,0,2.308,2.308,0,0,0,3.105,0,7.68,7.68,0,0,1,10.3,0,2.287,2.287,0,0,0,3.074.029l.59,2.072Z" transform="translate(-205.034 -329.338)" fill="#b66651"/>
    <path id="Trazado_913304" data-name="Trazado 913304" d="M425.76,393.948c-1.676,2.651-1.683,4.687-1.138,6.154a39.288,39.288,0,0,0,6.46-8.163A7.654,7.654,0,0,0,425.76,393.948Z" transform="translate(-347.3 -329.348)" fill="#ce7867"/>
    <path id="Trazado_913305" data-name="Trazado 913305" d="M91.551,305.965,83.82,301.9,76.888,303.8l1.356,7.949c3,.731,6.874,1.437,8.351,1.67l5.3-2.8Z" transform="translate(-55.368 -253.685)" fill="#2a428b"/>
    <path id="Trazado_913306" data-name="Trazado 913306" d="M133.71,334.832a1.9,1.9,0,0,1,.822.325,1.851,1.851,0,0,1,.73,1.9l-1.012,4.565,2.97,4.729,4.559-2.956,1.395-6.3a8.831,8.831,0,0,0-4.509-9.723S130.482,328.259,133.71,334.832Z" transform="translate(-102.482 -275.095)" fill="#3f57a0"/>
    <path id="Trazado_913307" data-name="Trazado 913307" d="M158.2,55.612c-4.711-1.182-7.412-.043-7.412-.043l-.91,3.627a6.822,6.822,0,0,0,.5,4.677,6.861,6.861,0,0,0,7.022.654Z" transform="translate(-116.532 -46.28)" fill="#45304c"/>
    <path id="Trazado_913308" data-name="Trazado 913308" d="M176.252,63.767a2.468,2.468,0,0,0,.91,4.348l.469.118,4.685-4.576Z" transform="translate(-138.057 -53.49)" fill="#ffaa7b"/>
    <path id="Trazado_913309" data-name="Trazado 913309" d="M164.493,63.656l-3.718.7-1.275,5.08a1.893,1.893,0,0,1-1.372,1.374,10.854,10.854,0,0,1-4.045.273,6.85,6.85,0,0,0,12.806-1.338l.91-3.627Z" transform="translate(-120.235 -53.49)" fill="#ffc7ab"/>
    <path id="Trazado_913310" data-name="Trazado 913310" d="M173.706.339A11,11,0,0,0,167.723.5a2.231,2.231,0,0,0-1.338,1.164l-.528,1.106L173.18,6.6Z" transform="translate(-130.129 0)" fill="#b66651"/>
    <path id="Trazado_913311" data-name="Trazado 913311" d="M212.877,6.743a2.231,2.231,0,0,0-.63-1.658,11,11,0,0,0-5.2-2.965s-2.54,1.63-1.038,4.138l3.012,2.755,3.8-1.046Z" transform="translate(-163.471 -1.781)" fill="#ce7867"/>
    <path id="Trazado_913312" data-name="Trazado 913312" d="M163.7,19.035l-6.811-1.71-1.7,3.57,8.955,3.508Z" transform="translate(-121.164 -14.558)" fill="#8c3d2f"/>
    <path id="Trazado_913313" data-name="Trazado 913313" d="M209.589,29.739l-6.811-1.71a2.606,2.606,0,0,0-.359,3.908l3.8,2.4,3.185-.647Z" transform="translate(-160.239 -23.553)" fill="#9e533b"/>
    <path id="Trazado_913314" data-name="Trazado 913314" d="M149.038,40.22l-20.826-5.227a1.4,1.4,0,1,0-.683,2.721l20.826,5.227a1.4,1.4,0,0,0,.683-2.721Z" transform="translate(-97.03 -29.369)" fill="#ce7867"/>
    <g id="Grupo_1118818-2" data-name="Grupo 1118818" transform="translate(43.454 5.627)">
      <path id="Trazado_913315" data-name="Trazado 913315" d="M324.074,437.685a18.279,18.279,0,0,0-4.872-7.025.875.875,0,0,0-1.386,1,35.8,35.8,0,0,1,2.754,9.687q1.373-.47,2.7-1.039l1.213-1.569Z" transform="translate(-301.207 -367.321)" fill="#3ecd8d"/>
      <path id="Trazado_913316" data-name="Trazado 913316" d="M220.574,437.685a18.279,18.279,0,0,0-4.872-7.025.875.875,0,0,0-1.386,1,35.029,35.029,0,0,1,2.944,11.623q1.011.093,2.037.135l2.057-2.177Z" transform="translate(-214.236 -367.321)" fill="#3ecd8d"/>
      <path id="Trazado_913317" data-name="Trazado 913317" d="M334.666,54.54a.933.933,0,0,0-.859-1.148,5.386,5.386,0,0,1-4.343-7.9.922.922,0,0,0-.527-1.313,5.347,5.347,0,0,1-2.011-8.941,39.124,39.124,0,0,1,14.7,9.1l1.046,8.379Z" transform="translate(-307.541 -35.236)" fill="#3ecd8d"/>
    </g>
    <path id="Trazado_913318" data-name="Trazado 913318" d="M392.871,108.636a.924.924,0,0,0-1.384-.519,5.352,5.352,0,0,1-8.124-5.694,5.069,5.069,0,0,1,3.5-4.258A1.614,1.614,0,0,0,388,96.615a5.5,5.5,0,0,1,2.326-4.4,39.24,39.24,0,0,1,7.53,10.3l-.415,4.033Z" transform="translate(-312.785 -77.492)" fill="#95db76"/>
    <path id="Trazado_913319" data-name="Trazado 913319" d="M448.7,166.658a5.3,5.3,0,0,0,3.073-.978,38.836,38.836,0,0,0-3.222-8.972c-1.859.316-5.215,1.522-4.981,6.119A5.351,5.351,0,0,0,448.7,166.658Z" transform="translate(-363.48 -131.683)" fill="#baee63"/>
    <path id="Trazado_913320" data-name="Trazado 913320" d="M48.131,139.959a6.105,6.105,0,0,0-8.214,2.068,133.138,133.138,0,0,0-8.594,16.014,55.394,55.394,0,0,0-2.027,5.342c-1.063,3.286-2.276,7.144-3.127,9.766l3.947,3.519L35.625,175l5.9-10.434,7-11.229Z" transform="translate(-12.748 -116.93)" fill="#3f57a0"/>
    <path id="Trazado_913321" data-name="Trazado 913321" d="M32.546,351.915l3.078-5.442s-3.342-5.872-9.456-1.849a39.016,39.016,0,0,0,4.876,9.179A9.293,9.293,0,0,0,32.546,351.915Z" transform="translate(-12.748 -288.406)" fill="#5071b7"/>
    <path id="Trazado_913322" data-name="Trazado 913322" d="M179.164,209.942l-2.29-1.015a1.714,1.714,0,0,0-.866-.139,3.887,3.887,0,0,1-2.075-.319l-5.025-2.536a1.144,1.144,0,0,1-.558-.581l-2.317-5.017-4.411-1.551-2.131,3.134,4.734,6.768a4.442,4.442,0,0,0,2.08,1.667l5.573,2.132a3.742,3.742,0,0,1,1.748,1.473,1.715,1.715,0,0,0,.741.629l2.29,1.015a3.095,3.095,0,1,0,2.507-5.659Z" transform="translate(-124.779 -167.04)" fill="#ffaa7b"/>
    <path id="Trazado_913323" data-name="Trazado 913323" d="M109.747,163.385l-3.961,7.06a3.269,3.269,0,0,0,4.778,4.241l3.446-2.514.883-4.7Z" transform="translate(-79.3 -137.293)" fill="#fe3d97"/>
    <path id="Trazado_913324" data-name="Trazado 913324" d="M133.392,143.075A4.038,4.038,0,0,0,131,148.936c.475.846,3.684,5.412,4.111,6.034a12.058,12.058,0,0,0,6.542-1.582l-3.432-8.025A4.034,4.034,0,0,0,133.392,143.075Z" transform="translate(-100.403 -120.092)" fill="#fd77a6"/>
    <path id="Trazado_913325" data-name="Trazado 913325" d="M135.043,418.072l-8.219-1.935a.96.96,0,0,0-1.16.732c-.37,1.713-.818,5.479-1.268,8.436a38.97,38.97,0,0,0,7.651,3.776l3.55-9.923A.8.8,0,0,0,135.043,418.072Z" transform="translate(-95.289 -349.661)" fill="#fef156"/>
    <path id="Trazado_913326" data-name="Trazado 913326" d="M358.052,430.66a18.344,18.344,0,0,0-5.679,9.652,39.005,39.005,0,0,0,4.992-2.578,36.91,36.91,0,0,1,2.073-6.07A.875.875,0,0,0,358.052,430.66Z" transform="translate(-286.86 -361.694)" fill="#95db76"/>
    <path id="Trazado_913327" data-name="Trazado 913327" d="M252.08,430.66a18.607,18.607,0,0,0-6.148,12.762c.534.022,1.069.036,1.608.036q1.5,0,2.979-.112a35.006,35.006,0,0,1,2.948-11.681A.875.875,0,0,0,252.08,430.66Z" transform="translate(-197.417 -361.694)" fill="#95db76"/>
  </g>
</svg>
