<svg xmlns="http://www.w3.org/2000/svg" xmlns:xlink="http://www.w3.org/1999/xlink" width="118" height="118" viewBox="0 0 118 118">
  <defs>
    <filter id="Trazado_874925" x="0" y="0" width="118" height="118" filterUnits="userSpaceOnUse">
      <feOffset dy="3" input="SourceAlpha"/>
      <feGaussianBlur stdDeviation="3" result="blur"/>
      <feFlood flood-opacity="0.161"/>
      <feComposite operator="in" in2="blur"/>
      <feComposite in="SourceGraphic"/>
    </filter>
  </defs>
  <g id="Grupo_1112468" data-name="Grupo 1112468" transform="translate(-793.781 -1933.999)">
    <g id="Grupo_1111552" data-name="Grupo 1111552" transform="translate(-5.719 -577.158)">
      <g id="Grupo_1111316" data-name="Grupo 1111316" transform="translate(808.5 2517.157)">
        <g id="Grupo_1109835" data-name="Grupo 1109835" transform="translate(0 0)">
          <g id="Grupo_1107913" data-name="Grupo 1107913" transform="translate(0 0)">
            <g transform="matrix(1, 0, 0, 1, -9, -6)" filter="url(#Trazado_874925)">
              <g id="Trazado_874925-2" data-name="Trazado 874925" transform="translate(9 6)" fill="#fc0" opacity="0.859">
                <path d="M 49.99972534179688 98.4998779296875 C 43.45164108276367 98.4998779296875 37.10022354125977 97.21776580810547 31.12189674377441 94.68914794921875 C 25.34676742553711 92.24647521972656 20.15985298156738 88.74925994873047 15.70523929595947 84.29464721679688 C 11.25062561035156 79.84004974365234 7.753411293029785 74.65313720703125 5.310725212097168 68.87800598144531 C 2.782111167907715 62.89969253540039 1.499996781349182 56.54829406738281 1.499996781349182 50.00022125244141 C 1.499996781349182 43.45157623291016 2.782111167907715 37.10017776489258 5.310725212097168 31.12186431884766 C 7.753411293029785 25.34673500061035 11.25062561035156 20.15983581542969 15.70523929595947 15.70522117614746 C 20.15985298156738 11.25062084197998 25.34676742553711 7.753406524658203 31.12189674377441 5.31073522567749 C 37.10022354125977 2.782120943069458 43.45164108276367 1.500006556510925 49.99972534179688 1.500006556510925 C 56.54780960083008 1.500006556510925 62.89922714233398 2.782120943069458 68.87755584716797 5.31073522567749 C 74.65267944335938 7.753406524658203 79.839599609375 11.25062084197998 84.29421234130859 15.70522117614746 C 88.74882507324219 20.15983581542969 92.24604034423828 25.34673500061035 94.68872833251953 31.12186431884766 C 97.21733856201172 37.10017776489258 98.49945068359375 43.45157623291016 98.49945068359375 49.99964904785156 C 98.49945068359375 56.54829406738281 97.21733856201172 62.89969253540039 94.68872833251953 68.87800598144531 C 92.24604034423828 74.65313720703125 88.74882507324219 79.84004974365234 84.29421234130859 84.29464721679688 C 79.839599609375 88.74925994873047 74.65267944335938 92.24647521972656 68.87755584716797 94.68914794921875 C 62.89922714233398 97.21776580810547 56.54780960083008 98.4998779296875 49.99972534179688 98.4998779296875 Z" stroke="none"/>
                <path d="M 49.99972534179688 3 C 43.65348052978516 3 37.49866485595703 4.242240905761719 31.70623016357422 6.692230224609375 C 26.10989379882812 9.059272766113281 21.08323669433594 12.44853210449219 16.76589202880859 16.76587677001953 C 12.44855499267578 21.08321380615234 9.059295654296875 26.10985565185547 6.692230224609375 31.70618438720703 C 4.24224853515625 37.49859619140625 3 43.65341186523438 3 50.00022888183594 C 3 56.34645843505859 4.24224853515625 62.50127410888672 6.692230224609375 68.29368591308594 C 9.059295654296875 73.8900146484375 12.44855499267578 78.91665649414062 16.76589202880859 83.23399353027344 C 21.08323669433594 87.55132293701172 26.10989379882812 90.94059753417969 31.70623016357422 93.30764007568359 C 37.49866485595703 95.75762939453125 43.65348052978516 96.99987030029297 49.99972534179688 96.99987030029297 C 56.34597015380859 96.99987030029297 62.50078582763672 95.75762939453125 68.293212890625 93.30764007568359 C 73.88955688476562 90.94059753417969 78.91621398925781 87.55132293701172 83.23355865478516 83.23399353027344 C 87.55089569091797 78.91665649414062 90.94015502929688 73.8900146484375 93.30722045898438 68.29368591308594 C 95.7572021484375 62.50127410888672 96.99945068359375 56.34645843505859 96.99945068359375 49.99964141845703 C 96.99945068359375 43.65341186523438 95.7572021484375 37.49859619140625 93.30722045898438 31.70618438720703 C 90.94015502929688 26.10985565185547 87.55089569091797 21.08321380615234 83.23355865478516 16.76587677001953 C 78.91621398925781 12.44853210449219 73.88955688476562 9.059272766113281 68.293212890625 6.692230224609375 C 62.50078582763672 4.242240905761719 56.34597015380859 3 49.99972534179688 3 M 49.99972534179688 0 C 77.61381530761719 0 99.99945068359375 22.38559722900391 99.99945068359375 49.99964141845703 L 99.99945068359375 50.00022888183594 C 99.99945068359375 77.6142578125 77.61381530761719 99.99987030029297 49.99972534179688 99.99987030029297 C 22.38563537597656 99.99987030029297 0 77.6142578125 0 50.00022888183594 L 0 49.99964141845703 C 0 22.38559722900391 22.38563537597656 0 49.99972534179688 0 Z" stroke="none" fill="#fff"/>
              </g>
            </g>
            <g id="Trazado_874923" data-name="Trazado 874923" transform="translate(0 0)" fill="none">
              <path d="M50,0a50,50,0,0,1,50,50h0A50,50,0,0,1,0,50H0A50,50,0,0,1,50,0Z" stroke="none"/>
              <path d="M 49.99972534179688 3 C 43.65348052978516 3 37.49866485595703 4.242240905761719 31.70623016357422 6.692230224609375 C 26.10989379882812 9.059272766113281 21.08323669433594 12.44853210449219 16.76589202880859 16.76587677001953 C 12.44855499267578 21.08321380615234 9.059295654296875 26.10985565185547 6.692230224609375 31.70618438720703 C 4.24224853515625 37.49859619140625 3 43.65341186523438 3 50.00022888183594 C 3 56.34645843505859 4.24224853515625 62.50127410888672 6.692230224609375 68.29368591308594 C 9.059295654296875 73.8900146484375 12.44855499267578 78.91665649414062 16.76589202880859 83.23399353027344 C 21.08323669433594 87.55132293701172 26.10989379882812 90.94059753417969 31.70623016357422 93.30764007568359 C 37.49866485595703 95.75762939453125 43.65348052978516 96.99987030029297 49.99972534179688 96.99987030029297 C 56.34597015380859 96.99987030029297 62.50078582763672 95.75762939453125 68.293212890625 93.30764007568359 C 73.88955688476562 90.94059753417969 78.91621398925781 87.55132293701172 83.23355865478516 83.23399353027344 C 87.55089569091797 78.91665649414062 90.94015502929688 73.8900146484375 93.30722045898438 68.29368591308594 C 95.7572021484375 62.50127410888672 96.99945068359375 56.34645843505859 96.99945068359375 49.99964141845703 C 96.99945068359375 43.65341186523438 95.7572021484375 37.49859619140625 93.30722045898438 31.70618438720703 C 90.94015502929688 26.10985565185547 87.55089569091797 21.08321380615234 83.23355865478516 16.76587677001953 C 78.91621398925781 12.44853210449219 73.88955688476562 9.059272766113281 68.293212890625 6.692230224609375 C 62.50078582763672 4.242240905761719 56.34597015380859 3 49.99972534179688 3 M 49.99972534179688 0 C 77.61381530761719 0 99.99945068359375 22.38559722900391 99.99945068359375 49.99964141845703 L 99.99945068359375 50.00022888183594 C 99.99945068359375 77.6142578125 77.61381530761719 99.99987030029297 49.99972534179688 99.99987030029297 C 22.38563537597656 99.99987030029297 0 77.6142578125 0 50.00022888183594 L 0 49.99964141845703 C 0 22.38559722900391 22.38563537597656 0 49.99972534179688 0 Z" stroke="none" fill="#fff"/>
            </g>
          </g>
        </g>
      </g>
    </g>
    <g id="Grupo_1119210" data-name="Grupo 1119210" transform="translate(821.612 1953.187)">
      <path id="Trazado_913656" data-name="Trazado 913656" d="M56.235,49.5H46.677v2.192h.487a2.922,2.922,0,1,1,0,5.844h-30.2a2.922,2.922,0,1,1,0-5.844h.487V49.5H7.533L1.75,59.423l60.451.122Z" transform="translate(-0.898 -19.75)" fill="#e1ebf4"/>
      <path id="Trazado_913657" data-name="Trazado 913657" d="M63.429,16V35.942H42V16a.993.993,0,0,1,.974-1H62.455A.993.993,0,0,1,63.429,16Z" transform="translate(-21.545 -2.052)" fill="#ffdb80"/>
      <path id="Trazado_913658" data-name="Trazado 913658" d="M61.613,55.883l-4.7-7.515A2.954,2.954,0,0,0,54.419,47H45.78v1.948h8.64a.994.994,0,0,1,.843.448l4.7,7.52a3.026,3.026,0,0,1,.336.8H2.041a3.026,3.026,0,0,1,.336-.8l4.7-7.52a.994.994,0,0,1,.843-.448h8.64V47H7.919a2.954,2.954,0,0,0-2.494,1.369l-4.7,7.515A4.81,4.81,0,0,0,0,58.416V78.247a2.887,2.887,0,0,0,2.922,2.844H59.416a2.887,2.887,0,0,0,2.922-2.844V58.416a4.81,4.81,0,0,0-.726-2.532ZM60.39,78.247a.941.941,0,0,1-.974.9H2.922a.941.941,0,0,1-.974-.9V59.662H60.39Z" transform="translate(0 -18.467)" fill="#0b0b0b"/>
      <path id="Trazado_913659" data-name="Trazado 913659" d="M4,73V91.585a.941.941,0,0,0,.974.9H61.468a.941.941,0,0,0,.974-.9V73ZM33.221,88.1a4.87,4.87,0,1,1,4.87-4.87A4.87,4.87,0,0,1,33.221,88.1Z" transform="translate(-2.052 -31.805)" fill="#9387a2"/>
      <path id="Trazado_913660" data-name="Trazado 913660" d="M62.188,39.19l-4.613,3.4-1.916-1.9a.974.974,0,0,0-1.37,1.385L56.8,44.563a.983.983,0,0,0,1.263.091l5.284-3.9a.974.974,0,0,0-1.156-1.568Z" transform="translate(-27.701 -14.364)" fill="#090a0a"/>
      <path id="Trazado_913661" data-name="Trazado 913661" d="M58.87,84a4.87,4.87,0,1,0,4.87,4.87A4.87,4.87,0,0,0,58.87,84Zm0,7.792a2.922,2.922,0,1,1,2.922-2.922A2.922,2.922,0,0,1,58.87,91.792Z" transform="translate(-27.701 -37.448)" fill="#2d4356"/>
      <ellipse id="Elipse_11862" data-name="Elipse 11862" cx="2.66" cy="3.192" rx="2.66" ry="3.192" transform="translate(28.295 48.234)" fill="#e1ebf4"/>
      <g id="Grupo_1119183" data-name="Grupo 1119183" transform="translate(15.098 11)">
        <path id="Trazado_913662" data-name="Trazado 913662" d="M38.818,92H32.974a.974.974,0,1,0,0,1.948h5.844a.974.974,0,1,0,0-1.948Z" transform="translate(-31.513 -52.552)" fill="#2d4356"/>
        <path id="Trazado_913663" data-name="Trazado 913663" d="M86.818,92H80.974a.974.974,0,1,0,0,1.948h5.844a.974.974,0,1,0,0-1.948Z" transform="translate(-56.136 -52.552)" fill="#2d4356"/>
        <path id="Trazado_913664" data-name="Trazado 913664" d="M62.169,33.89H59.734V13.951A2.94,2.94,0,0,0,56.812,11H37.331a2.94,2.94,0,0,0-2.922,2.951V33.89H31.974a.974.974,0,0,0,0,1.948h30.2a.974.974,0,1,0,0-1.948Zm-4.383,0H36.357V13.951a.993.993,0,0,1,.974-1H56.812a.993.993,0,0,1,.974,1Z" transform="translate(-31 -11)" fill="#141515"/>
        <path id="Trazado_913665" data-name="Trazado 913665" d="M62.714,21h-9.74a.974.974,0,1,0,0,1.948h9.74a.974.974,0,1,0,0-1.948Z" transform="translate(-41.773 -16.13)" fill="#2d4356"/>
        <path id="Trazado_913666" data-name="Trazado 913666" d="M62.714,29h-9.74a.974.974,0,1,0,0,1.948h9.74a.974.974,0,1,0,0-1.948Z" transform="translate(-41.773 -20.234)" fill="#080808"/>
      </g>
      <path id="Trazado_913667" data-name="Trazado 913667" d="M62.447,67.974H4.19a3.026,3.026,0,0,1,.336-.8L4.638,67H62l.107.175a3.026,3.026,0,0,1,.336.8Z" transform="translate(-2.149 -28.727)" fill="#9fa5aa" opacity="0.5"/>
      <path id="Trazado_913668" data-name="Trazado 913668" d="M108.518,59.766h-.443l-4.593-7.344a.994.994,0,0,0-.843-.448H94V51h8.64a.994.994,0,0,1,.843.448l4.7,7.52A3.026,3.026,0,0,1,108.518,59.766Z" transform="translate(-48.22 -20.519)" fill="#fff" opacity="0.5"/>
      <path id="Trazado_913669" data-name="Trazado 913669" d="M18.708,51v.974h-8.64a.994.994,0,0,0-.843.448L4.638,59.766H4.19a3.026,3.026,0,0,1,.336-.8l4.7-7.52A.994.994,0,0,1,10.068,51Z" transform="translate(-2.149 -20.519)" fill="#fff" opacity="0.5"/>
      <path id="Trazado_913670" data-name="Trazado 913670" d="M4,73H62.442v.974H4Z" transform="translate(-2.052 -31.805)" fill="#dccef2" opacity="0.2"/>
      <path id="Trazado_913671" data-name="Trazado 913671" d="M62.442,109.16v.974a.941.941,0,0,1-.974.9H4.974a.941.941,0,0,1-.974-.9v-.974a.941.941,0,0,0,.974.9H61.468A.941.941,0,0,0,62.442,109.16Z" transform="translate(-2.052 -50.354)" fill="#5f5968" opacity="0.5"/>
      <path id="Trazado_913672" data-name="Trazado 913672" d="M63.429,16v.974a.993.993,0,0,0-.974-1H42.974a.993.993,0,0,0-.974,1V16a.993.993,0,0,1,.974-1H62.455A.993.993,0,0,1,63.429,16Z" transform="translate(-21.545 -2.052)" fill="#f9edd2" opacity="0.5"/>
      <path id="Trazado_913673" data-name="Trazado 913673" d="M42,56H63.429v.974H42Z" transform="translate(-21.545 -23.084)" fill="#ad9359" opacity="0.45"/>
      <path id="Trazado_913674" data-name="Trazado 913674" d="M63.844,90.922a2.664,2.664,0,0,1-.044.487,2.919,2.919,0,0,0-5.757,0A2.664,2.664,0,0,1,58,90.922a2.922,2.922,0,1,1,5.844,0Z" transform="translate(-29.753 -39.5)" fill="#fff" opacity="0.5"/>
      <path id="Trazado_913675" data-name="Trazado 913675" d="M63.844,93.487a2.922,2.922,0,0,1-5.844,0A2.664,2.664,0,0,1,58.044,93,2.919,2.919,0,0,0,63.8,93,2.663,2.663,0,0,1,63.844,93.487Z" transform="translate(-29.753 -42.065)" fill="#9fa5aa" opacity="0.5"/>
    </g>
  </g>
</svg>
