<svg xmlns="http://www.w3.org/2000/svg" xmlns:xlink="http://www.w3.org/1999/xlink" width="118" height="118" viewBox="0 0 118 118">
  <defs>
    <filter id="Trazado_874925" x="0" y="0" width="118" height="118" filterUnits="userSpaceOnUse">
      <feOffset dy="3" input="SourceAlpha"/>
      <feGaussianBlur stdDeviation="3" result="blur"/>
      <feFlood flood-opacity="0.161"/>
      <feComposite operator="in" in2="blur"/>
      <feComposite in="SourceGraphic"/>
    </filter>
  </defs>
  <g id="Grupo_1112467" data-name="Grupo 1112467" transform="translate(-1108.134 -1933.999)">
    <g id="Grupo_1111553" data-name="Grupo 1111553" transform="translate(308.634 -577.158)">
      <g id="Grupo_1111316" data-name="Grupo 1111316" transform="translate(808.5 2517.157)">
        <g id="Grupo_1109835" data-name="Grupo 1109835" transform="translate(0 0)">
          <g id="Grupo_1107913" data-name="Grupo 1107913" transform="translate(0 0)">
            <g transform="matrix(1, 0, 0, 1, -9, -6)" filter="url(#Trazado_874925)">
              <g id="Trazado_874925-2" data-name="Trazado 874925" transform="translate(9 6)" fill="#fc0" opacity="0.859">
                <path d="M 49.99972534179688 98.4998779296875 C 43.45164108276367 98.4998779296875 37.10022354125977 97.21776580810547 31.12189674377441 94.68914794921875 C 25.34676742553711 92.24647521972656 20.15985298156738 88.74925994873047 15.70523929595947 84.29464721679688 C 11.25062561035156 79.84004974365234 7.753411293029785 74.65313720703125 5.310725212097168 68.87800598144531 C 2.782111167907715 62.89969253540039 1.499996781349182 56.54829406738281 1.499996781349182 50.00022125244141 C 1.499996781349182 43.45157623291016 2.782111167907715 37.10017776489258 5.310725212097168 31.12186431884766 C 7.753411293029785 25.34673500061035 11.25062561035156 20.15983581542969 15.70523929595947 15.70522117614746 C 20.15985298156738 11.25062084197998 25.34676742553711 7.753406524658203 31.12189674377441 5.31073522567749 C 37.10022354125977 2.782120943069458 43.45164108276367 1.500006556510925 49.99972534179688 1.500006556510925 C 56.54780960083008 1.500006556510925 62.89922714233398 2.782120943069458 68.87755584716797 5.31073522567749 C 74.65267944335938 7.753406524658203 79.839599609375 11.25062084197998 84.29421234130859 15.70522117614746 C 88.74882507324219 20.15983581542969 92.24604034423828 25.34673500061035 94.68872833251953 31.12186431884766 C 97.21733856201172 37.10017776489258 98.49945068359375 43.45157623291016 98.49945068359375 49.99964904785156 C 98.49945068359375 56.54829406738281 97.21733856201172 62.89969253540039 94.68872833251953 68.87800598144531 C 92.24604034423828 74.65313720703125 88.74882507324219 79.84004974365234 84.29421234130859 84.29464721679688 C 79.839599609375 88.74925994873047 74.65267944335938 92.24647521972656 68.87755584716797 94.68914794921875 C 62.89922714233398 97.21776580810547 56.54780960083008 98.4998779296875 49.99972534179688 98.4998779296875 Z" stroke="none"/>
                <path d="M 49.99972534179688 3 C 43.65348052978516 3 37.49866485595703 4.242240905761719 31.70623016357422 6.692230224609375 C 26.10989379882812 9.059272766113281 21.08323669433594 12.44853210449219 16.76589202880859 16.76587677001953 C 12.44855499267578 21.08321380615234 9.059295654296875 26.10985565185547 6.692230224609375 31.70618438720703 C 4.24224853515625 37.49859619140625 3 43.65341186523438 3 50.00022888183594 C 3 56.34645843505859 4.24224853515625 62.50127410888672 6.692230224609375 68.29368591308594 C 9.059295654296875 73.8900146484375 12.44855499267578 78.91665649414062 16.76589202880859 83.23399353027344 C 21.08323669433594 87.55132293701172 26.10989379882812 90.94059753417969 31.70623016357422 93.30764007568359 C 37.49866485595703 95.75762939453125 43.65348052978516 96.99987030029297 49.99972534179688 96.99987030029297 C 56.34597015380859 96.99987030029297 62.50078582763672 95.75762939453125 68.293212890625 93.30764007568359 C 73.88955688476562 90.94059753417969 78.91621398925781 87.55132293701172 83.23355865478516 83.23399353027344 C 87.55089569091797 78.91665649414062 90.94015502929688 73.8900146484375 93.30722045898438 68.29368591308594 C 95.7572021484375 62.50127410888672 96.99945068359375 56.34645843505859 96.99945068359375 49.99964141845703 C 96.99945068359375 43.65341186523438 95.7572021484375 37.49859619140625 93.30722045898438 31.70618438720703 C 90.94015502929688 26.10985565185547 87.55089569091797 21.08321380615234 83.23355865478516 16.76587677001953 C 78.91621398925781 12.44853210449219 73.88955688476562 9.059272766113281 68.293212890625 6.692230224609375 C 62.50078582763672 4.242240905761719 56.34597015380859 3 49.99972534179688 3 M 49.99972534179688 0 C 77.61381530761719 0 99.99945068359375 22.38559722900391 99.99945068359375 49.99964141845703 L 99.99945068359375 50.00022888183594 C 99.99945068359375 77.6142578125 77.61381530761719 99.99987030029297 49.99972534179688 99.99987030029297 C 22.38563537597656 99.99987030029297 0 77.6142578125 0 50.00022888183594 L 0 49.99964141845703 C 0 22.38559722900391 22.38563537597656 0 49.99972534179688 0 Z" stroke="none" fill="#fff"/>
              </g>
            </g>
            <g id="Trazado_874923" data-name="Trazado 874923" transform="translate(0 0)" fill="none">
              <path d="M50,0a50,50,0,0,1,50,50h0A50,50,0,0,1,0,50H0A50,50,0,0,1,50,0Z" stroke="none"/>
              <path d="M 49.99972534179688 3 C 43.65348052978516 3 37.49866485595703 4.242240905761719 31.70623016357422 6.692230224609375 C 26.10989379882812 9.059272766113281 21.08323669433594 12.44853210449219 16.76589202880859 16.76587677001953 C 12.44855499267578 21.08321380615234 9.059295654296875 26.10985565185547 6.692230224609375 31.70618438720703 C 4.24224853515625 37.49859619140625 3 43.65341186523438 3 50.00022888183594 C 3 56.34645843505859 4.24224853515625 62.50127410888672 6.692230224609375 68.29368591308594 C 9.059295654296875 73.8900146484375 12.44855499267578 78.91665649414062 16.76589202880859 83.23399353027344 C 21.08323669433594 87.55132293701172 26.10989379882812 90.94059753417969 31.70623016357422 93.30764007568359 C 37.49866485595703 95.75762939453125 43.65348052978516 96.99987030029297 49.99972534179688 96.99987030029297 C 56.34597015380859 96.99987030029297 62.50078582763672 95.75762939453125 68.293212890625 93.30764007568359 C 73.88955688476562 90.94059753417969 78.91621398925781 87.55132293701172 83.23355865478516 83.23399353027344 C 87.55089569091797 78.91665649414062 90.94015502929688 73.8900146484375 93.30722045898438 68.29368591308594 C 95.7572021484375 62.50127410888672 96.99945068359375 56.34645843505859 96.99945068359375 49.99964141845703 C 96.99945068359375 43.65341186523438 95.7572021484375 37.49859619140625 93.30722045898438 31.70618438720703 C 90.94015502929688 26.10985565185547 87.55089569091797 21.08321380615234 83.23355865478516 16.76587677001953 C 78.91621398925781 12.44853210449219 73.88955688476562 9.059272766113281 68.293212890625 6.692230224609375 C 62.50078582763672 4.242240905761719 56.34597015380859 3 49.99972534179688 3 M 49.99972534179688 0 C 77.61381530761719 0 99.99945068359375 22.38559722900391 99.99945068359375 49.99964141845703 L 99.99945068359375 50.00022888183594 C 99.99945068359375 77.6142578125 77.61381530761719 99.99987030029297 49.99972534179688 99.99987030029297 C 22.38563537597656 99.99987030029297 0 77.6142578125 0 50.00022888183594 L 0 49.99964141845703 C 0 22.38559722900391 22.38563537597656 0 49.99972534179688 0 Z" stroke="none" fill="#fff"/>
            </g>
          </g>
        </g>
      </g>
    </g>
    <g id="Grupo_1119212" data-name="Grupo 1119212" transform="translate(1134.611 1958.401)">
      <path id="Trazado_913831" data-name="Trazado 913831" d="M55,111.083H68.212v4.531H55Z" transform="translate(-27.051 -50.699)" fill="#fc785e"/>
      <path id="Trazado_913832" data-name="Trazado 913832" d="M64.588,16.145a3.037,3.037,0,0,1-.808,2.19l-8.09,8.756v8.065a1.016,1.016,0,0,1-2.033,0V26.694A1.017,1.017,0,0,1,53.927,26l8.359-9.051a1.013,1.013,0,0,0-.056-1.433,1.04,1.04,0,0,0-.732-.269,1.013,1.013,0,0,0-.706.325l-7.745,8.395a1.02,1.02,0,0,1-.747.33H49.2a1,1,0,0,0-.742.325l-1.413,1.53a1.049,1.049,0,0,1-1.494,0l-1.408-1.53a1.023,1.023,0,0,0-.747-.325h-3.1a1.02,1.02,0,0,1-.747-.33L31.8,15.576a1.013,1.013,0,0,0-.706-.325,1.032,1.032,0,0,0-.732.269,1.013,1.013,0,0,0-.056,1.433L38.651,26a1.026,1.026,0,0,1,.269.691v8.461a1.016,1.016,0,1,1-2.033,0V27.091l-8.08-8.756A3.05,3.05,0,1,1,33.29,14.2l7.445,8.07h2.658a3.058,3.058,0,0,1,2.241.981l.661.717.661-.717a3.058,3.058,0,0,1,2.241-.981h2.658L59.3,14.2a3.051,3.051,0,0,1,5.29,1.946Z" transform="translate(-13.772 -2.565)"/>
      <path id="Trazado_913833" data-name="Trazado 913833" d="M63.331,9.794a4.64,4.64,0,0,0-3.242-1.779c-.127-.01-.31-.015-.5-.015-.208,0-.417.005-.554.02A4.619,4.619,0,0,0,55.82,9.794a4.7,4.7,0,0,0-.661,4c.025.173.051.346.071.518.142,1.077.569,4.36,3.969,4.838a2.4,2.4,0,0,0,.793-.005c3.364-.5,3.771-3.649,3.928-4.833.02-.173.046-.346.071-.518A4.7,4.7,0,0,0,63.331,9.794Zm-1.347,3.694c-.03.188-.056.376-.081.559-.269,2.053-.864,2.886-2.216,3.09a.457.457,0,0,1-.2,0c-1.326-.183-1.977-1.082-2.236-3.085-.025-.188-.051-.376-.081-.564-.168-1.118-.249-1.829.224-2.409a2.612,2.612,0,0,1,1.845-1.037c.076-.005.213-.01.356-.01.122,0,.244.005.31.01a2.607,2.607,0,0,1,1.86,1.037C62.233,11.659,62.152,12.37,61.984,13.488Z" transform="translate(-27.053 0)"/>
      <path id="Trazado_913834" data-name="Trazado 913834" d="M63.95,15.456c-.03.188-.056.376-.081.559-.269,2.053-.864,2.886-2.216,3.09a.457.457,0,0,1-.2,0c-1.326-.183-1.977-1.082-2.236-3.085-.025-.188-.051-.376-.081-.564-.168-1.118-.249-1.829.224-2.409A2.612,2.612,0,0,1,61.2,12.01c.076-.005.213-.01.356-.01.122,0,.244.005.31.01a2.607,2.607,0,0,1,1.86,1.037C64.2,13.626,64.118,14.338,63.95,15.456Z" transform="translate(-29.019 -1.967)" fill="#e1ebf4"/>
      <path id="Trazado_913835" data-name="Trazado 913835" d="M107.331,30.014a4.639,4.639,0,0,0-3.242-1.779c-.127-.01-.31-.015-.493-.015-.208,0-.422.005-.559.02a4.632,4.632,0,0,0-3.217,1.768,4.71,4.71,0,0,0-.661,4c.025.173.051.346.071.518.142,1.077.569,4.36,3.969,4.838a2.4,2.4,0,0,0,.793-.005c3.364-.5,3.771-3.649,3.928-4.833.02-.173.046-.346.071-.518a4.7,4.7,0,0,0-.661-4Zm-1.347,3.694c-.03.188-.056.376-.081.559-.269,2.053-.864,2.886-2.216,3.09a.547.547,0,0,1-.2,0c-1.326-.188-1.977-1.082-2.236-3.09-.025-.183-.051-.371-.081-.559-.168-1.118-.249-1.829.224-2.409a2.612,2.612,0,0,1,1.845-1.037c.076-.005.219-.01.356-.01a2.63,2.63,0,0,1,2.17,1.047c.473.579.391,1.291.224,2.409Z" transform="translate(-48.694 -9.945)"/>
      <path id="Trazado_913836" data-name="Trazado 913836" d="M107.95,35.675c-.03.188-.056.376-.081.559-.269,2.053-.864,2.886-2.216,3.09a.547.547,0,0,1-.2,0c-1.326-.188-1.977-1.082-2.236-3.09-.025-.183-.051-.371-.081-.559-.168-1.118-.249-1.829.224-2.409a2.612,2.612,0,0,1,1.845-1.037c.076-.005.219-.01.356-.01a2.63,2.63,0,0,1,2.17,1.047c.473.579.391,1.291.224,2.409Z" transform="translate(-50.66 -11.911)" fill="#e1ebf4"/>
      <path id="Trazado_913837" data-name="Trazado 913837" d="M63.611,69.152a2.653,2.653,0,0,0-1.84-.813,2.543,2.543,0,0,0-.676.086,2.591,2.591,0,0,0-3.1-2.043v-.03a2.642,2.642,0,0,0-2.566-2.693,2.684,2.684,0,0,0-.6.061l.056-2.287a2.631,2.631,0,1,0-5.26-.132l-.234,10.417L48.2,70.646a2.917,2.917,0,0,0-4.513,3.578L49.037,83.8a1.014,1.014,0,0,0-.8.991v4.065a1.016,1.016,0,0,0,2.033,0V85.8h11.18v3.049a1.016,1.016,0,0,0,2.033,0V84.788a1.014,1.014,0,0,0-.33-.747l1-5.427a.842.842,0,0,0,.015-.163l.168-7.414A2.643,2.643,0,0,0,63.611,69.152Zm-1.469,9.172-1.006,5.448H51.349L45.464,73.232a.891.891,0,0,1,.1-1.016.876.876,0,0,1,.691-.3.893.893,0,0,1,.579.229l2.825,2.581a1.018,1.018,0,0,0,1.7-.732l.285-12.648a.555.555,0,0,1,.183-.412.547.547,0,0,1,.422-.163.583.583,0,0,1,.417.178.619.619,0,0,1,.173.437l-.213,9.35v.005l-.066,2.9a1.016,1.016,0,0,0,1,1.037h.02a1.011,1.011,0,0,0,1.016-.991l.168-7.419a.616.616,0,0,1,.183-.417.59.59,0,0,1,.427-.163.6.6,0,0,1,.584.615l-.1,4.248-.056,2.526-.015.645a1.015,1.015,0,0,0,.991,1.037.046.046,0,0,0,.025.005,1.022,1.022,0,0,0,1.016-1l.066-3,.041-1.835a.59.59,0,0,1,.61-.579.6.6,0,0,1,.584.615L59.083,70.9l-.066,2.9a1.016,1.016,0,0,0,.991,1.042,1.031,1.031,0,0,0,1.042-1l.01-.64h0a0,0,0,0,0,0,0l.051-2.256a.574.574,0,0,1,.183-.417.587.587,0,0,1,.422-.163.6.6,0,0,1,.417.183.61.61,0,0,1,.168.432Z" transform="translate(-21.306 -24.955)"/>
      <path id="Trazado_913838" data-name="Trazado 913838" d="M57,112H68.18v1.016H57Z" transform="translate(-28.035 -51.15)" fill="#f9dbd7" opacity="0.3"/>
      <path id="Trazado_913839" data-name="Trazado 913839" d="M64.271,72.953l-.163,7.338L63.1,85.739H53.314L47.43,75.2a.891.891,0,0,1,.1-1.016.876.876,0,0,1,.691-.3.893.893,0,0,1,.579.229l2.825,2.582a1.018,1.018,0,0,0,1.7-.732l.285-12.648A.555.555,0,0,1,53.8,62.9a.547.547,0,0,1,.422-.163.583.583,0,0,1,.417.178.619.619,0,0,1,.173.437L54.6,72.7v.005l-.066,2.9a1.016,1.016,0,0,0,1,1.037h.02a1.011,1.011,0,0,0,1.016-.991l.168-7.419a.616.616,0,0,1,.183-.417.59.59,0,0,1,.427-.163.6.6,0,0,1,.584.615l-.1,4.248-.056,2.526-.015.645a1.015,1.015,0,0,0,.991,1.037.046.046,0,0,0,.025.005,1.022,1.022,0,0,0,1.016-1l.066-3L59.9,70.9a.59.59,0,0,1,.61-.579.6.6,0,0,1,.584.615l-.041,1.936-.066,2.9a1.016,1.016,0,0,0,.991,1.042,1.031,1.031,0,0,0,1.042-1l.01-.64h0a0,0,0,0,0,0,0l.051-2.256a.574.574,0,0,1,.183-.417.586.586,0,0,1,.422-.163.6.6,0,0,1,.417.183A.61.61,0,0,1,64.271,72.953Z" transform="translate(-23.272 -26.922)" fill="#e1ebf4"/>
      <path id="Trazado_913840" data-name="Trazado 913840" d="M108.326,57.571V63.4a1.016,1.016,0,0,1-2.033,0V57.571c0-.376-.971-1.154-1.768-1.53l-3.644-1.616L98.8,56.184a1.016,1.016,0,0,1-1.316,0l-2.068-1.758-3.633,1.626c-.889.407-1.758,1.148-1.753,1.5V63.4A1.016,1.016,0,0,1,88,63.4V57.571c-.036-1.926,2.449-3.146,2.952-3.374l4.223-1.89a1.03,1.03,0,0,1,1.072.152l1.9,1.616,1.906-1.616a1.03,1.03,0,0,1,1.072-.152l4.243,1.89C105.882,54.436,108.332,55.686,108.326,57.571Z" transform="translate(-43.281 -21.749)"/>
      <path id="Trazado_913841" data-name="Trazado 913841" d="M19.331,30.014a4.639,4.639,0,0,0-3.242-1.779c-.127-.01-.31-.015-.493-.015-.208,0-.422.005-.559.02a4.632,4.632,0,0,0-3.217,1.768,4.71,4.71,0,0,0-.661,4c.025.173.051.346.071.518.142,1.077.569,4.36,3.969,4.838a2.4,2.4,0,0,0,.793-.005c3.364-.5,3.771-3.649,3.928-4.833.02-.173.046-.346.071-.518a4.7,4.7,0,0,0-.661-4Zm-1.347,3.694c-.03.188-.056.376-.081.559-.264,2.053-.864,2.886-2.216,3.09a.547.547,0,0,1-.2,0c-1.326-.188-1.977-1.082-2.236-3.09-.025-.183-.051-.371-.081-.559-.168-1.118-.249-1.829.224-2.409a2.612,2.612,0,0,1,1.845-1.037c.076-.005.213-.01.356-.01a2.63,2.63,0,0,1,2.17,1.047c.473.579.391,1.291.224,2.409Z" transform="translate(-5.413 -9.945)"/>
      <path id="Trazado_913842" data-name="Trazado 913842" d="M19.95,35.675c-.03.188-.056.376-.081.559-.264,2.053-.864,2.886-2.216,3.09a.547.547,0,0,1-.2,0c-1.326-.188-1.977-1.082-2.236-3.09-.025-.183-.051-.371-.081-.559-.168-1.118-.249-1.829.224-2.409A2.612,2.612,0,0,1,17.2,32.229c.076-.005.213-.01.356-.01a2.63,2.63,0,0,1,2.17,1.047c.473.579.391,1.291.224,2.409Z" transform="translate(-7.379 -11.911)" fill="#e1ebf4"/>
      <path id="Trazado_913843" data-name="Trazado 913843" d="M20.326,57.571V63.4a1.016,1.016,0,0,1-2.033,0V57.571c0-.376-.971-1.154-1.768-1.53l-3.644-1.616L10.8,56.183a1.01,1.01,0,0,1-1.316,0L7.419,54.425,3.785,56.051c-.889.407-1.758,1.148-1.753,1.5V63.4A1.016,1.016,0,0,1,0,63.4V57.571c-.036-1.926,2.449-3.146,2.952-3.374l4.223-1.89a1.027,1.027,0,0,1,1.072.152l1.9,1.616,1.906-1.616a1.028,1.028,0,0,1,1.072-.152l4.243,1.89C17.882,54.435,20.332,55.685,20.326,57.571Z" transform="translate(0 -21.748)"/>
      <path id="Trazado_913844" data-name="Trazado 913844" d="M20.294,66.551H2a1.016,1.016,0,0,0,1.016-1.016V59.685c-.005-.351.864-1.093,1.753-1.5L8.4,56.56l2.068,1.758a1.01,1.01,0,0,0,1.316,0l2.078-1.758,3.644,1.616c.8.376,1.768,1.154,1.768,1.53v5.829a1.019,1.019,0,0,0,1.016,1.016Z" transform="translate(-0.984 -23.883)" fill="#fc785e"/>
      <path id="Trazado_913845" data-name="Trazado 913845" d="M108.294,66.551H90a1.019,1.019,0,0,0,1.016-1.016V59.685c-.005-.351.864-1.093,1.753-1.5L96.4,56.56l2.068,1.758a1.016,1.016,0,0,0,1.316,0l2.078-1.758,3.644,1.616c.8.376,1.768,1.154,1.768,1.53v5.829a1.019,1.019,0,0,0,1.016,1.016Z" transform="translate(-44.265 -23.883)" fill="#fc785e"/>
      <path id="Trazado_913846" data-name="Trazado 913846" d="M64.2,17.489a1.04,1.04,0,0,0-.732-.269,1.013,1.013,0,0,0-.706.325L55.014,25.94a1.02,1.02,0,0,1-.747.33h-3.1a1,1,0,0,0-.742.325l-1.413,1.53a1.049,1.049,0,0,1-1.494,0L46.106,26.6a1.023,1.023,0,0,0-.747-.325h-3.1a1.02,1.02,0,0,1-.747-.33l-7.745-8.395a1.013,1.013,0,0,0-.706-.325,1.032,1.032,0,0,0-.732.269,1.013,1.013,0,0,0-.056,1.433l8.349,9.051a1.026,1.026,0,0,1,.269.691v8.461a1.019,1.019,0,0,1-1.016,1.016h3.085a4.751,4.751,0,0,1,.5-.567,4.659,4.659,0,0,1,3.227-1.289h.1a4.644,4.644,0,0,1,3.25,1.425,5.006,5.006,0,0,1,.357.429H56.64a1.016,1.016,0,0,1-1.016-1.016V28.663a1.017,1.017,0,0,1,.269-.691l8.359-9.051a1.013,1.013,0,0,0-.056-1.433Z" transform="translate(-15.738 -4.534)" fill="#ffdb80"/>
      <path id="Trazado_913847" data-name="Trazado 913847" d="M64.522,18.2a1,1,0,0,1-.142.549.832.832,0,0,0-.183-.239,1.04,1.04,0,0,0-.732-.269,1.013,1.013,0,0,0-.706.325l-7.745,8.395a1.02,1.02,0,0,1-.747.33h-3.1a1,1,0,0,0-.742.325l-1.413,1.53a1.049,1.049,0,0,1-1.494,0l-1.408-1.53a1.023,1.023,0,0,0-.747-.325h-3.1a1.02,1.02,0,0,1-.747-.33l-7.745-8.395a1.013,1.013,0,0,0-.706-.325,1.032,1.032,0,0,0-.732.269.831.831,0,0,0-.183.239,1,1,0,0,1,.183-1.255,1.032,1.032,0,0,1,.732-.269,1.013,1.013,0,0,1,.706.325l7.745,8.395a1.02,1.02,0,0,0,.747.33h3.1a1.023,1.023,0,0,1,.747.325l1.408,1.53a1.049,1.049,0,0,0,1.494,0l1.413-1.53a1,1,0,0,1,.742-.325h3.1a1.02,1.02,0,0,0,.747-.33l7.745-8.395a1.013,1.013,0,0,1,.706-.325,1.04,1.04,0,0,1,.732.269A1,1,0,0,1,64.522,18.2Z" transform="translate(-15.738 -4.534)" fill="#f9edd2" opacity="0.5"/>
      <path id="Trazado_913848" data-name="Trazado 913848" d="M108.261,59.706v1.016c0-.376-.971-1.154-1.768-1.53l-3.644-1.616-2.078,1.758a1.016,1.016,0,0,1-1.316,0l-2.068-1.758L93.753,59.2C92.869,59.609,92,60.346,92,60.7V59.685c-.005-.351.864-1.093,1.753-1.5l3.633-1.626,2.068,1.758a1.016,1.016,0,0,0,1.316,0l2.078-1.758,3.644,1.616c.8.376,1.768,1.154,1.768,1.53Z" transform="translate(-45.249 -23.883)" fill="#f9dbd7" opacity="0.3"/>
      <path id="Trazado_913849" data-name="Trazado 913849" d="M20.261,59.706v1.016c0-.376-.971-1.154-1.768-1.53l-3.644-1.616-2.078,1.758a1.01,1.01,0,0,1-1.316,0L9.387,57.576,5.753,59.2C4.869,59.609,4,60.346,4,60.7V59.685c-.005-.351.864-1.093,1.753-1.5L9.387,56.56l2.068,1.758a1.01,1.01,0,0,0,1.316,0l2.078-1.758,3.644,1.616C19.291,58.552,20.261,59.33,20.261,59.706Z" transform="translate(-1.968 -23.883)" fill="#f9dbd7" opacity="0.3"/>
      <path id="Trazado_913850" data-name="Trazado 913850" d="M64.023,14.77a1.492,1.492,0,0,0-.32-.706,2.607,2.607,0,0,0-1.86-1.037c-.066-.005-.188-.01-.31-.01-.142,0-.279.005-.356.01a2.612,2.612,0,0,0-1.845,1.037,1.492,1.492,0,0,0-.32.706,2.155,2.155,0,0,1,.32-1.723,2.612,2.612,0,0,1,1.845-1.037c.076-.005.213-.01.356-.01.122,0,.244.005.31.01a2.607,2.607,0,0,1,1.86,1.037A2.156,2.156,0,0,1,64.023,14.77Z" transform="translate(-28.996 -1.967)" fill="#fff" opacity="0.5"/>
      <path id="Trazado_913851" data-name="Trazado 913851" d="M63.958,17.152c-.03.188-.056.376-.081.559-.269,2.053-.864,2.886-2.216,3.09a.457.457,0,0,1-.2,0c-1.326-.183-1.977-1.082-2.236-3.085-.025-.188-.051-.376-.081-.564a5.548,5.548,0,0,1-.1-1.7c.025.213.056.442.1.686.03.188.056.376.081.564.259,2,.91,2.9,2.236,3.085a.457.457,0,0,0,.2,0c1.352-.2,1.946-1.037,2.216-3.09.025-.183.051-.371.081-.559.041-.244.071-.473.1-.686A5.548,5.548,0,0,1,63.958,17.152Z" transform="translate(-29.027 -3.664)" fill="#9fa5aa" opacity="0.5"/>
      <path id="Trazado_913852" data-name="Trazado 913852" d="M108.023,34.989a1.492,1.492,0,0,0-.32-.706,2.63,2.63,0,0,0-2.17-1.047c-.137,0-.279.005-.356.01a2.612,2.612,0,0,0-1.845,1.037,1.492,1.492,0,0,0-.32.706,2.155,2.155,0,0,1,.32-1.723,2.612,2.612,0,0,1,1.845-1.037c.076-.005.219-.01.356-.01a2.63,2.63,0,0,1,2.17,1.047,2.155,2.155,0,0,1,.32,1.723Z" transform="translate(-50.636 -11.911)" fill="#fff" opacity="0.5"/>
      <path id="Trazado_913853" data-name="Trazado 913853" d="M107.958,37.372c-.031.188-.056.376-.081.559-.269,2.053-.864,2.886-2.216,3.09a.547.547,0,0,1-.2,0c-1.326-.188-1.977-1.082-2.236-3.09-.025-.183-.051-.371-.081-.559a5.548,5.548,0,0,1-.1-1.7c.025.213.056.442.1.686.03.188.056.376.081.559.259,2.007.91,2.9,2.236,3.09a.547.547,0,0,0,.2,0c1.352-.2,1.946-1.037,2.216-3.09.025-.183.051-.371.081-.559.041-.244.071-.473.1-.686A5.548,5.548,0,0,1,107.958,37.372Z" transform="translate(-50.668 -13.609)" fill="#9fa5aa" opacity="0.5"/>
      <g id="Grupo_1119211" data-name="Grupo 1119211" transform="translate(7.599 20.307)">
        <path id="Trazado_913854" data-name="Trazado 913854" d="M54.808,63.354l-.02.859a.632.632,0,0,0-.152-.279.583.583,0,0,0-.417-.178.547.547,0,0,0-.422.163.555.555,0,0,0-.183.412L53.33,76.978a1.018,1.018,0,0,1-1.7.732L48.8,75.128a.893.893,0,0,0-.579-.229.876.876,0,0,0-.691.3.291.291,0,0,0-.056.081L47.43,75.2a.891.891,0,0,1,.1-1.016.876.876,0,0,1,.691-.3.893.893,0,0,1,.579.229l2.825,2.581a1.018,1.018,0,0,0,1.7-.732l.285-12.648A.555.555,0,0,1,53.8,62.9a.547.547,0,0,1,.422-.163.583.583,0,0,1,.417.178.618.618,0,0,1,.173.437Z" transform="translate(-30.87 -47.229)" fill="#fff" opacity="0.5"/>
        <path id="Trazado_913855" data-name="Trazado 913855" d="M64.9,73.035l-.02.859a.6.6,0,0,0-.564-.457.59.59,0,0,0-.427.163.616.616,0,0,0-.183.417l-.168,7.419a1.011,1.011,0,0,1-1.016.991h-.02a1.016,1.016,0,0,1-1-1.037l.02-.793a1.017,1.017,0,0,0,.976.813h.02a1.011,1.011,0,0,0,1.016-.991L63.71,73a.616.616,0,0,1,.183-.417.59.59,0,0,1,.427-.163A.6.6,0,0,1,64.9,73.035Z" transform="translate(-37.851 -51.99)" fill="#fff" opacity="0.5"/>
        <path id="Trazado_913856" data-name="Trazado 913856" d="M71.193,78.275l-.02.854a.6.6,0,0,0-.564-.452.59.59,0,0,0-.61.579l-.041,1.834-.066,3a1.022,1.022,0,0,1-1.016,1,.046.046,0,0,1-.025-.005,1.015,1.015,0,0,1-.991-1.037l.015-.645.005-.147a1.016,1.016,0,0,0,.971.813.046.046,0,0,0,.025.005,1.022,1.022,0,0,0,1.016-1l.066-3L70,78.239a.59.59,0,0,1,.61-.579A.6.6,0,0,1,71.193,78.275Z" transform="translate(-40.974 -54.568)" fill="#fff" opacity="0.5"/>
        <path id="Trazado_913857" data-name="Trazado 913857" d="M77.5,82.245l-.02.859a.583.583,0,0,0-.147-.274.6.6,0,0,0-.417-.183.587.587,0,0,0-.422.163.574.574,0,0,0-.183.417l-.051,2.256a0,0,0,0,1,0,0h0l-.01.64a1.031,1.031,0,0,1-1.042,1,1.016,1.016,0,0,1-.991-1.042l.02-.788a1.017,1.017,0,0,0,2.012-.183l.01-.64h0a0,0,0,0,0,0,0l.051-2.256a.574.574,0,0,1,.183-.417.587.587,0,0,1,.422-.163.6.6,0,0,1,.417.183A.61.61,0,0,1,77.5,82.245Z" transform="translate(-44.097 -56.52)" fill="#fff" opacity="0.5"/>
        <path id="Trazado_913858" data-name="Trazado 913858" d="M20.023,34.989a1.492,1.492,0,0,0-.32-.706,2.63,2.63,0,0,0-2.17-1.047c-.142,0-.279.005-.356.01a2.612,2.612,0,0,0-1.845,1.037,1.492,1.492,0,0,0-.32.706,2.155,2.155,0,0,1,.32-1.723,2.612,2.612,0,0,1,1.845-1.037c.076-.005.213-.01.356-.01a2.63,2.63,0,0,1,2.17,1.047,2.155,2.155,0,0,1,.32,1.723Z" transform="translate(-14.954 -32.218)" fill="#fff" opacity="0.5"/>
      </g>
      <path id="Trazado_913859" data-name="Trazado 913859" d="M19.958,37.372c-.03.188-.056.376-.081.559-.264,2.053-.864,2.886-2.216,3.09a.547.547,0,0,1-.2,0c-1.326-.188-1.977-1.082-2.236-3.09-.025-.183-.051-.371-.081-.559a5.548,5.548,0,0,1-.1-1.7c.025.213.056.442.1.686.03.188.056.376.081.559.259,2.007.91,2.9,2.236,3.09a.547.547,0,0,0,.2,0c1.352-.2,1.951-1.037,2.216-3.09.025-.183.051-.371.081-.559.041-.244.071-.473.1-.686A5.548,5.548,0,0,1,19.958,37.372Z" transform="translate(-7.387 -13.609)" fill="#9fa5aa" opacity="0.5"/>
    </g>
  </g>
</svg>
