<svg xmlns="http://www.w3.org/2000/svg" xmlns:xlink="http://www.w3.org/1999/xlink" width="98.033" height="98.033" viewBox="0 0 98.033 98.033">
  <defs>
    <filter id="Trazado_874925" x="0" y="0" width="98.033" height="98.033" filterUnits="userSpaceOnUse">
      <feOffset dy="3" input="SourceAlpha"/>
      <feGaussianBlur stdDeviation="3" result="blur"/>
      <feFlood flood-opacity="0.161"/>
      <feComposite operator="in" in2="blur"/>
      <feComposite in="SourceGraphic"/>
    </filter>
  </defs>
  <g id="Grupo_1118630" data-name="Grupo 1118630" transform="translate(-300.967 -3945)">
    <g id="Grupo_1111552" data-name="Grupo 1111552" transform="translate(309.967 3951)">
      <g id="Grupo_1111316" data-name="Grupo 1111316" transform="translate(0 0)">
        <g id="Grupo_1109835" data-name="Grupo 1109835" transform="translate(0 0)">
          <g id="Grupo_1107913" data-name="Grupo 1107913" transform="translate(0 0)">
            <g transform="matrix(1, 0, 0, 1, -9, -6)" filter="url(#Trazado_874925)">
              <g id="Trazado_874925-2" data-name="Trazado 874925" transform="translate(9 6)" fill="#9cc8ff" opacity="0.859">
                <path d="M 40.01638031005859 78.53309631347656 C 34.81603622436523 78.53309631347656 29.77205848693848 77.51493835449219 25.0245246887207 75.50690460205078 C 20.43820190429688 73.56706237792969 16.31894683837891 70.78968048095703 12.7811918258667 67.25192260742188 C 9.243424415588379 63.71416854858398 6.466046810150146 59.59492492675781 4.526191234588623 55.00860214233398 C 2.518158197402954 50.26109313964844 1.500002503395081 45.21711349487305 1.500002503395081 40.01678085327148 C 1.500002503395081 34.81598281860352 2.518158197402954 29.77200317382812 4.526191234588623 25.02449226379395 C 6.466046810150146 20.43816947937012 9.243424415588379 16.31892585754395 12.7811918258667 12.78117084503174 C 16.31894683837891 9.243414878845215 20.43820190429688 6.466037273406982 25.0245246887207 4.526192665100098 C 29.77205848693848 2.518159151077271 34.81603622436523 1.500003695487976 40.01638031005859 1.500003695487976 C 45.21672439575195 1.500003695487976 50.26071548461914 2.518159151077271 55.00823593139648 4.526192665100098 C 59.59455871582031 6.466037273406982 63.71381378173828 9.243414878845215 67.25157928466797 12.78117084503174 C 70.78933715820312 16.31892585754395 73.56671142578125 20.43816947937012 75.50656890869141 25.02449226379395 C 77.51460266113281 29.77200317382812 78.53276062011719 34.81598281860352 78.53276062011719 40.01631546020508 C 78.53276062011719 45.21711349487305 77.51460266113281 50.26109313964844 75.50656890869141 55.00860214233398 C 73.56671142578125 59.59492492675781 70.78933715820312 63.71416854858398 67.25157928466797 67.25192260742188 C 63.71381378173828 70.78968048095703 59.59455871582031 73.56706237792969 55.00823593139648 75.50690460205078 C 50.26071548461914 77.51493835449219 45.21672439575195 78.53309631347656 40.01638031005859 78.53309631347656 Z" stroke="none"/>
                <path d="M 40.01638031005859 3 C 35.01787185668945 3 30.17048645019531 3.978294372558594 25.60884857177734 5.907691955566406 C 21.20132827758789 7.771919250488281 17.24232864379883 10.44134521484375 13.84185028076172 13.84182739257812 C 10.44135284423828 17.2423095703125 7.77191162109375 21.2012939453125 5.907684326171875 25.60881423950195 C 3.978286743164062 30.17044067382812 2.999992370605469 35.01782989501953 2.999992370605469 40.01677322387695 C 2.999992370605469 45.01526641845703 3.978286743164062 49.86265563964844 5.907684326171875 54.42427062988281 C 7.77191162109375 58.831787109375 10.44135284423828 62.79077529907227 13.84185028076172 66.19126892089844 C 17.24232864379883 69.59175109863281 21.20132827758789 72.26117706298828 25.60884857177734 74.12540435791016 C 30.17048645019531 76.05480194091797 35.01787185668945 77.03309631347656 40.01638031005859 77.03309631347656 C 45.01488876342773 77.03309631347656 49.86227416992188 76.05480194091797 54.42390060424805 74.12540435791016 C 58.83143615722656 72.26117706298828 62.79042053222656 69.59175109863281 66.19091033935547 66.19126892089844 C 69.59139251708984 62.79077529907227 72.26083374023438 58.831787109375 74.12506103515625 54.42427062988281 C 76.05445861816406 49.86265563964844 77.03275299072266 45.01526641845703 77.03275299072266 40.01632308959961 C 77.03275299072266 35.01782989501953 76.05445861816406 30.17044067382812 74.12506103515625 25.60881423950195 C 72.26083374023438 21.2012939453125 69.59139251708984 17.2423095703125 66.19091033935547 13.84182739257812 C 62.79042053222656 10.44134521484375 58.83143615722656 7.771919250488281 54.42391204833984 5.907691955566406 C 49.86227416992188 3.978294372558594 45.01488876342773 3 40.01638031005859 3 M 40.01638031005859 0 C 62.1168212890625 0 80.03275299072266 17.91590881347656 80.03275299072266 40.01632308959961 L 80.03275299072266 40.01677322387695 C 80.03275299072266 62.11717224121094 62.1168212890625 80.03309631347656 40.01638031005859 80.03309631347656 C 17.91593933105469 80.03309631347656 -7.62939453125e-06 62.11717224121094 -7.62939453125e-06 40.01677322387695 L -7.62939453125e-06 40.01632308959961 C -7.62939453125e-06 17.91590881347656 17.91593933105469 0 40.01638031005859 0 Z" stroke="none" fill="#fff"/>
              </g>
            </g>
            <g id="Trazado_874923" data-name="Trazado 874923" fill="none">
              <path d="M40.016,0A40.016,40.016,0,0,1,80.033,40.016h0A40.016,40.016,0,0,1,0,40.017H0A40.016,40.016,0,0,1,40.016,0Z" stroke="none"/>
              <path d="M 40.01638031005859 3 C 35.01787185668945 3 30.17048645019531 3.978294372558594 25.60884857177734 5.907691955566406 C 21.20132827758789 7.771919250488281 17.24232864379883 10.44134521484375 13.84185028076172 13.84182739257812 C 10.44135284423828 17.2423095703125 7.77191162109375 21.2012939453125 5.907684326171875 25.60881423950195 C 3.978286743164062 30.17044067382812 2.999992370605469 35.01782989501953 2.999992370605469 40.01677322387695 C 2.999992370605469 45.01526641845703 3.978286743164062 49.86265563964844 5.907684326171875 54.42427062988281 C 7.77191162109375 58.831787109375 10.44135284423828 62.79077529907227 13.84185028076172 66.19126892089844 C 17.24232864379883 69.59175109863281 21.20132827758789 72.26117706298828 25.60884857177734 74.12540435791016 C 30.17048645019531 76.05480194091797 35.01787185668945 77.03309631347656 40.01638031005859 77.03309631347656 C 45.01488876342773 77.03309631347656 49.86227416992188 76.05480194091797 54.42390060424805 74.12540435791016 C 58.83143615722656 72.26117706298828 62.79042053222656 69.59175109863281 66.19091033935547 66.19126892089844 C 69.59139251708984 62.79077529907227 72.26083374023438 58.831787109375 74.12506103515625 54.42427062988281 C 76.05445861816406 49.86265563964844 77.03275299072266 45.01526641845703 77.03275299072266 40.01632308959961 C 77.03275299072266 35.01782989501953 76.05445861816406 30.17044067382812 74.12506103515625 25.60881423950195 C 72.26083374023438 21.2012939453125 69.59139251708984 17.2423095703125 66.19091033935547 13.84182739257812 C 62.79042053222656 10.44134521484375 58.83143615722656 7.771919250488281 54.42391204833984 5.907691955566406 C 49.86227416992188 3.978294372558594 45.01488876342773 3 40.01638031005859 3 M 40.01638031005859 0 C 62.1168212890625 0 80.03275299072266 17.91590881347656 80.03275299072266 40.01632308959961 L 80.03275299072266 40.01677322387695 C 80.03275299072266 62.11717224121094 62.1168212890625 80.03309631347656 40.01638031005859 80.03309631347656 C 17.91593933105469 80.03309631347656 -7.62939453125e-06 62.11717224121094 -7.62939453125e-06 40.01677322387695 L -7.62939453125e-06 40.01632308959961 C -7.62939453125e-06 17.91590881347656 17.91593933105469 0 40.01638031005859 0 Z" stroke="none" fill="#fff"/>
            </g>
          </g>
        </g>
      </g>
    </g>
    <g id="Grupo_1118629" data-name="Grupo 1118629" transform="translate(319.783 3924.82)">
      <g id="Grupo_1118624" data-name="Grupo 1118624" transform="translate(0.885 46.255)">
        <g id="Grupo_1118623" data-name="Grupo 1118623" transform="translate(0 0)">
          <g id="Grupo_1118622" data-name="Grupo 1118622">
            <g id="Grupo_1118621" data-name="Grupo 1118621">
              <g id="Grupo_1118597" data-name="Grupo 1118597" transform="translate(38.786 21.86)">
                <path id="Trazado_912863" data-name="Trazado 912863" d="M355.989,273.411l-6.419-5.161a.382.382,0,0,0-.621.3v2.631H336.288v5.061h12.661v2.631a.382.382,0,0,0,.621.3l6.419-5.161A.382.382,0,0,0,355.989,273.411Z" transform="translate(-336.288 -268.165)" fill="#8ac9fe"/>
              </g>
              <g id="Grupo_1118600" data-name="Grupo 1118600" transform="translate(38.786 26.097)">
                <g id="Grupo_1118598" data-name="Grupo 1118598" transform="translate(0 1.224)">
                  <path id="Trazado_912864" data-name="Trazado 912864" d="M347.769,314.457H336.288v2.613h12.661v-1.434A1.18,1.18,0,0,0,347.769,314.457Z" transform="translate(-336.288 -314.457)" fill="#60b7ff"/>
                </g>
                <g id="Grupo_1118599" data-name="Grupo 1118599" transform="translate(12.661)">
                  <path id="Trazado_912865" data-name="Trazado 912865" d="M449.4,304.082l-5.164,4.152a.382.382,0,0,1-.621-.3v2.613a.382.382,0,0,0,.621.3l6.419-5.161a.382.382,0,0,0,0-.6Z" transform="translate(-443.611 -304.082)" fill="#60b7ff"/>
                </g>
              </g>
              <g id="Grupo_1118620" data-name="Grupo 1118620">
                <g id="Grupo_1118609" data-name="Grupo 1118609" transform="translate(6.823)">
                  <g id="Grupo_1118601" data-name="Grupo 1118601" transform="translate(0 0)">
                    <path id="Trazado_912866" data-name="Trazado 912866" d="M78.361,98.985a9.413,9.413,0,0,1,1.53-5.152l-7.57-7.57,1.86-1.86a.382.382,0,0,0-.229-.65l-8.189-.89a.382.382,0,0,0-.421.421l.89,8.189a.382.382,0,0,0,.65.229l1.86-1.86,9.619,9.619v-.475Z" transform="translate(-65.34 -82.861)" fill="#8ac9fe"/>
                  </g>
                  <g id="Grupo_1118604" data-name="Grupo 1118604" transform="translate(0 0)">
                    <g id="Grupo_1118602" data-name="Grupo 1118602" transform="translate(5.828 3.402)">
                      <path id="Trazado_912867" data-name="Trazado 912867" d="M115.089,114.171l7.314,7.314a9.458,9.458,0,0,1,1.063-2.22l-7.57-7.57-.807.807A1.18,1.18,0,0,0,115.089,114.171Z" transform="translate(-114.743 -111.696)" fill="#60b7ff"/>
                    </g>
                    <g id="Grupo_1118603" data-name="Grupo 1118603">
                      <path id="Trazado_912868" data-name="Trazado 912868" d="M72.311,85.394a.382.382,0,0,1,.229.65L74.181,84.4a.382.382,0,0,0-.229-.65l-8.189-.89a.382.382,0,0,0-.421.421l.149,1.369Z" transform="translate(-65.34 -82.861)" fill="#60b7ff"/>
                    </g>
                  </g>
                  <g id="Grupo_1118605" data-name="Grupo 1118605" transform="translate(30.433)">
                    <path id="Trazado_912869" data-name="Trazado 912869" d="M337.443,82.863l-8.189.89a.382.382,0,0,0-.229.65l1.86,1.86-7.57,7.57a9.413,9.413,0,0,1,1.53,5.152v.475l9.619-9.619,1.86,1.86a.382.382,0,0,0,.65-.229l.89-8.189A.382.382,0,0,0,337.443,82.863Z" transform="translate(-323.316 -82.861)" fill="#8ac9fe"/>
                  </g>
                  <g id="Grupo_1118608" data-name="Grupo 1118608" transform="translate(31.623 0)">
                    <g id="Grupo_1118606" data-name="Grupo 1118606" transform="translate(10.332)">
                      <path id="Trazado_912870" data-name="Trazado 912870" d="M423.6,82.863l-1.45.158-.745,6.854a.382.382,0,0,1-.41.34l1.487,1.487a.382.382,0,0,0,.65-.229l.89-8.189A.382.382,0,0,0,423.6,82.863Z" transform="translate(-420.991 -82.861)" fill="#60b7ff"/>
                    </g>
                    <g id="Grupo_1118607" data-name="Grupo 1118607" transform="translate(0 5.871)">
                      <path id="Trazado_912871" data-name="Trazado 912871" d="M343.3,133.806l-.828-.828a1.18,1.18,0,0,0-1.668,0l-7.4,7.4a9.425,9.425,0,0,1,.34,2.509v.475Z" transform="translate(-333.408 -132.632)" fill="#60b7ff"/>
                    </g>
                  </g>
                </g>
                <g id="Grupo_1118610" data-name="Grupo 1118610" transform="translate(0 21.86)">
                  <path id="Trazado_912872" data-name="Trazado 912872" d="M27.343,271.177H14.683v-2.631a.382.382,0,0,0-.621-.3l-6.419,5.161a.382.382,0,0,0,0,.6l6.419,5.161a.382.382,0,0,0,.621-.3v-2.631H27.343Z" transform="translate(-7.5 -268.164)" fill="#8ac9fe"/>
                </g>
                <g id="Grupo_1118611" data-name="Grupo 1118611" transform="translate(7.183 27.321)">
                  <path id="Trazado_912873" data-name="Trazado 912873" d="M80.932,314.457H69.569a1.18,1.18,0,0,0-1.18,1.18v1.434H80.932v-2.613Z" transform="translate(-68.389 -314.457)" fill="#60b7ff"/>
                </g>
                <g id="Grupo_1118619" data-name="Grupo 1118619" transform="translate(13.665 8.558)">
                  <g id="Grupo_1118612" data-name="Grupo 1118612" transform="translate(0 25.585)">
                    <path id="Trazado_912874" data-name="Trazado 912874" d="M151.753,374.861l-4.681-2.57a3.285,3.285,0,0,1-1.916.615h-.32v3.483a.275.275,0,0,1-.085.2.286.286,0,0,1-.2.079.274.274,0,0,1-.149-.044l-5.1-3.235a.6.6,0,0,0-.64,0l-5.1,3.235a.275.275,0,0,1-.149.044.281.281,0,0,1-.281-.281v-3.483h-.32a3.285,3.285,0,0,1-1.916-.615l-4.681,2.57a5.564,5.564,0,0,0-2.886,4.877v2.09a1.18,1.18,0,0,0,1.18,1.18h28.94a1.18,1.18,0,0,0,1.18-1.18v-2.09a5.565,5.565,0,0,0-2.886-4.877Z" transform="translate(-123.34 -372.291)" fill="#00f2a6"/>
                  </g>
                  <g id="Grupo_1118614" data-name="Grupo 1118614" transform="translate(21.496 25.586)">
                    <g id="Grupo_1118613" data-name="Grupo 1118613">
                      <path id="Trazado_912875" data-name="Trazado 912875" d="M312.48,374.862l-4.681-2.57a3.285,3.285,0,0,1-1.916.615h-.32v.511l2.63,1.444a5.564,5.564,0,0,1,2.886,4.877v2.09a1.18,1.18,0,0,1-1.18,1.18h4.287a1.18,1.18,0,0,0,1.18-1.18v-2.09A5.565,5.565,0,0,0,312.48,374.862Z" transform="translate(-305.563 -372.292)" fill="#05e39c"/>
                    </g>
                  </g>
                  <path id="Trazado_912876" data-name="Trazado 912876" d="M190.189,155.406a7.662,7.662,0,0,1-11.776,0,9.57,9.57,0,0,0-3.7,7.566V178.3a3.423,3.423,0,0,0,3.423,3.423h.183V179.5a.973.973,0,0,1,.486-.842l2.659-1.535v-.794a6.542,6.542,0,0,0,5.677,0v.794l2.659,1.535a.973.973,0,0,1,.486.842v2.224h.183a3.423,3.423,0,0,0,3.423-3.423V162.972A9.57,9.57,0,0,0,190.189,155.406Z" transform="translate(-168.652 -155.406)" fill="#596c76"/>
                  <path id="Trazado_912877" data-name="Trazado 912877" d="M289.5,155.406a7.7,7.7,0,0,1-2.195,1.811,9.537,9.537,0,0,1,1.9,5.184,2.3,2.3,0,0,1,1.107,1.967v6.062a6.668,6.668,0,0,1-1.089,3.66V178.3a3.46,3.46,0,0,1-.026.416.972.972,0,0,1,.4.783v2.224h.183A3.423,3.423,0,0,0,293.2,178.3V162.972A9.57,9.57,0,0,0,289.5,155.406Z" transform="translate(-267.963 -155.406)" fill="#465a61"/>
                  <path id="Trazado_912878" data-name="Trazado 912878" d="M216.757,341.032,214.1,339.5v1.42a2.3,2.3,0,0,1-.8,1.741l-2.042,1.766-2.042-1.766a2.3,2.3,0,0,1-.8-1.741V339.5l-2.659,1.535a.973.973,0,0,0-.486.842v5.589a.417.417,0,0,0,.64.352l5.1-3.235a.46.46,0,0,1,.493,0l5.1,3.235a.417.417,0,0,0,.64-.352v-5.589A.973.973,0,0,0,216.757,341.032Z" transform="translate(-195.61 -317.78)" fill="#05e39c"/>
                  <path id="Trazado_912879" data-name="Trazado 912879" d="M282.489,341.032,279.83,339.5v1.42a2.3,2.3,0,0,1-.031.375.972.972,0,0,1,.194.582v4.455l2.342,1.486a.417.417,0,0,0,.64-.352v-5.589A.973.973,0,0,0,282.489,341.032Z" transform="translate(-261.342 -317.78)" fill="#0ed290"/>
                  <g id="Grupo_1118615" data-name="Grupo 1118615" transform="translate(12.811 20.923)">
                    <path id="Trazado_912880" data-name="Trazado 912880" d="M234.777,333.415a6.509,6.509,0,0,1-2.838-.648v2.214a2.3,2.3,0,0,0,.8,1.741l2.042,1.766,2.042-1.766a2.3,2.3,0,0,0,.8-1.741v-2.214A6.509,6.509,0,0,1,234.777,333.415Z" transform="translate(-231.939 -332.767)" fill="#f89580"/>
                  </g>
                  <g id="Grupo_1118616" data-name="Grupo 1118616" transform="translate(5.063 10.19)">
                    <path id="Trazado_912881" data-name="Trazado 912881" d="M170.145,246.616v-4.834H168.56a2.3,2.3,0,0,0-2.3,2.3v.929a2.3,2.3,0,0,0,2.3,2.3h1.621A6.731,6.731,0,0,1,170.145,246.616Z" transform="translate(-166.259 -241.782)" fill="#f89580"/>
                    <path id="Trazado_912882" data-name="Trazado 912882" d="M314.116,241.782h-1.584v4.834a6.765,6.765,0,0,1-.036.7h1.621a2.3,2.3,0,0,0,2.3-2.3v-.929A2.3,2.3,0,0,0,314.116,241.782Z" transform="translate(-295.244 -241.782)" fill="#f89580"/>
                  </g>
                  <g id="Grupo_1118617" data-name="Grupo 1118617" transform="translate(8.949 6.66)">
                    <path id="Trazado_912883" data-name="Trazado 912883" d="M200.454,213.623a1.534,1.534,0,0,0-1.258,1.509v5.089a6.7,6.7,0,1,0,13.4,0V214.16a2.3,2.3,0,0,0-2.716-2.264Z" transform="translate(-199.196 -211.858)" fill="#ffcebf"/>
                  </g>
                  <g id="Grupo_1118618" data-name="Grupo 1118618" transform="translate(14.163 6.66)">
                    <path id="Trazado_912884" data-name="Trazado 912884" d="M248.873,211.9l-1.425.261a2.3,2.3,0,0,1,1.169,2v6.062a6.7,6.7,0,0,1-5.215,6.534,6.7,6.7,0,0,0,8.187-6.534v-6.062A2.3,2.3,0,0,0,248.873,211.9Z" transform="translate(-243.402 -211.859)" fill="#ffb09e"/>
                  </g>
                </g>
              </g>
            </g>
          </g>
        </g>
      </g>
      <g id="Grupo_1118627" data-name="Grupo 1118627" transform="translate(22.536 42.244)">
        <g id="Grupo_1118625" data-name="Grupo 1118625" transform="translate(0 0)">
          <circle id="Elipse_11823" data-name="Elipse 11823" cx="7.664" cy="7.664" r="7.664" fill="#ffd15b"/>
        </g>
        <g id="Grupo_1118626" data-name="Grupo 1118626" transform="translate(5.955 0)">
          <path id="Trazado_912885" data-name="Trazado 912885" d="M243.226,48.861a7.677,7.677,0,0,0-1.709.194,7.663,7.663,0,0,1,0,14.941,7.664,7.664,0,1,0,1.709-15.134Z" transform="translate(-241.517 -48.861)" fill="#ffc344"/>
        </g>
      </g>
      <g id="Grupo_1118628" data-name="Grupo 1118628" transform="translate(0 41.359)">
        <path id="Trazado_912886" data-name="Trazado 912886" d="M59.927,72.672,53.507,67.51a1.267,1.267,0,0,0-2.06.987v1.746H48.485a.885.885,0,0,0,0,1.77h3.847a.885.885,0,0,0,.885-.885V69.547l5.114,4.111L53.217,77.77V76.189a.885.885,0,0,0-.885-.885H40.674V72.013h3.682a.885.885,0,0,0,0-1.77h-3.4a3.168,3.168,0,0,0,.718-2.01V67.3a3.177,3.177,0,0,0-1-2.312V63.1l8.616-8.616,1.235,1.235a1.266,1.266,0,0,0,2.155-.759l.89-8.189a1.267,1.267,0,0,0-1.4-1.4l-8.189.89a1.267,1.267,0,0,0-.759,2.155l1.235,1.235-6.129,6.129a10.58,10.58,0,0,0-1.04-1.108A8.546,8.546,0,0,0,25.662,42.664a.885.885,0,0,0,.941,1.5,6.779,6.779,0,1,1-2.462,2.705.885.885,0,1,0-1.581-.795,8.538,8.538,0,0,0,.549,8.6,10.579,10.579,0,0,0-1.04,1.108L15.94,49.656l1.235-1.235a1.267,1.267,0,0,0-.759-2.155l-8.188-.89a1.267,1.267,0,0,0-1.4,1.4l.89,8.189a1.266,1.266,0,0,0,2.155.759l1.235-1.235L19.726,63.1v1.889a3.177,3.177,0,0,0-1,2.312v.929a3.168,3.168,0,0,0,.718,2.01H8.953V68.5a1.267,1.267,0,0,0-2.06-.987L.473,72.672a1.267,1.267,0,0,0,0,1.974l6.419,5.161a1.267,1.267,0,0,0,2.06-.987V77.074H19.726v.634a4.282,4.282,0,0,0,.83,2.538L17.01,82.193a6.448,6.448,0,0,0-3.345,5.653v2.09A2.067,2.067,0,0,0,15.73,92h4.089a.885.885,0,1,0,0-1.77H15.73a.3.3,0,0,1-.295-.295v-2.09a4.679,4.679,0,0,1,2.427-4.1l4.11-2.256a4.274,4.274,0,0,0,1.36.47V84.5a1.3,1.3,0,0,0,2,1.1l3.984-2.529v7.164H23.947a.885.885,0,1,0,0,1.77H44.67a2.067,2.067,0,0,0,2.064-2.064v-2.09a6.448,6.448,0,0,0-3.345-5.653l-3.546-1.947a4.282,4.282,0,0,0,.83-2.538v-.634H51.447V78.82a1.257,1.257,0,0,0,.719,1.142,1.257,1.257,0,0,0,1.341-.155l6.419-5.161a1.267,1.267,0,0,0,0-1.974ZM36.14,77.3l-1.859-1.073a7.609,7.609,0,0,0,3.337-4.806h.867a3.2,3.2,0,0,0,.419-.028v6.317a2.541,2.541,0,0,1-1.836,2.437V78.907A1.864,1.864,0,0,0,36.14,77.3Zm-2.22.762,1.335.771a.088.088,0,0,1,.044.076v4.738l-3.62-2.3,1.142-.988a3.183,3.183,0,0,0,1.1-2.3ZM30.2,75.652a5.823,5.823,0,0,1-5.816-5.816V64.747a.649.649,0,0,1,.533-.639l9.428-1.727a1.417,1.417,0,0,1,1.672,1.393v6.062A5.823,5.823,0,0,1,30.2,75.652Zm8.285-6h-.7V65.887h.7A1.418,1.418,0,0,1,39.9,67.3v.929A1.418,1.418,0,0,1,38.485,69.65Zm7.852-19.368a.885.885,0,0,0,0-1.251l-1.118-1.118,6.523-.709-.709,6.523L49.915,52.61a.885.885,0,0,0-1.251,0l-8.12,8.12a10.394,10.394,0,0,0-1.2-3.454ZM21.5,62.379a8.678,8.678,0,0,1,2.753-6.343,8.527,8.527,0,0,0,11.9,0A8.678,8.678,0,0,1,38.9,62.379v1.767a3.2,3.2,0,0,0-.419-.028h-.7v-.343a3.186,3.186,0,0,0-3.76-3.134L24.6,62.367a2.419,2.419,0,0,0-1.9,1.75h-.783a3.194,3.194,0,0,0-.419.028V62.379Zm-9.76-9.769a.885.885,0,0,0-1.251,0L9.366,53.727,8.658,47.2l6.523.709-1.118,1.118a.885.885,0,0,0,0,1.251l6.994,6.994a10.4,10.4,0,0,0-1.2,3.455ZM8.068,75.3a.885.885,0,0,0-.885.885V77.77L2.069,73.658l5.114-4.112v1.581a.885.885,0,0,0,.885.885H19.726V75.3ZM20.5,68.233V67.3a1.418,1.418,0,0,1,1.417-1.417h.7V69.65h-.7A1.418,1.418,0,0,1,20.5,68.233ZM24.26,77.3a1.863,1.863,0,0,0-.929,1.609v1.238A2.541,2.541,0,0,1,21.5,77.708V71.391a3.193,3.193,0,0,0,.419.028h.867a7.608,7.608,0,0,0,3.337,4.806Zm.841,6.347V78.907a.088.088,0,0,1,.044-.076l1.335-.771a3.184,3.184,0,0,0,1.1,2.3l1.142.988Zm3.635-4.624a1.415,1.415,0,0,1-.49-1.072v-.78l0,0a7.575,7.575,0,0,0,3.9,0v.784a1.416,1.416,0,0,1-.49,1.072L30.2,80.287Zm13.8,4.723a4.679,4.679,0,0,1,2.427,4.1v2.09a.3.3,0,0,1-.295.295H31.085V83.066L35.069,85.6a1.3,1.3,0,0,0,2-1.1V81.958a4.272,4.272,0,0,0,1.36-.47Z" transform="translate(0 -41.359)"/>
        <path id="Trazado_912887" data-name="Trazado 912887" d="M225.27,242.266v-1.357a.885.885,0,0,0-1.77,0v1.357a.885.885,0,1,0,1.77,0Z" transform="translate(-197.134 -216.588)"/>
        <path id="Trazado_912888" data-name="Trazado 912888" d="M274.385,240.023a.885.885,0,0,0-.885.885v1.357a.885.885,0,0,0,1.77,0v-1.357A.885.885,0,0,0,274.385,240.023Z" transform="translate(-241.236 -216.587)"/>
        <path id="Trazado_912889" data-name="Trazado 912889" d="M235.659,289.639h0a.885.885,0,0,0-.882.887.741.741,0,0,1-.26.476,1.355,1.355,0,0,1-.944.388h-.06a1.352,1.352,0,0,1-.944-.388.741.741,0,0,1-.26-.476.885.885,0,0,0-.882-.887h0a.885.885,0,0,0-.885.882,2.448,2.448,0,0,0,.8,1.751,3.146,3.146,0,0,0,2.144.888h.062a3.134,3.134,0,0,0,2.206-.887,2.449,2.449,0,0,0,.8-1.751A.885.885,0,0,0,235.659,289.639Z" transform="translate(-203.34 -260.35)"/>
        <path id="Trazado_912890" data-name="Trazado 912890" d="M242.77,262.678a1.978,1.978,0,0,1,.885-2.654.885.885,0,0,0-.885-.885,1.77,1.77,0,1,0,0,3.539Z" transform="translate(-212.57 -233.448)"/>
        <path id="Trazado_912891" data-name="Trazado 912891" d="M230.3,69.8a.885.885,0,0,0-.885.885v.8h-.339a2.216,2.216,0,0,0-2.213,2.213v.04a2.215,2.215,0,0,0,2.213,2.213h2.45a.441.441,0,1,1,0,.882h-3.141a.885.885,0,1,0,0,1.77h1.03v.7a.885.885,0,1,0,1.77,0v-.7h.342a2.211,2.211,0,1,0,0-4.421h-2.45a.444.444,0,0,1-.443-.443v-.04a.444.444,0,0,1,.443-.444h3.139a.885.885,0,1,0,0-1.77h-1.03v-.8A.885.885,0,0,0,230.3,69.8Z" transform="translate(-200.103 -66.444)"/>
      </g>
    </g>
  </g>
</svg>
