<svg xmlns="http://www.w3.org/2000/svg" xmlns:xlink="http://www.w3.org/1999/xlink" width="99" height="99" viewBox="0 0 99 99">
  <defs>
    <clipPath id="clip-path">
      <circle id="Elipse_11882" data-name="Elipse 11882" cx="49.5" cy="49.5" r="49.5" transform="translate(206.051 1530)" fill="#fc0"/>
    </clipPath>
  </defs>
  <g id="Grupo_1119503" data-name="Grupo 1119503" transform="translate(-206.051 -1530)">
    <circle id="Elipse_11825" data-name="Elipse 11825" cx="49.5" cy="49.5" r="49.5" transform="translate(206.051 1530)" fill="#fc0"/>
    <g id="Enmascarar_grupo_1098790" data-name="Enmascarar grupo 1098790" clip-path="url(#clip-path)">
      <g id="Grupo_1119502" data-name="Grupo 1119502" transform="translate(192.116 1518.15)">
        <path id="Trazado_917436" data-name="Trazado 917436" d="M92,28.429a4.544,4.544,0,0,1,.5.028,5.329,5.329,0,0,1,7.444-7.032q-.006-.122-.006-.245A5.328,5.328,0,1,1,110.2,23.2a5.329,5.329,0,0,1,3.411,9.949,5.328,5.328,0,0,1-7.457,7.6,5.331,5.331,0,0,1-6.574-1.325,5.329,5.329,0,0,1-9.363-2.37A4.5,4.5,0,0,1,92,28.429Zm-51.585,0a4.544,4.544,0,0,0-.5.028,5.329,5.329,0,0,0-7.444-7.032c0-.081.006-.163.006-.245A5.328,5.328,0,1,0,22.22,23.2a5.329,5.329,0,0,0-3.411,9.949,5.328,5.328,0,0,0,7.457,7.6,5.331,5.331,0,0,0,6.574-1.325,5.329,5.329,0,0,0,9.363-2.37,4.5,4.5,0,0,0-1.783-8.624Z" transform="translate(-4.746 -4.744)" fill="#9fd3ba" fill-rule="evenodd"/>
        <path id="Trazado_917437" data-name="Trazado 917437" d="M16,108.821v75.947H56.376l-4.184-66.534c-.483-7.681-15.175-10.369-35.141-10.459A1.046,1.046,0,0,0,16,108.821Z" transform="translate(-4.746 -77.435)" fill="#9facba" fill-rule="evenodd"/>
        <path id="Trazado_917438" data-name="Trazado 917438" d="M343.388,108.821v75.947H303.012l4.184-66.534c.483-7.681,15.175-10.369,35.141-10.459a1.046,1.046,0,0,1,1.051,1.046Z" transform="translate(-231.71 -77.435)" fill="#9facba" fill-rule="evenodd"/>
        <path id="Trazado_917439" data-name="Trazado 917439" d="M116.424,398.1v14.081a2.1,2.1,0,0,1-2.092,2.092H18.092A2.1,2.1,0,0,1,16,412.184V398.1c12.945-4.376,30.664-7.076,50.212-7.076S103.479,393.727,116.424,398.1Z" transform="translate(-4.746 -301.427)" fill="#6bd9e7" fill-rule="evenodd"/>
        <path id="Trazado_917440" data-name="Trazado 917440" d="M188.988,157.764h28.04v59.1h-28.04Z" transform="translate(-141.542 -116.965)" fill="#a6e7f0" fill-rule="evenodd"/>
        <path id="Trazado_917441" data-name="Trazado 917441" d="M189.08,419.252a5.489,5.489,0,0,1,4.157,1.9,4,4,0,1,1,.623,6.329,5.5,5.5,0,0,1-8.991.816,5.5,5.5,0,0,1-10.152,0,5.5,5.5,0,0,1-8.991-.816,4,4,0,1,1,.623-6.329,5.5,5.5,0,0,1,9.233,1.478,5.5,5.5,0,0,1,8.421,0A5.5,5.5,0,0,1,189.08,419.252Z" transform="translate(-118.326 -323.746)" fill="#d4f2f6" fill-rule="evenodd"/>
        <path id="Trazado_917442" data-name="Trazado 917442" d="M100.814,40.722a1.26,1.26,0,0,1-2.519,0V38.949a1.26,1.26,0,0,1,2.519,0Zm0,5.788V57.879a1.26,1.26,0,0,1-2.519,0V46.51a1.26,1.26,0,0,1,2.519,0ZM17.788,78.359V66.989a1.255,1.255,0,1,1,2.51,0V78.359a1.255,1.255,0,1,1-2.51,0Zm0,5.789a1.255,1.255,0,1,1,2.51,0V85.92a1.255,1.255,0,1,1-2.51,0Zm12.086,27.993a1.238,1.238,0,0,1-1.093.647,1.219,1.219,0,0,1-.61-.159c-4.262-2.366-9.33-6.379-9.291-12.058a1.255,1.255,0,1,1,2.51.016c-.029,4.685,5,8.181,8,9.851A1.257,1.257,0,0,1,29.874,112.141ZM50.1,111.8a1.263,1.263,0,0,1-1.5.965c-10.265-2.207-16.643-6.854-16.643-12.128a7,7,0,0,1,.925-3.444A1.254,1.254,0,0,1,35.08,98.4a4.623,4.623,0,0,0-.61,2.228c0,3.96,5.757,7.758,14.664,9.673A1.261,1.261,0,0,1,50.1,111.8ZM90.048,97.188a7,7,0,0,1,.925,3.444c0,5.274-6.378,9.921-16.643,12.128a1.288,1.288,0,0,1-.266.028A1.256,1.256,0,0,1,73.8,110.3c8.907-1.914,14.664-5.712,14.664-9.673a4.623,4.623,0,0,0-.61-2.228,1.254,1.254,0,0,1,2.195-1.216Zm14,3.382c.039,5.68-5.029,9.692-9.291,12.058a1.219,1.219,0,0,1-.61.159,1.256,1.256,0,0,1-.61-2.351c3-1.67,8.031-5.166,8-9.851a1.255,1.255,0,1,1,2.51-.015ZM69.921,57.956V59.73a1.26,1.26,0,0,1-2.519,0V57.956a1.26,1.26,0,0,1,2.519,0ZM53.436,76.574v1.774a1.255,1.255,0,1,1-2.51,0V76.574a1.255,1.255,0,1,1,2.51,0Zm9.291-13.512V81.819a1.26,1.26,0,0,1-2.519,0V63.062a1.26,1.26,0,0,1,2.519,0ZM87.262,24.94a3.046,3.046,0,0,1,.354.021,1.254,1.254,0,0,0,1.26-1.824,3.961,3.961,0,0,1-.453-1.866,4.074,4.074,0,0,1,6.141-3.509,1.255,1.255,0,0,0,1.89-1.138v-.188a4.07,4.07,0,1,1,7.844,1.54,1.242,1.242,0,0,0,.177,1.26,1.258,1.258,0,0,0,1.191.454,4.074,4.074,0,0,1,2.608,7.606,1.24,1.24,0,0,0-.64.907,1.205,1.205,0,0,0,.207.913c-9.035.156-16.3.879-21.662,2.155a1.222,1.222,0,0,0-.207-.115,3.24,3.24,0,0,1,1.29-6.216Zm-6.889,75.391a2.746,2.746,0,0,0-2.746-2.741,2.717,2.717,0,0,0-1.86.732,1.255,1.255,0,0,1-.925.336,1.282,1.282,0,0,1-.886-.431,4.246,4.246,0,0,0-7.126,1.141,1.25,1.25,0,0,1-.964.755,1.264,1.264,0,0,1-1.152-.432,4.239,4.239,0,0,0-6.5,0,1.264,1.264,0,0,1-1.152.432,1.281,1.281,0,0,1-.974-.755,4.246,4.246,0,0,0-7.126-1.141,1.241,1.241,0,0,1-.876.431,1.263,1.263,0,0,1-.925-.336,2.741,2.741,0,1,0-.423,4.343,1.247,1.247,0,0,1,1.742.446,4.254,4.254,0,0,0,6.949.63,1.24,1.24,0,0,1,.955-.448,1.206,1.206,0,0,1,.187.015,1.265,1.265,0,0,1,.974.756,4.247,4.247,0,0,0,7.834,0,1.265,1.265,0,0,1,.974-.756,1.247,1.247,0,0,1,1.142.433,4.254,4.254,0,0,0,6.949-.63,1.247,1.247,0,0,1,1.742-.446,2.743,2.743,0,0,0,4.183-2.335Zm-8.366-5.96a6.76,6.76,0,0,1,2.224.847V42.054H69.921V52.167a1.26,1.26,0,0,1-2.519,0V42.054H55.522V57.2a1.255,1.255,0,1,1-2.51,0V42.054H48.7V95.218a6.678,6.678,0,0,1,2.224-.847V84.137a1.255,1.255,0,1,1,2.51,0V94.37a6.751,6.751,0,0,1,4.124,2.542,6.745,6.745,0,0,1,7.814,0A6.753,6.753,0,0,1,69.5,94.37V91.686a1.255,1.255,0,1,1,2.51,0v2.685ZM15.3,28.2a1.239,1.239,0,0,0-.64-.907,4.074,4.074,0,0,1,2.608-7.606,1.257,1.257,0,0,0,1.191-.454,1.242,1.242,0,0,0,.177-1.26,4.073,4.073,0,1,1,7.844-1.54v.188a1.251,1.251,0,0,0,1.89,1.138A4.074,4.074,0,0,1,34.51,21.27a3.961,3.961,0,0,1-.453,1.866,1.254,1.254,0,0,0,1.26,1.824,3.047,3.047,0,0,1,.354-.021,3.24,3.24,0,0,1,1.289,6.216,1.245,1.245,0,0,0-.207.115c-5.364-1.276-12.637-2-21.662-2.155A1.205,1.205,0,0,0,15.3,28.2Zm97.632,2.135a1.253,1.253,0,0,0-1.25-1.255l-.817,0c-.069-.134-.138-.265-.217-.393a6.585,6.585,0,0,0-3.573-11.53c.02-.24.039-.482.039-.725a6.588,6.588,0,0,0-12.991-1.545,6.583,6.583,0,0,0-8.208,6.379,6.292,6.292,0,0,0,.128,1.289,5.745,5.745,0,0,0-2.952,9.578c-5.216,1.719-8.149,4.2-8.74,7.405H48.583c-.59-3.2-3.523-5.686-8.74-7.405a5.745,5.745,0,0,0-2.952-9.578,6.307,6.307,0,0,0,.128-1.289,6.591,6.591,0,0,0-6.584-6.583,6.516,6.516,0,0,0-1.624.2A6.588,6.588,0,0,0,15.82,16.436c0,.243.02.485.039.725a6.591,6.591,0,0,0-3.582,11.53c-.069.128-.147.259-.207.393l-.817,0a1.255,1.255,0,0,0,0,2.511c22.528,0,34.939,3.269,34.939,9.205V88.905c-4.124.308-8.139.736-12.007,1.283V62.793a9.432,9.432,0,0,0-8.159-9.331V38.881a1.255,1.255,0,1,0-2.51,0V54.634a1.253,1.253,0,0,0,1.25,1.255,6.915,6.915,0,0,1,6.909,6.9V90.561A126.967,126.967,0,0,0,10.85,95.488a1.256,1.256,0,0,0,.4,2.446,1.283,1.283,0,0,0,.4-.067c9.586-3.241,21.5-5.463,34.535-6.445v3.735a5.252,5.252,0,1,0,.777,10.156,6.761,6.761,0,0,0,9.124,1.207,6.756,6.756,0,0,0,10.747,0,6.761,6.761,0,0,0,9.124-1.207,5.255,5.255,0,1,0,.777-10.156V91.422c13.031.981,24.949,3.2,34.535,6.445a1.237,1.237,0,0,0,.4.067,1.256,1.256,0,0,0,.4-2.446,115.421,115.421,0,0,0-13.031-3.5v-4.49a9.432,9.432,0,0,0-8.159-9.331V63.58a1.255,1.255,0,1,0-2.51,0V79.334a1.253,1.253,0,0,0,1.25,1.255,6.915,6.915,0,0,1,6.909,6.9v3.984a174.4,174.4,0,0,0-19.8-2.572V40.8c0-5.936,12.411-9.205,34.939-9.205a1.254,1.254,0,0,0,1.249-1.256Z" transform="translate(0 0)" fill-rule="evenodd"/>
      </g>
    </g>
  </g>
</svg>
