<svg id="Grupo_1119176" data-name="Grupo 1119176" xmlns="http://www.w3.org/2000/svg" xmlns:xlink="http://www.w3.org/1999/xlink" width="295" height="357" viewBox="0 0 295 357">
  <defs>
    <clipPath id="clip-path">
      <rect id="Rect치ngulo_405100" data-name="Rect치ngulo 405100" width="295" height="357" rx="8" fill="#12263f"/>
    </clipPath>
  </defs>
  <rect id="Rect치ngulo_404670" data-name="Rect치ngulo 404670" width="295" height="357" rx="8" fill="#12263f"/>
  <g id="Enmascarar_grupo_1098776" data-name="Enmascarar grupo 1098776" clip-path="url(#clip-path)">
    <g id="Grupo_1117840" data-name="Grupo 1117840" transform="translate(54 11.489)">
      <ellipse id="Elipse_11765" data-name="Elipse 11765" cx="68.323" cy="9.895" rx="68.323" ry="9.895" transform="translate(3.681 471.231)" fill="#b25f14"/>
      <g id="Grupo_1117839" data-name="Grupo 1117839">
        <path id="Trazado_909181" data-name="Trazado 909181" d="M586.677,153.637a4.939,4.939,0,0,0,.523.271A3.7,3.7,0,0,1,586.677,153.637Z" transform="translate(-491.903 -81.792)" fill="#adadad"/>
        <path id="Trazado_909182" data-name="Trazado 909182" d="M585.032,152.422c.2.2.4.38.616.56C585.431,152.8,585.231,152.621,585.032,152.422Z" transform="translate(-493.026 -82.621)" fill="#adadad"/>
        <path id="Trazado_909183" data-name="Trazado 909183" d="M584.075,151.261a5.886,5.886,0,0,0,.471.651A7.173,7.173,0,0,1,584.075,151.261Z" transform="translate(-493.679 -83.414)" fill="#adadad"/>
        <path id="Trazado_909184" data-name="Trazado 909184" d="M583.785,150.788c.126.236.271.471.416.688C584.056,151.259,583.911,151.024,583.785,150.788Z" transform="translate(-493.877 -83.736)" fill="#adadad"/>
        <g id="Grupo_1117825" data-name="Grupo 1117825" transform="translate(0 238.378)">
          <g id="Grupo_1117821" data-name="Grupo 1117821" transform="translate(5.237)">
            <g id="Grupo_1117819" data-name="Grupo 1117819" transform="translate(95.414 68.092)">
              <path id="Trazado_909185" data-name="Trazado 909185" d="M626.815,302.81l-.841,7.336-5.1,44.94-.252,2.221-.286,2.574c-10.836,2.995-18.844,1.935-23.539.252-3.348-1.161-4.913-1.548-4.913-1.548-.269-1.3-.488-4.358-.69-6.495-.084-.909-.152-1.884-.236-2.911-.875-12.939-.841-34.677-.74-46.959.05-5.283.118-8.816.118-9.136A98.663,98.663,0,0,0,626.815,302.81Z" transform="translate(-590.17 -293.085)" fill="#96a19b"/>
              <path id="Trazado_909186" data-name="Trazado 909186" d="M626.795,302.81l-.841,7.336c-6.394,1.447-14.806-.034-19.551-1.094-4.341-.959-11.475-3.331-16.2-6.831.05-5.283.118-8.816.118-9.136A98.663,98.663,0,0,0,626.795,302.81Z" transform="translate(-590.149 -293.085)" fill="#79827d"/>
              <path id="Trazado_909187" data-name="Trazado 909187" d="M620.3,334.552l-.286,2.574c-10.836,2.995-18.844,1.935-23.539.252-3.348-1.161-4.913-1.548-4.913-1.548-.269-1.3-.488-4.358-.69-6.495-.084-.908-.151-1.884-.235-2.911a35.955,35.955,0,0,0,8.581,5.535c4.778,2.154,9.658,2.776,14.857,3.029a30.5,30.5,0,0,0,3.92.017C618.7,334.939,619.512,334.669,620.3,334.552Z" transform="translate(-589.849 -270.329)" fill="#79827d"/>
            </g>
            <g id="Grupo_1117820" data-name="Grupo 1117820">
              <path id="Trazado_909188" data-name="Trazado 909188" d="M559.034,333.965l-.437-6.057-2.625-35.838-2.894-39.455c-1.06.421-37.049,14.705-8.85,85.355.488,1.262,1.026,2.541,1.565,3.836l13.713-1.4Zm10.583-37.419a8.259,8.259,0,0,1,5.2-7.672l9.977-3.954a70.121,70.121,0,0,0-21.839-20.729l.942,18.962.673,13.645,2.1,42.871,11.407-1.195-8.295-40.246A9.514,9.514,0,0,1,569.617,296.546Z" transform="translate(-533.461 -252.615)" fill="#96a19b"/>
              <path id="Trazado_909189" data-name="Trazado 909189" d="M557.439,289.724l8.295,40.246-11.408,1.195-2.1-42.871-.673-13.645a114.2,114.2,0,0,1,11.324-9.574,68.218,68.218,0,0,1,9.573,11.34l-9.977,3.954a8.259,8.259,0,0,0-5.2,7.672A9.524,9.524,0,0,0,557.439,289.724Z" transform="translate(-521.115 -244.111)" fill="#79827d"/>
              <path id="Trazado_909190" data-name="Trazado 909190" d="M555.137,307.409l-13.713,1.4c-.538-1.3-1.077-2.574-1.565-3.836a55.482,55.482,0,0,1,5.788-2.019c2.844-.639,5.721-1.228,8.564-1.868a2.973,2.973,0,0,0,.454-.118Z" transform="translate(-529.094 -219.615)" fill="#79827d"/>
            </g>
          </g>
          <g id="Grupo_1117824" data-name="Grupo 1117824" transform="translate(0 85.859)">
            <g id="Grupo_1117822" data-name="Grupo 1117822" transform="translate(0)">
              <path id="Trazado_909191" data-name="Trazado 909191" d="M566.054,353.015c-16.8,8.482-27.508,8.248-32.012,7.506a4.027,4.027,0,0,1-3.183-2.623s-2.894,6.367,5.1,7.47a60.655,60.655,0,0,0,12.969-1.484,53,53,0,0,0,14.956-5.569,41.371,41.371,0,0,0,3.617-2.334l-.254-3.491C566.85,352.654,566.435,352.817,566.054,353.015Zm17.778-5.281a3.064,3.064,0,0,1-2.313,1.718c-2.732.417-6.15,1.1-8.953,1.736l.234,4.794s3,.252,6.656.252c1.05,0,2.171-.017,3.274-.072a3.123,3.123,0,0,0,2.966-3.182A8.689,8.689,0,0,0,583.832,347.734Z" transform="translate(-530.349 -273.553)" fill="#bf7a00"/>
              <path id="Trazado_909192" data-name="Trazado 909192" d="M583.918,375.691l-3.651-13.225a33.9,33.9,0,0,1-.673-4.509,35.551,35.551,0,0,1-.168-4.021l.673-50.291-11.407,1.195,2.911,58.939.858,17.5c2.81-.622,6.225-1.312,8.951-1.733a3.065,3.065,0,0,0,2.507-3.853ZM566.1,368.254l-4.576-62.674-13.713,1.4,5.6,55.725a14.358,14.358,0,0,1-8.177,14.436l-12.4,5.8a4.054,4.054,0,0,0,1.094,7.672c3.836.622,12.182.892,24.952-4.29,2.221-.892,4.576-1.952,7.067-3.214a10.7,10.7,0,0,1,1.195-.522Z" transform="translate(-530.243 -303.645)" fill="#f6c600"/>
              <path id="Trazado_909193" data-name="Trazado 909193" d="M557.365,342.045l1.043,14.335a10.681,10.681,0,0,0-1.194.522c-2.49,1.262-4.846,2.322-7.067,3.214l-.706.2c-3.4.993-7.117,1.8-5.905-2.776,1.009-3.836,3.752-6.259,6.764-9.052Q553.806,345.233,557.365,342.045Z" transform="translate(-521.508 -277.436)" fill="#ed9e00"/>
              <path id="Trazado_909194" data-name="Trazado 909194" d="M567.061,355.8a3.1,3.1,0,0,1-2.322,1.716c-2.726.421-6.141,1.11-8.951,1.733l-.858-17.5c1.784-1.211,3.634-2.339,5.317-3.617.353-.286,1.582-1.329,2.675-2.2a33.9,33.9,0,0,0,.673,4.509l3.651,13.225A3.093,3.093,0,0,1,567.061,355.8Z" transform="translate(-513.571 -281.613)" fill="#ed9e00"/>
            </g>
            <g id="Grupo_1117823" data-name="Grupo 1117823" transform="translate(94.877 46.455)">
              <path id="Trazado_909195" data-name="Trazado 909195" d="M610.852,417.131c-.017.269-.017.522-.017.774a47.2,47.2,0,0,1,5.334,9.658,6.327,6.327,0,0,1,.286,4,6.127,6.127,0,0,1-3.415,4.206c-6.781,3.113-18.811.976-18.811.976a6.508,6.508,0,0,1-4.543-3.4l-.05-.151-.707-1.6-.017-.034a15.809,15.809,0,0,1-.774-4.492,10.019,10.019,0,0,0-.539-2.81c-2.557-7.319,1.4-25.221,1.4-25.221V331.255l10.3,2.507c4.694,1.683,12.552,3.062,23.387.067l4.459-.74s-4.156,16.3-8.295,35.148C614.924,386.223,611.02,406.548,610.852,417.131Z" transform="translate(-586.738 -331.255)" fill="#f6c600"/>
              <path id="Trazado_909196" data-name="Trazado 909196" d="M615.731,390.871c3,3.961-.887,6.89-.887,6.89-9.91,6.33-24.415,1.428-24.415,1.428-3.888-1.844-2.261-8.318-2.261-8.318l.018.035a8.477,8.477,0,0,0,.705,1.61l.054.145a6.5,6.5,0,0,0,4.539,3.4s12.029,2.133,18.809-.978a6.109,6.109,0,0,0,3.419-4.213Z" transform="translate(-585.993 -290.565)" fill="#bf7a00"/>
              <path id="Trazado_909197" data-name="Trazado 909197" d="M612.815,348.239c-3.92,17.988-9.707,46.717-9.875,57.3-.118-.084-.236-.168-.353-.236a12.48,12.48,0,0,1-3.2-3.432c-1.952-2.894-.673-5.62-.337-8.884C599.575,387.974,611.687,350.46,612.815,348.239Z" transform="translate(-578.826 -319.663)" fill="#ed9e00"/>
              <path id="Trazado_909198" data-name="Trazado 909198" d="M603.311,386.256a.9.9,0,0,1-.737-.379,42.809,42.809,0,0,0-4.55-5.384.9.9,0,0,1,1.279-1.279,44.487,44.487,0,0,1,4.743,5.613.9.9,0,0,1-.735,1.428Z" transform="translate(-579.216 -298.702)" fill="#bf7a00"/>
            </g>
          </g>
        </g>
        <g id="Grupo_1117826" data-name="Grupo 1117826" transform="translate(34.477 78.387)">
          <path id="Trazado_909199" data-name="Trazado 909199" d="M645.078,158.215c-1.666-.471-2.658-.69-2.658-.69l.135,1.144s1.06,16.438-17.852,18.844a9.213,9.213,0,0,1-1.178.067c-2.844-.034-12.9-1.077-14.049-14.857-1.918.2-3.786.437-5.569.74-2.726,12.131-5.182,19.45-7.235,23.841.841.185,26.264,5.906,46.959-1.06C642.942,181.366,642.942,172.9,645.078,158.215Zm5.99,1.868s.4,14.3-.791,24.026c0,0,1.767,3.432,3.382,7.622a40.587,40.587,0,0,1,2.473,8.951,8.684,8.684,0,0,1,.606-1.077,28.866,28.866,0,0,1,2.776-3.584,39.369,39.369,0,0,1,6.478-5.788c3.55-2.49,6.31-4.223,10.634-4.829,1.565-.219,3.13-.353,4.694-.437v-.135C678.292,171.524,661.584,163.734,651.068,160.082ZM550.84,202.852a31.587,31.587,0,0,1,4.846,1.228c4.358,1.38,10.768,4.173,15.277,9.506a21.886,21.886,0,0,1,3.382,5.266,19.5,19.5,0,0,0,1.952,3.584,8.518,8.518,0,0,0,3.853,3.365l.656.034a125.06,125.06,0,0,1,6.612-33.3c1.413-4,2.456-6.293,2.456-6.293l.151.034c1.935-8.564,7.74-21.57,7.74-21.57C561.726,173.475,550.84,202.852,550.84,202.852Zm127.115-6.915a2.868,2.868,0,0,1-2.81-.808c-.959-.892-1.565-1.884-3.012-2.2-1.767-.4-3.214,1.06-4.61,2.019a24.3,24.3,0,0,0-4.021,3.769c-.555.606-1.094,1.245-1.615,1.851a13,13,0,0,0-2.457,4.223,14.244,14.244,0,0,1-.723,2.423l-.034.051c.168.1.353.2.538.337,1.481,1.026,2.238,3.129,2.625,4.745l.236.084a10.02,10.02,0,0,1,1.346-2.911,3.633,3.633,0,0,1,2.843-1.649v-.034c1.615-1.985,2.86-4.257,4.661-6.225.286-.32.589-.639.909-.942a28.425,28.425,0,0,1,6.175-4.644Zm8.615,5.468c-.925-2.44-4.9-1.969-6.747-1.279a20.5,20.5,0,0,0-3.836,1.935,20.271,20.271,0,0,0-6.612,7l-.067.05A5.868,5.868,0,0,1,670.5,211.8a17.049,17.049,0,0,1,.3,3.331c.05.017.1.017.168.034,1.363-2.372,3.348-5.081,5.5-5.569l-.05-.269c.942-2.456,4.694-6.7,9.052-7.5a6.292,6.292,0,0,1,1.111-.151Z" transform="translate(-550.84 -157.525)" fill="#fff"/>
          <path id="Trazado_909200" data-name="Trazado 909200" d="M579.255,178.335a125.063,125.063,0,0,0-6.612,33.3l-.656-.034a8.516,8.516,0,0,1-3.853-3.365,19.509,19.509,0,0,1-1.952-3.584,21.887,21.887,0,0,0-3.382-5.266,6.348,6.348,0,0,1,.858-1.144c3.3-3.584,4.475-6.124,4.694-11.155.051-1.38-.421-3.6.488-4.762,1.195-1.531,1.985-.387,3.6-.151C576.294,182.71,577.707,180.573,579.255,178.335Z" transform="translate(-542.677 -143.322)" fill="#eaeaea"/>
          <path id="Trazado_909201" data-name="Trazado 909201" d="M614.743,179.908c-.69-.488-1.733-1.329-2.793-2.053a40.58,40.58,0,0,1,2.473,8.951,8.714,8.714,0,0,1,.606-1.077,28.86,28.86,0,0,1,2.776-3.584C616.779,181.388,615.753,180.631,614.743,179.908Zm29.024,8.042c-.168-.017-.337-.017-.522-.017-2.944.1-5.973.336-8.968.252a20.272,20.272,0,0,0-6.612,7l-.067.05a5.866,5.866,0,0,1,1.195,2.692,17.053,17.053,0,0,1,.3,3.331c.05.017.1.017.168.034,1.363-2.372,3.348-5.081,5.5-5.569l-.051-.269C635.657,193,639.409,188.758,643.767,187.95Zm-20.746-2.389c-.4-.236-.824-.471-1.228-.723-.555.606-1.094,1.245-1.615,1.851a13,13,0,0,0-2.457,4.223,14.255,14.255,0,0,1-.723,2.423l-.034.051c.168.1.353.2.538.337,1.481,1.026,2.238,3.129,2.625,4.745l.236.084a10.021,10.021,0,0,1,1.346-2.911,3.634,3.634,0,0,1,2.843-1.649v-.034c1.615-1.985,2.86-4.257,4.661-6.225A19.568,19.568,0,0,1,623.021,185.561Z" transform="translate(-509.131 -143.649)" fill="#eaeaea"/>
          <path id="Trazado_909202" data-name="Trazado 909202" d="M584.063,171.3c3.242,6.345,14.995,10.989,21.617,8.3-4.2.813-10.743-1.817-13.985-4.285a58.936,58.936,0,0,1-8.165-8.011A7.862,7.862,0,0,0,584.063,171.3Z" transform="translate(-528.57 -150.849)" fill="#eaeaea"/>
        </g>
        <g id="Grupo_1117827" data-name="Grupo 1117827" transform="translate(33.804 79.08)">
          <path id="Trazado_909203" data-name="Trazado 909203" d="M606.159,185.97c-.688-4.884-.688-13.347,1.447-28.033,1.5.416,3.581,1.03,5.986,1.863,0,0,.4,14.3-.8,24.035-.6,4.884-1.592,8.628-3.256,8.808C609.541,192.642,607.153,192.769,606.159,185.97Z" transform="translate(-512.689 -157.937)" fill="#dbba8f"/>
          <path id="Trazado_909204" data-name="Trazado 909204" d="M621.269,182.147a89.024,89.024,0,0,1-13.275,2.985c-19.371,2.766-27.906-3.762-27.906-3.762s-6.8,23.131,15.446,24.107l.234-.145-2.983-5.046a4.387,4.387,0,0,1,7.595-4.395l4.45,7.543c.108-.037.234-.091.343-.128l-.037-9.313a4.4,4.4,0,0,1,3.526-4.287,4.788,4.788,0,0,1,.887-.091,4.415,4.415,0,0,1,4.376,4.413l.018,6.53q1.383-.381,2.768-.707C622.66,193.252,621.269,182.147,621.269,182.147Z" transform="translate(-530.873 -141.943)" fill="#ffe7c7"/>
          <path id="Trazado_909205" data-name="Trazado 909205" d="M582.128,162.3q2.958-.732,6.131-1.247c-2.712,12.134-5.172,19.46-7.235,23.836h-.017c-3.816,8.1-6.259,6.168-6.259,6.168-1.319-.688-1.193-3.527-.362-7.181C576.323,175.305,582.128,162.3,582.128,162.3Z" transform="translate(-534.524 -155.81)" fill="#dbba8f"/>
          <path id="Trazado_909206" data-name="Trazado 909206" d="M668.839,296.856c-1.683,40.347-14.907,87.693-14.907,87.693a98.662,98.662,0,0,1-36.477-9.725A130,130,0,0,1,574.6,341.208c-.454-.74-.925-1.464-1.4-2.17a70.813,70.813,0,0,0-21.839-20.729L550.44,299.5c11.189-7.874,18.373-18.356,22.983-28.62a97.861,97.861,0,0,0,7.689-28.384c.286-2.389.438-4.358.5-5.754a27.193,27.193,0,0,0-.134-4.223,102.094,102.094,0,0,1-.4-17.465,120.214,120.214,0,0,1,9.069-39.59l.151.034c-.824,3.668-.959,6.495.37,7.184,0,0,2.44,1.935,6.259-6.158h.017c.841.185,26.264,5.906,46.959-1.06.959,6.562,3.23,6.68,3.382,6.68,1.666-.185,2.659-3.92,3.264-8.816,0,0,5.065,9.792,5.855,16.573-.942,2.1-.791,4.139-1.615,6.276l.1.168c-1.262.808-1.111,2.928-1.111,4.274q0,1.085.05,2.17l.084,1.178a11.37,11.37,0,0,0-1.7-1.077,9.071,9.071,0,0,0-9.86,1.228c-2.036.337-4.055.757-6.074,1.228,5.939-6.6,4.56-17.7,4.56-17.7a88.812,88.812,0,0,1-13.275,2.978c-19.383,2.776-27.913-3.769-27.913-3.769s-6.8,23.135,15.445,24.111l.236-.135.942,1.6c-11.795,5.872-19.82,13.847-17.852,22.293a11.607,11.607,0,0,0,3.533,5.889,16.141,16.141,0,0,0,3.432,2.406l15.025,17.145.808.3a2.748,2.748,0,0,0,1.11,2.86s-3.382,8.244,18.525,11.323l-.017.05s0,10.146,27.627,1.178l.034.135A157.36,157.36,0,0,1,668.839,296.856Z" transform="translate(-550.44 -147.434)" fill="#ecd5b3"/>
          <path id="Trazado_909207" data-name="Trazado 909207" d="M562.792,242.8c2.059-.5,4.142.5,5.862,1.587a26.719,26.719,0,0,1,4.733,4.062,65.381,65.381,0,0,1,7.252,10.094c4.285,7.088,7.237,14.927,10.933,22.132a79.711,79.711,0,0,0,14.108,19.807,58.116,58.116,0,0,0,9.36,7.819,42.092,42.092,0,0,0,10.945,5.47c-8.081-1.849-15.26-6.636-21.277-12.294a76.925,76.925,0,0,1-14.739-19.968c-1.846-3.715-3.5-7.539-5.133-11.268-1.63-3.755-3.491-7.4-5.4-11.009a65.724,65.724,0,0,0-6.712-10.2,26.11,26.11,0,0,0-4.341-4.248,11.526,11.526,0,0,0-2.62-1.521A5.317,5.317,0,0,0,562.792,242.8Z" transform="translate(-542.009 -100.106)" fill="#dbba8f"/>
          <path id="Trazado_909208" data-name="Trazado 909208" d="M573.144,245.521a75.059,75.059,0,0,0,6.432,6.074,78.871,78.871,0,0,0,6.971,5.379,70.788,70.788,0,0,0,15.44,8.18,54.3,54.3,0,0,0,17.024,3.517,46.448,46.448,0,0,0,8.749-.407,61.424,61.424,0,0,0,8.665-1.728,46.581,46.581,0,0,1-17.436,3.527,48.813,48.813,0,0,1-17.635-3.214,60.834,60.834,0,0,1-15.621-8.754A63.408,63.408,0,0,1,573.144,245.521Z" transform="translate(-534.944 -98.158)" fill="#dbba8f"/>
          <path id="Trazado_909209" data-name="Trazado 909209" d="M649.22,269.562a35.433,35.433,0,0,1-19.433-.219,112.929,112.929,0,0,1-19.232-7.958c-4.947-2.642-7.942-5.636-12.03-9.321-.993-.892-7.016-5.031-4.358-6.764,1.11-.74,3.836,1.582,5.216,1.6-1.9-2.322-3.079-5.014-5.216-7.168-4.425-4.509-10.247-9.052-13.342-14.705-1.312-2.423-2.557-8.076-.69-10.516a3.134,3.134,0,0,1,2.2-1.195,16.142,16.142,0,0,0,3.432,2.406L600.8,232.866l.808.3a2.748,2.748,0,0,0,1.11,2.86s-3.382,8.244,18.525,11.323l-.017.05s0,10.146,27.627,1.178l.033.135A157.358,157.358,0,0,1,649.22,269.562Z" transform="translate(-530.82 -120.14)" fill="#dbba8f"/>
          <path id="Trazado_909210" data-name="Trazado 909210" d="M609.074,275.544c-11.374-2.877-19.316-9.3-26.82-17.986-4.678-5.435-10.448-13.511-18.154-14.739a97.865,97.865,0,0,0,7.689-28.384c4.711,4.947,8.379,14.958,9.59,20.594,1.868,8.8,2.743,18.171,8.917,25.356C595.042,265.92,602.6,272.4,609.074,275.544Z" transform="translate(-541.117 -119.376)" fill="#dbba8f"/>
        </g>
        <g id="Grupo_1117828" data-name="Grupo 1117828" transform="translate(81.49 99.646)">
          <path id="Trazado_909211" data-name="Trazado 909211" d="M662.846,186.078a2.12,2.12,0,0,1,.38.236c2.712,1.916,1.718,5.064,3.725,7.216,2.569,2.766,4.738,3.762,4.432,7.994-.109,1.592-.688,3.074-.345,4.666.4,1.863,1.538,3.564,1.5,5.534-.056,3.473-1.43,7.615-4.395,9.513a48.57,48.57,0,0,1-2.768-4.141c-1.356-2.623-.67-6.222-1.248-9.134-.74-3.87-2.5-7.938-6.022-10-3.076-1.79-6.458-2.387-9.17-4.829-2.822-2.549-4.539-6.04-8.754-6.04a3.125,3.125,0,0,0-.416.019l-.018-.271c-.922-2.443-4.9-1.972-6.745-1.285a20.327,20.327,0,0,0-10.453,8.934l-.072.056a3.537,3.537,0,0,0-1.844-1.141,3.43,3.43,0,0,0-1.195-.108v-.037c1.863-2.3,3.256-4.99,5.571-7.161a28.932,28.932,0,0,1,6.167-4.649,22.19,22.19,0,0,1,4.215-1.718c3.725-1.085,7.578-1.61,10.6,1.339,2.261,2.187,2.857,4.757,6.565,4.792C655.9,185.879,659.753,184.25,662.846,186.078Z" transform="translate(-551.031 -164.216)" fill="#3b8944"/>
          <path id="Trazado_909212" data-name="Trazado 909212" d="M662.972,230.291c.688,3.037,3.636,5.5,3.256,8.9-.271,2.441-3.092,5.228-5.715,4.178a4.026,4.026,0,0,1-1.971-1.863c-1.465-2.623-1.484-6.673-5.407-6.565-1.629.054-2.749,1.412-4.45,1.23-1.753-.2-3.039-1.755-3.905-3.219a13.041,13.041,0,0,1-1.465-8.609,29.037,29.037,0,0,1,.94-4.486c.995-3.58,1.917-6.547-1.339-9.187-2.224-1.809-2.152-3.293-1.338-5.987,1.664-5.389,2.441-10.888-2.1-15.933-1.61-1.79-3.183-2.1-4.666-1.683-2.7.761-5.083,3.925-6.836,5.137a3,3,0,0,0-2.443-.506l-.054-.271c1.031-2.658,5.354-7.415,10.164-7.65a3.126,3.126,0,0,1,.416-.019c4.215,0,5.933,3.491,8.754,6.04,2.712,2.441,6.094,3.039,9.17,4.829,3.527,2.063,5.282,6.131,6.022,10,.579,2.912-.108,6.511,1.249,9.134a48.528,48.528,0,0,0,2.768,4.141,7.122,7.122,0,0,1,1.319,4.595C665.161,225.353,662.249,227.143,662.972,230.291Z" transform="translate(-546.908 -160.881)" fill="#5ab16a"/>
          <path id="Trazado_909213" data-name="Trazado 909213" d="M666.125,179.181c2.4,1.031,4.647,4.974,4.484,7.6-.126,2.115-1.627,3.851-3,5.244-3.092-1.827-6.945-.2-10.29-.217-3.708-.035-4.3-2.6-6.565-4.792-3.02-2.949-6.873-2.425-10.6-1.339a22.194,22.194,0,0,0-4.215,1.718l-.035-.072a2.918,2.918,0,0,1-2.822-.813c-.959-.887-1.555-1.881-3-2.208-1.773-.4-3.22,1.067-4.612,2.026a33.07,33.07,0,0,0-5.643,5.606,13.244,13.244,0,0,0-2.46,4.233,13.643,13.643,0,0,1-.723,2.423l-.035.054a4.614,4.614,0,0,0-3.654-.343,1.655,1.655,0,0,0-.4.2l-.091-.162c.815-2.135.67-4.179,1.61-6.276a8.059,8.059,0,0,1,.6-1.085,36.768,36.768,0,0,1,9.261-9.368c3.545-2.478,6.311-4.215,10.634-4.829,1.575-.219,3.13-.345,4.7-.436l1.466-.108a9.35,9.35,0,0,1,7.7-5.86c2.044-.289,4.684-.469,6.474.742,1.809,1.211,1.664,3.092,2.586,4.81C659.4,179.363,663.14,177.9,666.125,179.181Z" transform="translate(-555.793 -170.161)" fill="#5ab16a"/>
          <path id="Trazado_909214" data-name="Trazado 909214" d="M639.546,209.392c3.256,2.64,2.333,5.606,1.339,9.187a29.052,29.052,0,0,0-.941,4.486l-.182-.019a5.905,5.905,0,0,0-3.128-2.514c-.018-.018-.018-.018-.037-.018-1.319-.451-3.454-.054-4.647-.976-1.592-1.211-1.267-3.074-.6-4.775.362-.957.85-1.881,1.139-2.621,1.05-2.569.018-3.365-1.193-5.408a6.517,6.517,0,0,1-.67-1.575,7.205,7.205,0,0,1,.6-4.937,15.489,15.489,0,0,0,1.519-8.392,18.293,18.293,0,0,0-.742-4.178,6.779,6.779,0,0,1-.488-1.555l-.072-.308c1.482-.416,3.055-.108,4.666,1.683,4.539,5.046,3.762,10.544,2.1,15.934C637.394,206.1,637.321,207.583,639.546,209.392Z" transform="translate(-543.539 -159.605)" fill="#3b8944"/>
          <path id="Trazado_909215" data-name="Trazado 909215" d="M638.97,208.873l-.072.163s-.905,2.007-2.569,4.974c-1.536-1.555-4.521.271-4.521.271a4.151,4.151,0,0,1-4.81-.252v-.019l1.41-8.717v-.019a16.781,16.781,0,0,0,1.556-2.568,2.728,2.728,0,0,0,3.707.4h.018c-.67,1.7-.994,3.564.6,4.775,1.193.922,3.328.525,4.647.976C638.951,208.855,638.951,208.855,638.97,208.873Z" transform="translate(-545.874 -147.947)" fill="#175118"/>
          <path id="Trazado_909216" data-name="Trazado 909216" d="M635.316,191.763a15.488,15.488,0,0,1-1.519,8.392,7.205,7.205,0,0,0-.6,4.937l-2.261.2a12.036,12.036,0,0,0-4.285-5.806c1.321-2.4,3.363-6.71.525-8.626,1.753-1.211,4.141-4.376,6.836-5.137l.072.308a6.765,6.765,0,0,0,.488,1.555A18.286,18.286,0,0,1,635.316,191.763Z" transform="translate(-546.109 -159.539)" fill="#2b6b2f"/>
          <path id="Trazado_909217" data-name="Trazado 909217" d="M632.842,209.95s2.985-1.826,4.521-.271A69.2,69.2,0,0,1,625.5,225.4l-.019-.019,2.551-15.679A4.151,4.151,0,0,0,632.842,209.95Z" transform="translate(-546.909 -143.616)" fill="#5ab16a"/>
          <path id="Trazado_909218" data-name="Trazado 909218" d="M632.431,198.81c1.212,2.043,2.243,2.838,1.193,5.408-.289.74-.777,1.664-1.139,2.621h-.019a2.728,2.728,0,0,1-3.707-.4,11.73,11.73,0,0,0,1.03-8.031,7.534,7.534,0,0,0-.289-.976l2.261-.2A6.528,6.528,0,0,0,632.431,198.81Z" transform="translate(-544.67 -151.682)" fill="#2b6b2f"/>
          <path id="Trazado_909219" data-name="Trazado 909219" d="M663.9,200.685a11.731,11.731,0,0,1-1.03,8.031,16.786,16.786,0,0,1-1.556,2.568v.019c-5.949,8.283-20.275,15.21-35.267,18.737-1.048.254-2.1.488-3.146.686a.018.018,0,0,1-.019.018,96.493,96.493,0,0,1-11,1.61h-.018c-2.442.217-4.829.325-7.107.325-7.867,0-14.234-1.284-18.683-3.688l-.019-.019h-.018c-3.744-2.026-6.131-4.81-6.962-8.3-1.972-8.446,6.059-16.421,17.85-22.282l2.731,4.649c-.6.289-1.193.579-1.753.885a4.767,4.767,0,0,0-1.031-.091,6.8,6.8,0,0,0-6.547,4.957c-4.467,3.58-6.747,7.324-5.968,10.634l.108.38v.018c.994,3.146,4.756,5.371,10.29,6.528.525.109,1.085.2,1.647.289a52.974,52.974,0,0,0,10.055.579h.019a.506.506,0,0,0,.235,0,90.779,90.779,0,0,0,18.085-2.46c.6-.145,1.212-.289,1.809-.434.252-.072.506-.145.759-.2a82.118,82.118,0,0,0,19.152-7.487c.543-.308,1.085-.616,1.592-.922,7.361-4.467,11.522-9.5,10.509-13.782a6.47,6.47,0,0,0-2.207-3.419c.978-1.428,1.918-2.857,2.768-4.358a1.77,1.77,0,0,1,.145-.254,12.037,12.037,0,0,1,4.285,5.806A7.525,7.525,0,0,1,663.9,200.685Z" transform="translate(-578.782 -153.956)" fill="#b56b14"/>
          <path id="Trazado_909220" data-name="Trazado 909220" d="M658.376,204.245l-1.413,8.716v.017l-2.557,15.681.017.017c-4.543,4.307-9.96,7.706-16.068,8.228l-2.019-.841-13.09-5.4a2.949,2.949,0,0,0-2.928,5.064l7.941,6.108s-2.692,1.279-7.756.824a32.213,32.213,0,0,1-8.379-2.019l-9.708-3.214a2.748,2.748,0,0,0-3.264,1.346c-.084.2-.151.4-.219.589l-.807-.3L583.1,221.912h.017l.017.017c4.442,2.406,10.819,3.685,18.676,3.685,2.288,0,4.677-.1,7.117-.32h.017a92.126,92.126,0,0,0,10.987-1.615.017.017,0,0,0,.017-.017c1.06-.185,2.1-.421,3.146-.69a94.562,94.562,0,0,0,19.164-6.646C649.307,212.927,655.112,208.788,658.376,204.245Z" transform="translate(-575.835 -146.897)" fill="#ca8741"/>
          <path id="Trazado_909221" data-name="Trazado 909221" d="M633.086,197.643a1.2,1.2,0,0,0-.135.252c-.858,1.5-1.8,2.928-2.776,4.358a45,45,0,0,0-4.963,8.564c-.2.522-.421,1.026-.673,1.548-1.043,2.305-2.305,4.661-2.692,7.016l.034.067c-.5.3-1.06.622-1.6.925a10.363,10.363,0,0,0-3.062-5.216c.1-.488.135-1.077.252-1.514a33.864,33.864,0,0,1,1.783-5.5c.32-.774.639-1.548.942-2.322.942-2.288,1.868-4.576,2.944-6.831.269-.622.572-1.245.892-1.851a33.115,33.115,0,0,1,1.632-3.062c1.363-2.372,3.348-5.081,5.5-5.569a2.985,2.985,0,0,1,2.44.5C636.451,190.93,634.415,195.237,633.086,197.643Z" transform="translate(-552.547 -157.692)" fill="#ff6e41"/>
          <path id="Trazado_909222" data-name="Trazado 909222" d="M630.511,200.063c1.013,4.285-3.148,9.314-10.509,13.782l-.035-.072c.47-2.894,2.278-5.769,3.363-8.556a44.355,44.355,0,0,1,4.973-8.573A6.471,6.471,0,0,1,630.511,200.063Z" transform="translate(-550.672 -152.085)" fill="#7c4208"/>
          <path id="Trazado_909223" data-name="Trazado 909223" d="M627.386,194.752a33.124,33.124,0,0,0-1.632,3.062c-.32.606-.623,1.228-.892,1.851-1.077,2.255-2,4.543-2.944,6.831-.3.774-.623,1.548-.942,2.322a33.834,33.834,0,0,0-1.783,5.5c-.118.437-.151,1.026-.252,1.514a10.131,10.131,0,0,0-4.24-2.305,50.638,50.638,0,0,1,1.413-13.006c.168-.589.3-1.161.471-1.75l.05-.2c.454-1.767.926-3.567,1.447-5.317,0-.017,0-.017.017-.034.118-.4.236-.808.387-1.211a10.021,10.021,0,0,1,1.346-2.911,3.634,3.634,0,0,1,2.844-1.649,3.671,3.671,0,0,1,1.195.1,3.623,3.623,0,0,1,1.851,1.144,5.865,5.865,0,0,1,1.195,2.692,17.054,17.054,0,0,1,.3,3.331C627.269,194.735,627.319,194.735,627.386,194.752Z" transform="translate(-554.267 -158.369)" fill="#ce4520"/>
          <path id="Trazado_909224" data-name="Trazado 909224" d="M627.326,210.63c-.925.522-1.9,1.043-2.911,1.514a84.811,84.811,0,0,1-16.236,5.973,8.139,8.139,0,0,1-.623-1.346,1.64,1.64,0,0,0,.017-.3,10.515,10.515,0,0,0-.673-3.735,10.3,10.3,0,0,1,2.827-6.781,10.107,10.107,0,0,1,2.709-2.053,10.31,10.31,0,0,1,4.829-1.195c.219,0,.454,0,.673.017a9.524,9.524,0,0,1,2.086.387,10.131,10.131,0,0,1,4.24,2.305A10.362,10.362,0,0,1,627.326,210.63Z" transform="translate(-559.59 -147.948)" fill="#ce4520"/>
          <path id="Trazado_909225" data-name="Trazado 909225" d="M620.427,192.483c-.151.4-.269.808-.387,1.211-.017.017-.017.017-.017.034-.522,1.75-.993,3.55-1.447,5.317l-.05.2c-.168.589-.3,1.161-.471,1.75A50.624,50.624,0,0,0,616.641,214a9.524,9.524,0,0,0-2.086-.387l.017-.37a29.042,29.042,0,0,0-.993-4.358c-.084-.437-.168-.858-.252-1.3-.353-2.137-.521-4.257-.74-6.41-.219-2.137-.454-4.257-.589-6.377-.034-.387-.067-.774-.084-1.178-.017-.269-.017-.538-.017-.808-.034-.454-.034-.909-.034-1.363,0-1.346-.151-3.466,1.111-4.274a1.218,1.218,0,0,1,.387-.2,4.661,4.661,0,0,1,3.668.337c.168.1.353.2.538.336,1.481,1.026,2.238,3.13,2.625,4.745Z" transform="translate(-556.208 -158.842)" fill="#ff6e41"/>
          <path id="Trazado_909226" data-name="Trazado 909226" d="M617.032,204.781l-.017.38c-.217-.019-.452-.019-.688-.019a10.321,10.321,0,0,0-7.523,3.237,8.142,8.142,0,0,0,.306-2.207,8.5,8.5,0,0,0-.85-3.707,2.278,2.278,0,0,0,.488.035,8.98,8.98,0,0,0,7.036-3.363c.072.434.161.85.252,1.284A31.909,31.909,0,0,1,617.032,204.781Z" transform="translate(-558.662 -150.383)" fill="#c6a209"/>
          <path id="Trazado_909227" data-name="Trazado 909227" d="M619.262,205.134a8.949,8.949,0,0,1-7.033,3.365,2.387,2.387,0,0,1-.488-.034,8.487,8.487,0,0,0-7.437-4.778h-.084a.609.609,0,0,1-.067-.151.016.016,0,0,0-.017-.017,8.629,8.629,0,0,1-.723-1.935,9.094,9.094,0,0,1-.252-2.154,5.873,5.873,0,0,1,.05-.791,8.834,8.834,0,0,1,3.163-6.141,9.071,9.071,0,0,1,9.859-1.228,9.53,9.53,0,0,1,1.632,1.026c.017.017.05.034.067.05.135,2.12.37,4.24.589,6.377C618.74,200.878,618.909,203,619.262,205.134Z" transform="translate(-562.143 -156.384)" fill="#ff9f45"/>
          <path id="Trazado_909228" data-name="Trazado 909228" d="M615.65,206.755a8.051,8.051,0,0,1-.32,2.221,10.3,10.3,0,0,0-2.827,6.781,10.7,10.7,0,0,0-10.028-6.966,7.01,7.01,0,0,0-1.195.084,2.949,2.949,0,0,0-.538.067,7.448,7.448,0,0,0-.841.168,4.5,4.5,0,0,0-.454.118h-.017c-.118.034-.219.067-.337.1a2.612,2.612,0,0,1-.1-.387,7.829,7.829,0,0,1-.253-1.279,8.271,8.271,0,0,1-.05-.909,7.965,7.965,0,0,1,.286-2.12,8.4,8.4,0,0,1,8.177-6.36h.2a8.487,8.487,0,0,1,7.437,4.778A8.6,8.6,0,0,1,615.65,206.755Z" transform="translate(-565.194 -150.972)" fill="#f6c600"/>
          <path id="Trazado_909229" data-name="Trazado 909229" d="M615.982,215.226a1.64,1.64,0,0,1-.017.3,9.14,9.14,0,0,1-.135,1.548c-.606.135-1.211.286-1.817.437a91.389,91.389,0,0,1-18.087,2.456.552.552,0,0,1-.235,0h-.017a10.844,10.844,0,0,1-1.043-3.668c-.034-.353-.05-.723-.05-1.077a11.038,11.038,0,0,1,.69-3.8,9.384,9.384,0,0,1,.5-1.111,10.516,10.516,0,0,1,.858-1.38,10.781,10.781,0,0,1,5.266-3.87c.118-.034.219-.067.336-.1h.017a4.5,4.5,0,0,1,.454-.118,6.759,6.759,0,0,1,.841-.168,4.229,4.229,0,0,1,.454-.067.075.075,0,0,1,.084,0,2.569,2.569,0,0,1,.5-.05,4.622,4.622,0,0,1,.69-.034,10.7,10.7,0,0,1,10.028,6.966A10.516,10.516,0,0,1,615.982,215.226Z" transform="translate(-567.999 -146.706)" fill="#ff9f45"/>
          <path id="Trazado_909230" data-name="Trazado 909230" d="M606.488,200.325h-.108a8.406,8.406,0,0,0-6.53,3.074l-.017-6.727c1.3-.38,2.621-.723,3.979-1.031.56-.126,1.1-.254,1.662-.362a5.552,5.552,0,0,0-.054.777A8.95,8.95,0,0,0,606.488,200.325Z" transform="translate(-564.413 -153.017)" fill="#7c4208"/>
          <path id="Trazado_909231" data-name="Trazado 909231" d="M602.58,192.854c2.026-.469,4.052-.885,6.077-1.23a8.878,8.878,0,0,0-3.166,6.15c-.56.108-1.1.236-1.662.362-1.358.308-2.677.651-3.979,1.031l-.037-5.606Q601.195,193.179,602.58,192.854Z" transform="translate(-564.428 -155.511)" fill="#b56b14"/>
          <path id="Trazado_909232" data-name="Trazado 909232" d="M603.43,206.869v2.675a8.4,8.4,0,0,0-1.649,3.281l-.875-1.5-3.315-5.62-.522-.892h-.017l-2.44-4.139v-.724l-.034-9.3a4.4,4.4,0,0,1,3.516-4.29,5.331,5.331,0,0,1,.892-.084,4.394,4.394,0,0,1,4.375,4.408l.017,6.528v1.094l.034,4.509Z" transform="translate(-567.999 -159.162)" fill="#3b8944"/>
          <path id="Trazado_909233" data-name="Trazado 909233" d="M607.15,215.861a10.781,10.781,0,0,0-5.266,3.87l-.774-1.3-1.178-2v-.017l-.791-1.346-1.009-1.716-.017-.017a6.744,6.744,0,0,0-2.742-4.644l-1.245-2.1L591.4,201.93l-.942-1.6-2.978-5.048a4.385,4.385,0,0,1,1.6-6.007,4.3,4.3,0,0,1,2.187-.572,4.341,4.341,0,0,1,3.8,2.187l4.442,7.538.353.572v.017l2.44,4.139h.017l.522.892,3.315,5.62.875,1.5a7.97,7.97,0,0,0-.286,2.12A8.68,8.68,0,0,0,607.15,215.861Z" transform="translate(-573.251 -157.503)" fill="#5ab16a"/>
          <path id="Trazado_909234" data-name="Trazado 909234" d="M596.234,206.444l1.953,3.291a9.684,9.684,0,0,0-.868,1.375,6.732,6.732,0,0,0-4.738-1.916,1.484,1.484,0,0,0-.273.017,6.791,6.791,0,0,0,2.171-4.99,6.931,6.931,0,0,0-.054-.868l1.809,3.074Z" transform="translate(-569.549 -147.506)" fill="#7c4208"/>
          <path id="Trazado_909235" data-name="Trazado 909235" d="M598.528,214.733a10.844,10.844,0,0,0,1.043,3.668,53.525,53.525,0,0,1-10.045-.589,5.207,5.207,0,0,1-.656-1.01,6.468,6.468,0,0,0,1.9-2.726,6.293,6.293,0,0,0,.454-2.389,6.473,6.473,0,0,0-.723-3.012.177.177,0,0,0-.084-.151,6.629,6.629,0,0,1,4.223-1.683h.017a1.445,1.445,0,0,1,.269-.017,6.731,6.731,0,0,1,4.745,1.918,9.424,9.424,0,0,0-.5,1.11,11.041,11.041,0,0,0-.69,3.8C598.477,214.009,598.494,214.38,598.528,214.733Z" transform="translate(-571.896 -145.136)" fill="#c6a209"/>
          <path id="Trazado_909236" data-name="Trazado 909236" d="M599.142,206.636a7.12,7.12,0,0,1-.269,1.9s0-.017-.017,0a6.69,6.69,0,0,1-1.885,3.1h-.017a6.628,6.628,0,0,0-4.223,1.683,6.746,6.746,0,0,0-6.04-3.668c-.152,0-.337,0-.5.017a5.411,5.411,0,0,1-.4-1.026,6.474,6.474,0,0,1-.3-2,7.079,7.079,0,0,1,.269-1.884,6.834,6.834,0,0,1,6.562-4.947,5.074,5.074,0,0,1,1.026.084,6.8,6.8,0,0,1,5.737,5.872l.017.017A7.144,7.144,0,0,1,599.142,206.636Z" transform="translate(-574.21 -149.927)" fill="#ce4520"/>
          <path id="Trazado_909237" data-name="Trazado 909237" d="M595.805,212.486a6.706,6.706,0,0,1-2.356,5.115,5.167,5.167,0,0,1-.993.723,22.591,22.591,0,0,1-6.225-2.17,7.923,7.923,0,0,1-4.072-4.358v-.017a6.858,6.858,0,0,1,5.771-6.057c.168-.017.336-.034.521-.05.168-.017.353-.017.5-.017a6.746,6.746,0,0,1,6.04,3.668.177.177,0,0,1,.084.151A6.472,6.472,0,0,1,595.805,212.486Z" transform="translate(-576.476 -145.935)" fill="#f6c600"/>
          <path id="Trazado_909238" data-name="Trazado 909238" d="M588.127,202.75a6.441,6.441,0,0,0-.271,1.881,6.743,6.743,0,0,0,.7,3.02,6.825,6.825,0,0,0-6.294,6.113l-.108-.38C581.38,210.074,583.66,206.33,588.127,202.75Z" transform="translate(-576.58 -147.917)" fill="#7c4208"/>
          <path id="Trazado_909239" data-name="Trazado 909239" d="M590.149,200.217a15.117,15.117,0,0,1,1.753-.885l1.248,2.115A6.51,6.51,0,0,0,590.149,200.217Z" transform="translate(-571.024 -150.25)" fill="#7c4208"/>
          <path id="Trazado_909240" data-name="Trazado 909240" d="M636.781,204.245l-1.413,8.716v.017l-2.558,15.681.017.017c-4.543,4.307-9.96,7.706-16.068,8.228l-2.019-.841a63.409,63.409,0,0,0,5.923-19.736C627.712,212.927,633.517,208.788,636.781,204.245Z" transform="translate(-554.239 -146.897)" fill="#bc7433"/>
          <path id="Trazado_909241" data-name="Trazado 909241" d="M625.492,218.066l.034.067c-.5.3-1.06.622-1.6.925a10.362,10.362,0,0,0-3.062-5.216,10.131,10.131,0,0,0-4.24-2.305,9.524,9.524,0,0,0-2.086-.387l.017-.37a29.041,29.041,0,0,0-.993-4.358c-.084-.437-.168-.858-.253-1.3-.353-2.137-.522-4.257-.74-6.41-.219-2.137-.454-4.257-.589-6.377-.034-.387-.067-.774-.084-1.178-.017-.269-.017-.538-.017-.808,1.11,3.113,3.012,5.737,6.629,6.427a.317.317,0,0,0,.135.034c.219,3.735,1.5,6.427,5.2,7.689.05.017.084.034.135.05a6.758,6.758,0,0,0,3.348,5.939q.479.3.858.555C627.141,213.355,625.879,215.711,625.492,218.066Z" transform="translate(-556.192 -156.377)" opacity="0.34" style="mix-blend-mode: overlay;isolation: isolate"/>
          <path id="Trazado_909242" data-name="Trazado 909242" d="M599.47,205.144a6.691,6.691,0,0,1-1.884,3.1h-.017a6.628,6.628,0,0,0-4.223,1.683.177.177,0,0,1,.084.151,6.474,6.474,0,0,1,.723,3.012A6.706,6.706,0,0,1,591.8,218.2a5.169,5.169,0,0,1-.993.723,22.591,22.591,0,0,1-6.225-2.17,4.929,4.929,0,0,1,.824-2.1c.892-1.228,2.355-1.6,2.911-3.18.925-2.608-1.195-3.5-2.036-5.149a2.722,2.722,0,0,1-.3-.925,2.564,2.564,0,0,1,.421-.151c2.709-.976,4.576-.2,7.353.3A10.945,10.945,0,0,0,599.47,205.144Z" transform="translate(-574.825 -146.534)" opacity="0.34" style="mix-blend-mode: overlay;isolation: isolate"/>
          <path id="Trazado_909243" data-name="Trazado 909243" d="M603.71,202.006a1.7,1.7,0,0,0,0,.942v1.716a8.4,8.4,0,0,0-1.649,3.281,7.968,7.968,0,0,0-.286,2.12,8.678,8.678,0,0,0,.4,2.574,10.781,10.781,0,0,0-5.266,3.87l-.774-1.3-1.178-2v-.017l-.791-1.346a.365.365,0,0,0,.051-.084c.488-.925.269-2.541.589-3.584.454-1.481,1.127-2.877,1.683-4.341a19.854,19.854,0,0,1,1.38-3.012A13.776,13.776,0,0,1,600.5,197.7a14.925,14.925,0,0,0,3.163-4.274l.034,4.509.017,4.055Z" transform="translate(-568.279 -154.282)" opacity="0.34" style="mix-blend-mode: overlay;isolation: isolate"/>
          <path id="Trazado_909244" data-name="Trazado 909244" d="M636.721,219.788a84.813,84.813,0,0,1-16.237,5.973,8.148,8.148,0,0,1-.622-1.346,9.141,9.141,0,0,1-.135,1.548c-.606.135-1.211.286-1.817.437a91.389,91.389,0,0,1-18.087,2.456.554.554,0,0,1-.236,0h-.017a53.529,53.529,0,0,1-10.045-.589,5.211,5.211,0,0,1-.656-1.01,6.468,6.468,0,0,0,1.9-2.726,9.3,9.3,0,0,1,7,.236c.236.118.488.269.757.421,1.413.774,3.23,1.683,4.576.74,1.531-1.077,1.4-2.81,3.5-3.331,2.053-.5,4.038-.118,5.485-2.036a3.146,3.146,0,0,0-.522-4.509c-1.6-1.5-3.584-1.312-5.35-2.154a.231.231,0,0,1-.067-.05h-.017a1.785,1.785,0,0,1-.438-.286.988.988,0,0,1-.253-1.279,2.951,2.951,0,0,1,1.986-1.312c2.608-.623,5.048,1.127,7.47-.236,2.221-1.228,2.372-3.9.993-5.906a25.846,25.846,0,0,0-1.834-1.935l-.151-.151a.016.016,0,0,0-.017-.017c-.74-.791-1.262-1.531-.724-1.935a2.47,2.47,0,0,1,1.312-.32c3.062-.135,6.528-.219,9.22-1.969,2.254-1.464,3.348-4.307,3.92-7,.017.017.05.034.067.05.135,2.12.37,4.24.589,6.377.219,2.154.387,4.274.74,6.41a8.949,8.949,0,0,1-7.033,3.365,2.383,2.383,0,0,1-.488-.034,8.6,8.6,0,0,1,.858,3.7,8.051,8.051,0,0,1-.32,2.221,10.105,10.105,0,0,1,2.709-2.053,5.883,5.883,0,0,0,.5,5.014c1.969,2.793,4.812.824,7.521,1.211A6.465,6.465,0,0,1,636.721,219.788Z" transform="translate(-571.897 -155.592)" opacity="0.34" style="mix-blend-mode: overlay;isolation: isolate"/>
        </g>
        <g id="Grupo_1117833" data-name="Grupo 1117833" transform="translate(46.631)">
          <g id="Grupo_1117829" data-name="Grupo 1117829">
            <path id="Trazado_909245" data-name="Trazado 909245" d="M639.719,128.421c-2.5.234-4.955.506-7.361.831a189.916,189.916,0,0,0-37.907,9.1,170.61,170.61,0,0,0-18.43,7.7s7.832,2.117,20.111,1.918h.019l1.918,10.941c-37.113,8.192-39.862-5.643-39.862-5.643s-4.484-13.763,36.842-25.591c1.718-.488,3.508-.976,5.389-1.466a245.068,245.068,0,0,1,31.993-6.981c15.626-2.206,32.229-2.35,37.744,5.408a5.7,5.7,0,0,1,1,3.781c-.434,4.5-4.287,14.811-29.661,21.087a5.2,5.2,0,0,0-2.894-3.725l.506-7.921h.054A112.669,112.669,0,0,0,656.5,127.679C650.715,127.661,645.108,127.931,639.719,128.421Z" transform="translate(-558.063 -106.167)" fill="#946724"/>
            <path id="Trazado_909246" data-name="Trazado 909246" d="M649.77,124.6c1.612.114,4.63-.6,6.636-.8.972-.1,5.5-.951,6.306-.177,1.475,1.42-1.5,5.832-2.46,6.92a17.884,17.884,0,0,1-4.015,2.825c-3.277,2.093-6.163,4.183-9.9,5.5a209.013,209.013,0,0,1-39.751,10.169c-7.531,1.073-14.929,3.293-22.509,4-5.719.535-12.535.927-17.665-2.1-3.077-1.815-3.811-4.225-.525-6.1a29.57,29.57,0,0,1,6.8-2.621,42.761,42.761,0,0,1,7.043-1.006c3.909-.4,7.9-1.871,11.7-2.832,5.3-1.343,10.45-3.264,15.759-4.545,6.052-1.46,11.985-2.79,17.984-4.519a73.863,73.863,0,0,1,12.119-2,44.412,44.412,0,0,0,8.6-1.55A17.422,17.422,0,0,1,649.77,124.6Z" transform="translate(-554.187 -102.499)" fill="#765216"/>
            <path id="Trazado_909247" data-name="Trazado 909247" d="M606.837,124.464c5.389-.49,11-.761,16.783-.742A112.659,112.659,0,0,1,606.294,133.9h-.054Z" transform="translate(-525.181 -102.21)" fill="#3f2805"/>
            <path id="Trazado_909248" data-name="Trazado 909248" d="M617.516,124.007a242.759,242.759,0,0,0-31.985,6.982c-1.884.488-3.668.976-5.4,1.464,0,0-.067-.353-.135-.959-.336-3.331-.387-14.47,13.343-19.467a15.571,15.571,0,0,1,3.365-.808,23.867,23.867,0,0,1,11.34.942C612.2,113.744,616.069,117.126,617.516,124.007Z" transform="translate(-543.153 -110.936)" fill="#765216"/>
            <path id="Trazado_909249" data-name="Trazado 909249" d="M588.107,135.418l.759,4.269h-.019c-12.279.2-20.111-1.918-20.111-1.918a170.609,170.609,0,0,1,18.43-7.7Z" transform="translate(-550.779 -97.881)" fill="#3f2805"/>
            <path id="Trazado_909250" data-name="Trazado 909250" d="M617.48,123.51a242.762,242.762,0,0,0-31.985,6.982c-1.884.488-3.668.976-5.4,1.464,0,0-.067-.353-.135-.959a8.273,8.273,0,0,1,1.161-.791c3.449-1.985,6.8-2.658,10.4-4.089,4.677-1.834,11.189-2.743,14.554-6.8a9.554,9.554,0,0,0,2.036-6.814c-.017-.185-.05-.488-.1-.841C612.163,113.247,616.033,116.628,617.48,123.51Z" transform="translate(-543.118 -110.439)" opacity="0.34" style="mix-blend-mode: overlay;isolation: isolate"/>
          </g>
          <g id="Grupo_1117832" data-name="Grupo 1117832" transform="translate(36.388 22.258)">
            <path id="Trazado_909251" data-name="Trazado 909251" d="M609.589,124.165l-.37,5.7-.236,3.735-.5,7.925a4.631,4.631,0,0,0-1.413-.454,4.773,4.773,0,0,0-1.767.05l-2.355-12.1-.656-3.432-.067-.606C604.626,124.67,607.083,124.4,609.589,124.165Z" transform="translate(-564.313 -124.165)" fill="#7c4208"/>
            <g id="Grupo_1117830" data-name="Grupo 1117830" transform="translate(0 0.824)">
              <path id="Trazado_909252" data-name="Trazado 909252" d="M618.8,165.872s1.067,16.44-17.85,18.846a8.634,8.634,0,0,1-1.176.072c-2.84-.037-12.913-1.085-14.053-14.867-.037-.542-.072-1.085-.091-1.664,16.477,2.642,22.807-12.895,23.619-15.084l.868-.813c2.044-1.99,4.74-3.256,6.693-5.391l1.863,17.761Z" transform="translate(-575.633 -109.423)" fill="#fcbe95"/>
              <path id="Trazado_909253" data-name="Trazado 909253" d="M609.333,150.52a.841.841,0,0,1-.072.234c-.813,2.189-7.142,17.725-23.619,15.084-.019-.614-.019-1.248,0-1.9l-.019-9.333a10.8,10.8,0,0,0,1.773,1.158,3.693,3.693,0,0,0,.523.271c.2.091.4.182.616.271a13.425,13.425,0,0,0,1.3.434C599.332,159.31,608.827,150.971,609.333,150.52Z" transform="translate(-575.64 -107.001)" fill="#d69270"/>
              <path id="Trazado_909254" data-name="Trazado 909254" d="M626.75,144.913a5.181,5.181,0,0,0-2.894-3.718,4.634,4.634,0,0,0-1.413-.454,4.772,4.772,0,0,0-1.767.05l-2.355-12.1-.656-3.432-.067-.606a188.908,188.908,0,0,0-24.565,4.947c-4.846,1.312-9.3,2.726-13.342,4.156l.942,5.35.757,4.274,1.918,10.936.909,5.115a30.669,30.669,0,0,1,4.139-5.62,13.912,13.912,0,0,1,6.814-3.769,14.748,14.748,0,0,1,4.593-.437,16.788,16.788,0,0,1,9.473,3.937,6.771,6.771,0,0,0,7.168,1.683c.993-.3,2.322-1.5,3.516-1.985l-.286-2.608a5.391,5.391,0,0,0,2.019.387A5.176,5.176,0,0,0,626.75,144.913Zm-36.174-1.228a2.233,2.233,0,0,1-2.238-2.221,2.2,2.2,0,0,1,2.238-2.238,2.229,2.229,0,1,1,0,4.459Zm16.724-1.363a2.229,2.229,0,1,1,2.255-2.221A2.233,2.233,0,0,1,607.3,142.322Z" transform="translate(-579.69 -124.655)" fill="#fcbe95"/>
            </g>
            <g id="Grupo_1117831" data-name="Grupo 1117831" transform="translate(4.521 9.738)">
              <path id="Trazado_909255" data-name="Trazado 909255" d="M611.549,158.068c-.506.451-10,8.79-19.5,6.22a13.419,13.419,0,0,1-1.3-.434,4.555,4.555,0,0,1-.616-.271,4.927,4.927,0,0,1-.523-.271,10.791,10.791,0,0,1-1.773-1.158c-.126-.109-.252-.2-.378-.326-.217-.18-.417-.362-.616-.56a9.692,9.692,0,0,1-1.139-1.3,5.886,5.886,0,0,1-.471-.651c-.017-.035-.054-.072-.072-.108-.145-.217-.289-.453-.415-.688a12.164,12.164,0,0,1-1.247-3.092,10.337,10.337,0,0,1-.236-1.03l-.886-5.064a30.688,30.688,0,0,1,4.142-5.625,13.866,13.866,0,0,1,6.818-3.762,14.777,14.777,0,0,1,4.593-.453,16.946,16.946,0,0,1,9.478,3.944,6.741,6.741,0,0,0,7.162,1.681c.994-.306,2.313-1.5,3.508-1.989l.959,8.97c-1.953,2.135-4.649,3.4-6.693,5.391l-.868.813A.837.837,0,0,0,611.549,158.068Z" transform="translate(-582.377 -123.463)" fill="#ed804a"/>
              <path id="Trazado_909256" data-name="Trazado 909256" d="M597.014,132.5a2.234,2.234,0,1,1-2.243,2.243A2.242,2.242,0,0,1,597.014,132.5Z" transform="translate(-573.918 -128.211)"/>
              <path id="Trazado_909257" data-name="Trazado 909257" d="M587.071,133.31a2.234,2.234,0,1,1-2.243,2.243,2.314,2.314,0,0,1,.38-1.265A2.269,2.269,0,0,1,587.071,133.31Z" transform="translate(-580.704 -127.661)"/>
              <path id="Trazado_909258" data-name="Trazado 909258" d="M586.838,145.6a9.645,9.645,0,0,0,7.218,2.073,14.149,14.149,0,0,0,3.638-1.142l1.8-.912c.592-.342,1.188-.693,1.851-.994a18.992,18.992,0,0,1-1.307,1.7,19.5,19.5,0,0,1-1.627,1.425,9.753,9.753,0,0,1-4.1,1.714,7.444,7.444,0,0,1-4.462-.749A6.573,6.573,0,0,1,586.838,145.6Z" transform="translate(-579.332 -119.936)" fill="#c1581e"/>
              <path id="Trazado_909259" data-name="Trazado 909259" d="M590.259,134.181a45.442,45.442,0,0,1,.161,7.358,67.112,67.112,0,0,1-.776,7.27l-.742-.814a38.023,38.023,0,0,1,5.515.745,38.012,38.012,0,0,1-5.515.745.692.692,0,0,1-.744-.638l0-.069,0-.109a71.276,71.276,0,0,1,.586-7.287A41.69,41.69,0,0,1,590.259,134.181Z" transform="translate(-578.431 -127.067)" fill="#c1581e"/>
              <path id="Trazado_909260" data-name="Trazado 909260" d="M582.789,134.779a5.8,5.8,0,0,1,1.827-2.239,7.261,7.261,0,0,1,2.659-1.285,6.1,6.1,0,0,1,3,.013,4.951,4.951,0,0,1,2.512,1.487,26.347,26.347,0,0,0-2.68-.086,11.034,11.034,0,0,0-2.409.343A33.928,33.928,0,0,0,582.789,134.779Z" transform="translate(-582.096 -129.187)" fill="#7c4208"/>
              <path id="Trazado_909261" data-name="Trazado 909261" d="M592.664,133.015A9.014,9.014,0,0,1,595.538,131a11.806,11.806,0,0,1,3.405-.988,9.686,9.686,0,0,1,3.591.252,6.591,6.591,0,0,1,3.062,1.807,24.651,24.651,0,0,0-3.291-.416,21.862,21.862,0,0,0-3.148.151C597.049,132.06,594.971,132.571,592.664,133.015Z" transform="translate(-575.356 -129.953)" fill="#7c4208"/>
              <path id="Trazado_909262" data-name="Trazado 909262" d="M603.99,140.492a3.921,3.921,0,0,1,.907-3.173,4.254,4.254,0,0,1,2.921-1.541,13.993,13.993,0,0,0-2.273,2.076A10.1,10.1,0,0,0,603.99,140.492Z" transform="translate(-567.668 -125.977)" fill="#b26b4d"/>
            </g>
            <path id="Trazado_909263" data-name="Trazado 909263" d="M619.554,124.165l-.37,5.7c-1.918-.286-3.7-.623-4.543-.707-.589-.05-1.161-.1-1.733-.135a92.266,92.266,0,0,0-15.227.4c-3.331.32-6.73.236-10.061.5a188.9,188.9,0,0,1,24.565-4.947C614.591,124.67,617.047,124.4,619.554,124.165Z" transform="translate(-574.277 -124.165)" opacity="0.44"/>
          </g>
        </g>
        <g id="Grupo_1117836" data-name="Grupo 1117836" transform="translate(17.728 178.043)">
          <g id="Grupo_1117834" data-name="Grupo 1117834" transform="translate(0 228.622)">
            <path id="Trazado_909264" data-name="Trazado 909264" d="M578.64,422.082l-4.93-23.539-1.716-8.16a12.719,12.719,0,0,0-12.467-10.129H555.32l7.1-27.442c1.043,0,2.171-.017,3.264-.067l12,.909.673,47.885Z" transform="translate(-531.033 -352.56)" fill="#3a3a3a"/>
            <path id="Trazado_909265" data-name="Trazado 909265" d="M581.849,379.22l6.638,31.706-6.818,2.875a41.572,41.572,0,0,1-35.087-1.3l-5.7-2.931,7.036-30.582a12.733,12.733,0,0,1,12.424-9.893h9.025A12.742,12.742,0,0,1,581.849,379.22Z" transform="translate(-540.885 -341.402)" fill="#686868"/>
            <path id="Trazado_909266" data-name="Trazado 909266" d="M565.86,352.887l-7.1,27.442-7.033-25.2-1.447-.151a40.06,40.06,0,0,0,3.617-2.339h5.3S562.192,352.887,565.86,352.887Z" transform="translate(-534.473 -352.635)" fill="#262626"/>
            <path id="Trazado_909267" data-name="Trazado 909267" d="M565.169,379.381H560.34a12.777,12.777,0,0,0-12.417,9.893l-7.033,30.572.757-54.447.084-5.8a52.9,52.9,0,0,0,14.958-5.569l1.447.151Z" transform="translate(-540.882 -351.686)" fill="#3a3a3a"/>
            <path id="Trazado_909268" data-name="Trazado 909268" d="M540.885,409.934c1.642-8.8,3.478-17.555,5.34-26.3A49.061,49.061,0,0,1,547.857,377a13.571,13.571,0,0,1,10.819-8.288,27.756,27.756,0,0,1,3.454-.135l3.353-.02,3.355.018a14.491,14.491,0,0,1,3.518.362,13.57,13.57,0,0,1,9.956,9.311c.59,2.3.915,4.415,1.358,6.639l2.5,13.183c.769,4.408,1.6,8.8,2.315,13.223-1.117-4.336-2.12-8.7-3.183-13.041l-2.995-13.08c-.52-2.144-.964-4.44-1.493-6.469a12.013,12.013,0,0,0-3.34-5.236,11.83,11.83,0,0,0-5.5-2.842,12.607,12.607,0,0,0-3.139-.279l-3.355.018-3.353-.02a26.134,26.134,0,0,0-3.244.079,11.783,11.783,0,0,0-5.751,2.29A12,12,0,0,0,549.3,377.6a20.014,20.014,0,0,0-.912,3.088l-.811,3.256C545.429,392.624,543.254,401.3,540.885,409.934Z" transform="translate(-540.885 -341.768)" fill="#262626"/>
            <path id="Trazado_909269" data-name="Trazado 909269" d="M587.9,401.613c-1.565-.976-3.1-2-4.644-2.995-1.918-1.245-3.836-2.473-5.8-3.651a153.546,153.546,0,0,1-20.073-14.352c-4.879-4-9.574-8.244-14.032-12.518-.5-.488-1.228-1.094-2-1.75l.084-5.8a52.9,52.9,0,0,0,14.958-5.569A40.016,40.016,0,0,0,560,352.635h5.3s2.995.252,6.663.252c1.043,0,2.171-.017,3.264-.067l12,.909Z" transform="translate(-540.574 -352.635)" opacity="0.3" style="mix-blend-mode: overlay;isolation: isolate"/>
          </g>
          <g id="Grupo_1117835" data-name="Grupo 1117835" transform="translate(4.231)">
            <path id="Trazado_909270" data-name="Trazado 909270" d="M556.266,216.949c1.23,0,2.226,2.044,2.226,4.558,0,2.5-1,4.539-2.226,4.539l-.253-.019c-1.1-.252-1.972-2.187-1.972-4.521C554.042,218.993,555.038,216.949,556.266,216.949Z" transform="translate(-536.136 -216.623)" fill="#4f3209"/>
            <path id="Trazado_909271" data-name="Trazado 909271" d="M563.893,439.794h-5.3l-.252-3.483-5.62-77.009-6.427-87.794-2.49-34.172-.4-5.569a2.661,2.661,0,0,0,2.574,1.952,2.15,2.15,0,0,0,.336-.017,2.62,2.62,0,0,0,2.305-2.793c-.034-.471-.067-.959-.1-1.481l.286-.017c2.473-.353,3.8-2.255,4.509-4.476l.051,1.178.858,17.448,1.026,20.712.925,18.811,1.615,32.607,2.1,42.871L563.657,435Z" transform="translate(-543.4 -211.172)" fill="#765216"/>
            <path id="Trazado_909272" data-name="Trazado 909272" d="M558.984,226.16l-1.481-.151-3.618-.353-4.105-.4h-.017a25.7,25.7,0,0,0-.084-2.793,21.2,21.2,0,0,1,1.262-5.7h.017l5,.2,1.329.05,1.952.067c-1.228,0-2.221,2.053-2.221,4.56C557.016,223.973,557.891,225.908,558.984,226.16Z" transform="translate(-539.114 -216.755)" fill="#765216"/>
            <path id="Trazado_909273" data-name="Trazado 909273" d="M553.361,226.113l.858,17.448c-.841-.572-1.682-1.178-2.557-1.767a84.124,84.124,0,0,0-7.857-4.459l-.4-5.569a2.661,2.661,0,0,0,2.574,1.952,2.147,2.147,0,0,0,.336-.017,2.62,2.62,0,0,0,2.305-2.793c-.034-.471-.067-.959-.1-1.481l.286-.017c2.473-.353,3.8-2.255,4.509-4.476Z" transform="translate(-543.4 -211.172)" opacity="0.3" style="mix-blend-mode: overlay;isolation: isolate"/>
            <path id="Trazado_909274" data-name="Trazado 909274" d="M554.66,219.5a13.814,13.814,0,0,0-.774,6.158l-4.105-.4h-.017a25.7,25.7,0,0,0-.084-2.793,21.2,21.2,0,0,1,1.262-5.7h.017l5,.2A20.1,20.1,0,0,0,554.66,219.5Z" transform="translate(-539.114 -216.755)" opacity="0.3" style="mix-blend-mode: overlay;isolation: isolate"/>
          </g>
        </g>
        <g id="Grupo_1117837" data-name="Grupo 1117837" transform="translate(10.705 124.942)">
          <path id="Trazado_909275" data-name="Trazado 909275" d="M585.94,203.551a37.459,37.459,0,0,0-7.117,3.735,46.6,46.6,0,0,0-15.042,17.246,38.907,38.907,0,0,0-2.423,5.519v.017l-.2.236a14.727,14.727,0,0,1,4.98,8.244l-6.326-.252h-.017a21.209,21.209,0,0,0-1.262,5.7,25.722,25.722,0,0,1,.084,2.793,18.736,18.736,0,0,1-.74,5.266c-.707,2.221-2.036,4.122-4.509,4.476l-.286.017c.034.522.067,1.01.1,1.481a2.62,2.62,0,0,1-2.305,2.793,2.145,2.145,0,0,1-.336.017,2.661,2.661,0,0,1-2.574-1.952,55.169,55.169,0,0,1-1.329-6.057c-2.608-.538-4.139-2.591-5-5.115-7.5-2.271-4.206-14.217-4.206-14.217,0-2.44,3.971-5.233,3.971-5.233l.774-13.023a19.754,19.754,0,0,1,2.742-9.086c5.081-8.413,14.453-16.32,18.491-19.5,1.127-.892,1.834-1.413,1.918-1.464,5.62,1.767,14.621,5.906,18.659,14.773A19.5,19.5,0,0,0,585.94,203.551Z" transform="translate(-536.711 -185.195)" fill="#fcbe95"/>
          <path id="Trazado_909276" data-name="Trazado 909276" d="M550.051,221.808l7.723.759c-.851,5.788-8.43,5.68-8.43,5.68l-.054-1.176a18.659,18.659,0,0,0,.742-5.263Z" transform="translate(-528.125 -160.206)" fill="#d69270"/>
          <path id="Trazado_909277" data-name="Trazado 909277" d="M543.267,232.437a.906.906,0,0,1-.89-.754,39.093,39.093,0,0,1-.12-14.556.905.905,0,0,1,1.77.379,37.27,37.27,0,0,0,.133,13.874.906.906,0,0,1-.74,1.043A.942.942,0,0,1,543.267,232.437Z" transform="translate(-533.352 -163.889)" fill="#b26b4d"/>
          <path id="Trazado_909278" data-name="Trazado 909278" d="M547.082,235.658a.9.9,0,0,1-.9-.851c-.394-6.772-.668-16.657-.671-16.756a.9.9,0,0,1,.88-.929h.025a.9.9,0,0,1,.9.878c0,.1.276,9.957.668,16.7a.9.9,0,0,1-.85.954Z" transform="translate(-530.708 -163.404)" fill="#b26b4d"/>
          <path id="Trazado_909279" data-name="Trazado 909279" d="M540.451,228.2a.905.905,0,0,1-.855-.609c-1.711-4.964-1.013-11.391-.982-11.663a.89.89,0,0,1,1-.8.9.9,0,0,1,.8,1c-.007.062-.68,6.3.9,10.872a.9.9,0,0,1-.855,1.2Z" transform="translate(-535.526 -164.77)" fill="#b26b4d"/>
          <path id="Trazado_909280" data-name="Trazado 909280" d="M575.109,203.551a37.448,37.448,0,0,0-7.117,3.735c-.32-.976-.555-1.868-.774-2.356a45.738,45.738,0,0,0-4.459-8.884c-2.692-3.786-6.579-6.612-10.179-9.389,1.127-.892,1.834-1.413,1.918-1.464,5.62,1.767,14.621,5.906,18.659,14.773A19.506,19.506,0,0,0,575.109,203.551Z" transform="translate(-525.88 -185.195)" fill="#d69270"/>
          <path id="Trazado_909281" data-name="Trazado 909281" d="M559.345,209.264a38.9,38.9,0,0,0-2.423,5.519,42.934,42.934,0,0,0-13.713-4.257c2.524-1.582,6.377-3.214,9.91-2.928C555.24,207.783,557.579,208.086,559.345,209.264Z" transform="translate(-532.276 -169.927)" fill="#d69270"/>
          <path id="Trazado_909282" data-name="Trazado 909282" d="M554.986,214.867a.9.9,0,0,1-.582-.212,18.031,18.031,0,0,0-7.894-3.723.9.9,0,0,1,.276-1.787,19.615,19.615,0,0,1,8.781,4.126.9.9,0,0,1-.58,1.6Z" transform="translate(-530.546 -168.855)" fill="#b26b4d"/>
          <path id="Trazado_909283" data-name="Trazado 909283" d="M549.659,232.29a.876.876,0,0,1-.276-.044.9.9,0,0,1-.587-1.136,17.838,17.838,0,0,0,.7-5,23.313,23.313,0,0,0-.084-2.7.776.776,0,0,1,0-.2,22.462,22.462,0,0,1,1.328-5.939,5.187,5.187,0,0,1,.867-1.508A.9.9,0,0,1,552.934,217a4.155,4.155,0,0,0-.525.971,20.576,20.576,0,0,0-1.19,5.355,26.221,26.221,0,0,1,.084,2.817,19.709,19.709,0,0,1-.782,5.517A.908.908,0,0,1,549.659,232.29Z" transform="translate(-528.492 -164.519)" fill="#b26b4d"/>
        </g>
        <g id="Grupo_1117838" data-name="Grupo 1117838" transform="translate(104.521 160.578)">
          <path id="Trazado_909284" data-name="Trazado 909284" d="M681.072,226.061a31.117,31.117,0,0,1-6.259,7.1c-9.658,8.48-25.238,16.22-28.384,17.751a7.179,7.179,0,0,1-1.11.488c-1.952.723-3.8,1.363-5.536,1.918-27.627,8.968-27.627-1.178-27.627-1.178l.017-.051c-21.907-3.079-18.525-11.323-18.525-11.323a2.748,2.748,0,0,1-1.11-2.86c.067-.185.135-.387.219-.589a2.748,2.748,0,0,1,3.264-1.346l9.708,3.214a32.215,32.215,0,0,0,8.379,2.019c5.064.454,7.756-.824,7.756-.824l-7.942-6.108a2.95,2.95,0,0,1,2.928-5.064l15.109,6.242c6.107-.522,11.525-3.92,16.068-8.228a58.983,58.983,0,0,0,6.764-7.79,76.522,76.522,0,0,0,5.1-7.925c1.666-2.961,2.574-4.98,2.574-4.98l.067-.151a5.858,5.858,0,0,1,3.129,2.507l.185.017a12.982,12.982,0,0,0,1.464,8.615c.875,1.464,2.154,3.012,3.9,3.214,1.7.185,2.827-1.178,4.459-1.228C679.591,219.4,679.608,223.436,681.072,226.061Z" transform="translate(-592.47 -206.375)" fill="#fcbe95"/>
          <path id="Trazado_909285" data-name="Trazado 909285" d="M655.791,226.061a31.123,31.123,0,0,1-6.259,7.1c-.219-.3-.437-.606-.656-.892a25.444,25.444,0,0,0-5.771-5.3c-1.868-1.329-3.55-3.079-5.62-4.122-1.4-.723-2.995-1.144-4.425-1.851-1.144-.555-2.372-1.094-3.55-1.565a76.5,76.5,0,0,0,5.1-7.925c1.666-2.961,2.574-4.98,2.574-4.98l.067-.151a5.858,5.858,0,0,1,3.129,2.507l.185.017a12.983,12.983,0,0,0,1.464,8.615c.875,1.464,2.154,3.012,3.9,3.214,1.7.185,2.827-1.178,4.459-1.228C654.31,219.4,654.327,223.436,655.791,226.061Z" transform="translate(-567.189 -206.375)" fill="#d69270"/>
          <path id="Trazado_909286" data-name="Trazado 909286" d="M610.146,234.016c-7.238,0-13.655-3.654-17.13-6.092a.9.9,0,1,1,1.04-1.479c3.1,2.177,11.236,7.063,19.672,5.421a.9.9,0,1,1,.347,1.775A20.475,20.475,0,0,1,610.146,234.016Z" transform="translate(-592.36 -192.789)" fill="#b26b4d"/>
          <path id="Trazado_909287" data-name="Trazado 909287" d="M614.481,235.225c-1.381-.143-2.677-.288-3.892-.447-.586-.082-1.151-.168-1.7-.257-5.534-.9-9.755-2.231-12.547-3.956a.9.9,0,1,0-.951,1.54c3,1.849,7.438,3.262,13.208,4.2.56.091,1.139.178,1.745.264,1.237.163,2.549.308,3.949.454a.9.9,0,1,0,.187-1.8Z" transform="translate(-590.768 -189.957)" fill="#b26b4d"/>
        </g>
      </g>
    </g>
  </g>
</svg>
