<svg xmlns="http://www.w3.org/2000/svg" xmlns:xlink="http://www.w3.org/1999/xlink" width="117.999" height="118" viewBox="0 0 117.999 118">
  <defs>
    <filter id="Trazado_874925" x="0" y="0" width="117.999" height="118" filterUnits="userSpaceOnUse">
      <feOffset dy="3" input="SourceAlpha"/>
      <feGaussianBlur stdDeviation="3" result="blur"/>
      <feFlood flood-opacity="0.161"/>
      <feComposite operator="in" in2="blur"/>
      <feComposite in="SourceGraphic"/>
    </filter>
  </defs>
  <g id="Grupo_1112464" data-name="Grupo 1112464" transform="translate(-793.782 -1933.999)">
    <g id="Grupo_1111552" data-name="Grupo 1111552" transform="translate(-5.719 -577.158)">
      <g id="Grupo_1111316" data-name="Grupo 1111316" transform="translate(808.5 2517.157)">
        <g id="Grupo_1109835" data-name="Grupo 1109835" transform="translate(0 0)">
          <g id="Grupo_1107913" data-name="Grupo 1107913" transform="translate(0 0)">
            <g transform="matrix(1, 0, 0, 1, -9, -6)" filter="url(#Trazado_874925)">
              <g id="Trazado_874925-2" data-name="Trazado 874925" transform="translate(9 6)" fill="#fc0" opacity="0.859">
                <path d="M 49.99972534179688 98.4998779296875 C 43.45164108276367 98.4998779296875 37.10022354125977 97.21776580810547 31.12189674377441 94.68914794921875 C 25.34676742553711 92.24647521972656 20.15985298156738 88.74925994873047 15.70523929595947 84.29464721679688 C 11.25062561035156 79.84004974365234 7.753411293029785 74.65313720703125 5.310725212097168 68.87800598144531 C 2.782111167907715 62.89969253540039 1.499996781349182 56.54829406738281 1.499996781349182 50.00022125244141 C 1.499996781349182 43.45157623291016 2.782111167907715 37.10017776489258 5.310725212097168 31.12186431884766 C 7.753411293029785 25.34673500061035 11.25062561035156 20.15983581542969 15.70523929595947 15.70522117614746 C 20.15985298156738 11.25062084197998 25.34676742553711 7.753406524658203 31.12189674377441 5.31073522567749 C 37.10022354125977 2.782120943069458 43.45164108276367 1.500006556510925 49.99972534179688 1.500006556510925 C 56.54780960083008 1.500006556510925 62.89922714233398 2.782120943069458 68.87755584716797 5.31073522567749 C 74.65267944335938 7.753406524658203 79.839599609375 11.25062084197998 84.29421234130859 15.70522117614746 C 88.74882507324219 20.15983581542969 92.24604034423828 25.34673500061035 94.68872833251953 31.12186431884766 C 97.21733856201172 37.10017776489258 98.49945068359375 43.45157623291016 98.49945068359375 49.99964904785156 C 98.49945068359375 56.54829406738281 97.21733856201172 62.89969253540039 94.68872833251953 68.87800598144531 C 92.24604034423828 74.65313720703125 88.74882507324219 79.84004974365234 84.29421234130859 84.29464721679688 C 79.839599609375 88.74925994873047 74.65267944335938 92.24647521972656 68.87755584716797 94.68914794921875 C 62.89922714233398 97.21776580810547 56.54780960083008 98.4998779296875 49.99972534179688 98.4998779296875 Z" stroke="none"/>
                <path d="M 49.99972534179688 3 C 43.65348052978516 3 37.49866485595703 4.242240905761719 31.70623016357422 6.692230224609375 C 26.10989379882812 9.059272766113281 21.08323669433594 12.44853210449219 16.76589202880859 16.76587677001953 C 12.44855499267578 21.08321380615234 9.059295654296875 26.10985565185547 6.692230224609375 31.70618438720703 C 4.24224853515625 37.49859619140625 3 43.65341186523438 3 50.00022888183594 C 3 56.34645843505859 4.24224853515625 62.50127410888672 6.692230224609375 68.29368591308594 C 9.059295654296875 73.8900146484375 12.44855499267578 78.91665649414062 16.76589202880859 83.23399353027344 C 21.08323669433594 87.55132293701172 26.10989379882812 90.94059753417969 31.70623016357422 93.30764007568359 C 37.49866485595703 95.75762939453125 43.65348052978516 96.99987030029297 49.99972534179688 96.99987030029297 C 56.34597015380859 96.99987030029297 62.50078582763672 95.75762939453125 68.293212890625 93.30764007568359 C 73.88955688476562 90.94059753417969 78.91621398925781 87.55132293701172 83.23355865478516 83.23399353027344 C 87.55089569091797 78.91665649414062 90.94015502929688 73.8900146484375 93.30722045898438 68.29368591308594 C 95.7572021484375 62.50127410888672 96.99945068359375 56.34645843505859 96.99945068359375 49.99964141845703 C 96.99945068359375 43.65341186523438 95.7572021484375 37.49859619140625 93.30722045898438 31.70618438720703 C 90.94015502929688 26.10985565185547 87.55089569091797 21.08321380615234 83.23355865478516 16.76587677001953 C 78.91621398925781 12.44853210449219 73.88955688476562 9.059272766113281 68.293212890625 6.692230224609375 C 62.50078582763672 4.242240905761719 56.34597015380859 3 49.99972534179688 3 M 49.99972534179688 0 C 77.61381530761719 0 99.99945068359375 22.38559722900391 99.99945068359375 49.99964141845703 L 99.99945068359375 50.00022888183594 C 99.99945068359375 77.6142578125 77.61381530761719 99.99987030029297 49.99972534179688 99.99987030029297 C 22.38563537597656 99.99987030029297 0 77.6142578125 0 50.00022888183594 L 0 49.99964141845703 C 0 22.38559722900391 22.38563537597656 0 49.99972534179688 0 Z" stroke="none" fill="#fff"/>
              </g>
            </g>
            <g id="Trazado_874923" data-name="Trazado 874923" transform="translate(0 0)" fill="none">
              <path d="M50,0a50,50,0,0,1,50,50h0A50,50,0,0,1,0,50H0A50,50,0,0,1,50,0Z" stroke="none"/>
              <path d="M 49.99972534179688 3 C 43.65348052978516 3 37.49866485595703 4.242240905761719 31.70623016357422 6.692230224609375 C 26.10989379882812 9.059272766113281 21.08323669433594 12.44853210449219 16.76589202880859 16.76587677001953 C 12.44855499267578 21.08321380615234 9.059295654296875 26.10985565185547 6.692230224609375 31.70618438720703 C 4.24224853515625 37.49859619140625 3 43.65341186523438 3 50.00022888183594 C 3 56.34645843505859 4.24224853515625 62.50127410888672 6.692230224609375 68.29368591308594 C 9.059295654296875 73.8900146484375 12.44855499267578 78.91665649414062 16.76589202880859 83.23399353027344 C 21.08323669433594 87.55132293701172 26.10989379882812 90.94059753417969 31.70623016357422 93.30764007568359 C 37.49866485595703 95.75762939453125 43.65348052978516 96.99987030029297 49.99972534179688 96.99987030029297 C 56.34597015380859 96.99987030029297 62.50078582763672 95.75762939453125 68.293212890625 93.30764007568359 C 73.88955688476562 90.94059753417969 78.91621398925781 87.55132293701172 83.23355865478516 83.23399353027344 C 87.55089569091797 78.91665649414062 90.94015502929688 73.8900146484375 93.30722045898438 68.29368591308594 C 95.7572021484375 62.50127410888672 96.99945068359375 56.34645843505859 96.99945068359375 49.99964141845703 C 96.99945068359375 43.65341186523438 95.7572021484375 37.49859619140625 93.30722045898438 31.70618438720703 C 90.94015502929688 26.10985565185547 87.55089569091797 21.08321380615234 83.23355865478516 16.76587677001953 C 78.91621398925781 12.44853210449219 73.88955688476562 9.059272766113281 68.293212890625 6.692230224609375 C 62.50078582763672 4.242240905761719 56.34597015380859 3 49.99972534179688 3 M 49.99972534179688 0 C 77.61381530761719 0 99.99945068359375 22.38559722900391 99.99945068359375 49.99964141845703 L 99.99945068359375 50.00022888183594 C 99.99945068359375 77.6142578125 77.61381530761719 99.99987030029297 49.99972534179688 99.99987030029297 C 22.38563537597656 99.99987030029297 0 77.6142578125 0 50.00022888183594 L 0 49.99964141845703 C 0 22.38559722900391 22.38563537597656 0 49.99972534179688 0 Z" stroke="none" fill="#fff"/>
            </g>
          </g>
        </g>
      </g>
    </g>
    <g id="Grupo_1119207" data-name="Grupo 1119207" transform="translate(807.256 1957.955)">
      <path id="Trazado_913775" data-name="Trazado 913775" d="M61.827,29.83v6.5H49.62V22.62h6.769l-.005.005c-.05.08-.105.165-.15.25a4.706,4.706,0,0,0-.24.436,6.357,6.357,0,0,0-.406,1,4.714,4.714,0,0,0-.125.456c-.01.03-.025.085-.025.085a4.26,4.26,0,0,0,1.933,4.706,4.334,4.334,0,0,0,4.456.27Z" transform="translate(-11.295 -11.294)" fill="#fc785e"/>
      <path id="Trazado_913776" data-name="Trazado 913776" d="M60.556,33.769A4.4,4.4,0,0,1,58.6,31.06a3,3,0,1,0,3.385,3.335A4.325,4.325,0,0,1,60.556,33.769ZM59,35.035a1,1,0,1,1,1-1,1,1,0,0,1-1,1Z" transform="translate(-14.48 -15.509)" fill="#050505"/>
      <circle id="Elipse_11875" data-name="Elipse 11875" cx="1" cy="1" r="1" transform="translate(43.05 18)" fill="#e1ebf4"/>
      <path id="Trazado_913777" data-name="Trazado 913777" d="M62.048,0h-3a1.991,1.991,0,0,0-1.552.751H45.906a2.319,2.319,0,0,0-1.727.761l-4.1,4.571a2.2,2.2,0,0,0-.561,1.462v2.468h-1a1,1,0,0,0-1,1v9.012h-3.5a1.008,1.008,0,0,0-.8.4L27.2,28.439c-.015.02-.03.045-.045.07s-.03.05-.045.08a.8.8,0,0,0-.05.115.44.44,0,0,1-.025.075,1.37,1.37,0,0,0-.025.14.251.251,0,0,1-.01.06,1.408,1.408,0,0,0,.01.205l5.062,34.047a1,1,0,0,0,.991.856H55.985a1.006,1.006,0,0,0,.991-.856l5.062-34.047V29.15a1,1,0,0,0,.005-.125v-.08a1.107,1.107,0,0,0-.025-.125L62,28.745c-.015-.045-.035-.085-.055-.13-.01-.02-.015-.04-.025-.06-.025-.04-.055-.08-.085-.12a.306.306,0,0,0-.035-.05,0,0,0,0,0,0,0h0l-7.01-8.011a1,1,0,0,0-.751-.34h-2.5v-2.2a4.289,4.289,0,0,1-2,1.081v5.127H39.517V12.017H44.7a6.939,6.939,0,0,1,.926-1.4l.461-.6H44.464V9.468l1.447-1.587,1.777.34.581,2.233-1.1,1.437a4.861,4.861,0,0,0-1.061,2.083.018.018,0,0,0,0,.015,2.3,2.3,0,0,0,1.112,2.624,2.338,2.338,0,0,0,3.094-.4l2.629-3.1A10.952,10.952,0,0,0,57.011,10.2h.426a2,2,0,0,0,1.607.816h3a2,2,0,0,0,2-2V2a2,2,0,0,0-2-2ZM55.123,62.086h-21.2L29.163,30.041H59.885Zm-3.089-36.05a1,1,0,1,0,0-2h-.5v-2h2.048l5.257,6.008H30L34.51,22.03h3v2h-.5a1,1,0,0,0,0,2ZM57.041,8.2h-.5a.982.982,0,0,0-.781.376,8.82,8.82,0,0,1-3.715,2.734.989.989,0,0,0-.471.305l-2.8,3.31a.338.338,0,0,1-.431.04c-.28-.19-.315-.27-.315-.27a.564.564,0,0,1,.02-.245c0-.01.005-.025.005-.04a2.887,2.887,0,0,1,.646-1.227c.01-.015.025-.03.035-.045l1.417-1.848a1,1,0,0,0,.17-.861L49.511,7.26a1,1,0,0,0-.065-.17,1,1,0,0,0-.771-.721L45.74,5.808a1,1,0,0,0-.931.305L42.721,8.407a1,1,0,0,0-.26.671v.936H41.52V7.545a.182.182,0,0,1,.05-.125l4.1-4.571a.317.317,0,0,1,.235-.1H57.041Zm5.007.816h-3V2h3Z" transform="translate(0 0)"/>
      <path id="Trazado_913778" data-name="Trazado 913778" d="M61.835,50.008H33L37.506,44h3v2h-.5a1,1,0,0,0,0,2H55.03a1,1,0,0,0,0-2h-.5V44h2.048Z" transform="translate(-2.996 -21.97)" fill="#e1ebf4"/>
      <path id="Trazado_913779" data-name="Trazado 913779" d="M62.042,60,57.281,92.044h-21.2L31.32,60Z" transform="translate(-2.157 -29.959)" fill="#9387a2"/>
      <path id="Trazado_913780" data-name="Trazado 913780" d="M91,4h3v7.01H91Z" transform="translate(-31.956 -1.997)" fill="#ffdb80"/>
      <path id="Trazado_913781" data-name="Trazado 913781" d="M71.521,5.5v5.443h-.5a.982.982,0,0,0-.781.376,8.82,8.82,0,0,1-3.715,2.734.989.989,0,0,0-.471.305l-2.8,3.31a.338.338,0,0,1-.431.04c-.28-.19-.315-.27-.315-.27a.564.564,0,0,1,.02-.245c0-.01.005-.025.005-.04a2.887,2.887,0,0,1,.646-1.227c.01-.015.025-.03.035-.045l1.417-1.848a1,1,0,0,0,.17-.861l-.816-3.164a1,1,0,0,0-.065-.17,1,1,0,0,0-.771-.721l-2.934-.561a1,1,0,0,0-.931.305L57.2,11.153a1,1,0,0,0-.26.671v.936H56V10.291a.182.182,0,0,1,.05-.125l4.1-4.571a.317.317,0,0,1,.235-.1Z" transform="translate(-14.48 -2.746)" fill="#e1ebf4"/>
      <g id="Grupo_1119206" data-name="Grupo 1119206" transform="translate(33.826 36.05)">
        <path id="Trazado_913782" data-name="Trazado 913782" d="M48.258,76.132a2.892,2.892,0,0,1,.43.172,7.478,7.478,0,0,1,10.565-.228,2.958,2.958,0,0,1,.956.377,2.963,2.963,0,0,1,1.57-.448h.049a9.492,9.492,0,0,0-15.677.271,3.011,3.011,0,0,1,2.106-.145Z" transform="translate(-43.389 -72)" fill="#050505"/>
        <path id="Trazado_913783" data-name="Trazado 913783" d="M60.021,100.393a7.493,7.493,0,0,1-11.484.055,3.477,3.477,0,0,1-.322-.256,2.975,2.975,0,0,1-1.728.872A9.487,9.487,0,0,0,62,101.1h-.049a2.988,2.988,0,0,1-1.925-.7Z" transform="translate(-43.556 -86.077)" fill="#050505"/>
        <path id="Trazado_913784" data-name="Trazado 913784" d="M40.676,85.289l1.5,5.007a1,1,0,0,0,1.919,0l1.5-5.007a1,1,0,1,0-1.919-.575l-.543,1.81-.543-1.81a1,1,0,1,0-1.919.576Z" transform="translate(-40.634 -77.991)" fill="#050505"/>
        <path id="Trazado_913785" data-name="Trazado 913785" d="M53.137,91.01h2a1.5,1.5,0,0,0,1.5-1.5V85.5a1.5,1.5,0,0,0-1.5-1.5h-2a1.5,1.5,0,0,0-1.5,1.5v4.006a1.5,1.5,0,0,0,1.5,1.5Zm.5-5.007h1v3h-1Z" transform="translate(-46.127 -77.992)" fill="#050505"/>
        <path id="Trazado_913786" data-name="Trazado 913786" d="M66.159,91.01a1,1,0,0,0,1-1V86h.313a1,1,0,0,0,0-2H64.844a1,1,0,0,0,0,2h.313v4.006a1,1,0,0,0,1,1Z" transform="translate(-52.222 -77.992)" fill="#050505"/>
        <path id="Trazado_913787" data-name="Trazado 913787" d="M75.365,85v5.007a1,1,0,0,0,1,1h2a1,1,0,1,0,0-2h-1v-.5h.5a1,1,0,1,0,0-2h-.5V86h1a1,1,0,1,0,0-2h-2a1,1,0,0,0-1,1Z" transform="translate(-57.975 -77.992)" fill="#050505"/>
      </g>
      <path id="Trazado_913788" data-name="Trazado 913788" d="M52,46H62.014v1H52Z" transform="translate(-12.483 -22.968)" fill="#a54b3f" opacity="0.5"/>
      <path id="Trazado_913789" data-name="Trazado 913789" d="M91,16h3v1H91Z" transform="translate(-31.956 -7.989)" fill="#ad9359" opacity="0.45"/>
      <path id="Trazado_913790" data-name="Trazado 913790" d="M91,4h3V5H91Z" transform="translate(-31.956 -1.997)" fill="#f9edd2" opacity="0.5"/>
      <path id="Trazado_913791" data-name="Trazado 913791" d="M71.521,5.5v1H60.386a.317.317,0,0,0-.235.1l-4.1,4.571a.182.182,0,0,0-.05.125v-1a.182.182,0,0,1,.05-.125l4.1-4.571a.317.317,0,0,1,.235-.1Z" transform="translate(-14.48 -2.746)" fill="#fff" opacity="0.5"/>
      <path id="Trazado_913792" data-name="Trazado 913792" d="M78.012,14.37v1h-.5a.982.982,0,0,0-.781.376,8.82,8.82,0,0,1-3.715,2.734.989.989,0,0,0-.471.305l-2.8,3.31a.338.338,0,0,1-.431.04c-.28-.19-.315-.27-.315-.27a.564.564,0,0,1,.02-.245c0-.01.005-.025.005-.04a2.573,2.573,0,0,1,.18-.521c.03.02.07.045.11.075a.338.338,0,0,0,.431-.04l2.8-3.31a.989.989,0,0,1,.471-.305,8.82,8.82,0,0,0,3.715-2.734.982.982,0,0,1,.781-.376Z" transform="translate(-20.971 -7.175)" fill="#9fa5aa" opacity="0.5"/>
      <path id="Trazado_913793" data-name="Trazado 913793" d="M52,24h5.182a6.358,6.358,0,0,0-.406,1H52Z" transform="translate(-12.483 -11.983)" fill="#f9dbd7" opacity="0.3"/>
      <path id="Trazado_913794" data-name="Trazado 913794" d="M40.51,44v1h-3l-3.755,5.007H33L37.506,44Z" transform="translate(-2.996 -21.97)" fill="#fff" opacity="0.5"/>
      <path id="Trazado_913795" data-name="Trazado 913795" d="M83.305,50.008h-.876L78.048,45H76V44h2.048Z" transform="translate(-24.467 -21.97)" fill="#fff" opacity="0.5"/>
      <path id="Trazado_913796" data-name="Trazado 913796" d="M62.042,60l-.15,1H31.47l-.15-1Z" transform="translate(-2.157 -29.959)" fill="#dccef2" opacity="0.2"/>
      <path id="Trazado_913797" data-name="Trazado 913797" d="M62.042,60,57.281,92.044h-21.2L31.32,60h.15l4.611,31.043h21.2L61.892,60Z" transform="translate(-2.157 -29.959)" fill="#5f5968" opacity="0.5"/>
    </g>
  </g>
</svg>
