<svg xmlns="http://www.w3.org/2000/svg" xmlns:xlink="http://www.w3.org/1999/xlink" width="118" height="118" viewBox="0 0 118 118">
  <defs>
    <filter id="Trazado_874925" x="0" y="0" width="117.999" height="118" filterUnits="userSpaceOnUse">
      <feOffset dy="3" input="SourceAlpha"/>
      <feGaussianBlur stdDeviation="3" result="blur"/>
      <feFlood flood-opacity="0.161"/>
      <feComposite operator="in" in2="blur"/>
      <feComposite in="SourceGraphic"/>
    </filter>
  </defs>
  <g id="Grupo_1119209" data-name="Grupo 1119209" transform="translate(-1064.149 -1322.28)">
    <g id="Grupo_1112465" data-name="Grupo 1112465" transform="translate(-43.985 -611.719)">
      <g id="Grupo_1111553" data-name="Grupo 1111553" transform="translate(308.634 -577.158)">
        <g id="Grupo_1111316" data-name="Grupo 1111316" transform="translate(808.5 2517.157)">
          <g id="Grupo_1109835" data-name="Grupo 1109835" transform="translate(0 0)">
            <g id="Grupo_1107913" data-name="Grupo 1107913" transform="translate(0 0)">
              <g transform="matrix(1, 0, 0, 1, -9, -6)" filter="url(#Trazado_874925)">
                <g id="Trazado_874925-2" data-name="Trazado 874925" transform="translate(9 6)" fill="#fc0" opacity="0.859">
                  <path d="M 49.99972534179688 98.4998779296875 C 43.45164108276367 98.4998779296875 37.10022354125977 97.21776580810547 31.12189674377441 94.68914794921875 C 25.34676742553711 92.24647521972656 20.15985298156738 88.74925994873047 15.70523929595947 84.29464721679688 C 11.25062561035156 79.84004974365234 7.753411293029785 74.65313720703125 5.310725212097168 68.87800598144531 C 2.782111167907715 62.89969253540039 1.499996781349182 56.54829406738281 1.499996781349182 50.00022125244141 C 1.499996781349182 43.45157623291016 2.782111167907715 37.10017776489258 5.310725212097168 31.12186431884766 C 7.753411293029785 25.34673500061035 11.25062561035156 20.15983581542969 15.70523929595947 15.70522117614746 C 20.15985298156738 11.25062084197998 25.34676742553711 7.753406524658203 31.12189674377441 5.31073522567749 C 37.10022354125977 2.782120943069458 43.45164108276367 1.500006556510925 49.99972534179688 1.500006556510925 C 56.54780960083008 1.500006556510925 62.89922714233398 2.782120943069458 68.87755584716797 5.31073522567749 C 74.65267944335938 7.753406524658203 79.839599609375 11.25062084197998 84.29421234130859 15.70522117614746 C 88.74882507324219 20.15983581542969 92.24604034423828 25.34673500061035 94.68872833251953 31.12186431884766 C 97.21733856201172 37.10017776489258 98.49945068359375 43.45157623291016 98.49945068359375 49.99964904785156 C 98.49945068359375 56.54829406738281 97.21733856201172 62.89969253540039 94.68872833251953 68.87800598144531 C 92.24604034423828 74.65313720703125 88.74882507324219 79.84004974365234 84.29421234130859 84.29464721679688 C 79.839599609375 88.74925994873047 74.65267944335938 92.24647521972656 68.87755584716797 94.68914794921875 C 62.89922714233398 97.21776580810547 56.54780960083008 98.4998779296875 49.99972534179688 98.4998779296875 Z" stroke="none"/>
                  <path d="M 49.99972534179688 3 C 43.65348052978516 3 37.49866485595703 4.242240905761719 31.70623016357422 6.692230224609375 C 26.10989379882812 9.059272766113281 21.08323669433594 12.44853210449219 16.76589202880859 16.76587677001953 C 12.44855499267578 21.08321380615234 9.059295654296875 26.10985565185547 6.692230224609375 31.70618438720703 C 4.24224853515625 37.49859619140625 3 43.65341186523438 3 50.00022888183594 C 3 56.34645843505859 4.24224853515625 62.50127410888672 6.692230224609375 68.29368591308594 C 9.059295654296875 73.8900146484375 12.44855499267578 78.91665649414062 16.76589202880859 83.23399353027344 C 21.08323669433594 87.55132293701172 26.10989379882812 90.94059753417969 31.70623016357422 93.30764007568359 C 37.49866485595703 95.75762939453125 43.65348052978516 96.99987030029297 49.99972534179688 96.99987030029297 C 56.34597015380859 96.99987030029297 62.50078582763672 95.75762939453125 68.293212890625 93.30764007568359 C 73.88955688476562 90.94059753417969 78.91621398925781 87.55132293701172 83.23355865478516 83.23399353027344 C 87.55089569091797 78.91665649414062 90.94015502929688 73.8900146484375 93.30722045898438 68.29368591308594 C 95.7572021484375 62.50127410888672 96.99945068359375 56.34645843505859 96.99945068359375 49.99964141845703 C 96.99945068359375 43.65341186523438 95.7572021484375 37.49859619140625 93.30722045898438 31.70618438720703 C 90.94015502929688 26.10985565185547 87.55089569091797 21.08321380615234 83.23355865478516 16.76587677001953 C 78.91621398925781 12.44853210449219 73.88955688476562 9.059272766113281 68.293212890625 6.692230224609375 C 62.50078582763672 4.242240905761719 56.34597015380859 3 49.99972534179688 3 M 49.99972534179688 0 C 77.61381530761719 0 99.99945068359375 22.38559722900391 99.99945068359375 49.99964141845703 L 99.99945068359375 50.00022888183594 C 99.99945068359375 77.6142578125 77.61381530761719 99.99987030029297 49.99972534179688 99.99987030029297 C 22.38563537597656 99.99987030029297 0 77.6142578125 0 50.00022888183594 L 0 49.99964141845703 C 0 22.38559722900391 22.38563537597656 0 49.99972534179688 0 Z" stroke="none" fill="#fff"/>
                </g>
              </g>
              <g id="Trazado_874923" data-name="Trazado 874923" transform="translate(0 0)" fill="none">
                <path d="M50,0a50,50,0,0,1,50,50h0A50,50,0,0,1,0,50H0A50,50,0,0,1,50,0Z" stroke="none"/>
                <path d="M 49.99972534179688 3 C 43.65348052978516 3 37.49866485595703 4.242240905761719 31.70623016357422 6.692230224609375 C 26.10989379882812 9.059272766113281 21.08323669433594 12.44853210449219 16.76589202880859 16.76587677001953 C 12.44855499267578 21.08321380615234 9.059295654296875 26.10985565185547 6.692230224609375 31.70618438720703 C 4.24224853515625 37.49859619140625 3 43.65341186523438 3 50.00022888183594 C 3 56.34645843505859 4.24224853515625 62.50127410888672 6.692230224609375 68.29368591308594 C 9.059295654296875 73.8900146484375 12.44855499267578 78.91665649414062 16.76589202880859 83.23399353027344 C 21.08323669433594 87.55132293701172 26.10989379882812 90.94059753417969 31.70623016357422 93.30764007568359 C 37.49866485595703 95.75762939453125 43.65348052978516 96.99987030029297 49.99972534179688 96.99987030029297 C 56.34597015380859 96.99987030029297 62.50078582763672 95.75762939453125 68.293212890625 93.30764007568359 C 73.88955688476562 90.94059753417969 78.91621398925781 87.55132293701172 83.23355865478516 83.23399353027344 C 87.55089569091797 78.91665649414062 90.94015502929688 73.8900146484375 93.30722045898438 68.29368591308594 C 95.7572021484375 62.50127410888672 96.99945068359375 56.34645843505859 96.99945068359375 49.99964141845703 C 96.99945068359375 43.65341186523438 95.7572021484375 37.49859619140625 93.30722045898438 31.70618438720703 C 90.94015502929688 26.10985565185547 87.55089569091797 21.08321380615234 83.23355865478516 16.76587677001953 C 78.91621398925781 12.44853210449219 73.88955688476562 9.059272766113281 68.293212890625 6.692230224609375 C 62.50078582763672 4.242240905761719 56.34597015380859 3 49.99972534179688 3 M 49.99972534179688 0 C 77.61381530761719 0 99.99945068359375 22.38559722900391 99.99945068359375 49.99964141845703 L 99.99945068359375 50.00022888183594 C 99.99945068359375 77.6142578125 77.61381530761719 99.99987030029297 49.99972534179688 99.99987030029297 C 22.38563537597656 99.99987030029297 0 77.6142578125 0 50.00022888183594 L 0 49.99964141845703 C 0 22.38559722900391 22.38563537597656 0 49.99972534179688 0 Z" stroke="none" fill="#fff"/>
              </g>
            </g>
          </g>
        </g>
      </g>
    </g>
    <g id="Grupo_1119208" data-name="Grupo 1119208" transform="translate(1092.068 1342.28)">
      <path id="Trazado_913798" data-name="Trazado 913798" d="M63.994,23.719a13.293,13.293,0,0,1-8.81,12.51,4.4,4.4,0,0,0-.155-.78,4.348,4.348,0,0,0-.36-.875c-.065-.12-.14-.24-.215-.355h1.26a5.012,5.012,0,0,0,4.86-3.82,5.114,5.114,0,0,0,.14-1.18v-2.73a7.1,7.1,0,0,0-3.73-6.435,1.986,1.986,0,0,0-.385-.15,6.222,6.222,0,0,0,.04-.685v-1a5.843,5.843,0,0,0-5.81-6H50.6a5.843,5.843,0,0,0-5.81,6v1a6.221,6.221,0,0,0,.04.685,1.986,1.986,0,0,0-.385.15,7.1,7.1,0,0,0-3.73,6.435v2.73a5.114,5.114,0,0,0,.14,1.18,5.012,5.012,0,0,0,4.86,3.82h1.26c-.075.115-.15.235-.215.355a4.349,4.349,0,0,0-.36.875,4.4,4.4,0,0,0-.155.78,13.282,13.282,0,1,1,17.75-12.51Z" transform="translate(-18.717 -1.219)" fill="#ffdb80"/>
      <path id="Trazado_913799" data-name="Trazado 913799" d="M62.344,34.75h-.3a5.708,5.708,0,0,1-4.829,2.625h-.233a5.708,5.708,0,0,1-4.829-2.625h-.4l-1.562,2.219V40.25l.656,2.719H62.969l1.125-1.156V37.5Z" transform="translate(-25.097 -13.375)" fill="#fc785e"/>
      <path id="Trazado_913800" data-name="Trazado 913800" d="M64,24v1a1.893,1.893,0,0,1-1.81,2h-.23a1.893,1.893,0,0,1-1.81-2V24a1.893,1.893,0,0,1,1.81-2h.23A1.893,1.893,0,0,1,64,24Z" transform="translate(-30.075 -7)" fill="#e1ebf4"/>
      <path id="Trazado_913801" data-name="Trazado 913801" d="M64,46v1a1,1,0,0,1-1,1H53a1,1,0,0,1-1-1V46a1,1,0,0,0,1,1H63a1,1,0,0,0,1-1Z" transform="translate(-26.003 -19)" fill="#a54b3f" opacity="0.5"/>
      <path id="Trazado_913802" data-name="Trazado 913802" d="M64,24v1a1.893,1.893,0,0,0-1.81-2h-.23a1.893,1.893,0,0,0-1.81,2V24a1.893,1.893,0,0,1,1.81-2h.23A1.893,1.893,0,0,1,64,24Z" transform="translate(-30.075 -7)" fill="#fff" opacity="0.5"/>
      <path id="Trazado_913803" data-name="Trazado 913803" d="M64,26v1a1.893,1.893,0,0,1-1.81,2h-.23a1.893,1.893,0,0,1-1.81-2V26a1.893,1.893,0,0,0,1.81,2h.23A1.893,1.893,0,0,0,64,26Z" transform="translate(-30.075 -9)" fill="#9fa5aa" opacity="0.5"/>
      <path id="Trazado_913804" data-name="Trazado 913804" d="M110.344,44.75h-.3a5.708,5.708,0,0,1-4.829,2.625h-.233a5.708,5.708,0,0,1-4.829-2.625h-.4l-1.562,2.219V50.25l.656,2.719h12.125l1.125-1.156V47.5Z" transform="translate(-49.097 -18.375)" fill="#fc785e"/>
      <path id="Trazado_913805" data-name="Trazado 913805" d="M112,34v1a1.893,1.893,0,0,1-1.81,2h-.23a1.893,1.893,0,0,1-1.81-2V34a1.893,1.893,0,0,1,1.81-2h.23A1.893,1.893,0,0,1,112,34Z" transform="translate(-54.075 -12)" fill="#e1ebf4"/>
      <path id="Trazado_913806" data-name="Trazado 913806" d="M112,56v1a1,1,0,0,1-1,1H101a1,1,0,0,1-1-1V56a1,1,0,0,0,1,1h10A1,1,0,0,0,112,56Z" transform="translate(-50.003 -24)" fill="#a54b3f" opacity="0.5"/>
      <path id="Trazado_913807" data-name="Trazado 913807" d="M112,34v1a1.893,1.893,0,0,0-1.81-2h-.23a1.893,1.893,0,0,0-1.81,2V34a1.893,1.893,0,0,1,1.81-2h.23A1.893,1.893,0,0,1,112,34Z" transform="translate(-54.075 -12)" fill="#fff" opacity="0.5"/>
      <path id="Trazado_913808" data-name="Trazado 913808" d="M112,36v1a1.893,1.893,0,0,1-1.81,2h-.23a1.893,1.893,0,0,1-1.81-2V36a1.893,1.893,0,0,0,1.81,2h.23A1.893,1.893,0,0,0,112,36Z" transform="translate(-54.075 -14)" fill="#9fa5aa" opacity="0.5"/>
      <path id="Trazado_913809" data-name="Trazado 913809" d="M14.344,44.75h-.3A5.708,5.708,0,0,1,9.21,47.375H8.977A5.708,5.708,0,0,1,4.148,44.75h-.4L2.187,46.969V50.25l.656,2.719H14.969l1.125-1.156V47.5Z" transform="translate(-1.097 -18.375)" fill="#fc785e"/>
      <path id="Trazado_913810" data-name="Trazado 913810" d="M16,34v1a1.893,1.893,0,0,1-1.81,2h-.23a1.893,1.893,0,0,1-1.81-2V34a1.893,1.893,0,0,1,1.81-2h.23A1.893,1.893,0,0,1,16,34Z" transform="translate(-6.075 -12)" fill="#e1ebf4"/>
      <path id="Trazado_913811" data-name="Trazado 913811" d="M51.815,34.883a6.024,6.024,0,0,1-1.157-1.671A5.114,5.114,0,0,0,48,37.876v2.73a3,3,0,0,0,3,3H61a3,3,0,0,0,3-3v-2.73a5.114,5.114,0,0,0-2.661-4.663,6.023,6.023,0,0,1-1.157,1.671A3.031,3.031,0,0,1,62,37.876v2.73a1,1,0,0,1-1,1H51a1,1,0,0,1-1-1v-2.73A3.031,3.031,0,0,1,51.815,34.883Z" transform="translate(-24 -12.606)"/>
      <path id="Trazado_913812" data-name="Trazado 913812" d="M60.191,27A3.865,3.865,0,0,0,64,23V22a3.865,3.865,0,0,0-3.806-4h-.233a3.865,3.865,0,0,0-3.806,4v1a3.865,3.865,0,0,0,3.806,4Zm-2.04-4V22a1.89,1.89,0,0,1,1.806-2h.233A1.89,1.89,0,0,1,62,22v1a1.89,1.89,0,0,1-1.806,2h-.233a1.89,1.89,0,0,1-1.806-2Z" transform="translate(-28.078 -5)"/>
      <path id="Trazado_913813" data-name="Trazado 913813" d="M109.336,43.212a6.024,6.024,0,0,1-1.157,1.671A3.031,3.031,0,0,1,110,47.876v2.73a1,1,0,0,1-1,1H99a1,1,0,0,1-1-1v-2.73a3.031,3.031,0,0,1,1.818-2.993,6.024,6.024,0,0,1-1.157-1.671A5.114,5.114,0,0,0,96,47.876v2.73a3,3,0,0,0,3,3h10a3,3,0,0,0,3-3v-2.73A5.114,5.114,0,0,0,109.336,43.212Z" transform="translate(-48 -17.606)" fill="#030303"/>
      <path id="Trazado_913814" data-name="Trazado 913814" d="M107.958,37h.233A3.865,3.865,0,0,0,112,33V32a3.865,3.865,0,0,0-3.806-4h-.233a3.865,3.865,0,0,0-3.806,4v1a3.865,3.865,0,0,0,3.806,4Zm-1.806-5a1.89,1.89,0,0,1,1.806-2h.233A1.89,1.89,0,0,1,110,32v1a1.89,1.89,0,0,1-1.806,2h-.233a1.89,1.89,0,0,1-1.806-2Z" transform="translate(-52.078 -10)" fill="#030303"/>
      <path id="Trazado_913815" data-name="Trazado 913815" d="M13.336,43.212a6.023,6.023,0,0,1-1.157,1.671A3.031,3.031,0,0,1,14,47.876v2.73a1,1,0,0,1-1,1H3a1,1,0,0,1-1-1v-2.73a3.031,3.031,0,0,1,1.818-2.993,6.024,6.024,0,0,1-1.157-1.671A5.114,5.114,0,0,0,0,47.876v2.73a3,3,0,0,0,3,3H13a3,3,0,0,0,3-3v-2.73a5.114,5.114,0,0,0-2.661-4.663Z" transform="translate(0 -17.606)" fill="#030303"/>
      <path id="Trazado_913816" data-name="Trazado 913816" d="M12.188,28h-.23a3.867,3.867,0,0,0-3.81,4v1a3.866,3.866,0,0,0,3.81,4h.23A3.867,3.867,0,0,0,16,33V32a3.866,3.866,0,0,0-3.81-4ZM14,33a1.893,1.893,0,0,1-1.81,2h-.23a1.893,1.893,0,0,1-1.81-2V32a1.893,1.893,0,0,1,1.81-2h.23A1.893,1.893,0,0,1,14,32Z" transform="translate(-4.076 -10)" fill="#030303"/>
      <path id="Trazado_913817" data-name="Trazado 913817" d="M49.5,8A14.5,14.5,0,0,0,45,36.282V35.5a4.48,4.48,0,0,1,.185-1.268,12.5,12.5,0,1,1,8.63,0A4.48,4.48,0,0,1,54,35.5v.782A14.5,14.5,0,0,0,49.5,8Z" transform="translate(-17.502 0)"/>
      <path id="Trazado_913818" data-name="Trazado 913818" d="M68.675,79.825l.925-2.05a2.514,2.514,0,0,0,.4-1.36s-.005-8.55-.02-8.615a2.475,2.475,0,0,0-3.37-2.13,2.465,2.465,0,0,0-3.285-.865A2.484,2.484,0,0,0,61.5,64a2.734,2.734,0,0,0-.5.05V60.5a2.5,2.5,0,1,0-5,0v8.05a2.734,2.734,0,0,0-.5-.05A2.5,2.5,0,0,0,53,71v5.43a2.992,2.992,0,0,0,1.335,2.5l3.165,2.11V82.28a1.99,1.99,0,0,0-1,1.72v3a2,2,0,0,0,2,2h9a2,2,0,0,0,2-2V84a1.99,1.99,0,0,0-1-1.72V80.645a2.013,2.013,0,0,1,.175-.82ZM67.5,87h-9V84h9ZM68,76.415a.537.537,0,0,1-.09.29.84.84,0,0,0-.1.17L66.855,79a3.974,3.974,0,0,0-.355,1.645V82h-7V80.5a.99.99,0,0,0-.445-.83l-3.61-2.41A.99.99,0,0,1,55,76.43V71a.5.5,0,0,1,1,0v4a1,1,0,0,0,2,0V60.5a.5.5,0,1,1,1,0V72a1,1,0,0,0,2,0V66.5a.5.5,0,0,1,1,0V72a1,1,0,0,0,2,0V67a.5.5,0,0,1,1,0v5a1,1,0,0,0,2,0V68a.5.5,0,0,1,1,0Z" transform="translate(-26.503 -25)"/>
      <rect id="Rect치ngulo_405103" data-name="Rect치ngulo 405103" width="9" height="3" transform="translate(31.997 59)" fill="#ffdb80"/>
      <path id="Trazado_913819" data-name="Trazado 913819" d="M70,70v8.415a.537.537,0,0,1-.09.29.84.84,0,0,0-.1.17L68.855,81a3.974,3.974,0,0,0-.355,1.645V84h-7V82.5a.99.99,0,0,0-.445-.83l-3.61-2.41A.99.99,0,0,1,57,78.43V73a.5.5,0,0,1,1,0v4a1,1,0,0,0,2,0V62.5a.5.5,0,0,1,1,0V74a1,1,0,0,0,2,0V68.5a.5.5,0,0,1,1,0V74a1,1,0,0,0,2,0V69a.5.5,0,0,1,1,0v5a1,1,0,0,0,2,0V70a.5.5,0,0,1,1,0Z" transform="translate(-28.503 -27)" fill="#e1ebf4"/>
      <path id="Trazado_913820" data-name="Trazado 913820" d="M16,56v1a1,1,0,0,1-1,1H5a1,1,0,0,1-1-1V56a1,1,0,0,0,1,1H15a1,1,0,0,0,1-1Z" transform="translate(-2.003 -24)" fill="#a54b3f" opacity="0.5"/>
      <path id="Trazado_913821" data-name="Trazado 913821" d="M16,34v1a1.893,1.893,0,0,0-1.81-2h-.23a1.893,1.893,0,0,0-1.81,2V34a1.893,1.893,0,0,1,1.81-2h.23A1.893,1.893,0,0,1,16,34Z" transform="translate(-6.075 -12)" fill="#fff" opacity="0.5"/>
      <path id="Trazado_913822" data-name="Trazado 913822" d="M16,36v1a1.893,1.893,0,0,1-1.81,2h-.23a1.893,1.893,0,0,1-1.81-2V36a1.893,1.893,0,0,0,1.81,2h.23A1.893,1.893,0,0,0,16,36Z" transform="translate(-6.075 -14)" fill="#9fa5aa" opacity="0.5"/>
      <path id="Trazado_913823" data-name="Trazado 913823" d="M82,77.5v1a.5.5,0,0,0-1,0v-1a.5.5,0,0,1,1,0Z" transform="translate(-40.503 -34.5)" fill="#fff" opacity="0.5"/>
      <path id="Trazado_913824" data-name="Trazado 913824" d="M76,75.5v1a.5.5,0,0,0-1,0v-1a.5.5,0,0,1,1,0Z" transform="translate(-37.503 -33.5)" fill="#fff" opacity="0.5"/>
      <path id="Trazado_913825" data-name="Trazado 913825" d="M70,74.5v1a.5.5,0,0,0-1,0v-1a.5.5,0,0,1,1,0Z" transform="translate(-34.503 -33)" fill="#fff" opacity="0.5"/>
      <path id="Trazado_913826" data-name="Trazado 913826" d="M64,62.5v1a.5.5,0,0,0-1,0v-1a.5.5,0,0,1,1,0Z" transform="translate(-31.503 -27)" fill="#fff" opacity="0.5"/>
      <path id="Trazado_913827" data-name="Trazado 913827" d="M58,83.5v1a.5.5,0,0,0-1,0v-1a.5.5,0,0,1,1,0Z" transform="translate(-28.503 -37.5)" fill="#fff" opacity="0.5"/>
      <rect id="Rect치ngulo_405104" data-name="Rect치ngulo 405104" width="9" height="1" transform="translate(31.997 61)" fill="#ad9359" opacity="0.45"/>
      <path id="Trazado_913828" data-name="Trazado 913828" d="M64,24.5c0,.17-.005.335-.01.5a12.5,12.5,0,0,0-24.98,0c-.005-.165-.01-.33-.01-.5a12.5,12.5,0,1,1,25,0Z" transform="translate(-19.503 -2)" fill="#f9edd2" opacity="0.5"/>
      <path id="Trazado_913829" data-name="Trazado 913829" d="M46.6,47c.305.135.62.25.94.355a4.349,4.349,0,0,0-.36.875A12.506,12.506,0,0,1,39,36.5c0-.17,0-.335.01-.5a12.426,12.426,0,0,0,2.63,7.18A5.012,5.012,0,0,0,46.5,47Z" transform="translate(-19.503 -14)" fill="#ad9359" opacity="0.45"/>
      <path id="Trazado_913830" data-name="Trazado 913830" d="M80.455,36.5A12.506,12.506,0,0,1,72.27,48.23a4.348,4.348,0,0,0-.36-.875c.32-.1.635-.22.94-.355h.1a5.012,5.012,0,0,0,4.86-3.82A12.426,12.426,0,0,0,80.445,36C80.45,36.165,80.455,36.33,80.455,36.5Z" transform="translate(-35.958 -14)" fill="#ad9359" opacity="0.45"/>
    </g>
  </g>
</svg>
