<svg xmlns="http://www.w3.org/2000/svg" xmlns:xlink="http://www.w3.org/1999/xlink" width="118" height="118" viewBox="0 0 118 118">
  <defs>
    <filter id="Trazado_874925" x="0" y="0" width="118" height="118" filterUnits="userSpaceOnUse">
      <feOffset dy="3" input="SourceAlpha"/>
      <feGaussianBlur stdDeviation="3" result="blur"/>
      <feFlood flood-opacity="0.161"/>
      <feComposite operator="in" in2="blur"/>
      <feComposite in="SourceGraphic"/>
    </filter>
  </defs>
  <g id="Grupo_1118844" data-name="Grupo 1118844" transform="translate(6926 9514)">
    <g id="Grupo_1111552" data-name="Grupo 1111552" transform="translate(-7725.5 -12025.157)">
      <g id="Grupo_1111316" data-name="Grupo 1111316" transform="translate(808.5 2517.157)">
        <g id="Grupo_1109835" data-name="Grupo 1109835" transform="translate(0 0)">
          <g id="Grupo_1107913" data-name="Grupo 1107913" transform="translate(0 0)">
            <g transform="matrix(1, 0, 0, 1, -9, -6)" filter="url(#Trazado_874925)">
              <g id="Trazado_874925-2" data-name="Trazado 874925" transform="translate(9 6)" fill="#fc0" opacity="0.859">
                <path d="M 49.99972534179688 98.4998779296875 C 43.45164108276367 98.4998779296875 37.10022354125977 97.21776580810547 31.12189674377441 94.68914794921875 C 25.34676742553711 92.24647521972656 20.15985298156738 88.74925994873047 15.70523929595947 84.29464721679688 C 11.25062561035156 79.84004974365234 7.753411293029785 74.65313720703125 5.310725212097168 68.87800598144531 C 2.782111167907715 62.89969253540039 1.499996781349182 56.54829406738281 1.499996781349182 50.00022125244141 C 1.499996781349182 43.45157623291016 2.782111167907715 37.10017776489258 5.310725212097168 31.12186431884766 C 7.753411293029785 25.34673500061035 11.25062561035156 20.15983581542969 15.70523929595947 15.70522117614746 C 20.15985298156738 11.25062084197998 25.34676742553711 7.753406524658203 31.12189674377441 5.31073522567749 C 37.10022354125977 2.782120943069458 43.45164108276367 1.500006556510925 49.99972534179688 1.500006556510925 C 56.54780960083008 1.500006556510925 62.89922714233398 2.782120943069458 68.87755584716797 5.31073522567749 C 74.65267944335938 7.753406524658203 79.839599609375 11.25062084197998 84.29421234130859 15.70522117614746 C 88.74882507324219 20.15983581542969 92.24604034423828 25.34673500061035 94.68872833251953 31.12186431884766 C 97.21733856201172 37.10017776489258 98.49945068359375 43.45157623291016 98.49945068359375 49.99964904785156 C 98.49945068359375 56.54829406738281 97.21733856201172 62.89969253540039 94.68872833251953 68.87800598144531 C 92.24604034423828 74.65313720703125 88.74882507324219 79.84004974365234 84.29421234130859 84.29464721679688 C 79.839599609375 88.74925994873047 74.65267944335938 92.24647521972656 68.87755584716797 94.68914794921875 C 62.89922714233398 97.21776580810547 56.54780960083008 98.4998779296875 49.99972534179688 98.4998779296875 Z" stroke="none"/>
                <path d="M 49.99972534179688 3 C 43.65348052978516 3 37.49866485595703 4.242240905761719 31.70623016357422 6.692230224609375 C 26.10989379882812 9.059272766113281 21.08323669433594 12.44853210449219 16.76589202880859 16.76587677001953 C 12.44855499267578 21.08321380615234 9.059295654296875 26.10985565185547 6.692230224609375 31.70618438720703 C 4.24224853515625 37.49859619140625 3 43.65341186523438 3 50.00022888183594 C 3 56.34645843505859 4.24224853515625 62.50127410888672 6.692230224609375 68.29368591308594 C 9.059295654296875 73.8900146484375 12.44855499267578 78.91665649414062 16.76589202880859 83.23399353027344 C 21.08323669433594 87.55132293701172 26.10989379882812 90.94059753417969 31.70623016357422 93.30764007568359 C 37.49866485595703 95.75762939453125 43.65348052978516 96.99987030029297 49.99972534179688 96.99987030029297 C 56.34597015380859 96.99987030029297 62.50078582763672 95.75762939453125 68.293212890625 93.30764007568359 C 73.88955688476562 90.94059753417969 78.91621398925781 87.55132293701172 83.23355865478516 83.23399353027344 C 87.55089569091797 78.91665649414062 90.94015502929688 73.8900146484375 93.30722045898438 68.29368591308594 C 95.7572021484375 62.50127410888672 96.99945068359375 56.34645843505859 96.99945068359375 49.99964141845703 C 96.99945068359375 43.65341186523438 95.7572021484375 37.49859619140625 93.30722045898438 31.70618438720703 C 90.94015502929688 26.10985565185547 87.55089569091797 21.08321380615234 83.23355865478516 16.76587677001953 C 78.91621398925781 12.44853210449219 73.88955688476562 9.059272766113281 68.293212890625 6.692230224609375 C 62.50078582763672 4.242240905761719 56.34597015380859 3 49.99972534179688 3 M 49.99972534179688 0 C 77.61381530761719 0 99.99945068359375 22.38559722900391 99.99945068359375 49.99964141845703 L 99.99945068359375 50.00022888183594 C 99.99945068359375 77.6142578125 77.61381530761719 99.99987030029297 49.99972534179688 99.99987030029297 C 22.38563537597656 99.99987030029297 0 77.6142578125 0 50.00022888183594 L 0 49.99964141845703 C 0 22.38559722900391 22.38563537597656 0 49.99972534179688 0 Z" stroke="none" fill="#fff"/>
              </g>
            </g>
            <g id="Trazado_874923" data-name="Trazado 874923" transform="translate(0 0)" fill="none">
              <path d="M50,0a50,50,0,0,1,50,50h0A50,50,0,0,1,0,50H0A50,50,0,0,1,50,0Z" stroke="none"/>
              <path d="M 49.99972534179688 3 C 43.65348052978516 3 37.49866485595703 4.242240905761719 31.70623016357422 6.692230224609375 C 26.10989379882812 9.059272766113281 21.08323669433594 12.44853210449219 16.76589202880859 16.76587677001953 C 12.44855499267578 21.08321380615234 9.059295654296875 26.10985565185547 6.692230224609375 31.70618438720703 C 4.24224853515625 37.49859619140625 3 43.65341186523438 3 50.00022888183594 C 3 56.34645843505859 4.24224853515625 62.50127410888672 6.692230224609375 68.29368591308594 C 9.059295654296875 73.8900146484375 12.44855499267578 78.91665649414062 16.76589202880859 83.23399353027344 C 21.08323669433594 87.55132293701172 26.10989379882812 90.94059753417969 31.70623016357422 93.30764007568359 C 37.49866485595703 95.75762939453125 43.65348052978516 96.99987030029297 49.99972534179688 96.99987030029297 C 56.34597015380859 96.99987030029297 62.50078582763672 95.75762939453125 68.293212890625 93.30764007568359 C 73.88955688476562 90.94059753417969 78.91621398925781 87.55132293701172 83.23355865478516 83.23399353027344 C 87.55089569091797 78.91665649414062 90.94015502929688 73.8900146484375 93.30722045898438 68.29368591308594 C 95.7572021484375 62.50127410888672 96.99945068359375 56.34645843505859 96.99945068359375 49.99964141845703 C 96.99945068359375 43.65341186523438 95.7572021484375 37.49859619140625 93.30722045898438 31.70618438720703 C 90.94015502929688 26.10985565185547 87.55089569091797 21.08321380615234 83.23355865478516 16.76587677001953 C 78.91621398925781 12.44853210449219 73.88955688476562 9.059272766113281 68.293212890625 6.692230224609375 C 62.50078582763672 4.242240905761719 56.34597015380859 3 49.99972534179688 3 M 49.99972534179688 0 C 77.61381530761719 0 99.99945068359375 22.38559722900391 99.99945068359375 49.99964141845703 L 99.99945068359375 50.00022888183594 C 99.99945068359375 77.6142578125 77.61381530761719 99.99987030029297 49.99972534179688 99.99987030029297 C 22.38563537597656 99.99987030029297 0 77.6142578125 0 50.00022888183594 L 0 49.99964141845703 C 0 22.38559722900391 22.38563537597656 0 49.99972534179688 0 Z" stroke="none" fill="#fff"/>
            </g>
          </g>
        </g>
      </g>
    </g>
    <g id="Grupo_1118843" data-name="Grupo 1118843" transform="translate(-6906 -9503.428)">
      <g id="Grupo_1118840" data-name="Grupo 1118840" transform="translate(1.022 14.235)">
        <g id="Grupo_1118839" data-name="Grupo 1118839" transform="translate(0 0)">
          <g id="Grupo_1118838" data-name="Grupo 1118838">
            <circle id="Elipse_11838" data-name="Elipse 11838" cx="29.496" cy="29.496" r="29.496" transform="translate(8.748 2.574)" fill="#feb237"/>
            <g id="Grupo_1118825" data-name="Grupo 1118825" transform="translate(8.748 5.863)">
              <path id="Trazado_913403" data-name="Trazado 913403" d="M80.58,166.541a17.589,17.589,0,0,0-6.851,1.38,29.525,29.525,0,0,0,8.95,33.785,17.645,17.645,0,0,0-2.1-35.164Z" transform="translate(-71.684 -152.528)" fill="#fe9901"/>
              <path id="Trazado_913404" data-name="Trazado 913404" d="M344.264,365.015a11.514,11.514,0,0,0-18.508,11.811A29.5,29.5,0,0,0,344.264,365.015Z" transform="translate(-290.788 -321.633)" fill="#fe9901"/>
              <path id="Trazado_913405" data-name="Trazado 913405" d="M347.647,78.906A29.6,29.6,0,0,0,333.83,63.727a11.514,11.514,0,1,0,13.817,15.179Z" transform="translate(-290.788 -63.727)" fill="#fe9901"/>
            </g>
            <circle id="Elipse_11839" data-name="Elipse 11839" cx="24.366" cy="24.366" r="24.366" transform="translate(13.877 7.703)" fill="#fde784"/>
            <path id="Trazado_913406" data-name="Trazado 913406" d="M113.084,166.541c-.169,0-.337,0-.505.008a24.377,24.377,0,0,0,8.793,33.216,17.646,17.646,0,0,0-8.288-33.223Z" transform="translate(-95.44 -146.665)" fill="#ffd15b"/>
            <path id="Trazado_913407" data-name="Trazado 913407" d="M270.815,77.232a24.671,24.671,0,0,0-2.726.151,24.208,24.208,0,0,1,9.487,3.126,11.511,11.511,0,0,0,9.833,17.5q.51,0,1.01-.044a1.086,1.086,0,0,1,1.166.971,24.375,24.375,0,0,1-21.5,26.877,24.671,24.671,0,0,0,2.726.151,24.366,24.366,0,1,0,0-48.731Z" transform="translate(-232.572 -69.529)" fill="#ffd15b"/>
            <g id="Grupo_1118837" data-name="Grupo 1118837">
              <g id="Grupo_1118833" data-name="Grupo 1118833" transform="translate(43.324)">
                <g id="Grupo_1118829" data-name="Grupo 1118829">
                  <g id="Grupo_1118828" data-name="Grupo 1118828">
                    <circle id="Elipse_11840" data-name="Elipse 11840" cx="11.514" cy="11.514" r="11.514" fill="#8dcafc"/>
                    <path id="Trazado_913408" data-name="Trazado 913408" d="M406.677,32.227a11.525,11.525,0,0,1-13.83,11.282,11.517,11.517,0,0,0,0-22.563,11.525,11.525,0,0,1,13.83,11.281Z" transform="translate(-383.649 -20.713)" fill="#64b9fc"/>
                    <g id="Grupo_1118827" data-name="Grupo 1118827" transform="translate(3.06 5.294)">
                      <path id="Trazado_913409" data-name="Trazado 913409" d="M364.719,134.3a11.509,11.509,0,0,1-16.908,0,5.45,5.45,0,0,1,5.359-4.454h6.191A5.449,5.449,0,0,1,364.719,134.3Z" transform="translate(-347.811 -120.268)" fill="#fd4755"/>
                      <path id="Trazado_913410" data-name="Trazado 913410" d="M403.634,134.3a5.448,5.448,0,0,0-2.383-3.57h0a5.422,5.422,0,0,0-2.975-.884h-5.186a5.45,5.45,0,0,1,5.3,4.176,1.282,1.282,0,0,1-.43,1.274,11.46,11.46,0,0,1-5.092,2.471,11.572,11.572,0,0,0,5.673-.265h0a11.5,11.5,0,0,0,5.094-3.2Zm-2.383-3.57h0Z" transform="translate(-386.726 -120.261)" fill="#e41f2d"/>
                      <g id="Grupo_1118826" data-name="Grupo 1118826" transform="translate(3.729)">
                        <path id="Trazado_913411" data-name="Trazado 913411" d="M379.9,70.8a4.725,4.725,0,0,1-4.725-4.725V63.922a4.366,4.366,0,0,1,4.366-4.366h.717a4.366,4.366,0,0,1,4.366,4.366v2.152A4.725,4.725,0,0,1,379.9,70.8Z" transform="translate(-375.174 -59.555)" fill="#fdb4ba"/>
                        <path id="Trazado_913412" data-name="Trazado 913412" d="M403.465,63.917V66.07a4.726,4.726,0,0,1-6.476,4.39,4.726,4.726,0,0,0,2.973-4.389V63.917a4.369,4.369,0,0,0-2.974-4.14,4.375,4.375,0,0,1,1.392-.227h.718A4.367,4.367,0,0,1,403.465,63.917Z" transform="translate(-394.015 -59.551)" fill="#fe99a0"/>
                      </g>
                    </g>
                  </g>
                </g>
                <g id="Grupo_1118832" data-name="Grupo 1118832" transform="translate(0 41.11)">
                  <circle id="Elipse_11841" data-name="Elipse 11841" cx="11.514" cy="11.514" r="11.514" fill="#a3e440"/>
                  <path id="Trazado_913413" data-name="Trazado 913413" d="M406.677,333.846a11.525,11.525,0,0,1-13.83,11.282,11.517,11.517,0,0,0,0-22.563,11.524,11.524,0,0,1,13.83,11.281Z" transform="translate(-383.649 -322.332)" fill="#8dc637"/>
                  <g id="Grupo_1118831" data-name="Grupo 1118831" transform="translate(3.06 5.294)">
                    <path id="Trazado_913414" data-name="Trazado 913414" d="M364.719,435.923a11.509,11.509,0,0,1-16.908,0,5.45,5.45,0,0,1,5.359-4.454h6.191A5.449,5.449,0,0,1,364.719,435.923Z" transform="translate(-347.811 -421.888)" fill="#f2fbff"/>
                    <path id="Trazado_913415" data-name="Trazado 913415" d="M403.634,435.916a5.448,5.448,0,0,0-2.383-3.57h0a5.421,5.421,0,0,0-2.975-.884h-5.186a5.45,5.45,0,0,1,5.3,4.176,1.282,1.282,0,0,1-.43,1.274,11.46,11.46,0,0,1-5.092,2.471,11.573,11.573,0,0,0,5.673-.265h0A11.506,11.506,0,0,0,403.634,435.916Zm-2.383-3.57h0Z" transform="translate(-386.726 -421.881)" fill="#c4e2ff"/>
                    <g id="Grupo_1118830" data-name="Grupo 1118830" transform="translate(3.729)">
                      <path id="Trazado_913416" data-name="Trazado 913416" d="M379.9,372.418a4.725,4.725,0,0,1-4.725-4.725v-2.152a4.366,4.366,0,0,1,4.366-4.366h.717a4.366,4.366,0,0,1,4.366,4.366v2.152A4.725,4.725,0,0,1,379.9,372.418Z" transform="translate(-375.174 -361.175)" fill="#fdb4ba"/>
                      <path id="Trazado_913417" data-name="Trazado 913417" d="M403.465,365.538v2.153a4.726,4.726,0,0,1-6.476,4.39,4.726,4.726,0,0,0,2.973-4.389v-2.153a4.369,4.369,0,0,0-2.974-4.14,4.374,4.374,0,0,1,1.392-.227h.718A4.367,4.367,0,0,1,403.465,365.538Z" transform="translate(-394.015 -361.172)" fill="#fe99a0"/>
                    </g>
                  </g>
                </g>
              </g>
              <g id="Grupo_1118836" data-name="Grupo 1118836" transform="translate(0 14.424)">
                <path id="Trazado_913418" data-name="Trazado 913418" d="M42.788,144.187A17.659,17.659,0,0,1,19.9,161.037a3.8,3.8,0,0,0-6.569-3.748,17.644,17.644,0,1,1,29.462-13.1Z" transform="translate(-7.5 -126.542)" fill="#ffd15b"/>
                <path id="Trazado_913419" data-name="Trazado 913419" d="M132.11,144.186a17.661,17.661,0,0,1-21.194,17.289,17.65,17.65,0,0,0,0-34.576,17.661,17.661,0,0,1,21.194,17.287Z" transform="translate(-96.821 -126.542)" fill="#feb237"/>
                <g id="Grupo_1118835" data-name="Grupo 1118835" transform="translate(4.689 8.112)">
                  <path id="Trazado_913420" data-name="Trazado 913420" d="M67.811,300.613a17.637,17.637,0,0,1-25.911,0,8.352,8.352,0,0,1,8.212-6.825H59.6A8.35,8.35,0,0,1,67.811,300.613Z" transform="translate(-41.9 -279.105)" fill="#31a7fb"/>
                  <path id="Trazado_913421" data-name="Trazado 913421" d="M127.445,300.6a8.349,8.349,0,0,0-3.652-5.471h0a8.309,8.309,0,0,0-4.559-1.355h-7.947a8.353,8.353,0,0,1,8.119,6.4,1.965,1.965,0,0,1-.658,1.952,17.56,17.56,0,0,1-7.8,3.787,17.734,17.734,0,0,0,8.693-.406h0A17.629,17.629,0,0,0,127.445,300.6Zm-3.652-5.471h0Z" transform="translate(-101.534 -279.093)" fill="#1785f8"/>
                  <g id="Grupo_1118834" data-name="Grupo 1118834" transform="translate(5.715)">
                    <path id="Trazado_913422" data-name="Trazado 913422" d="M91.072,203.3a7.241,7.241,0,0,1-7.241-7.241v-3.3a6.691,6.691,0,0,1,6.691-6.691h1.1a6.691,6.691,0,0,1,6.691,6.691v3.3A7.241,7.241,0,0,1,91.072,203.3Z" transform="translate(-83.831 -186.066)" fill="#fdb4ba"/>
                    <path id="Trazado_913423" data-name="Trazado 913423" d="M127.187,192.752v3.3a7.241,7.241,0,0,1-7.241,7.241,7.169,7.169,0,0,1-2.682-.515,7.242,7.242,0,0,0,4.555-6.727v-3.3a6.694,6.694,0,0,0-4.557-6.344,6.7,6.7,0,0,1,2.134-.347h1.1A6.692,6.692,0,0,1,127.187,192.752Z" transform="translate(-112.705 -186.061)" fill="#fe99a0"/>
                  </g>
                </g>
              </g>
            </g>
          </g>
        </g>
      </g>
      <g id="Grupo_1118842" data-name="Grupo 1118842" transform="translate(0 13.213)">
        <g id="Grupo_1118841" data-name="Grupo 1118841" transform="translate(0 0)">
          <path id="Trazado_913424" data-name="Trazado 913424" d="M69.784,46.3A30.6,30.6,0,0,0,66.456,32.44,12.531,12.531,0,0,0,47.089,16.8a30.6,30.6,0,0,0-7.823-1.013,30.191,30.191,0,0,0-13.9,3.34,30.792,30.792,0,0,0-10.553,8.911,18.668,18.668,0,0,0-7.5,33.086A1.022,1.022,0,0,0,8.56,59.5a16.981,16.981,0,0,1-1.733-1.528,7.343,7.343,0,0,1,5.964-5.408,8.246,8.246,0,0,0,11.752,0,7.314,7.314,0,0,1,5.961,5.4,16.623,16.623,0,0,1-17.928,3.814,1.022,1.022,0,1,0-.749,1.9,18.525,18.525,0,0,0,2.995.9,30.79,30.79,0,0,0,10.495,8.88,30.187,30.187,0,0,0,13.95,3.368,30.607,30.607,0,0,0,7.825-1.014A12.53,12.53,0,0,0,66.456,60.167,30.6,30.6,0,0,0,69.784,46.3Zm-2.044,0a28.574,28.574,0,0,1-2.674,12.054A12.629,12.629,0,0,0,62.611,56.3a25.463,25.463,0,0,0,0-19.991,12.629,12.629,0,0,0,2.455-2.059A28.581,28.581,0,0,1,67.739,46.3ZM59.563,26.048a3.7,3.7,0,1,1-7.406,0V23.9A3.348,3.348,0,0,1,55.5,20.552h.717A3.348,3.348,0,0,1,59.563,23.9Zm-7.654,4.168a5.731,5.731,0,0,0,7.9,0,4.428,4.428,0,0,1,3.374,3.035,10.5,10.5,0,0,1-14.652.019A4.462,4.462,0,0,1,51.908,30.215ZM26.3,20.946a28.164,28.164,0,0,1,12.963-3.115,28.618,28.618,0,0,1,6.341.709,12.48,12.48,0,0,0-1.5,2.838,25.588,25.588,0,0,0-4.844-.462A25.243,25.243,0,0,0,21.781,27.9a18.711,18.711,0,0,0-3.115-.261q-.461,0-.916.023A28.742,28.742,0,0,1,26.3,20.946ZM18.667,52.98a6.226,6.226,0,0,1-6.219-6.219v-3.3a5.675,5.675,0,0,1,5.669-5.669h1.1a5.675,5.675,0,0,1,5.669,5.669v3.3A6.226,6.226,0,0,1,18.667,52.98Zm7.226-2.216a8.211,8.211,0,0,0,1.037-4v-3.3a7.722,7.722,0,0,0-7.713-7.713h-1.1A7.722,7.722,0,0,0,10.4,43.464v3.3a8.211,8.211,0,0,0,1.039,4,9.413,9.413,0,0,0-6.159,5.407A16.625,16.625,0,1,1,35.289,46.3a16.533,16.533,0,0,1-3.244,9.853A9.364,9.364,0,0,0,25.892,50.764ZM37.334,46.3A18.7,18.7,0,0,0,24.2,28.473,23.2,23.2,0,0,1,39.266,22.96a23.545,23.545,0,0,1,4.29.4,12.569,12.569,0,0,0-.211,1.672,1.022,1.022,0,1,0,2.041.116,10.491,10.491,0,1,1,19.258,6.332,6.492,6.492,0,0,0-3.564-3.029,5.711,5.711,0,0,0,.526-2.4V23.9a5.4,5.4,0,0,0-5.389-5.389H55.5A5.4,5.4,0,0,0,50.113,23.9v2.152a5.71,5.71,0,0,0,.527,2.4,6.556,6.556,0,0,0-3.566,3.04,10.662,10.662,0,0,1-.99-1.929,1.022,1.022,0,0,0-1.9.743A12.534,12.534,0,0,0,60.8,37.272a23.406,23.406,0,0,1,0,18.065A12.537,12.537,0,0,0,43.554,69.254a23.542,23.542,0,0,1-4.288.395A23.2,23.2,0,0,1,24.2,64.134,18.7,18.7,0,0,0,37.334,46.3ZM26.251,71.636a28.738,28.738,0,0,1-8.5-6.688q.457.022.917.022a18.72,18.72,0,0,0,3.114-.261,25.245,25.245,0,0,0,17.485,6.983,25.593,25.593,0,0,0,4.845-.462,12.519,12.519,0,0,0,1.5,2.837,28.615,28.615,0,0,1-6.344.71A28.161,28.161,0,0,1,26.251,71.636Zm22.286,2.726a4.442,4.442,0,0,1,3.373-3.036,5.732,5.732,0,0,0,7.9,0,4.431,4.431,0,0,1,3.375,3.034,10.467,10.467,0,0,1-14.647,0Zm11.026-7.2a3.7,3.7,0,1,1-7.406,0V65.005A3.348,3.348,0,0,1,55.5,61.661h.717a3.348,3.348,0,0,1,3.344,3.344Zm5.082,5.428a6.5,6.5,0,0,0-3.564-3.029,5.711,5.711,0,0,0,.526-2.4V65.005a5.4,5.4,0,0,0-5.389-5.388H55.5a5.4,5.4,0,0,0-5.388,5.388v2.152a5.71,5.71,0,0,0,.527,2.4,6.518,6.518,0,0,0-3.562,3.032,10.492,10.492,0,1,1,17.568,0Z" transform="translate(0 -13.213)"/>
          <path id="Trazado_913425" data-name="Trazado 913425" d="M119,259.162a1.022,1.022,0,0,0-1.022,1.022,1.129,1.129,0,0,1-2.259,0,1.022,1.022,0,0,0-2.044,0,3.174,3.174,0,0,0,6.348,0A1.022,1.022,0,0,0,119,259.162Z" transform="translate(-98.177 -225.64)"/>
          <path id="Trazado_913426" data-name="Trazado 913426" d="M298.858,250.546h5.886a1.022,1.022,0,0,0,0-2.044h-5.886a1.022,1.022,0,0,0,0,2.044Z" transform="translate(-257.242 -216.433)"/>
          <path id="Trazado_913427" data-name="Trazado 913427" d="M298.858,280.882h5.886a1.022,1.022,0,0,0,0-2.044h-5.886a1.022,1.022,0,0,0,0,2.044Z" transform="translate(-257.242 -242.634)"/>
          <path id="Trazado_913428" data-name="Trazado 913428" d="M298.858,220.21H301.8a1.022,1.022,0,0,0,0-2.044h-2.943a1.022,1.022,0,0,0,0,2.044Z" transform="translate(-257.242 -190.232)"/>
        </g>
      </g>
    </g>
  </g>
</svg>
