<svg xmlns="http://www.w3.org/2000/svg" width="85" height="85" viewBox="0 0 85 85">
  <g id="Grupo_1119501" data-name="Grupo 1119501" transform="translate(-205.061 -3036)">
    <circle id="Elipse_11824" data-name="Elipse 11824" cx="42.5" cy="42.5" r="42.5" transform="translate(205.061 3036)" fill="#fc0"/>
    <g id="filled_outline" data-name="filled outline" transform="translate(205.061 3015)">
      <path id="Trazado_917401" data-name="Trazado 917401" d="M472.868,387.289a.868.868,0,0,1-.868-.868v-9.552a.868.868,0,0,1,1.737,0v9.552A.868.868,0,0,1,472.868,387.289Z" transform="translate(-406.501 -299.527)" fill="#a98e72"/>
      <path id="Trazado_917402" data-name="Trazado 917402" d="M204.342,272l-2.66,1.33a1.737,1.737,0,0,0-.943,1.308l-.74,5.178h12.158l-.74-5.178a1.737,1.737,0,0,0-.943-1.308l-2.66-1.33Z" transform="translate(-164.027 -206.816)" fill="#69b9e7"/>
      <path id="Trazado_917403" data-name="Trazado 917403" d="M24.868,401.552a.868.868,0,0,1-.868-.868v-7.816a.868.868,0,1,1,1.737,0v7.816A.868.868,0,0,1,24.868,401.552Z" transform="translate(-7.132 -313.79)" fill="#a98e72"/>
      <path id="Trazado_917404" data-name="Trazado 917404" d="M120,376h3.474v10.421H120Z" transform="translate(-92.711 -299.527)" fill="#8e7760"/>
      <path id="Trazado_917405" data-name="Trazado 917405" d="M360,376h3.474v10.421H360Z" transform="translate(-306.659 -299.527)" fill="#8e7760"/>
      <path id="Trazado_917406" data-name="Trazado 917406" d="M120,376h3.474v1.737H120Z" transform="translate(-92.711 -299.527)" fill="#746250"/>
      <path id="Trazado_917407" data-name="Trazado 917407" d="M360,376h3.474v1.737H360Z" transform="translate(-306.659 -299.527)" fill="#746250"/>
      <path id="Trazado_917408" data-name="Trazado 917408" d="M232,304h5.21v4.342H232Z" transform="translate(-192.553 -235.343)" fill="#cdcdcd"/>
      <path id="Trazado_917409" data-name="Trazado 917409" d="M398.947,360,392,364.342l4.342,7.816h1.737l-1.737-6.947,6.079-2.605V360Z" transform="translate(-335.185 -285.264)" fill="#a8e6c7"/>
      <path id="Trazado_917410" data-name="Trazado 917410" d="M342.078,294.946h-4.342a.868.868,0,0,1-.857-.726l-.868-5.21a.868.868,0,1,1,1.713-.286l.747,4.485h3.606a.868.868,0,0,1,0,1.737Z" transform="translate(-285.263 -221.078)" fill="#d9d9d9"/>
      <path id="Trazado_917411" data-name="Trazado 917411" d="M112.868,294.946h4.342a.868.868,0,0,0,.857-.726l.868-5.21a.868.868,0,1,0-1.713-.286l-.748,4.485h-3.606a.868.868,0,1,0,0,1.737Z" transform="translate(-85.579 -221.078)" fill="#d9d9d9"/>
      <path id="Trazado_917412" data-name="Trazado 917412" d="M27.474,368l4.342,2.605,2.605,8.684H30.947L29.21,373.21,24,371.474V368Z" transform="translate(-7.132 -292.395)" fill="#bef5fa"/>
      <path id="Trazado_917413" data-name="Trazado 917413" d="M46.28,290.168l5.4,3.238h3.474v2.605H50.809l-3.474-1.737Z" transform="translate(-26.993 -223.012)" fill="#bef5fa"/>
      <path id="Trazado_917414" data-name="Trazado 917414" d="M222.079,386.421h-3.474l-.868-6.947-1.228-1.228a1.737,1.737,0,0,1-.509-1.228V376h8.684v1.017a1.737,1.737,0,0,1-.509,1.228l-1.228,1.228Z" transform="translate(-178.29 -299.527)" fill="#69b9e7"/>
      <path id="Trazado_917415" data-name="Trazado 917415" d="M282.421,48h-8.684A1.737,1.737,0,0,0,272,49.737v5.21a1.737,1.737,0,0,0,1.737,1.737v3.474l5.21-3.474h3.474a1.737,1.737,0,0,0,1.737-1.737v-5.21A1.737,1.737,0,0,0,282.421,48Z" transform="translate(-228.211 -7.132)" fill="#fdb62f"/>
      <path id="Trazado_917416" data-name="Trazado 917416" d="M42.605,80.684v3.474l5.21-3.474h4.342a1.737,1.737,0,0,0,1.737-1.737v-5.21A1.737,1.737,0,0,0,52.158,72H41.737A1.737,1.737,0,0,0,40,73.737v5.21a1.737,1.737,0,0,0,1.737,1.737Z" transform="translate(-21.395 -28.526)" fill="#fcd795"/>
      <path id="Trazado_917417" data-name="Trazado 917417" d="M329.737,80h8.684a1.737,1.737,0,0,1,1.737,1.737v5.21a1.737,1.737,0,0,1-1.737,1.737v3.474l-5.21-3.474h-3.474A1.737,1.737,0,0,1,328,86.947v-5.21A1.737,1.737,0,0,1,329.737,80Z" transform="translate(-278.132 -35.658)" fill="#fdb62f"/>
      <path id="Trazado_917418" data-name="Trazado 917418" d="M329.737,80A1.737,1.737,0,0,0,328,81.737v4.053l.868-.579h3.474a1.737,1.737,0,0,0,1.737-1.737V80Z" transform="translate(-278.132 -35.658)" fill="#ec9e15"/>
      <g id="Grupo_1119500" data-name="Grupo 1119500" transform="translate(21.21 46.947)">
        <path id="Trazado_917419" data-name="Trazado 917419" d="M64,104h1.737v1.737H64Z" transform="translate(-64 -104)" fill="#fdb62f"/>
        <path id="Trazado_917420" data-name="Trazado 917420" d="M96,104h1.737v1.737H96Z" transform="translate(-92.526 -104)" fill="#fdb62f"/>
        <path id="Trazado_917421" data-name="Trazado 917421" d="M128,104h1.737v1.737H128Z" transform="translate(-121.053 -104)" fill="#fdb62f"/>
      </g>
      <path id="Trazado_917422" data-name="Trazado 917422" d="M16,464H68.1v1.737H16Z" transform="translate(0 -377.975)" fill="#746250"/>
      <ellipse id="Elipse_11879" data-name="Elipse 11879" cx="2.882" cy="2.47" rx="2.882" ry="2.47" transform="translate(39.058 57.293)" fill="#69b9e7"/>
      <ellipse id="Elipse_11880" data-name="Elipse 11880" cx="2.47" cy="2.882" rx="2.47" ry="2.882" transform="translate(62.115 58.94)" fill="#a8e6c7"/>
      <ellipse id="Elipse_11881" data-name="Elipse 11881" cx="2.47" cy="2.882" rx="2.47" ry="2.882" transform="translate(16.823 58.94)" fill="#bef5fa"/>
      <path id="Trazado_917423" data-name="Trazado 917423" d="M25.737,288A1.737,1.737,0,0,0,24,289.737v6.947h3.474v-6.947A1.737,1.737,0,0,0,25.737,288Z" transform="translate(-7.132 -221.079)" fill="#bef5fa"/>
      <path id="Trazado_917424" data-name="Trazado 917424" d="M457.737,288a1.737,1.737,0,0,1,1.737,1.737v6.079H456v-6.079A1.737,1.737,0,0,1,457.737,288Z" transform="translate(-392.238 -221.079)" fill="#a8e6c7"/>
      <path id="Trazado_917425" data-name="Trazado 917425" d="M392.684,291.2l-5.21,3.126H384v2.605h4.342l3.474-1.737Z" transform="translate(-328.053 -223.932)" fill="#a8e6c7"/>
      <path id="Trazado_917426" data-name="Trazado 917426" d="M112,344h31.263v3.474H112Z" transform="translate(-85.579 -271.001)" fill="#a98e72"/>
      <path id="Trazado_917427" data-name="Trazado 917427" d="M65.5,265.737a3.443,3.443,0,0,0-2.282,1.052L59.18,269.21H55.947a.868.868,0,0,0-.868.868v1.737h-1.87l-.747-4.485a.868.868,0,1,0-1.713.286l.7,4.2H48.884l-.633-4.433a2.605,2.605,0,0,0-1.414-1.961l-2.659-1.33a.868.868,0,0,0-.388-.092H40.315a.868.868,0,0,0-.389.092l-2.659,1.33a2.605,2.605,0,0,0-1.414,1.962l-.634,4.432H32.656l.7-4.2a.868.868,0,1,0-1.713-.286l-.747,4.485h-1.87v-1.737a.868.868,0,0,0-.868-.868H24.924l-4.037-2.422a3.443,3.443,0,0,0-2.282-1.052A2.608,2.608,0,0,0,16,268.342v10.421a.868.868,0,0,0,.594.824l.275.092v6.032H16v1.737H68.1V285.71h-.868v-7.74l.342-.147a.868.868,0,0,0,.526-.8v-8.684A2.608,2.608,0,0,0,65.5,265.737Zm-7.816,16.377,2,3.6h-2Zm0-8.562h2.605a.869.869,0,0,0,.389-.092l2.217-1.108v1.587l-5.21,3.257ZM37.572,267.63a.87.87,0,0,1,.472-.655l2.476-1.238h3.064l2.476,1.238a.87.87,0,0,1,.472.654l.6,4.186h-1.6v-3.474a.868.868,0,0,0-.868-.868h-5.21a.868.868,0,0,0-.868.868v3.474h-1.6Zm6.217,4.186H40.315V269.21h3.474Zm12.158,1.737v1.737H28.158v-1.737Zm-8.684,3.622v-.149h5.21v8.684h-7.7l.709-5.676,1.017-1.017a2.588,2.588,0,0,0,.763-1.842ZM37.6,279.017l1.017,1.017.709,5.676h-7.7v-8.684h5.21v.149A2.588,2.588,0,0,0,37.6,279.017Zm-11.184,1.644-.9-3.017a.869.869,0,0,0-.385-.5L21.21,274.8v-2.445l2.217,1.108a.869.869,0,0,0,.388.092h2.605Zm-7.816-.4,2.765.921,1.3,4.532h-4.06Zm5.866,5.453-1.557-5.449a.868.868,0,0,0-.56-.585l-4.617-1.539v-9.795a.87.87,0,0,1,.868-.868,1.838,1.838,0,0,1,1.09.579.86.86,0,0,0,.2.165l4.342,2.605a.87.87,0,0,0,.447.124h2.605v.868H24.02l-3.29-1.645a.868.868,0,0,0-1.257.777v4.342a.868.868,0,0,0,.421.745l4.054,2.432,2.173,7.244Zm3.687,0v-8.684h1.737v8.684Zm12.924,0-.773-6.186a.866.866,0,0,0-.248-.506l-1.228-1.228a.863.863,0,0,1-.254-.614v-.149h6.947v.149a.863.863,0,0,1-.254.614l-1.228,1.228a.867.867,0,0,0-.248.506l-.773,6.186Zm13.128,0v-8.684h1.737v8.684Zm7.458,0-3.693-6.648,6.248-3.9a.869.869,0,0,0,.408-.736v-3.474a.868.868,0,0,0-1.257-.777l-3.29,1.645H56.815v-.868H59.42a.87.87,0,0,0,.447-.124l4.342-2.605a.86.86,0,0,0,.2-.165,1.828,1.828,0,0,1,1.09-.579.87.87,0,0,1,.868.868v8.112l-5.553,2.38a.868.868,0,0,0-.5,1.009l1.467,5.868Zm3.831,0H63.572l-1.393-5.572,3.32-1.423Z" transform="translate(0 -199.685)"/>
      <path id="Trazado_917428" data-name="Trazado 917428" d="M265.737,50.272v2.754a.868.868,0,0,0,1.35.723l3.035-2.024a2.6,2.6,0,0,0,2.562,2.17h3.211l4.992,3.328a.868.868,0,0,0,1.35-.723V53.746a2.61,2.61,0,0,0,1.737-2.456v-5.21a2.608,2.608,0,0,0-2.605-2.605h-3.474v-.868A2.608,2.608,0,0,0,275.289,40h-8.684A2.608,2.608,0,0,0,264,42.605v5.21A2.61,2.61,0,0,0,265.737,50.272Zm15.631-5.062a.87.87,0,0,1,.868.868v5.21a.87.87,0,0,1-.868.868.868.868,0,0,0-.868.868v1.851l-3.86-2.573a.869.869,0,0,0-.482-.146h-3.474a.87.87,0,0,1-.868-.868V50.6l.263-.175h3.211a2.608,2.608,0,0,0,2.605-2.605V45.21Zm-9.552,3.474V46.079a.87.87,0,0,1,.868-.868h3.474v2.605a.87.87,0,0,1-.868.868Zm-6.079-6.079a.87.87,0,0,1,.868-.868h8.684a.87.87,0,0,1,.868.868v.868h-3.474a2.608,2.608,0,0,0-2.605,2.605v3.588L267.474,51.4V49.552a.868.868,0,0,0-.868-.868.87.87,0,0,1-.868-.868Z" transform="translate(-221.08)"/>
      <path id="Trazado_917429" data-name="Trazado 917429" d="M34.605,74.421v2.605a.868.868,0,0,0,1.35.723l4.992-3.328h4.079a2.608,2.608,0,0,0,2.605-2.605v-5.21A2.608,2.608,0,0,0,45.026,64H34.605A2.608,2.608,0,0,0,32,66.605v5.21A2.608,2.608,0,0,0,34.605,74.421Zm-.868-7.816a.87.87,0,0,1,.868-.868H45.026a.87.87,0,0,1,.868.868v5.21a.87.87,0,0,1-.868.868H40.684a.87.87,0,0,0-.482.146L36.342,75.4V73.552a.868.868,0,0,0-.868-.868h-.868a.87.87,0,0,1-.868-.868Z" transform="translate(-14.263 -21.395)"/>
      <path id="Trazado_917430" data-name="Trazado 917430" d="M64,104h1.737v1.737H64Z" transform="translate(-42.79 -57.053)"/>
      <path id="Trazado_917431" data-name="Trazado 917431" d="M96,104h1.737v1.737H96Z" transform="translate(-71.316 -57.053)"/>
      <path id="Trazado_917432" data-name="Trazado 917432" d="M128,104h1.737v1.737H128Z" transform="translate(-99.842 -57.053)"/>
      <path id="Trazado_917433" data-name="Trazado 917433" d="M227.474,198.947A3.474,3.474,0,1,0,224,195.474,3.474,3.474,0,0,0,227.474,198.947Zm0-5.21a1.737,1.737,0,1,1-1.737,1.737A1.737,1.737,0,0,1,227.474,193.737Z" transform="translate(-185.422 -135.5)"/>
      <path id="Trazado_917434" data-name="Trazado 917434" d="M432,211.474A3.474,3.474,0,1,0,435.474,208,3.474,3.474,0,0,0,432,211.474Zm3.474-1.737a1.737,1.737,0,1,1-1.737,1.737A1.737,1.737,0,0,1,435.474,209.737Z" transform="translate(-370.843 -149.764)"/>
      <path id="Trazado_917435" data-name="Trazado 917435" d="M19.474,214.947A3.474,3.474,0,1,0,16,211.474a3.474,3.474,0,0,0,3.474,3.474Zm0-5.21a1.737,1.737,0,1,1-1.737,1.737A1.737,1.737,0,0,1,19.474,209.737Z" transform="translate(0 -149.764)"/>
    </g>
  </g>
</svg>
