<svg xmlns="http://www.w3.org/2000/svg" width="400" height="421" viewBox="0 0 400 421">
  <g id="Grupo_1119504" data-name="Grupo 1119504" transform="translate(-810.051 -3299)">
    <rect id="vista-aerea-del-rio-serene-que-serpentea-traves-del-exuberante-dosel-de-la-selva-tropical" width="400" height="421" rx="9" transform="translate(810.051 3299)" fill="#d7e9ff"/>
    <g id="Grupo_1118657" data-name="Grupo 1118657" transform="translate(218.763 -155.26)">
      <path id="Elipse_11831" data-name="Elipse 11831" d="M150.3,17.825C77.252,17.825,17.825,77.252,17.825,150.3S77.252,282.768,150.3,282.768,282.768,223.342,282.768,150.3,223.342,17.825,150.3,17.825M150.3,0A150.3,150.3,0,1,1,0,150.3,150.3,150.3,0,0,1,150.3,0Z" transform="translate(639.752 3510.46)" fill="#4c6929"/>
      <circle id="Elipse_11826" data-name="Elipse 11826" cx="48.5" cy="48.5" r="48.5" transform="translate(741.288 3613.259)" fill="#9ad354"/>
      <ellipse id="Elipse_11827" data-name="Elipse 11827" cx="48.5" cy="48" rx="48.5" ry="48" transform="translate(741.288 3474.26)" fill="#9ad354"/>
      <ellipse id="Elipse_11830" data-name="Elipse 11830" cx="48.5" cy="48" rx="48.5" ry="48" transform="translate(741.288 3759.259)" fill="#9ad354"/>
      <ellipse id="Elipse_11828" data-name="Elipse 11828" cx="48" cy="48.5" rx="48" ry="48.5" transform="translate(886.288 3613.259)" fill="#9ad354"/>
      <ellipse id="Elipse_11829" data-name="Elipse 11829" cx="48" cy="48.5" rx="48" ry="48.5" transform="translate(600.288 3613.259)" fill="#9ad354"/>
      <path id="Trazado_917590" data-name="Trazado 917590" d="M-22.145-4.067h-3.937V0h-2.051V-9.953h6.48v1.661h-4.43v2.57h3.938ZM-16.54,0a2.194,2.194,0,0,1-.2-.663,2.39,2.39,0,0,1-1.866.8,2.626,2.626,0,0,1-1.8-.629,2.023,2.023,0,0,1-.714-1.586,2.09,2.09,0,0,1,.872-1.8,4.3,4.3,0,0,1,2.519-.636h.909v-.424a1.219,1.219,0,0,0-.263-.82,1.035,1.035,0,0,0-.831-.308,1.177,1.177,0,0,0-.783.239.813.813,0,0,0-.284.656h-1.976a1.984,1.984,0,0,1,.4-1.189,2.621,2.621,0,0,1,1.121-.858,4.086,4.086,0,0,1,1.627-.311,3.228,3.228,0,0,1,2.17.687,2.4,2.4,0,0,1,.8,1.931v3.206a3.536,3.536,0,0,0,.294,1.593V0Zm-1.634-1.374a1.7,1.7,0,0,0,.807-.195,1.28,1.28,0,0,0,.547-.523V-3.363h-.738q-1.483,0-1.579,1.025l-.007.116a.791.791,0,0,0,.26.608A1.009,1.009,0,0,0-18.173-1.374Zm7.93-.082a1.3,1.3,0,0,0,.889-.3A1.054,1.054,0,0,0-9-2.557h1.853a2.534,2.534,0,0,1-.41,1.377,2.706,2.706,0,0,1-1.1.971,3.455,3.455,0,0,1-1.548.345,3.211,3.211,0,0,1-2.5-1.008,3.99,3.99,0,0,1-.916-2.786v-.13a3.944,3.944,0,0,1,.909-2.728,3.174,3.174,0,0,1,2.5-1.019A3.111,3.111,0,0,1-8-6.744a2.8,2.8,0,0,1,.851,2.1H-9a1.358,1.358,0,0,0-.355-.938,1.185,1.185,0,0,0-.9-.361,1.19,1.19,0,0,0-1.042.5A2.916,2.916,0,0,0-11.652-3.8V-3.6A2.953,2.953,0,0,0-11.3-1.956,1.2,1.2,0,0,0-10.244-1.456Zm6.59-7.759V-7.4h1.265v1.449H-3.654v3.691a.881.881,0,0,0,.157.588.79.79,0,0,0,.6.178,3.151,3.151,0,0,0,.581-.048v1.5a4.067,4.067,0,0,1-1.2.178,1.886,1.886,0,0,1-2.119-2.1V-5.947h-1.08V-7.4h1.08V-9.215ZM-1.8-3.767a4.387,4.387,0,0,1,.424-1.962A3.1,3.1,0,0,1-.157-7.062a3.56,3.56,0,0,1,1.849-.472,3.368,3.368,0,0,1,2.444.916A3.676,3.676,0,0,1,5.192-4.129l.014.506a3.866,3.866,0,0,1-.95,2.731A3.3,3.3,0,0,1,1.706.137,3.319,3.319,0,0,1-.848-.889,3.934,3.934,0,0,1-1.8-3.678Zm1.976.14a2.765,2.765,0,0,0,.4,1.612,1.308,1.308,0,0,0,1.135.558,1.311,1.311,0,0,0,1.121-.551,3.025,3.025,0,0,0,.4-1.763,2.737,2.737,0,0,0-.4-1.6A1.311,1.311,0,0,0,1.692-5.94a1.29,1.29,0,0,0-1.121.565A3.076,3.076,0,0,0,.174-3.626Zm10.4-1.918A5.367,5.367,0,0,0,9.868-5.6,1.447,1.447,0,0,0,8.4-4.84V0H6.422V-7.4H8.289l.055.882A1.831,1.831,0,0,1,9.991-7.533a2.07,2.07,0,0,1,.615.089ZM14.933.137a3.631,3.631,0,0,1-2.649-1,3.548,3.548,0,0,1-1.022-2.659v-.191A4.468,4.468,0,0,1,11.693-5.7a3.161,3.161,0,0,1,1.22-1.354,3.425,3.425,0,0,1,1.8-.475,3.07,3.07,0,0,1,2.389.957,3.889,3.889,0,0,1,.872,2.714v.807h-4.71a1.835,1.835,0,0,0,.578,1.162,1.746,1.746,0,0,0,1.22.438,2.132,2.132,0,0,0,1.784-.827L17.818-1.2a2.966,2.966,0,0,1-1.2.981A3.947,3.947,0,0,1,14.933.137ZM14.708-5.94a1.234,1.234,0,0,0-.954.4,2.062,2.062,0,0,0-.468,1.14h2.748V-4.56a1.471,1.471,0,0,0-.355-1.02A1.274,1.274,0,0,0,14.708-5.94Zm8.395,3.9a.637.637,0,0,0-.359-.571,4.077,4.077,0,0,0-1.152-.373q-2.639-.554-2.639-2.242a2.032,2.032,0,0,1,.817-1.644,3.3,3.3,0,0,1,2.136-.66,3.547,3.547,0,0,1,2.252.663A2.09,2.09,0,0,1,25-5.147H23.027a.956.956,0,0,0-.273-.7,1.157,1.157,0,0,0-.854-.277,1.182,1.182,0,0,0-.772.226.712.712,0,0,0-.273.574.609.609,0,0,0,.311.53,3.2,3.2,0,0,0,1.049.349,8.571,8.571,0,0,1,1.244.332,2.044,2.044,0,0,1,1.565,1.989,1.929,1.929,0,0,1-.868,1.637,3.745,3.745,0,0,1-2.242.625,3.912,3.912,0,0,1-1.651-.332A2.77,2.77,0,0,1,19.13-1.1a2.113,2.113,0,0,1-.41-1.248h1.873a1.031,1.031,0,0,0,.39.807,1.546,1.546,0,0,0,.971.28,1.43,1.43,0,0,0,.858-.215A.67.67,0,0,0,23.1-2.044ZM-24.442,14.247a4.457,4.457,0,0,1,.776-2.755,2.517,2.517,0,0,1,2.123-1.025,2.265,2.265,0,0,1,1.784.807V7.5h1.982V18h-1.784l-.1-.786a2.325,2.325,0,0,1-1.9.923,2.511,2.511,0,0,1-2.1-1.029A4.6,4.6,0,0,1-24.442,14.247Zm1.976.147a2.92,2.92,0,0,0,.362,1.6,1.18,1.18,0,0,0,1.053.555,1.322,1.322,0,0,0,1.292-.774V12.847a1.3,1.3,0,0,0-1.278-.774Q-22.466,12.073-22.466,14.394Zm9.625,3.743a3.631,3.631,0,0,1-2.649-1,3.548,3.548,0,0,1-1.022-2.659v-.191a4.468,4.468,0,0,1,.431-1.993,3.161,3.161,0,0,1,1.22-1.354,3.425,3.425,0,0,1,1.8-.475,3.07,3.07,0,0,1,2.389.957A3.889,3.889,0,0,1-9.8,14.138v.807h-4.71a1.835,1.835,0,0,0,.578,1.162,1.746,1.746,0,0,0,1.22.438,2.132,2.132,0,0,0,1.784-.827l.971,1.087a2.966,2.966,0,0,1-1.2.981A3.947,3.947,0,0,1-12.841,18.137Zm-.226-6.077a1.234,1.234,0,0,0-.954.4,2.062,2.062,0,0,0-.468,1.14h2.748V13.44a1.471,1.471,0,0,0-.355-1.02A1.274,1.274,0,0,0-13.067,12.06Zm11.279,6.077a3.631,3.631,0,0,1-2.649-1,3.548,3.548,0,0,1-1.022-2.659v-.191A4.468,4.468,0,0,1-5.028,12.3a3.161,3.161,0,0,1,1.22-1.354,3.425,3.425,0,0,1,1.8-.475,3.07,3.07,0,0,1,2.389.957,3.889,3.889,0,0,1,.872,2.714v.807h-4.71a1.835,1.835,0,0,0,.578,1.162,1.746,1.746,0,0,0,1.22.438,2.132,2.132,0,0,0,1.784-.827L1.1,16.8a2.966,2.966,0,0,1-1.2.981A3.947,3.947,0,0,1-1.788,18.137Zm-.226-6.077a1.234,1.234,0,0,0-.954.4,2.062,2.062,0,0,0-.468,1.14H-.687V13.44a1.471,1.471,0,0,0-.355-1.02A1.274,1.274,0,0,0-2.013,12.06Zm.178-4.56H.318L-1.576,9.619H-3.182Zm7.027,5.312L6.436,10.6H8.548L6.443,14.227,8.637,18H6.518L5.2,15.676,3.886,18H1.76l2.194-3.773L1.856,10.6H3.975ZM11.583,18H9.6V10.6h1.982Zm-2.1-9.311a.973.973,0,0,1,.3-.731,1.117,1.117,0,0,1,.81-.287,1.12,1.12,0,0,1,.807.287,1.044,1.044,0,0,1,0,1.47,1.267,1.267,0,0,1-1.606,0A.97.97,0,0,1,9.485,8.689Zm6.091.1V10.6H16.84v1.449H15.576v3.691a.881.881,0,0,0,.157.588.79.79,0,0,0,.6.178,3.151,3.151,0,0,0,.581-.048v1.5a4.067,4.067,0,0,1-1.2.178,1.886,1.886,0,0,1-2.119-2.1V12.053H12.52V10.6H13.6V8.785Zm1.853,5.448a4.387,4.387,0,0,1,.424-1.962,3.1,3.1,0,0,1,1.22-1.333,3.56,3.56,0,0,1,1.849-.472,3.368,3.368,0,0,1,2.444.916,3.676,3.676,0,0,1,1.056,2.488l.014.506a3.866,3.866,0,0,1-.95,2.731,3.3,3.3,0,0,1-2.55,1.029,3.319,3.319,0,0,1-2.553-1.025,3.934,3.934,0,0,1-.954-2.789Zm1.976.14a2.765,2.765,0,0,0,.4,1.612,1.424,1.424,0,0,0,2.256.007,3.025,3.025,0,0,0,.4-1.763,2.737,2.737,0,0,0-.4-1.6,1.311,1.311,0,0,0-1.135-.568,1.29,1.29,0,0,0-1.121.565A3.076,3.076,0,0,0,19.4,14.374Z" transform="translate(790.288 3659.259)" fill="#12263f"/>
      <path id="Trazado_917588" data-name="Trazado 917588" d="M-32.546-4.751a6.008,6.008,0,0,1-.52,2.577A3.913,3.913,0,0,1-34.552-.465a4.113,4.113,0,0,1-2.218.6,4.141,4.141,0,0,1-2.208-.595,3.951,3.951,0,0,1-1.5-1.7,5.837,5.837,0,0,1-.54-2.54v-.492a5.977,5.977,0,0,1,.53-2.587A3.945,3.945,0,0,1-39-9.492a4.118,4.118,0,0,1,2.211-.6,4.118,4.118,0,0,1,2.211.6,3.945,3.945,0,0,1,1.5,1.716,5.96,5.96,0,0,1,.53,2.581ZM-34.624-5.2a4.188,4.188,0,0,0-.561-2.379,1.827,1.827,0,0,0-1.6-.813,1.827,1.827,0,0,0-1.593.8,4.141,4.141,0,0,0-.567,2.355v.485a4.241,4.241,0,0,0,.561,2.365,1.822,1.822,0,0,0,1.613.841,1.806,1.806,0,0,0,1.586-.81,4.216,4.216,0,0,0,.561-2.362Zm7.595-.342A5.367,5.367,0,0,0-27.74-5.6a1.447,1.447,0,0,0-1.47.759V0h-1.976V-7.4h1.866l.055.882a1.831,1.831,0,0,1,1.647-1.019A2.07,2.07,0,0,1-27-7.444Zm.663,1.791a4.335,4.335,0,0,1,.81-2.741,2.625,2.625,0,0,1,2.184-1.039,2.3,2.3,0,0,1,1.894.834l.082-.7h1.791v7.15a3.161,3.161,0,0,1-.441,1.688,2.832,2.832,0,0,1-1.241,1.094,4.362,4.362,0,0,1-1.873.376,4.056,4.056,0,0,1-1.586-.325,2.815,2.815,0,0,1-1.169-.837l.875-1.2a2.314,2.314,0,0,0,1.791.827,1.694,1.694,0,0,0,1.224-.42,1.577,1.577,0,0,0,.438-1.193v-.4a2.285,2.285,0,0,1-1.8.772A2.618,2.618,0,0,1-25.542-.906a4.334,4.334,0,0,1-.824-2.765Zm1.976.147a2.7,2.7,0,0,0,.4,1.578,1.283,1.283,0,0,0,1.107.572,1.372,1.372,0,0,0,1.292-.678V-5.249a1.369,1.369,0,0,0-1.278-.678,1.291,1.291,0,0,0-1.118.582A3.042,3.042,0,0,0-24.391-3.606ZM-13.8,0A2.194,2.194,0,0,1-14-.663a2.39,2.39,0,0,1-1.866.8,2.626,2.626,0,0,1-1.8-.629,2.023,2.023,0,0,1-.714-1.586,2.09,2.09,0,0,1,.872-1.8,4.3,4.3,0,0,1,2.519-.636h.909v-.424a1.219,1.219,0,0,0-.263-.82,1.035,1.035,0,0,0-.831-.308,1.177,1.177,0,0,0-.783.239.813.813,0,0,0-.284.656h-1.976a1.984,1.984,0,0,1,.4-1.189A2.621,2.621,0,0,1-16.7-7.222a4.086,4.086,0,0,1,1.627-.311,3.228,3.228,0,0,1,2.17.687,2.4,2.4,0,0,1,.8,1.931v3.206a3.536,3.536,0,0,0,.294,1.593V0Zm-1.634-1.374a1.7,1.7,0,0,0,.807-.195,1.28,1.28,0,0,0,.547-.523V-3.363h-.738q-1.483,0-1.579,1.025l-.007.116a.791.791,0,0,0,.26.608A1.009,1.009,0,0,0-15.436-1.374ZM-8.764-7.4l.062.854a2.582,2.582,0,0,1,2.126-.991,2.146,2.146,0,0,1,1.75.69,3.221,3.221,0,0,1,.588,2.064V0H-6.214V-4.73a1.282,1.282,0,0,0-.273-.913A1.224,1.224,0,0,0-7.4-5.927a1.359,1.359,0,0,0-1.251.711V0h-1.976V-7.4ZM-.656,0H-2.639V-7.4H-.656Zm-2.1-9.311a.973.973,0,0,1,.3-.731,1.117,1.117,0,0,1,.81-.287,1.12,1.12,0,0,1,.807.287.967.967,0,0,1,.3.731.97.97,0,0,1-.3.738,1.122,1.122,0,0,1-.8.287,1.122,1.122,0,0,1-.8-.287A.97.97,0,0,1-2.755-9.311Zm6,7.718H6.856V0H.718V-1.2L4.2-5.8H.82V-7.4H6.747v1.164ZM12.38,0a2.194,2.194,0,0,1-.2-.663,2.39,2.39,0,0,1-1.866.8,2.626,2.626,0,0,1-1.8-.629A2.023,2.023,0,0,1,7.8-2.078a2.09,2.09,0,0,1,.872-1.8,4.3,4.3,0,0,1,2.519-.636H12.1v-.424a1.219,1.219,0,0,0-.263-.82,1.035,1.035,0,0,0-.831-.308,1.177,1.177,0,0,0-.783.239.813.813,0,0,0-.284.656H7.964a1.984,1.984,0,0,1,.4-1.189,2.621,2.621,0,0,1,1.121-.858,4.086,4.086,0,0,1,1.627-.311,3.228,3.228,0,0,1,2.17.687,2.4,2.4,0,0,1,.8,1.931v3.206a3.536,3.536,0,0,0,.294,1.593V0ZM10.746-1.374a1.7,1.7,0,0,0,.807-.195,1.28,1.28,0,0,0,.547-.523V-3.363h-.738q-1.483,0-1.579,1.025l-.007.116a.791.791,0,0,0,.26.608A1.009,1.009,0,0,0,10.746-1.374Zm7.93-.082a1.3,1.3,0,0,0,.889-.3,1.054,1.054,0,0,0,.355-.8h1.853a2.534,2.534,0,0,1-.41,1.377,2.706,2.706,0,0,1-1.1.971A3.455,3.455,0,0,1,18.71.137a3.211,3.211,0,0,1-2.5-1.008,3.99,3.99,0,0,1-.916-2.786v-.13A3.944,3.944,0,0,1,16.2-6.515a3.174,3.174,0,0,1,2.5-1.019,3.111,3.111,0,0,1,2.225.79,2.8,2.8,0,0,1,.851,2.1H19.92a1.358,1.358,0,0,0-.355-.938,1.185,1.185,0,0,0-.9-.361,1.19,1.19,0,0,0-1.042.5A2.916,2.916,0,0,0,17.268-3.8V-3.6a2.953,2.953,0,0,0,.349,1.643A1.2,1.2,0,0,0,18.676-1.456ZM24.985,0H23V-7.4h1.982Zm-2.1-9.311a.973.973,0,0,1,.3-.731,1.117,1.117,0,0,1,.81-.287,1.12,1.12,0,0,1,.807.287.967.967,0,0,1,.3.731.97.97,0,0,1-.3.738,1.122,1.122,0,0,1-.8.287,1.122,1.122,0,0,1-.8-.287A.97.97,0,0,1,22.887-9.311ZM26.3-3.767a4.387,4.387,0,0,1,.424-1.962,3.1,3.1,0,0,1,1.22-1.333A3.56,3.56,0,0,1,29.8-7.533a3.368,3.368,0,0,1,2.444.916A3.676,3.676,0,0,1,33.3-4.129l.014.506a3.866,3.866,0,0,1-.95,2.731A3.3,3.3,0,0,1,29.812.137,3.319,3.319,0,0,1,27.258-.889,3.934,3.934,0,0,1,26.3-3.678Zm1.976.14a2.765,2.765,0,0,0,.4,1.612,1.308,1.308,0,0,0,1.135.558,1.311,1.311,0,0,0,1.121-.551,3.025,3.025,0,0,0,.4-1.763,2.737,2.737,0,0,0-.4-1.6A1.311,1.311,0,0,0,29.8-5.94a1.29,1.29,0,0,0-1.121.565A3.076,3.076,0,0,0,28.28-3.626ZM30.188-10.5h2.153L30.447-8.381H28.841Zm6.159,3.1.062.854a2.582,2.582,0,0,1,2.126-.991,2.146,2.146,0,0,1,1.75.69,3.221,3.221,0,0,1,.588,2.064V0H38.9V-4.73a1.282,1.282,0,0,0-.273-.913,1.224,1.224,0,0,0-.909-.284,1.359,1.359,0,0,0-1.251.711V0H34.487V-7.4Z" transform="translate(788.288 3527.259)" fill="#12263f"/>
      <path id="Trazado_917592" data-name="Trazado 917592" d="M-20.5-2.051h-3.6L-24.78,0h-2.181l3.705-9.953h1.9L-17.63,0h-2.181Zm-3.042-1.661h2.488l-1.251-3.726ZM-14.745,0h-1.982V-10.5h1.982Zm3.712,0h-1.982V-7.4h1.982Zm-2.1-9.311a.973.973,0,0,1,.3-.731,1.117,1.117,0,0,1,.81-.287,1.12,1.12,0,0,1,.807.287.967.967,0,0,1,.3.731.97.97,0,0,1-.3.738,1.122,1.122,0,0,1-.8.287,1.122,1.122,0,0,1-.8-.287A.97.97,0,0,1-13.132-9.311ZM-5.12,0a2.194,2.194,0,0,1-.2-.663,2.39,2.39,0,0,1-1.866.8,2.626,2.626,0,0,1-1.8-.629A2.023,2.023,0,0,1-9.7-2.078a2.09,2.09,0,0,1,.872-1.8A4.3,4.3,0,0,1-6.31-4.519H-5.4v-.424a1.219,1.219,0,0,0-.263-.82,1.035,1.035,0,0,0-.831-.308,1.177,1.177,0,0,0-.783.239.813.813,0,0,0-.284.656H-9.536a1.984,1.984,0,0,1,.4-1.189,2.621,2.621,0,0,1,1.121-.858,4.086,4.086,0,0,1,1.627-.311,3.228,3.228,0,0,1,2.17.687,2.4,2.4,0,0,1,.8,1.931v3.206A3.536,3.536,0,0,0-3.124-.116V0ZM-6.754-1.374a1.7,1.7,0,0,0,.807-.195A1.28,1.28,0,0,0-5.4-2.092V-3.363h-.738q-1.483,0-1.579,1.025l-.007.116a.791.791,0,0,0,.26.608A1.009,1.009,0,0,0-6.754-1.374ZM-.082-7.4l.062.854a2.582,2.582,0,0,1,2.126-.991,2.146,2.146,0,0,1,1.75.69,3.221,3.221,0,0,1,.588,2.064V0H2.468V-4.73a1.282,1.282,0,0,0-.273-.913,1.224,1.224,0,0,0-.909-.284,1.359,1.359,0,0,0-1.251.711V0H-1.941V-7.4Zm8.292,5.8h3.616V0H5.688V-1.2L9.167-5.8H5.79V-7.4h5.927v1.164ZM17.35,0a2.194,2.194,0,0,1-.2-.663,2.39,2.39,0,0,1-1.866.8,2.626,2.626,0,0,1-1.8-.629,2.023,2.023,0,0,1-.714-1.586,2.09,2.09,0,0,1,.872-1.8,4.3,4.3,0,0,1,2.519-.636h.909v-.424a1.219,1.219,0,0,0-.263-.82,1.035,1.035,0,0,0-.831-.308,1.177,1.177,0,0,0-.783.239.813.813,0,0,0-.284.656H12.934a1.984,1.984,0,0,1,.4-1.189,2.621,2.621,0,0,1,1.121-.858,4.086,4.086,0,0,1,1.627-.311,3.228,3.228,0,0,1,2.17.687,2.4,2.4,0,0,1,.8,1.931v3.206a3.536,3.536,0,0,0,.294,1.593V0ZM15.716-1.374a1.7,1.7,0,0,0,.807-.195,1.28,1.28,0,0,0,.547-.523V-3.363h-.738q-1.483,0-1.579,1.025l-.007.116a.791.791,0,0,0,.26.608A1.009,1.009,0,0,0,15.716-1.374Zm8.859-.67a.637.637,0,0,0-.359-.571,4.077,4.077,0,0,0-1.152-.373q-2.639-.554-2.639-2.242a2.032,2.032,0,0,1,.817-1.644,3.3,3.3,0,0,1,2.136-.66,3.547,3.547,0,0,1,2.252.663,2.09,2.09,0,0,1,.844,1.723H24.5a.956.956,0,0,0-.273-.7,1.157,1.157,0,0,0-.854-.277A1.182,1.182,0,0,0,22.6-5.9a.712.712,0,0,0-.273.574.609.609,0,0,0,.311.53,3.2,3.2,0,0,0,1.049.349,8.571,8.571,0,0,1,1.244.332A2.044,2.044,0,0,1,26.5-2.126a1.929,1.929,0,0,1-.868,1.637,3.745,3.745,0,0,1-2.242.625,3.912,3.912,0,0,1-1.651-.332A2.77,2.77,0,0,1,20.6-1.1a2.113,2.113,0,0,1-.41-1.248h1.873a1.031,1.031,0,0,0,.39.807,1.546,1.546,0,0,0,.971.28,1.43,1.43,0,0,0,.858-.215A.67.67,0,0,0,24.575-2.044Z" transform="translate(788.288 3812.259)" fill="#12263f"/>
      <path id="Trazado_917591" data-name="Trazado 917591" d="M-26.6-4.067h-3.937V0h-2.051V-9.953h6.48v1.661h-4.43v2.57H-26.6Zm1.1.3a4.387,4.387,0,0,1,.424-1.962,3.1,3.1,0,0,1,1.22-1.333A3.56,3.56,0,0,1-22-7.533a3.368,3.368,0,0,1,2.444.916A3.676,3.676,0,0,1-18.5-4.129l.014.506a3.866,3.866,0,0,1-.95,2.731A3.3,3.3,0,0,1-21.988.137,3.319,3.319,0,0,1-24.541-.889a3.934,3.934,0,0,1-.954-2.789Zm1.976.14a2.765,2.765,0,0,0,.4,1.612,1.308,1.308,0,0,0,1.135.558,1.311,1.311,0,0,0,1.121-.551,3.025,3.025,0,0,0,.4-1.763,2.737,2.737,0,0,0-.4-1.6A1.311,1.311,0,0,0-22-5.94a1.29,1.29,0,0,0-1.121.565A3.076,3.076,0,0,0-23.519-3.626Zm10.4-1.918a5.367,5.367,0,0,0-.711-.055,1.447,1.447,0,0,0-1.47.759V0h-1.976V-7.4H-15.4l.055.882A1.831,1.831,0,0,1-13.7-7.533a2.07,2.07,0,0,1,.615.089Zm2.8-1.853.062.827a2.6,2.6,0,0,1,2.126-.964A1.973,1.973,0,0,1-6.163-6.405,2.54,2.54,0,0,1-3.941-7.533a2.206,2.206,0,0,1,1.791.7,3.221,3.221,0,0,1,.588,2.109V0H-3.544V-4.717a1.408,1.408,0,0,0-.246-.919,1.091,1.091,0,0,0-.868-.291,1.233,1.233,0,0,0-1.23.848L-5.882,0H-7.858V-4.71a1.391,1.391,0,0,0-.253-.93,1.1,1.1,0,0,0-.861-.287,1.28,1.28,0,0,0-1.217.7V0h-1.976V-7.4ZM4.242,0a2.194,2.194,0,0,1-.2-.663,2.39,2.39,0,0,1-1.866.8,2.626,2.626,0,0,1-1.8-.629A2.023,2.023,0,0,1-.338-2.078a2.09,2.09,0,0,1,.872-1.8,4.3,4.3,0,0,1,2.519-.636h.909v-.424a1.219,1.219,0,0,0-.263-.82,1.035,1.035,0,0,0-.831-.308,1.177,1.177,0,0,0-.783.239.813.813,0,0,0-.284.656H-.174a1.984,1.984,0,0,1,.4-1.189,2.621,2.621,0,0,1,1.121-.858A4.086,4.086,0,0,1,2.97-7.533a3.228,3.228,0,0,1,2.17.687,2.4,2.4,0,0,1,.8,1.931v3.206A3.536,3.536,0,0,0,6.238-.116V0ZM2.608-1.374a1.7,1.7,0,0,0,.807-.195,1.28,1.28,0,0,0,.547-.523V-3.363H3.223q-1.483,0-1.579,1.025l-.007.116a.791.791,0,0,0,.26.608A1.009,1.009,0,0,0,2.608-1.374Zm7.93-.082a1.3,1.3,0,0,0,.889-.3,1.054,1.054,0,0,0,.355-.8h1.853a2.534,2.534,0,0,1-.41,1.377,2.706,2.706,0,0,1-1.1.971,3.455,3.455,0,0,1-1.548.345A3.211,3.211,0,0,1,8.07-.872a3.99,3.99,0,0,1-.916-2.786v-.13a3.944,3.944,0,0,1,.909-2.728,3.174,3.174,0,0,1,2.5-1.019,3.111,3.111,0,0,1,2.225.79,2.8,2.8,0,0,1,.851,2.1H11.782a1.358,1.358,0,0,0-.355-.938,1.185,1.185,0,0,0-.9-.361,1.19,1.19,0,0,0-1.042.5A2.916,2.916,0,0,0,9.129-3.8V-3.6a2.953,2.953,0,0,0,.349,1.643A1.2,1.2,0,0,0,10.538-1.456ZM16.847,0H14.865V-7.4h1.982Zm-2.1-9.311a.973.973,0,0,1,.3-.731,1.117,1.117,0,0,1,.81-.287,1.12,1.12,0,0,1,.807.287.967.967,0,0,1,.3.731.97.97,0,0,1-.3.738,1.122,1.122,0,0,1-.8.287,1.122,1.122,0,0,1-.8-.287A.97.97,0,0,1,14.749-9.311Zm3.418,5.544a4.387,4.387,0,0,1,.424-1.962,3.1,3.1,0,0,1,1.22-1.333,3.56,3.56,0,0,1,1.849-.472,3.368,3.368,0,0,1,2.444.916A3.676,3.676,0,0,1,25.16-4.129l.014.506a3.866,3.866,0,0,1-.95,2.731A3.3,3.3,0,0,1,21.673.137,3.319,3.319,0,0,1,19.12-.889a3.934,3.934,0,0,1-.954-2.789Zm1.976.14a2.765,2.765,0,0,0,.4,1.612,1.308,1.308,0,0,0,1.135.558,1.311,1.311,0,0,0,1.121-.551,3.025,3.025,0,0,0,.4-1.763,2.737,2.737,0,0,0-.4-1.6A1.311,1.311,0,0,0,21.66-5.94a1.29,1.29,0,0,0-1.121.565A3.076,3.076,0,0,0,20.142-3.626ZM22.049-10.5H24.2L22.309-8.381H20.7Zm6.159,3.1.062.854A2.582,2.582,0,0,1,30.4-7.533a2.146,2.146,0,0,1,1.75.69,3.221,3.221,0,0,1,.588,2.064V0H30.758V-4.73a1.282,1.282,0,0,0-.273-.913,1.224,1.224,0,0,0-.909-.284,1.359,1.359,0,0,0-1.251.711V0H26.349V-7.4Z" transform="translate(933.288 3666.259)" fill="#12263f"/>
      <path id="Trazado_917589" data-name="Trazado 917589" d="M-36.3-3.507V0h-2.051V-9.953h3.883a4.492,4.492,0,0,1,1.972.41,3.022,3.022,0,0,1,1.309,1.166,3.25,3.25,0,0,1,.458,1.719,2.858,2.858,0,0,1-1,2.307,4.171,4.171,0,0,1-2.772.844Zm0-1.661h1.832a1.8,1.8,0,0,0,1.241-.383A1.392,1.392,0,0,0-32.8-6.645a1.642,1.642,0,0,0-.431-1.183,1.609,1.609,0,0,0-1.189-.465H-36.3Zm10.254,5.3a3.631,3.631,0,0,1-2.649-1,3.548,3.548,0,0,1-1.022-2.659v-.191A4.468,4.468,0,0,1-29.282-5.7a3.161,3.161,0,0,1,1.22-1.354,3.425,3.425,0,0,1,1.8-.475,3.07,3.07,0,0,1,2.389.957A3.889,3.889,0,0,1-23-3.862v.807h-4.71a1.835,1.835,0,0,0,.578,1.162,1.746,1.746,0,0,0,1.22.438,2.132,2.132,0,0,0,1.784-.827l.971,1.087a2.966,2.966,0,0,1-1.2.981A3.947,3.947,0,0,1-26.042.137Zm-.226-6.077a1.234,1.234,0,0,0-.954.4,2.062,2.062,0,0,0-.468,1.14h2.748V-4.56A1.471,1.471,0,0,0-25.3-5.58,1.274,1.274,0,0,0-26.267-5.94Zm8.545.4a5.367,5.367,0,0,0-.711-.055,1.447,1.447,0,0,0-1.47.759V0h-1.976V-7.4h1.866l.055.882A1.831,1.831,0,0,1-18.31-7.533a2.07,2.07,0,0,1,.615.089Zm4.956,3.5a.637.637,0,0,0-.359-.571,4.077,4.077,0,0,0-1.152-.373q-2.639-.554-2.639-2.242A2.032,2.032,0,0,1-16.1-6.874a3.3,3.3,0,0,1,2.136-.66,3.547,3.547,0,0,1,2.252.663,2.09,2.09,0,0,1,.844,1.723h-1.976a.956.956,0,0,0-.273-.7,1.157,1.157,0,0,0-.854-.277,1.182,1.182,0,0,0-.772.226.712.712,0,0,0-.273.574.609.609,0,0,0,.311.53,3.2,3.2,0,0,0,1.049.349,8.571,8.571,0,0,1,1.244.332,2.044,2.044,0,0,1,1.565,1.989,1.929,1.929,0,0,1-.868,1.637,3.745,3.745,0,0,1-2.242.625,3.912,3.912,0,0,1-1.651-.332A2.77,2.77,0,0,1-16.738-1.1a2.113,2.113,0,0,1-.41-1.248h1.873a1.031,1.031,0,0,0,.39.807,1.546,1.546,0,0,0,.971.28,1.43,1.43,0,0,0,.858-.215A.67.67,0,0,0-12.766-2.044ZM-7.489,0H-9.471V-7.4h1.982Zm-2.1-9.311a.973.973,0,0,1,.3-.731,1.117,1.117,0,0,1,.81-.287,1.12,1.12,0,0,1,.807.287.967.967,0,0,1,.3.731.97.97,0,0,1-.3.738,1.122,1.122,0,0,1-.8.287,1.122,1.122,0,0,1-.8-.287A.97.97,0,0,1-9.587-9.311Zm7.731,7.267a.637.637,0,0,0-.359-.571,4.077,4.077,0,0,0-1.152-.373q-2.639-.554-2.639-2.242a2.032,2.032,0,0,1,.817-1.644,3.3,3.3,0,0,1,2.136-.66A3.547,3.547,0,0,1-.8-6.87,2.09,2.09,0,0,1,.044-5.147H-1.931a.956.956,0,0,0-.273-.7,1.157,1.157,0,0,0-.854-.277,1.182,1.182,0,0,0-.772.226.712.712,0,0,0-.273.574.609.609,0,0,0,.311.53,3.2,3.2,0,0,0,1.049.349A8.571,8.571,0,0,1-1.5-4.115,2.044,2.044,0,0,1,.065-2.126,1.929,1.929,0,0,1-.8-.489,3.745,3.745,0,0,1-3.045.137,3.912,3.912,0,0,1-4.7-.195,2.77,2.77,0,0,1-5.828-1.1a2.113,2.113,0,0,1-.41-1.248h1.873a1.031,1.031,0,0,0,.39.807A1.546,1.546,0,0,0-3-1.265a1.43,1.43,0,0,0,.858-.215A.67.67,0,0,0-1.856-2.044ZM3.7-9.215V-7.4H4.966v1.449H3.7v3.691a.881.881,0,0,0,.157.588.79.79,0,0,0,.6.178,3.151,3.151,0,0,0,.581-.048v1.5a4.067,4.067,0,0,1-1.2.178,1.886,1.886,0,0,1-2.119-2.1V-5.947H.646V-7.4h1.08V-9.215ZM9.471.137a3.631,3.631,0,0,1-2.649-1A3.548,3.548,0,0,1,5.8-3.521v-.191A4.468,4.468,0,0,1,6.231-5.7a3.161,3.161,0,0,1,1.22-1.354,3.425,3.425,0,0,1,1.8-.475,3.07,3.07,0,0,1,2.389.957,3.889,3.889,0,0,1,.872,2.714v.807H7.8a1.835,1.835,0,0,0,.578,1.162,1.746,1.746,0,0,0,1.22.438,2.132,2.132,0,0,0,1.784-.827L12.356-1.2a2.966,2.966,0,0,1-1.2.981A3.947,3.947,0,0,1,9.471.137ZM9.246-5.94a1.234,1.234,0,0,0-.954.4A2.062,2.062,0,0,0,7.824-4.4h2.748V-4.56a1.471,1.471,0,0,0-.355-1.02A1.274,1.274,0,0,0,9.246-5.94ZM15.453-7.4l.062.854a2.582,2.582,0,0,1,2.126-.991,2.146,2.146,0,0,1,1.75.69,3.221,3.221,0,0,1,.588,2.064V0H18V-4.73a1.282,1.282,0,0,0-.273-.913,1.224,1.224,0,0,0-.909-.284,1.359,1.359,0,0,0-1.251.711V0H13.593V-7.4Zm9.1,5.94a1.3,1.3,0,0,0,.889-.3,1.054,1.054,0,0,0,.355-.8h1.853a2.534,2.534,0,0,1-.41,1.377,2.706,2.706,0,0,1-1.1.971,3.455,3.455,0,0,1-1.548.345,3.211,3.211,0,0,1-2.5-1.008,3.99,3.99,0,0,1-.916-2.786v-.13a3.944,3.944,0,0,1,.909-2.728,3.174,3.174,0,0,1,2.5-1.019,3.111,3.111,0,0,1,2.225.79,2.8,2.8,0,0,1,.851,2.1H25.8a1.358,1.358,0,0,0-.355-.938,1.185,1.185,0,0,0-.9-.361,1.19,1.19,0,0,0-1.042.5A2.916,2.916,0,0,0,23.143-3.8V-3.6a2.953,2.953,0,0,0,.349,1.643A1.2,1.2,0,0,0,24.551-1.456ZM30.861,0H28.878V-7.4h1.982Zm-2.1-9.311a.973.973,0,0,1,.3-.731,1.117,1.117,0,0,1,.81-.287,1.12,1.12,0,0,1,.807.287.967.967,0,0,1,.3.731.97.97,0,0,1-.3.738,1.122,1.122,0,0,1-.8.287,1.122,1.122,0,0,1-.8-.287A.97.97,0,0,1,28.762-9.311ZM36.774,0a2.194,2.194,0,0,1-.2-.663,2.39,2.39,0,0,1-1.866.8,2.626,2.626,0,0,1-1.8-.629,2.023,2.023,0,0,1-.714-1.586,2.09,2.09,0,0,1,.872-1.8,4.3,4.3,0,0,1,2.519-.636h.909v-.424a1.219,1.219,0,0,0-.263-.82A1.035,1.035,0,0,0,35.4-6.07a1.177,1.177,0,0,0-.783.239.813.813,0,0,0-.284.656H32.358a1.984,1.984,0,0,1,.4-1.189,2.621,2.621,0,0,1,1.121-.858A4.086,4.086,0,0,1,35.5-7.533a3.228,3.228,0,0,1,2.17.687,2.4,2.4,0,0,1,.8,1.931v3.206A3.536,3.536,0,0,0,38.77-.116V0ZM35.14-1.374a1.7,1.7,0,0,0,.807-.195,1.28,1.28,0,0,0,.547-.523V-3.363h-.738q-1.483,0-1.579,1.025l-.007.116a.791.791,0,0,0,.26.608A1.009,1.009,0,0,0,35.14-1.374Z" transform="translate(646.288 3666.259)" fill="#12263f"/>
    </g>
  </g>
</svg>
