<svg xmlns="http://www.w3.org/2000/svg" xmlns:xlink="http://www.w3.org/1999/xlink" width="118" height="118" viewBox="0 0 118 118">
  <defs>
    <filter id="Trazado_874925" x="0" y="0" width="118" height="118" filterUnits="userSpaceOnUse">
      <feOffset dy="3" input="SourceAlpha"/>
      <feGaussianBlur stdDeviation="3" result="blur"/>
      <feFlood flood-opacity="0.161"/>
      <feComposite operator="in" in2="blur"/>
      <feComposite in="SourceGraphic"/>
    </filter>
  </defs>
  <g id="Grupo_1118869" data-name="Grupo 1118869" transform="translate(6614 9513.72)">
    <g id="Grupo_1111553" data-name="Grupo 1111553" transform="translate(-7413.5 -12024.877)">
      <g id="Grupo_1111316" data-name="Grupo 1111316" transform="translate(808.5 2517.157)">
        <g id="Grupo_1109835" data-name="Grupo 1109835" transform="translate(0 0)">
          <g id="Grupo_1107913" data-name="Grupo 1107913" transform="translate(0 0)">
            <g transform="matrix(1, 0, 0, 1, -9, -6)" filter="url(#Trazado_874925)">
              <g id="Trazado_874925-2" data-name="Trazado 874925" transform="translate(9 6)" fill="#fc0" opacity="0.859">
                <path d="M 49.99972534179688 98.4998779296875 C 43.45164108276367 98.4998779296875 37.10022354125977 97.21776580810547 31.12189674377441 94.68914794921875 C 25.34676742553711 92.24647521972656 20.15985298156738 88.74925994873047 15.70523929595947 84.29464721679688 C 11.25062561035156 79.84004974365234 7.753411293029785 74.65313720703125 5.310725212097168 68.87800598144531 C 2.782111167907715 62.89969253540039 1.499996781349182 56.54829406738281 1.499996781349182 50.00022125244141 C 1.499996781349182 43.45157623291016 2.782111167907715 37.10017776489258 5.310725212097168 31.12186431884766 C 7.753411293029785 25.34673500061035 11.25062561035156 20.15983581542969 15.70523929595947 15.70522117614746 C 20.15985298156738 11.25062084197998 25.34676742553711 7.753406524658203 31.12189674377441 5.31073522567749 C 37.10022354125977 2.782120943069458 43.45164108276367 1.500006556510925 49.99972534179688 1.500006556510925 C 56.54780960083008 1.500006556510925 62.89922714233398 2.782120943069458 68.87755584716797 5.31073522567749 C 74.65267944335938 7.753406524658203 79.839599609375 11.25062084197998 84.29421234130859 15.70522117614746 C 88.74882507324219 20.15983581542969 92.24604034423828 25.34673500061035 94.68872833251953 31.12186431884766 C 97.21733856201172 37.10017776489258 98.49945068359375 43.45157623291016 98.49945068359375 49.99964904785156 C 98.49945068359375 56.54829406738281 97.21733856201172 62.89969253540039 94.68872833251953 68.87800598144531 C 92.24604034423828 74.65313720703125 88.74882507324219 79.84004974365234 84.29421234130859 84.29464721679688 C 79.839599609375 88.74925994873047 74.65267944335938 92.24647521972656 68.87755584716797 94.68914794921875 C 62.89922714233398 97.21776580810547 56.54780960083008 98.4998779296875 49.99972534179688 98.4998779296875 Z" stroke="none"/>
                <path d="M 49.99972534179688 3 C 43.65348052978516 3 37.49866485595703 4.242240905761719 31.70623016357422 6.692230224609375 C 26.10989379882812 9.059272766113281 21.08323669433594 12.44853210449219 16.76589202880859 16.76587677001953 C 12.44855499267578 21.08321380615234 9.059295654296875 26.10985565185547 6.692230224609375 31.70618438720703 C 4.24224853515625 37.49859619140625 3 43.65341186523438 3 50.00022888183594 C 3 56.34645843505859 4.24224853515625 62.50127410888672 6.692230224609375 68.29368591308594 C 9.059295654296875 73.8900146484375 12.44855499267578 78.91665649414062 16.76589202880859 83.23399353027344 C 21.08323669433594 87.55132293701172 26.10989379882812 90.94059753417969 31.70623016357422 93.30764007568359 C 37.49866485595703 95.75762939453125 43.65348052978516 96.99987030029297 49.99972534179688 96.99987030029297 C 56.34597015380859 96.99987030029297 62.50078582763672 95.75762939453125 68.293212890625 93.30764007568359 C 73.88955688476562 90.94059753417969 78.91621398925781 87.55132293701172 83.23355865478516 83.23399353027344 C 87.55089569091797 78.91665649414062 90.94015502929688 73.8900146484375 93.30722045898438 68.29368591308594 C 95.7572021484375 62.50127410888672 96.99945068359375 56.34645843505859 96.99945068359375 49.99964141845703 C 96.99945068359375 43.65341186523438 95.7572021484375 37.49859619140625 93.30722045898438 31.70618438720703 C 90.94015502929688 26.10985565185547 87.55089569091797 21.08321380615234 83.23355865478516 16.76587677001953 C 78.91621398925781 12.44853210449219 73.88955688476562 9.059272766113281 68.293212890625 6.692230224609375 C 62.50078582763672 4.242240905761719 56.34597015380859 3 49.99972534179688 3 M 49.99972534179688 0 C 77.61381530761719 0 99.99945068359375 22.38559722900391 99.99945068359375 49.99964141845703 L 99.99945068359375 50.00022888183594 C 99.99945068359375 77.6142578125 77.61381530761719 99.99987030029297 49.99972534179688 99.99987030029297 C 22.38563537597656 99.99987030029297 0 77.6142578125 0 50.00022888183594 L 0 49.99964141845703 C 0 22.38559722900391 22.38563537597656 0 49.99972534179688 0 Z" stroke="none" fill="#fff"/>
              </g>
            </g>
            <g id="Trazado_874923" data-name="Trazado 874923" transform="translate(0 0)" fill="none">
              <path d="M50,0a50,50,0,0,1,50,50h0A50,50,0,0,1,0,50H0A50,50,0,0,1,50,0Z" stroke="none"/>
              <path d="M 49.99972534179688 3 C 43.65348052978516 3 37.49866485595703 4.242240905761719 31.70623016357422 6.692230224609375 C 26.10989379882812 9.059272766113281 21.08323669433594 12.44853210449219 16.76589202880859 16.76587677001953 C 12.44855499267578 21.08321380615234 9.059295654296875 26.10985565185547 6.692230224609375 31.70618438720703 C 4.24224853515625 37.49859619140625 3 43.65341186523438 3 50.00022888183594 C 3 56.34645843505859 4.24224853515625 62.50127410888672 6.692230224609375 68.29368591308594 C 9.059295654296875 73.8900146484375 12.44855499267578 78.91665649414062 16.76589202880859 83.23399353027344 C 21.08323669433594 87.55132293701172 26.10989379882812 90.94059753417969 31.70623016357422 93.30764007568359 C 37.49866485595703 95.75762939453125 43.65348052978516 96.99987030029297 49.99972534179688 96.99987030029297 C 56.34597015380859 96.99987030029297 62.50078582763672 95.75762939453125 68.293212890625 93.30764007568359 C 73.88955688476562 90.94059753417969 78.91621398925781 87.55132293701172 83.23355865478516 83.23399353027344 C 87.55089569091797 78.91665649414062 90.94015502929688 73.8900146484375 93.30722045898438 68.29368591308594 C 95.7572021484375 62.50127410888672 96.99945068359375 56.34645843505859 96.99945068359375 49.99964141845703 C 96.99945068359375 43.65341186523438 95.7572021484375 37.49859619140625 93.30722045898438 31.70618438720703 C 90.94015502929688 26.10985565185547 87.55089569091797 21.08321380615234 83.23355865478516 16.76587677001953 C 78.91621398925781 12.44853210449219 73.88955688476562 9.059272766113281 68.293212890625 6.692230224609375 C 62.50078582763672 4.242240905761719 56.34597015380859 3 49.99972534179688 3 M 49.99972534179688 0 C 77.61381530761719 0 99.99945068359375 22.38559722900391 99.99945068359375 49.99964141845703 L 99.99945068359375 50.00022888183594 C 99.99945068359375 77.6142578125 77.61381530761719 99.99987030029297 49.99972534179688 99.99987030029297 C 22.38563537597656 99.99987030029297 0 77.6142578125 0 50.00022888183594 L 0 49.99964141845703 C 0 22.38559722900391 22.38563537597656 0 49.99972534179688 0 Z" stroke="none" fill="#fff"/>
            </g>
          </g>
        </g>
      </g>
    </g>
    <g id="Grupo_1118868" data-name="Grupo 1118868" transform="translate(-6611.352 -9489.927)">
      <g id="Grupo_1118849" data-name="Grupo 1118849" transform="translate(28.6 1.248)">
        <g id="Grupo_1118845" data-name="Grupo 1118845" transform="translate(8.504 22.627)">
          <path id="Trazado_913429" data-name="Trazado 913429" d="M139.7,192.362a11.859,11.859,0,0,1-3.5-.524v28.2a3.3,3.3,0,0,1-3.295,3.295H105.476v3.421a3.3,3.3,0,0,0,3.295,3.295H141.41a3.3,3.3,0,0,0,3.295-3.295v-35.5A11.817,11.817,0,0,1,139.7,192.362Z" transform="translate(-105.476 -191.256)" fill="#ccf5fc"/>
        </g>
        <g id="Grupo_1118846" data-name="Grupo 1118846" transform="translate(0 2.702)">
          <path id="Trazado_913430" data-name="Trazado 913430" d="M72.29,31.646H40.647a3.3,3.3,0,0,0-3.295,3.295V80.351a3.3,3.3,0,0,0,3.295,3.295H73.286a3.3,3.3,0,0,0,3.295-3.295V52.4" transform="translate(-37.352 -31.646)" fill="#faf7f5"/>
        </g>
        <g id="Grupo_1118847" data-name="Grupo 1118847" transform="translate(30.861)">
          <ellipse id="Elipse_11842" data-name="Elipse 11842" cx="11.864" cy="11.866" rx="11.864" ry="11.866" fill="#ff7d97"/>
        </g>
        <g id="Grupo_1118848" data-name="Grupo 1118848" transform="translate(8.367 12.561)">
          <path id="Trazado_913431" data-name="Trazado 913431" d="M104.377,110.62h22.495v5.272H104.377Z" transform="translate(-104.377 -110.62)" fill="#ffe6b4"/>
        </g>
      </g>
      <g id="Grupo_1118867" data-name="Grupo 1118867" transform="translate(27.352)">
        <g id="Grupo_1118851" data-name="Grupo 1118851" transform="translate(42.73 10.231)">
          <g id="Grupo_1118850" data-name="Grupo 1118850">
            <path id="Trazado_913432" data-name="Trazado 913432" d="M370.9,92.989a1.248,1.248,0,0,1-1.248-1.248V83.2a1.248,1.248,0,1,1,2.5,0V91.74A1.248,1.248,0,0,1,370.9,92.989Z" transform="translate(-369.655 -81.956)"/>
          </g>
        </g>
        <g id="Grupo_1118853" data-name="Grupo 1118853" transform="translate(42.725 6.214)">
          <g id="Grupo_1118852" data-name="Grupo 1118852">
            <circle id="Elipse_11843" data-name="Elipse 11843" cx="1.248" cy="1.248" r="1.248"/>
          </g>
        </g>
        <g id="Grupo_1118856" data-name="Grupo 1118856" transform="translate(0)">
          <path id="Trazado_913433" data-name="Trazado 913433" d="M84.437,13.114A13.105,13.105,0,0,0,63.362,2.7H31.9a4.548,4.548,0,0,0-4.543,4.543V52.656A4.548,4.548,0,0,0,31.9,57.2h3.961v2.172A4.548,4.548,0,0,0,40.4,63.914H73.038a4.548,4.548,0,0,0,4.543-4.543V42.056a1.248,1.248,0,1,0-2.5,0V59.371a2.049,2.049,0,0,1-2.046,2.047H40.4a2.049,2.049,0,0,1-2.046-2.047V57.2H64.534a4.548,4.548,0,0,0,4.543-4.543V26.036a13.16,13.16,0,0,0,6.007-.356v5.09a1.248,1.248,0,1,0,2.5,0V24.638a13.126,13.126,0,0,0,6.856-11.523ZM66.58,52.656A2.049,2.049,0,0,1,64.534,54.7H31.9a2.049,2.049,0,0,1-2.046-2.047V7.245A2.049,2.049,0,0,1,31.9,5.2H60.877a13.046,13.046,0,0,0-2.652,7.362H36.967a1.248,1.248,0,0,0-1.248,1.248v5.272a1.248,1.248,0,0,0,1.248,1.248H59.462a1.243,1.243,0,0,0,.755-.254A13.189,13.189,0,0,0,66.58,25.34Zm-8.367-37.6v2.776h-20V15.057Zm13.112,8.675A10.618,10.618,0,1,1,81.941,13.114,10.629,10.629,0,0,1,71.325,23.732Z" transform="translate(-27.352 0)"/>
          <g id="Grupo_1118855" data-name="Grupo 1118855" transform="translate(47.735 35.145)">
            <g id="Grupo_1118854" data-name="Grupo 1118854">
              <path id="Trazado_913434" data-name="Trazado 913434" d="M410.988,284.035a1.248,1.248,0,1,1,1.216-.965A1.26,1.26,0,0,1,410.988,284.035Z" transform="translate(-409.742 -281.541)"/>
            </g>
          </g>
        </g>
        <g id="Grupo_1118866" data-name="Grupo 1118866" transform="translate(8.367 24.671)">
          <g id="Grupo_1118865" data-name="Grupo 1118865">
            <g id="Grupo_1118858" data-name="Grupo 1118858">
              <g id="Grupo_1118857" data-name="Grupo 1118857">
                <path id="Trazado_913435" data-name="Trazado 913435" d="M118.12,200.13H95.625a1.248,1.248,0,1,1,0-2.5H118.12a1.248,1.248,0,0,1,0,2.5Z" transform="translate(-94.377 -197.633)"/>
              </g>
            </g>
            <g id="Grupo_1118860" data-name="Grupo 1118860" transform="translate(0 5.921)">
              <g id="Grupo_1118859" data-name="Grupo 1118859">
                <path id="Trazado_913436" data-name="Trazado 913436" d="M118.12,247.56H95.625a1.248,1.248,0,0,1,0-2.5H118.12a1.248,1.248,0,0,1,0,2.5Z" transform="translate(-94.377 -245.063)"/>
              </g>
            </g>
            <g id="Grupo_1118862" data-name="Grupo 1118862" transform="translate(0 11.842)">
              <g id="Grupo_1118861" data-name="Grupo 1118861">
                <path id="Trazado_913437" data-name="Trazado 913437" d="M118.12,294.99H95.625a1.248,1.248,0,1,1,0-2.5H118.12a1.248,1.248,0,1,1,0,2.5Z" transform="translate(-94.377 -292.493)"/>
              </g>
            </g>
            <g id="Grupo_1118864" data-name="Grupo 1118864" transform="translate(0 17.762)">
              <g id="Grupo_1118863" data-name="Grupo 1118863">
                <path id="Trazado_913438" data-name="Trazado 913438" d="M118.12,342.42H95.625a1.248,1.248,0,1,1,0-2.5H118.12a1.248,1.248,0,1,1,0,2.5Z" transform="translate(-94.377 -339.923)"/>
              </g>
            </g>
          </g>
        </g>
      </g>
    </g>
  </g>
</svg>
