<svg xmlns="http://www.w3.org/2000/svg" xmlns:xlink="http://www.w3.org/1999/xlink" width="118" height="118" viewBox="0 0 118 118">
  <defs>
    <filter id="Trazado_874925" x="0" y="0" width="118" height="118" filterUnits="userSpaceOnUse">
      <feOffset dy="3" input="SourceAlpha"/>
      <feGaussianBlur stdDeviation="3" result="blur"/>
      <feFlood flood-opacity="0.161"/>
      <feComposite operator="in" in2="blur"/>
      <feComposite in="SourceGraphic"/>
    </filter>
  </defs>
  <g id="Grupo_1118900" data-name="Grupo 1118900" transform="translate(6291 9514)">
    <g id="Grupo_1111552" data-name="Grupo 1111552" transform="translate(-7090.5 -12025.157)">
      <g id="Grupo_1111316" data-name="Grupo 1111316" transform="translate(808.5 2517.157)">
        <g id="Grupo_1109835" data-name="Grupo 1109835" transform="translate(0 0)">
          <g id="Grupo_1107913" data-name="Grupo 1107913" transform="translate(0 0)">
            <g transform="matrix(1, 0, 0, 1, -9, -6)" filter="url(#Trazado_874925)">
              <g id="Trazado_874925-2" data-name="Trazado 874925" transform="translate(9 6)" fill="#fc0" opacity="0.859">
                <path d="M 49.99972534179688 98.4998779296875 C 43.45164108276367 98.4998779296875 37.10022354125977 97.21776580810547 31.12189674377441 94.68914794921875 C 25.34676742553711 92.24647521972656 20.15985298156738 88.74925994873047 15.70523929595947 84.29464721679688 C 11.25062561035156 79.84004974365234 7.753411293029785 74.65313720703125 5.310725212097168 68.87800598144531 C 2.782111167907715 62.89969253540039 1.499996781349182 56.54829406738281 1.499996781349182 50.00022125244141 C 1.499996781349182 43.45157623291016 2.782111167907715 37.10017776489258 5.310725212097168 31.12186431884766 C 7.753411293029785 25.34673500061035 11.25062561035156 20.15983581542969 15.70523929595947 15.70522117614746 C 20.15985298156738 11.25062084197998 25.34676742553711 7.753406524658203 31.12189674377441 5.31073522567749 C 37.10022354125977 2.782120943069458 43.45164108276367 1.500006556510925 49.99972534179688 1.500006556510925 C 56.54780960083008 1.500006556510925 62.89922714233398 2.782120943069458 68.87755584716797 5.31073522567749 C 74.65267944335938 7.753406524658203 79.839599609375 11.25062084197998 84.29421234130859 15.70522117614746 C 88.74882507324219 20.15983581542969 92.24604034423828 25.34673500061035 94.68872833251953 31.12186431884766 C 97.21733856201172 37.10017776489258 98.49945068359375 43.45157623291016 98.49945068359375 49.99964904785156 C 98.49945068359375 56.54829406738281 97.21733856201172 62.89969253540039 94.68872833251953 68.87800598144531 C 92.24604034423828 74.65313720703125 88.74882507324219 79.84004974365234 84.29421234130859 84.29464721679688 C 79.839599609375 88.74925994873047 74.65267944335938 92.24647521972656 68.87755584716797 94.68914794921875 C 62.89922714233398 97.21776580810547 56.54780960083008 98.4998779296875 49.99972534179688 98.4998779296875 Z" stroke="none"/>
                <path d="M 49.99972534179688 3 C 43.65348052978516 3 37.49866485595703 4.242240905761719 31.70623016357422 6.692230224609375 C 26.10989379882812 9.059272766113281 21.08323669433594 12.44853210449219 16.76589202880859 16.76587677001953 C 12.44855499267578 21.08321380615234 9.059295654296875 26.10985565185547 6.692230224609375 31.70618438720703 C 4.24224853515625 37.49859619140625 3 43.65341186523438 3 50.00022888183594 C 3 56.34645843505859 4.24224853515625 62.50127410888672 6.692230224609375 68.29368591308594 C 9.059295654296875 73.8900146484375 12.44855499267578 78.91665649414062 16.76589202880859 83.23399353027344 C 21.08323669433594 87.55132293701172 26.10989379882812 90.94059753417969 31.70623016357422 93.30764007568359 C 37.49866485595703 95.75762939453125 43.65348052978516 96.99987030029297 49.99972534179688 96.99987030029297 C 56.34597015380859 96.99987030029297 62.50078582763672 95.75762939453125 68.293212890625 93.30764007568359 C 73.88955688476562 90.94059753417969 78.91621398925781 87.55132293701172 83.23355865478516 83.23399353027344 C 87.55089569091797 78.91665649414062 90.94015502929688 73.8900146484375 93.30722045898438 68.29368591308594 C 95.7572021484375 62.50127410888672 96.99945068359375 56.34645843505859 96.99945068359375 49.99964141845703 C 96.99945068359375 43.65341186523438 95.7572021484375 37.49859619140625 93.30722045898438 31.70618438720703 C 90.94015502929688 26.10985565185547 87.55089569091797 21.08321380615234 83.23355865478516 16.76587677001953 C 78.91621398925781 12.44853210449219 73.88955688476562 9.059272766113281 68.293212890625 6.692230224609375 C 62.50078582763672 4.242240905761719 56.34597015380859 3 49.99972534179688 3 M 49.99972534179688 0 C 77.61381530761719 0 99.99945068359375 22.38559722900391 99.99945068359375 49.99964141845703 L 99.99945068359375 50.00022888183594 C 99.99945068359375 77.6142578125 77.61381530761719 99.99987030029297 49.99972534179688 99.99987030029297 C 22.38563537597656 99.99987030029297 0 77.6142578125 0 50.00022888183594 L 0 49.99964141845703 C 0 22.38559722900391 22.38563537597656 0 49.99972534179688 0 Z" stroke="none" fill="#fff"/>
              </g>
            </g>
            <g id="Trazado_874923" data-name="Trazado 874923" transform="translate(0 0)" fill="none">
              <path d="M50,0a50,50,0,0,1,50,50h0A50,50,0,0,1,0,50H0A50,50,0,0,1,50,0Z" stroke="none"/>
              <path d="M 49.99972534179688 3 C 43.65348052978516 3 37.49866485595703 4.242240905761719 31.70623016357422 6.692230224609375 C 26.10989379882812 9.059272766113281 21.08323669433594 12.44853210449219 16.76589202880859 16.76587677001953 C 12.44855499267578 21.08321380615234 9.059295654296875 26.10985565185547 6.692230224609375 31.70618438720703 C 4.24224853515625 37.49859619140625 3 43.65341186523438 3 50.00022888183594 C 3 56.34645843505859 4.24224853515625 62.50127410888672 6.692230224609375 68.29368591308594 C 9.059295654296875 73.8900146484375 12.44855499267578 78.91665649414062 16.76589202880859 83.23399353027344 C 21.08323669433594 87.55132293701172 26.10989379882812 90.94059753417969 31.70623016357422 93.30764007568359 C 37.49866485595703 95.75762939453125 43.65348052978516 96.99987030029297 49.99972534179688 96.99987030029297 C 56.34597015380859 96.99987030029297 62.50078582763672 95.75762939453125 68.293212890625 93.30764007568359 C 73.88955688476562 90.94059753417969 78.91621398925781 87.55132293701172 83.23355865478516 83.23399353027344 C 87.55089569091797 78.91665649414062 90.94015502929688 73.8900146484375 93.30722045898438 68.29368591308594 C 95.7572021484375 62.50127410888672 96.99945068359375 56.34645843505859 96.99945068359375 49.99964141845703 C 96.99945068359375 43.65341186523438 95.7572021484375 37.49859619140625 93.30722045898438 31.70618438720703 C 90.94015502929688 26.10985565185547 87.55089569091797 21.08321380615234 83.23355865478516 16.76587677001953 C 78.91621398925781 12.44853210449219 73.88955688476562 9.059272766113281 68.293212890625 6.692230224609375 C 62.50078582763672 4.242240905761719 56.34597015380859 3 49.99972534179688 3 M 49.99972534179688 0 C 77.61381530761719 0 99.99945068359375 22.38559722900391 99.99945068359375 49.99964141845703 L 99.99945068359375 50.00022888183594 C 99.99945068359375 77.6142578125 77.61381530761719 99.99987030029297 49.99972534179688 99.99987030029297 C 22.38563537597656 99.99987030029297 0 77.6142578125 0 50.00022888183594 L 0 49.99964141845703 C 0 22.38559722900391 22.38563537597656 0 49.99972534179688 0 Z" stroke="none" fill="#fff"/>
            </g>
          </g>
        </g>
      </g>
    </g>
    <g id="Grupo_1118899" data-name="Grupo 1118899" transform="translate(-6302.996 -9491)">
      <path id="Trazado_913439" data-name="Trazado 913439" d="M93.348,303.352A1.329,1.329,0,0,1,92,302.105a1.328,1.328,0,0,0,0-2.557,1.3,1.3,0,0,0,0-2.507,1.328,1.328,0,0,0,0-2.557,1.329,1.329,0,0,1,1.344-1.247h.273v-9.629a6.462,6.462,0,0,0-3.07-2.439L84.852,279,73.109,290.067,61.365,279l-5.7,2.167a6.471,6.471,0,0,0-4.171,6.048v19.673a1.294,1.294,0,0,0,1.294,1.294h40.83v-4.833Z" transform="translate(-6.529 -242.897)" fill="#fff3de"/>
      <g id="Grupo_1118871" data-name="Grupo 1118871" transform="translate(44.967 36.106)">
        <g id="Grupo_1118870" data-name="Grupo 1118870" transform="translate(0)">
          <path id="Trazado_913440" data-name="Trazado 913440" d="M57.708,306.891V287.218a6.471,6.471,0,0,1,4.171-6.048l1.272-.484L61.365,279l-5.7,2.167a6.471,6.471,0,0,0-4.171,6.048v19.673a1.294,1.294,0,0,0,1.294,1.294H59A1.294,1.294,0,0,1,57.708,306.891Z" transform="translate(-51.496 -279.003)" fill="#ffe5c2"/>
        </g>
      </g>
      <g id="Grupo_1118872" data-name="Grupo 1118872" transform="translate(54.836 31.085)">
        <path id="Trazado_913441" data-name="Trazado 913441" d="M143.671,242.345a.647.647,0,0,1-.417-.6V240.2a6.893,6.893,0,0,1-2.064.314h-3.378a6.893,6.893,0,0,1-2.064-.314v1.537a.647.647,0,0,1-.417.6l-7.574,2.88L139.5,256.289l11.744-11.064Z" transform="translate(-127.757 -240.203)" fill="#ffcebf"/>
      </g>
      <g id="Grupo_1118874" data-name="Grupo 1118874" transform="translate(54.836 34.451)">
        <g id="Grupo_1118873" data-name="Grupo 1118873" transform="translate(0)">
          <path id="Trazado_913442" data-name="Trazado 913442" d="M132.112,266.21l-4.355,1.656L139.5,278.93l3.056-2.879Z" transform="translate(-127.757 -266.21)" fill="#ffb09e"/>
        </g>
      </g>
      <g id="Grupo_1118887" data-name="Grupo 1118887" transform="translate(53.638 0.971)">
        <g id="Grupo_1118875" data-name="Grupo 1118875" transform="translate(4.355 19.62)">
          <path id="Trazado_913443" data-name="Trazado 913443" d="M166.244,162.348a3.235,3.235,0,0,0-3.235-3.235h-4.529a3.235,3.235,0,0,0-3.235,3.235,1.46,1.46,0,0,1-2.842.474,4.836,4.836,0,0,1-.244-1.522v1.724a6.9,6.9,0,0,0,6.9,6.9h3.378a6.9,6.9,0,0,0,6.9-6.9V161.3a4.836,4.836,0,0,1-.244,1.522A1.46,1.46,0,0,1,166.244,162.348Z" transform="translate(-152.158 -159.113)" fill="#ffd15b"/>
        </g>
        <g id="Grupo_1118877" data-name="Grupo 1118877" transform="translate(4.355 20.548)">
          <g id="Grupo_1118876" data-name="Grupo 1118876">
            <path id="Trazado_913444" data-name="Trazado 913444" d="M156.213,169.262v-2.984a3.225,3.225,0,0,0-.969,2.308,1.46,1.46,0,0,1-2.842.474,4.836,4.836,0,0,1-.244-1.522v1.724a6.9,6.9,0,0,0,6.9,6.9h3.378c.113,0,.226,0,.338-.009A6.9,6.9,0,0,1,156.213,169.262Z" transform="translate(-152.158 -166.278)" fill="#ffc344"/>
          </g>
        </g>
        <g id="Grupo_1118878" data-name="Grupo 1118878" transform="translate(1.165 0)">
          <path id="Trazado_913445" data-name="Trazado 913445" d="M129.688,21.382H130.7V18.753a.647.647,0,0,1,1.1-.464l1.812,1.764,2.838-2.736,2.838,2.736,2.838-2.736,2.838,2.736,1.812-1.764a.647.647,0,0,1,1.1.464v2.629h1.007a3.334,3.334,0,0,1,2.184.811V16.646A9.146,9.146,0,0,0,141.912,7.5h-5.261a9.146,9.146,0,0,0-9.146,9.146v5.547a3.334,3.334,0,0,1,2.183-.811Z" transform="translate(-127.505 -7.5)" fill="#ffd15b"/>
        </g>
        <g id="Grupo_1118880" data-name="Grupo 1118880" transform="translate(1.165)">
          <g id="Grupo_1118879" data-name="Grupo 1118879">
            <path id="Trazado_913446" data-name="Trazado 913446" d="M133.716,16.646a9.146,9.146,0,0,1,8.671-9.133q-.236-.012-.475-.012H136.65a9.146,9.146,0,0,0-9.146,9.146v5.547a3.334,3.334,0,0,1,2.184-.811h1.007V18.753a.647.647,0,0,1,1.1-.464l1.812,1.764.111-.107v-3.3Z" transform="translate(-127.504 -7.5)" fill="#ffc344"/>
          </g>
        </g>
        <g id="Grupo_1118883" data-name="Grupo 1118883" transform="translate(0 13.882)">
          <g id="Grupo_1118881" data-name="Grupo 1118881" transform="translate(21.527)">
            <path id="Trazado_913447" data-name="Trazado 913447" d="M285.856,114.769h-1.007v7.342h1.007a3.348,3.348,0,0,0,3.348-3.348v-.645A3.348,3.348,0,0,0,285.856,114.769Z" transform="translate(-284.849 -114.769)" fill="#ffb09e"/>
          </g>
          <g id="Grupo_1118882" data-name="Grupo 1118882">
            <path id="Trazado_913448" data-name="Trazado 913448" d="M122.859,114.769h-1.007a3.348,3.348,0,0,0-3.348,3.348v.645a3.348,3.348,0,0,0,3.348,3.348h1.007Z" transform="translate(-118.504 -114.769)" fill="#f89580"/>
          </g>
        </g>
        <g id="Grupo_1118884" data-name="Grupo 1118884" transform="translate(4.355 9.817)">
          <path id="Trazado_913449" data-name="Trazado 913449" d="M166.418,86.092l-2.838-2.736-2.838,2.736-2.838-2.736-2.838,2.736-1.812-1.764a.647.647,0,0,0-1.1.464V95.347a4.836,4.836,0,0,0,.244,1.522,1.46,1.46,0,0,0,2.842-.474,3.235,3.235,0,0,1,3.235-3.235h4.529a3.235,3.235,0,0,1,3.235,3.235,1.46,1.46,0,0,0,2.842.474,4.836,4.836,0,0,0,.244-1.522V84.792a.647.647,0,0,0-1.1-.464Z" transform="translate(-152.157 -83.356)" fill="#ffcebf"/>
        </g>
        <g id="Grupo_1118886" data-name="Grupo 1118886" transform="translate(4.355 10.604)">
          <g id="Grupo_1118885" data-name="Grupo 1118885">
            <path id="Trazado_913450" data-name="Trazado 913450" d="M156.212,90.288l-1.144,1.1-1.812-1.764a.647.647,0,0,0-1.1.464v10.555a4.836,4.836,0,0,0,.244,1.522,1.46,1.46,0,0,0,2.842-.474,3.225,3.225,0,0,1,.969-2.308v-9.1Z" transform="translate(-152.157 -89.443)" fill="#ffb09e"/>
          </g>
        </g>
      </g>
      <g id="Grupo_1118888" data-name="Grupo 1118888" transform="translate(53.474 36.106)">
        <path id="Trazado_913451" data-name="Trazado 913451" d="M118.6,279l-1.335,6.426a1.294,1.294,0,0,0,.945,1.516l12.134,3.122Z" transform="translate(-117.233 -279.004)" fill="#fed2a4"/>
      </g>
      <g id="Grupo_1118889" data-name="Grupo 1118889" transform="translate(66.579 36.106)">
        <path id="Trazado_913452" data-name="Trazado 913452" d="M230.247,279l1.335,6.426a1.294,1.294,0,0,1-.945,1.516L218.5,290.068Z" transform="translate(-218.503 -279.004)" fill="#fed2a4"/>
      </g>
      <g id="Grupo_1118897" data-name="Grupo 1118897" transform="translate(79.52 30.964)">
        <g id="Grupo_1118890" data-name="Grupo 1118890" transform="translate(0)">
          <path id="Trazado_913453" data-name="Trazado 913453" d="M333.29,242.853h-11.2a3.589,3.589,0,0,1-3.589-3.589v3.882a3.589,3.589,0,0,0,3.589,3.589h11.2a3.589,3.589,0,0,0,3.589-3.589v-3.882A3.589,3.589,0,0,1,333.29,242.853Z" transform="translate(-318.503 -239.264)" fill="#e2e2e2"/>
        </g>
        <g id="Grupo_1118892" data-name="Grupo 1118892" transform="translate(0)">
          <g id="Grupo_1118891" data-name="Grupo 1118891">
            <path id="Trazado_913454" data-name="Trazado 913454" d="M323.68,243.146v-.293h-1.587a3.589,3.589,0,0,1-3.589-3.589v3.882a3.589,3.589,0,0,0,3.589,3.589h5.177A3.589,3.589,0,0,1,323.68,243.146Z" transform="translate(-318.504 -239.264)" fill="#cecece"/>
          </g>
        </g>
        <g id="Grupo_1118893" data-name="Grupo 1118893" transform="translate(7.571 7.472)">
          <path id="Trazado_913455" data-name="Trazado 913455" d="M379.328,466H377v4.833h1.941a1.294,1.294,0,0,0,1.294-1.294v-3.711A2.517,2.517,0,0,1,379.328,466Z" transform="translate(-377.004 -443.98)" fill="#e9b665"/>
          <path id="Trazado_913456" data-name="Trazado 913456" d="M379.328,308.906a2.516,2.516,0,0,1,.911.172V297H377v11.906Z" transform="translate(-377.004 -297)" fill="#e9b665"/>
        </g>
        <g id="Grupo_1118894" data-name="Grupo 1118894" transform="translate(7.571 7.472)">
          <path id="Trazado_913457" data-name="Trazado 913457" d="M377,467.156h1.618v4.833H377Z" transform="translate(-377.004 -445.136)" fill="#d8aa5e"/>
          <path id="Trazado_913458" data-name="Trazado 913458" d="M377,297h1.618v11.906H377Z" transform="translate(-377.004 -297)" fill="#d8aa5e"/>
        </g>
        <g id="Grupo_1118895" data-name="Grupo 1118895" transform="translate(5.953 19.378)">
          <path id="Trazado_913459" data-name="Trazado 913459" d="M365.849,389a1.329,1.329,0,0,0-1.344,1.247,1.328,1.328,0,0,1,0,2.557,1.295,1.295,0,0,1,0,2.507,1.328,1.328,0,0,1,0,2.557,1.329,1.329,0,0,0,1.344,1.247h2.6a2.529,2.529,0,0,0,2.529-2.529v-5.057A2.529,2.529,0,0,0,368.446,389Z" transform="translate(-364.504 -389)" fill="#ffcebf"/>
        </g>
        <g id="Grupo_1118896" data-name="Grupo 1118896" transform="translate(5.953 19.378)">
          <path id="Trazado_913460" data-name="Trazado 913460" d="M367.61,396.586v-5.057a2.527,2.527,0,0,1,1.682-2.38,2.52,2.52,0,0,0-.846-.148h-2.6a1.329,1.329,0,0,0-1.344,1.247,1.328,1.328,0,0,1,0,2.557,1.295,1.295,0,0,1,0,2.507,1.328,1.328,0,0,1,0,2.557,1.329,1.329,0,0,0,1.344,1.247h2.6a2.52,2.52,0,0,0,.846-.148A2.527,2.527,0,0,1,367.61,396.586Z" transform="translate(-364.504 -389)" fill="#ffb09e"/>
        </g>
      </g>
      <g id="Grupo_1118898" data-name="Grupo 1118898" transform="translate(43.996 0)">
        <path id="Trazado_913461" data-name="Trazado 913461" d="M234.986,278.5h-4.012a.971.971,0,1,0,0,1.941h4.012a.971.971,0,1,0,0-1.941Z" transform="translate(-205.932 -242.459)"/>
        <path id="Trazado_913462" data-name="Trazado 913462" d="M165.986,278.5h-4.012a.971.971,0,1,0,0,1.941h4.012a.971.971,0,1,0,0-1.941Z" transform="translate(-145.862 -242.459)"/>
        <path id="Trazado_913463" data-name="Trazado 913463" d="M200.471,181.843a.971.971,0,1,0-.743-1.793,4.417,4.417,0,0,1-3.4,0,.971.971,0,0,0-.743,1.793,6.347,6.347,0,0,0,4.889,0Z" transform="translate(-175.443 -156.684)"/>
        <path id="Trazado_913464" data-name="Trazado 913464" d="M97.9,17.276a.971.971,0,0,0-.971.971V30.964a2.622,2.622,0,0,1-2.619,2.619H89.679V19.153a.971.971,0,0,0-1.941,0V33.582H83.11a2.622,2.622,0,0,1-2.619-2.619V18.2a4.3,4.3,0,0,0-1.165-2.946V10.116a10.022,10.022,0,0,0-1-4.385.971.971,0,1,0-1.749.842,8.1,8.1,0,0,1,.805,3.543v3.94a4.3,4.3,0,0,0-1.213-.175h-.036V12.223a1.618,1.618,0,0,0-2.746-1.159l-1.138,1.108-2.161-2.084a.97.97,0,0,0-1.347,0l-2.164,2.087-2.164-2.087a.97.97,0,0,0-1.347,0l-2.161,2.084-1.138-1.108a1.618,1.618,0,0,0-2.746,1.159v1.659h-.036a4.306,4.306,0,0,0-1.213.175v-3.94a8.184,8.184,0,0,1,8.175-8.175H69.21a8.115,8.115,0,0,1,4.75,1.524.971.971,0,1,0,1.13-1.578A10.045,10.045,0,0,0,69.21,0H63.949A10.128,10.128,0,0,0,53.832,10.116v5.139A4.3,4.3,0,0,0,52.668,18.2v.645a4.324,4.324,0,0,0,4.319,4.319h.036V24.5a7.879,7.879,0,0,0,4.833,7.258V32.4L48.793,37.366A7.481,7.481,0,0,0,44,44.321V63.994a2.267,2.267,0,0,0,2.265,2.265H56.312a.971.971,0,1,0,0-1.941H52.673V54.581a.971.971,0,0,0-1.941,0v9.736H46.261a.324.324,0,0,1-.324-.324V44.321a5.53,5.53,0,0,1,3.545-5.141l4.043-1.537-.974,4.692A2.262,2.262,0,0,0,54.2,44.989L66.338,48.11a.968.968,0,0,0,.484,0l12.134-3.122a2.262,2.262,0,0,0,1.653-2.654l-.934-4.5a4.549,4.549,0,0,0,3.436,1.568h1.073a5.514,5.514,0,0,1,1.938,1.63v8.439a2.263,2.263,0,0,0-1.241,3.42,2.264,2.264,0,0,0,0,2.5,2.264,2.264,0,0,0,0,2.5,2.263,2.263,0,0,0,1.241,3.42v3H82.427V54.581a.971.971,0,1,0-1.941,0v9.736H60.842a.971.971,0,1,0,0,1.941H89.032A2.267,2.267,0,0,0,91.3,63.994V60.875a3.5,3.5,0,0,0,1.618-2.948V52.87A3.5,3.5,0,0,0,91.3,49.922V47.559a.971.971,0,0,0-1.941,0v1.812H88.062V39.406h1.294v3.624a.971.971,0,0,0,1.941,0V39.406h3.011a4.565,4.565,0,0,0,4.56-4.56v-16.6a.971.971,0,0,0-.971-.971ZM57.023,21.224h-.036a2.38,2.38,0,0,1-2.378-2.378V18.2a2.38,2.38,0,0,1,2.378-2.378h.036Zm19.113-5.4h.036A2.38,2.38,0,0,1,78.55,18.2v.645a2.38,2.38,0,0,1-2.378,2.378h-.036Zm0,8.68V23.165h.036a4.293,4.293,0,0,0,2.378-.716v12.4c0,.105,0,.21.012.313L71.3,32.4v-.638A7.879,7.879,0,0,0,76.136,24.5ZM58.964,22.779V12.99l1.263,1.229a.97.97,0,0,0,1.094.18.978.978,0,0,0-.021.2v1.742a.971.971,0,0,0,1.941,0V14.6a.971.971,0,0,0-.971-.971c-.028,0-.055,0-.082,0l1.553-1.5,2.164,2.087a.97.97,0,0,0,1.347,0l2.164-2.087,1.553,1.5c-.027,0-.054,0-.082,0a.971.971,0,0,0-.971.971v1.742a.971.971,0,0,0,1.941,0V14.6a.977.977,0,0,0-.021-.2.971.971,0,0,0,1.094-.18l1.263-1.229v9.789A3.862,3.862,0,0,1,74,24a.44.44,0,0,1-.53.317.465.465,0,0,1-.42-.486,4.211,4.211,0,0,0-4.206-4.206H67.288a.968.968,0,0,0-.36-.77L65.8,17.938,66.963,16.9a.971.971,0,0,0-1.289-1.451l-2.024,1.8a.971.971,0,0,0,.035,1.481l1.105.891h-.476a4.211,4.211,0,0,0-4.206,4.206.465.465,0,0,1-.42.486.441.441,0,0,1-.53-.317,3.866,3.866,0,0,1-.2-1.217Zm.258,3.453a2.505,2.505,0,0,0,.776,0,2.4,2.4,0,0,0,2.052-2.4,2.267,2.267,0,0,1,2.265-2.265h4.529a2.267,2.267,0,0,1,2.265,2.265,2.4,2.4,0,0,0,2.052,2.4,2.572,2.572,0,0,0,.409.033,2.458,2.458,0,0,0,.366-.028,5.936,5.936,0,0,1-5.668,4.195H64.89a5.936,5.936,0,0,1-5.668-4.2ZM54.687,43.109a.323.323,0,0,1-.236-.379L55.433,38l7.736,7.288Zm11.892,2.728-9.95-9.374,6.125-2.329A1.627,1.627,0,0,0,63.8,32.622v-.329a7.892,7.892,0,0,0,1.093.078h3.378a7.891,7.891,0,0,0,1.093-.078v.329A1.626,1.626,0,0,0,70.4,34.134l6.125,2.329Zm11.892-2.728L69.99,45.291,77.725,38l.982,4.727A.323.323,0,0,1,78.471,43.109ZM89.356,63.994a.324.324,0,0,1-.324.324h-.971V61.426h1.294Zm.06-12.682a1.56,1.56,0,0,1,1.558,1.558v5.057a1.56,1.56,0,0,1-1.558,1.558h-2.6a.361.361,0,0,1-.374-.313.324.324,0,0,1,.243-.328.971.971,0,0,0,0-1.879.324.324,0,0,1,0-.628.971.971,0,0,0,0-1.879.324.324,0,0,1,0-.628.971.971,0,0,0,0-1.879.324.324,0,0,1-.243-.328.361.361,0,0,1,.374-.313Zm7.511-16.466a2.622,2.622,0,0,1-2.619,2.619H83.11a2.622,2.622,0,0,1-2.619-2.619v-.153a4.533,4.533,0,0,0,2.619.83h11.2a4.533,4.533,0,0,0,2.619-.83Z" transform="translate(-43.996 0)"/>
      </g>
    </g>
  </g>
</svg>
