<svg xmlns="http://www.w3.org/2000/svg" xmlns:xlink="http://www.w3.org/1999/xlink" width="118" height="118" viewBox="0 0 118 118">
  <defs>
    <filter id="Trazado_874925" x="0" y="0" width="117.999" height="118" filterUnits="userSpaceOnUse">
      <feOffset dy="3" input="SourceAlpha"/>
      <feGaussianBlur stdDeviation="3" result="blur"/>
      <feFlood flood-opacity="0.161"/>
      <feComposite operator="in" in2="blur"/>
      <feComposite in="SourceGraphic"/>
    </filter>
  </defs>
  <g id="Grupo_1119266" data-name="Grupo 1119266" transform="translate(1840.902 10285.72)">
    <g id="Grupo_1111552" data-name="Grupo 1111552" transform="translate(-2640.402 -12796.877)">
      <g id="Grupo_1111316" data-name="Grupo 1111316" transform="translate(808.5 2517.157)">
        <g id="Grupo_1109835" data-name="Grupo 1109835" transform="translate(0 0)">
          <g id="Grupo_1107913" data-name="Grupo 1107913" transform="translate(0 0)">
            <g transform="matrix(1, 0, 0, 1, -9, -6)" filter="url(#Trazado_874925)">
              <g id="Trazado_874925-2" data-name="Trazado 874925" transform="translate(9 6)" fill="#fc0" opacity="0.859">
                <path d="M 49.99972534179688 98.4998779296875 C 43.45164108276367 98.4998779296875 37.10022354125977 97.21776580810547 31.12189674377441 94.68914794921875 C 25.34676742553711 92.24647521972656 20.15985298156738 88.74925994873047 15.70523929595947 84.29464721679688 C 11.25062561035156 79.84004974365234 7.753411293029785 74.65313720703125 5.310725212097168 68.87800598144531 C 2.782111167907715 62.89969253540039 1.499996781349182 56.54829406738281 1.499996781349182 50.00022125244141 C 1.499996781349182 43.45157623291016 2.782111167907715 37.10017776489258 5.310725212097168 31.12186431884766 C 7.753411293029785 25.34673500061035 11.25062561035156 20.15983581542969 15.70523929595947 15.70522117614746 C 20.15985298156738 11.25062084197998 25.34676742553711 7.753406524658203 31.12189674377441 5.31073522567749 C 37.10022354125977 2.782120943069458 43.45164108276367 1.500006556510925 49.99972534179688 1.500006556510925 C 56.54780960083008 1.500006556510925 62.89922714233398 2.782120943069458 68.87755584716797 5.31073522567749 C 74.65267944335938 7.753406524658203 79.839599609375 11.25062084197998 84.29421234130859 15.70522117614746 C 88.74882507324219 20.15983581542969 92.24604034423828 25.34673500061035 94.68872833251953 31.12186431884766 C 97.21733856201172 37.10017776489258 98.49945068359375 43.45157623291016 98.49945068359375 49.99964904785156 C 98.49945068359375 56.54829406738281 97.21733856201172 62.89969253540039 94.68872833251953 68.87800598144531 C 92.24604034423828 74.65313720703125 88.74882507324219 79.84004974365234 84.29421234130859 84.29464721679688 C 79.839599609375 88.74925994873047 74.65267944335938 92.24647521972656 68.87755584716797 94.68914794921875 C 62.89922714233398 97.21776580810547 56.54780960083008 98.4998779296875 49.99972534179688 98.4998779296875 Z" stroke="none"/>
                <path d="M 49.99972534179688 3 C 43.65348052978516 3 37.49866485595703 4.242240905761719 31.70623016357422 6.692230224609375 C 26.10989379882812 9.059272766113281 21.08323669433594 12.44853210449219 16.76589202880859 16.76587677001953 C 12.44855499267578 21.08321380615234 9.059295654296875 26.10985565185547 6.692230224609375 31.70618438720703 C 4.24224853515625 37.49859619140625 3 43.65341186523438 3 50.00022888183594 C 3 56.34645843505859 4.24224853515625 62.50127410888672 6.692230224609375 68.29368591308594 C 9.059295654296875 73.8900146484375 12.44855499267578 78.91665649414062 16.76589202880859 83.23399353027344 C 21.08323669433594 87.55132293701172 26.10989379882812 90.94059753417969 31.70623016357422 93.30764007568359 C 37.49866485595703 95.75762939453125 43.65348052978516 96.99987030029297 49.99972534179688 96.99987030029297 C 56.34597015380859 96.99987030029297 62.50078582763672 95.75762939453125 68.293212890625 93.30764007568359 C 73.88955688476562 90.94059753417969 78.91621398925781 87.55132293701172 83.23355865478516 83.23399353027344 C 87.55089569091797 78.91665649414062 90.94015502929688 73.8900146484375 93.30722045898438 68.29368591308594 C 95.7572021484375 62.50127410888672 96.99945068359375 56.34645843505859 96.99945068359375 49.99964141845703 C 96.99945068359375 43.65341186523438 95.7572021484375 37.49859619140625 93.30722045898438 31.70618438720703 C 90.94015502929688 26.10985565185547 87.55089569091797 21.08321380615234 83.23355865478516 16.76587677001953 C 78.91621398925781 12.44853210449219 73.88955688476562 9.059272766113281 68.293212890625 6.692230224609375 C 62.50078582763672 4.242240905761719 56.34597015380859 3 49.99972534179688 3 M 49.99972534179688 0 C 77.61381530761719 0 99.99945068359375 22.38559722900391 99.99945068359375 49.99964141845703 L 99.99945068359375 50.00022888183594 C 99.99945068359375 77.6142578125 77.61381530761719 99.99987030029297 49.99972534179688 99.99987030029297 C 22.38563537597656 99.99987030029297 0 77.6142578125 0 50.00022888183594 L 0 49.99964141845703 C 0 22.38559722900391 22.38563537597656 0 49.99972534179688 0 Z" stroke="none" fill="#fff"/>
              </g>
            </g>
            <g id="Trazado_874923" data-name="Trazado 874923" transform="translate(0 0)" fill="none">
              <path d="M50,0a50,50,0,0,1,50,50h0A50,50,0,0,1,0,50H0A50,50,0,0,1,50,0Z" stroke="none"/>
              <path d="M 49.99972534179688 3 C 43.65348052978516 3 37.49866485595703 4.242240905761719 31.70623016357422 6.692230224609375 C 26.10989379882812 9.059272766113281 21.08323669433594 12.44853210449219 16.76589202880859 16.76587677001953 C 12.44855499267578 21.08321380615234 9.059295654296875 26.10985565185547 6.692230224609375 31.70618438720703 C 4.24224853515625 37.49859619140625 3 43.65341186523438 3 50.00022888183594 C 3 56.34645843505859 4.24224853515625 62.50127410888672 6.692230224609375 68.29368591308594 C 9.059295654296875 73.8900146484375 12.44855499267578 78.91665649414062 16.76589202880859 83.23399353027344 C 21.08323669433594 87.55132293701172 26.10989379882812 90.94059753417969 31.70623016357422 93.30764007568359 C 37.49866485595703 95.75762939453125 43.65348052978516 96.99987030029297 49.99972534179688 96.99987030029297 C 56.34597015380859 96.99987030029297 62.50078582763672 95.75762939453125 68.293212890625 93.30764007568359 C 73.88955688476562 90.94059753417969 78.91621398925781 87.55132293701172 83.23355865478516 83.23399353027344 C 87.55089569091797 78.91665649414062 90.94015502929688 73.8900146484375 93.30722045898438 68.29368591308594 C 95.7572021484375 62.50127410888672 96.99945068359375 56.34645843505859 96.99945068359375 49.99964141845703 C 96.99945068359375 43.65341186523438 95.7572021484375 37.49859619140625 93.30722045898438 31.70618438720703 C 90.94015502929688 26.10985565185547 87.55089569091797 21.08321380615234 83.23355865478516 16.76587677001953 C 78.91621398925781 12.44853210449219 73.88955688476562 9.059272766113281 68.293212890625 6.692230224609375 C 62.50078582763672 4.242240905761719 56.34597015380859 3 49.99972534179688 3 M 49.99972534179688 0 C 77.61381530761719 0 99.99945068359375 22.38559722900391 99.99945068359375 49.99964141845703 L 99.99945068359375 50.00022888183594 C 99.99945068359375 77.6142578125 77.61381530761719 99.99987030029297 49.99972534179688 99.99987030029297 C 22.38563537597656 99.99987030029297 0 77.6142578125 0 50.00022888183594 L 0 49.99964141845703 C 0 22.38559722900391 22.38563537597656 0 49.99972534179688 0 Z" stroke="none" fill="#fff"/>
            </g>
          </g>
        </g>
      </g>
    </g>
    <g id="Grupo_1119218" data-name="Grupo 1119218" transform="translate(-1810.367 -10261.41)">
      <g id="Grupo_1119215" data-name="Grupo 1119215" transform="translate(1.116 0.93)">
        <path id="Trazado_913860" data-name="Trazado 913860" d="M369.643,7.5a4.959,4.959,0,0,0-4.958,4.957v6.2H374.6v-6.2A4.958,4.958,0,0,0,369.643,7.5Z" transform="translate(-320.441 -7.5)" fill="#c2d3dd"/>
        <g id="Grupo_1119213" data-name="Grupo 1119213" transform="translate(0)">
          <path id="Trazado_913861" data-name="Trazado 913861" d="M53.384,8.953a4.942,4.942,0,0,0-1.453,3.5V69.022H7.686V12.457A4.958,4.958,0,0,1,12.643,7.5H56.889a4.942,4.942,0,0,0-3.5,1.453Z" transform="translate(-7.686 -7.5)" fill="#fff"/>
        </g>
        <path id="Trazado_913862" data-name="Trazado 913862" d="M128.356,326.025a2.042,2.042,0,0,0-.7,2.167,2.042,2.042,0,0,1-1.887,2.6,2.042,2.042,0,0,0-1.842,1.336,2.042,2.042,0,0,1-3.053.992,2.042,2.042,0,0,0-2.274,0,2.042,2.042,0,0,1-3.053-.992,2.042,2.042,0,0,0-1.842-1.336,2.042,2.042,0,0,1-1.885-2.6,2.042,2.042,0,0,0-.706-2.162,2.042,2.042,0,0,1,0-3.211,2.042,2.042,0,0,0,.7-2.163,2.042,2.042,0,0,1,1.89-2.6,2.042,2.042,0,0,0,1.838-1.336,2.042,2.042,0,0,1,3.053-.992,2.042,2.042,0,0,0,2.273,0,2.042,2.042,0,0,1,3.053.992,2.042,2.042,0,0,0,1.842,1.336,2.042,2.042,0,0,1,1.887,2.6,2.042,2.042,0,0,0,.7,2.163,2.042,2.042,0,0,1,0,3.211Z" transform="translate(-97.611 -277.223)" fill="#fb8065"/>
        <g id="Grupo_1119214" data-name="Grupo 1119214" transform="translate(8.337 5.673)">
          <path id="Trazado_913863" data-name="Trazado 913863" d="M82.693,120.738a3.87,3.87,0,0,1-7.739,0Z" transform="translate(-74.954 -112.377)" fill="#c2d3dd"/>
          <circle id="Elipse_11876" data-name="Elipse 11876" cx="1.859" cy="1.859" r="1.859" transform="translate(2.01)" fill="#c2d3dd"/>
          <path id="Trazado_913864" data-name="Trazado 913864" d="M242.712,120.738a3.87,3.87,0,0,1-7.739,0Z" transform="translate(-215.141 -112.377)" fill="#c2d3dd"/>
          <circle id="Elipse_11877" data-name="Elipse 11877" cx="1.859" cy="1.859" r="1.859" transform="translate(21.843)" fill="#c2d3dd"/>
          <path id="Trazado_913865" data-name="Trazado 913865" d="M161.291,185.549a3.588,3.588,0,0,0-7.175,0Z" transform="translate(-144.305 -166.012)" fill="#c2d3dd"/>
        </g>
        <path id="Trazado_913866" data-name="Trazado 913866" d="M291.15,231.955l-.876,4.382,4.382-.876,21.686-21.686-3.505-3.505Z" transform="translate(-255.251 -185.139)" fill="#84b9f9"/>
        <path id="Trazado_913867" data-name="Trazado 913867" d="M15.742,7.5h-3.1a4.958,4.958,0,0,0-4.957,4.957V69.022h3.1V12.457A4.958,4.958,0,0,1,15.742,7.5Z" transform="translate(-7.686 -7.5)" fill="#e3e9ee"/>
        <path id="Trazado_913868" data-name="Trazado 913868" d="M371.193,7.748a4.959,4.959,0,0,0-6.507,4.709v6.2h3.1v-6.2A4.961,4.961,0,0,1,371.193,7.748Z" transform="translate(-320.441 -7.5)" fill="#83a5b9"/>
        <path id="Trazado_913869" data-name="Trazado 913869" d="M114.986,327.87a5.112,5.112,0,0,0-1.121-3.448,5.114,5.114,0,0,0,1.121-3.448c3.609,0,3.609-5.245,3.609-5.245a2.042,2.042,0,0,0-3.053.992,2.042,2.042,0,0,1-1.838,1.336,2.042,2.042,0,0,0-1.89,2.6,2.042,2.042,0,0,1-.7,2.163,2.042,2.042,0,0,0,0,3.211,2.042,2.042,0,0,1,.706,2.162,2.042,2.042,0,0,0,1.885,2.6,2.042,2.042,0,0,1,1.842,1.336,2.042,2.042,0,0,0,3.053.992S118.6,327.87,114.986,327.87Z" transform="translate(-97.61 -277.225)" fill="#e25735"/>
      </g>
      <g id="Grupo_1119216" data-name="Grupo 1119216" transform="translate(0.186)">
        <path id="Trazado_913870" data-name="Trazado 913870" d="M150.023,29.565l-4.82-4.82-2.7,2.7-2.775-2.775-5.188,5.188,1.315,1.315,3.874-3.874,1.46,1.46-8.393,8.393V13.013h9.915V5.887A5.894,5.894,0,0,0,136.821,0H98.926V1.859h33.6a5.844,5.844,0,0,0-1.6,4.028V39.015l-8.074,8.074-.2.2-.876,4.382-1.652,1.652,1.315,1.315,1.652-1.652,4.382-.876,3.453-3.453V61.522H123.57v1.859h9.222V46.8ZM140.849,5.887v5.267h-8.056V5.887a4.028,4.028,0,1,1,8.056,0ZM145.2,27.374l2.191,2.191-1.388,1.388-2.191-2.191ZM126.565,50.4l-2.739.548.548-2.739L142.5,30.077l2.191,2.191Z" transform="translate(-86.688 0)"/>
        <path id="Trazado_913871" data-name="Trazado 913871" d="M122.433,319.98a2.989,2.989,0,0,0,0-4.673c-1.016-.883.4-2.262-.837-3.735-1.057-1.65-2.772-.7-3.294-1.95a2.953,2.953,0,0,0-1.871-1.8c-1.766-.719-2.648,1.05-3.811.358a2.988,2.988,0,0,0-4.443,1.443,1.108,1.108,0,0,1-1,.728,2.988,2.988,0,0,0-2.75,3.779,1.107,1.107,0,0,1-.379,1.177,2.988,2.988,0,0,0,0,4.675c1.021.879-.394,2.262.837,3.734a2.954,2.954,0,0,0,2.293,1.225,1.108,1.108,0,0,1,1,.728,2.988,2.988,0,0,0,4.443,1.443c1.153-.694,2.045,1.077,3.811.358,1.91-.505,1.521-2.423,2.876-2.529a2.988,2.988,0,0,0,2.745-3.779A1.107,1.107,0,0,1,122.433,319.98Zm-1.147-1.463a2.958,2.958,0,0,0-1.025,3.15c.347,2.281-2.73.551-3.706,3.358a1.107,1.107,0,0,1-.7.674c-.926.248-1.666-.8-2.617-.639-1.128-.12-2.618,1.585-3.317-.035a2.96,2.96,0,0,0-2.679-1.944c-2.277-.374.32-2.769-2.052-4.563a1.119,1.119,0,0,1,0-1.751c2.008-1.732.537-2.876,1.191-4.1.949-.993,2.515.042,3.535-2.4,1.048-2.044,2.568,1.156,4.972-.54a1.107,1.107,0,0,1,.963-.134c1.234.584.733,2.4,3.379,2.619,2.276.375-.318,2.764,2.049,4.561A1.119,1.119,0,0,1,121.286,318.517Z" transform="translate(-90.185 -269.517)"/>
        <path id="Trazado_913872" data-name="Trazado 913872" d="M2.045,5.887A4.032,4.032,0,0,1,6.073,1.859h4.491V0H6.073A5.894,5.894,0,0,0,.186,5.887V63.381H35.209V61.522H2.045Z" transform="translate(-0.186)"/>
        <path id="Trazado_913873" data-name="Trazado 913873" d="M84.978,37.117a2.793,2.793,0,0,0-2.629,1.859H79.27a.946.946,0,0,1-.869-.6,4.038,4.038,0,0,0-7.453,0,.947.947,0,0,1-.869.6h-2.3a2.788,2.788,0,1,0-4.945,2.481l-2.115,4.021H59.341v1.859h1.1a4.8,4.8,0,0,0,9.416,0h1.1V45.478H69.6l-2.034-4.186a2.773,2.773,0,0,0,.211-.457h2.3a2.8,2.8,0,0,0,2.589-1.753,2.164,2.164,0,0,1,1.078-1.137V53.163a4.53,4.53,0,0,0-3.491,3.491H68.2v1.859H81.146V56.654H79.1A4.53,4.53,0,0,0,75.6,53.163V37.945a2.164,2.164,0,0,1,1.078,1.137,2.8,2.8,0,0,0,2.589,1.753h3.079a2.773,2.773,0,0,0,.211.457l-2.034,4.186H79.173v1.859h1.1a4.8,4.8,0,0,0,9.416,0h1.1V45.478H89.43L87.4,41.292A2.8,2.8,0,0,0,84.978,37.117ZM65.146,38.976a.93.93,0,1,1-.93.93A.93.93,0,0,1,65.146,38.976Zm0,10.372a2.945,2.945,0,0,1-2.789-2.011h5.578A2.945,2.945,0,0,1,65.146,49.348Zm-2.331-3.87,1.527-2.9a2.8,2.8,0,0,0,1.755-.049l1.434,2.951ZM77.162,56.654H72.188A2.659,2.659,0,0,1,77.162,56.654Zm7.816-17.678a.93.93,0,1,1-.93.93A.93.93,0,0,1,84.978,38.976Zm0,10.372a2.945,2.945,0,0,1-2.789-2.011h5.578A2.945,2.945,0,0,1,84.978,49.348Zm-2.385-3.87,1.434-2.951a2.807,2.807,0,0,0,1.9,0l1.434,2.951Z" transform="translate(-52.01 -31.444)"/>
        <path id="Trazado_913874" data-name="Trazado 913874" d="M106.176,238.9h19.832v1.859H106.176Z" transform="translate(-93.04 -209.292)"/>
        <path id="Trazado_913875" data-name="Trazado 913875" d="M127.184,268.9h14.625v1.859H127.184Z" transform="translate(-111.444 -235.573)"/>
      </g>
      <g id="Grupo_1119217" data-name="Grupo 1119217" transform="translate(20.45 47.198)">
        <path id="Trazado_913876" data-name="Trazado 913876" d="M163.686,380.823h1.859v1.859h-1.859Z" transform="translate(-163.686 -380.823)" fill="#fff"/>
        <path id="Trazado_913877" data-name="Trazado 913877" d="M193.686,380.823h1.859v1.859h-1.859Z" transform="translate(-189.968 -380.823)" fill="#fff"/>
      </g>
    </g>
  </g>
</svg>
