<svg xmlns="http://www.w3.org/2000/svg" xmlns:xlink="http://www.w3.org/1999/xlink" width="118" height="118" viewBox="0 0 118 118">
  <defs>
    <filter id="Trazado_874925" x="0" y="0" width="118" height="118" filterUnits="userSpaceOnUse">
      <feOffset dy="3" input="SourceAlpha"/>
      <feGaussianBlur stdDeviation="3" result="blur"/>
      <feFlood flood-opacity="0.161"/>
      <feComposite operator="in" in2="blur"/>
      <feComposite in="SourceGraphic"/>
    </filter>
  </defs>
  <g id="Grupo_1118907" data-name="Grupo 1118907" transform="translate(5979 9513.72)">
    <g id="Grupo_1111553" data-name="Grupo 1111553" transform="translate(-6778.5 -12024.877)">
      <g id="Grupo_1111316" data-name="Grupo 1111316" transform="translate(808.5 2517.157)">
        <g id="Grupo_1109835" data-name="Grupo 1109835" transform="translate(0 0)">
          <g id="Grupo_1107913" data-name="Grupo 1107913" transform="translate(0 0)">
            <g transform="matrix(1, 0, 0, 1, -9, -6)" filter="url(#Trazado_874925)">
              <g id="Trazado_874925-2" data-name="Trazado 874925" transform="translate(9 6)" fill="#fc0" opacity="0.859">
                <path d="M 49.99972534179688 98.4998779296875 C 43.45164108276367 98.4998779296875 37.10022354125977 97.21776580810547 31.12189674377441 94.68914794921875 C 25.34676742553711 92.24647521972656 20.15985298156738 88.74925994873047 15.70523929595947 84.29464721679688 C 11.25062561035156 79.84004974365234 7.753411293029785 74.65313720703125 5.310725212097168 68.87800598144531 C 2.782111167907715 62.89969253540039 1.499996781349182 56.54829406738281 1.499996781349182 50.00022125244141 C 1.499996781349182 43.45157623291016 2.782111167907715 37.10017776489258 5.310725212097168 31.12186431884766 C 7.753411293029785 25.34673500061035 11.25062561035156 20.15983581542969 15.70523929595947 15.70522117614746 C 20.15985298156738 11.25062084197998 25.34676742553711 7.753406524658203 31.12189674377441 5.31073522567749 C 37.10022354125977 2.782120943069458 43.45164108276367 1.500006556510925 49.99972534179688 1.500006556510925 C 56.54780960083008 1.500006556510925 62.89922714233398 2.782120943069458 68.87755584716797 5.31073522567749 C 74.65267944335938 7.753406524658203 79.839599609375 11.25062084197998 84.29421234130859 15.70522117614746 C 88.74882507324219 20.15983581542969 92.24604034423828 25.34673500061035 94.68872833251953 31.12186431884766 C 97.21733856201172 37.10017776489258 98.49945068359375 43.45157623291016 98.49945068359375 49.99964904785156 C 98.49945068359375 56.54829406738281 97.21733856201172 62.89969253540039 94.68872833251953 68.87800598144531 C 92.24604034423828 74.65313720703125 88.74882507324219 79.84004974365234 84.29421234130859 84.29464721679688 C 79.839599609375 88.74925994873047 74.65267944335938 92.24647521972656 68.87755584716797 94.68914794921875 C 62.89922714233398 97.21776580810547 56.54780960083008 98.4998779296875 49.99972534179688 98.4998779296875 Z" stroke="none"/>
                <path d="M 49.99972534179688 3 C 43.65348052978516 3 37.49866485595703 4.242240905761719 31.70623016357422 6.692230224609375 C 26.10989379882812 9.059272766113281 21.08323669433594 12.44853210449219 16.76589202880859 16.76587677001953 C 12.44855499267578 21.08321380615234 9.059295654296875 26.10985565185547 6.692230224609375 31.70618438720703 C 4.24224853515625 37.49859619140625 3 43.65341186523438 3 50.00022888183594 C 3 56.34645843505859 4.24224853515625 62.50127410888672 6.692230224609375 68.29368591308594 C 9.059295654296875 73.8900146484375 12.44855499267578 78.91665649414062 16.76589202880859 83.23399353027344 C 21.08323669433594 87.55132293701172 26.10989379882812 90.94059753417969 31.70623016357422 93.30764007568359 C 37.49866485595703 95.75762939453125 43.65348052978516 96.99987030029297 49.99972534179688 96.99987030029297 C 56.34597015380859 96.99987030029297 62.50078582763672 95.75762939453125 68.293212890625 93.30764007568359 C 73.88955688476562 90.94059753417969 78.91621398925781 87.55132293701172 83.23355865478516 83.23399353027344 C 87.55089569091797 78.91665649414062 90.94015502929688 73.8900146484375 93.30722045898438 68.29368591308594 C 95.7572021484375 62.50127410888672 96.99945068359375 56.34645843505859 96.99945068359375 49.99964141845703 C 96.99945068359375 43.65341186523438 95.7572021484375 37.49859619140625 93.30722045898438 31.70618438720703 C 90.94015502929688 26.10985565185547 87.55089569091797 21.08321380615234 83.23355865478516 16.76587677001953 C 78.91621398925781 12.44853210449219 73.88955688476562 9.059272766113281 68.293212890625 6.692230224609375 C 62.50078582763672 4.242240905761719 56.34597015380859 3 49.99972534179688 3 M 49.99972534179688 0 C 77.61381530761719 0 99.99945068359375 22.38559722900391 99.99945068359375 49.99964141845703 L 99.99945068359375 50.00022888183594 C 99.99945068359375 77.6142578125 77.61381530761719 99.99987030029297 49.99972534179688 99.99987030029297 C 22.38563537597656 99.99987030029297 0 77.6142578125 0 50.00022888183594 L 0 49.99964141845703 C 0 22.38559722900391 22.38563537597656 0 49.99972534179688 0 Z" stroke="none" fill="#fff"/>
              </g>
            </g>
            <g id="Trazado_874923" data-name="Trazado 874923" transform="translate(0 0)" fill="none">
              <path d="M50,0a50,50,0,0,1,50,50h0A50,50,0,0,1,0,50H0A50,50,0,0,1,50,0Z" stroke="none"/>
              <path d="M 49.99972534179688 3 C 43.65348052978516 3 37.49866485595703 4.242240905761719 31.70623016357422 6.692230224609375 C 26.10989379882812 9.059272766113281 21.08323669433594 12.44853210449219 16.76589202880859 16.76587677001953 C 12.44855499267578 21.08321380615234 9.059295654296875 26.10985565185547 6.692230224609375 31.70618438720703 C 4.24224853515625 37.49859619140625 3 43.65341186523438 3 50.00022888183594 C 3 56.34645843505859 4.24224853515625 62.50127410888672 6.692230224609375 68.29368591308594 C 9.059295654296875 73.8900146484375 12.44855499267578 78.91665649414062 16.76589202880859 83.23399353027344 C 21.08323669433594 87.55132293701172 26.10989379882812 90.94059753417969 31.70623016357422 93.30764007568359 C 37.49866485595703 95.75762939453125 43.65348052978516 96.99987030029297 49.99972534179688 96.99987030029297 C 56.34597015380859 96.99987030029297 62.50078582763672 95.75762939453125 68.293212890625 93.30764007568359 C 73.88955688476562 90.94059753417969 78.91621398925781 87.55132293701172 83.23355865478516 83.23399353027344 C 87.55089569091797 78.91665649414062 90.94015502929688 73.8900146484375 93.30722045898438 68.29368591308594 C 95.7572021484375 62.50127410888672 96.99945068359375 56.34645843505859 96.99945068359375 49.99964141845703 C 96.99945068359375 43.65341186523438 95.7572021484375 37.49859619140625 93.30722045898438 31.70618438720703 C 90.94015502929688 26.10985565185547 87.55089569091797 21.08321380615234 83.23355865478516 16.76587677001953 C 78.91621398925781 12.44853210449219 73.88955688476562 9.059272766113281 68.293212890625 6.692230224609375 C 62.50078582763672 4.242240905761719 56.34597015380859 3 49.99972534179688 3 M 49.99972534179688 0 C 77.61381530761719 0 99.99945068359375 22.38559722900391 99.99945068359375 49.99964141845703 L 99.99945068359375 50.00022888183594 C 99.99945068359375 77.6142578125 77.61381530761719 99.99987030029297 49.99972534179688 99.99987030029297 C 22.38563537597656 99.99987030029297 0 77.6142578125 0 50.00022888183594 L 0 49.99964141845703 C 0 22.38559722900391 22.38563537597656 0 49.99972534179688 0 Z" stroke="none" fill="#fff"/>
            </g>
          </g>
        </g>
      </g>
    </g>
    <g id="Grupo_1118906" data-name="Grupo 1118906" transform="translate(-5955.927 -9488.492)">
      <g id="Grupo_1118904" data-name="Grupo 1118904" transform="translate(7.327 0.902)">
        <path id="Trazado_913465" data-name="Trazado 913465" d="M182.569,23.757H155.208l2.164-11.492A5.848,5.848,0,0,1,163.119,7.5h11.539a5.848,5.848,0,0,1,5.746,4.765Z" transform="translate(-138.224 -7.5)" fill="#99e6fc"/>
        <path id="Trazado_913466" data-name="Trazado 913466" d="M299.883,12.265A5.847,5.847,0,0,0,294.137,7.5h-3.126a5.848,5.848,0,0,1,5.746,4.765l2.164,11.492h3.126Z" transform="translate(-257.703 -7.5)" fill="#62dbfb"/>
        <ellipse id="Elipse_11844" data-name="Elipse 11844" cx="21.363" cy="5.522" rx="21.363" ry="5.522" transform="translate(9.302 12.319)" fill="#766e6e"/>
        <path id="Trazado_913467" data-name="Trazado 913467" d="M191.815,116.513H181.654a6.042,6.042,0,0,1-6.042-6.042V96.2h22.245v14.27A6.041,6.041,0,0,1,191.815,116.513Z" transform="translate(-156.175 -85.54)" fill="#ffb09e"/>
        <path id="Trazado_913468" data-name="Trazado 913468" d="M290.451,96.2v14.27a6.042,6.042,0,0,1-6.042,6.042h3.126a6.042,6.042,0,0,0,6.042-6.042V96.2Z" transform="translate(-251.895 -85.54)" fill="#ffa78f"/>
        <g id="Grupo_1118901" data-name="Grupo 1118901" transform="translate(8.55 8.973)">
          <path id="Trazado_913469" data-name="Trazado 913469" d="M129.059,87.375c0,.557-.542,3.642-.542,3.642,0-3.05-9.565-5.523-21.363-5.523s-21.363,2.473-21.363,5.523c0,0-.752-3-.752-3.511,0-3.05,9.487-5.357,22.115-5.357S129.059,84.325,129.059,87.375Z" transform="translate(-85.04 -82.149)" fill="#c8effe"/>
          <path id="Trazado_913470" data-name="Trazado 913470" d="M129.059,87.375c0,.557-.542,3.642-.542,3.642,0-3.05-9.565-5.523-21.363-5.523s-21.363,2.473-21.363,5.523c0,0-.752-3-.752-3.511,0-3.05,9.487-5.357,22.115-5.357S129.059,84.325,129.059,87.375Z" transform="translate(-85.04 -82.149)" fill="#c8effe"/>
          <path id="Trazado_913471" data-name="Trazado 913471" d="M129.059,87.375c0,.557-.542,3.642-.542,3.642,0-3.05-9.565-5.523-21.363-5.523s-21.363,2.473-21.363,5.523c0,0-.752-3-.752-3.511,0-3.05,9.487-5.357,22.115-5.357S129.059,84.325,129.059,87.375Z" transform="translate(-85.04 -82.149)" fill="#c8effe"/>
        </g>
        <path id="Trazado_913472" data-name="Trazado 913472" d="M52.924,319.879a7.522,7.522,0,0,0-7.015,4.807l-7.7,17.385H48.04l4.884-10.513v8.592H78.77V319.879Z" transform="translate(-35.288 -282.33)" fill="#99e6fc"/>
        <g id="Grupo_1118902" data-name="Grupo 1118902" transform="translate(40.357 37.549)">
          <path id="Trazado_913473" data-name="Trazado 913473" d="M349.649,319.879h3.126V340.15h-3.126Z" transform="translate(-349.649 -319.879)" fill="#62dbfb"/>
        </g>
        <path id="Trazado_913474" data-name="Trazado 913474" d="M235.69,265.176h7.8v6.576h-7.8Z" transform="translate(-209.032 -234.202)" fill="#ffa78f"/>
        <path id="Trazado_913475" data-name="Trazado 913475" d="M273.836,265.176h3.217v6.576h-3.217Z" transform="translate(-242.592 -234.202)" fill="#f89580"/>
        <path id="Trazado_913476" data-name="Trazado 913476" d="M202.349,319.879h4.008v10.773h-4.008Z" transform="translate(-179.698 -282.33)" fill="#4f66d0"/>
        <path id="Trazado_913477" data-name="Trazado 913477" d="M300.6,319.879H304.6v10.773H300.6Z" transform="translate(-266.135 -282.33)" fill="#4f66d0"/>
        <path id="Trazado_913478" data-name="Trazado 913478" d="M375.652,331.558l4.884,10.513h9.832l-7.7-17.385a7.522,7.522,0,0,0-7.015-4.807Z" transform="translate(-332.17 -282.33)" fill="#99e6fc"/>
        <path id="Trazado_913479" data-name="Trazado 913479" d="M382.667,324.686a7.522,7.522,0,0,0-7.015-4.807v.681a7.518,7.518,0,0,1,3.889,4.126l7.7,17.385h3.126Z" transform="translate(-332.17 -282.33)" fill="#62dbfb"/>
        <path id="Trazado_913480" data-name="Trazado 913480" d="M143.758,163.691h-1.2a3.149,3.149,0,1,1,0-6.3h1.2Z" transform="translate(-124.321 -139.374)" fill="#ffa78f"/>
        <path id="Trazado_913481" data-name="Trazado 913481" d="M143.076,409.5H106.025a1.093,1.093,0,0,0-1.093,1.093v4.11l1.812,6.216h35.614l1.812-6.216v-4.11A1.094,1.094,0,0,0,143.076,409.5Z" transform="translate(-93.991 -361.178)" fill="#fcd18a"/>
        <path id="Trazado_913482" data-name="Trazado 913482" d="M387.064,409.5h-4.09a1.093,1.093,0,0,1,1.093,1.093v4.11l-1.812,6.216h4.09l1.812-6.216v-4.11A1.093,1.093,0,0,0,387.064,409.5Z" transform="translate(-337.98 -361.178)" fill="#fbc56d"/>
        <path id="Trazado_913483" data-name="Trazado 913483" d="M360.673,163.691h1.2a3.149,3.149,0,1,0,0-6.3h-1.2Z" transform="translate(-318.991 -139.374)" fill="#ffa78f"/>
        <path id="Trazado_913484" data-name="Trazado 913484" d="M194.023,162.684s-1.983-2.143-7.288-2.143-7.288,2.143-7.288,2.143l-3.835-5.292v9.122a5.449,5.449,0,0,0,5.449,5.449h11.347a5.449,5.449,0,0,0,5.449-5.449v-9.122Z" transform="translate(-156.176 -139.374)" fill="#b98080"/>
        <path id="Trazado_913485" data-name="Trazado 913485" d="M297.92,157.39v9.122a5.45,5.45,0,0,1-5.449,5.449h-3.125a5.449,5.449,0,0,0,5.448-5.449v-4.807Z" transform="translate(-256.238 -139.373)" fill="#ae6c6c"/>
        <g id="Grupo_1118903" data-name="Grupo 1118903" transform="translate(0 21.121)">
          <path id="Trazado_913486" data-name="Trazado 913486" d="M59.332,294.527l1.581,3.153-5.789.457a1.634,1.634,0,1,1-.257-3.257Z" transform="translate(-48.619 -281.146)" fill="#fef48b"/>
          <path id="Trazado_913487" data-name="Trazado 913487" d="M46.183,268.3l1.581,3.153-5.789.457a1.634,1.634,0,1,1-.257-3.257Z" transform="translate(-37.05 -258.073)" fill="#fef056"/>
          <path id="Trazado_913488" data-name="Trazado 913488" d="M33.035,242.075l1.581,3.153-5.789.457a1.634,1.634,0,1,1-.257-3.257Z" transform="translate(-25.483 -234.999)" fill="#fef48b"/>
          <path id="Trazado_913489" data-name="Trazado 913489" d="M19.887,215.848,21.467,219l-5.789.457a1.634,1.634,0,1,1-.257-3.257Z" transform="translate(-13.915 -211.925)" fill="#fef056"/>
          <path id="Trazado_913490" data-name="Trazado 913490" d="M85.629,346.981l1.581,3.153-5.789.457a1.634,1.634,0,1,1-.257-3.257Z" transform="translate(-71.755 -327.295)" fill="#fef48b"/>
          <path id="Trazado_913491" data-name="Trazado 913491" d="M72.481,320.754l1.581,3.153-5.789.457a1.634,1.634,0,1,1-.257-3.257Z" transform="translate(-60.187 -304.221)" fill="#fef056"/>
          <path id="Trazado_913492" data-name="Trazado 913492" d="M103.041,265.811l1.581,3.153,3.829-4.365A1.634,1.634,0,1,0,106,262.444Z" transform="translate(-92.328 -252.43)" fill="#fef056"/>
          <path id="Trazado_913493" data-name="Trazado 913493" d="M89.892,239.585l1.581,3.153,3.829-4.365a1.634,1.634,0,0,0-2.456-2.155Z" transform="translate(-80.759 -229.357)" fill="#fef48b"/>
          <path id="Trazado_913494" data-name="Trazado 913494" d="M76.744,213.359l1.581,3.153,3.829-4.365a1.634,1.634,0,1,0-2.456-2.155Z" transform="translate(-69.192 -206.283)" fill="#fef056"/>
          <path id="Trazado_913495" data-name="Trazado 913495" d="M63.6,187.132l1.581,3.153,3.829-4.365a1.634,1.634,0,1,0-2.456-2.155Z" transform="translate(-57.624 -183.209)" fill="#fef48b"/>
          <path id="Trazado_913496" data-name="Trazado 913496" d="M129.338,318.265l1.581,3.153,3.829-4.365a1.634,1.634,0,1,0-2.456-2.155Z" transform="translate(-115.464 -298.579)" fill="#fef056"/>
          <path id="Trazado_913497" data-name="Trazado 913497" d="M116.19,292.038l1.581,3.153,3.829-4.365a1.634,1.634,0,0,0-2.456-2.155Z" transform="translate(-103.896 -275.505)" fill="#fef48b"/>
        </g>
      </g>
      <g id="Grupo_1118905" data-name="Grupo 1118905" transform="translate(6.427 0)">
        <path id="Trazado_913498" data-name="Trazado 913498" d="M66.35,60.278,58.657,42.912a8.474,8.474,0,0,0-7.847-5.363H42.689V34.391h.871a6.357,6.357,0,0,0,6.35-6.35V26.119a4.153,4.153,0,0,0,4.154-2.8c4.034-1.147,6.114-2.651,6.188-4.476.14-.8.546-3.166.546-3.742,0-2.609-4.089-4.247-9.57-5.166L50.393,5.5A6.753,6.753,0,0,0,43.761,0H32.222A6.753,6.753,0,0,0,25.59,5.5l-.159.843a.9.9,0,1,0,1.772.334l.159-.842a4.949,4.949,0,0,1,4.86-4.03h11.54a4.949,4.949,0,0,1,4.86,4.03l.719,3.819a89.123,89.123,0,0,0-11.349-.679,71.622,71.622,0,0,0-16.005,1.56c-4.652,1.128-7.011,2.709-7.011,4.7a28.877,28.877,0,0,0,.757,3.641A3.16,3.16,0,0,0,17.1,21.151a2.53,2.53,0,0,0-1.523.833l-2.071,2.36-.415-.827.468-1.867a.9.9,0,0,0-1.749-.439l-.317,1.265-1.26-.395A.9.9,0,0,0,9.694,23.8l1.806.565.393.785-3.13.247a2.536,2.536,0,0,0-.638,4.921,2.535,2.535,0,0,0,1.58,3.153,2.535,2.535,0,0,0,1.581,3.152,2.536,2.536,0,0,0,1.581,3.153,2.535,2.535,0,0,0,1.58,3.153,2.535,2.535,0,0,0,1.313,3.041L9.423,60.278a.9.9,0,1,0,1.648.73l6.573-14.837,4.6-.363,1.261,2.514H19.361a2,2,0,0,0-1.995,1.995V54.41a.983.983,0,0,0,.041.287l1.807,6.2a.9.9,0,0,0,1.731-.5L19.47,55.329H48.118a.9.9,0,0,0,0-1.8H19.169V50.317a.192.192,0,0,1,.192-.192H56.412a.192.192,0,0,1,.192.192v3.209H52.333a.9.9,0,0,0,0,1.8H56.3L54.828,60.39a.9.9,0,1,0,1.731.5l1.807-6.2a.985.985,0,0,0,.041-.287V50.317a2,2,0,0,0-1.995-1.995h-4.7V39.415a6.667,6.667,0,0,1,5.271,4.168l.017.04,7.7,17.385a.9.9,0,0,0,1.649-.73ZM40.886,37.549h-6V34.391h6Zm7.221-9.509a4.552,4.552,0,0,1-4.547,4.547H32.213a4.552,4.552,0,0,1-4.547-4.547V21.7l2.2,3.04a.894.894,0,0,0,1.384.091,5.14,5.14,0,0,1,1.492-.925,12.658,12.658,0,0,1,5.141-.937,12.658,12.658,0,0,1,5.141.937,5.171,5.171,0,0,1,1.492.924.9.9,0,0,0,1.385-.09l2.2-3.04v6.341Zm-30.577-9.3h0c0-.59,1.175-1.893,5.581-3.032.858-.222,1.779-.422,2.751-.6v2.907a4.133,4.133,0,0,0-4.284,3.314c-3.161-1.021-4.047-2.083-4.048-2.588Zm30.577-.117-3.117,4.3a12.239,12.239,0,0,0-6.2-1.739V19.294a.9.9,0,1,0-1.8,0v1.894a12.24,12.24,0,0,0-6.2,1.739l-3.116-4.3V14.816a72.812,72.812,0,0,1,10.325-.694,73.209,73.209,0,0,1,10.116.664ZM23.313,22.069a2.328,2.328,0,0,1,2.549-2.248v4.5A2.331,2.331,0,0,1,23.313,22.069Zm26.9,2.248h-.3v-4.5a2.331,2.331,0,0,1,2.549,2.248,2.25,2.25,0,0,1-2.248,2.248Zm3.994-2.922a4.125,4.125,0,0,0-4.295-3.377V15.073c4.164.643,8.622,2.413,8.542,3.669C58.453,19.43,57.128,20.476,54.206,21.394ZM18.017,13.883a16.812,16.812,0,0,1,4.395-1.6,69.818,69.818,0,0,1,15.58-1.509,71.081,71.081,0,0,1,15.479,1.445c4.077.968,5.524,2.156,5.524,2.879,0,.141-.061.6-.152,1.2-1.609-1.324-5.181-2.357-7.824-2.852a69.752,69.752,0,0,0-13.028-1.128A63.769,63.769,0,0,0,22.66,13.965,16.251,16.251,0,0,0,17,16.41a11.646,11.646,0,0,1-.224-1.178c0-.39.451-.881,1.238-1.348Zm3.67,9.368a4.147,4.147,0,0,0,4.176,2.868v1.921a6.358,6.358,0,0,0,6.35,6.35h.871v3.158H27.1a2.528,2.528,0,0,0-.875-.522,2.534,2.534,0,0,0-1.581-3.153,2.534,2.534,0,0,0-1.581-3.153,2.534,2.534,0,0,0-1.58-3.152A2.534,2.534,0,0,0,19.9,24.417a2.522,2.522,0,0,0-.112-1.808q.86.338,1.9.643Zm-10.2,10.621a.721.721,0,0,1,.578-.37l3.862-.3.708,1.413-4.453.352a.732.732,0,0,1-.712-.4A.722.722,0,0,1,11.486,33.872ZM10.6,31.809a.729.729,0,0,1-.712-.4.732.732,0,0,1,.6-1.058l3.861-.3.708,1.413Zm13.753,4.94-2.946,3.358L20.7,38.694l2.554-2.911a.732.732,0,0,1,1.2.155.729.729,0,0,1-.1.811ZM22.773,33.6l-2.946,3.358-.708-1.413,2.554-2.911a.732.732,0,0,1,1.2.155.73.73,0,0,1-.1.811Zm-1.581-3.153L18.246,33.8l-.708-1.413,2.555-2.912a.732.732,0,0,1,1.2.156.729.729,0,0,1-.1.811Zm-1.58-3.152-2.946,3.358-.708-1.413,2.554-2.911a.732.732,0,0,1,1.2.155A.729.729,0,0,1,19.612,27.291Zm-6.545,9.733a.722.722,0,0,1,.58-.37l3.86-.3.708,1.413-4.453.352a.731.731,0,0,1-.712-.4.721.721,0,0,1,.017-.688Zm1.581,3.153a.722.722,0,0,1,.58-.37l3.86-.3.708,1.413-4.453.352a.731.731,0,0,1-.712-.4.722.722,0,0,1,.017-.688Zm8.341,3.082-.708-1.413,2.554-2.911a.732.732,0,0,1,1.2.155.729.729,0,0,1-.1.811ZM16.931,23.173a.732.732,0,0,1,1.2.155.729.729,0,0,1-.1.811l-.875,1h0L15.085,27.5l-.708-1.413ZM8.325,27.567a.722.722,0,0,1,.58-.37l3.86-.3.708,1.413-4.453.352a.73.73,0,0,1-.712-.4.722.722,0,0,1,.017-.688Zm8.647,16.848H16.96l-.037,0a.73.73,0,0,1-.712-.4.732.732,0,0,1,.6-1.058l3.86-.3.708,1.413ZM23.86,45l3.43-3.909a2.526,2.526,0,0,0,.63-1.738h1.157v8.97H25.525Zm7.02,3.322v-8.97h2.2V45a.9.9,0,0,0,1.8,0v-5.65h6v8.97Zm11.81,0v-8.97h2.2v8.97Zm4.008,0v-8.97h3.212v8.97Z" transform="translate(-6.427 0)"/>
        <path id="Trazado_913499" data-name="Trazado 913499" d="M246.666,207.193a4.171,4.171,0,0,1-3.747.053.9.9,0,0,0-.95,1.532,5.408,5.408,0,0,0,2.7.674,6.591,6.591,0,0,0,2.739-.617.9.9,0,0,0-.745-1.642Z" transform="translate(-213.283 -182.216)"/>
        <path id="Trazado_913500" data-name="Trazado 913500" d="M409.093,266.112a.9.9,0,0,0,.9-.9v-.429h.429a.9.9,0,0,0,0-1.8h-.429v-.429a.9.9,0,0,0-1.8,0v.429h-.429a.9.9,0,0,0,0,1.8h.429v.429A.9.9,0,0,0,409.093,266.112Z" transform="translate(-358.727 -230.197)"/>
        <circle id="Elipse_11845" data-name="Elipse 11845" cx="0.902" cy="0.902" r="0.902" transform="translate(53.5 27.857)"/>
      </g>
    </g>
  </g>
</svg>
