<svg xmlns="http://www.w3.org/2000/svg" xmlns:xlink="http://www.w3.org/1999/xlink" width="118" height="118" viewBox="0 0 118 118">
  <defs>
    <filter id="Trazado_874925" x="0" y="0" width="117.999" height="118" filterUnits="userSpaceOnUse">
      <feOffset dy="3" input="SourceAlpha"/>
      <feGaussianBlur stdDeviation="3" result="blur"/>
      <feFlood flood-opacity="0.161"/>
      <feComposite operator="in" in2="blur"/>
      <feComposite in="SourceGraphic"/>
    </filter>
  </defs>
  <g id="Grupo_1119265" data-name="Grupo 1119265" transform="translate(1526.819 10285.72)">
    <g id="Grupo_1111553" data-name="Grupo 1111553" transform="translate(-2326.319 -12796.877)">
      <g id="Grupo_1111316" data-name="Grupo 1111316" transform="translate(808.5 2517.157)">
        <g id="Grupo_1109835" data-name="Grupo 1109835" transform="translate(0 0)">
          <g id="Grupo_1107913" data-name="Grupo 1107913" transform="translate(0 0)">
            <g transform="matrix(1, 0, 0, 1, -9, -6)" filter="url(#Trazado_874925)">
              <g id="Trazado_874925-2" data-name="Trazado 874925" transform="translate(9 6)" fill="#fc0" opacity="0.859">
                <path d="M 49.99972534179688 98.4998779296875 C 43.45164108276367 98.4998779296875 37.10022354125977 97.21776580810547 31.12189674377441 94.68914794921875 C 25.34676742553711 92.24647521972656 20.15985298156738 88.74925994873047 15.70523929595947 84.29464721679688 C 11.25062561035156 79.84004974365234 7.753411293029785 74.65313720703125 5.310725212097168 68.87800598144531 C 2.782111167907715 62.89969253540039 1.499996781349182 56.54829406738281 1.499996781349182 50.00022125244141 C 1.499996781349182 43.45157623291016 2.782111167907715 37.10017776489258 5.310725212097168 31.12186431884766 C 7.753411293029785 25.34673500061035 11.25062561035156 20.15983581542969 15.70523929595947 15.70522117614746 C 20.15985298156738 11.25062084197998 25.34676742553711 7.753406524658203 31.12189674377441 5.31073522567749 C 37.10022354125977 2.782120943069458 43.45164108276367 1.500006556510925 49.99972534179688 1.500006556510925 C 56.54780960083008 1.500006556510925 62.89922714233398 2.782120943069458 68.87755584716797 5.31073522567749 C 74.65267944335938 7.753406524658203 79.839599609375 11.25062084197998 84.29421234130859 15.70522117614746 C 88.74882507324219 20.15983581542969 92.24604034423828 25.34673500061035 94.68872833251953 31.12186431884766 C 97.21733856201172 37.10017776489258 98.49945068359375 43.45157623291016 98.49945068359375 49.99964904785156 C 98.49945068359375 56.54829406738281 97.21733856201172 62.89969253540039 94.68872833251953 68.87800598144531 C 92.24604034423828 74.65313720703125 88.74882507324219 79.84004974365234 84.29421234130859 84.29464721679688 C 79.839599609375 88.74925994873047 74.65267944335938 92.24647521972656 68.87755584716797 94.68914794921875 C 62.89922714233398 97.21776580810547 56.54780960083008 98.4998779296875 49.99972534179688 98.4998779296875 Z" stroke="none"/>
                <path d="M 49.99972534179688 3 C 43.65348052978516 3 37.49866485595703 4.242240905761719 31.70623016357422 6.692230224609375 C 26.10989379882812 9.059272766113281 21.08323669433594 12.44853210449219 16.76589202880859 16.76587677001953 C 12.44855499267578 21.08321380615234 9.059295654296875 26.10985565185547 6.692230224609375 31.70618438720703 C 4.24224853515625 37.49859619140625 3 43.65341186523438 3 50.00022888183594 C 3 56.34645843505859 4.24224853515625 62.50127410888672 6.692230224609375 68.29368591308594 C 9.059295654296875 73.8900146484375 12.44855499267578 78.91665649414062 16.76589202880859 83.23399353027344 C 21.08323669433594 87.55132293701172 26.10989379882812 90.94059753417969 31.70623016357422 93.30764007568359 C 37.49866485595703 95.75762939453125 43.65348052978516 96.99987030029297 49.99972534179688 96.99987030029297 C 56.34597015380859 96.99987030029297 62.50078582763672 95.75762939453125 68.293212890625 93.30764007568359 C 73.88955688476562 90.94059753417969 78.91621398925781 87.55132293701172 83.23355865478516 83.23399353027344 C 87.55089569091797 78.91665649414062 90.94015502929688 73.8900146484375 93.30722045898438 68.29368591308594 C 95.7572021484375 62.50127410888672 96.99945068359375 56.34645843505859 96.99945068359375 49.99964141845703 C 96.99945068359375 43.65341186523438 95.7572021484375 37.49859619140625 93.30722045898438 31.70618438720703 C 90.94015502929688 26.10985565185547 87.55089569091797 21.08321380615234 83.23355865478516 16.76587677001953 C 78.91621398925781 12.44853210449219 73.88955688476562 9.059272766113281 68.293212890625 6.692230224609375 C 62.50078582763672 4.242240905761719 56.34597015380859 3 49.99972534179688 3 M 49.99972534179688 0 C 77.61381530761719 0 99.99945068359375 22.38559722900391 99.99945068359375 49.99964141845703 L 99.99945068359375 50.00022888183594 C 99.99945068359375 77.6142578125 77.61381530761719 99.99987030029297 49.99972534179688 99.99987030029297 C 22.38563537597656 99.99987030029297 0 77.6142578125 0 50.00022888183594 L 0 49.99964141845703 C 0 22.38559722900391 22.38563537597656 0 49.99972534179688 0 Z" stroke="none" fill="#fff"/>
              </g>
            </g>
            <g id="Trazado_874923" data-name="Trazado 874923" transform="translate(0 0)" fill="none">
              <path d="M50,0a50,50,0,0,1,50,50h0A50,50,0,0,1,0,50H0A50,50,0,0,1,50,0Z" stroke="none"/>
              <path d="M 49.99972534179688 3 C 43.65348052978516 3 37.49866485595703 4.242240905761719 31.70623016357422 6.692230224609375 C 26.10989379882812 9.059272766113281 21.08323669433594 12.44853210449219 16.76589202880859 16.76587677001953 C 12.44855499267578 21.08321380615234 9.059295654296875 26.10985565185547 6.692230224609375 31.70618438720703 C 4.24224853515625 37.49859619140625 3 43.65341186523438 3 50.00022888183594 C 3 56.34645843505859 4.24224853515625 62.50127410888672 6.692230224609375 68.29368591308594 C 9.059295654296875 73.8900146484375 12.44855499267578 78.91665649414062 16.76589202880859 83.23399353027344 C 21.08323669433594 87.55132293701172 26.10989379882812 90.94059753417969 31.70623016357422 93.30764007568359 C 37.49866485595703 95.75762939453125 43.65348052978516 96.99987030029297 49.99972534179688 96.99987030029297 C 56.34597015380859 96.99987030029297 62.50078582763672 95.75762939453125 68.293212890625 93.30764007568359 C 73.88955688476562 90.94059753417969 78.91621398925781 87.55132293701172 83.23355865478516 83.23399353027344 C 87.55089569091797 78.91665649414062 90.94015502929688 73.8900146484375 93.30722045898438 68.29368591308594 C 95.7572021484375 62.50127410888672 96.99945068359375 56.34645843505859 96.99945068359375 49.99964141845703 C 96.99945068359375 43.65341186523438 95.7572021484375 37.49859619140625 93.30722045898438 31.70618438720703 C 90.94015502929688 26.10985565185547 87.55089569091797 21.08321380615234 83.23355865478516 16.76587677001953 C 78.91621398925781 12.44853210449219 73.88955688476562 9.059272766113281 68.293212890625 6.692230224609375 C 62.50078582763672 4.242240905761719 56.34597015380859 3 49.99972534179688 3 M 49.99972534179688 0 C 77.61381530761719 0 99.99945068359375 22.38559722900391 99.99945068359375 49.99964141845703 L 99.99945068359375 50.00022888183594 C 99.99945068359375 77.6142578125 77.61381530761719 99.99987030029297 49.99972534179688 99.99987030029297 C 22.38563537597656 99.99987030029297 0 77.6142578125 0 50.00022888183594 L 0 49.99964141845703 C 0 22.38559722900391 22.38563537597656 0 49.99972534179688 0 Z" stroke="none" fill="#fff"/>
            </g>
          </g>
        </g>
      </g>
    </g>
    <g id="Grupo_1119231" data-name="Grupo 1119231" transform="translate(-1525.274 -10261.41)">
      <g id="Grupo_1119230" data-name="Grupo 1119230" transform="translate(28.961 1)">
        <g id="Grupo_1119219" data-name="Grupo 1119219" transform="translate(20.449)">
          <path id="Trazado_913878" data-name="Trazado 913878" d="M202.369,59.861h-9.23a4.346,4.346,0,0,0-4.346,4.346v8.923h17.922V64.207A4.346,4.346,0,0,0,202.369,59.861Z" transform="translate(-188.793 -52.879)" fill="#fe76a8"/>
          <path id="Trazado_913879" data-name="Trazado 913879" d="M197.833,59.86a4.346,4.346,0,0,0-4.346,4.346V73.13h-4.694V64.206a4.346,4.346,0,0,1,4.346-4.346Z" transform="translate(-188.793 -52.878)" fill="#fe5694"/>
          <path id="Trazado_913880" data-name="Trazado 913880" d="M226.815,34.42a5.306,5.306,0,1,1-10.229-1.98c2.159.885,2.692.4,4.923.4s2.469.64,4.923-.4a5.284,5.284,0,0,1,.383,1.98Z" transform="translate(-212.548 -29.114)" fill="#ffdfcf"/>
          <path id="Trazado_913881" data-name="Trazado 913881" d="M228.92,10.826a5.306,5.306,0,0,1-9.847,0,5.307,5.307,0,0,1,9.847,0Z" transform="translate(-215.035 -7.5)" fill="#7a6d79"/>
        </g>
        <path id="Trazado_913882" data-name="Trazado 913882" d="M202.369,365.9h-9.23a4.346,4.346,0,0,1-4.346-4.346V352.63h17.922v8.923A4.346,4.346,0,0,1,202.369,365.9Z" transform="translate(-168.344 -306.607)" fill="#8ac9fe"/>
        <path id="Trazado_913883" data-name="Trazado 913883" d="M197.833,365.9a4.346,4.346,0,0,1-4.346-4.346V352.63h-4.694v8.924a4.346,4.346,0,0,0,4.346,4.346Z" transform="translate(-168.344 -306.607)" fill="#60b7ff"/>
        <path id="Trazado_913884" data-name="Trazado 913884" d="M226.815,430.217a5.306,5.306,0,1,0-10.229,1.98c2.159-.885,2.692-.4,4.923-.4s2.469-.64,4.923.4A5.284,5.284,0,0,0,226.815,430.217Z" transform="translate(-192.099 -369.248)" fill="#ffdfcf"/>
        <path id="Trazado_913885" data-name="Trazado 913885" d="M228.92,457.937A5.307,5.307,0,1,0,224,461.263,5.3,5.3,0,0,0,228.92,457.937Z" transform="translate(-194.587 -394.988)" fill="#7a6d79"/>
        <g id="Grupo_1119222" data-name="Grupo 1119222" transform="translate(0 13.889)">
          <g id="Grupo_1119220" data-name="Grupo 1119220">
            <path id="Trazado_913886" data-name="Trazado 913886" d="M69.654,113.832l-4.615,7.993a4.346,4.346,0,0,0,1.591,5.937l7.728,4.462L83.319,116.7l-7.728-4.462A4.346,4.346,0,0,0,69.654,113.832Z" transform="translate(-60.588 -111.658)" fill="#8ac9fe"/>
            <path id="Trazado_913887" data-name="Trazado 913887" d="M67.384,157.419a4.346,4.346,0,0,0,1.591,5.937l7.728,4.462-2.347,4.065-7.728-4.462a4.346,4.346,0,0,1-1.591-5.937Z" transform="translate(-60.586 -151.317)" fill="#60b7ff"/>
            <path id="Trazado_913888" data-name="Trazado 913888" d="M50.755,112.9a5.306,5.306,0,1,1-6.83,7.869c1.845-1.427,1.69-2.133,2.806-4.065s1.789-1.819,2.118-4.462a5.286,5.286,0,0,1,1.906.659Z" transform="translate(-42.795 -112.168)" fill="#ae6c6c"/>
            <path id="Trazado_913889" data-name="Trazado 913889" d="M41.5,111.9a5.306,5.306,0,0,1-4.923,8.527A5.307,5.307,0,0,1,41.5,111.9Z" transform="translate(-35.447 -111.826)" fill="#7a6d79"/>
          </g>
          <g id="Grupo_1119221" data-name="Grupo 1119221" transform="translate(36.088 17.93)">
            <path id="Trazado_913890" data-name="Trazado 913890" d="M324.357,256.517l-4.615,7.993A4.346,4.346,0,0,1,313.8,266.1l-7.728-4.462,8.961-15.521,7.728,4.462A4.346,4.346,0,0,1,324.357,256.517Z" transform="translate(-306.077 -246.118)" fill="#9be69d"/>
            <path id="Trazado_913891" data-name="Trazado 913891" d="M322.089,334.9a4.346,4.346,0,0,1-5.937,1.591l-7.728-4.462-2.347,4.065,7.728,4.462a4.346,4.346,0,0,0,5.937-1.591Z" transform="translate(-306.077 -320.572)" fill="#6fd7a3"/>
            <path id="Trazado_913892" data-name="Trazado 913892" d="M404.9,321.268a5.306,5.306,0,1,0-3.4,9.849c.313-2.312,1-2.53,2.118-4.462s.68-2.459,2.806-4.065A5.28,5.28,0,0,0,404.9,321.268Z" transform="translate(-384.82 -310.629)" fill="#ffdfcf"/>
            <path id="Trazado_913893" data-name="Trazado 913893" d="M428.712,335.463a5.307,5.307,0,1,0,.419,5.927A5.3,5.3,0,0,0,428.712,335.463Z" transform="translate(-407.112 -323.503)" fill="#7a6d79"/>
          </g>
        </g>
        <g id="Grupo_1119225" data-name="Grupo 1119225" transform="translate(0 13.889)">
          <g id="Grupo_1119223" data-name="Grupo 1119223" transform="translate(0 17.93)">
            <path id="Trazado_913894" data-name="Trazado 913894" d="M65.039,256.517l4.615,7.993a4.346,4.346,0,0,0,5.937,1.591l7.728-4.462-8.961-15.521L66.63,250.58A4.346,4.346,0,0,0,65.039,256.517Z" transform="translate(-60.588 -246.118)" fill="#7a6d79"/>
            <path id="Trazado_913895" data-name="Trazado 913895" d="M85.836,334.9a4.346,4.346,0,0,0,5.937,1.591l7.728-4.462,2.347,4.065-7.728,4.462a4.346,4.346,0,0,1-5.937-1.591Z" transform="translate(-79.117 -320.572)" fill="#685e68"/>
            <path id="Trazado_913896" data-name="Trazado 913896" d="M45.449,321.268a5.306,5.306,0,1,1,3.4,9.849c-.313-2.312-1-2.53-2.118-4.462s-.68-2.459-2.806-4.065A5.281,5.281,0,0,1,45.449,321.268Z" transform="translate(-42.795 -310.629)" fill="#ffdfcf"/>
            <path id="Trazado_913897" data-name="Trazado 913897" d="M36.578,335.463a5.306,5.306,0,0,1,4.923,8.527,5.307,5.307,0,0,1-4.923-8.527Z" transform="translate(-35.448 -323.503)" fill="#7a6d79"/>
          </g>
          <g id="Grupo_1119224" data-name="Grupo 1119224" transform="translate(36.088)">
            <path id="Trazado_913898" data-name="Trazado 913898" d="M319.742,113.832l4.615,7.993a4.346,4.346,0,0,1-1.591,5.937l-7.728,4.462L306.077,116.7l7.728-4.462A4.346,4.346,0,0,1,319.742,113.832Z" transform="translate(-306.077 -111.658)" fill="#ffe177"/>
            <path id="Trazado_913899" data-name="Trazado 913899" d="M365,157.419a4.346,4.346,0,0,1-1.591,5.937l-7.728,4.462,2.347,4.065,7.728-4.462a4.346,4.346,0,0,0,1.591-5.937Z" transform="translate(-349.063 -151.317)" fill="#fece85"/>
            <path id="Trazado_913900" data-name="Trazado 913900" d="M399.591,112.9a5.306,5.306,0,1,0,6.829,7.869c-1.845-1.427-1.69-2.133-2.806-4.065s-1.789-1.819-2.118-4.462A5.286,5.286,0,0,0,399.591,112.9Z" transform="translate(-384.82 -112.168)" fill="#ae6c6c"/>
            <path id="Trazado_913901" data-name="Trazado 913901" d="M423.789,111.9a5.306,5.306,0,0,0,4.923,8.527,5.307,5.307,0,0,0-4.923-8.527Z" transform="translate(-407.112 -111.826)" fill="#7a6d79"/>
          </g>
        </g>
        <circle id="Elipse_11878" data-name="Elipse 11878" cx="18.031" cy="18.031" r="18.031" transform="translate(11.378 15.106)" fill="#dc8758"/>
        <path id="Trazado_913902" data-name="Trazado 913902" d="M182.285,188.39,179.3,195.46a.859.859,0,0,1-1.125.458l-9.97-4.2a.859.859,0,0,1-.458-1.125l2.981-7.071a.859.859,0,0,1,1.125-.458l9.97,4.2A.859.859,0,0,1,182.285,188.39Z" transform="translate(-150.05 -159.591)" fill="#d8ecfe"/>
        <path id="Trazado_913903" data-name="Trazado 913903" d="M263.747,209.019l-7.037,3.059a.859.859,0,0,1-1.13-.445l-4.313-9.923a.859.859,0,0,1,.445-1.13l7.037-3.059a.859.859,0,0,1,1.13.445l4.313,9.923A.859.859,0,0,1,263.747,209.019Z" transform="translate(-222.425 -172.119)" fill="#f5f8f9"/>
        <path id="Trazado_913904" data-name="Trazado 913904" d="M254.514,248.762l-7.037,3.059a.859.859,0,0,1-1.13-.445l-4.313-9.923a.859.859,0,0,1,.445-1.13l7.037-3.059a.859.859,0,0,1,1.13.445l4.313,9.923A.859.859,0,0,1,254.514,248.762Z" transform="translate(-214.423 -206.562)" fill="#f5f8f9"/>
        <path id="Trazado_913905" data-name="Trazado 913905" d="M140.35,156.292q-.772.068-1.563.068a18.032,18.032,0,0,1,0-36.063q.79,0,1.563.068a18.031,18.031,0,0,0,0,35.927Z" transform="translate(-109.38 -105.256)" fill="#c57a44"/>
        <g id="Grupo_1119226" data-name="Grupo 1119226" transform="translate(31.006 43.56)">
          <path id="Trazado_913906" data-name="Trazado 913906" d="M277.463,346.852l1.579,1.579v5.345h4.519V347.4a2.034,2.034,0,0,0-.6-1.437l-2.306-2.306-2.272.965Z" transform="translate(-276.197 -342.389)" fill="#8ac9fe"/>
          <path id="Trazado_913907" data-name="Trazado 913907" d="M268.627,338.014l.605.605,3.2-3.2-.605-.605a2.26,2.26,0,0,0-3.2,3.2Z" transform="translate(-267.966 -334.156)" fill="#ffdfcf"/>
        </g>
        <g id="Grupo_1119227" data-name="Grupo 1119227" transform="translate(36.205 14.473)">
          <path id="Trazado_913908" data-name="Trazado 913908" d="M319.118,119.945l-4.629,2.672-.523,1.951-1.782.768a.926.926,0,1,1-1.807-.4L309.6,123.4l.789-2.944a2.032,2.032,0,0,1,.947-1.234l5.522-3.188" transform="translate(-309.247 -116.031)" fill="#ffe177"/>
          <path id="Trazado_913909" data-name="Trazado 913909" d="M309.214,175.148a2.288,2.288,0,0,1-.587-.077,2.261,2.261,0,0,1-1.6-2.767l.276-1.033,4.366,1.171-.276,1.032A2.26,2.26,0,0,1,309.214,175.148Z" transform="translate(-306.953 -163.904)" fill="#9b5e5e"/>
        </g>
        <g id="Grupo_1119228" data-name="Grupo 1119228" transform="translate(6.042 32.821)">
          <path id="Trazado_913910" data-name="Trazado 913910" d="M83.018,261l4.629-2.672,1.95.522s2.151-.472,2.474-1.678-1.3-2.688-1.3-2.688l-2.944-.789a2.032,2.032,0,0,0-1.542.2l-5.522,3.188Z" transform="translate(-80.758 -253.626)" fill="#7a6d79"/>
          <path id="Trazado_913911" data-name="Trazado 913911" d="M150.912,262.524a2.29,2.29,0,0,1-.077.587,2.261,2.261,0,0,1-2.767,1.6l-1.033-.276,1.171-4.366,1.032.276A2.26,2.26,0,0,1,150.912,262.524Z" transform="translate(-138.196 -259.207)" fill="#ffdfcf"/>
        </g>
        <g id="Grupo_1119229" data-name="Grupo 1119229" transform="translate(20.448 43.561)">
          <path id="Trazado_913912" data-name="Trazado 913912" d="M194.884,346.861l-1.579,1.579v5.345h-4.519v-6.377a2.034,2.034,0,0,1,.6-1.438l2.306-2.306,2.272.965Z" transform="translate(-188.786 -342.398)" fill="#60b7ff"/>
          <path id="Trazado_913913" data-name="Trazado 913913" d="M214.349,338.023l-.605.605-3.2-3.2.605-.605a2.26,2.26,0,0,1,3.2,3.2Z" transform="translate(-207.645 -334.165)" fill="#ffdfcf"/>
        </g>
      </g>
      <path id="Trazado_913914" data-name="Trazado 913914" d="M85.627,42.591a6.324,6.324,0,0,0-.836-.4,5.318,5.318,0,0,0-2.551-5.772l-3.946-2.278,3.946-2.278a5.317,5.317,0,0,0,2.551-5.773,6.3,6.3,0,0,0,3.971-6.369,1,1,0,0,0-1.994.159,4.319,4.319,0,0,1-.672,2.666,4.3,4.3,0,0,1-3.82-6.616,4.321,4.321,0,0,1,2.645.752,1,1,0,1,0,1.135-1.647,6.318,6.318,0,0,0-7.5.251,5.318,5.318,0,0,0-6.273-.675l-3.936,2.273-.009.005V12.328a5.318,5.318,0,0,0-3.723-5.1,6.307,6.307,0,1,0-12.476,0,5.318,5.318,0,0,0-3.723,5.1v4.556l-3.946-2.278a5.318,5.318,0,0,0-6.275.676,6.307,6.307,0,1,0-6.238,10.8A5.318,5.318,0,0,0,34.5,31.86l3.946,2.278L34.5,36.416a5.318,5.318,0,0,0-2.551,5.772,6.307,6.307,0,1,0,6.239,10.8,5.315,5.315,0,0,0,6.274.677l3.946-2.278v2.222a1,1,0,1,0,2,0V49.57a1.044,1.044,0,0,1,.3-.73l1.6-1.6,1.782,1.782-.871.871a1,1,0,0,0-.293.707V54.16a1,1,0,1,0,2,0v-1.3a19.121,19.121,0,0,0,6.884,0v1.3a1,1,0,1,0,2,0V50.6a1,1,0,0,0-.293-.707l-.872-.872,1.782-1.782,1.6,1.6a1.026,1.026,0,0,1,.3.73v6.376h0A3.327,3.327,0,0,1,64,59.136a6.3,6.3,0,0,0-11.263,0,3.359,3.359,0,0,1-1.848-1.456,1,1,0,0,0-1.712,1.035,5.367,5.367,0,0,0,2.953,2.325,6.307,6.307,0,1,0,12.476,0,5.318,5.318,0,0,0,3.723-5.1V51.391l3.946,2.278a5.315,5.315,0,0,0,6.274-.677,6.331,6.331,0,0,0,.768.523,6.307,6.307,0,1,0,6.307-10.924ZM58.371,57.662a4.313,4.313,0,0,1,4.247,3.6,6.326,6.326,0,0,0-8.494,0A4.313,4.313,0,0,1,58.371,57.662Zm0,8.613a4.31,4.31,0,0,1-3.822-2.326,4.3,4.3,0,0,1,7.644,0A4.31,4.31,0,0,1,58.371,66.275ZM79.736,16.9a6.321,6.321,0,0,0,4.251,7.356A4.306,4.306,0,0,1,79.736,16.9ZM77.2,16.76a6.315,6.315,0,0,0,5.283,9.772c.118,0,.236,0,.354-.012a3.327,3.327,0,0,1-1.6,3.607l-3.916,2.261A18.9,18.9,0,0,0,72.861,21.8l1.229-.709a1,1,0,0,0-1-1.732l-3.181,1.837a1,1,0,0,0-.466.607l-.264.985-2.434-.652.53-1.979a1.026,1.026,0,0,1,.481-.627l5.522-3.188h0a3.326,3.326,0,0,1,3.922.421ZM61.337,45.929a1.258,1.258,0,0,1,1.673-.1L61.24,47.6a1.262,1.262,0,0,1,.1-1.672Zm2.858-1.709a3.235,3.235,0,0,0-1.967-.66h0a3.259,3.259,0,0,0-1.142.206L57.544,35.62l6.779-2.945,4.2,9.664ZM56.617,33.842a1.863,1.863,0,0,0-1.116,1.73l-7.862-3.314,2.871-6.812,7.342,3.1h0a1.862,1.862,0,0,0-.963,2.446l1,2.3ZM66.1,31.751a1.857,1.857,0,0,0-2.446-.967l-3.935,1.71-.944-2.173,6.779-2.947,4.2,9.665-1.139.495Zm1-6.077a1.26,1.26,0,0,1-.891-1.543l.017-.065,2.434.652-.018.066a1.261,1.261,0,0,1-1.543.891ZM58.371,2a4.31,4.31,0,0,1,3.822,2.326,4.3,4.3,0,0,1-7.644,0A4.31,4.31,0,0,1,58.371,2Zm4.247,5.015a4.306,4.306,0,0,1-8.494,0,6.326,6.326,0,0,0,8.494,0ZM52.739,9.139A6.3,6.3,0,0,0,64,9.139a3.327,3.327,0,0,1,2.329,3.189v4.521A19.1,19.1,0,0,0,50.41,16.84V12.328A3.327,3.327,0,0,1,52.739,9.139ZM38,22.375a4.313,4.313,0,0,1-5.243,1.878A6.321,6.321,0,0,0,37.006,16.9,4.313,4.313,0,0,1,38,22.375Zm-7.459-4.306a4.309,4.309,0,0,1,3.737-2.152c.063,0,.126,0,.189.006a4.3,4.3,0,0,1-3.826,6.619,4.314,4.314,0,0,1-.1-4.473Zm0,32.137a4.313,4.313,0,0,1,.1-4.473,4.3,4.3,0,0,1,3.826,6.62A4.31,4.31,0,0,1,30.539,50.206Zm6.467,1.17a6.326,6.326,0,0,0-4.245-7.355,4.3,4.3,0,0,1,4.245,7.355Zm6.458.56a3.326,3.326,0,0,1-3.925-.424,6.3,6.3,0,0,0-5.633-9.754,3.328,3.328,0,0,1,1.6-3.611h0l5.522-3.188a1.026,1.026,0,0,1,.783-.1l1.979.53-.652,2.434-.985-.264a1,1,0,0,0-.759.1l-2.938,1.7a1,1,0,1,0,1,1.732l.984-.568a19.247,19.247,0,0,0,6.944,9.157Zm2.321-16.015a1.26,1.26,0,0,1-.652,2.434l-.066-.018L45.72,35.9ZM55.5,47.6l-1.769-1.769A1.259,1.259,0,0,1,55.5,47.6Zm-.407,3.249,1.726-1.727a3.26,3.26,0,0,0-4.611-4.611L49.3,47.427a3.03,3.03,0,0,0-.55.761,17.216,17.216,0,0,1-6.491-8.532l2.361.632a3.26,3.26,0,0,0,1.687-6.3l-3.976-1.065a3.034,3.034,0,0,0-.935-.1,17,17,0,0,1,2.194-7.146,1,1,0,0,0-1.735-1,19,19,0,0,0-2.43,7.705L35.5,30.127a3.328,3.328,0,0,1-1.6-3.611c.117.007.235.011.352.011a6.3,6.3,0,0,0,5.281-9.765,3.326,3.326,0,0,1,3.925-.424L47.376,18.6a19.294,19.294,0,0,0-2.582,2.2,1,1,0,1,0,1.427,1.4,17.035,17.035,0,0,1,19.505-3.427,3.04,3.04,0,0,0-.383.861l-1.065,3.976a3.235,3.235,0,0,0,.132,2.079L60.387,27.44l-9.231-3.892a1.862,1.862,0,0,0-2.435.991L45.741,31.61a1.864,1.864,0,0,0,.991,2.435l9.73,4.1,3.013,6.93a3.264,3.264,0,0,0,.447,4.047l1.726,1.727a17.285,17.285,0,0,1-6.555,0Zm10.652-5.125,3.706-1.61a1.861,1.861,0,0,0,.963-2.446l-1-2.3,1.267-.55a1.858,1.858,0,0,0,.965-2.446L67.87,27.683a3.264,3.264,0,0,0,2.7-2.383l.632-2.358A17.031,17.031,0,0,1,68,48.186a3.036,3.036,0,0,0-.554-.76Zm7.533,6.21-3.917-2.262a19.107,19.107,0,0,0,7.959-13.79l3.919,2.263a3.328,3.328,0,0,1,1.6,3.611A6.3,6.3,0,0,0,77.2,51.513a3.326,3.326,0,0,1-3.925.424ZM78.744,45.9a4.3,4.3,0,0,1,5.237-1.879,6.326,6.326,0,0,0-4.245,7.355,4.313,4.313,0,0,1-.992-5.477ZM86.2,50.206a4.31,4.31,0,0,1-3.925,2.147,4.3,4.3,0,0,1,3.826-6.62,4.314,4.314,0,0,1,.1,4.473Z" transform="translate(0 0)"/>
    </g>
  </g>
</svg>
