<svg xmlns="http://www.w3.org/2000/svg" xmlns:xlink="http://www.w3.org/1999/xlink" width="118" height="118" viewBox="0 0 118 118">
  <defs>
    <filter id="Trazado_874925" x="0" y="0" width="117.999" height="118" filterUnits="userSpaceOnUse">
      <feOffset dy="3" input="SourceAlpha"/>
      <feGaussianBlur stdDeviation="3" result="blur"/>
      <feFlood flood-opacity="0.161"/>
      <feComposite operator="in" in2="blur"/>
      <feComposite in="SourceGraphic"/>
    </filter>
  </defs>
  <g id="Grupo_1119264" data-name="Grupo 1119264" transform="translate(1212.819 10285.72)">
    <g id="Grupo_1111552" data-name="Grupo 1111552" transform="translate(-2012.319 -12796.877)">
      <g id="Grupo_1111316" data-name="Grupo 1111316" transform="translate(808.5 2517.157)">
        <g id="Grupo_1109835" data-name="Grupo 1109835" transform="translate(0 0)">
          <g id="Grupo_1107913" data-name="Grupo 1107913" transform="translate(0 0)">
            <g transform="matrix(1, 0, 0, 1, -9, -6)" filter="url(#Trazado_874925)">
              <g id="Trazado_874925-2" data-name="Trazado 874925" transform="translate(9 6)" fill="#fc0" opacity="0.859">
                <path d="M 49.99972534179688 98.4998779296875 C 43.45164108276367 98.4998779296875 37.10022354125977 97.21776580810547 31.12189674377441 94.68914794921875 C 25.34676742553711 92.24647521972656 20.15985298156738 88.74925994873047 15.70523929595947 84.29464721679688 C 11.25062561035156 79.84004974365234 7.753411293029785 74.65313720703125 5.310725212097168 68.87800598144531 C 2.782111167907715 62.89969253540039 1.499996781349182 56.54829406738281 1.499996781349182 50.00022125244141 C 1.499996781349182 43.45157623291016 2.782111167907715 37.10017776489258 5.310725212097168 31.12186431884766 C 7.753411293029785 25.34673500061035 11.25062561035156 20.15983581542969 15.70523929595947 15.70522117614746 C 20.15985298156738 11.25062084197998 25.34676742553711 7.753406524658203 31.12189674377441 5.31073522567749 C 37.10022354125977 2.782120943069458 43.45164108276367 1.500006556510925 49.99972534179688 1.500006556510925 C 56.54780960083008 1.500006556510925 62.89922714233398 2.782120943069458 68.87755584716797 5.31073522567749 C 74.65267944335938 7.753406524658203 79.839599609375 11.25062084197998 84.29421234130859 15.70522117614746 C 88.74882507324219 20.15983581542969 92.24604034423828 25.34673500061035 94.68872833251953 31.12186431884766 C 97.21733856201172 37.10017776489258 98.49945068359375 43.45157623291016 98.49945068359375 49.99964904785156 C 98.49945068359375 56.54829406738281 97.21733856201172 62.89969253540039 94.68872833251953 68.87800598144531 C 92.24604034423828 74.65313720703125 88.74882507324219 79.84004974365234 84.29421234130859 84.29464721679688 C 79.839599609375 88.74925994873047 74.65267944335938 92.24647521972656 68.87755584716797 94.68914794921875 C 62.89922714233398 97.21776580810547 56.54780960083008 98.4998779296875 49.99972534179688 98.4998779296875 Z" stroke="none"/>
                <path d="M 49.99972534179688 3 C 43.65348052978516 3 37.49866485595703 4.242240905761719 31.70623016357422 6.692230224609375 C 26.10989379882812 9.059272766113281 21.08323669433594 12.44853210449219 16.76589202880859 16.76587677001953 C 12.44855499267578 21.08321380615234 9.059295654296875 26.10985565185547 6.692230224609375 31.70618438720703 C 4.24224853515625 37.49859619140625 3 43.65341186523438 3 50.00022888183594 C 3 56.34645843505859 4.24224853515625 62.50127410888672 6.692230224609375 68.29368591308594 C 9.059295654296875 73.8900146484375 12.44855499267578 78.91665649414062 16.76589202880859 83.23399353027344 C 21.08323669433594 87.55132293701172 26.10989379882812 90.94059753417969 31.70623016357422 93.30764007568359 C 37.49866485595703 95.75762939453125 43.65348052978516 96.99987030029297 49.99972534179688 96.99987030029297 C 56.34597015380859 96.99987030029297 62.50078582763672 95.75762939453125 68.293212890625 93.30764007568359 C 73.88955688476562 90.94059753417969 78.91621398925781 87.55132293701172 83.23355865478516 83.23399353027344 C 87.55089569091797 78.91665649414062 90.94015502929688 73.8900146484375 93.30722045898438 68.29368591308594 C 95.7572021484375 62.50127410888672 96.99945068359375 56.34645843505859 96.99945068359375 49.99964141845703 C 96.99945068359375 43.65341186523438 95.7572021484375 37.49859619140625 93.30722045898438 31.70618438720703 C 90.94015502929688 26.10985565185547 87.55089569091797 21.08321380615234 83.23355865478516 16.76587677001953 C 78.91621398925781 12.44853210449219 73.88955688476562 9.059272766113281 68.293212890625 6.692230224609375 C 62.50078582763672 4.242240905761719 56.34597015380859 3 49.99972534179688 3 M 49.99972534179688 0 C 77.61381530761719 0 99.99945068359375 22.38559722900391 99.99945068359375 49.99964141845703 L 99.99945068359375 50.00022888183594 C 99.99945068359375 77.6142578125 77.61381530761719 99.99987030029297 49.99972534179688 99.99987030029297 C 22.38563537597656 99.99987030029297 0 77.6142578125 0 50.00022888183594 L 0 49.99964141845703 C 0 22.38559722900391 22.38563537597656 0 49.99972534179688 0 Z" stroke="none" fill="#fff"/>
              </g>
            </g>
            <g id="Trazado_874923" data-name="Trazado 874923" transform="translate(0 0)" fill="none">
              <path d="M50,0a50,50,0,0,1,50,50h0A50,50,0,0,1,0,50H0A50,50,0,0,1,50,0Z" stroke="none"/>
              <path d="M 49.99972534179688 3 C 43.65348052978516 3 37.49866485595703 4.242240905761719 31.70623016357422 6.692230224609375 C 26.10989379882812 9.059272766113281 21.08323669433594 12.44853210449219 16.76589202880859 16.76587677001953 C 12.44855499267578 21.08321380615234 9.059295654296875 26.10985565185547 6.692230224609375 31.70618438720703 C 4.24224853515625 37.49859619140625 3 43.65341186523438 3 50.00022888183594 C 3 56.34645843505859 4.24224853515625 62.50127410888672 6.692230224609375 68.29368591308594 C 9.059295654296875 73.8900146484375 12.44855499267578 78.91665649414062 16.76589202880859 83.23399353027344 C 21.08323669433594 87.55132293701172 26.10989379882812 90.94059753417969 31.70623016357422 93.30764007568359 C 37.49866485595703 95.75762939453125 43.65348052978516 96.99987030029297 49.99972534179688 96.99987030029297 C 56.34597015380859 96.99987030029297 62.50078582763672 95.75762939453125 68.293212890625 93.30764007568359 C 73.88955688476562 90.94059753417969 78.91621398925781 87.55132293701172 83.23355865478516 83.23399353027344 C 87.55089569091797 78.91665649414062 90.94015502929688 73.8900146484375 93.30722045898438 68.29368591308594 C 95.7572021484375 62.50127410888672 96.99945068359375 56.34645843505859 96.99945068359375 49.99964141845703 C 96.99945068359375 43.65341186523438 95.7572021484375 37.49859619140625 93.30722045898438 31.70618438720703 C 90.94015502929688 26.10985565185547 87.55089569091797 21.08321380615234 83.23355865478516 16.76587677001953 C 78.91621398925781 12.44853210449219 73.88955688476562 9.059272766113281 68.293212890625 6.692230224609375 C 62.50078582763672 4.242240905761719 56.34597015380859 3 49.99972534179688 3 M 49.99972534179688 0 C 77.61381530761719 0 99.99945068359375 22.38559722900391 99.99945068359375 49.99964141845703 L 99.99945068359375 50.00022888183594 C 99.99945068359375 77.6142578125 77.61381530761719 99.99987030029297 49.99972534179688 99.99987030029297 C 22.38563537597656 99.99987030029297 0 77.6142578125 0 50.00022888183594 L 0 49.99964141845703 C 0 22.38559722900391 22.38563537597656 0 49.99972534179688 0 Z" stroke="none" fill="#fff"/>
            </g>
          </g>
        </g>
      </g>
    </g>
    <g id="Grupo_1119260" data-name="Grupo 1119260" transform="translate(-1186 -10265)">
      <g id="Grupo_1119258" data-name="Grupo 1119258">
        <g id="Grupo_1119232" data-name="Grupo 1119232">
          <path id="Trazado_913915" data-name="Trazado 913915" d="M42,62H22a10,10,0,0,1,20,0Z" fill="#5cd6b3"/>
        </g>
        <g id="Grupo_1119233" data-name="Grupo 1119233">
          <path id="Trazado_913916" data-name="Trazado 913916" d="M22,62H2a10,10,0,0,1,20,0Z" fill="#fcd770"/>
        </g>
        <g id="Grupo_1119234" data-name="Grupo 1119234">
          <path id="Trazado_913917" data-name="Trazado 913917" d="M62,62H42a10,10,0,0,1,20,0Z" fill="#fcd770"/>
        </g>
        <g id="Grupo_1119235" data-name="Grupo 1119235">
          <path id="Trazado_913918" data-name="Trazado 913918" d="M12,29v7H2V30.34a5,5,0,0,1,4.29-4.95L9,25Z" fill="#ff826e"/>
        </g>
        <g id="Grupo_1119236" data-name="Grupo 1119236">
          <path id="Trazado_913919" data-name="Trazado 913919" d="M23,36H12V29l3-4,2.71.39a5.03,5.03,0,0,1,1.29.36v5.01a3.015,3.015,0,0,0,.88,2.12Z" fill="#ff826e"/>
        </g>
        <g id="Grupo_1119237" data-name="Grupo 1119237">
          <path id="Trazado_913920" data-name="Trazado 913920" d="M28,33l-4,4-1-1-3.12-3.12A3.015,3.015,0,0,1,19,30.76V25.43a6.007,6.007,0,0,1,5.4-5.97l1.72-.17L28,24l4-2,4,2,2-5h5V10h6V20.66a5,5,0,0,1-2.5,4.33,4.769,4.769,0,0,1-1.79.62L42,26V36H38V29a1,1,0,0,0-1-1H29a1,1,0,0,0-1,1Z" fill="#4fc1e9"/>
        </g>
        <g id="Grupo_1119238" data-name="Grupo 1119238">
          <path id="Trazado_913921" data-name="Trazado 913921" d="M31,37.17a2.831,2.831,0,0,0-.83-2L28,33V29a1,1,0,0,1,1-1h8a1,1,0,0,1,1,1V39a1,1,0,0,1-1,1H28.17A2.834,2.834,0,0,0,31,37.17Z" fill="#e6e9ed"/>
        </g>
        <g id="Grupo_1119239" data-name="Grupo 1119239">
          <path id="Trazado_913922" data-name="Trazado 913922" d="M32,22l-4,2-1.88-4.71L29,19Z" fill="#3bafda"/>
        </g>
        <g id="Grupo_1119240" data-name="Grupo 1119240">
          <path id="Trazado_913923" data-name="Trazado 913923" d="M38,19l-2,5-4-2,3-3Z" fill="#3bafda"/>
        </g>
        <g id="Grupo_1119241" data-name="Grupo 1119241">
          <path id="Trazado_913924" data-name="Trazado 913924" d="M48.5,29,52,36H42V26l2.71-.39a4.769,4.769,0,0,0,1.79-.62Z" fill="#ff826e"/>
        </g>
        <g id="Grupo_1119242" data-name="Grupo 1119242">
          <path id="Trazado_913925" data-name="Trazado 913925" d="M62,28.34V36H52l3.5-7,2.75-5.5a5,5,0,0,1,3.73,4.37Z" fill="#ff826e"/>
        </g>
        <g id="Grupo_1119243" data-name="Grupo 1119243">
          <path id="Trazado_913926" data-name="Trazado 913926" d="M55.5,29,52,36l-3.5-7Z" fill="#ccd1d9"/>
        </g>
        <g id="Grupo_1119244" data-name="Grupo 1119244">
          <path id="Trazado_913927" data-name="Trazado 913927" d="M19,13.66a5.663,5.663,0,0,1-1.66,4L17,18V16.64a2,2,0,0,0-1.61-1.96l-1.43-.29A2.44,2.44,0,0,1,12,12a2.44,2.44,0,0,1-1.96,2.39l-1.43.29A2,2,0,0,0,7,16.64V18l-.34-.34a5.657,5.657,0,0,1,4-9.66h2.68A5.668,5.668,0,0,1,19,13.66Z" fill="#b27946"/>
        </g>
        <g id="Grupo_1119245" data-name="Grupo 1119245">
          <path id="Trazado_913928" data-name="Trazado 913928" d="M30.03,6.24A4.009,4.009,0,0,0,27,10.12V12l-.34-.34a5.66,5.66,0,0,1,4-9.66H37a2.006,2.006,0,0,1,2,2V5.76A3.613,3.613,0,0,1,37,9l-1.26-.31A10.238,10.238,0,0,1,31,6Z" fill="#b27946"/>
        </g>
        <g id="Grupo_1119246" data-name="Grupo 1119246">
          <path id="Trazado_913929" data-name="Trazado 913929" d="M61.38,14.6l.6,13.27a5,5,0,0,0-3.73-4.37,4.294,4.294,0,0,0-.54-.11l-.87-.13a3,3,0,0,1-2.43-2.02l-.24-.72A4.993,4.993,0,0,0,57,16.01V14.56a1.992,1.992,0,0,0-1.51-1.94l-1.38-.34a6.788,6.788,0,0,1-2.06-.91l-.39-.26A6.429,6.429,0,0,0,49,10.08V7a3.052,3.052,0,0,0-.06-.6A9.032,9.032,0,0,1,51.61,6h.78a8.993,8.993,0,0,1,8.99,8.6Z" fill="#656d78"/>
        </g>
        <g id="Grupo_1119247" data-name="Grupo 1119247">
          <path id="Trazado_913930" data-name="Trazado 913930" d="M14,51.9a4.712,4.712,0,0,1-1,.1H11a4.712,4.712,0,0,1-1-.1A5,5,0,0,1,6,47V46a6,6,0,0,1,12,0v1A5,5,0,0,1,14,51.9Z" fill="#656d78"/>
        </g>
        <g id="Grupo_1119248" data-name="Grupo 1119248">
          <path id="Trazado_913931" data-name="Trazado 913931" d="M34,51.9a4.712,4.712,0,0,1-1,.1H31a4.712,4.712,0,0,1-1-.1A5,5,0,0,1,26,47V46a6,6,0,0,1,12,0v1A5,5,0,0,1,34,51.9Z" fill="#656d78"/>
        </g>
        <g id="Grupo_1119249" data-name="Grupo 1119249">
          <path id="Trazado_913932" data-name="Trazado 913932" d="M54,51.9a4.712,4.712,0,0,1-1,.1H51a4.712,4.712,0,0,1-1-.1A5,5,0,0,1,46,47V46a6,6,0,0,1,12,0v1A5,5,0,0,1,54,51.9Z" fill="#656d78"/>
        </g>
        <g id="Grupo_1119250" data-name="Grupo 1119250">
          <path id="Trazado_913933" data-name="Trazado 913933" d="M9.83,22.51,12,23a5.044,5.044,0,0,0,2.17-.49L15,25l-3,4L9,25Z" fill="#f0d0b4"/>
        </g>
        <g id="Grupo_1119251" data-name="Grupo 1119251">
          <path id="Trazado_913934" data-name="Trazado 913934" d="M17,18a4.985,4.985,0,0,1-5,5l-2.17-.49-1.37-.97A5.022,5.022,0,0,1,7,18V16.64a2,2,0,0,1,1.61-1.96l1.43-.29A2.44,2.44,0,0,0,12,12a2.44,2.44,0,0,0,1.96,2.39l1.43.29A2,2,0,0,1,17,16.64Z" fill="#f0d0b4"/>
        </g>
        <g id="Grupo_1119252" data-name="Grupo 1119252">
          <path id="Trazado_913935" data-name="Trazado 913935" d="M58.25,23.5,55.5,29h-7l-2-4.01A5,5,0,0,0,49,20.66v-.64a5.029,5.029,0,0,0,3,1,4.909,4.909,0,0,0,2.17-.5l.24.72a3,3,0,0,0,2.43,2.02l.87.13A4.294,4.294,0,0,1,58.25,23.5Z" fill="#f0d0b4"/>
        </g>
        <g id="Grupo_1119253" data-name="Grupo 1119253">
          <path id="Trazado_913936" data-name="Trazado 913936" d="M57,14.56v1.45a4.993,4.993,0,0,1-2.83,4.51,4.909,4.909,0,0,1-2.17.5,5.029,5.029,0,0,1-3-1V10.08a6.429,6.429,0,0,1,2.66,1.03l.39.26a6.788,6.788,0,0,0,2.06.91l1.38.34A1.992,1.992,0,0,1,57,14.56Z" fill="#f0d0b4"/>
        </g>
        <g id="Grupo_1119254" data-name="Grupo 1119254">
          <path id="Trazado_913937" data-name="Trazado 913937" d="M49,7v3H43V7a3,3,0,0,1,5.94-.6A3.052,3.052,0,0,1,49,7Z" fill="#f0d0b4"/>
        </g>
        <g id="Grupo_1119255" data-name="Grupo 1119255">
          <path id="Trazado_913938" data-name="Trazado 913938" d="M30.17,35.17a2.828,2.828,0,1,1-4,4L24,37l4-4Z" fill="#f0d0b4"/>
        </g>
        <g id="Grupo_1119256" data-name="Grupo 1119256">
          <path id="Trazado_913939" data-name="Trazado 913939" d="M29.83,16.51,32,17a5.044,5.044,0,0,0,2.17-.49L35,19l-3,3-3-3Z" fill="#f0d0b4"/>
        </g>
        <g id="Grupo_1119257" data-name="Grupo 1119257">
          <path id="Trazado_913940" data-name="Trazado 913940" d="M37,12a4.985,4.985,0,0,1-5,5l-2.17-.49-1.37-.97A5.022,5.022,0,0,1,27,12V10.12a4.009,4.009,0,0,1,3.03-3.88L31,6a10.238,10.238,0,0,0,4.74,2.69L37,9Z" fill="#f0d0b4"/>
        </g>
      </g>
      <g id="Grupo_1119259" data-name="Grupo 1119259">
        <path id="Trazado_913941" data-name="Trazado 913941" d="M39,39V37H63V28.336c0-.015,0-.03,0-.045h0l-.615-13.739A9.982,9.982,0,0,0,52.394,5h-.788a9.991,9.991,0,0,0-2.035.235A3.989,3.989,0,0,0,42,7V18H35.721l-.347-1.042A6,6,0,0,0,38,12V9.568a4.589,4.589,0,0,0,2-3.8V4a3,3,0,0,0-3-3H30.657A6.657,6.657,0,0,0,25.95,12.364l.072.072a6,6,0,0,0,2.6,4.522l-.37,1.111-3.953.4a6.97,6.97,0,0,0-6.227,5.981c-.076-.014-.15-.037-.227-.048l-2.1-.3-.38-1.14a6,6,0,0,0,2.6-4.521l.072-.072A6.657,6.657,0,0,0,13.343,7H10.656A6.657,6.657,0,0,0,5.95,18.364l.072.072a6,6,0,0,0,2.605,4.521l-.38,1.14-2.1.3A6.031,6.031,0,0,0,1,30.336V37H22.586l2.879,2.879a3.8,3.8,0,0,0,1.784,1A6.97,6.97,0,0,0,25,46v1a6,6,0,0,0,2.589,4.93A11.053,11.053,0,0,0,22,57.445a11.049,11.049,0,0,0-5.593-5.511A6,6,0,0,0,19,47V46A7,7,0,0,0,5,46v1a6,6,0,0,0,2.589,4.93A11.012,11.012,0,0,0,1,62v1H63V62a11.012,11.012,0,0,0-6.589-10.07A6,6,0,0,0,59,47V46a7,7,0,0,0-14,0v1a6,6,0,0,0,2.593,4.933A11.053,11.053,0,0,0,42,57.444a11.061,11.061,0,0,0-5.589-5.515A5.992,5.992,0,0,0,39,47V46a6.973,6.973,0,0,0-2.111-5H37A2,2,0,0,0,39,39ZM52,20.016a3.953,3.953,0,0,1-2-.547v-8.1a5.613,5.613,0,0,1,1.109.57l.384.256a7.578,7.578,0,0,0,2.374,1.05l1.375.344a1,1,0,0,1,.758.97v1.453a4.006,4.006,0,0,1-4,4Zm-2.089,1.613A5.975,5.975,0,0,0,52,22.016h0a5.927,5.927,0,0,0,1.563-.215,3.97,3.97,0,0,0,3.128,2.451l.058.008L54.882,28H49.118l-1.342-2.685a6.037,6.037,0,0,0,2.135-3.686ZM53.882,30,52,33.764,50.118,30ZM46.03,26.3,50.382,35H43V26.867l1.849-.264A5.869,5.869,0,0,0,46.03,26.3ZM53.618,35l5.124-10.247A4.013,4.013,0,0,1,61,28.315l0,.045V35ZM52.394,7a7.986,7.986,0,0,1,7.992,7.643l.406,9.057a5.96,5.96,0,0,0-2.943-1.3l-.872-.125a1.987,1.987,0,0,1-1.594-1.306A6,6,0,0,0,58,16.014V14.561a3,3,0,0,0-2.272-2.911l-1.375-.344a5.594,5.594,0,0,1-1.75-.774l-.384-.256A7.675,7.675,0,0,0,50,9.271V7.182A8,8,0,0,1,51.606,7ZM46,5a2,2,0,0,1,2,2V9H44V7A2,2,0,0,1,46,5ZM36.523,20l-1.048,2.62-1.787-.894L35.414,20ZM26.178,8.864A4.6,4.6,0,0,1,30.657,3H37a1,1,0,0,1,1,1V5.764a2.583,2.583,0,0,1-1.182,2.159l-.831-.208a9.2,9.2,0,0,1-4.279-2.423l-.4-.4-1.519.38A4.979,4.979,0,0,0,26.178,8.864ZM28,10.123a3,3,0,0,1,2.272-2.91L30.71,7.1A11.209,11.209,0,0,0,35.5,9.657l.5.124V12a4,4,0,1,1-8,0ZM32,18a6,6,0,0,0,1.543-.208l.313.939L32,20.586,30.144,18.73l.313-.938A6,6,0,0,0,32,18Zm-3.372,2.042,1.684,1.684-1.787.894-.988-2.468ZM20,25.43a4.985,4.985,0,0,1,4.5-4.975l.963-.1,2.009,5.022L32,23.118l4.525,2.262L38.677,20H44V11h4v9.664a4.02,4.02,0,0,1-3.435,3.96L41,25.133V35H39V29a2,2,0,0,0-2-2H29a2,2,0,0,0-2,2v1.586l-2.293-2.293-1.414,1.414L26.586,33,24,35.586l-3.414-3.414A1.987,1.987,0,0,1,20,30.757ZM6.317,15.324A4.639,4.639,0,0,1,10.657,9h2.687a4.639,4.639,0,0,1,4.339,6.324,3,3,0,0,0-2.1-1.626l-1.431-.286A1.445,1.445,0,0,1,13,12V11H11v1a1.445,1.445,0,0,1-1.157,1.412L8.412,13.7a2.994,2.994,0,0,0-2.1,1.626ZM8,16.64a1,1,0,0,1,.8-.981l1.431-.286A3.428,3.428,0,0,0,12,14.421a3.424,3.424,0,0,0,1.765.952l1.431.286a1,1,0,0,1,.8.981V18a4,4,0,1,1-8,0ZM12,24h0a5.944,5.944,0,0,0,1.541-.209l.343,1.028L12,27.333l-1.886-2.514.343-1.028A5.944,5.944,0,0,0,12,24ZM3,30.336a4.02,4.02,0,0,1,3.435-3.96l2.121-.3L11,29.333V35H3ZM13,35V29.333l2.445-3.26,2.121.3a3.984,3.984,0,0,1,.434.092v4.289a3.975,3.975,0,0,0,1.172,2.829L20.586,35Zm12.414,2L28,34.414l1.465,1.465A1.829,1.829,0,0,1,28.171,39a1.818,1.818,0,0,1-1.293-.535ZM7,46a5,5,0,0,1,10,0v1a3.987,3.987,0,0,1-2,3.444V47H13v4H11V47H9v3.444A3.987,3.987,0,0,1,7,47ZM3.055,61a9,9,0,0,1,17.89,0ZM47,46a5,5,0,0,1,10,0v1a3.987,3.987,0,0,1-2,3.444V47H53v4H51V47H49v3.444A3.987,3.987,0,0,1,47,47Zm5,7a9.013,9.013,0,0,1,8.945,8H43.055A9.013,9.013,0,0,1,52,53ZM40.941,61H23.059a9,9,0,0,1,17.882,0ZM37,46v1a3.987,3.987,0,0,1-2,3.444V47H33v4H31V47H29v3.444A3.987,3.987,0,0,1,27,47V46a5,5,0,0,1,10,0Zm-5.486-7A3.78,3.78,0,0,0,32,37.172c0-.058-.014-.114-.017-.172H35V35H31.319a3.921,3.921,0,0,0-.44-.535L29,32.586V29h8V39Z"/>
        <path id="Trazado_913942" data-name="Trazado 913942" d="M31,31h4v2H31Z"/>
      </g>
    </g>
  </g>
</svg>
