<svg xmlns="http://www.w3.org/2000/svg" xmlns:xlink="http://www.w3.org/1999/xlink" width="117.999" height="118" viewBox="0 0 117.999 118">
  <defs>
    <filter id="Trazado_874925" x="0" y="0" width="117.999" height="118" filterUnits="userSpaceOnUse">
      <feOffset dy="3" input="SourceAlpha"/>
      <feGaussianBlur stdDeviation="3" result="blur"/>
      <feFlood flood-opacity="0.161"/>
      <feComposite operator="in" in2="blur"/>
      <feComposite in="SourceGraphic"/>
    </filter>
  </defs>
  <g id="Grupo_1119263" data-name="Grupo 1119263" transform="translate(898.999 10285.72)">
    <g id="Grupo_1111553" data-name="Grupo 1111553" transform="translate(-1698.5 -12796.877)">
      <g id="Grupo_1111316" data-name="Grupo 1111316" transform="translate(808.5 2517.157)">
        <g id="Grupo_1109835" data-name="Grupo 1109835" transform="translate(0 0)">
          <g id="Grupo_1107913" data-name="Grupo 1107913" transform="translate(0 0)">
            <g transform="matrix(1, 0, 0, 1, -9, -6)" filter="url(#Trazado_874925)">
              <g id="Trazado_874925-2" data-name="Trazado 874925" transform="translate(9 6)" fill="#fc0" opacity="0.859">
                <path d="M 49.99972534179688 98.4998779296875 C 43.45164108276367 98.4998779296875 37.10022354125977 97.21776580810547 31.12189674377441 94.68914794921875 C 25.34676742553711 92.24647521972656 20.15985298156738 88.74925994873047 15.70523929595947 84.29464721679688 C 11.25062561035156 79.84004974365234 7.753411293029785 74.65313720703125 5.310725212097168 68.87800598144531 C 2.782111167907715 62.89969253540039 1.499996781349182 56.54829406738281 1.499996781349182 50.00022125244141 C 1.499996781349182 43.45157623291016 2.782111167907715 37.10017776489258 5.310725212097168 31.12186431884766 C 7.753411293029785 25.34673500061035 11.25062561035156 20.15983581542969 15.70523929595947 15.70522117614746 C 20.15985298156738 11.25062084197998 25.34676742553711 7.753406524658203 31.12189674377441 5.31073522567749 C 37.10022354125977 2.782120943069458 43.45164108276367 1.500006556510925 49.99972534179688 1.500006556510925 C 56.54780960083008 1.500006556510925 62.89922714233398 2.782120943069458 68.87755584716797 5.31073522567749 C 74.65267944335938 7.753406524658203 79.839599609375 11.25062084197998 84.29421234130859 15.70522117614746 C 88.74882507324219 20.15983581542969 92.24604034423828 25.34673500061035 94.68872833251953 31.12186431884766 C 97.21733856201172 37.10017776489258 98.49945068359375 43.45157623291016 98.49945068359375 49.99964904785156 C 98.49945068359375 56.54829406738281 97.21733856201172 62.89969253540039 94.68872833251953 68.87800598144531 C 92.24604034423828 74.65313720703125 88.74882507324219 79.84004974365234 84.29421234130859 84.29464721679688 C 79.839599609375 88.74925994873047 74.65267944335938 92.24647521972656 68.87755584716797 94.68914794921875 C 62.89922714233398 97.21776580810547 56.54780960083008 98.4998779296875 49.99972534179688 98.4998779296875 Z" stroke="none"/>
                <path d="M 49.99972534179688 3 C 43.65348052978516 3 37.49866485595703 4.242240905761719 31.70623016357422 6.692230224609375 C 26.10989379882812 9.059272766113281 21.08323669433594 12.44853210449219 16.76589202880859 16.76587677001953 C 12.44855499267578 21.08321380615234 9.059295654296875 26.10985565185547 6.692230224609375 31.70618438720703 C 4.24224853515625 37.49859619140625 3 43.65341186523438 3 50.00022888183594 C 3 56.34645843505859 4.24224853515625 62.50127410888672 6.692230224609375 68.29368591308594 C 9.059295654296875 73.8900146484375 12.44855499267578 78.91665649414062 16.76589202880859 83.23399353027344 C 21.08323669433594 87.55132293701172 26.10989379882812 90.94059753417969 31.70623016357422 93.30764007568359 C 37.49866485595703 95.75762939453125 43.65348052978516 96.99987030029297 49.99972534179688 96.99987030029297 C 56.34597015380859 96.99987030029297 62.50078582763672 95.75762939453125 68.293212890625 93.30764007568359 C 73.88955688476562 90.94059753417969 78.91621398925781 87.55132293701172 83.23355865478516 83.23399353027344 C 87.55089569091797 78.91665649414062 90.94015502929688 73.8900146484375 93.30722045898438 68.29368591308594 C 95.7572021484375 62.50127410888672 96.99945068359375 56.34645843505859 96.99945068359375 49.99964141845703 C 96.99945068359375 43.65341186523438 95.7572021484375 37.49859619140625 93.30722045898438 31.70618438720703 C 90.94015502929688 26.10985565185547 87.55089569091797 21.08321380615234 83.23355865478516 16.76587677001953 C 78.91621398925781 12.44853210449219 73.88955688476562 9.059272766113281 68.293212890625 6.692230224609375 C 62.50078582763672 4.242240905761719 56.34597015380859 3 49.99972534179688 3 M 49.99972534179688 0 C 77.61381530761719 0 99.99945068359375 22.38559722900391 99.99945068359375 49.99964141845703 L 99.99945068359375 50.00022888183594 C 99.99945068359375 77.6142578125 77.61381530761719 99.99987030029297 49.99972534179688 99.99987030029297 C 22.38563537597656 99.99987030029297 0 77.6142578125 0 50.00022888183594 L 0 49.99964141845703 C 0 22.38559722900391 22.38563537597656 0 49.99972534179688 0 Z" stroke="none" fill="#fff"/>
              </g>
            </g>
            <g id="Trazado_874923" data-name="Trazado 874923" transform="translate(0 0)" fill="none">
              <path d="M50,0a50,50,0,0,1,50,50h0A50,50,0,0,1,0,50H0A50,50,0,0,1,50,0Z" stroke="none"/>
              <path d="M 49.99972534179688 3 C 43.65348052978516 3 37.49866485595703 4.242240905761719 31.70623016357422 6.692230224609375 C 26.10989379882812 9.059272766113281 21.08323669433594 12.44853210449219 16.76589202880859 16.76587677001953 C 12.44855499267578 21.08321380615234 9.059295654296875 26.10985565185547 6.692230224609375 31.70618438720703 C 4.24224853515625 37.49859619140625 3 43.65341186523438 3 50.00022888183594 C 3 56.34645843505859 4.24224853515625 62.50127410888672 6.692230224609375 68.29368591308594 C 9.059295654296875 73.8900146484375 12.44855499267578 78.91665649414062 16.76589202880859 83.23399353027344 C 21.08323669433594 87.55132293701172 26.10989379882812 90.94059753417969 31.70623016357422 93.30764007568359 C 37.49866485595703 95.75762939453125 43.65348052978516 96.99987030029297 49.99972534179688 96.99987030029297 C 56.34597015380859 96.99987030029297 62.50078582763672 95.75762939453125 68.293212890625 93.30764007568359 C 73.88955688476562 90.94059753417969 78.91621398925781 87.55132293701172 83.23355865478516 83.23399353027344 C 87.55089569091797 78.91665649414062 90.94015502929688 73.8900146484375 93.30722045898438 68.29368591308594 C 95.7572021484375 62.50127410888672 96.99945068359375 56.34645843505859 96.99945068359375 49.99964141845703 C 96.99945068359375 43.65341186523438 95.7572021484375 37.49859619140625 93.30722045898438 31.70618438720703 C 90.94015502929688 26.10985565185547 87.55089569091797 21.08321380615234 83.23355865478516 16.76587677001953 C 78.91621398925781 12.44853210449219 73.88955688476562 9.059272766113281 68.293212890625 6.692230224609375 C 62.50078582763672 4.242240905761719 56.34597015380859 3 49.99972534179688 3 M 49.99972534179688 0 C 77.61381530761719 0 99.99945068359375 22.38559722900391 99.99945068359375 49.99964141845703 L 99.99945068359375 50.00022888183594 C 99.99945068359375 77.6142578125 77.61381530761719 99.99987030029297 49.99972534179688 99.99987030029297 C 22.38563537597656 99.99987030029297 0 77.6142578125 0 50.00022888183594 L 0 49.99964141845703 C 0 22.38559722900391 22.38563537597656 0 49.99972534179688 0 Z" stroke="none" fill="#fff"/>
            </g>
          </g>
        </g>
      </g>
    </g>
    <g id="Grupo_1119262" data-name="Grupo 1119262" transform="translate(-871.388 -10271.424)">
      <g id="Grupo_1119261" data-name="Grupo 1119261" transform="translate(0.928 9.095)">
        <path id="Trazado_913943" data-name="Trazado 913943" d="M189.177,324.372h7.991c2.607.781,4.866,2.309,4.866,4.067v10.436H184.311V328.439C184.311,326.681,186.567,325.153,189.177,324.372Z" transform="translate(-162.461 -286.222)" fill="#ebd2ff" fill-rule="evenodd"/>
        <path id="Trazado_913944" data-name="Trazado 913944" d="M268.945,328.439v10.436h3V328.439c0-1.759-2.26-3.286-4.866-4.067h-3C266.685,325.153,268.945,326.681,268.945,328.439Z" transform="translate(-232.371 -286.222)" fill="#d7bef0" fill-rule="evenodd"/>
        <path id="Trazado_913945" data-name="Trazado 913945" d="M94.281,432.6H99l3.861-.539,3.829.539h15.152l3.766-.739,3.92.739h4.726v7.231H94.281Z" transform="translate(-83.558 -380.427)" fill="#d09080" fill-rule="evenodd"/>
        <path id="Trazado_913946" data-name="Trazado 913946" d="M7.512,352.223V336.844a3.451,3.451,0,0,1,3.44-3.44h5.682c.1,0,.2,0,.291.01a2.644,2.644,0,0,1,2.361,1.033l4.624,6.124a1.05,1.05,0,0,0,.946.469h5.791a2.634,2.634,0,1,1,0,5.269h-7.69a2.627,2.627,0,0,1-2.1-1.047l-.785-1.037v9.315H8.826a1.624,1.624,0,0,1-1.314-1.317Z" transform="translate(-7.512 -294.136)" fill="#ff6978" fill-rule="evenodd"/>
        <path id="Trazado_913947" data-name="Trazado 913947" d="M321.744,352.223V336.844a3.451,3.451,0,0,0-3.444-3.44h-5.679q-.147,0-.294.01a2.644,2.644,0,0,0-2.361,1.033l-4.621,6.124a1.065,1.065,0,0,1-.946.469h-5.791a2.634,2.634,0,1,0,0,5.269h7.686a2.634,2.634,0,0,0,2.1-1.047l.781-1.037v9.315h11.249A1.633,1.633,0,0,0,321.744,352.223Z" transform="translate(-260.322 -294.136)" fill="#ccf49f" fill-rule="evenodd"/>
        <path id="Trazado_913948" data-name="Trazado 913948" d="M203.722,91.033h15.092l3.818,3.819c.3.3.652.126.652-.273V91.033a3.548,3.548,0,0,0,3.535-3.538V78.569a3.545,3.545,0,0,0-3.535-3.535H203.722a3.548,3.548,0,0,0-3.538,3.535v8.926A3.551,3.551,0,0,0,203.722,91.033Z" transform="translate(-176.373 -67.699)" fill="#ecf4ff" fill-rule="evenodd"/>
        <path id="Trazado_913949" data-name="Trazado 913949" d="M20.786,35.448H36.663a4.708,4.708,0,0,0,4.694-4.694V20.37a4.707,4.707,0,0,0-4.694-4.691H16.316a4.707,4.707,0,0,0-4.694,4.691V30.753a4.708,4.708,0,0,0,4.694,4.694V39a.366.366,0,0,0,.652.27Z" transform="translate(-11.114 -15.679)" fill="#ecf4ff" fill-rule="evenodd"/>
        <path id="Trazado_913950" data-name="Trazado 913950" d="M225.526,244.913a5,5,0,0,1-10.005,0v-5.36a2.808,2.808,0,0,1,2.8-2.8h6.456a.67.67,0,0,1,.746.743Z" transform="translate(-189.814 -209.432)" fill="#ffcbbe" fill-rule="evenodd"/>
        <path id="Trazado_913951" data-name="Trazado 913951" d="M215.521,239.551v1.615h10.005v-3.671a.67.67,0,0,0-.746-.743h-6.456A2.808,2.808,0,0,0,215.521,239.551Z" transform="translate(-189.814 -209.431)" fill="#ffe5a0" fill-rule="evenodd"/>
        <path id="Trazado_913952" data-name="Trazado 913952" d="M17.858,244.913a5,5,0,0,0,10.005,0v-5.36a2.808,2.808,0,0,0-2.8-2.8h-4.4a2.807,2.807,0,0,0-2.8,2.8v5.36Z" transform="translate(-16.579 -209.432)" fill="#ffcbbe" fill-rule="evenodd"/>
        <path id="Trazado_913953" data-name="Trazado 913953" d="M423.215,244.913a5,5,0,1,1-10,0v-5.36a2.8,2.8,0,0,1,2.8-2.8h4.4a2.8,2.8,0,0,1,2.8,2.8Z" transform="translate(-363.074 -209.432)" fill="#c68b87" fill-rule="evenodd"/>
        <path id="Trazado_913954" data-name="Trazado 913954" d="M448.032,264.762a5.016,5.016,0,0,1-5,5,5.089,5.089,0,0,1-1.5-.231,5.028,5.028,0,0,0,3.479-4.284,6.694,6.694,0,0,0,3.02-.312l0-5.535Z" transform="translate(-387.892 -229.281)" fill="#bd7d79" fill-rule="evenodd"/>
        <path id="Trazado_913955" data-name="Trazado 913955" d="M27.863,239.552V241.5a3.755,3.755,0,0,1-3.244-.291c-.525-.3-.617-.3-.68.182-.182,1.4-.816,5.283-6.075,3.7l-.007-5.535a2.807,2.807,0,0,1,2.8-2.8h4.4A2.808,2.808,0,0,1,27.863,239.552Z" transform="translate(-16.579 -209.432)" fill="#c68b87" fill-rule="evenodd"/>
        <path id="Trazado_913956" data-name="Trazado 913956" d="M413.212,239.552V241.5a3.748,3.748,0,0,0,3.24-.291c.529-.3.617-.3.68.182.182,1.4.816,5.283,6.078,3.7l0-5.535a2.8,2.8,0,0,0-2.8-2.8h-4.4A2.8,2.8,0,0,0,413.212,239.552Z" transform="translate(-363.073 -209.432)" fill="#477b9e" fill-rule="evenodd"/>
        <path id="Trazado_913957" data-name="Trazado 913957" d="M450.027,239.551v5.36a4.541,4.541,0,0,1-.024.487,6.694,6.694,0,0,0,3.02-.312l0-5.535a2.806,2.806,0,0,0-2.6-2.792,1.826,1.826,0,0,0-.2-.007h-3A2.805,2.805,0,0,1,450.027,239.551Z" transform="translate(-392.886 -209.431)" fill="#365e7d" fill-rule="evenodd"/>
        <path id="Trazado_913958" data-name="Trazado 913958" d="M49.709,277.432a5.024,5.024,0,0,1-3.5,4.771,5,5,0,0,0,6.5-4.771V274.02a3.7,3.7,0,0,1-3-.161v3.573Z" transform="translate(-41.424 -241.952)" fill="#f7beaf" fill-rule="evenodd"/>
        <path id="Trazado_913959" data-name="Trazado 913959" d="M51.875,236.753a2.808,2.808,0,0,1,2.8,2.8v1.787a3.7,3.7,0,0,0,3,.161v-1.948a2.808,2.808,0,0,0-2.8-2.8Z" transform="translate(-46.392 -209.432)" fill="#bd7d79" fill-rule="evenodd"/>
        <path id="Trazado_913960" data-name="Trazado 913960" d="M247.371,276.215a5.024,5.024,0,0,1-3.5,4.771,5,5,0,0,0,6.5-4.771V272.47h-3v3.745Z" transform="translate(-214.658 -240.734)" fill="#f7beaf" fill-rule="evenodd"/>
        <path id="Trazado_913961" data-name="Trazado 913961" d="M266.923,237.5v3.671h3V237.5a.67.67,0,0,0-.746-.743h-3A.67.67,0,0,1,266.923,237.5Z" transform="translate(-234.21 -209.432)" fill="#f2ce7e" fill-rule="evenodd"/>
        <path id="Trazado_913962" data-name="Trazado 913962" d="M85.264,392.136a.2.2,0,0,0-.364.123V404.94h3v-9.315Z" transform="translate(-75.336 -345.536)" fill="#cf4351" fill-rule="evenodd"/>
        <path id="Trazado_913963" data-name="Trazado 913963" d="M470.91,337v15.379a1.633,1.633,0,0,1-1.317,1.317h3a1.633,1.633,0,0,0,1.317-1.317V337a3.457,3.457,0,0,0-3.051-3.419,4.963,4.963,0,0,1-1.209.764A3.44,3.44,0,0,1,470.91,337Z" transform="translate(-412.487 -294.296)" fill="#b3e59f" fill-rule="evenodd"/>
        <path id="Trazado_913964" data-name="Trazado 913964" d="M200.5,88.245a3.549,3.549,0,0,0,3.5,3.037h15.092l3.818,3.819c.3.3.652.126.652-.273V91.282a3.548,3.548,0,0,0,3.535-3.538V78.818a3.547,3.547,0,0,0-3.034-3.5,3.384,3.384,0,0,1,.035.5v8.926a3.545,3.545,0,0,1-3.535,3.535H201A3.364,3.364,0,0,1,200.5,88.245Z" transform="translate(-176.647 -67.947)" fill="#ddeafb" fill-rule="evenodd"/>
        <path id="Trazado_913965" data-name="Trazado 913965" d="M40.024,29.394a4.705,4.705,0,0,1-4.694,4.694H14.983a4.673,4.673,0,0,1-1.461-.235,4.712,4.712,0,0,0,4.46,3.233v3.549a.366.366,0,0,0,.652.27l3.818-3.819H38.329a4.708,4.708,0,0,0,4.694-4.694V22.01a4.718,4.718,0,0,0-3.233-4.46,4.707,4.707,0,0,1,.235,1.461V29.394Z" transform="translate(-12.779 -17.319)" fill="#ddeafb" fill-rule="evenodd"/>
        <path id="Trazado_913966" data-name="Trazado 913966" d="M378.571,437.843h3v7.231h-3Z" transform="translate(-332.714 -385.67)" fill="#be694f" fill-rule="evenodd"/>
      </g>
      <path id="Trazado_913967" data-name="Trazado 913967" d="M3.384,45.974a4.075,4.075,0,0,0,7.9-1.4V42.309a4.668,4.668,0,0,1-2.2-.357,7.583,7.583,0,0,1-.189.75,4.876,4.876,0,0,1-1.548,2.428,4.521,4.521,0,0,1-3.191.925,6.98,6.98,0,0,1-.771-.081ZM27.4,39.9h8.148V37.342H29.27A1.884,1.884,0,0,0,27.4,39.216Zm8.148,1.853H27.4v2.82a4.074,4.074,0,0,0,8.148,0v-2.82Zm25.4,6.187a4.414,4.414,0,0,1,1.3,1.044A4.342,4.342,0,0,1,63.276,51.8v6.25a.927.927,0,0,1-1.853,0V51.8a2.5,2.5,0,0,0-.6-1.622,2.545,2.545,0,0,0-1.282-.813,5.9,5.9,0,0,1-7.056-.074,1.774,1.774,0,0,0-.546.154,1.7,1.7,0,0,0-.631.515l-4.978,6.593a.931.931,0,0,1-.739.371H39.215a1.708,1.708,0,1,0,0,3.416h7.619a1.666,1.666,0,0,0,.83-.179,5.49,5.49,0,0,0,1.412-1.58l3.3-4.361a.924.924,0,1,1,1.475,1.114l-3.135,4.155v8.078H61.422V62.249a.927.927,0,0,1,1.853,0V68.5a.924.924,0,0,1-.925.925H.928A.927.927,0,0,1,0,68.5v-6.25a.927.927,0,0,1,1.853,0v5.321H12.566V59.492L9.427,55.338a.926.926,0,0,1,1.478-1.114l3.223,4.267c.294.389.589.781.883,1.173a1.705,1.705,0,0,0,.6.5,1.621,1.621,0,0,0,.774.179h7.675a1.708,1.708,0,1,0,0-3.416H17.681a.925.925,0,0,1-.739-.371l-4.978-6.593a1.714,1.714,0,0,0-1.177-.669,5.9,5.9,0,0,1-7.055.077,2.54,2.54,0,0,0-1.268.792,2.509,2.509,0,0,0-.61,1.639v6.25a.927.927,0,0,1-1.853,0V51.8a4.355,4.355,0,0,1,1.065-2.848,4.461,4.461,0,0,1,1.272-1.012,5.878,5.878,0,0,1-1.054-3.367v-5.36a3.732,3.732,0,0,1,3.724-3.727h4.4a3.732,3.732,0,0,1,3.727,3.727v5.36a5.888,5.888,0,0,1-.96,3.226,3.589,3.589,0,0,1,1.265,1.048l4.7,6.222h3.71V51.313a3.866,3.866,0,0,1,1.478-2.845A9.739,9.739,0,0,1,26,46.853a5.885,5.885,0,0,1-.456-2.277v-5.36a3.732,3.732,0,0,1,3.728-3.727h7.2a.93.93,0,0,1,.928.928v8.159a5.926,5.926,0,0,1-.41,2.162,10.086,10.086,0,0,1,2.866,1.646,3.927,3.927,0,0,1,1.569,2.929v3.759h3.71l4.7-6.222A3.548,3.548,0,0,1,51.1,47.806a5.883,5.883,0,0,1-.963-3.23v-5.36a3.732,3.732,0,0,1,3.727-3.727h4.4A3.732,3.732,0,0,1,62,39.216v5.36a5.9,5.9,0,0,1-1.054,3.367Zm-1.051-1.969a6.9,6.9,0,0,1-.771.081,4.518,4.518,0,0,1-3.188-.925A4.857,4.857,0,0,1,54.381,42.7a7.57,7.57,0,0,1-.186-.75,4.686,4.686,0,0,1-2.2.357v2.267a4.075,4.075,0,0,0,7.9,1.4Zm-7.9-5.521a3.021,3.021,0,0,0,2.3-.683.936.936,0,0,1,.6-.259.922.922,0,0,1,.967.879,7.379,7.379,0,0,0,.287,1.769,3.069,3.069,0,0,0,.939,1.531,2.78,2.78,0,0,0,1.944.518,6.672,6.672,0,0,0,1.111-.161V39.216a1.89,1.89,0,0,0-1.874-1.874h-4.4a1.89,1.89,0,0,0-1.874,1.874Zm-40.708,0V39.216A1.884,1.884,0,0,0,9.41,37.341h-4.4a1.884,1.884,0,0,0-1.871,1.874v4.831a6.6,6.6,0,0,0,1.107.161,2.78,2.78,0,0,0,1.944-.518,3.1,3.1,0,0,0,.942-1.531,7.209,7.209,0,0,0,.284-1.769.927.927,0,0,1,1.562-.627A3.023,3.023,0,0,0,11.284,40.452Zm15.7,7.994a8.053,8.053,0,0,0-2.431,1.4,2.115,2.115,0,0,0-.855,1.468v3.759h.361a3.562,3.562,0,0,1,3.125,5.272h8.9a3.565,3.565,0,0,1,3.128-5.272h.357V51.313a2.183,2.183,0,0,0-.918-1.524,8.619,8.619,0,0,0-2.621-1.44c-.119.144-.245.284-.375.413a5.907,5.907,0,0,1-8.376,0q-.153-.153-.294-.315ZM7.725,15.03a.927.927,0,0,1,0-1.853H24.884a.927.927,0,0,1,0,1.853Zm0,9.753a.928.928,0,0,1,0-1.857H16.3a.928.928,0,0,1,0,1.857Zm0-4.876a.927.927,0,0,1,0-1.853H24.884a.927.927,0,0,1,0,1.853Zm18.108,9.882a2.562,2.562,0,0,0,.6.946,2.59,2.59,0,0,0,1.846.767h5.448a.927.927,0,0,1,0,1.853H28.278a4.427,4.427,0,0,1-3.156-1.317,4.5,4.5,0,0,1-1.212-2.249H10.986l-4.2,4.2A.929.929,0,0,1,5.2,33.334V29.712A5.639,5.639,0,0,1,.512,24.169V13.786A5.634,5.634,0,0,1,6.131,8.167H26.478A5.634,5.634,0,0,1,32.1,13.786V15.5H47.841A4.474,4.474,0,0,1,52.3,19.966v8.926a4.476,4.476,0,0,1-3.538,4.365V36.9a.925.925,0,0,1-1.58.655l-4.2-4.2H37.923a.927.927,0,1,1,0-1.853H43.37a.915.915,0,0,1,.659.277l2.883,2.883V32.43a.928.928,0,0,1,.928-.928,2.62,2.62,0,0,0,2.61-2.61V19.966a2.62,2.62,0,0,0-2.61-2.61H32.1V24.17a5.634,5.634,0,0,1-5.619,5.619h-.645ZM10.6,27.936H26.478a3.779,3.779,0,0,0,3.766-3.766V13.786a3.78,3.78,0,0,0-3.766-3.766H6.131a3.78,3.78,0,0,0-3.766,3.766V24.17a3.78,3.78,0,0,0,3.766,3.766.927.927,0,0,1,.925.928V31.1l2.89-2.887a.92.92,0,0,1,.655-.273ZM48.86,62.2H14.419v5.374H48.86V62.2Z"/>
    </g>
  </g>
</svg>
