<svg xmlns="http://www.w3.org/2000/svg" xmlns:xlink="http://www.w3.org/1999/xlink" width="264" height="209.681" viewBox="0 0 264 209.681">
  <defs>
    <clipPath id="clip-path">
      <rect id="Rectángulo_404642" data-name="Rectángulo 404642" width="264" height="185" rx="8" transform="translate(285.051 3715.164)" fill="#9cc8ff"/>
    </clipPath>
    <clipPath id="clip-path-2">
      <rect id="Rectángulo_405162" data-name="Rectángulo 405162" width="323.977" height="187.66" fill="none"/>
    </clipPath>
  </defs>
  <g id="Grupo_1119494" data-name="Grupo 1119494" transform="translate(-631.051 -2065)">
    <rect id="persona-que-trabaja-en-la-cosecha-de-cafe" width="263.578" height="209.681" rx="8" transform="translate(631.051 2065)" fill="#9cc8ff"/>
    <g id="Enmascarar_grupo_1098789" data-name="Enmascarar grupo 1098789" transform="translate(346 -1626.164)" clip-path="url(#clip-path)">
      <g id="Grupo_1119493" data-name="Grupo 1119493" transform="translate(261.652 3715)">
        <g id="Grupo_1119371" data-name="Grupo 1119371" transform="translate(0 2.715)">
          <g id="Grupo_1119370" data-name="Grupo 1119370" transform="translate(0 0)" clip-path="url(#clip-path-2)">
            <g id="Grupo_1119368" data-name="Grupo 1119368" transform="translate(-7.516 22.37)">
              <g id="Grupo_1119367" data-name="Grupo 1119367">
                <g id="Grupo_1119366" data-name="Grupo 1119366" transform="translate(0 13.528)">
                  <path id="Trazado_917147" data-name="Trazado 917147" d="M-18.037,189.547c14.144-24.087,32.544-35.756,45.8-41.8,78.1-35.628,222.124,12.323,259.843,87.134a96.112,96.112,0,0,1,9.78,52.636L-18.037,233.937Z" transform="translate(18.037 -135.734)" fill="#75a335"/>
                </g>
                <path id="Trazado_917148" data-name="Trazado 917148" d="M302.444,125.13c-4.287-5.831-3.713-21.724,6.39-21.863,6.518,1.34,9.581,8.768,8.365,14.68,4.687-8.837,17.706-2.268,9.5,4.095" transform="translate(-167.435 -103.267)" fill="#75a335"/>
                <path id="Trazado_917149" data-name="Trazado 917149" d="M34.056,153.884a12.1,12.1,0,0,1-9.843-5.948,9.9,9.9,0,0,1,.6-10.271c1.819-2.583,5.889-3.365,8.281-.935C32.127,121.47,55.422,114,54.031,132.02c7.082-4.743,16.064,3,11.151,9.6" transform="translate(-5.935 -113.898)" fill="#75a335"/>
                <path id="Trazado_917150" data-name="Trazado 917150" d="M598.32,232.754a12.778,12.778,0,0,1-1.465-6.236,7.809,7.809,0,0,1,2.85-5.709,6.953,6.953,0,0,1,6.642-1.082,4.639,4.639,0,0,1,.934-5.578,7.773,7.773,0,0,1,6.06-1.935,11.323,11.323,0,0,1,5.945,2.5,12.689,12.689,0,0,1,4.485,6.882c1.112,4.618-.686,9.423-3.213,13.561a6.008,6.008,0,0,1,5.449,1.1,6.778,6.778,0,0,1,2.4,4.689,7.61,7.61,0,0,1-1.884,5.725,8.067,8.067,0,0,1-5.881,2.618l.533-.294" transform="translate(-340.638 -166.799)" fill="#75a335"/>
              </g>
            </g>
            <g id="Grupo_1119369" data-name="Grupo 1119369" transform="translate(-7.516 90.443)">
              <path id="Trazado_917151" data-name="Trazado 917151" d="M217.014,266.682a431.188,431.188,0,0,0-70.113,6.569c18.066,11.421,31.674,28.723,40.729,47.534,8.61,17.886,13.411,37.165,16.777,56.605q32.279-.039,64.558-.084C268.886,335.753,249.474,294.561,217.014,266.682Z" transform="translate(-78.176 -266.664)" fill="#8fc741"/>
              <path id="Trazado_917152" data-name="Trazado 917152" d="M80.957,282.448a460.912,460.912,0,0,0-47.1,10.833,91.152,91.152,0,0,1,34.8,41.128c7.03,16.439,9.251,34.519,7.546,52.216q31.133,0,62.266-.038c-3.366-19.44-8.167-38.72-16.777-56.605C112.631,311.171,99.023,293.869,80.957,282.448Z" transform="translate(-12.232 -275.861)" fill="#7ead39"/>
              <path id="Trazado_917153" data-name="Trazado 917153" d="M38.383,349.575a91.152,91.152,0,0,0-34.8-41.128q-10.815,3.093-21.621,6.761v86.5q31.983.089,63.966.079C47.633,384.094,45.413,366.014,38.383,349.575Z" transform="translate(18.037 -291.027)" fill="#8fc741"/>
              <path id="Trazado_917154" data-name="Trazado 917154" d="M315.171,266.657c32.459,27.879,51.872,69.071,51.952,110.625q26.16-.032,52.32-.038c-2.233-39.363-19.459-77.828-47.716-106.725A350.074,350.074,0,0,0,315.171,266.657Z" transform="translate(-176.332 -266.64)" fill="#7ead39"/>
              <path id="Trazado_917155" data-name="Trazado 917155" d="M641.844,344.353a118.115,118.115,0,0,0-18.9-13.117A137.824,137.824,0,0,1,644,414.956q13.647.02,27.294.05C673.762,374.932,651.381,352.553,641.844,344.353Z" transform="translate(-355.866 -304.32)" fill="#7ead39"/>
              <path id="Trazado_917156" data-name="Trazado 917156" d="M522.588,298.987C503.306,288.08,478.8,280.262,450.9,275.951c28.257,28.9,45.483,67.362,47.716,106.725q22.51,0,45.02.031A137.824,137.824,0,0,0,522.588,298.987Z" transform="translate(-255.508 -272.071)" fill="#8fc741"/>
            </g>
          </g>
        </g>
        <path id="Trazado_917157" data-name="Trazado 917157" d="M467.248,98.266a2.03,2.03,0,0,1-1.383.87,1.967,1.967,0,0,1-1.482-.849,5.707,5.707,0,0,1-.191-6.834,3.353,3.353,0,0,1,1.9-1.363c1.942-.416,2.453,1.491,2.625,2.985A6.988,6.988,0,0,1,467.248,98.266Z" transform="translate(-270.167 -70.462)" fill="#fff"/>
        <g id="Grupo_1119404" data-name="Grupo 1119404" transform="translate(144.218 0)">
          <g id="Grupo_1119380" data-name="Grupo 1119380" transform="translate(55.432 29.256)">
            <g id="Grupo_1119376" data-name="Grupo 1119376" transform="translate(0 21.656)">
              <g id="Grupo_1119372" data-name="Grupo 1119372" transform="translate(7.476 0.572)">
                <path id="Trazado_917158" data-name="Trazado 917158" d="M499.016,166.625c12.3,10.474,22,23.566,31.825,36.283,2.71,3.663,6.117,8.651,6,13.446-3.516,23.5-34.709-8.816-39.741-17.9C497.856,187.875,498.016,177.111,499.016,166.625Z" transform="translate(-497.096 -166.625)" fill="#e3ae99"/>
                <path id="Trazado_917159" data-name="Trazado 917159" d="M538.509,254.908a38.779,38.779,0,0,0-2.326,15.082,31,31,0,0,1-4.471-3.843A40.035,40.035,0,0,1,538.509,254.908Z" transform="translate(-517.288 -218.123)" fill="#dd937c"/>
              </g>
              <g id="Grupo_1119375" data-name="Grupo 1119375">
                <path id="Trazado_917160" data-name="Trazado 917160" d="M488.544,165.252c8.163,5.213,14.619,12.081,20.206,19.922a5.535,5.535,0,0,1,4.135,7.664c-3.367,7.733-8.846,14.4-10.346,22.7-1.555.818-3.628,1.445-5.12.517s-2.134-3.19-1.013-4.542a32.7,32.7,0,0,1-17.255-19.791Z" transform="translate(-479.153 -165.252)" fill="#d56d42"/>
                <g id="Grupo_1119374" data-name="Grupo 1119374" transform="translate(15.479 8.366)">
                  <g id="Grupo_1119373" data-name="Grupo 1119373">
                    <path id="Trazado_917161" data-name="Trazado 917161" d="M516.3,192.731a70.55,70.55,0,0,1,10.911,12.591" transform="translate(-516.301 -189.647)" fill="none" stroke="#c85426" stroke-miterlimit="10" stroke-width="1"/>
                    <path id="Trazado_917162" data-name="Trazado 917162" d="M520.739,229.192a16.4,16.4,0,0,1,4.881,3.619" transform="translate(-518.89 -210.915)" fill="none" stroke="#c85426" stroke-miterlimit="10" stroke-width="1"/>
                    <path id="Trazado_917163" data-name="Trazado 917163" d="M521.252,185.329a17.047,17.047,0,0,0-3.464,7.33" transform="translate(-517.168 -185.329)" fill="none" stroke="#c85426" stroke-miterlimit="10" stroke-width="1"/>
                    <path id="Trazado_917164" data-name="Trazado 917164" d="M523.474,219.326a29.95,29.95,0,0,1,8.045-15.388" transform="translate(-520.485 -196.184)" fill="none" stroke="#c85426" stroke-miterlimit="10" stroke-width="1"/>
                  </g>
                </g>
                <path id="Trazado_917165" data-name="Trazado 917165" d="M532.857,213.965a60.372,60.372,0,0,0-12.128,20.643" transform="translate(-503.405 -193.668)" fill="none" stroke="#202020" stroke-linecap="round" stroke-linejoin="round" stroke-width="1"/>
              </g>
            </g>
            <g id="Grupo_1119379" data-name="Grupo 1119379" transform="translate(28.254)">
              <g id="Grupo_1119377" data-name="Grupo 1119377" transform="translate(0 20.066)">
                <path id="Trazado_917166" data-name="Trazado 917166" d="M552.707,161.434l-5,36.673a43.967,43.967,0,0,0-.561,11.263c.459,3.742,2.007,7.5,4.949,9.856s7.429,2.963,10.513.793c2.832-1.993,3.876-5.657,4.492-9.065,2.813-15.563.7-31.545-1.415-47.218Z" transform="translate(-546.962 -161.434)" fill="#e3ae99"/>
                <path id="Trazado_917167" data-name="Trazado 917167" d="M548.373,254.908a32.463,32.463,0,0,0,.394,9.261" transform="translate(-547.701 -215.96)" fill="none" stroke="#202020" stroke-linecap="round" stroke-linejoin="round" stroke-width="1"/>
              </g>
              <g id="Grupo_1119378" data-name="Grupo 1119378" transform="translate(5.31)">
                <path id="Trazado_917168" data-name="Trazado 917168" d="M560.254,133.507c-1.944-6.053,1.871-11.638,2.265-17.448-.057-.915-.225-2,.476-2.595,3.986-1.468,3.943,6.1,3.128,8.461,2.038-1.158,11.816-.853,8.636,3.042a2.387,2.387,0,0,1,.29,4.432c2.315-.028,2.826,3.579.635,4.248,3.958,1.794-.42,4.651-3.02,3.567Z" transform="translate(-559.705 -113.277)" fill="#e3ae99"/>
                <path id="Trazado_917169" data-name="Trazado 917169" d="M576.007,133.671a2.131,2.131,0,0,0-1.363,2.6,2.7,2.7,0,0,0,2.468,1.815,4.825,4.825,0,0,0-1.656,1.092,1.647,1.647,0,0,0-.293,1.848,2.423,2.423,0,0,0,1.805.875,1.659,1.659,0,1,0,.231,3.244c-.787.277-1.656.75-1.78,1.575a1.685,1.685,0,0,0,.849,1.585,4.413,4.413,0,0,0,1.812.531,26.981,26.981,0,0,0,3.645.225" transform="translate(-568.374 -125.173)" fill="none" stroke="#202020" stroke-linecap="round" stroke-linejoin="round" stroke-width="1"/>
                <path id="Trazado_917170" data-name="Trazado 917170" d="M572.849,157.569a5.418,5.418,0,0,1-2.2,4.173" transform="translate(-566.087 -139.114)" fill="none" stroke="#202020" stroke-linecap="round" stroke-linejoin="round" stroke-width="1"/>
                <path id="Trazado_917171" data-name="Trazado 917171" d="M580,142.639q3.377-.588,6.74-1.249" transform="translate(-571.543 -129.676)" fill="none" stroke="#202020" stroke-linecap="round" stroke-linejoin="round" stroke-width="1"/>
                <path id="Trazado_917172" data-name="Trazado 917172" d="M580.333,152.516c2.358-.107,4.444-.36,6.787-.647" transform="translate(-571.738 -135.789)" fill="none" stroke="#202020" stroke-linecap="round" stroke-linejoin="round" stroke-width="1"/>
                <path id="Trazado_917173" data-name="Trazado 917173" d="M580.888,161.207c2.5.057,4.595.259,7.092.317" transform="translate(-572.062 -141.236)" fill="none" stroke="#202020" stroke-linecap="round" stroke-linejoin="round" stroke-width="1"/>
              </g>
            </g>
          </g>
          <g id="Grupo_1119384" data-name="Grupo 1119384" transform="translate(2.418 46.065)">
            <path id="Trazado_917174" data-name="Trazado 917174" d="M425.992,235.3c-1.407-19.554-3.356-39.04-4.763-58.594-.349-4.854-1.275-10.25-3.587-14.631-7.2-10.741-30.564-8.939-42.082-6.936-7.636,1.328-15.269,1.569-17.944,9.45a38.266,38.266,0,0,0-1.185,12c1.143,29.131,1.773,58.833-4.508,87.45q.074-.3.147-.594l77.332,3.235c.7-6.666-1.46-12.758-2.537-19.224Q426.429,241.379,425.992,235.3Z" transform="translate(-351.923 -153.618)" fill="#d56d42"/>
            <path id="Trazado_917175" data-name="Trazado 917175" d="M376.325,217.693l54.084,23.416.991,11.447-67.469,6.326.088-26.939Z" transform="translate(-358.927 -190.995)" fill="#c85426"/>
            <g id="Grupo_1119383" data-name="Grupo 1119383" transform="translate(6.421 3.765)">
              <g id="Grupo_1119382" data-name="Grupo 1119382">
                <g id="Grupo_1119381" data-name="Grupo 1119381" transform="translate(1.282)">
                  <path id="Trazado_917176" data-name="Trazado 917176" d="M427.721,162.832a382.43,382.43,0,0,1,3.83,75.447" transform="translate(-403.841 -162.757)" fill="none" stroke="#c85426" stroke-miterlimit="10" stroke-width="1"/>
                  <path id="Trazado_917177" data-name="Trazado 917177" d="M472.482,241.112a333.436,333.436,0,0,0-5.162-78.023" transform="translate(-426.941 -162.907)" fill="none" stroke="#c85426" stroke-miterlimit="10" stroke-width="1"/>
                  <path id="Trazado_917178" data-name="Trazado 917178" d="M496.352,241.74a276.218,276.218,0,0,0-3.388-79.087" transform="translate(-441.9 -162.653)" fill="none" stroke="#c85426" stroke-miterlimit="10" stroke-width="1"/>
                  <path id="Trazado_917179" data-name="Trazado 917179" d="M384.821,164.227c8.839,7.273,8.961,19.894,8.433,30.456-.582,15.652-.846,31.36-1.772,46.987" transform="translate(-378.817 -163.571)" fill="none" stroke="#c85426" stroke-miterlimit="10" stroke-width="1"/>
                  <path id="Trazado_917180" data-name="Trazado 917180" d="M371.174,231.517a278.1,278.1,0,0,1-.763,54.115" transform="translate(-370.411 -202.823)" fill="none" stroke="#c85426" stroke-miterlimit="10" stroke-width="1"/>
                </g>
                <path id="Trazado_917181" data-name="Trazado 917181" d="M404.314,199.771c15.194,1.571,31.183.12,46.531-1.835" transform="translate(-388.905 -183.235)" fill="none" stroke="#c85426" stroke-miterlimit="10" stroke-width="1"/>
                <path id="Trazado_917182" data-name="Trazado 917182" d="M401,225.509a112.919,112.919,0,0,0,49.476-3.4" transform="translate(-386.97 -197.336)" fill="none" stroke="#c85426" stroke-miterlimit="10" stroke-width="1"/>
                <path id="Trazado_917183" data-name="Trazado 917183" d="M367.334,300.3a118.637,118.637,0,0,0,65.3-4.1" transform="translate(-367.334 -240.554)" fill="none" stroke="#c85426" stroke-miterlimit="10" stroke-width="1"/>
                <path id="Trazado_917184" data-name="Trazado 917184" d="M398.159,178.03a327.818,327.818,0,0,1,48.131-1.156" transform="translate(-385.315 -170.708)" fill="none" stroke="#c85426" stroke-miterlimit="10" stroke-width="1"/>
              </g>
            </g>
            <path id="Trazado_917185" data-name="Trazado 917185" d="M447.407,166.323a88.327,88.327,0,0,1,3.139,20.474" transform="translate(-407.621 -161.029)" fill="none" stroke="#202020" stroke-linecap="round" stroke-linejoin="round" stroke-width="1"/>
            <path id="Trazado_917186" data-name="Trazado 917186" d="M519.719,230.985c-1.043-13.453-1.86-26.312-3.91-40.151" transform="translate(-447.522 -175.327)" fill="none" stroke="#202020" stroke-linecap="round" stroke-linejoin="round" stroke-width="1"/>
          </g>
          <g id="Grupo_1119387" data-name="Grupo 1119387" transform="translate(17.878 39.422)">
            <path id="Trazado_917187" data-name="Trazado 917187" d="M438.391,199.427a10.541,10.541,0,0,0,1.4,6.786,14.375,14.375,0,0,0,3.059-4.184c1.25-3.054.3-6.686,1.616-9.712a4.25,4.25,0,0,0-.976-.173,2.908,2.908,0,0,0-1.035.2,2.24,2.24,0,0,0-.845.535,3.156,3.156,0,0,0-.323.575c-.35.6-.91,1.093-1.292,1.682a10.62,10.62,0,0,0-.983,1.919A10.36,10.36,0,0,0,438.391,199.427Z" transform="translate(-417.768 -169.448)" fill="#f5de41"/>
            <path id="Trazado_917188" data-name="Trazado 917188" d="M454.682,195.181c.565.743,1.287,1.35,1.917,2.039a10.671,10.671,0,0,1,2.548,4.95,8.979,8.979,0,0,0,1.364-5.5,6.826,6.826,0,0,0-2.722-4.883,3.608,3.608,0,0,0-1.654-.694,2.017,2.017,0,0,0-1.666.537,2.124,2.124,0,0,0-.62,1.687A4.026,4.026,0,0,0,454.682,195.181Z" transform="translate(-426.831 -168.829)" fill="#f5de41"/>
            <path id="Trazado_917189" data-name="Trazado 917189" d="M423.991,142.286a6.834,6.834,0,0,0-.531-.816c-.252-.223-.553-.381-.813-.605a9.571,9.571,0,0,0-2.1-1.36,19.133,19.133,0,0,0-4.8-1.46,21.141,21.141,0,0,0-9.708.429,9.47,9.47,0,0,0-3.542,1.644,8.772,8.772,0,0,0-1.27,1.329c-.1.13-.9,1.493-.928,1.49a12.45,12.45,0,0,0-11.27,4.425,51.587,51.587,0,0,0,15.519,10.854c2.794,1.266,5.748,2.06,8.654,3.051a4.3,4.3,0,0,0,1.2.284.92.92,0,0,0,1.063-.863,2.128,2.128,0,0,0-.474-1.129c-2.36-3.464-5.251-6.654-6.722-10.578a6.647,6.647,0,0,1-.5-3.7c.226-.987,1.588-1.464,2.476-1.671a6.748,6.748,0,0,1,4.028.265,5.792,5.792,0,0,1,2.02,1.362,3.87,3.87,0,0,1,1.081,2.17,15.423,15.423,0,0,1-.068,5.7c-.422,2.413-1.177,4.757-1.651,7.161a1.251,1.251,0,0,0,.055.9.848.848,0,0,0,.8.339,2.315,2.315,0,0,0,.854-.308,27.993,27.993,0,0,0,7.487-6.027,83.777,83.777,0,0,0,5.938-7.612,2.361,2.361,0,0,0,.523-1.077,2.01,2.01,0,0,0-.46-1.318,6.65,6.65,0,0,0-6.748-2.6C424.134,142.563,424.079,142.444,423.991,142.286Z" transform="translate(-389.027 -137.675)" fill="#f5de41"/>
            <g id="Grupo_1119386" data-name="Grupo 1119386" transform="translate(22.206 18.54)">
              <path id="Trazado_917190" data-name="Trazado 917190" d="M450.263,185.514a22.879,22.879,0,0,0-1.482-2.073c-.429-.534-.793-1.192-1.513-1.254a3.415,3.415,0,0,0-3.376,1.695l-1.154,2.079a2.029,2.029,0,0,0-.371,1.5,1.833,1.833,0,0,0,1.23,1.019,7.03,7.03,0,0,0,3.584.417,4.8,4.8,0,0,0,3.073-1.8,1.363,1.363,0,0,0,.323-.793A1.577,1.577,0,0,0,450.263,185.514Z" transform="translate(-442.322 -182.171)" fill="#f5de41"/>
              <g id="Grupo_1119385" data-name="Grupo 1119385" transform="translate(0.033 0.092)">
                <path id="Trazado_917191" data-name="Trazado 917191" d="M442.4,188.029a11.679,11.679,0,0,1,2-3.317" transform="translate(-442.402 -183.745)" fill="none" stroke="#202020" stroke-linecap="round" stroke-linejoin="round" stroke-width="1"/>
                <path id="Trazado_917192" data-name="Trazado 917192" d="M455.138,182.392a9.265,9.265,0,0,1,2.784,3.519" transform="translate(-449.831 -182.392)" fill="none" stroke="#202020" stroke-linecap="round" stroke-linejoin="round" stroke-width="1"/>
                <path id="Trazado_917193" data-name="Trazado 917193" d="M443.994,197.09a10.424,10.424,0,0,0,3,.634" transform="translate(-443.331 -190.966)" fill="none" stroke="#202020" stroke-linecap="round" stroke-linejoin="round" stroke-width="1"/>
                <path id="Trazado_917194" data-name="Trazado 917194" d="M454.518,194.718a9.249,9.249,0,0,0,1.91-.9,3.1,3.1,0,0,0,1.29-1.625" transform="translate(-449.47 -188.109)" fill="none" stroke="#202020" stroke-linecap="round" stroke-linejoin="round" stroke-width="1"/>
              </g>
            </g>
          </g>
          <g id="Grupo_1119390" data-name="Grupo 1119390" transform="translate(30.557 32.839)">
            <g id="Grupo_1119388" data-name="Grupo 1119388" transform="translate(0.457)">
              <path id="Trazado_917195" data-name="Trazado 917195" d="M428.544,121.88a8.2,8.2,0,0,0-1.716.127c-1.665,4.348-.877,11.243-5.76,13.459-1.822.313,1.7,2.72,2.373,2.955a12.5,12.5,0,0,0,6.065,1.67c3.474.085,7.863-1.5,9.2-4.882-5.39-1.566-2-8.38-2.343-12.364C433.741,123,431.133,121.944,428.544,121.88Z" transform="translate(-420.551 -121.877)" fill="#e3ae99"/>
              <path id="Trazado_917196" data-name="Trazado 917196" d="M436.215,132.851a4.941,4.941,0,0,0,4.644.142,4.5,4.5,0,0,0,2.087-4.6,5.064,5.064,0,0,0-3.374-3.834,5.268,5.268,0,0,0-4.714.779,5.5,5.5,0,0,0-2.026,3.146,1.39,1.39,0,0,0,.249,1.409,16.835,16.835,0,0,0,1.321,1.59A7.642,7.642,0,0,0,436.215,132.851Z" transform="translate(-427.667 -123.296)" fill="#dd937c"/>
            </g>
            <g id="Grupo_1119389" data-name="Grupo 1119389" transform="translate(0 9.541)">
              <path id="Trazado_917197" data-name="Trazado 917197" d="M426.5,149.56a15.1,15.1,0,0,0,2.158,2.048c.806.617,1.672,1.181,2.522,1.728a8.018,8.018,0,0,0-4.295,3.96c-5.514-1.668-8.163-6.1-7.251-9,.728-2.313,3.615-3.307,4.287-3.521A13.178,13.178,0,0,0,426.5,149.56Z" transform="translate(-419.454 -144.776)" fill="#d56d42"/>
              <path id="Trazado_917198" data-name="Trazado 917198" d="M450.317,150.047a10.462,10.462,0,0,1-1.115,2.23,7.872,7.872,0,0,1-1.759,1.874,8.7,8.7,0,0,1,4.181,2.883c3.108-1.4,4.782-4.638,3.957-7.269-.868-2.765-3.93-3.651-4.164-3.715A20.641,20.641,0,0,1,450.317,150.047Z" transform="translate(-435.78 -145.519)" fill="#d56d42"/>
              <path id="Trazado_917199" data-name="Trazado 917199" d="M439.125,168.375a7.844,7.844,0,0,1,3.465-2.883,8.972,8.972,0,0,1,4.128,2.743" transform="translate(-430.929 -156.86)" fill="none" stroke="#202020" stroke-linecap="round" stroke-linejoin="round" stroke-width="1"/>
            </g>
          </g>
          <g id="Grupo_1119396" data-name="Grupo 1119396" transform="translate(23.618)">
            <path id="Trazado_917200" data-name="Trazado 917200" d="M416.53,82.29c2.817,7.632,12.841,8.425,19.566,6.122,10.428-3.861,8.848-23.545,2.953-28.343C422.306,46.436,409.468,67.557,416.53,82.29Z" transform="translate(-409.655 -50.421)" fill="#e3ae99"/>
            <g id="Grupo_1119393" data-name="Grupo 1119393" transform="translate(0.108)">
              <path id="Trazado_917201" data-name="Trazado 917201" d="M418.911,108.894c-9.868-3.445-12.071-22.339-4.457-18.811,1.78,9.03,3.786,9.371,8.736,8.427a27.149,27.149,0,0,1,10.871.119c4.151.9,7.1.54,6.906-6.433C445.676,106.956,431.72,113.366,418.911,108.894Z" transform="translate(-407.044 -70.236)" fill="#202020"/>
              <g id="Grupo_1119392" data-name="Grupo 1119392">
                <path id="Trazado_917202" data-name="Trazado 917202" d="M408.856,67.453c3.591-.85,5.056-4.712,4.2-7.986,6.458,2.2,23.387,4.679,27.924-1.363.809-3.628-2.98-6.6-6.3-7.551,3.729-2.16,1.875-7.342-2.231-7.477-2.685-.171-4.944,1.666-7.5,2.423-4.209,1.248-9.1-.5-13.157,1.1-3.195,1.254-5.1,4.639-4.3,7.641C401.172,56.773,401.6,67.2,408.856,67.453Z" transform="translate(-403.06 -43.064)" fill="#202020"/>
                <g id="Grupo_1119391" data-name="Grupo 1119391" transform="translate(3.302 0.874)">
                  <path id="Trazado_917203" data-name="Trazado 917203" d="M412.217,70.512a7.1,7.1,0,0,1-1.232,12.311" transform="translate(-410.985 -59.949)" fill="none" stroke="#4e4e4e" stroke-linecap="round" stroke-linejoin="round" stroke-width="0.75"/>
                  <path id="Trazado_917204" data-name="Trazado 917204" d="M413.546,64.834a11.335,11.335,0,0,0,5.71,2.7A58.886,58.886,0,0,0,430.448,69.1a21.273,21.273,0,0,0,7.482-.735,7.776,7.776,0,0,0,2.935-1.615,4.355,4.355,0,0,0,1.454-2.952,3.047,3.047,0,0,0-1.538-2.8" transform="translate(-412.479 -54.394)" fill="none" stroke="#4e4e4e" stroke-linecap="round" stroke-linejoin="round" stroke-width="0.75"/>
                  <path id="Trazado_917205" data-name="Trazado 917205" d="M412.917,55.608a24.159,24.159,0,0,0,19.862-3.873,7.374,7.374,0,0,0,2.562-2.94,3.231,3.231,0,0,0-.661-3.633" transform="translate(-412.112 -45.161)" fill="none" stroke="#4e4e4e" stroke-linecap="round" stroke-linejoin="round" stroke-width="0.75"/>
                </g>
              </g>
            </g>
            <g id="Grupo_1119394" data-name="Grupo 1119394" transform="translate(8.79 21.379)">
              <path id="Trazado_917206" data-name="Trazado 917206" d="M451.952,97.765a1.556,1.556,0,0,1,2.054.125,1.8,1.8,0,0,1,.225,2.1,2.148,2.148,0,0,1-1.9,1.018" transform="translate(-440.262 -96.16)" fill="none" stroke="#202020" stroke-linecap="round" stroke-linejoin="round" stroke-width="1"/>
              <path id="Trazado_917207" data-name="Trazado 917207" d="M439.556,97.565a1.1,1.1,0,0,0,.852-.347,1.656,1.656,0,0,0,.413-.84,1.707,1.707,0,0,0-.1-1.045,1.167,1.167,0,0,0-2.021-.159C438.3,95.95,438.472,97.48,439.556,97.565Z" transform="translate(-432.416 -94.539)" fill="#202020"/>
              <path id="Trazado_917208" data-name="Trazado 917208" d="M464.451,97.282a1.1,1.1,0,0,0,.852-.347,1.657,1.657,0,0,0,.413-.84,1.706,1.706,0,0,0-.1-1.045,1.167,1.167,0,0,0-2.021-.159C463.19,95.667,463.367,97.2,464.451,97.282Z" transform="translate(-446.937 -94.374)" fill="#202020"/>
              <path id="Trazado_917209" data-name="Trazado 917209" d="M423.938,116.941c-.475,2.91,3.273,4.222,3.857,1.035C428.314,115.146,424.472,113.672,423.938,116.941Z" transform="translate(-423.897 -106.451)" fill="#dd937c"/>
              <path id="Trazado_917210" data-name="Trazado 917210" d="M471.807,117.045c-.473,2.909,2.88,4.03,3.857,1.035C476.557,115.344,472.34,113.775,471.807,117.045Z" transform="translate(-451.818 -106.528)" fill="#dd937c"/>
              <path id="Trazado_917211" data-name="Trazado 917211" d="M449.371,120.811a9.629,9.629,0,0,1-4.216.34,5.671,5.671,0,0,1-3.608-2.075" transform="translate(-434.193 -108.783)" fill="none" stroke="#fff" stroke-linecap="round" stroke-linejoin="round" stroke-width="1"/>
            </g>
            <g id="Grupo_1119395" data-name="Grupo 1119395" transform="translate(0 21.013)">
              <path id="Trazado_917212" data-name="Trazado 917212" d="M410.083,97.578a12.908,12.908,0,0,1-.011,3.423c-1.786,1.428-5.279,1.293-6.591-.809a4.415,4.415,0,0,1,4.317-6.678C409.961,93.429,409.814,96.051,410.083,97.578Z" transform="translate(-402.802 -93.494)" fill="#e3ae99"/>
              <path id="Trazado_917213" data-name="Trazado 917213" d="M409.514,98.19a2.056,2.056,0,0,0-1,1.373,2.527,2.527,0,0,0,.833,2.451,2,2,0,0,0,1.206.483,1.446,1.446,0,0,0,1.167-.518.709.709,0,0,0,.172-.544c-.054-.3-.365-.477-.656-.565a1.983,1.983,0,0,1-.833-.348.733.733,0,0,1,.391-1.256,1.212,1.212,0,0,0,.363-.064c.4-.2.158-.821-.137-1A1.6,1.6,0,0,0,409.514,98.19Z" transform="translate(-406.1 -96.127)" fill="#dd937c"/>
            </g>
          </g>
          <g id="Grupo_1119403" data-name="Grupo 1119403" transform="translate(0 50.423)">
            <g id="Grupo_1119397" data-name="Grupo 1119397" transform="translate(1.234 2.113)">
              <path id="Trazado_917214" data-name="Trazado 917214" d="M350.5,180.395c-4.266,13.787,1.363,33.193,13.218,40.584,14.22,8.865,40.529-2.854,57.7-4.354-.038-1.2-.95-15.442-1.435-15.437a426.97,426.97,0,0,1-43.558-1.755,179.243,179.243,0,0,0-10.806-27.1C362.284,163.442,351.815,175.485,350.5,180.395Z" transform="translate(-349.081 -169.148)" fill="#e3ae99"/>
              <path id="Trazado_917215" data-name="Trazado 917215" d="M386.047,241.832a106.682,106.682,0,0,0-8.6,9.4,33.72,33.72,0,0,0-5.989,10.781c-2.861-2.315-5.066-4.887-5.773-6.957l.077.163a15.8,15.8,0,0,1,4.032-5.8,30.55,30.55,0,0,1,5.786-3.973A27.373,27.373,0,0,1,386.047,241.832Z" transform="translate(-358.766 -211.547)" fill="#dd937c"/>
            </g>
            <g id="Grupo_1119399" data-name="Grupo 1119399" transform="translate(68.921 31.231)">
              <path id="Trazado_917216" data-name="Trazado 917216" d="M511.527,242c1.233-3.473,5.764-4.328,6.678-.217,2.686-.876,5.411,2.683,2.22,4.006,2.624-.414,2.751,3.916.062,3.407,2.786-.146,2.353,3.9-.045,4.249a1.681,1.681,0,0,1,1.017,2.66,41.741,41.741,0,0,1-6.966,1.453" transform="translate(-511.527 -239.031)" fill="#e3ae99"/>
              <g id="Grupo_1119398" data-name="Grupo 1119398" transform="translate(6.521 6.7)">
                <path id="Trazado_917217" data-name="Trazado 917217" d="M529.6,255.11l-2.426.29" transform="translate(-527.178 -255.11)" fill="none" stroke="#202020" stroke-linecap="round" stroke-linejoin="round" stroke-width="1"/>
                <path id="Trazado_917218" data-name="Trazado 917218" d="M531.572,263.493a6.992,6.992,0,0,0-2.106.161" transform="translate(-528.513 -259.989)" fill="none" stroke="#202020" stroke-linecap="round" stroke-linejoin="round" stroke-width="1"/>
                <path id="Trazado_917219" data-name="Trazado 917219" d="M531.15,273.675l-1.427.18" transform="translate(-528.663 -265.939)" fill="none" stroke="#202020" stroke-linecap="round" stroke-linejoin="round" stroke-width="1"/>
              </g>
            </g>
            <g id="Grupo_1119402" data-name="Grupo 1119402">
              <path id="Trazado_917220" data-name="Trazado 917220" d="M347.268,181.387c-2.358,7.755-.9,16.3,2.717,23.417a6.792,6.792,0,0,0,5.565,9.06,44.135,44.135,0,0,1,11.829-11.61c2.566-2.118,6.247-2.8,8.4-5.343,1.733-2.787-.829-5.539-3.543-6.207a59.7,59.7,0,0,0-9.213-22C356.868,161.783,348.782,176.412,347.268,181.387Z" transform="translate(-346.119 -165.712)" fill="#d56d42"/>
              <g id="Grupo_1119401" data-name="Grupo 1119401" transform="translate(0.613)">
                <g id="Grupo_1119400" data-name="Grupo 1119400">
                  <path id="Trazado_917221" data-name="Trazado 917221" d="M386.951,177.091c-8.013,3.8-6.018,15.875-4.541,23.012l-.19-.551" transform="translate(-367.11 -171.668)" fill="none" stroke="#c85426" stroke-miterlimit="10" stroke-width="1"/>
                  <path id="Trazado_917222" data-name="Trazado 917222" d="M366.736,164.077c-12.648,5-14.779,23.469-9.4,34.558" transform="translate(-351.663 -164.077)" fill="none" stroke="#c85426" stroke-miterlimit="10" stroke-width="1"/>
                  <path id="Trazado_917223" data-name="Trazado 917223" d="M347.59,220.445c4.776-6.784,15.262-12.039,23.846-9.159" transform="translate(-347.59 -191.145)" fill="none" stroke="#c85426" stroke-miterlimit="10" stroke-width="1"/>
                  <path id="Trazado_917224" data-name="Trazado 917224" d="M354.2,188.7c5.892-2.141,13.261-.78,18.334,2.9" transform="translate(-351.449 -177.843)" fill="none" stroke="#c85426" stroke-miterlimit="10" stroke-width="1"/>
                </g>
              </g>
              <path id="Trazado_917225" data-name="Trazado 917225" d="M355.755,237.846a8.426,8.426,0,0,0,.888-1.518,6.973,6.973,0,0,1,1.24-1.554,34.307,34.307,0,0,1,3.006-2.91,37.67,37.67,0,0,1,6.933-4.7,40.567,40.567,0,0,1,5.3-2.329,9.482,9.482,0,0,1,4.443-.737,5.352,5.352,0,0,1,3.258,1.769,4.275,4.275,0,0,1,1.107,2.8,3.072,3.072,0,0,1-1.4,2.587" transform="translate(-351.74 -199.06)" fill="none" stroke="#202020" stroke-linecap="round" stroke-linejoin="round" stroke-width="1"/>
              <path id="Trazado_917226" data-name="Trazado 917226" d="M401.29,203.771a55.671,55.671,0,0,0-5.579-14.19" transform="translate(-375.047 -178.954)" fill="none" stroke="#202020" stroke-linecap="round" stroke-linejoin="round" stroke-width="1"/>
            </g>
          </g>
        </g>
        <g id="Grupo_1119425" data-name="Grupo 1119425" transform="translate(43.134 1.872)">
          <path id="Trazado_917227" data-name="Trazado 917227" d="M113.779,193.013c-3.13,8.766-2.521,23.835,8.619,25.872,2.115-.217,3.477-2.3,4.418-4.2,6.159-12.942,9-29.084,2.987-42.56C125.157,163.709,114.3,189.146,113.779,193.013Z" transform="translate(-108.552 -119.23)" fill="#e4e4e4"/>
          <g id="Grupo_1119407" data-name="Grupo 1119407" transform="translate(4.634 45.753)">
            <g id="Grupo_1119405" data-name="Grupo 1119405" transform="translate(21.124)">
              <path id="Trazado_917228" data-name="Trazado 917228" d="M165.686,178.095a33.429,33.429,0,0,1,2.805-18.934,65.024,65.024,0,0,1,19.566-1.683,71.017,71.017,0,0,1,12.5,1.735,106.969,106.969,0,0,0-9.745,18.334C182.476,178.829,174.278,178.095,165.686,178.095Z" transform="translate(-165.341 -157.363)" fill="#e4e4e4"/>
              <path id="Trazado_917229" data-name="Trazado 917229" d="M186.259,159.034a8.455,8.455,0,0,0,2.948,6.631,10.556,10.556,0,0,0,6.917,2.256,14.028,14.028,0,0,0,12.789-8.579" transform="translate(-177.541 -158.338)" fill="none" stroke="#202020" stroke-linecap="round" stroke-linejoin="round" stroke-width="1"/>
            </g>
            <g id="Grupo_1119406" data-name="Grupo 1119406" transform="translate(0 1.797)">
              <path id="Trazado_917230" data-name="Trazado 917230" d="M119.53,241.979q1.406-5.8,2.81-11.6c.733-3.026,2.543-7.058,1.934-10.165-1.026-5.224-2.368-10.38-3.433-15.6-1.03-5.043-2.355-9.862-1.628-15.059a46.969,46.969,0,0,1,2.583-9.587,96.726,96.726,0,0,1,5.621-12.521,6.36,6.36,0,0,1,1.761-2.385,16.938,16.938,0,0,1,2.732-1.143A53.578,53.578,0,0,1,138.8,161.7l.116-.028a33.429,33.429,0,0,0-2.805,18.934c8.591,0,16.789.734,25.125-.548a106.969,106.969,0,0,1,9.745-18.334c1.869.438,3.718.952,5.529,1.571,3.658,1.25,7.391,2.825,10.3,5.431,3.329,2.978,4.617,7.246,4.46,11.636-.16,4.485-2.076,8.481-3.406,12.728-1.512,4.828-2.99,9.666-4.363,14.536a39.158,39.158,0,0,0-1.853,10.018c-.068,5.034,1.689,9.889,3.32,14.652a350.261,350.261,0,0,1,10.738,38.332l-.153-.593-80.913,3.234C114.53,262.687,117.038,252.269,119.53,241.979Z" transform="translate(-114.644 -161.676)" fill="#f5de41"/>
              <path id="Trazado_917231" data-name="Trazado 917231" d="M131.753,201.975,192.9,231.137a34.05,34.05,0,0,0-1.83,11.237l-58.829,9.695a22.54,22.54,0,0,0,1.538-7.394,121.952,121.952,0,0,1-2.027-42.7Z" transform="translate(-124.037 -185.184)" fill="#ecb53a"/>
              <path id="Trazado_917232" data-name="Trazado 917232" d="M268.311,246.169c-2.6,9.62-5.222,19.706-3.043,29.43.964,4.3,2.833,8.334,4.344,12.474a46.673,46.673,0,0,1,3.153,15.066" transform="translate(-202.034 -210.963)" fill="none" stroke="#202020" stroke-linecap="round" stroke-linejoin="round" stroke-width="1"/>
              <path id="Trazado_917233" data-name="Trazado 917233" d="M136.988,354.02l4.409-20,37.311-.327,3.674,24.523" transform="translate(-127.678 -262.017)" fill="none" stroke="#202020" stroke-linecap="round" stroke-linejoin="round" stroke-width="1"/>
            </g>
          </g>
          <path id="Trazado_917234" data-name="Trazado 917234" d="M254.357,176.833a20.491,20.491,0,0,1,1.293,13.805A34.443,34.443,0,0,1,249.4,203.22a111.139,111.139,0,0,1-9.441,10.528c-2.334,2.4-4.98,4.974-8.322,5.185-3.4.215-6.588-2.295-7.884-5.45a14.581,14.581,0,0,1,.1-10.018,58.961,58.961,0,0,1,4.453-9.2c2.908-5.409,5.36-11.053,8.375-16.405a59.785,59.785,0,0,1,5.039-7.681c.867-1.1,1.243-1.579,2.635-1.308a13.092,13.092,0,0,1,3.814,1.44A15.448,15.448,0,0,1,254.357,176.833Z" transform="translate(-173.16 -118.28)" fill="#e4e4e4"/>
          <g id="Grupo_1119408" data-name="Grupo 1119408" transform="translate(36.186 34.053)">
            <path id="Trazado_917235" data-name="Trazado 917235" d="M201.058,129.843q1.234-.194,2.46-.44a48.637,48.637,0,0,1,.648,4.985,12.359,12.359,0,0,0,1.389,4.8,6.618,6.618,0,0,0,3.31,2.623,9.04,9.04,0,0,1-2.2,2.95,10.283,10.283,0,0,1-2.123,1.388c-2.3,1.1-7.936,2.448-11.716-.857a8.756,8.756,0,0,1-2.459-3.706,4.417,4.417,0,0,0,2.907-1.25c.753-.939.643-2.281.493-3.475l-.786-6.3A60.566,60.566,0,0,0,201.058,129.843Z" transform="translate(-190.367 -129.353)" fill="#af8566"/>
            <path id="Trazado_917236" data-name="Trazado 917236" d="M204.288,137.806a4.942,4.942,0,0,1-4.642.194,4.5,4.5,0,0,1-2.139-4.578,5.064,5.064,0,0,1,3.33-3.872,5.266,5.266,0,0,1,4.723.725,5.5,5.5,0,0,1,2.061,3.123,1.39,1.39,0,0,1-.233,1.411,16.824,16.824,0,0,1-1.3,1.605A7.657,7.657,0,0,1,204.288,137.806Z" transform="translate(-194.5 -129.284)" fill="#83654d"/>
          </g>
          <g id="Grupo_1119414" data-name="Grupo 1119414" transform="translate(27.857)">
            <path id="Trazado_917237" data-name="Trazado 917237" d="M197.647,88.338c-2.73,7.664-12.744,8.571-19.5,6.344-10.471-3.742-9.115-23.442-3.276-28.307C191.463,52.552,204.541,73.525,197.647,88.338Z" transform="translate(-170.376 -55.901)" fill="#af8566"/>
            <g id="Grupo_1119411" data-name="Grupo 1119411" transform="translate(0.499)">
              <g id="Grupo_1119409" data-name="Grupo 1119409" transform="translate(25.137)">
                <path id="Trazado_917238" data-name="Trazado 917238" d="M237.8,48.274c11.218-4.019,21.752,9.688,18.509,20.106-1.841,5.767-10.986,8.688-11.949.877-.971-5.918-1.548-18.7-10.711-13.376C228.819,54.59,235.243,48.808,237.8,48.274Z" transform="translate(-231.9 -47.557)" fill="#202020"/>
                <path id="Trazado_917239" data-name="Trazado 917239" d="M235.08,54.814c2.565-2.266,5.835-4.073,9.244-3.772a10.305,10.305,0,0,1,5.442,2.322,18.445,18.445,0,0,1,3.9,4.526,17.975,17.975,0,0,1,2.539,5.692,9.887,9.887,0,0,1-.457,6.141A4.136,4.136,0,0,1,253.5,72.08a3.442,3.442,0,0,1-3.492-1.026,6.24,6.24,0,0,1-1.483-3.481c-.173-1.27-.117-2.559-.165-3.84a13.472,13.472,0,0,0-1.663-6.455,7.3,7.3,0,0,0-5.365-3.655,5.057,5.057,0,0,0-5.273,3.3" transform="translate(-233.755 -49.57)" fill="none" stroke="#4e4e4e" stroke-linecap="round" stroke-linejoin="round" stroke-width="0.75"/>
              </g>
              <path id="Trazado_917240" data-name="Trazado 917240" d="M222.707,63.894a4.524,4.524,0,0,1,.768-2.861,5.219,5.219,0,0,1,2.6-2.209,4.124,4.124,0,1,1-1.648,6.7Z" transform="translate(-201.388 -54.004)" fill="#556f86"/>
              <g id="Grupo_1119410" data-name="Grupo 1119410" transform="translate(0 3.685)">
                <path id="Trazado_917241" data-name="Trazado 917241" d="M201.427,76.346c.007.053.015.105.022.158-2.97-.64-5.546-2.955-4.819-6.228-6.612,4.743-16.648-.917-19.739-7.623a7.728,7.728,0,0,1-5.316,8.943c-.209-24.345,36.1-17.073,29.808,5.129" transform="translate(-171.573 -56.4)" fill="#202020"/>
                <path id="Trazado_917242" data-name="Trazado 917242" d="M194.175,58.609a6.544,6.544,0,0,0,.964,5.482,8.366,8.366,0,0,0,4.645,3.2,11.655,11.655,0,0,0,5.7.045,8.612,8.612,0,0,0,5.795-3.857" transform="translate(-184.618 -57.689)" fill="none" stroke="#4e4e4e" stroke-linecap="round" stroke-linejoin="round" stroke-width="0.75"/>
                <path id="Trazado_917243" data-name="Trazado 917243" d="M240.359,82.809a4.531,4.531,0,0,0,.259,7.268" transform="translate(-210.706 -71.805)" fill="none" stroke="#4e4e4e" stroke-linecap="round" stroke-linejoin="round" stroke-width="0.75"/>
                <path id="Trazado_917244" data-name="Trazado 917244" d="M207.8,56.989a5.458,5.458,0,0,0,8.607,2.938" transform="translate(-192.703 -56.744)" fill="none" stroke="#4e4e4e" stroke-linecap="round" stroke-linejoin="round" stroke-width="0.75"/>
              </g>
            </g>
            <g id="Grupo_1119412" data-name="Grupo 1119412" transform="translate(1.463 22.24)">
              <path id="Trazado_917245" data-name="Trazado 917245" d="M199.435,103.956a1.556,1.556,0,0,0-2.053.148,1.8,1.8,0,0,0-.2,2.1,2.148,2.148,0,0,0,1.916,1" transform="translate(-187.331 -102.51)" fill="none" stroke="#202020" stroke-linecap="round" stroke-linejoin="round" stroke-width="1"/>
              <path id="Trazado_917246" data-name="Trazado 917246" d="M212.605,103.84a1.1,1.1,0,0,1-.855-.337,1.657,1.657,0,0,1-.423-.835,1.708,1.708,0,0,1,.088-1.046,1.167,1.167,0,0,1,2.019-.182C213.848,102.211,213.689,103.743,212.605,103.84Z" transform="translate(-195.702 -100.933)" fill="#202020"/>
              <path id="Trazado_917247" data-name="Trazado 917247" d="M187.382,103.84a1.1,1.1,0,0,1-.855-.337,1.657,1.657,0,0,1-.423-.835,1.709,1.709,0,0,1,.088-1.046,1.167,1.167,0,0,1,2.019-.182C188.625,102.211,188.466,103.743,187.382,103.84Z" transform="translate(-180.989 -100.933)" fill="#202020"/>
              <path id="Trazado_917248" data-name="Trazado 917248" d="M193.436,115.186c2.822,1.118,7.052,1.075,9.324-.36-.218,4.082-5.253,6.578-8.921,5.4" transform="translate(-185.291 -109.037)" fill="#fff"/>
              <path id="Trazado_917249" data-name="Trazado 917249" d="M227.286,117.852c.508,2.9-3.225,4.259-3.845,1.079C222.89,116.107,226.716,114.588,227.286,117.852Z" transform="translate(-202.762 -109.727)" fill="#83654d"/>
              <path id="Trazado_917250" data-name="Trazado 917250" d="M177.865,116.526c.507,2.9-2.834,4.063-3.845,1.079C173.1,114.88,177.3,113.263,177.865,116.526Z" transform="translate(-173.888 -108.97)" fill="#83654d"/>
            </g>
            <g id="Grupo_1119413" data-name="Grupo 1119413" transform="translate(26.912 21.117)">
              <path id="Trazado_917251" data-name="Trazado 917251" d="M235.054,102.352a12.882,12.882,0,0,0,.05,3.422c1.8,1.408,5.293,1.232,6.581-.884a4.415,4.415,0,0,0-4.393-6.628C235.129,98.2,235.306,100.822,235.054,102.352Z" transform="translate(-234.963 -98.237)" fill="#af8566"/>
              <path id="Trazado_917252" data-name="Trazado 917252" d="M241.122,102.914a2.055,2.055,0,0,1,1.015,1.361,2.528,2.528,0,0,1-.8,2.46,2,2,0,0,1-1.2.5,1.446,1.446,0,0,1-1.173-.505.707.707,0,0,1-.178-.542c.05-.3.36-.481.65-.573a1.988,1.988,0,0,0,.829-.358.733.733,0,0,0-.4-1.251,1.2,1.2,0,0,1-.364-.06c-.4-.2-.167-.819.125-1A1.6,1.6,0,0,1,241.122,102.914Z" transform="translate(-237.186 -100.864)" fill="#83654d"/>
            </g>
          </g>
          <g id="Grupo_1119418" data-name="Grupo 1119418" transform="translate(5.922 64.512)">
            <g id="Grupo_1119415" data-name="Grupo 1119415" transform="translate(0 2.937)">
              <path id="Trazado_917253" data-name="Trazado 917253" d="M175.077,222.863l-43.044,18.764a10.584,10.584,0,0,1-13.677-6.345h0a10.585,10.585,0,0,1,7.256-13.8l45.512-12.049Z" transform="translate(-117.733 -209.433)" fill="#e4e4e4"/>
              <path id="Trazado_917254" data-name="Trazado 917254" d="M122.318,243.465a9.229,9.229,0,0,0-3.351,8.161" transform="translate(-118.418 -229.285)" fill="none" stroke="#202020" stroke-linecap="round" stroke-linejoin="round" stroke-width="1"/>
            </g>
            <g id="Grupo_1119417" data-name="Grupo 1119417" transform="translate(52.975)">
              <path id="Trazado_917255" data-name="Trazado 917255" d="M244.872,205.534c2.015-1.788,4.855-2.227,7.525-2.591l3.762-.513a1.744,1.744,0,0,1,1.26.146,1.192,1.192,0,0,1,.088,1.641,3.458,3.458,0,0,1-1.534.962,20.343,20.343,0,0,1,3.956,1.123,3.243,3.243,0,0,1,1.221.815,1.4,1.4,0,0,1,.295,1.378.9.9,0,0,1-1.211.49,3.478,3.478,0,0,1,1.542.7,1.6,1.6,0,0,1,.557,1.53,1.053,1.053,0,0,1-1.056.789,1.323,1.323,0,0,1,1.164,1.308,1.958,1.958,0,0,1-.937,1.6,3.928,3.928,0,0,1-1.83.548,1.151,1.151,0,0,1,.684,1.27,1.853,1.853,0,0,1-.908,1.221,5.348,5.348,0,0,1-2.67.553,86.423,86.423,0,0,1-10.446-.212Z" transform="translate(-244.872 -202.384)" fill="#af8566"/>
              <path id="Trazado_917256" data-name="Trazado 917256" d="M267.805,209.153a28.386,28.386,0,0,0-4.053-.31" transform="translate(-255.885 -206.152)" fill="none" stroke="#202020" stroke-linecap="round" stroke-linejoin="round" stroke-width="1"/>
              <g id="Grupo_1119416" data-name="Grupo 1119416" transform="translate(6.064 5.322)">
                <path id="Trazado_917257" data-name="Trazado 917257" d="M269.147,216.569a50.673,50.673,0,0,0-9.354-1.413" transform="translate(-259.64 -215.156)" fill="none" stroke="#202020" stroke-linecap="round" stroke-linejoin="round" stroke-width="1"/>
                <path id="Trazado_917258" data-name="Trazado 917258" d="M270.712,223.645a37.385,37.385,0,0,0-9.886-1.267" transform="translate(-260.242 -219.369)" fill="none" stroke="#202020" stroke-linecap="round" stroke-linejoin="round" stroke-width="1"/>
                <path id="Trazado_917259" data-name="Trazado 917259" d="M268.1,232.635a29.82,29.82,0,0,0-8.678-.973" transform="translate(-259.425 -224.773)" fill="none" stroke="#202020" stroke-linecap="round" stroke-linejoin="round" stroke-width="1"/>
              </g>
            </g>
          </g>
          <g id="Grupo_1119424" data-name="Grupo 1119424" transform="translate(0 64.342)">
            <g id="Grupo_1119420" data-name="Grupo 1119420" transform="translate(9.453 5.318)">
              <path id="Trazado_917260" data-name="Trazado 917260" d="M126.209,226.541l43.764,18.594a10.585,10.585,0,0,0,13.472-6.769h0a10.585,10.585,0,0,0-7.684-13.567L130,214.739Z" transform="translate(-126.209 -214.739)" fill="#e4e4e4"/>
              <g id="Grupo_1119419" data-name="Grupo 1119419" transform="translate(24.796 4.618)">
                <path id="Trazado_917261" data-name="Trazado 917261" d="M251.365,241.214a8.833,8.833,0,0,1,5.364,7.112" transform="translate(-224.012 -234.8)" fill="none" stroke="#202020" stroke-linecap="round" stroke-linejoin="round" stroke-width="1"/>
                <path id="Trazado_917262" data-name="Trazado 917262" d="M211.414,231.459c-8.57-2.28-17.027-3.765-25.695-5.638" transform="translate(-185.719 -225.821)" fill="none" stroke="#202020" stroke-linecap="round" stroke-linejoin="round" stroke-width="1"/>
              </g>
              <line id="Línea_643" data-name="Línea 643" x1="25.342" y1="11.01" transform="translate(1.099 12.026)" fill="none" stroke="#202020" stroke-linecap="round" stroke-linejoin="round" stroke-width="1"/>
            </g>
            <g id="Grupo_1119423" data-name="Grupo 1119423">
              <g id="Grupo_1119421" data-name="Grupo 1119421">
                <path id="Trazado_917263" data-name="Trazado 917263" d="M114.073,219.319c-2.959-.72-6.218-.476-9.1-1.175-.945-.8-1.428-2.809-.075-3.468-2.324-.12-1.388-3.517.449-3.794a1.951,1.951,0,0,1,1.017-3.571c-1.428-2.731,2.8-3.907,5.056-3.3a1.917,1.917,0,0,1,.282-2.04c2.671,1.8,6.333,2.792,7.633,5.808" transform="translate(-103.521 -201.975)" fill="#af8566"/>
              </g>
              <g id="Grupo_1119422" data-name="Grupo 1119422" transform="translate(1.355 2.068)">
                <path id="Trazado_917264" data-name="Trazado 917264" d="M122.557,206.939a9.792,9.792,0,0,1,3.553,1.713" transform="translate(-115.98 -206.939)" fill="none" stroke="#202020" stroke-linecap="round" stroke-linejoin="round" stroke-width="1"/>
                <path id="Trazado_917265" data-name="Trazado 917265" d="M110.226,214.765a11.664,11.664,0,0,1,3.084.2" transform="translate(-108.787 -211.489)" fill="none" stroke="#202020" stroke-linecap="round" stroke-linejoin="round" stroke-width="1"/>
                <path id="Trazado_917266" data-name="Trazado 917266" d="M108.008,223.074a10.615,10.615,0,0,1,3.448.063" transform="translate(-107.493 -216.286)" fill="none" stroke="#202020" stroke-linecap="round" stroke-linejoin="round" stroke-width="1"/>
                <path id="Trazado_917267" data-name="Trazado 917267" d="M106.773,232.215a8.594,8.594,0,0,1,2.912.021" transform="translate(-106.773 -221.617)" fill="none" stroke="#202020" stroke-linecap="round" stroke-linejoin="round" stroke-width="1"/>
              </g>
            </g>
          </g>
        </g>
        <g id="Grupo_1119492" data-name="Grupo 1119492" transform="translate(0 116.066)">
          <g id="Grupo_1119428" data-name="Grupo 1119428" transform="translate(0 37.863)">
            <path id="Trazado_917268" data-name="Trazado 917268" d="M0,448.952v-12.19c73.207-20.925,186.164-40.132,306.641-4.2a466.357,466.357,0,0,1,46.022,16.394Z" transform="translate(0 -412.487)" fill="#445c21"/>
            <g id="Grupo_1119427" data-name="Grupo 1119427" transform="translate(286.072 20.644)">
              <g id="Grupo_1119426" data-name="Grupo 1119426">
                <path id="Trazado_917269" data-name="Trazado 917269" d="M702.76,468.5c3.194-1.4-1.1-8.879-3.658-5.681C696.951,465.149,700,469.137,702.76,468.5Z" transform="translate(-693.454 -462.033)" fill="#75a335"/>
                <path id="Trazado_917270" data-name="Trazado 917270" d="M723.167,473.918c2.307,2.981,4.251-.257,1.2-2.7C721.885,469.17,721.9,472.523,723.167,473.918Z" transform="translate(-707.423 -467.015)" fill="#75a335"/>
                <path id="Trazado_917271" data-name="Trazado 917271" d="M745.93,483.539c.116,1.744,1.581,4.172,3.561,3.832C754.081,484.34,746.091,478.149,745.93,483.539Z" transform="translate(-721.193 -473.337)" fill="#75a335"/>
                <path id="Trazado_917272" data-name="Trazado 917272" d="M688.776,482.942c2.392.264,1.372-4.788-.587-4.573C685.643,478.927,686.274,482.829,688.776,482.942Z" transform="translate(-686.562 -471.558)" fill="#75a335"/>
              </g>
            </g>
          </g>
          <g id="Grupo_1119491" data-name="Grupo 1119491" transform="translate(3.096)">
            <g id="Grupo_1119463" data-name="Grupo 1119463" transform="translate(172.425)">
              <g id="Grupo_1119460" data-name="Grupo 1119460">
                <g id="Grupo_1119432" data-name="Grupo 1119432" transform="translate(0 14.69)">
                  <g id="Grupo_1119431" data-name="Grupo 1119431">
                    <g id="Grupo_1119429" data-name="Grupo 1119429" transform="translate(60.857 2.766)">
                      <path id="Trazado_917273" data-name="Trazado 917273" d="M609.66,381.383l-38.766-17.873-3.594,15.75Z" transform="translate(-567.3 -363.511)" fill="#3d2f28"/>
                    </g>
                    <g id="Grupo_1119430" data-name="Grupo 1119430">
                      <path id="Trazado_917274" data-name="Trazado 917274" d="M485.7,359.638l-64.451-2.766,14.032,16.17,46.825,2.346Z" transform="translate(-421.246 -356.872)" fill="#3d2f28"/>
                    </g>
                  </g>
                </g>
                <g id="Grupo_1119459" data-name="Grupo 1119459" transform="translate(5.396)">
                  <g id="Grupo_1119434" data-name="Grupo 1119434" transform="translate(51.108 0.263)">
                    <g id="Grupo_1119433" data-name="Grupo 1119433">
                      <path id="Trazado_917275" data-name="Trazado 917275" d="M562.52,327.461a11.5,11.5,0,0,1,1.458-3.325,3.772,3.772,0,0,1,6.366-.267c1.6,1.885,1.864,4.527,2.059,6.991l1.911,24.154a6.48,6.48,0,0,1-.348,3.425c-.907,1.815-3.212,2.348-5.231,2.564a16.56,16.56,0,0,1-7.2-.447,7.292,7.292,0,0,1-4.518-4.061c-.512-1.51.328-3.363.541-4.876.73-5.183,1.541-10.355,2.676-15.467C560.883,333.226,561.633,330.323,562.52,327.461Z" transform="translate(-556.854 -322.249)" fill="#f5de41"/>
                      <path id="Trazado_917276" data-name="Trazado 917276" d="M573.517,323.731a200.782,200.782,0,0,0-3.337,24.775" transform="translate(-564.627 -323.113)" fill="none" stroke="#ecb53a" stroke-miterlimit="10" stroke-width="1"/>
                      <path id="Trazado_917277" data-name="Trazado 917277" d="M585.769,323.843q1.858,11.2,2.648,22.543" transform="translate(-573.721 -323.179)" fill="none" stroke="#ecb53a" stroke-miterlimit="10" stroke-width="1"/>
                      <path id="Trazado_917278" data-name="Trazado 917278" d="M571.132,331.591a2.544,2.544,0,0,0,2.1.867,17.665,17.665,0,0,0,3.455.039,5.972,5.972,0,0,0,3.171-1.26" transform="translate(-565.183 -327.492)" fill="none" stroke="#ecb53a" stroke-miterlimit="10" stroke-width="1"/>
                      <path id="Trazado_917279" data-name="Trazado 917279" d="M568.365,343.2a13.737,13.737,0,0,0,10.6,1.1" transform="translate(-563.569 -334.473)" fill="none" stroke="#ecb53a" stroke-miterlimit="10" stroke-width="1"/>
                      <path id="Trazado_917280" data-name="Trazado 917280" d="M565.991,352.842a14.489,14.489,0,0,0,12.007,1.8" transform="translate(-562.184 -340.095)" fill="none" stroke="#ecb53a" stroke-miterlimit="10" stroke-width="1"/>
                      <path id="Trazado_917281" data-name="Trazado 917281" d="M564.589,363.792a19.661,19.661,0,0,0,12.35,2.5" transform="translate(-561.366 -346.482)" fill="none" stroke="#ecb53a" stroke-miterlimit="10" stroke-width="1"/>
                    </g>
                    <path id="Trazado_917282" data-name="Trazado 917282" d="M560.9,362.4a15.238,15.238,0,0,1,7.153,8.428,38.183,38.183,0,0,1,7.241-9.888c.767,3.363,1.534,6.731,2.039,10.143.554,3.74.777,7.647-.45,11.224a9.222,9.222,0,0,1-3.416,4.8,8.218,8.218,0,0,1-7.26.605,10.473,10.473,0,0,1-6.232-6.57,15.505,15.505,0,0,1-.287-5.278q.1-3.151.372-6.293Q560.367,365.978,560.9,362.4Z" transform="translate(-558.457 -344.82)" fill="#6c9631"/>
                  </g>
                  <g id="Grupo_1119438" data-name="Grupo 1119438" transform="translate(62.809 5.2)">
                    <g id="Grupo_1119437" data-name="Grupo 1119437" transform="translate(1.098)">
                      <path id="Trazado_917283" data-name="Trazado 917283" d="M592.816,344.568c.716-3.058,1.512-6.268,3.665-8.554a5.265,5.265,0,0,1,4.405-1.877,4.878,4.878,0,0,1,3.542,3.1,13.132,13.132,0,0,1,.727,4.839c.072,4.661-.185,9.321-.461,13.975a44.368,44.368,0,0,1-1.614,11.067,9.217,9.217,0,0,1-3.314,5.034,7.418,7.418,0,0,1-4.641,1.057,8.639,8.639,0,0,1-5.961-2.877,6.788,6.788,0,0,1-1.593-4.248c-.014-1.388.783-2.481,1.1-3.8q1.334-5.667,2.656-11.337Z" transform="translate(-587.571 -334.097)" fill="#ecb53a"/>
                      <g id="Grupo_1119436" data-name="Grupo 1119436" transform="translate(4.568 0.264)">
                        <g id="Grupo_1119435" data-name="Grupo 1119435">
                          <path id="Trazado_917284" data-name="Trazado 917284" d="M606.139,334.73a77.684,77.684,0,0,0-6.225,22.189" transform="translate(-599.339 -334.73)" fill="none" stroke="#f5de41" stroke-linecap="round" stroke-linejoin="round" stroke-width="1"/>
                          <path id="Trazado_917285" data-name="Trazado 917285" d="M619.148,337.639q-2.518,10.1-4.117,20.4" transform="translate(-608.157 -336.427)" fill="none" stroke="#f5de41" stroke-linecap="round" stroke-linejoin="round" stroke-width="1"/>
                          <path id="Trazado_917286" data-name="Trazado 917286" d="M607.529,340.042a24.746,24.746,0,0,0,8.74,1.67" transform="translate(-603.781 -337.829)" fill="none" stroke="#f5de41" stroke-linecap="round" stroke-linejoin="round" stroke-width="1"/>
                          <path id="Trazado_917287" data-name="Trazado 917287" d="M602.982,348.686a21.044,21.044,0,0,0,10.956,3.232" transform="translate(-601.128 -342.871)" fill="none" stroke="#f5de41" stroke-linecap="round" stroke-linejoin="round" stroke-width="1"/>
                          <path id="Trazado_917288" data-name="Trazado 917288" d="M600.037,360.939a24.069,24.069,0,0,0,10.748,3.815" transform="translate(-599.41 -350.018)" fill="none" stroke="#f5de41" stroke-linecap="round" stroke-linejoin="round" stroke-width="1"/>
                          <path id="Trazado_917289" data-name="Trazado 917289" d="M598.533,374.593a28.6,28.6,0,0,0,10.22,3.222" transform="translate(-598.533 -357.983)" fill="none" stroke="#f5de41" stroke-linecap="round" stroke-linejoin="round" stroke-width="1"/>
                        </g>
                      </g>
                    </g>
                    <path id="Trazado_917290" data-name="Trazado 917290" d="M591.506,354.52l1.11,11.862c-.035-.378.855-1.392,1.069-1.722q.622-.956,1.287-1.882a32.174,32.174,0,0,1,2.63-3.262q3.038-3.262,6.373-6.229a126.123,126.123,0,0,1-1.953,24.966,16.377,16.377,0,0,1-1.033,4.11,7.022,7.022,0,0,1-2.652,3.012c-1.189.809-3.019.626-4.363.3a16.6,16.6,0,0,1-6.114-3.35,6.966,6.966,0,0,1-2.868-3.727,6.72,6.72,0,0,1,.354-2.762q.32-1.448.676-2.888c.978-3.968,2.136-7.889,3.358-11.787C590.074,358.941,590.79,356.73,591.506,354.52Z" transform="translate(-584.935 -345.291)" fill="#445c21"/>
                  </g>
                  <g id="Grupo_1119442" data-name="Grupo 1119442" transform="translate(71.56 12.621)">
                    <g id="Grupo_1119441" data-name="Grupo 1119441" transform="translate(1.527)">
                      <path id="Trazado_917291" data-name="Trazado 917291" d="M622.336,358.169c2.193-2.238,4.475-4.535,7.384-5.7a6.739,6.739,0,0,1,2.888-.553,3.745,3.745,0,0,1,2.62,1.208,4.532,4.532,0,0,1,.93,2.687,15.364,15.364,0,0,1-1.732,7.123,82.8,82.8,0,0,1-11.6,18.135,10.774,10.774,0,0,1-4.442,3.732,6.488,6.488,0,0,1-6.813-2,8.87,8.87,0,0,1-1.869-7.065,14.838,14.838,0,0,1,3.341-6.937c1.857-2.387,3.666-4.74,5.738-6.953C619.95,360.6,621.143,359.387,622.336,358.169Z" transform="translate(-609.602 -351.909)" fill="#f5de41"/>
                      <g id="Grupo_1119440" data-name="Grupo 1119440" transform="translate(8.981 0.408)">
                        <g id="Grupo_1119439" data-name="Grupo 1119439">
                          <path id="Trazado_917292" data-name="Trazado 917292" d="M631.683,373.493a72.155,72.155,0,0,1,9.593-16.1c1.377-1.8,2.9-3.612,4.977-4.5" transform="translate(-631.463 -352.889)" fill="none" stroke="#ecb53a" stroke-miterlimit="10" stroke-width="1"/>
                          <path id="Trazado_917293" data-name="Trazado 917293" d="M651.664,354.429c-2.814,8.206-7.784,15.471-12.7,22.622" transform="translate(-635.713 -353.787)" fill="none" stroke="#ecb53a" stroke-miterlimit="10" stroke-width="1"/>
                          <path id="Trazado_917294" data-name="Trazado 917294" d="M653.477,355.6a13.322,13.322,0,0,0,8,4.6" transform="translate(-644.176 -354.473)" fill="none" stroke="#ecb53a" stroke-miterlimit="10" stroke-width="1"/>
                          <path id="Trazado_917295" data-name="Trazado 917295" d="M644.949,362.955a14.747,14.747,0,0,0,9.769,6.373" transform="translate(-639.202 -358.761)" fill="none" stroke="#ecb53a" stroke-miterlimit="10" stroke-width="1"/>
                          <path id="Trazado_917296" data-name="Trazado 917296" d="M636.535,373.1a18.153,18.153,0,0,0,6.112,6.075,19.952,19.952,0,0,0,2.794,1.386q.831.336,1.686.605" transform="translate(-634.294 -364.68)" fill="none" stroke="#ecb53a" stroke-miterlimit="10" stroke-width="1"/>
                          <path id="Trazado_917297" data-name="Trazado 917297" d="M631.156,386.958a33.205,33.205,0,0,0,7.606,5.257,2.59,2.59,0,0,0,.957.327" transform="translate(-631.156 -372.762)" fill="none" stroke="#ecb53a" stroke-miterlimit="10" stroke-width="1"/>
                        </g>
                      </g>
                    </g>
                    <path id="Trazado_917298" data-name="Trazado 917298" d="M606.261,390.179c-.8-1.988.04-4.495.878-6.352a29.363,29.363,0,0,1,3.391-5.432,98.522,98.522,0,0,1,7.634-8.71c1.369,4.164.96,8.677.537,13.04a82.4,82.4,0,0,1,12.268-6.744c-.983,5.5-4.107,10.393-7.656,14.712a18.836,18.836,0,0,1-4.495,4.26,7.64,7.64,0,0,1-5.948,1.085,10.108,10.108,0,0,1-3.79-2.336A9.832,9.832,0,0,1,606.261,390.179Z" transform="translate(-605.937 -362.278)" fill="#6c9631"/>
                  </g>
                  <g id="Grupo_1119446" data-name="Grupo 1119446" transform="translate(33.654 3.07)">
                    <g id="Grupo_1119445" data-name="Grupo 1119445">
                      <path id="Trazado_917299" data-name="Trazado 917299" d="M520.322,342.3c1.29-3.837,2.628-7.762,5.326-10.966,1.106-1.314,2.748-2.585,4.565-2.305a3.8,3.8,0,0,1,2.431,1.56,7.449,7.449,0,0,1,1.085,2.558,43.278,43.278,0,0,1,1.083,8.774q.408,8.035.479,16.079a6.809,6.809,0,0,1-.565,3.4c-.984,1.8-3.348,2.6-5.548,2.988a18.422,18.422,0,0,1-8.544-.289c-2.221-.687-6.519-3-5.525-5.551,1.3-3.325,2.1-6.835,3.208-10.22C518.973,346.309,519.648,344.3,520.322,342.3Z" transform="translate(-514.962 -328.986)" fill="#ecb53a"/>
                      <g id="Grupo_1119444" data-name="Grupo 1119444" transform="translate(7.044 0.243)">
                        <g id="Grupo_1119443" data-name="Grupo 1119443">
                          <path id="Trazado_917300" data-name="Trazado 917300" d="M539,329.569a105.4,105.4,0,0,0-7.131,23.816" transform="translate(-531.868 -329.569)" fill="none" stroke="#f5de41" stroke-linecap="round" stroke-linejoin="round" stroke-width="1"/>
                          <path id="Trazado_917301" data-name="Trazado 917301" d="M555.158,331.6q.036,13.387-.694,26.762" transform="translate(-545.049 -330.751)" fill="none" stroke="#f5de41" stroke-linecap="round" stroke-linejoin="round" stroke-width="1"/>
                          <path id="Trazado_917302" data-name="Trazado 917302" d="M540.633,335.533a21.721,21.721,0,0,0,8.306,3.237" transform="translate(-536.981 -333.048)" fill="none" stroke="#f5de41" stroke-linecap="round" stroke-linejoin="round" stroke-width="1"/>
                          <path id="Trazado_917303" data-name="Trazado 917303" d="M535,343.495a38.01,38.01,0,0,0,11.42,4.819" transform="translate(-533.697 -337.692)" fill="none" stroke="#f5de41" stroke-linecap="round" stroke-linejoin="round" stroke-width="1"/>
                          <path id="Trazado_917304" data-name="Trazado 917304" d="M533.882,355.517a28.183,28.183,0,0,0,11.638,4.33" transform="translate(-533.043 -344.705)" fill="none" stroke="#f5de41" stroke-linecap="round" stroke-linejoin="round" stroke-width="1"/>
                          <path id="Trazado_917305" data-name="Trazado 917305" d="M532.148,368.949a32.115,32.115,0,0,0,11.538,4.542" transform="translate(-532.031 -352.54)" fill="none" stroke="#f5de41" stroke-linecap="round" stroke-linejoin="round" stroke-width="1"/>
                        </g>
                      </g>
                    </g>
                    <path id="Trazado_917306" data-name="Trazado 917306" d="M522.9,345.017a27.744,27.744,0,0,1,7,18.487c2.157-5.231,4.335-10.539,5.03-16.154q1.332,8.963,1.8,18.026c.221,4.256.253,8.726-1.693,12.517a37.943,37.943,0,0,1-8.174.4,12.735,12.735,0,0,1-7.472-3.014,11.813,11.813,0,0,1-3.092-5.053,10.329,10.329,0,0,1-.658-2.95,7.16,7.16,0,0,1,.5-1.989c.591-2.177.773-4.48,1.333-6.678a56.451,56.451,0,0,1,5.422-13.6Z" transform="translate(-515.363 -338.337)" fill="#445c21"/>
                  </g>
                  <g id="Grupo_1119450" data-name="Grupo 1119450">
                    <g id="Grupo_1119449" data-name="Grupo 1119449" transform="translate(0.745)">
                      <path id="Trazado_917307" data-name="Trazado 917307" d="M449.744,331.025c1.273,5.193,2.544,10.389,3.567,15.638a119.68,119.68,0,0,1,1.849,12.761c.091,1.069.106,2.15.215,3.216a5.615,5.615,0,0,1-.032,2.325,6.118,6.118,0,0,1-3.081,3.615,10.871,10.871,0,0,1-6.522.765c-2.815-.407-5.681-1.508-7.43-3.75a10.271,10.271,0,0,1-1.9-4.714,30.621,30.621,0,0,1-.245-5.124q.039-4.7.077-9.4c.024-2.958-.2-5.858-.248-8.818-.04-2.32,0-4.643.153-6.96a15.284,15.284,0,0,1,1.065-5.315,6.025,6.025,0,0,1,3.9-3.527c2.3-.532,4.7.835,6.086,2.741A18.237,18.237,0,0,1,449.744,331.025Z" transform="translate(-435.983 -321.618)" fill="#f5de41"/>
                      <g id="Grupo_1119448" data-name="Grupo 1119448" transform="translate(1.114 0.438)">
                        <g id="Grupo_1119447" data-name="Grupo 1119447">
                          <path id="Trazado_917308" data-name="Trazado 917308" d="M444.77,323.539a195.1,195.1,0,0,0,4.4,24.36" transform="translate(-442.223 -323.177)" fill="none" stroke="#ecb53a" stroke-miterlimit="10" stroke-width="1"/>
                          <path id="Trazado_917309" data-name="Trazado 917309" d="M454.83,322.67q3.641,11.809,6.389,23.869" transform="translate(-448.091 -322.67)" fill="none" stroke="#ecb53a" stroke-miterlimit="10" stroke-width="1"/>
                          <path id="Trazado_917310" data-name="Trazado 917310" d="M439.679,328.1q4.524-.663,9-1.629" transform="translate(-439.253 -324.886)" fill="none" stroke="#ecb53a" stroke-miterlimit="10" stroke-width="1"/>
                          <path id="Trazado_917311" data-name="Trazado 917311" d="M438.657,336.337a75.8,75.8,0,0,0,11.264-2.4" transform="translate(-438.657 -329.243)" fill="none" stroke="#ecb53a" stroke-miterlimit="10" stroke-width="1"/>
                          <path id="Trazado_917312" data-name="Trazado 917312" d="M440.956,348.574a54.443,54.443,0,0,0,11.316-2.871" transform="translate(-439.998 -336.106)" fill="none" stroke="#ecb53a" stroke-miterlimit="10" stroke-width="1"/>
                          <path id="Trazado_917313" data-name="Trazado 917313" d="M443.852,358.989a46.382,46.382,0,0,0,10.932-4.514" transform="translate(-441.687 -341.223)" fill="none" stroke="#ecb53a" stroke-miterlimit="10" stroke-width="1"/>
                        </g>
                      </g>
                    </g>
                    <path id="Trazado_917314" data-name="Trazado 917314" d="M448.009,334.917c2.727,7.444,7.523,23.757,3.331,30.861-3.277,4.035-9.656,2.448-12.375-1.481-2.963-3.873-3.348-8.951-3.782-13.648-.828-5.735-1.673-9.881-.12-15.667,4.8,3.771,7.473,9.62,9.376,15.423A45.55,45.55,0,0,1,448.009,334.917Z" transform="translate(-434.195 -329.376)" fill="#6c9631"/>
                  </g>
                  <g id="Grupo_1119454" data-name="Grupo 1119454" transform="translate(9.493 0.677)">
                    <g id="Grupo_1119453" data-name="Grupo 1119453" transform="translate(0.058)">
                      <path id="Trazado_917315" data-name="Trazado 917315" d="M468.679,328.407a12.331,12.331,0,0,1,3.95-4.414c1.723-1.006,4.138-1.1,5.557.307,1.352,1.335,1.392,3.475,1.267,5.372-.612,9.312-3.027,18.421-6.047,27.25-.6,1.763-1.348,3.664-2.969,4.584a6.955,6.955,0,0,1-4.841.313,14.589,14.589,0,0,1-6.591-2.976,4.8,4.8,0,0,1-1.879-2.633,8.942,8.942,0,0,1,.821-3.1,122.811,122.811,0,0,1,6.119-16.149A84.483,84.483,0,0,1,468.679,328.407Z" transform="translate(-457.116 -323.242)" fill="#ecb53a"/>
                      <g id="Grupo_1119452" data-name="Grupo 1119452" transform="translate(5.74 0.163)">
                        <g id="Grupo_1119451" data-name="Grupo 1119451">
                          <path id="Trazado_917316" data-name="Trazado 917316" d="M483.659,323.634a113.494,113.494,0,0,0-12.38,25.691" transform="translate(-471.117 -323.634)" fill="none" stroke="#f5de41" stroke-linecap="round" stroke-linejoin="round" stroke-width="1"/>
                          <path id="Trazado_917317" data-name="Trazado 917317" d="M494.4,326.52q-5.041,12.928-9.488,26.076" transform="translate(-479.07 -325.317)" fill="none" stroke="#f5de41" stroke-linecap="round" stroke-linejoin="round" stroke-width="1"/>
                          <path id="Trazado_917318" data-name="Trazado 917318" d="M490.834,328.126a12.834,12.834,0,0,0,8.072,3.283" transform="translate(-482.524 -326.254)" fill="none" stroke="#f5de41" stroke-linecap="round" stroke-linejoin="round" stroke-width="1"/>
                          <path id="Trazado_917319" data-name="Trazado 917319" d="M484.491,336.766a27.731,27.731,0,0,0,10.056,5.164" transform="translate(-478.824 -331.294)" fill="none" stroke="#f5de41" stroke-linecap="round" stroke-linejoin="round" stroke-width="1"/>
                          <path id="Trazado_917320" data-name="Trazado 917320" d="M478.924,346.352a37,37,0,0,0,11.5,6.83" transform="translate(-475.577 -336.886)" fill="none" stroke="#f5de41" stroke-linecap="round" stroke-linejoin="round" stroke-width="1"/>
                          <path id="Trazado_917321" data-name="Trazado 917321" d="M475.921,359.688a34.158,34.158,0,0,0,10.259,5.491" transform="translate(-473.825 -344.665)" fill="none" stroke="#f5de41" stroke-linecap="round" stroke-linejoin="round" stroke-width="1"/>
                          <path id="Trazado_917322" data-name="Trazado 917322" d="M470.891,370.059a44.225,44.225,0,0,0,9.5,4.886" transform="translate(-470.891 -350.715)" fill="none" stroke="#f5de41" stroke-linecap="round" stroke-linejoin="round" stroke-width="1"/>
                        </g>
                      </g>
                    </g>
                    <path id="Trazado_917323" data-name="Trazado 917323" d="M464.557,351.923a65.2,65.2,0,0,1,2.226,13.585,39.641,39.641,0,0,1,12.059-10.714,56.34,56.34,0,0,1-2.972,14.831c-1.122,3.454-2.666,7.114-5.833,8.891a8.885,8.885,0,0,1-8.061.116,10.646,10.646,0,0,1-4.108-3.6c-1.2-1.75-.966-2.6-.576-4.535a56.221,56.221,0,0,1,3.81-12.172A52.059,52.059,0,0,1,464.557,351.923Z" transform="translate(-456.977 -339.972)" fill="#445c21"/>
                  </g>
                  <g id="Grupo_1119458" data-name="Grupo 1119458" transform="translate(24.978 6.702)">
                    <g id="Grupo_1119457" data-name="Grupo 1119457" transform="translate(0.092)">
                      <path id="Trazado_917324" data-name="Trazado 917324" d="M506.76,342.832c2.666,4.829,5.118,9.778,7.3,14.845a132.118,132.118,0,0,1,4.954,14.356,4.5,4.5,0,0,1,.1,3.3c-.643,1.258-2.223,1.646-3.613,1.9l-7.04,1.279a9.741,9.741,0,0,1-5.03.022,6.507,6.507,0,0,1-3.361-3.166,19.174,19.174,0,0,1-1.505-4.464c-2.005-8.108-3.954-16.3-4.184-24.654a13.235,13.235,0,0,1,.336-3.975c.775-2.738,4.086-5.127,6.987-4.462C504.089,338.362,505.575,340.686,506.76,342.832Z" transform="translate(-494.361 -337.702)" fill="#f5de41"/>
                      <g id="Grupo_1119456" data-name="Grupo 1119456" transform="translate(0.139 0.227)">
                        <g id="Grupo_1119455" data-name="Grupo 1119455">
                          <path id="Trazado_917325" data-name="Trazado 917325" d="M499.327,343.464a207.863,207.863,0,0,0,6.8,20.5" transform="translate(-497.397 -341.291)" fill="none" stroke="#ecb53a" stroke-miterlimit="10" stroke-width="1"/>
                          <path id="Trazado_917326" data-name="Trazado 917326" d="M509.453,338.248q3.693,10.571,7.935,20.938" transform="translate(-503.304 -338.248)" fill="none" stroke="#ecb53a" stroke-miterlimit="10" stroke-width="1"/>
                          <path id="Trazado_917327" data-name="Trazado 917327" d="M494.7,346.516a26.963,26.963,0,0,0,10.116-3.409" transform="translate(-494.696 -341.082)" fill="none" stroke="#ecb53a" stroke-miterlimit="10" stroke-width="1"/>
                          <path id="Trazado_917328" data-name="Trazado 917328" d="M494.822,356.677a60.712,60.712,0,0,0,12.323-5.365" transform="translate(-494.769 -345.869)" fill="none" stroke="#ecb53a" stroke-miterlimit="10" stroke-width="1"/>
                          <path id="Trazado_917329" data-name="Trazado 917329" d="M495.718,365.739a98.742,98.742,0,0,0,13.938-4.49" transform="translate(-495.292 -351.665)" fill="none" stroke="#ecb53a" stroke-miterlimit="10" stroke-width="1"/>
                          <path id="Trazado_917330" data-name="Trazado 917330" d="M498.425,376.175a35.909,35.909,0,0,0,15.086-4.7" transform="translate(-496.871 -357.633)" fill="none" stroke="#ecb53a" stroke-miterlimit="10" stroke-width="1"/>
                        </g>
                      </g>
                    </g>
                    <path id="Trazado_917331" data-name="Trazado 917331" d="M494.141,367.319A26.761,26.761,0,0,1,505.829,374,83.3,83.3,0,0,1,509.3,360.68c2.659,5.041,5.333,10.118,7.01,15.565a15.722,15.722,0,0,1,.8,4.013,6.206,6.206,0,0,1-6.567,6.785,14.878,14.878,0,0,1-6.324-1.54c-1.373-.607-2.708-1.3-4.085-1.9-1.02-.445-2.108-.518-2.435-1.68-.868-3.083-1.522-6.243-2.28-9.355Z" transform="translate(-494.141 -351.106)" fill="#6c9631"/>
                  </g>
                </g>
              </g>
              <g id="Grupo_1119462" data-name="Grupo 1119462" transform="translate(10.227 30.86)">
                <path id="Trazado_917332" data-name="Trazado 917332" d="M524.272,439.148l14.507-39-89.185-4.468-3.805,43.467Z" transform="translate(-445.789 -395.681)" fill="#ac7053"/>
                <path id="Trazado_917333" data-name="Trazado 917333" d="M449.594,395.681l74.678,43.467H445.789Z" transform="translate(-445.789 -395.681)" fill="#734937"/>
                <g id="Grupo_1119461" data-name="Grupo 1119461" transform="translate(1.106 7.143)">
                  <line id="Línea_644" data-name="Línea 644" x2="86.126" transform="translate(1.247 9.455)" fill="none" stroke="#3d2f28" stroke-miterlimit="10" stroke-width="1"/>
                  <line id="Línea_645" data-name="Línea 645" x2="80.462" y2="4.338" transform="translate(0 23.695)" fill="none" stroke="#3d2f28" stroke-miterlimit="10" stroke-width="1"/>
                  <path id="Trazado_917334" data-name="Trazado 917334" d="M459.385,453.371a1.7,1.7,0,0,1,1.718-1.69,1.74,1.74,0,0,1,1.889,1.536,1.7,1.7,0,0,1-1.718,1.69A1.74,1.74,0,0,1,459.385,453.371Z" transform="translate(-454.824 -435.489)" fill="#3d2f28"/>
                  <path id="Trazado_917335" data-name="Trazado 917335" d="M461.386,414.425a1.606,1.606,0,0,1,1.627-1.6,1.648,1.648,0,0,1,1.789,1.455,1.607,1.607,0,0,1-1.627,1.6A1.648,1.648,0,0,1,461.386,414.425Z" transform="translate(-455.992 -412.823)" fill="#3d2f28"/>
                  <path id="Trazado_917336" data-name="Trazado 917336" d="M648.458,418.89a1.608,1.608,0,0,1,1.627-1.6,1.648,1.648,0,0,1,1.789,1.455,1.607,1.607,0,0,1-1.627,1.6A1.648,1.648,0,0,1,648.458,418.89Z" transform="translate(-565.116 -415.427)" fill="#3d2f28"/>
                  <path id="Trazado_917337" data-name="Trazado 917337" d="M633.152,459.678a1.606,1.606,0,0,1,1.627-1.6,1.648,1.648,0,0,1,1.789,1.455,1.606,1.606,0,0,1-1.627,1.6A1.648,1.648,0,0,1,633.152,459.678Z" transform="translate(-556.188 -439.22)" fill="#3d2f28"/>
                  <path id="Trazado_917338" data-name="Trazado 917338" d="M620.1,487.827a1.607,1.607,0,0,1,1.627-1.6,1.648,1.648,0,0,1,1.789,1.455,1.607,1.607,0,0,1-1.627,1.6A1.648,1.648,0,0,1,620.1,487.827Z" transform="translate(-548.571 -455.64)" fill="#3d2f28"/>
                  <path id="Trazado_917339" data-name="Trazado 917339" d="M457.086,488.144a1.638,1.638,0,0,1-1.778-1.446,1.6,1.6,0,0,1,1.616-1.59,1.637,1.637,0,0,1,1.777,1.445A1.6,1.6,0,0,1,457.086,488.144Z" transform="translate(-452.446 -454.988)" fill="#3d2f28"/>
                </g>
              </g>
            </g>
            <g id="Grupo_1119476" data-name="Grupo 1119476" transform="translate(0 7.819)">
              <g id="Grupo_1119473" data-name="Grupo 1119473" transform="translate(0)">
                <path id="Trazado_917340" data-name="Trazado 917340" d="M46.2,359.638,7.432,377.511l42.36-2.122,46.825-2.346,14.032-16.17Z" transform="translate(-7.432 -350.002)" fill="#3d2f28"/>
                <g id="Grupo_1119472" data-name="Grupo 1119472" transform="translate(6.27)">
                  <g id="Grupo_1119464" data-name="Grupo 1119464" transform="translate(7.2 2.159)">
                    <path id="Trazado_917341" data-name="Trazado 917341" d="M41.655,366.067a10.561,10.561,0,0,1-1.839-5.329,11.351,11.351,0,0,1,1.549-7.178,7.427,7.427,0,0,1,6.236-3.509,9.769,9.769,0,0,0,2.52.033,8.916,8.916,0,0,0,1.855-.854,8.06,8.06,0,0,1,7.035.142A10.817,10.817,0,0,1,63.89,354.6a16.58,16.58,0,0,1,1.368,7.1,11.866,11.866,0,0,1-1.724,6.58c-1.966,2.9-5.636,4.188-9.131,4.4a15.846,15.846,0,0,1-7.928-1.425,10.835,10.835,0,0,1-5.445-5.793" transform="translate(-39.759 -347.271)" fill="#d56d42"/>
                    <path id="Trazado_917342" data-name="Trazado 917342" d="M54.5,347.768a1.288,1.288,0,0,0-.523.187.564.564,0,0,0-.26.469.669.669,0,0,0,.433.523,2.615,2.615,0,0,0,1.668,0,1.765,1.765,0,0,0-.931,1.39.811.811,0,0,0,.275.757.838.838,0,0,0,.752.013,2.128,2.128,0,0,0,1.336-1.71,1.827,1.827,0,0,0,.575,1.069,1.317,1.317,0,0,0,1.152.3,1.134,1.134,0,0,0,.121-2.163,1.847,1.847,0,0,0,1.3-.9.834.834,0,0,0,.019-.928.937.937,0,0,0-.974-.145,4.475,4.475,0,0,0-1.756,1.018,3.575,3.575,0,0,0,.313-.859,1.205,1.205,0,0,0-.145-.882.736.736,0,0,0-.793-.319.978.978,0,0,0-.568.752,2.433,2.433,0,0,0-.041.912c.027.187.235.6-.083.638a1.711,1.711,0,0,1-.441-.1,3.771,3.771,0,0,0-.463-.066A3.813,3.813,0,0,0,54.5,347.768Z" transform="translate(-47.902 -345.565)" fill="#445c21"/>
                  </g>
                  <g id="Grupo_1119465" data-name="Grupo 1119465" transform="translate(44.435 0.291)">
                    <path id="Trazado_917343" data-name="Trazado 917343" d="M129.39,353.831a9.212,9.212,0,0,0-.268,2.358,10.013,10.013,0,0,0,2.99,6.856,13.614,13.614,0,0,0,4.764,3.118,15.732,15.732,0,0,0,11.545-.281,9.634,9.634,0,0,0,5.706-9.424c-.183-4.7-3.55-9.421-8.193-10.591a7.872,7.872,0,0,0-6.821,1.352,8.494,8.494,0,0,0-7.1,2.113A9.052,9.052,0,0,0,129.39,353.831Z" transform="translate(-129.121 -343.724)" fill="#d56d42"/>
                    <path id="Trazado_917344" data-name="Trazado 917344" d="M140.9,344.071a.774.774,0,0,0-.443.642.755.755,0,0,0,.5.572,1.956,1.956,0,0,0,1.637-.018,2.5,2.5,0,0,0-.869.848.86.86,0,0,0,.209,1.1,1.059,1.059,0,0,0,1.094-.15,3.058,3.058,0,0,0,1.158-1.394,2.05,2.05,0,0,0,.5,1.53,1.192,1.192,0,0,0,.868.255,1.271,1.271,0,0,0,1.137-.986,1.028,1.028,0,0,0-.837-1.176,4.922,4.922,0,0,0,1.427-.15,1.775,1.775,0,0,0,1.1-.86,1.1,1.1,0,0,0-.232-1.313,1.21,1.21,0,0,0-1.068-.162,3.529,3.529,0,0,0-.991.516,2.587,2.587,0,0,0,.405-.882,1.28,1.28,0,0,0-.137-.942.858.858,0,0,0-.827-.408c-.4.064-.668.444-.862.8a3.868,3.868,0,0,0-.415,1.038,1.773,1.773,0,0,0,.092,1.1.956.956,0,0,0-.96-.6c-.272.027-.355.18-.5.373-.117.16-.4-.007-.592-.03A2.222,2.222,0,0,0,140.9,344.071Z" transform="translate(-135.735 -341.082)" fill="#445c21"/>
                  </g>
                  <g id="Grupo_1119466" data-name="Grupo 1119466" transform="translate(22.532 4.851)">
                    <path id="Trazado_917345" data-name="Trazado 917345" d="M97.64,356.882c6.592,11.791-3.249,20.849-15.12,16.613-8.326-2.838-8.2-18.39,2.043-17.1C86.479,350.884,94.7,353.678,97.64,356.882Z" transform="translate(-76.554 -352.746)" fill="#c85426"/>
                    <path id="Trazado_917346" data-name="Trazado 917346" d="M89.249,356.309a2.678,2.678,0,0,1-1.981-.3c-.225-.135-.452-.357-.411-.617.038-.236.281-.379.509-.451a2.279,2.279,0,0,1,1.192-.05,2.14,2.14,0,0,1-.605-.518.725.725,0,0,1-.083-.754.827.827,0,0,1,.929-.273,1.66,1.66,0,0,1,1.082.9,3.1,3.1,0,0,1,1.114-1.939.9.9,0,0,1,.831-.244.629.629,0,0,1,.38.53,1.007,1.007,0,0,1-.188.647A1.556,1.556,0,0,1,93.236,353a.827.827,0,0,1,.531.329.734.734,0,0,1-.124.848,1.645,1.645,0,0,1-.8.435,4.6,4.6,0,0,1-1.221.18,1.591,1.591,0,0,1,.863.769.879.879,0,0,1-.246,1.063.946.946,0,0,1-.97-.022,2.777,2.777,0,0,1-.736-.7,1.115,1.115,0,0,1-1.745.419" transform="translate(-82.561 -352.027)" fill="#445c21"/>
                  </g>
                  <g id="Grupo_1119467" data-name="Grupo 1119467" transform="translate(69.102)">
                    <path id="Trazado_917347" data-name="Trazado 917347" d="M188.428,356.774a11.579,11.579,0,0,1,4.665-7.717,9.408,9.408,0,0,1,4.279-1.745,6.934,6.934,0,0,1,4.487.919,4.727,4.727,0,0,1,4.11-1.2,7.376,7.376,0,0,1,3.849,2.1,10.278,10.278,0,0,1-.336,15.021,13.5,13.5,0,0,1-7.636,3.088,34.073,34.073,0,0,1-8.34-.427,5.761,5.761,0,0,1-2.422-.749,2.516,2.516,0,0,1-.884-1.349,17.448,17.448,0,0,1-1.789-4.974A11.3,11.3,0,0,1,188.428,356.774Z" transform="translate(-188.322 -344.22)" fill="#c85426"/>
                    <path id="Trazado_917348" data-name="Trazado 917348" d="M210.353,342.03a1.025,1.025,0,0,0-.908.527.945.945,0,0,0,.325,1,2.17,2.17,0,0,0,1.208.5,6.474,6.474,0,0,0,1.326-.023c-.343.064-.529.428-.664.75a1.352,1.352,0,0,0-.151.895.8.8,0,0,0,.72.525,1.175,1.175,0,0,0,.854-.349,2.293,2.293,0,0,0,.505-.795,1.644,1.644,0,0,0,.721,1.055,1.356,1.356,0,0,0,1.258.092,1.157,1.157,0,0,0,.668-1.046,1.01,1.01,0,0,0-.77-.943,13.629,13.629,0,0,1,1.346-.624,1.248,1.248,0,0,0,.765-1.164,1.044,1.044,0,0,0-.472-.682,1.5,1.5,0,0,0-.867-.256,2.011,2.011,0,0,0-1.232.521,5.973,5.973,0,0,0-.892,1.028,2.623,2.623,0,0,0,.223-1.821,1.032,1.032,0,0,0-.652-.819,1.018,1.018,0,0,0-.986.508,2.431,2.431,0,0,0-.271,2.271A2.008,2.008,0,0,0,210.353,342.03Z" transform="translate(-200.616 -340.384)" fill="#445c21"/>
                  </g>
                  <g id="Grupo_1119468" data-name="Grupo 1119468" transform="translate(23.99 10.14)">
                    <path id="Trazado_917349" data-name="Trazado 917349" d="M102.453,378.515c-7.51-15.563-29.725-2.686-19.958,11.564,8.4,10.839,25.844.395,19.252-11.991" transform="translate(-80.055 -368.63)" fill="#d56d42"/>
                    <path id="Trazado_917350" data-name="Trazado 917350" d="M100.085,366.781a3.568,3.568,0,0,0-.527.073,2.461,2.461,0,0,0-1.431.841,1.016,1.016,0,0,0-.212,1.017,1.066,1.066,0,0,0,.692.5,2.534,2.534,0,0,0,2.092-.305,3.181,3.181,0,0,0-1.264.885,1.093,1.093,0,0,0,.034,1.42,1.446,1.446,0,0,0,.728.283,2.258,2.258,0,0,0,1.038-.01,2.326,2.326,0,0,0,1.258-1.328c-.229.474.291,1.349.7,1.572a1.308,1.308,0,0,0,1.58-.381,1.492,1.492,0,0,0-.083-1.777,2,2,0,0,0,2.95.908,1.427,1.427,0,0,0,.69-1.155,1.747,1.747,0,0,0-1.1-1.389,4.145,4.145,0,0,0-2.6-.369c.257-.408.653-.711.936-1.1a1.189,1.189,0,0,0,.153-1.344,1.14,1.14,0,0,0-.861-.4,2.725,2.725,0,0,0-2.665,2.667c-.122-.367-.568-.5-.951-.553A5.731,5.731,0,0,0,100.085,366.781Z" transform="translate(-90.435 -364.72)" fill="#445c21"/>
                  </g>
                  <g id="Grupo_1119469" data-name="Grupo 1119469" transform="translate(0 14.418)">
                    <path id="Trazado_917351" data-name="Trazado 917351" d="M27.6,381.716a13.751,13.751,0,0,1,11.416-2.574,12.008,12.008,0,0,1,4.81,2.267,11.411,11.411,0,0,1,4.051,10.129,12.526,12.526,0,0,1-6.123,9.131,13.893,13.893,0,0,1-11.012,1.13,12.5,12.5,0,0,1-5.683-3.615,10.442,10.442,0,0,1-2.582-6.656,13.036,13.036,0,0,1,2.333-6.793A13.373,13.373,0,0,1,27.6,381.716Z" transform="translate(-22.479 -377.218)" fill="#c85426"/>
                    <path id="Trazado_917352" data-name="Trazado 917352" d="M26.305,381.9c-.206.326-.425.789-.122,1.135a.705.705,0,0,0,.645.2,1.57,1.57,0,0,0,.633-.3A4.269,4.269,0,0,0,28.97,381q-.047.866-.095,1.733a2.1,2.1,0,0,0,.035.668.708.708,0,0,0,.414.5.682.682,0,0,0,.608-.118,1.559,1.559,0,0,0,.407-.493,4.534,4.534,0,0,0,.518-3.151,2.376,2.376,0,0,0,1.585.986,1.311,1.311,0,0,0,1.425-1,1.239,1.239,0,0,0-.558-1.151,1.909,1.909,0,0,0-1.291-.272,4.784,4.784,0,0,0,2.825-1.246,1.208,1.208,0,0,0,.487-.946.94.94,0,0,0-.62-.712,2.291,2.291,0,0,0-1.558.06,5.4,5.4,0,0,0-2.875,2.291,3.009,3.009,0,0,0-.431-2.662,1.051,1.051,0,0,0-.751-.5,1.193,1.193,0,0,0-.969.664,3.1,3.1,0,0,0-.238,1.674,3.166,3.166,0,0,0,.915,1.83c-.1-.1-.969.559-1.069.643a4.26,4.26,0,0,0-.855.964c-.229.354-.334.771-.558,1.118Z" transform="translate(-24.552 -374.986)" fill="#445c21"/>
                  </g>
                  <g id="Grupo_1119470" data-name="Grupo 1119470" transform="translate(64.347 7.252)">
                    <path id="Trazado_917353" data-name="Trazado 917353" d="M181.147,368.577c-11.833,13.7,3.451,26.26,17.24,18.318,8.851-5.446,7.9-17.685-.91-21.542C193.383,363.561,184.882,364.431,181.147,368.577Z" transform="translate(-176.909 -361.686)" fill="#d56d42"/>
                    <path id="Trazado_917354" data-name="Trazado 917354" d="M209.55,359.415a5.06,5.06,0,0,0-1.929.241c-.26.077-.56.214-.6.483a.655.655,0,0,0,.332.56,2.5,2.5,0,0,0,2.347.313,2.6,2.6,0,0,0-1.484.661,1.36,1.36,0,0,0-.4.579.708.708,0,0,0,.114.675.955.955,0,0,0,.946.171,2.832,2.832,0,0,0,1.639-1.129,4.569,4.569,0,0,0-.071,1.763,1.555,1.555,0,0,0,1.128,1.238,1.278,1.278,0,0,0,1.354-.782,1.539,1.539,0,0,0-.317-1.572,2.494,2.494,0,0,0,2.918.948,1.34,1.34,0,0,0,.932-1.1,1.474,1.474,0,0,0-.632-1.1,3.848,3.848,0,0,0-2.673-.865,3.529,3.529,0,0,0,1.25-.734,1.2,1.2,0,0,0,.283-1.337,1.335,1.335,0,0,0-.978-.6,2.327,2.327,0,0,0-1.9.479,1.869,1.869,0,0,0-.6,1.908A2.472,2.472,0,0,0,209.55,359.415Z" transform="translate(-194.474 -357.789)" fill="#445c21"/>
                  </g>
                  <g id="Grupo_1119471" data-name="Grupo 1119471" transform="translate(43.655 7.98)">
                    <path id="Trazado_917355" data-name="Trazado 917355" d="M151.5,385.434c5.4-4.661,6.408-14.132.272-18.6-7.785-4.173-19.471-2.5-23.4,6.133C122.354,387.384,142.047,394.345,151.5,385.434Z" transform="translate(-127.249 -362.52)" fill="#c85426"/>
                    <path id="Trazado_917356" data-name="Trazado 917356" d="M165.194,362.86a1.975,1.975,0,0,0-1.391.472,1.2,1.2,0,0,0-.3,1.372,1.563,1.563,0,0,0,1.181.71,3.636,3.636,0,0,0,2.292-.373,4.1,4.1,0,0,0-1.257,1.442,1.244,1.244,0,1,0,2.1,1.328,4.1,4.1,0,0,0,.751-1.729,3.144,3.144,0,0,0,1.043,2.908,1.5,1.5,0,0,0,1.419.392,1.438,1.438,0,0,0,.765-.82,2.737,2.737,0,0,0-.535-2.923,1.506,1.506,0,0,0,.9.638,4.463,4.463,0,0,0,1.122.123,3.631,3.631,0,0,0,1.094-.085,1.224,1.224,0,0,0,.823-.674,1.485,1.485,0,0,0-.518-1.509,3.694,3.694,0,0,0-3.608-.867,1.96,1.96,0,0,0,.341-1.609,2.922,2.922,0,0,0-.838-1.45,2.124,2.124,0,0,0-1.27-.666,2,2,0,0,0-1.728.985,3.085,3.085,0,0,0-.2,2.98c-.187-.388-.37-.435-.768-.443C166.14,363.053,165.682,362.868,165.194,362.86Z" transform="translate(-148.336 -359.537)" fill="#445c21"/>
                  </g>
                </g>
              </g>
              <g id="Grupo_1119475" data-name="Grupo 1119475" transform="translate(0 23.041)">
                <path id="Trazado_917357" data-name="Trazado 917357" d="M21.939,439.148l-14.507-39,89.185-4.468,3.805,43.467Z" transform="translate(-7.431 -395.681)" fill="#ac7053"/>
                <path id="Trazado_917358" data-name="Trazado 917358" d="M7.431,406.4l92.991,39H21.939Z" transform="translate(-7.431 -401.936)" fill="#734937"/>
                <g id="Grupo_1119474" data-name="Grupo 1119474" transform="translate(4.975 4.15)">
                  <line id="Línea_646" data-name="Línea 646" y1="7.292" x2="85.134" transform="translate(0 6.401)" fill="none" stroke="#3d2f28" stroke-miterlimit="10" stroke-width="1"/>
                  <line id="Línea_647" data-name="Línea 647" x1="81.893" transform="translate(5.073 27.33)" fill="none" stroke="#3d2f28" stroke-miterlimit="10" stroke-width="1"/>
                  <ellipse id="Elipse_11776" data-name="Elipse 11776" cx="2.263" cy="2.025" rx="2.263" ry="2.025" transform="translate(0.257 4.141)" fill="#3d2f28"/>
                  <ellipse id="Elipse_11777" data-name="Elipse 11777" cx="1.687" cy="1.51" rx="1.687" ry="1.51" transform="translate(11.152 32.305)" fill="#3d2f28"/>
                  <path id="Trazado_917359" data-name="Trazado 917359" d="M39.1,453.478a1.669,1.669,0,1,1-1.659-1.484A1.579,1.579,0,0,1,39.1,453.478Z" transform="translate(-28.946 -432.679)" fill="#3d2f28"/>
                  <path id="Trazado_917360" data-name="Trazado 917360" d="M210.757,449.5a1.7,1.7,0,0,1,1.717-1.69,1.74,1.74,0,0,1,1.889,1.536,1.7,1.7,0,0,1-1.717,1.69A1.74,1.74,0,0,1,210.757,449.5Z" transform="translate(-131.011 -430.235)" fill="#3d2f28"/>
                  <path id="Trazado_917361" data-name="Trazado 917361" d="M205.82,407.242a1.607,1.607,0,0,1,1.627-1.6,1.648,1.648,0,0,1,1.789,1.455,1.606,1.606,0,0,1-1.627,1.6A1.648,1.648,0,0,1,205.82,407.242Z" transform="translate(-128.131 -405.64)" fill="#3d2f28"/>
                  <path id="Trazado_917362" data-name="Trazado 917362" d="M213.506,485.249a1.638,1.638,0,0,1-1.778-1.446,1.6,1.6,0,0,1,1.616-1.59,1.637,1.637,0,0,1,1.778,1.445A1.6,1.6,0,0,1,213.506,485.249Z" transform="translate(-131.578 -450.306)" fill="#3d2f28"/>
                </g>
              </g>
            </g>
            <g id="Grupo_1119490" data-name="Grupo 1119490" transform="translate(89.185 0.794)">
              <path id="Trazado_917363" data-name="Trazado 917363" d="M221.473,373.043l14.032-16.17h69.208l14.032,16.17Z" transform="translate(-221.473 -342.976)" fill="#4c2b21"/>
              <g id="Grupo_1119487" data-name="Grupo 1119487" transform="translate(4.555)">
                <g id="Grupo_1119477" data-name="Grupo 1119477" transform="translate(0 8.43)">
                  <path id="Trazado_917364" data-name="Trazado 917364" d="M235.366,359.073c3.443-3.671,4.135-8.986,7.041-12.791,3.662-3.439,9.828,0,9.363,4.864-.1,1.838-1.007,3.559-1.116,5.4.707,6.017,4.808,12.273-.96,17.442C239.429,382.873,226.492,369.319,235.366,359.073Z" transform="translate(-232.405 -344.417)" fill="#fff"/>
                  <path id="Trazado_917365" data-name="Trazado 917365" d="M250.1,347.887c-1.628,3.026,3.308,2.576,4.046.463.2,2.388,3.341,2,4.543.572.049,1.8,3.522,3.671,3.536.951C262,342.689,252.911,341.581,250.1,347.887Z" transform="translate(-242.534 -343.755)" fill="#445c21"/>
                </g>
                <g id="Grupo_1119478" data-name="Grupo 1119478" transform="translate(17.852 2)">
                  <path id="Trazado_917366" data-name="Trazado 917366" d="M278.968,358.307c-4.473-5.986-1.185-10.37.009-16.323-.28-3.151-4.236-6.179-2.363-9.431,2.323-3.24,8.5-1.658,9.917,1.767.89,2.132.152,4.865,1.622,6.647,3.749,2.525,8.288,4.77,9.232,9.761C300.112,364.036,286.74,367.665,278.968,358.307Z" transform="translate(-275.753 -329.759)" fill="#fff"/>
                  <path id="Trazado_917367" data-name="Trazado 917367" d="M283.032,365.655c.066.415.237.885.638,1.01.427.134.858-.2,1.113-.572a3.214,3.214,0,0,0,.534-2.27c-.1-.688-.925-1.975-1.747-1.29a2.317,2.317,0,0,0-.524,1.358A5.437,5.437,0,0,0,283.032,365.655Z" transform="translate(-279.751 -348.164)" fill="#e4e4e4"/>
                  <path id="Trazado_917368" data-name="Trazado 917368" d="M285.883,356.069a1.2,1.2,0,0,0,.172.511.522.522,0,0,0,.458.243.62.62,0,0,0,.386-.232,1.376,1.376,0,0,0,.257-1.35c-.106-.291-.682-1.043-1.073-.825C285.714,354.621,285.834,355.74,285.883,356.069Z" transform="translate(-281.419 -343.521)" fill="#e4e4e4"/>
                  <path id="Trazado_917369" data-name="Trazado 917369" d="M275.317,331.661c1.078-4.057,6.478-4.145,9.231-1.728,2.672,1.254,3.663,7.773-.4,4.693,1.208,3.34-3.453,2.488-4.541.426a1.75,1.75,0,0,1-.941,2.235C276.028,337.831,274.96,333.67,275.317,331.661Z" transform="translate(-275.25 -328.322)" fill="#445c21"/>
                </g>
                <g id="Grupo_1119480" data-name="Grupo 1119480" transform="translate(7.027 17.062)">
                  <g id="Grupo_1119479" data-name="Grupo 1119479" transform="translate(0.604 1.247)">
                    <path id="Trazado_917370" data-name="Trazado 917370" d="M270.829,393.239c-8.211,2.746-15.659-4.787-15.563-12.825-.353-3.12-4.063-4.722-4.538-7.675-.3-4.564,6-6.867,9.256-4.04a14.791,14.791,0,0,0,7.735,5.11C274.392,376.456,280.041,390.607,270.829,393.239Z" transform="translate(-250.718 -367.463)" fill="#e4e4e4"/>
                    <path id="Trazado_917371" data-name="Trazado 917371" d="M275.617,383.772a.859.859,0,0,0,.981-.132.8.8,0,0,0,.12-.511c-.031-.963-1.189-2.655-2.3-1.905C273.183,382.053,274.771,383.465,275.617,383.772Z" transform="translate(-264.278 -375.382)" fill="#fff"/>
                    <path id="Trazado_917372" data-name="Trazado 917372" d="M284,385.02a.87.87,0,0,0,.808.254.793.793,0,0,0,.366-.912c-.133-.733-1.128-1.8-1.975-1.466C282.331,383.235,283.623,384.709,284,385.02Z" transform="translate(-269.492 -376.429)" fill="#fff"/>
                  </g>
                  <path id="Trazado_917373" data-name="Trazado 917373" d="M249.557,369.337a5.933,5.933,0,0,0,1.953,5.433,1.5,1.5,0,0,0,1.35.458,1.139,1.139,0,0,0,.685-.762,3.375,3.375,0,0,0,.1-1.055,2.546,2.546,0,0,0,3.927-3.145,2.039,2.039,0,0,0,2.36.071,2.085,2.085,0,0,0,.789-2.234,3.444,3.444,0,0,0-.912-1.388,6.553,6.553,0,0,0-5.3-2.209,5.6,5.6,0,0,0-3.593,2.125,8.631,8.631,0,0,0-1.654,3.9" transform="translate(-249.269 -364.47)" fill="#445c21"/>
                </g>
                <g id="Grupo_1119481" data-name="Grupo 1119481" transform="translate(57.371)">
                  <path id="Trazado_917374" data-name="Trazado 917374" d="M393.369,355.173a10.905,10.905,0,0,0,.547-14.594c-2.989-3.517-8.111-5.011-10.33-9.058-.822-1.5-1.177-3.253-2.218-4.609a5.516,5.516,0,0,0-9.512,1.546c-.987,2.9.583,5.995.86,9.047.418,4.608-2.13,9.375-.6,13.741C375.16,358.754,389.192,364.549,393.369,355.173Z" transform="translate(-370.933 -324.277)" fill="#fff"/>
                  <path id="Trazado_917375" data-name="Trazado 917375" d="M395.9,344.242a.689.689,0,0,0,.564.305.482.482,0,0,0,.348-.276,1.065,1.065,0,0,0,.09-.45,2.8,2.8,0,0,0-.527-1.695c-.326-.451-1.313-.893-1.353-.007A3.359,3.359,0,0,0,395.9,344.242Z" transform="translate(-384.632 -334.073)" fill="#e4e4e4"/>
                  <path id="Trazado_917376" data-name="Trazado 917376" d="M388.37,379.5a2.264,2.264,0,0,0,.387,1.332,1.094,1.094,0,0,0,1.246.4,1.459,1.459,0,0,0,.7-.981,4.962,4.962,0,0,0,.138-2.235,2.287,2.287,0,0,0-.5-1.183,1.2,1.2,0,0,0-.9-.4c-.4.015-.464.321-.6.653A5.937,5.937,0,0,0,388.37,379.5Z" transform="translate(-380.753 -354.382)" fill="#e4e4e4"/>
                  <path id="Trazado_917377" data-name="Trazado 917377" d="M375.609,323.549c-6.289-.141-7.249,13.241-2.628,6.27,1.166,2.611,4.671.405,4.016-1.97C382.87,333.335,384,322.938,375.609,323.549Z" transform="translate(-370.093 -323.523)" fill="#445c21"/>
                </g>
                <g id="Grupo_1119482" data-name="Grupo 1119482" transform="translate(42.871 9.581)">
                  <path id="Trazado_917378" data-name="Trazado 917378" d="M356.466,367.628c-.9,5.3-5.57,10.474-11.277,9.914-12.566-1.148-12.719-14.966-2.973-20.582,8.371-2.679,10.2-11.425,15.446-8.744,3.543,2.79.049,7.169-.889,10.4C356,361.53,356.878,364.64,356.466,367.628Z" transform="translate(-335.294 -347.214)" fill="#e4e4e4"/>
                  <path id="Trazado_917379" data-name="Trazado 917379" d="M369.172,364.1a.811.811,0,0,0,.641-.108,1.741,1.741,0,0,0,.474-.467c.453-.612.624-2.066-.54-1.615C369.045,362.183,367.982,363.748,369.172,364.1Z" transform="translate(-354.744 -355.448)" fill="#fff"/>
                  <path id="Trazado_917380" data-name="Trazado 917380" d="M372.926,349.849a1.065,1.065,0,0,0,1.008.687,3.121,3.121,0,0,0,1.258-.309,4.015,4.015,0,0,0-.672,1.352,1.366,1.366,0,0,0,.42,1.375,1.584,1.584,0,0,0,1.1.226A3.629,3.629,0,0,0,378.377,352a4.652,4.652,0,0,0,0,1.57,1.577,1.577,0,0,0,.946,1.177,1.548,1.548,0,0,0,1.578-.516,3.843,3.843,0,0,0,.748-1.573,5.775,5.775,0,0,0,.041-3.753,4.071,4.071,0,0,0-3.1-2.318,5.465,5.465,0,0,0-3.614.695C374.242,347.733,372.648,348.844,372.926,349.849Z" transform="translate(-357.227 -346.517)" fill="#445c21"/>
                </g>
                <g id="Grupo_1119483" data-name="Grupo 1119483" transform="translate(35.097 2.566)">
                  <path id="Trazado_917381" data-name="Trazado 917381" d="M316.776,354.416c-1.07-6.166,4.256-8.011,7.051-12.234,2.159-2.686,2.1-6.787,4.617-9.1a4.733,4.733,0,0,1,7.728,3.7c-.056,2.1-1.492,3.952-1.621,6.044.683,5.629,5.333,10.375,2.045,16.461C331.86,368.823,316.615,365.071,316.776,354.416Z" transform="translate(-316.636 -331.022)" fill="#fff"/>
                  <path id="Trazado_917382" data-name="Trazado 917382" d="M355.761,367.129c.121.2.313.41.546.382s.373-.283.43-.514c.116-.475,0-2.124-.8-1.965C355,365.22,355.465,366.636,355.761,367.129Z" transform="translate(-339.236 -350.295)" fill="#e4e4e4"/>
                  <path id="Trazado_917383" data-name="Trazado 917383" d="M356.992,379a1.781,1.781,0,0,0,.678.738,1.094,1.094,0,0,0,.976.067,1.49,1.49,0,0,0,.69-1.336,2.383,2.383,0,0,0-.542-1.745c-.4-.43-1.381-.744-1.8-.173A2.559,2.559,0,0,0,356.992,379Z" transform="translate(-339.995 -356.84)" fill="#e4e4e4"/>
                  <path id="Trazado_917384" data-name="Trazado 917384" d="M339.732,332.733a1.846,1.846,0,0,0-.5,1.214,1.3,1.3,0,0,0,1.025,1.1,2.126,2.126,0,0,0,1.54-.314,6.326,6.326,0,0,0,1.217-1.05,5.628,5.628,0,0,0-.144,1.838,1.9,1.9,0,0,0,.979,1.483A1.855,1.855,0,0,0,346,336.31a4.194,4.194,0,0,0,.68-2.313,4.476,4.476,0,0,0,1.034,2.321,1.35,1.35,0,0,0,1.02.423,1.47,1.47,0,0,0,1.129-1.167,4.356,4.356,0,0,0-1.088-3.75,5.82,5.82,0,0,0-2.764-1.983C343.62,329.118,341.145,330.952,339.732,332.733Z" transform="translate(-329.814 -329.68)" fill="#445c21"/>
                </g>
                <g id="Grupo_1119485" data-name="Grupo 1119485" transform="translate(29.028 4.502)">
                  <path id="Trazado_917385" data-name="Trazado 917385" d="M320.547,355.989c-.03,5.249-3.8,9.718-8.623,10.241-5.893.5-11.7-7.077-9.293-12.868,3.6-6.168,3.816-6.146,3-13.839.2-3.152,3.53-5.338,6.3-3.4,3.132,2.273,2.554,6.852,4.22,10.009C318.145,349.152,321.179,352.118,320.547,355.989Z" transform="translate(-302.073 -334.948)" fill="#e4e4e4"/>
                  <g id="Grupo_1119484" data-name="Grupo 1119484" transform="translate(10.179 8.926)">
                    <path id="Trazado_917386" data-name="Trazado 917386" d="M328.406,357.86a1.152,1.152,0,0,0,.4.441.533.533,0,0,0,.567,0,.763.763,0,0,0,.238-.581c.045-.571-.035-2.167-.95-1.952C327.695,356,328.076,357.287,328.406,357.86Z" transform="translate(-327.402 -355.749)" fill="#fff"/>
                    <path id="Trazado_917387" data-name="Trazado 917387" d="M331.381,366.2a3.958,3.958,0,0,0,1.724,2.556.916.916,0,0,0,.771.184c.324-.115.443-.511.467-.854a3.64,3.64,0,0,0-.622-2.286,2.246,2.246,0,0,0-.946-.831,1.443,1.443,0,0,0-1.219.027C331.211,365.248,331.311,365.827,331.381,366.2Z" transform="translate(-329.307 -361.054)" fill="#fff"/>
                    <path id="Trazado_917388" data-name="Trazado 917388" d="M327.151,364.986c.717.033.617-1.457-.122-1.436C326.153,363.575,326.491,364.955,327.151,364.986Z" transform="translate(-326.502 -360.299)" fill="#fff"/>
                  </g>
                  <path id="Trazado_917389" data-name="Trazado 917389" d="M308.681,336.342a4.029,4.029,0,0,0-1.322,1.325,1.172,1.172,0,0,0-.087,1.028,1.081,1.081,0,0,0,.767.535,2.213,2.213,0,0,0,1.868-.6,6.54,6.54,0,0,0,1.2-1.635,5.063,5.063,0,0,0,.765,2.926,1.645,1.645,0,0,0,.9.787,1.527,1.527,0,0,0,1.552-.862,3.2,3.2,0,0,0,.171-2.887,4.279,4.279,0,0,0,1.585,1.4,1.239,1.239,0,0,0,.891.164,1.144,1.144,0,0,0,.653-1.158,2.961,2.961,0,0,0-1.312-2.337,4.322,4.322,0,0,0-2.648-.69,13.73,13.73,0,0,0-2.69.584A7.97,7.97,0,0,0,308.681,336.342Z" transform="translate(-305.056 -334.327)" fill="#445c21"/>
                </g>
                <g id="Grupo_1119486" data-name="Grupo 1119486" transform="translate(67.26 5.406)">
                  <path id="Trazado_917390" data-name="Trazado 917390" d="M410.192,372.632a10.312,10.312,0,0,1-16.064-6.138c-1.326-5.934,2.143-11.523,2.738-17.313.3-2.937-.051-6.333,2.02-8.71,2.92-3.351,8.642-1.678,9.915,2.418.716,2.009.462,4.27,1.216,6.265.994,2.631,3.536,4.334,5.057,6.7C418.758,361.57,415.655,369.243,410.192,372.632Z" transform="translate(-393.828 -337.772)" fill="#e4e4e4"/>
                  <path id="Trazado_917391" data-name="Trazado 917391" d="M399.939,386.1a.908.908,0,0,0,.14.59.678.678,0,0,0,.605.2,1.375,1.375,0,0,0,.911-.553,3.027,3.027,0,0,0,.391-2.525c-.261-.666-1.114-1.3-1.514-.45A6.764,6.764,0,0,0,399.939,386.1Z" transform="translate(-397.392 -363.601)" fill="#fff"/>
                  <path id="Trazado_917392" data-name="Trazado 917392" d="M404.674,377.529a.768.768,0,0,0,.324.437.587.587,0,0,0,.61-.083,1.225,1.225,0,0,0,.364-.529,1.667,1.667,0,0,0,.134-.862.847.847,0,0,0-1.3-.638C404.37,376.2,404.511,377.088,404.674,377.529Z" transform="translate(-400.062 -359.363)" fill="#fff"/>
                  <path id="Trazado_917393" data-name="Trazado 917393" d="M413.676,343.241c-.025-4.836-5.514-8.857-9.682-5.515-4.155,2.58-4.179,9.837-.19,5.778.27,4.76,5.05,3.094,5.232-.808C409.024,345.325,414.189,346.609,413.676,343.241Z" transform="translate(-397.921 -336.496)" fill="#445c21"/>
                </g>
              </g>
              <g id="Grupo_1119489" data-name="Grupo 1119489" transform="translate(0 30.066)">
                <path id="Trazado_917394" data-name="Trazado 917394" d="M221.473,395.681l3.805,43.467H314.94l3.805-43.467Z" transform="translate(-221.473 -395.681)" fill="#ac7053"/>
                <path id="Trazado_917395" data-name="Trazado 917395" d="M221.473,395.681l93.466,43.467H225.279Z" transform="translate(-221.473 -395.681)" fill="#734937"/>
                <g id="Grupo_1119488" data-name="Grupo 1119488" transform="translate(1.313 3.351)">
                  <line id="Línea_648" data-name="Línea 648" y1="2.66" x2="94.878" transform="translate(0 8.989)" fill="none" stroke="#3d2f28" stroke-miterlimit="10" stroke-width="1"/>
                  <line id="Línea_649" data-name="Línea 649" x1="91.627" y1="7.671" transform="translate(1.174 25.054)" fill="none" stroke="#3d2f28" stroke-miterlimit="10" stroke-width="1"/>
                  <path id="Trazado_917396" data-name="Trazado 917396" d="M437.192,409.149a1.795,1.795,0,1,1-1.784-1.6A1.7,1.7,0,0,1,437.192,409.149Z" transform="translate(-346.54 -405.957)" fill="#3d2f28"/>
                  <ellipse id="Elipse_11778" data-name="Elipse 11778" cx="1.784" cy="1.596" rx="1.784" ry="1.596" transform="translate(1.443)" fill="#3d2f28"/>
                  <path id="Trazado_917397" data-name="Trazado 917397" d="M238.5,448.691a1.795,1.795,0,1,1-1.784-1.6A1.7,1.7,0,0,1,238.5,448.691Z" transform="translate(-230.64 -429.024)" fill="#3d2f28"/>
                  <path id="Trazado_917398" data-name="Trazado 917398" d="M436.229,452.521a1.795,1.795,0,1,1-1.784-1.6A1.7,1.7,0,0,1,436.229,452.521Z" transform="translate(-345.978 -431.257)" fill="#3d2f28"/>
                  <path id="Trazado_917399" data-name="Trazado 917399" d="M240.217,486.7a1.795,1.795,0,1,1-1.784-1.6A1.7,1.7,0,0,1,240.217,486.7Z" transform="translate(-231.639 -451.196)" fill="#3d2f28"/>
                  <path id="Trazado_917400" data-name="Trazado 917400" d="M433.874,490.532a1.795,1.795,0,1,1-1.783-1.6A1.7,1.7,0,0,1,433.874,490.532Z" transform="translate(-344.605 -453.43)" fill="#3d2f28"/>
                </g>
              </g>
            </g>
          </g>
        </g>
      </g>
    </g>
  </g>
</svg>
