<svg xmlns="http://www.w3.org/2000/svg" width="190" height="212.035" viewBox="0 0 190 212.035">
  <g id="Grupo_1118909" data-name="Grupo 1118909" transform="translate(-180.051 -5952)">
    <rect id="Rectángulo_404801" data-name="Rectángulo 404801" width="190" height="212" transform="translate(180.051 5952)" fill="#9cc8ff"/>
    <g id="Layer_32" data-name="Layer 32" transform="translate(179.566 5972.976)">
      <path id="Trazado_909420" data-name="Trazado 909420" d="M11.519,27.707,25.972,13.254a7.693,7.693,0,0,1,10.5-.352L55.361,29.429l.2,11.947H10Z" transform="translate(19.388 20.376)" fill="#719301"/>
      <path id="Trazado_909421" data-name="Trazado 909421" d="M48.509,29.429,29.624,12.9A7.707,7.707,0,0,0,24.56,11c-.058,0-.109.015-.164.015L16.1,19.308A9.371,9.371,0,0,0,22.729,35.3H48.609Z" transform="translate(26.24 20.376)" fill="#82ab00"/>
      <path id="Trazado_909422" data-name="Trazado 909422" d="M1,21H189.334V148.581H1Z" transform="translate(1.049 40.753)" fill="#e49151"/>
      <path id="Trazado_909423" data-name="Trazado 909423" d="M55.113,60.113H97.64V51H46A9.113,9.113,0,0,0,55.113,60.113Z" transform="translate(92.743 101.882)" fill="#f7ac5e"/>
      <path id="Trazado_909424" data-name="Trazado 909424" d="M47.113,48.113h66.828V39H38A9.113,9.113,0,0,0,47.113,48.113Z" transform="translate(76.442 77.43)" fill="#f7ac5e"/>
      <path id="Trazado_909425" data-name="Trazado 909425" d="M39.113,36.113h91.129V27H30A9.113,9.113,0,0,0,39.113,36.113Z" transform="translate(60.141 52.979)" fill="#f7ac5e"/>
      <path id="Trazado_909426" data-name="Trazado 909426" d="M43.527,35.264,24.836,16.573A8.8,8.8,0,0,0,14.1,15.252L1,23.113V35.264Z" transform="translate(1.049 26.489)" fill="#8dbf00"/>
      <path id="Trazado_909427" data-name="Trazado 909427" d="M21,33.226,36.492,17.734a9.343,9.343,0,0,1,10.785-1.746l10.175,5.087,7.175-2.391a12.574,12.574,0,0,1,11.3,1.7L93.9,33.226Z" transform="translate(41.802 28.527)" fill="#8dbf00"/>
      <path id="Trazado_909428" data-name="Trazado 909428" d="M47,31.188,62.893,17.944a8.39,8.39,0,0,1,10.741,0L89.527,31.188" transform="translate(94.781 30.565)" fill="#719301"/>
      <circle id="Elipse_11778" data-name="Elipse 11778" cx="15.188" cy="15.188" r="15.188" transform="translate(126.593 4.038)" fill="#e73844"/>
      <g id="Grupo_1117955" data-name="Grupo 1117955" transform="translate(79.297 61.753)">
        <path id="Trazado_909429" data-name="Trazado 909429" d="M26.43,21a9.113,9.113,0,0,0,9.113,9.113H137.517V21Z" transform="translate(-26.43 -21)" fill="#f7ac5e"/>
        <path id="Trazado_909430" data-name="Trazado 909430" d="M34.72,33a9.113,9.113,0,0,0,9.113,9.113h76.792V33Z" transform="translate(-9.538 3.452)" fill="#f7ac5e"/>
        <path id="Trazado_909431" data-name="Trazado 909431" d="M43,45a9.113,9.113,0,0,0,9.113,9.113h51.64V45Z" transform="translate(7.334 27.903)" fill="#f7ac5e"/>
        <path id="Trazado_909432" data-name="Trazado 909432" d="M51,57a9.113,9.113,0,0,0,9.113,9.113H87.452V57Z" transform="translate(23.635 52.355)" fill="#f7ac5e"/>
      </g>
      <path id="Trazado_909433" data-name="Trazado 909433" d="M13.113,21,4,148.581H49.565L28.3,21Z" transform="translate(7.162 40.753)" fill="#b77743"/>
      <path id="Trazado_909434" data-name="Trazado 909434" d="M1,21V148.581h9.113L19.226,21Z" transform="translate(1.049 40.753)" fill="#b77743"/>
      <path id="Trazado_909435" data-name="Trazado 909435" d="M17,21,68.64,148.581h51.64L32.188,21Z" transform="translate(33.652 40.753)" fill="#b77743"/>
      <path id="Trazado_909436" data-name="Trazado 909436" d="M12,21,33.264,148.581H78.828L27.188,21Z" transform="translate(23.463 40.753)" fill="#b77743"/>
      <path id="Trazado_909437" data-name="Trazado 909437" d="M87.78,136.43A19.972,19.972,0,0,0,101.9,130.7L26.153,21H19.962L69.4,124.827a20.352,20.352,0,0,0,18.378,11.6Z" transform="translate(39.687 40.753)" fill="#ce8f4b"/>
      <path id="Trazado_909438" data-name="Trazado 909438" d="M20.977,21H15.048L41.33,121.346A20.14,20.14,0,0,0,67.274,135.37Z" transform="translate(29.674 40.753)" fill="#ce8f4b"/>
      <path id="Trazado_909439" data-name="Trazado 909439" d="M17.964,21H9.073l2.312,94.814a21.136,21.136,0,0,0,25.732,20.109Z" transform="translate(17.499 40.753)" fill="#ce8f4b"/>
      <path id="Trazado_909440" data-name="Trazado 909440" d="M15.151,21H3V134.748a4.714,4.714,0,0,0,3.7,4.6Z" transform="translate(5.125 40.753)" fill="#ce8f4b"/>
      <path id="Trazado_909441" data-name="Trazado 909441" d="M22.342,16.573a8.791,8.791,0,0,0-10.735-1.321L2.224,20.883a12.111,12.111,0,0,0,11.47,8.3H34.958Z" transform="translate(3.543 26.489)" fill="#a6d305"/>
      <path id="Trazado_909442" data-name="Trazado 909442" d="M65.277,20.383a12.573,12.573,0,0,0-11.294-1.7l-7.175,2.391L36.629,15.987a9.25,9.25,0,0,0-10.38,1.419A9.061,9.061,0,0,0,35.3,27.151H74.754Z" transform="translate(52.446 28.527)" fill="#a6d305"/>
      <path id="Trazado_909443" data-name="Trazado 909443" d="M58.675,17.875a8.387,8.387,0,0,0-4.18-1.841,7.5,7.5,0,0,0,7.345,9.01h5.437Z" transform="translate(109.74 30.634)" fill="#82ab00"/>
      <path id="Trazado_909444" data-name="Trazado 909444" d="M53.113,2A15.036,15.036,0,0,0,45.9,3.9,15.036,15.036,0,0,0,44,11.113,15.188,15.188,0,0,0,59.188,26.3,15.036,15.036,0,0,0,66.4,24.4a15.037,15.037,0,0,0,1.9-7.214A15.188,15.188,0,0,0,53.113,2Z" transform="translate(88.668 2.038)" fill="#ff4d55"/>
      <circle id="Elipse_11779" data-name="Elipse 11779" cx="15.188" cy="15.188" r="15.188" transform="translate(126.593 4.038)" fill="#e73844"/>
      <path id="Trazado_909445" data-name="Trazado 909445" d="M170.362,27.778a11.716,11.716,0,0,0-14.632,0L140.681,40.315h-4L119.491,28.037a15.7,15.7,0,0,0-14.022-2.105l-5.981,1.99-9.043-4.529a12.694,12.694,0,0,0-14.277,2.321l-1.519,1.534L57.9,12.59a10.993,10.993,0,0,0-14.651.489L30.907,25.388l-2.871-2.871a12.038,12.038,0,0,0-14.444-1.78L.485,28.6l3.129,5.207,13.1-7.858a5.869,5.869,0,0,1,7.029.866l13.5,13.5H2.049V46.39H17.013L8.125,170.718l6.075.431L23.1,46.39h9.787L53.732,171.432l5.99-1L39.048,46.39H48.6L99.476,172.073l5.632-2.278L55.157,46.39h9.089l87.18,126.269,5-3.451-9.289-13.463h43.247V149.67H142.941l-8.39-12.151h55.832v-6.075H130.356l-8.39-12.151h68.417v-6.075h-72.6l-8.39-12.151h80.99V94.992h-85.2L96.8,82.842h93.587V76.766H92.6L84.215,64.616H190.383V58.541H80.02L71.63,46.39H190.383V40.315h-4.976Zm-10.741,4.663a5.492,5.492,0,0,1,6.85,0l9.444,7.874H150.171Zm-71.91-3.612L97.9,33.936a2.986,2.986,0,0,0,2.318.161l7.175-2.388a9.6,9.6,0,0,1,8.572,1.285l10.267,7.321H70.135l10.3-10.307a6.476,6.476,0,0,1,7.272-1.179ZM35.2,29.683,47.508,17.374a4.775,4.775,0,0,1,6.355-.21L70.305,31.554l-8.761,8.761H45.834Z" transform="translate(0 18.4)"/>
      <path id="Trazado_909446" data-name="Trazado 909446" d="M77.452,19.226A18.226,18.226,0,1,0,59.226,37.452,18.226,18.226,0,0,0,77.452,19.226Zm-30.376,0A12.151,12.151,0,1,1,59.226,31.376,12.151,12.151,0,0,1,47.075,19.226Z" transform="translate(82.555)"/>
    </g>
  </g>
</svg>
