<svg xmlns="http://www.w3.org/2000/svg" width="71" height="71" viewBox="0 0 71 71">
  <g id="Grupo_1119179" data-name="Grupo 1119179" transform="translate(-194.051 -560)">
    <circle id="Elipse_11633" data-name="Elipse 11633" cx="35.5" cy="35.5" r="35.5" transform="translate(194.051 560)" fill="#fc0"/>
    <g id="Grupo_1119178" data-name="Grupo 1119178" transform="translate(199.301 564.782)">
      <path id="Trazado_913617" data-name="Trazado 913617" d="M61.254,83.175a26.4,26.4,0,1,1-26.4-26.4A26.4,26.4,0,0,1,61.254,83.175Zm0,0" transform="translate(-7.021 -50.075)" fill="#937de2"/>
      <path id="Trazado_913618" data-name="Trazado 913618" d="M201.431,56.777a26.624,26.624,0,0,0-4.1.318,26.4,26.4,0,0,1,0,52.158,26.4,26.4,0,1,0,4.1-52.475Zm0,0" transform="translate(-173.595 -50.075)" fill="#7570d6"/>
      <path id="Trazado_913619" data-name="Trazado 913619" d="M216.974,39.084,201.9,49.066a5.133,5.133,0,0,1-3.646.79,5.15,5.15,0,0,0-3.655.788l-2.017,1.337-11.3-16.652,2.772-11.974a12.493,12.493,0,0,0-1.755-9.718,2.988,2.988,0,0,1,4.571-3.8l1.8,1.739a19.2,19.2,0,0,1,4.632,7.1l.974,2.621L204.3,14.679a3.419,3.419,0,0,1,4.79,1.043,3.464,3.464,0,0,1-1.074,4.7.038.038,0,0,0-.014.047.038.038,0,0,0,.049.019,3.387,3.387,0,0,1,1.222-.227,3.417,3.417,0,0,1,3.357,4.082,3.494,3.494,0,0,1-1.434,2.165.073.073,0,0,0-.019.1,0,0,0,0,0,0,0,.072.072,0,0,0,.1.019,3.5,3.5,0,0,1,.829-.1,3.6,3.6,0,0,1,1.928.559,3.359,3.359,0,0,1,1,.978,3.418,3.418,0,0,1-.964,4.738l-.116.077a.054.054,0,0,0-.018.067.032.032,0,0,0,.012.012.055.055,0,0,0,.068,0,3.348,3.348,0,0,1,2.9.373,3.471,3.471,0,0,1,1.021,1.013A3.42,3.42,0,0,1,216.974,39.084Zm0,0" transform="translate(-159.446 -7.937)" fill="#fdd7bd"/>
      <path id="Trazado_913620" data-name="Trazado 913620" d="M42.155,234.8,35.8,239.011l-9.181,6.08a26.425,26.425,0,0,1-16.053-20.768l10.654-7.055,6.486-4.295a1.622,1.622,0,0,1,2.249.458l12.663,19.119A1.624,1.624,0,0,1,42.155,234.8Zm0,0" transform="translate(-8.875 -187.595)" fill="#87dbff"/>
      <path id="Trazado_913621" data-name="Trazado 913621" d="M121.763,234.8l-6.359,4.211-14.58-21.744,6.486-4.295a1.622,1.622,0,0,1,2.249.458l12.663,19.119A1.624,1.624,0,0,1,121.763,234.8Zm0,0" transform="translate(-88.482 -187.595)" fill="#6fc7ff"/>
      <g id="Grupo_1119177" data-name="Grupo 1119177" transform="translate(44.602 12.322)">
        <path id="Trazado_913622" data-name="Trazado 913622" d="M381.221,104.935l-5.016,2.684a1.625,1.625,0,0,1-2.073-.466l3.954-2.559a.038.038,0,0,0,.049.019,3.387,3.387,0,0,1,1.222-.227A3.443,3.443,0,0,1,381.221,104.935Zm0,0" transform="translate(-374.133 -104.387)" fill="#fac5aa"/>
        <path id="Trazado_913623" data-name="Trazado 913623" d="M406.588,158.086l-4.906,2.624a1.624,1.624,0,0,1-2.073-.465l3.954-2.559.171-.08a.072.072,0,0,0,.1.019,3.51,3.51,0,0,1,.829-.1A3.6,3.6,0,0,1,406.588,158.086Zm0,0" transform="translate(-396.602 -151.255)" fill="#fac5aa"/>
        <path id="Trazado_913624" data-name="Trazado 913624" d="M435.366,211.056l-4.322,2.312a1.626,1.626,0,0,1-2.072-.466l3.425-2.216a.055.055,0,0,0,.068,0A3.348,3.348,0,0,1,435.366,211.056Zm0,0" transform="translate(-422.5 -197.981)" fill="#fac5aa"/>
      </g>
      <path id="Trazado_913625" data-name="Trazado 913625" d="M59.274,25.891a4.329,4.329,0,0,0-2.681-1.845,4.353,4.353,0,0,0-2.9-6.276,4.364,4.364,0,0,0-.225-4.435,4.325,4.325,0,0,0-2.681-1.845,4.358,4.358,0,0,0-6.265-5.66L40.18,8.7a27.113,27.113,0,0,0-7.326-2.479,20.144,20.144,0,0,0-2.8-3.382L28.264,1.1A3.928,3.928,0,0,0,22.256,6.09q.071.107.139.215a27.337,27.337,0,1,0,31.16,36.079.94.94,0,1,0-1.767-.638A25.491,25.491,0,0,1,19.8,57.261L27.443,52.2h0L33.8,47.988h0a2.563,2.563,0,0,0,.722-3.552l-.084-.127,1.234-.817a4.186,4.186,0,0,1,2.983-.645,6.059,6.059,0,0,0,4.318-.934l10.238-6.78a25.512,25.512,0,0,1-.346,2.639.939.939,0,0,0,.752,1.1.917.917,0,0,0,.172.016.94.94,0,0,0,.923-.769,27.483,27.483,0,0,0,.449-4.274l2.885-1.911a4.359,4.359,0,0,0,1.227-6.041ZM38.356,9.911l-2.871,1.9-.565-1.523a20.11,20.11,0,0,0-.806-1.868A25.225,25.225,0,0,1,38.356,9.911ZM8.6,16.425A25.459,25.459,0,0,1,23.294,8.047a11.609,11.609,0,0,1,.586,7.031l-2.291,9.9a2.558,2.558,0,0,0-3.28-.382l-6.49,4.3h0l-9.36,6.2c-.051-.66-.078-1.326-.078-1.99A25.45,25.45,0,0,1,8.6,16.425ZM33.055,45.987a.681.681,0,0,1-.293.434h0l-5.581,3.7L16.823,34.669a.94.94,0,0,0-1.561,1.047L25.614,51.155l-7.967,5.276A25.536,25.536,0,0,1,2.7,37.146l9.371-6.185,1.078,1.609a.94.94,0,1,0,1.561-1.047l-1.071-1.6,5.7-3.765a.684.684,0,0,1,.947.193l12.662,19.12A.678.678,0,0,1,33.055,45.987Zm25.015-17.2a2.462,2.462,0,0,1-1.061,1.574l-3.3,2.184,0,0-11.772,7.8a4.184,4.184,0,0,1-2.983.645,6.062,6.062,0,0,0-4.318.934l-1.234.817L23.03,27.082,25.711,15.5a13.5,13.5,0,0,0-.989-8.863.921.921,0,0,0-.04-.083,13.292,13.292,0,0,0-.86-1.5,2.048,2.048,0,0,1,3.134-2.6l1.795,1.74a18.36,18.36,0,0,1,4.406,6.753l.977,2.633.006.014.007.018c.007.016.013.031.02.043a.927.927,0,0,0,.065.116.939.939,0,0,0,1.3.265L45.557,7.4a2.479,2.479,0,1,1,2.738,4.134l-.87.576h0l-1.941,1.285-.007.005-.03.023a.939.939,0,0,0,1.076,1.539l1.942-1.286A2.479,2.479,0,0,1,51.2,17.809l-2.812,1.862a.94.94,0,1,0,1.037,1.567l.435-.288,1.506-1A2.479,2.479,0,0,1,54.1,24.087l-1.4.93-.022.015-1.385.917a.94.94,0,1,0,1.037,1.567l.435-.288h0l1.506-1a2.479,2.479,0,0,1,3.8,2.56Zm0,0" transform="translate(0 0)"/>
    </g>
  </g>
</svg>
