<svg xmlns="http://www.w3.org/2000/svg" width="82.051" height="82.05" viewBox="0 0 82.051 82.05">
  <g id="Grupo_1119514" data-name="Grupo 1119514" transform="translate(0 0)">
    <path id="Trazado_917502" data-name="Trazado 917502" d="M74.866,44.691,71.237,46.35l-7.065-15.44A39.263,39.263,0,0,0,0,61.259c0,.653.018,1.3.049,1.947h0l1.677,1.12L.466,67.307a39,39,0,0,0,2.927,9.939l35.96,16.5,35.779-16.5a39.343,39.343,0,0,0-.266-32.554Z" transform="translate(0 -18.471)" fill="#fffbb3"/>
    <path id="Trazado_917503" data-name="Trazado 917503" d="M81.377,362.817a7.4,7.4,0,0,0-9.923,0,2.223,2.223,0,0,1-2.991,0,7.4,7.4,0,0,0-9.924,0,2.223,2.223,0,0,1-2.991,0,7.4,7.4,0,0,0-9.924,0,2.223,2.223,0,0,1-2.991,0,7.4,7.4,0,0,0-9.923,0,2.2,2.2,0,0,1-2.961.028,7.377,7.377,0,0,0-5.4-1.927,7.282,7.282,0,0,0-3.171.926,39.358,39.358,0,0,0,25.547,21.9l-.061-.018,4.689-3.569,3.772,4.912c.637.031,1.278.048,1.924.048l.281,0h0l3.809-4.956,4.623,3.988h0a39.121,39.121,0,0,0,16.287-8.019l2.086-7.612Z" transform="translate(-17.781 -303.07)" fill="#b66651"/>
    <path id="Trazado_917504" data-name="Trazado 917504" d="M48.654,232.257l-2.526,2.938a.779.779,0,0,1-1.194-.09l-2.812-3.746a4.5,4.5,0,0,1-.7-2.325,1.98,1.98,0,0,0-.3-.97l-1.531-2.46a3.58,3.58,0,1,0-6.079,3.783l1.531,2.46a1.985,1.985,0,0,0,.84.748,4.329,4.329,0,0,1,1.969,1.766l3.843,6.377a4.035,4.035,0,0,0,5.847,1.317l5.586-3.641.857-6.063Z" transform="translate(-27.691 -188.034)" fill="#ffaa7b"/>
    <path id="Trazado_917505" data-name="Trazado 917505" d="M20.957,222.228.309,231.349a39.426,39.426,0,0,0,.415,4.1l21.754-9.61,1.143-2.673Z" transform="translate(-0.259 -186.615)" fill="#45304c"/>
    <path id="Trazado_917506" data-name="Trazado 917506" d="M163.527,122.557l-8.493,3.752-6.581-.859-5.128,6.032L127.37,138.53c-.481,1.182-.794,3.02,1.521,3.616l5.506-2.432,10.02,1.2,3.092-7,17.7-7.819,1.724-3.545Z" transform="translate(-106.672 -102.916)" fill="#6c5475"/>
    <path id="Trazado_917507" data-name="Trazado 917507" d="M180.086,389.244c-.261,4.451-1.279,8.914-.98,13.363l.131,1.954A39.184,39.184,0,0,0,187.7,405.9l.19-6.728a.912.912,0,0,1,.912-.887l1.974-12.575Z" transform="translate(-150.358 -323.901)" fill="#1d2e79"/>
    <path id="Trazado_917508" data-name="Trazado 917508" d="M238.6,391.484l-3.908-3.1-4.8,3.1s-4.288,4.758,0,9.046a.912.912,0,0,1,.912.887l.191,6.772a39.367,39.367,0,0,0,8.431-.968l.159-2.373C239.882,400.4,238.864,395.935,238.6,391.484Z" transform="translate(-191.449 -326.142)" fill="#2a428b"/>
    <path id="Trazado_917509" data-name="Trazado 917509" d="M181.466,209.165l-3.294-.974-1.578.974-1.519-1.889H168.4l-1.289,2.26-1.808-1.345-3.294.974-3.273,7.767,3.747,6.317,8.453,6.227,10.061-6.227,3.133-5.914Z" transform="translate(-133.294 -174.059)" fill="#fe3d97"/>
    <g id="Grupo_1119514-2" data-name="Grupo 1119514" transform="translate(27.531 18.45)">
      <path id="Trazado_917510" data-name="Trazado 917510" d="M172.384,118.1a2.746,2.746,0,0,0,2.16,4.445h.537l1.759-6.093Z" transform="translate(-171.795 -116.241)" fill="#ffaa7b"/>
      <path id="Trazado_917511" data-name="Trazado 917511" d="M282.521,116.989l-4.153-1.86,1.455,6.306h.538a2.746,2.746,0,0,0,2.16-4.446Z" transform="translate(-261.289 -115.129)" fill="#ffaa7b"/>
      <path id="Trazado_917512" data-name="Trazado 917512" d="M222.84,180.132l-3.8,2.459v1.891a3.34,3.34,0,1,0,6.679,0v-1.891Z" transform="translate(-211.465 -169.715)" fill="#ffaa7b"/>
    </g>
    <path id="Trazado_917513" data-name="Trazado 917513" d="M190.063,217.61a2.034,2.034,0,0,1-2.034-2.034v-8.3l-3.1.915v6.66a12.737,12.737,0,0,1-1.578,6.14l-1.242,2.258.544,16.152h8.713l5.072-13.019Z" transform="translate(-152.928 -174.06)" fill="#2a428b"/>
    <path id="Trazado_917514" data-name="Trazado 917514" d="M306.485,311.879a4.944,4.944,0,0,0,.091-2.964l-1.84-7.087-4.894-.946-1.554,4.106L300.776,310a1.275,1.275,0,0,1,.089.892l-1.66,6.085a4.325,4.325,0,0,1-1.228,1.987,1.9,1.9,0,0,0-.508.833l-.8,2.672a3.443,3.443,0,0,0,6.6,1.964l.8-2.672a1.907,1.907,0,0,0,0-1.081,4.165,4.165,0,0,1,.016-2.544Z" transform="translate(-249.011 -252.663)" fill="#ffaa7b"/>
    <path id="Trazado_917515" data-name="Trazado 917515" d="M356.967,89.105,353.5,90.576a2.558,2.558,0,0,0-1.313,3.451l2.031,4.283a2.557,2.557,0,0,0,3.309,1.259l3.573-1.514.6-6.448Z" transform="translate(-295.536 -74.825)" fill="#e51e82"/>
    <path id="Trazado_917516" data-name="Trazado 917516" d="M196.656,46.485a12.915,12.915,0,0,0-6.772,1.892,2.621,2.621,0,0,0-1.191,1.708l-.285,1.41,9.44,2.277Z" transform="translate(-158.215 -39.035)" fill="#b66651"/>
    <path id="Trazado_917517" data-name="Trazado 917517" d="M242.185,50.085a2.621,2.621,0,0,0-1.191-1.708,12.916,12.916,0,0,0-6.772-1.892s-2.427,2.583,0,5.011l4.22,2.277L242.47,51.5Z" transform="translate(-195.781 -39.035)" fill="#ce7867"/>
    <path id="Trazado_917518" data-name="Trazado 917518" d="M191.834,77.751h-8.248l-.92,4.554,11.2,1.436Z" transform="translate(-153.393 -65.291)" fill="#8c3d2f"/>
    <path id="Trazado_917519" data-name="Trazado 917519" d="M244.3,77.751h-8.248a3.061,3.061,0,0,0,.709,4.554l5.016,1.648,3.443-1.648Z" transform="translate(-197.615 -65.291)" fill="#9e533b"/>
    <path id="Trazado_917520" data-name="Trazado 917520" d="M378.954,8.906a2.143,2.143,0,0,0-2.885-1.143l-6.658,3.072a.734.734,0,0,1-.974-.359l-1.079-2.34a.734.734,0,0,1,.359-.974l6.6-3.046a2.183,2.183,0,0,0,1.145-2.774A2.143,2.143,0,0,0,372.578.2l-9.27,4.277h0a2.144,2.144,0,0,0-1.048,2.844l5.634,12.212,3.285,1,.749-2.494-1.079-2.34a.734.734,0,0,1,.359-.974l6.6-3.046A2.183,2.183,0,0,0,378.954,8.906Z" transform="translate(-304.04 0)" fill="#fe3d97"/>
    <path id="Trazado_917521" data-name="Trazado 917521" d="M413.542,102.2l-6.594,3.042a.734.734,0,0,1-.974-.359l-1.079-2.34a.734.734,0,0,1,.359-.974l6.6-3.046A2.183,2.183,0,0,0,413,95.751a2.143,2.143,0,0,0-2.885-1.143l-6.658,3.072a.734.734,0,0,1-.974-.359s-3.133-1.586-4.033,1.491l4.836,10.482.009.018a2.143,2.143,0,0,0,2.835,1.03h0l9.271-4.277a2.144,2.144,0,0,0,1.031-2.88,2.19,2.19,0,0,0-2.892-.982Z" transform="translate(-334.598 -79.28)" fill="#fd77a6"/>
    <path id="Trazado_917522" data-name="Trazado 917522" d="M137.116,219.063l-7.629,7.263a1.261,1.261,0,0,0-.319,1.342,19.68,19.68,0,0,0,4.529,6.546,1.316,1.316,0,0,0,1.578.212c.938-.531,2.315-1.278,2.315-1.278Z" transform="translate(-108.406 -183.957)" fill="#e51e82"/>
    <path id="Trazado_917523" data-name="Trazado 917523" d="M298.113,219.063a10.228,10.228,0,0,1,3.682,4.106c.956,1.961,3.144,5.815,4.353,7.92a1.526,1.526,0,0,1-.685,2.146c-1.5.691-4.058,1.827-6.245,3.045l-1.58-3.133Z" transform="translate(-249.941 -183.957)" fill="#fd77a6"/>
    <path id="Trazado_917524" data-name="Trazado 917524" d="M393.342,361.844a7.279,7.279,0,0,0-3.171-.926,7.376,7.376,0,0,0-5.4,1.927,2.2,2.2,0,0,1-2.961-.028s-6.882,7.7.667,13.314a39.4,39.4,0,0,0,10.869-14.287Z" transform="translate(-318.209 -303.07)" fill="#ce7867"/>
    <path id="Trazado_917525" data-name="Trazado 917525" d="M200.192,111.382l-7.936,2.461V118a7.631,7.631,0,0,0,15.263,0v-4.16Z" transform="translate(-161.446 -93.532)" fill="#ffc7ab"/>
    <path id="Trazado_917526" data-name="Trazado 917526" d="M177.774,106.17h-25.22a1.648,1.648,0,0,0,0,3.3h25.22a1.648,1.648,0,0,0,0-3.3Z" transform="translate(-126.723 -89.156)" fill="#ce7867"/>
    <path id="Trazado_917527" data-name="Trazado 917527" d="M233.636,220.992a12.736,12.736,0,0,1-1.578-6.14v-6.66l-3.1-.915v8.3a2.034,2.034,0,0,1-2.034,2.034h-2.611s-2.6,1.5-.754,3.806l1.255,8.061s-3.84,5.281.8,9.925h8.713l.544-16.152Z" transform="translate(-187.18 -174.06)" fill="#3f57a0"/>
    <path id="Trazado_917528" data-name="Trazado 917528" d="M220.86,295.509h-6.479a1.011,1.011,0,0,0-1.008,1.008v5.133a1.925,1.925,0,0,0,1.92,1.92h4.654a1.925,1.925,0,0,0,1.92-1.92v-5.133A1.01,1.01,0,0,0,220.86,295.509Z" transform="translate(-179.18 -248.152)" fill="#1d2e79"/>
  </g>
</svg>
