<svg xmlns="http://www.w3.org/2000/svg" width="71" height="71" viewBox="0 0 71 71">
  <g id="Grupo_1119182" data-name="Grupo 1119182" transform="translate(-509.051 -560)">
    <circle id="Elipse_11634" data-name="Elipse 11634" cx="35.5" cy="35.5" r="35.5" transform="translate(509.051 560)" fill="#fc0"/>
    <g id="Grupo_1119181" data-name="Grupo 1119181" transform="translate(508.168 567.821)">
      <path id="Trazado_913626" data-name="Trazado 913626" d="M78.646,72a4.308,4.308,0,0,0-2.743.849,3.443,3.443,0,0,0-.773.849h-.28a.849.849,0,1,1,0-1.7Z" transform="translate(-33.371 -41.421)" fill="#81d9e3"/>
      <path id="Trazado_913627" data-name="Trazado 913627" d="M51.16,14V43.784a4.044,4.044,0,0,0-.747-.242c0-.454,0-.824,0-.824A4.214,4.214,0,0,0,49.2,39.746a4.073,4.073,0,0,0-.578-.48,2.7,2.7,0,0,0-.314-.191,2.56,2.56,0,0,0-.327-.157l-.11-.047a3.441,3.441,0,0,0-.463-.144q-.134-.032-.267-.051a.054.054,0,0,0-.026,0c-.085-.013-.17-.025-.255-.03s-.191-.013-.289-.013h-3.8a.849.849,0,1,0,0,1.7h.28A4.421,4.421,0,0,0,42.433,42a6.054,6.054,0,0,0-.085.9v5.784c-.132-.025-.263-.042-.395-.055q-.153-.013-.306-.013A4.07,4.07,0,0,0,38.157,50.7c-.722,1.338-.624,2.985.285,4.917a13.94,13.94,0,0,0,.858,1.537l.03.055H18.25V14Z" transform="translate(-1.295 -8.055)" fill="#e1ebf4"/>
      <path id="Trazado_913628" data-name="Trazado 913628" d="M75.945,20h-3.4a2.548,2.548,0,1,0,0,5.1h3.4a2.548,2.548,0,1,0,0-5.1Zm0,3.4h-3.4a.849.849,0,0,1,0-1.7h3.4a.849.849,0,0,1,0,1.7Z" transform="translate(-31.069 -11.507)" fill="#2d4356"/>
      <path id="Trazado_913629" data-name="Trazado 913629" d="M79.1,24.849a.852.852,0,0,1-.849.849h-3.4a.849.849,0,0,1,0-1.7h3.4A.852.852,0,0,1,79.1,24.849Z" transform="translate(-33.371 -13.809)" fill="#81d9e3"/>
      <circle id="Elipse_11858" data-name="Elipse 11858" cx="0.626" cy="0.626" r="0.626" transform="translate(36.026 10.544)" fill="#2d4356"/>
      <path id="Trazado_913630" data-name="Trazado 913630" d="M75.945,36h-3.4a2.548,2.548,0,1,0,0,5.1h3.4a2.548,2.548,0,1,0,0-5.1Zm0,3.4h-3.4a.849.849,0,0,1,0-1.7h3.4a.849.849,0,0,1,0,1.7Z" transform="translate(-31.069 -20.713)" fill="#2d4356"/>
      <path id="Trazado_913631" data-name="Trazado 913631" d="M79.1,40.849a.852.852,0,0,1-.849.849h-3.4a.849.849,0,1,1,0-1.7h3.4A.852.852,0,0,1,79.1,40.849Z" transform="translate(-33.371 -23.014)" fill="#81d9e3"/>
      <path id="Trazado_913632" data-name="Trazado 913632" d="M75.945,52h-3.4a2.548,2.548,0,1,0,0,5.1h3.4a2.548,2.548,0,1,0,0-5.1Zm0,3.4h-3.4a.849.849,0,1,1,0-1.7h3.4a.849.849,0,0,1,0,1.7Z" transform="translate(-31.069 -29.919)" fill="#2d4356"/>
      <path id="Trazado_913633" data-name="Trazado 913633" d="M79.1,56.849a.852.852,0,0,1-.849.849h-3.4a.849.849,0,0,1,0-1.7h3.4A.852.852,0,0,1,79.1,56.849Z" transform="translate(-33.371 -32.22)" fill="#81d9e3"/>
      <path id="Trazado_913634" data-name="Trazado 913634" d="M78.484,70.391a.506.506,0,0,0-.089-.055,2.7,2.7,0,0,0-.314-.191,2.558,2.558,0,0,0-.327-.157.859.859,0,0,0-.11-.047,3.439,3.439,0,0,0-.463-.144q-.134-.032-.268-.051a.054.054,0,0,0-.025,0c-.085-.013-.17-.025-.255-.03s-.191-.013-.289-.013h-3.8a.849.849,0,1,0,0,1.7h.3a4.568,4.568,0,0,0-.641,1.673,2.546,2.546,0,0,1,.34-5.07h3.4a2.548,2.548,0,0,1,2.539,2.391Z" transform="translate(-31.069 -39.124)" fill="#2d4356"/>
      <path id="Trazado_913635" data-name="Trazado 913635" d="M48.273,0H18.548A2.55,2.55,0,0,0,16,2.548V47.56a2.55,2.55,0,0,0,2.548,2.548H38.574L38,49.1c-.115-.174-.263-.412-.425-.688H18.548a.852.852,0,0,1-.849-.849V6.794H32.136V38.218a.849.849,0,0,0,1.7,0V6.794H49.122V35.483a4.039,4.039,0,0,1,1.7.807V2.548A2.55,2.55,0,0,0,48.273,0Zm.849,5.1H17.7V2.548a.852.852,0,0,1,.849-.849H48.273a.852.852,0,0,1,.849.849Z" transform="translate(0 0)" fill="#2d4356"/>
      <path id="Trazado_913636" data-name="Trazado 913636" d="M51.423,4.849V7.4H20V4.849A.852.852,0,0,1,20.849,4H50.574a.852.852,0,0,1,.849.849Z" transform="translate(-2.301 -2.301)" fill="#d68751"/>
      <g id="Grupo_1119180" data-name="Grupo 1119180" transform="translate(19.397 10.192)">
        <path id="Trazado_913637" data-name="Trazado 913637" d="M86.685,87.126c-.013.977-.085,5.852-.2,6.607l-.624,3.643a.851.851,0,1,1-1.677-.289l.624-3.626c.072-.48.149-4.153.178-6.348a.629.629,0,0,0-.6-.637c-.463-.03-.726.17-.73.637,0,.008-.017,3.329-.017,3.329a.849.849,0,0,1-1.7,0V85.376a.662.662,0,0,0-.662-.658c-.463-.008-.692.089-.692.276,0,.008,0,5.444,0,5.444a.849.849,0,0,1-1.7,0l.008-7.2a.7.7,0,0,0-.662-.718c-.412-.008-.913.221-.917.7v7.253a.849.849,0,1,1-1.7,0l.034-12.1a.676.676,0,0,0-.832-.684c-.4.115-.442.556-.442.9V90.438a.85.85,0,0,1-1.626.344c-.65-1.448-1.788-3.04-2.45-3.091a.707.707,0,0,0-.522.293c-.072.132-.352.892,1.049,3.066.008.013,3.249,5.767,3.249,5.767a.849.849,0,0,1-.323,1.155.767.767,0,0,1-.3.1.868.868,0,0,1-.858-.42s-3.21-5.7-3.21-5.7c-1.329-2.068-1.7-3.673-1.1-4.773A2.363,2.363,0,0,1,70.43,86a3.539,3.539,0,0,1,2.242,1.431V78.573C72.711,76.858,73.56,76,75.195,76a2.319,2.319,0,0,1,2.149,2.382l-.017,2.578a3.106,3.106,0,0,1,.913-.136,2.394,2.394,0,0,1,2.344,2.259,3.643,3.643,0,0,1,.7-.064,2.367,2.367,0,0,1,2.3,1.843,3.087,3.087,0,0,1,.883-.085A2.334,2.334,0,0,1,86.685,87.126Z" transform="translate(-49.317 -53.919)" fill="#2d4356"/>
        <circle id="Elipse_11859" data-name="Elipse 11859" cx="0.626" cy="0.626" r="0.626" transform="translate(16.629 20.378)" fill="#2d4356"/>
        <circle id="Elipse_11860" data-name="Elipse 11860" cx="0.626" cy="0.626" r="0.626" transform="translate(16.629 14.12)" fill="#2d4356"/>
        <ellipse id="Elipse_11861" data-name="Elipse 11861" cx="0.626" cy="1.252" rx="0.626" ry="1.252" transform="translate(16.629 6.61)" fill="#2d4356"/>
        <path id="Trazado_913638" data-name="Trazado 913638" d="M34.191,24H24.849a.849.849,0,1,0,0,1.7h9.342a.849.849,0,1,0,0-1.7Z" transform="translate(-24 -24)" fill="#2d4356"/>
        <path id="Trazado_913639" data-name="Trazado 913639" d="M34.191,40H24.849a.849.849,0,1,0,0,1.7h9.342a.849.849,0,1,0,0-1.7Z" transform="translate(-24 -33.206)" fill="#2d4356"/>
        <path id="Trazado_913640" data-name="Trazado 913640" d="M34.191,56H24.849a.849.849,0,1,0,0,1.7h9.342a.849.849,0,1,0,0-1.7Z" transform="translate(-24 -42.412)" fill="#2d4356"/>
        <path id="Trazado_913641" data-name="Trazado 913641" d="M34.191,72H24.849a.849.849,0,0,0,0,1.7h9.342a.849.849,0,1,0,0-1.7Z" transform="translate(-24 -51.618)" fill="#2d4356"/>
      </g>
      <path id="Trazado_913642" data-name="Trazado 913642" d="M87.182,100.328H75.75a.767.767,0,0,0,.3-.1.849.849,0,0,0,.323-1.155s-3.24-5.754-3.249-5.767c-1.4-2.174-1.121-2.934-1.049-3.066a.707.707,0,0,1,.522-.293c.662.051,1.8,1.643,2.45,3.091a.85.85,0,0,0,1.626-.344V80.85c0-.348.042-.79.442-.9a.676.676,0,0,1,.832.684l-.034,12.1a.849.849,0,1,0,1.7,0V85.478c0-.476.505-.7.917-.7a.7.7,0,0,1,.662.718l-.008,7.2a.849.849,0,0,0,1.7,0s0-5.435,0-5.444c0-.187.229-.285.692-.276a.662.662,0,0,1,.662.658V92.7a.849.849,0,0,0,1.7,0s.017-3.321.017-3.329c0-.467.268-.667.73-.637a.629.629,0,0,1,.6.637c-.03,2.2-.106,5.869-.178,6.348l-.624,3.626A.854.854,0,0,0,87.182,100.328Z" transform="translate(-32.221 -45.986)" fill="#ffdb80"/>
      <path id="Trazado_913643" data-name="Trazado 913643" d="M40.306,112.386c-.115-.174-.263-.412-.425-.688H20.849a.852.852,0,0,1-.849-.849V110a.852.852,0,0,0,.849.849h18.6a13.941,13.941,0,0,0,.858,1.537Z" transform="translate(-2.301 -63.289)" fill="#9fa5aa" opacity="0.5"/>
      <path id="Trazado_913644" data-name="Trazado 913644" d="M79.1,25.425a.852.852,0,0,1-.849.849h-3.4A.848.848,0,0,1,74.115,25a.848.848,0,0,0,.735.425h3.4A.848.848,0,0,0,78.981,25a.847.847,0,0,1,.115.425Z" transform="translate(-33.371 -14.384)" fill="#0f423c" opacity="0.3"/>
      <path id="Trazado_913645" data-name="Trazado 913645" d="M79.1,41.425a.852.852,0,0,1-.849.849h-3.4A.848.848,0,0,1,74.115,41a.848.848,0,0,0,.735.425h3.4A.848.848,0,0,0,78.981,41a.847.847,0,0,1,.115.425Z" transform="translate(-33.371 -23.59)" fill="#0f423c" opacity="0.3"/>
      <path id="Trazado_913646" data-name="Trazado 913646" d="M79.1,57.425a.852.852,0,0,1-.849.849h-3.4A.848.848,0,0,1,74.115,57a.848.848,0,0,0,.735.425h3.4A.848.848,0,0,0,78.981,57a.847.847,0,0,1,.115.425Z" transform="translate(-33.371 -32.795)" fill="#0f423c" opacity="0.3"/>
      <path id="Trazado_913647" data-name="Trazado 913647" d="M75.9,73.425a3.443,3.443,0,0,0-.773.849h-.28A.848.848,0,0,1,74.115,73a.848.848,0,0,0,.735.425Z" transform="translate(-33.371 -42.001)" fill="#0f423c" opacity="0.3"/>
      <path id="Trazado_913648" data-name="Trazado 913648" d="M58,16H73.287v.849H58Z" transform="translate(-24.165 -9.206)" fill="#fff" opacity="0.5"/>
      <path id="Trazado_913649" data-name="Trazado 913649" d="M20,16H34.438v.849H20Z" transform="translate(-2.301 -9.206)" fill="#fff" opacity="0.5"/>
      <path id="Trazado_913650" data-name="Trazado 913650" d="M51.423,4.849V5.7a.852.852,0,0,0-.849-.849H20.849A.852.852,0,0,0,20,5.7V4.849A.852.852,0,0,1,20.849,4H50.574a.852.852,0,0,1,.849.849Z" transform="translate(-2.301 -2.301)" fill="#e5d0c3" opacity="0.3"/>
      <path id="Trazado_913651" data-name="Trazado 913651" d="M84.274,80.629l0,.815a.67.67,0,0,0-.828-.65c-.4.115-.442.556-.442.9V80.85c0-.348.042-.79.442-.9a.676.676,0,0,1,.832.684Z" transform="translate(-38.549 -45.986)" fill="#f9edd2" opacity="0.5"/>
      <path id="Trazado_913652" data-name="Trazado 913652" d="M91.5,92.077v.837a.7.7,0,0,0-.662-.7c-.412-.008-.913.221-.917.7v-.849c0-.476.505-.7.917-.7A.7.7,0,0,1,91.5,92.077Z" transform="translate(-42.531 -52.564)" fill="#f9edd2" opacity="0.5"/>
      <path id="Trazado_913653" data-name="Trazado 913653" d="M98.982,97.188v.849a.662.662,0,0,0-.662-.658c-.463-.008-.692.089-.692.276,0-.51,0-.849,0-.849,0-.187.229-.285.692-.276a.662.662,0,0,1,.662.658Z" transform="translate(-46.964 -55.539)" fill="#f9edd2" opacity="0.5"/>
      <path id="Trazado_913654" data-name="Trazado 913654" d="M103.869,101.3c0,.225-.008.467-.013.722a.626.626,0,0,0-.59-.51c-.463-.03-.726.17-.73.637,0,.008-.017,3.329-.017,3.329a.849.849,0,0,1-1.7,0v-.849a.849.849,0,1,0,1.7,0s.017-3.321.017-3.329c0-.467.268-.667.73-.637A.629.629,0,0,1,103.869,101.3Z" transform="translate(-48.802 -57.917)" fill="#f9edd2" opacity="0.5"/>
      <path id="Trazado_913655" data-name="Trazado 913655" d="M76.66,106.277v.849a.85.85,0,0,1-1.626.344c-.65-1.448-1.788-3.04-2.45-3.091a.707.707,0,0,0-.522.293s0,.008-.008.017a1.267,1.267,0,0,1,.008-.866.707.707,0,0,1,.522-.293c.662.051,1.8,1.643,2.45,3.091a.85.85,0,0,0,1.626-.344Z" transform="translate(-32.209 -59.567)" fill="#f9edd2" opacity="0.5"/>
    </g>
  </g>
</svg>
