<svg xmlns="http://www.w3.org/2000/svg" xmlns:xlink="http://www.w3.org/1999/xlink" width="400" height="144" viewBox="0 0 400 144">
  <defs>
    <clipPath id="clip-path">
      <rect id="Rect치ngulo_405099" data-name="Rect치ngulo 405099" width="400" height="144" rx="8" transform="translate(180.051 6570)" fill="#12263f"/>
    </clipPath>
    <clipPath id="clip-path-2">
      <path id="Trazado_913552" data-name="Trazado 913552" d="M4996.854,761.975c1.346-2.736,4.314-3.284,6.472,1.214C5001.067,765.164,4997.707,764.679,4996.854,761.975Z" transform="translate(-4996.854 -759.863)" fill="#fff"/>
    </clipPath>
    <clipPath id="clip-path-3">
      <path id="Trazado_913556" data-name="Trazado 913556" d="M5045.439,756.714c-1.555-2.358-3.914-2.3-4.674,2.423C5042.863,760.59,5045.318,759.471,5045.439,756.714Z" transform="translate(-5040.766 -755.186)" fill="none"/>
    </clipPath>
  </defs>
  <g id="Grupo_1119167" data-name="Grupo 1119167" transform="translate(-180.051 -6570)">
    <rect id="Rect치ngulo_404658" data-name="Rect치ngulo 404658" width="400" height="144" rx="8" transform="translate(180.051 6570)" fill="#12263f"/>
    <g id="Enmascarar_grupo_1098775" data-name="Enmascarar grupo 1098775" clip-path="url(#clip-path)">
      <g id="Grupo_1119166" data-name="Grupo 1119166">
        <g id="Grupo_1119157" data-name="Grupo 1119157" transform="translate(-4308.072 5363.724)">
          <g id="Grupo_1119150" data-name="Grupo 1119150">
            <g id="Grupo_1119149" data-name="Grupo 1119149">
              <path id="Trazado_913595" data-name="Trazado 913595" d="M4523.775,1293.335l5.695-5.694,37.264,37.265v-56.771h8.054v111.509h-8.054V1336.3Z" fill="#824648"/>
            </g>
          </g>
          <g id="Grupo_1119152" data-name="Grupo 1119152">
            <g id="Grupo_1119151" data-name="Grupo 1119151">
              <circle id="Elipse_11855" data-name="Elipse 11855" cx="43.284" cy="43.284" r="43.284" transform="translate(4531.996 1213)" fill="#628056"/>
            </g>
          </g>
          <g id="Grupo_1119154" data-name="Grupo 1119154">
            <g id="Grupo_1119153" data-name="Grupo 1119153">
              <circle id="Elipse_11856" data-name="Elipse 11856" cx="31.207" cy="31.207" r="31.207" transform="translate(4480.123 1276.488) rotate(-45)" fill="#83a973"/>
            </g>
          </g>
          <g id="Grupo_1119156" data-name="Grupo 1119156">
            <g id="Grupo_1119155" data-name="Grupo 1119155">
              <circle id="Elipse_11857" data-name="Elipse 11857" cx="31.207" cy="31.207" r="31.207" transform="translate(4602.175 1313.586) rotate(-13.283)" fill="#628056"/>
            </g>
          </g>
        </g>
        <g id="Grupo_1119089" data-name="Grupo 1119089" transform="translate(-4451.561 5910.883)">
          <g id="Grupo_1118916" data-name="Grupo 1118916" transform="translate(4749.407 737.543)">
            <g id="Grupo_1118915" data-name="Grupo 1118915" transform="translate(0 0)">
              <path id="Trazado_913502" data-name="Trazado 913502" d="M5027.113,984.552s9.813,31.62,14.611,34.018-6.106,6.978-6.106,6.978c-19.19-8.941-25.513-31.62-25.513-31.62Z" transform="translate(-5010.104 -984.552)" fill="#ff7c6d"/>
            </g>
          </g>
          <g id="Grupo_1118918" data-name="Grupo 1118918" transform="translate(4673.924 712.465)">
            <g id="Grupo_1118917" data-name="Grupo 1118917" transform="translate(0 0)">
              <path id="Trazado_913503" data-name="Trazado 913503" d="M4703.62,873.084c-4.309,3.614-15.88,10.5-23.707,15.027a10.649,10.649,0,0,0-4.909,6.266,10.452,10.452,0,0,0,.855,7.94c8.552,15.692,28.3,31.864,27.761,32.043-4.8,4.579-2.835,11.775-2.835,11.775-2.4-1.744-5.888.654-5.888.654l10.467,2.4,8.724-15.919s-13.3-15.265-17.882-30.965l19.626-13.084Z" transform="translate(-4674.584 -873.084)" fill="#ff7c6d"/>
            </g>
          </g>
          <g id="Grupo_1118920" data-name="Grupo 1118920" transform="translate(4673.924 728.799)">
            <g id="Grupo_1118919" data-name="Grupo 1118919" transform="translate(0 0)">
              <path id="Trazado_913504" data-name="Trazado 913504" d="M4678.12,945.688a10.66,10.66,0,0,0-3.116,4.959,10.452,10.452,0,0,0,.855,7.94c.1.184.21.369.313.553a7.3,7.3,0,0,0,1.948-13.452Z" transform="translate(-4674.584 -945.688)" fill="#ff6a59"/>
            </g>
          </g>
          <g id="Grupo_1118922" data-name="Grupo 1118922" transform="translate(4673.732 712.276)">
            <g id="Grupo_1118921" data-name="Grupo 1118921" transform="translate(0 0)">
              <path id="Trazado_913505" data-name="Trazado 913505" d="M4704.7,948.725a.176.176,0,0,1-.042,0l-10.468-2.4a.19.19,0,0,1-.064-.341c.139-.1,3.273-2.215,5.712-.9-.33-1.654-1.128-7.477,2.891-11.417-.251-.3-1.2-1.184-2.359-2.272-5.606-5.243-18.738-17.522-25.341-29.637a10.619,10.619,0,0,1-.87-8.083,10.806,10.806,0,0,1,5-6.377c8.485-4.9,19.483-11.488,23.68-15.009a.19.19,0,0,1,.273.031l12.212,16.137a.191.191,0,0,1-.046.272l-19.511,13.007c4.552,15.434,17.671,30.609,17.8,30.76a.189.189,0,0,1,.022.216l-8.722,15.919A.191.191,0,0,1,4704.7,948.725Zm-9.971-2.669,9.873,2.263,8.591-15.678c-1.156-1.355-13.487-16.036-17.833-30.936a.19.19,0,0,1,.076-.211l19.458-12.972L4702.927,872.7c-4.325,3.567-15.182,10.066-23.58,14.919a10.427,10.427,0,0,0-4.821,6.154,10.233,10.233,0,0,0,.839,7.8c6.574,12.061,19.674,24.311,25.268,29.542,2.487,2.325,2.565,2.425,2.523,2.622a.214.214,0,0,1-.065.107h0c-4.658,4.446-2.8,11.518-2.783,11.589a.189.189,0,0,1-.294.2C4698.206,944.322,4695.688,945.512,4694.732,946.055Z" transform="translate(-4673.732 -872.241)" fill="#451d26"/>
            </g>
          </g>
          <g id="Grupo_1118924" data-name="Grupo 1118924" transform="translate(4781.899 919.991)">
            <g id="Grupo_1118923" data-name="Grupo 1118923" transform="translate(0 0)">
              <path id="Trazado_913506" data-name="Trazado 913506" d="M5164.268,1795.523l-9.74,8.141,7.5,13.213.2.6,1.6,2.035,9.448-2.471,1.745-14.828Z" transform="translate(-5154.527 -1795.523)" fill="#ff7c6d"/>
            </g>
          </g>
          <g id="Grupo_1118926" data-name="Grupo 1118926" transform="translate(4727.601 926.332)">
            <g id="Grupo_1118925" data-name="Grupo 1118925" transform="translate(0)">
              <path id="Trazado_913507" data-name="Trazado 913507" d="M4913.856,1836.711l-.354-9.018,14.011-3.98,4.96,11.394s-12.975,6.924-13.3,6.924-6-1.417-6-1.908S4913.856,1836.711,4913.856,1836.711Z" transform="translate(-4913.175 -1823.713)" fill="#ff7c6d"/>
            </g>
          </g>
          <g id="Grupo_1118928" data-name="Grupo 1118928" transform="translate(4737.414 757.605)">
            <g id="Grupo_1118927" data-name="Grupo 1118927" transform="translate(0 0)">
              <path id="Trazado_913508" data-name="Trazado 913508" d="M4976.2,1076.67s10.686,17.554,13.3,34.563,14.393,55.825,14.393,55.825c2.181,31.4,18.9,67.891,18.9,67.891l-29.221,19.626c-19.189-21.806-25.44-80.1-25.44-80.1l-11.34-36.2,2.182-64.548Z" transform="translate(-4956.793 -1073.726)" fill="#6693a3"/>
            </g>
          </g>
          <g id="Grupo_1118930" data-name="Grupo 1118930" transform="translate(4737.224 757.415)">
            <g id="Grupo_1118929" data-name="Grupo 1118929" transform="translate(0)">
              <path id="Trazado_913509" data-name="Trazado 913509" d="M4992.92,1254.111a.189.189,0,0,1-.142-.064c-19.009-21.6-25.424-79.624-25.487-80.208l-11.332-36.162a.212.212,0,0,1-.008-.063l2.181-64.547a.188.188,0,0,1,.221-.18l17.228,2.944a.188.188,0,0,1,.129.088c.107.176,10.735,17.781,13.327,34.633,2.585,16.8,14.269,55.411,14.387,55.8a.243.243,0,0,1,.008.042c2.153,31.008,18.714,67.46,18.881,67.825a.189.189,0,0,1-.066.236l-29.221,19.626A.191.191,0,0,1,4992.92,1254.111Zm-36.589-116.517,11.33,36.168c.07.618,6.449,58.3,25.293,79.909l28.948-19.443c-1.156-2.57-16.753-37.721-18.847-67.789-.328-1.083-11.827-39.159-14.393-55.83-2.5-16.221-12.478-33.158-13.232-34.42L4958.5,1073.3Z" transform="translate(-4955.951 -1072.884)" fill="#451d26"/>
            </g>
          </g>
          <g id="Grupo_1118932" data-name="Grupo 1118932" transform="translate(4701.777 756.005)">
            <g id="Grupo_1118931" data-name="Grupo 1118931">
              <path id="Trazado_913510" data-name="Trazado 913510" d="M4825.96,1071.161c-18.244,9.413-26.968,18.427-27.549,28.312s12.5,147.121,12.5,147.121l36.636-5.524-10.177-142.76c4.652-2.326,6.106-3.489,6.106-7.56s2.325-24.132,2.325-24.132Z" transform="translate(-4798.393 -1066.618)" fill="#6693a3"/>
            </g>
          </g>
          <g id="Grupo_1118934" data-name="Grupo 1118934" transform="translate(4701.588 760.359)">
            <g id="Grupo_1118933" data-name="Grupo 1118933" transform="translate(0 0)">
              <path id="Trazado_913511" data-name="Trazado 913511" d="M4810.262,1261.781a.189.189,0,0,1-.117-.04.185.185,0,0,1-.071-.131c-.132-1.373-13.079-137.363-12.5-147.15.589-9.993,9.374-19.04,27.651-28.469a.19.19,0,0,1,.175.337c-18.146,9.362-26.868,18.308-27.447,28.155-.563,9.585,11.915,140.93,12.482,146.893l36.264-5.468-10.163-142.585a.19.19,0,0,1,.1-.183c4.535-2.267,6-3.341,6-7.39,0-1.005.142-3.072.421-6.143a.19.19,0,0,1,.378.034c-.279,3.059-.42,5.114-.42,6.108,0,4.21-1.583,5.409-6.1,7.672l10.167,142.634a.189.189,0,0,1-.16.2l-36.635,5.524Z" transform="translate(-4797.551 -1085.968)" fill="#451d26"/>
            </g>
          </g>
          <g id="Grupo_1118936" data-name="Grupo 1118936" transform="translate(4699.797 702.416)">
            <g id="Grupo_1118935" data-name="Grupo 1118935" transform="translate(0 0)">
              <path id="Trazado_913512" data-name="Trazado 913512" d="M4846.614,886.547h-27.477c1.854-1.308,3.162-5.779,0-9.7a46.816,46.816,0,0,1-10.358-22.025l-8.068,5.125-11.122-20.5s23.878-11.558,27.694-11.012,6.324,4.361,9.922,7.2l13.738,4.034a37.425,37.425,0,0,0,5.124,2.072c4.471,1.636,8.178,7.523,9.7,12.648a79.1,79.1,0,0,0,4.361,10.794l-5.124,2.726C4853.919,872.045,4846.178,877.715,4846.614,886.547Z" transform="translate(-4789.59 -828.414)" fill="#e2e9fb"/>
            </g>
          </g>
          <g id="Grupo_1118938" data-name="Grupo 1118938" transform="translate(4737.371 695.002)">
            <g id="Grupo_1118937" data-name="Grupo 1118937" transform="translate(0 0)">
              <path id="Trazado_913513" data-name="Trazado 913513" d="M4962.516,795.46c-1.2,6.978-2.053,14.411-5.869,14.629-1.026,10.383,16.864,14.628,13.737,4.034,1.2-8.286,1.309-11.121,1.309-11.121S4963.061,795.46,4962.516,795.46Z" transform="translate(-4956.604 -795.46)" fill="#ff7c6d"/>
            </g>
          </g>
          <g id="Grupo_1118940" data-name="Grupo 1118940" transform="translate(4745.688 698.268)">
            <g id="Grupo_1118939" data-name="Grupo 1118939" transform="translate(0 0)">
              <path id="Trazado_913514" data-name="Trazado 913514" d="M4999.47,822.3c.8-5.921.877-8.041.877-8.041s-4.115-2.672-6.771-4.275C4993.569,811.673,4993.92,818.2,4999.47,822.3Z" transform="translate(-4993.577 -809.979)" fill="#ff6a59"/>
            </g>
          </g>
          <g id="Grupo_1118942" data-name="Grupo 1118942" transform="translate(4792.205 729.147)">
            <g id="Grupo_1118941" data-name="Grupo 1118941" transform="translate(0 0)">
              <path id="Trazado_913515" data-name="Trazado 913515" d="M5208.239,947.234c-4.688,0-6.869,5.452-7.85,8.831s12.211,2.072,12.538,1.963,4.8-6.106,4.8-6.651-4.034-4.143-4.034-4.143Z" transform="translate(-5200.337 -947.234)" fill="#e6c8aa"/>
            </g>
          </g>
          <g id="Grupo_1118944" data-name="Grupo 1118944" transform="translate(4792.016 728.958)">
            <g id="Grupo_1118943" data-name="Grupo 1118943" transform="translate(0 0)">
              <path id="Trazado_913516" data-name="Trazado 913516" d="M5206.606,957.9c-2.761,0-5.687-.262-6.7-1.233a1.24,1.24,0,0,1-.352-1.307c1.7-5.867,4.48-8.968,8.033-8.968a.19.19,0,0,1,0,.379c-3.365,0-6.017,3.007-7.668,8.694a.854.854,0,0,0,.217.895c1.84,1.9,11.668.939,12.085.834a.2.2,0,0,1,.233.13.186.186,0,0,1-.118.232A43.2,43.2,0,0,1,5206.606,957.9Z" transform="translate(-5199.498 -946.392)" fill="#451d26"/>
            </g>
          </g>
          <g id="Grupo_1118946" data-name="Grupo 1118946" transform="translate(4765.326 736.452)">
            <g id="Grupo_1118945" data-name="Grupo 1118945" transform="translate(0 0)">
              <path id="Trazado_913517" data-name="Trazado 913517" d="M5113.135,1032.913h-32.274l25.731-53.208h32.274Z" transform="translate(-5080.861 -979.706)" fill="#e9595c"/>
            </g>
          </g>
          <g id="Grupo_1118955" data-name="Grupo 1118955" transform="translate(4796.99 751.65)">
            <g id="Grupo_1118948" data-name="Grupo 1118948" transform="translate(0.189 0.19)">
              <g id="Grupo_1118947" data-name="Grupo 1118947">
                <path id="Trazado_913518" data-name="Trazado 913518" d="M5242.113,1054.056c-.925-3.808-11.251-5.555-13.925-5.947a.809.809,0,0,0-.867.5.824.824,0,0,0-.057.367.81.81,0,0,0,.31.575l6.634,5.185-10.91,3.28a1.194,1.194,0,0,0,.269,2.335l.849.054-.87.447a.664.664,0,0,0,.277,1.254l5.648.22-4.5.616a.743.743,0,0,0-.621.568.729.729,0,0,0,.032.433.739.739,0,0,0,.6.467c3.51.423,5.136,1.435,4.308,8.384h0a12.429,12.429,0,0,0,13.438-13.095A36.273,36.273,0,0,0,5242.113,1054.056Z" transform="translate(-5222.448 -1048.101)" fill="#ff7c6d"/>
              </g>
            </g>
            <g id="Grupo_1118950" data-name="Grupo 1118950" transform="translate(0 0)">
              <g id="Grupo_1118949" data-name="Grupo 1118949">
                <path id="Trazado_913519" data-name="Trazado 913519" d="M5229.683,1072.37q-.527,0-1.056-.044a.189.189,0,0,1-.172-.211c.813-6.819-.713-7.76-4.143-8.173a.929.929,0,0,1-.8-1.13.96.96,0,0,1,.105-.264.924.924,0,0,1,.675-.449l2.357-.323-3.49-.136a.853.853,0,0,1-.356-1.611l.257-.132-.162-.01a1.384,1.384,0,0,1-.311-2.706l10.56-3.174-6.346-4.96a1,1,0,0,1-.381-.709,1.013,1.013,0,0,1,.07-.453,1,1,0,0,1,.821-.619.982.982,0,0,1,.248.005c3.065.448,13.14,2.212,14.082,6.089h0a35.636,35.636,0,0,1,.625,5.674,12.621,12.621,0,0,1-12.587,13.338Zm-.829-.408a12.239,12.239,0,0,0,13.038-12.91,35.464,35.464,0,0,0-.614-5.6h0c-.909-3.74-11.629-5.491-13.769-5.8a.62.62,0,0,0-.663.381.6.6,0,0,0-.043.281.622.622,0,0,0,.235.44l6.636,5.185a.19.19,0,0,1-.063.331l-10.91,3.28a1,1,0,0,0-.678.691.979.979,0,0,0-.017.469,1,1,0,0,0,.92.8l.849.054a.19.19,0,0,1,.074.358l-.87.447a.474.474,0,0,0,.2.9l5.649.22a.19.19,0,0,1,.018.377l-4.5.616a.548.548,0,0,0-.4.266.582.582,0,0,0-.062.156.541.541,0,0,0,.024.321.551.551,0,0,0,.448.348C5228.143,1064.021,5229.618,1065.3,5228.854,1071.962Z" transform="translate(-5221.607 -1047.258)" fill="#451d26"/>
              </g>
            </g>
            <g id="Grupo_1118952" data-name="Grupo 1118952" transform="translate(2.523 10.708)">
              <g id="Grupo_1118951" data-name="Grupo 1118951">
                <path id="Trazado_913520" data-name="Trazado 913520" d="M5233.011,1096.606a.19.19,0,0,1-.053-.372,29.2,29.2,0,0,1,8.251-1.38.189.189,0,0,1,.184.2.187.187,0,0,1-.2.183,28.932,28.932,0,0,0-8.132,1.365A.192.192,0,0,1,5233.011,1096.606Z" transform="translate(-5232.821 -1094.853)" fill="#451d26"/>
              </g>
            </g>
            <g id="Grupo_1118954" data-name="Grupo 1118954" transform="translate(7.395 14.225)">
              <g id="Grupo_1118953" data-name="Grupo 1118953">
                <path id="Trazado_913521" data-name="Trazado 913521" d="M5254.668,1110.883a.19.19,0,0,1-.006-.379c.8-.029,1.115-.01,1.127-.009a.19.19,0,1,1-.023.378s-.312-.018-1.09.009Z" transform="translate(-5254.479 -1110.489)" fill="#451d26"/>
              </g>
            </g>
          </g>
          <g id="Grupo_1118957" data-name="Grupo 1118957" transform="translate(4800.106 729.147)">
            <g id="Grupo_1118956" data-name="Grupo 1118956" transform="translate(0 0)">
              <path id="Trazado_913522" data-name="Trazado 913522" d="M5263.884,947.235h-28.422c7.633,0,1.2,15.482,1.2,15.482h28.422S5271.516,947.235,5263.884,947.235Z" transform="translate(-5235.462 -947.235)" fill="#fff"/>
            </g>
          </g>
          <g id="Grupo_1118959" data-name="Grupo 1118959" transform="translate(4799.917 728.958)">
            <g id="Grupo_1118958" data-name="Grupo 1118958" transform="translate(0 0)">
              <path id="Trazado_913523" data-name="Trazado 913523" d="M5264.43,962.254h-28.422a.188.188,0,0,1-.157-.084.192.192,0,0,1-.018-.178c.043-.1,4.2-10.223,1.744-13.905a3.1,3.1,0,0,0-2.768-1.315.19.19,0,0,1,0-.379,3.459,3.459,0,0,1,3.083,1.484c2.371,3.552-.938,12.33-1.6,14h28.14a.19.19,0,0,1,0,.379Z" transform="translate(-5234.62 -946.392)" fill="#451d26"/>
            </g>
          </g>
          <g id="Grupo_1118961" data-name="Grupo 1118961" transform="translate(4718.797 725.251)">
            <g id="Grupo_1118960" data-name="Grupo 1118960" transform="translate(0 0)">
              <path id="Trazado_913524" data-name="Trazado 913524" d="M4874.235,933.673a.19.19,0,0,1-.109-.345l4.8-3.38a.19.19,0,1,1,.219.31l-4.8,3.38A.191.191,0,0,1,4874.235,933.673Z" transform="translate(-4874.045 -929.914)" fill="#451d26"/>
            </g>
          </g>
          <g id="Grupo_1118991" data-name="Grupo 1118991" transform="translate(4724.237 933.325)">
            <g id="Grupo_1118990" data-name="Grupo 1118990" transform="translate(0 0)">
              <g id="Grupo_1118985" data-name="Grupo 1118985">
                <g id="Grupo_1118964" data-name="Grupo 1118964" transform="translate(0.189 0.189)">
                  <g id="Grupo_1118963" data-name="Grupo 1118963">
                    <g id="Grupo_1118962" data-name="Grupo 1118962">
                      <path id="Trazado_913525" data-name="Trazado 913525" d="M4902.2,1861.9a.853.853,0,0,1,1.433-.106c1.255,1.68,4.1,4.482,8.163,2.636a.849.849,0,0,0,.229-.155.884.884,0,0,0,.137-.167c.8-1.263,5.232-7.853,11.215-8.467a.9.9,0,0,1,.561.124.826.826,0,0,1,.351.429c.466,1.3,1.828,4.354,4.616,5.347,0,0,20.31,6.283,23.955,16.392a.826.826,0,0,1-.113.773.858.858,0,0,1-.7.357l-51.921-.288a.854.854,0,0,1-.657-.314.832.832,0,0,1-.181-.418A27.374,27.374,0,0,1,4902.2,1861.9Z" transform="translate(-4899.067 -1855.634)" fill="#e9595c"/>
                    </g>
                  </g>
                </g>
                <g id="Grupo_1118967" data-name="Grupo 1118967" transform="translate(13.143 0.189)">
                  <g id="Grupo_1118966" data-name="Grupo 1118966">
                    <g id="Grupo_1118965" data-name="Grupo 1118965">
                      <path id="Trazado_913526" data-name="Trazado 913526" d="M4996.908,1876.646l-21.514-.127-18.748-12.246a.887.887,0,0,0,.137-.167c.8-1.263,5.232-7.853,11.215-8.467a.9.9,0,0,1,.56.124.826.826,0,0,1,.351.429c.466,1.3,1.828,4.354,4.616,5.347C4973.526,1861.539,4992.109,1867.294,4996.908,1876.646Z" transform="translate(-4956.647 -1855.634)" fill="#fff"/>
                    </g>
                  </g>
                </g>
                <g id="Grupo_1118972" data-name="Grupo 1118972" transform="translate(8.184 9.679)">
                  <g id="Grupo_1118969" data-name="Grupo 1118969" transform="translate(0 0)">
                    <g id="Grupo_1118968" data-name="Grupo 1118968">
                      <circle id="Elipse_11846" data-name="Elipse 11846" cx="2.88" cy="2.88" r="2.88" transform="translate(0 4.867) rotate(-57.659)" fill="#fff"/>
                    </g>
                  </g>
                  <g id="Grupo_1118971" data-name="Grupo 1118971" transform="translate(3.78 0.904)">
                    <g id="Grupo_1118970" data-name="Grupo 1118970">
                      <path id="Trazado_913527" data-name="Trazado 913527" d="M4951.6,1907.972a.194.194,0,0,1-.193-.19.187.187,0,0,1,.189-.189,2.691,2.691,0,1,0,.008-5.381.19.19,0,0,1-.189-.19.181.181,0,0,1,.19-.189,3.07,3.07,0,0,1,0,6.139Z" transform="translate(-4951.407 -1901.833)" fill="#451d26"/>
                    </g>
                  </g>
                </g>
                <g id="Grupo_1118975" data-name="Grupo 1118975" transform="translate(0.191 15.41)">
                  <g id="Grupo_1118974" data-name="Grupo 1118974">
                    <g id="Grupo_1118973" data-name="Grupo 1118973">
                      <path id="Trazado_913528" data-name="Trazado 913528" d="M4899.133,1928.886a28.6,28.6,0,0,1,.2-5.6c9.077.723,18.073,4.889,18.073,4.889Z" transform="translate(-4899.076 -1923.291)" fill="#fff"/>
                    </g>
                  </g>
                </g>
                <g id="Grupo_1118978" data-name="Grupo 1118978" transform="translate(0.19 15.812)">
                  <g id="Grupo_1118977" data-name="Grupo 1118977">
                    <g id="Grupo_1118976" data-name="Grupo 1118976">
                      <path id="Trazado_913529" data-name="Trazado 913529" d="M4940.784,1928.739l0-1.3a2.365,2.365,0,0,1,2.369-2.362l4.6.007a20.662,20.662,0,0,1,3.494,3.713h.012c.025.035.047.071.071.106l.012.018a12.156,12.156,0,0,1,1.509,2.83.826.826,0,0,1-.113.773.857.857,0,0,1-.7.357l-51.921-.288a.849.849,0,0,1-.839-.732,25.807,25.807,0,0,1-.213-3.353Z" transform="translate(-4899.068 -1925.077)" fill="#fff"/>
                    </g>
                  </g>
                </g>
                <g id="Grupo_1118981" data-name="Grupo 1118981" transform="translate(0 15.623)">
                  <g id="Grupo_1118980" data-name="Grupo 1118980">
                    <g id="Grupo_1118979" data-name="Grupo 1118979">
                      <path id="Trazado_913530" data-name="Trazado 913530" d="M4951.394,1932.418h-.006l-51.922-.288a1.039,1.039,0,0,1-1.025-.9,25.814,25.814,0,0,1-.214-3.379.189.189,0,0,1,.056-.135.209.209,0,0,1,.135-.055l41.524.23,0-1.109a2.555,2.555,0,0,1,2.555-2.552h0l4.6.007a.188.188,0,0,1,.122.045,20.844,20.844,0,0,1,3.5,3.709.166.166,0,0,1,.04.038l.072.107a12.521,12.521,0,0,1,1.544,2.893,1.024,1.024,0,0,1-.138.949A1.053,1.053,0,0,1,4951.394,1932.418Zm-52.788-4.373a25.308,25.308,0,0,0,.211,3.137.65.65,0,0,0,.14.324.664.664,0,0,0,.512.245l51.922.288h0a.663.663,0,0,0,.543-.278.634.634,0,0,0,.089-.6,12.028,12.028,0,0,0-1.487-2.786l-.057-.085a.182.182,0,0,1-.037-.037,20.332,20.332,0,0,0-3.409-3.634l-4.534-.007h0a2.177,2.177,0,0,0-2.176,2.173l0,1.3a.189.189,0,0,1-.056.135.255.255,0,0,1-.135.055Z" transform="translate(-4898.227 -1924.235)" fill="#451d26"/>
                    </g>
                  </g>
                </g>
                <g id="Grupo_1118984" data-name="Grupo 1118984" transform="translate(0.005)">
                  <g id="Grupo_1118983" data-name="Grupo 1118983">
                    <g id="Grupo_1118982" data-name="Grupo 1118982">
                      <path id="Trazado_913531" data-name="Trazado 913531" d="M4951.411,1878.6h0l-51.921-.288a1.039,1.039,0,0,1-1.026-.9,27.771,27.771,0,0,1,2.937-16.258,1.043,1.043,0,0,1,1.751-.13c1.287,1.723,4.029,4.349,7.934,2.577a.635.635,0,0,0,.177-.12.664.664,0,0,0,.107-.13c.834-1.32,5.3-7.933,11.356-8.554a1.107,1.107,0,0,1,.678.151,1,1,0,0,1,.431.527,11.5,11.5,0,0,0,1.413,2.743.189.189,0,0,1-.309.22,11.83,11.83,0,0,1-1.461-2.835.635.635,0,0,0-.271-.331.709.709,0,0,0-.441-.1c-5.881.6-10.258,7.086-11.075,8.38a1.055,1.055,0,0,1-.167.2,1.041,1.041,0,0,1-.281.189c-4.146,1.882-7.038-.881-8.394-2.7a.651.651,0,0,0-.548-.264.659.659,0,0,0-.565.348,27.377,27.377,0,0,0-2.895,16.027.643.643,0,0,0,.141.324.661.661,0,0,0,.512.245l51.921.288h0a.664.664,0,0,0,.543-.279.635.635,0,0,0,.088-.6c-1.88-5.212-8.35-9.392-13.446-11.981a.19.19,0,0,1,.172-.338c5.158,2.62,11.71,6.862,13.631,12.191a1.02,1.02,0,0,1-.138.949A1.053,1.053,0,0,1,4951.411,1878.6Z" transform="translate(-4898.25 -1854.793)" fill="#451d26"/>
                    </g>
                  </g>
                </g>
              </g>
              <g id="Grupo_1118987" data-name="Grupo 1118987" transform="translate(23.336 5.253)">
                <g id="Grupo_1118986" data-name="Grupo 1118986">
                  <path id="Trazado_913532" data-name="Trazado 913532" d="M5002.145,1882.912l-.03,0a.19.19,0,0,1-.158-.217,5.336,5.336,0,0,1,2.247-3.443,5.613,5.613,0,0,1,4.207-1.029.19.19,0,0,1-.067.373,5.234,5.234,0,0,0-3.92.965,4.954,4.954,0,0,0-2.091,3.192A.189.189,0,0,1,5002.145,1882.912Z" transform="translate(-5001.955 -1878.144)" fill="#451d26"/>
                </g>
              </g>
              <g id="Grupo_1118989" data-name="Grupo 1118989" transform="translate(29.661 7.417)">
                <g id="Grupo_1118988" data-name="Grupo 1118988">
                  <path id="Trazado_913533" data-name="Trazado 913533" d="M5030.259,1892.144a.182.182,0,0,1-.049-.007.189.189,0,0,1-.134-.232,5.551,5.551,0,0,1,2.906-3.669,3.712,3.712,0,0,1,2.918-.292.19.19,0,0,1-.148.349,3.387,3.387,0,0,0-2.6.283,5.177,5.177,0,0,0-2.705,3.426A.19.19,0,0,1,5030.259,1892.144Z" transform="translate(-5030.069 -1887.761)" fill="#451d26"/>
                </g>
              </g>
            </g>
          </g>
          <g id="Grupo_1119021" data-name="Grupo 1119021" transform="translate(4788.926 919.94)">
            <g id="Grupo_1119020" data-name="Grupo 1119020" transform="translate(0 0)">
              <g id="Grupo_1119015" data-name="Grupo 1119015">
                <g id="Grupo_1118994" data-name="Grupo 1118994" transform="translate(0.19 0.185)">
                  <g id="Grupo_1118993" data-name="Grupo 1118993">
                    <g id="Grupo_1118992" data-name="Grupo 1118992">
                      <path id="Trazado_913534" data-name="Trazado 913534" d="M5186.625,1818.15a.854.854,0,0,1,1.032-1c2.041.485,6.018.813,7.955-3.211a.845.845,0,0,0,.076-.266.859.859,0,0,0,0-.215c-.2-1.481-1.02-9.381,3.179-13.688a.9.9,0,0,1,.509-.264.826.826,0,0,1,.544.1c1.191.7,4.194,2.17,6.97,1.144,0,0,19.614-8.2,28.893-2.78a.828.828,0,0,1,.41.666.861.861,0,0,1-.31.724l-40.03,33.067a.851.851,0,0,1-.706.181.835.835,0,0,1-.408-.2A27.4,27.4,0,0,1,5186.625,1818.15Z" transform="translate(-5186.608 -1796.122)" fill="#e9595c"/>
                    </g>
                  </g>
                </g>
                <g id="Grupo_1118997" data-name="Grupo 1118997" transform="translate(9.071 0.192)">
                  <g id="Grupo_1118996" data-name="Grupo 1118996">
                    <g id="Grupo_1118995" data-name="Grupo 1118995">
                      <path id="Trazado_913535" data-name="Trazado 913535" d="M5265.115,1797.382l-16.592,13.7-22.238,2.622a.859.859,0,0,0,0-.215c-.2-1.481-1.02-9.381,3.179-13.689a.9.9,0,0,1,.509-.264.828.828,0,0,1,.544.1c1.191.7,4.194,2.17,6.97,1.144C5237.485,1800.781,5255.436,1793.282,5265.115,1797.382Z" transform="translate(-5226.086 -1796.156)" fill="#fff"/>
                    </g>
                  </g>
                </g>
                <g id="Grupo_1119002" data-name="Grupo 1119002" transform="translate(8.478 18.941)">
                  <g id="Grupo_1118999" data-name="Grupo 1118999" transform="translate(0 0)">
                    <g id="Grupo_1118998" data-name="Grupo 1118998">
                      <circle id="Elipse_11847" data-name="Elipse 11847" cx="2.88" cy="2.88" r="2.88" transform="matrix(0.996, -0.091, 0.091, 0.996, 0, 0.522)" fill="#fff"/>
                    </g>
                  </g>
                  <g id="Grupo_1119001" data-name="Grupo 1119001" transform="translate(1.097 0.061)">
                    <g id="Grupo_1119000" data-name="Grupo 1119000">
                      <path id="Trazado_913536" data-name="Trazado 913536" d="M5232.2,1885.234a.189.189,0,0,1-.121-.335,2.691,2.691,0,0,0-3.444-4.135.189.189,0,0,1-.242-.292,3.07,3.07,0,1,1,3.929,4.717A.188.188,0,0,1,5232.2,1885.234Z" transform="translate(-5228.323 -1879.764)" fill="#451d26"/>
                    </g>
                  </g>
                </g>
                <g id="Grupo_1119005" data-name="Grupo 1119005" transform="translate(3.747 23.092)">
                  <g id="Grupo_1119004" data-name="Grupo 1119004">
                    <g id="Grupo_1119003" data-name="Grupo 1119003">
                      <path id="Trazado_913537" data-name="Trazado 913537" d="M5205.854,1910.2a28.516,28.516,0,0,1-3.435-4.422c7.43-5.264,17-7.835,17-7.835Z" transform="translate(-5202.419 -1897.945)" fill="#fff"/>
                    </g>
                  </g>
                </g>
                <g id="Grupo_1119008" data-name="Grupo 1119008" transform="translate(6.006 0.19)">
                  <g id="Grupo_1119007" data-name="Grupo 1119007">
                    <g id="Grupo_1119006" data-name="Grupo 1119006">
                      <path id="Trazado_913538" data-name="Trazado 913538" d="M5244.622,1803.42l-.832-1a2.366,2.366,0,0,1,.3-3.332l3.537-2.946a20.626,20.626,0,0,1,5.062.609l.009-.007c.041.01.081.024.123.035l.02.006a12.143,12.143,0,0,1,2.973,1.2.827.827,0,0,1,.41.666.858.858,0,0,1-.31.724l-40.03,33.067a.852.852,0,0,1-.706.18.841.841,0,0,1-.408-.2,25.754,25.754,0,0,1-2.313-2.437Z" transform="translate(-5212.46 -1796.144)" fill="#fff"/>
                    </g>
                  </g>
                </g>
                <g id="Grupo_1119011" data-name="Grupo 1119011" transform="translate(5.816)">
                  <g id="Grupo_1119010" data-name="Grupo 1119010">
                    <g id="Grupo_1119009" data-name="Grupo 1119009">
                      <path id="Trazado_913539" data-name="Trazado 913539" d="M5214.691,1832.181a1.039,1.039,0,0,1-.7-.27,25.882,25.882,0,0,1-2.331-2.456.188.188,0,0,1,.025-.268l32.015-26.446-.71-.852a2.558,2.558,0,0,1,.329-3.6l3.537-2.946a.2.2,0,0,1,.123-.044,20.882,20.882,0,0,1,5.063.6.162.162,0,0,1,.055,0l.124.036a12.485,12.485,0,0,1,3.04,1.23,1.02,1.02,0,0,1,.5.817,1.051,1.051,0,0,1-.378.883l-40.031,33.067A1.039,1.039,0,0,1,5214.691,1832.181Zm-2.616-2.823a25.3,25.3,0,0,0,2.173,2.273.647.647,0,0,0,.315.158.662.662,0,0,0,.549-.14l40.03-33.067a.663.663,0,0,0,.242-.564.635.635,0,0,0-.315-.515,12.03,12.03,0,0,0-2.927-1.185l-.1-.029a.179.179,0,0,1-.051,0,20.378,20.378,0,0,0-4.946-.6l-3.484,2.9a2.178,2.178,0,0,0-.279,3.065l.832,1a.189.189,0,0,1-.024.267Z" transform="translate(-5211.617 -1795.301)" fill="#451d26"/>
                    </g>
                  </g>
                </g>
                <g id="Grupo_1119014" data-name="Grupo 1119014" transform="translate(0 0.006)">
                  <g id="Grupo_1119013" data-name="Grupo 1119013">
                    <g id="Grupo_1119012" data-name="Grupo 1119012">
                      <path id="Trazado_913540" data-name="Trazado 913540" d="M5194.654,1832.2a1.032,1.032,0,0,1-.7-.27,27.782,27.782,0,0,1-8.17-14.36,1.042,1.042,0,0,1,1.26-1.222c2.093.5,5.882.755,7.74-3.109a.647.647,0,0,0,.061-.206.691.691,0,0,0,0-.168c-.205-1.547-1.017-9.488,3.23-13.846a1.1,1.1,0,0,1,.616-.319,1.013,1.013,0,0,1,.669.129,11.532,11.532,0,0,0,2.843,1.2.188.188,0,0,1,.136.231.19.19,0,0,1-.231.135,11.909,11.909,0,0,1-2.938-1.239.636.636,0,0,0-.421-.081.715.715,0,0,0-.4.208c-4.126,4.233-3.328,12.014-3.127,13.531a1.073,1.073,0,0,1,0,.262,1.038,1.038,0,0,1-.1.326c-1.975,4.1-5.965,3.837-8.169,3.313a.651.651,0,0,0-.59.149.661.661,0,0,0-.212.63,27.38,27.38,0,0,0,8.055,14.155.649.649,0,0,0,.315.159.662.662,0,0,0,.55-.14l40.03-33.067a.663.663,0,0,0,.24-.565.633.633,0,0,0-.314-.515c-4.785-2.795-12.431-1.854-18-.573a.19.19,0,0,1-.084-.37c5.638-1.3,13.386-2.242,18.276.616a1.021,1.021,0,0,1,.5.817,1.054,1.054,0,0,1-.378.883l-40.03,33.067A1.04,1.04,0,0,1,5194.654,1832.2Z" transform="translate(-5185.765 -1795.326)" fill="#451d26"/>
                    </g>
                  </g>
                </g>
              </g>
              <g id="Grupo_1119017" data-name="Grupo 1119017" transform="translate(17.039 4.354)">
                <g id="Grupo_1119016" data-name="Grupo 1119016">
                  <path id="Trazado_913541" data-name="Trazado 913541" d="M5262.343,1822.34a.191.191,0,0,1-.163-.092,5.332,5.332,0,0,1-.483-4.082,5.618,5.618,0,0,1,2.569-3.487.189.189,0,1,1,.187.33,5.243,5.243,0,0,0-2.389,3.254,4.953,4.953,0,0,0,.442,3.79.19.19,0,0,1-.163.288Z" transform="translate(-5261.5 -1814.654)" fill="#451d26"/>
                </g>
              </g>
              <g id="Grupo_1119019" data-name="Grupo 1119019" transform="translate(23.125 2.457)">
                <g id="Grupo_1119018" data-name="Grupo 1119018">
                  <path id="Trazado_913542" data-name="Trazado 913542" d="M5289.307,1813.115a.189.189,0,0,1-.172-.11,5.549,5.549,0,0,1-.123-4.678,3.716,3.716,0,0,1,2.053-2.095.19.19,0,0,1,.111.363,3.382,3.382,0,0,0-1.817,1.887,5.173,5.173,0,0,0,.121,4.364.19.19,0,0,1-.092.252A.193.193,0,0,1,5289.307,1813.115Z" transform="translate(-5288.556 -1806.223)" fill="#451d26"/>
                </g>
              </g>
            </g>
          </g>
          <g id="Grupo_1119023" data-name="Grupo 1119023" transform="translate(4749.872 851.837)">
            <g id="Grupo_1119022" data-name="Grupo 1119022" transform="translate(0 0)">
              <path id="Trazado_913543" data-name="Trazado 913543" d="M5012.358,1499.288a.17.17,0,0,1-.033,0,.189.189,0,0,1-.153-.219,15.44,15.44,0,0,1,2.875-6.413.191.191,0,0,1,.268-.024.189.189,0,0,1,.024.267,15.364,15.364,0,0,0-2.794,6.235A.19.19,0,0,1,5012.358,1499.288Z" transform="translate(-5012.169 -1492.585)" fill="#451d26"/>
            </g>
          </g>
          <g id="Grupo_1119025" data-name="Grupo 1119025" transform="translate(4750.744 855.98)">
            <g id="Grupo_1119024" data-name="Grupo 1119024" transform="translate(0 0)">
              <path id="Trazado_913544" data-name="Trazado 913544" d="M5016.235,1514.87a.19.19,0,0,1-.165-.282c1.994-3.545,3.588-3.586,3.654-3.586a.19.19,0,1,1,0,.379c-.011,0-1.459.078-3.323,3.392A.19.19,0,0,1,5016.235,1514.87Z" transform="translate(-5016.046 -1511.002)" fill="#451d26"/>
            </g>
          </g>
          <g id="Grupo_1119027" data-name="Grupo 1119027" transform="translate(4689.25 732.556)">
            <g id="Grupo_1119026" data-name="Grupo 1119026">
              <path id="Trazado_913545" data-name="Trazado 913545" d="M4749,971.7a.189.189,0,0,1-.176-.119c-2.885-7.157-5.986-8.827-6.018-8.843a.19.19,0,0,1,.175-.337c.131.068,3.258,1.752,6.194,9.039a.19.19,0,0,1-.105.247A.186.186,0,0,1,4749,971.7Z" transform="translate(-4742.707 -962.385)" fill="#451d26"/>
            </g>
          </g>
          <g id="Grupo_1119029" data-name="Grupo 1119029" transform="translate(4727.202 665.841)">
            <g id="Grupo_1119028" data-name="Grupo 1119028" transform="translate(0 0)">
              <circle id="Elipse_11848" data-name="Elipse 11848" cx="7.409" cy="7.409" r="7.409" transform="matrix(0.079, -0.997, 0.997, 0.079, 0, 14.773)" fill="#451d26"/>
            </g>
          </g>
          <g id="Grupo_1119031" data-name="Grupo 1119031" transform="translate(4732.945 669.99)">
            <g id="Grupo_1119030" data-name="Grupo 1119030" transform="translate(0 0)">
              <path id="Trazado_913546" data-name="Trazado 913546" d="M4943.408,712.851a57.992,57.992,0,0,0-4.726-8.28c-2.77-3.948-2.757-11.452,3.734-13.555,1.46-2.486,5.881-3.844,9.247-4.085s6.363-2.956,8.769-2.618,8.8,8.107,5.753,14.581S4949.6,713.41,4943.408,712.851Z" transform="translate(-4936.931 -684.284)" fill="#451d26"/>
            </g>
          </g>
          <g id="Grupo_1119033" data-name="Grupo 1119033" transform="translate(4740.377 676.037)">
            <g id="Grupo_1119032" data-name="Grupo 1119032" transform="translate(0 0)">
              <path id="Trazado_913547" data-name="Trazado 913547" d="M4987.885,740.055c-5.719,2.833-13.1-1.8-16.854-7.058,0,0-1.311-1.434-1.025-4.987,1.786-.416,4.92-5.8,3.709-9.543,1.562-.5,2.757-4.262,1.887-6.9,4.322-1.185,14.03-.171,15.181,8.162S4994.233,736.109,4987.885,740.055Z" transform="translate(-4969.965 -711.163)" fill="#ff7c6d"/>
            </g>
          </g>
          <g id="Grupo_1119035" data-name="Grupo 1119035" transform="translate(4745.695 675.84)">
            <g id="Grupo_1119034" data-name="Grupo 1119034" transform="translate(0 0)">
              <path id="Trazado_913548" data-name="Trazado 913548" d="M5002.4,740.428a14.767,14.767,0,0,1-8.724-3.4.19.19,0,1,1,.229-.3c4.318,3.285,8.771,4.191,12.213,2.485,5.4-3.357,4.37-9.931,3.279-16.891-.165-1.056-.336-2.148-.486-3.234a8.686,8.686,0,0,0-3.937-6.33,14.781,14.781,0,0,0-11-1.675.19.19,0,0,1-.1-.366,15.132,15.132,0,0,1,11.314,1.725,9.054,9.054,0,0,1,4.1,6.594c.149,1.083.319,2.173.485,3.227,1.11,7.088,2.16,13.783-3.47,17.281A8.714,8.714,0,0,1,5002.4,740.428Z" transform="translate(-4993.605 -710.288)" fill="#451d26"/>
            </g>
          </g>
          <g id="Grupo_1119037" data-name="Grupo 1119037" transform="translate(4744.152 690.678)">
            <g id="Grupo_1119036" data-name="Grupo 1119036" transform="translate(0 0)">
              <path id="Trazado_913549" data-name="Trazado 913549" d="M4993.22,778.81a3.267,3.267,0,1,1-3.555-2.548A3.1,3.1,0,0,1,4993.22,778.81Z" transform="translate(-4986.745 -776.239)" fill="#ff6a59"/>
            </g>
          </g>
          <g id="Grupo_1119042" data-name="Grupo 1119042" transform="translate(4746.426 686.993)">
            <g id="Grupo_1119041" data-name="Grupo 1119041" transform="translate(0 0)">
              <path id="Trazado_913550" data-name="Trazado 913550" d="M4996.854,761.975c1.346-2.736,4.314-3.284,6.472,1.214C5001.067,765.164,4997.707,764.679,4996.854,761.975Z" transform="translate(-4996.854 -759.863)" fill="#fff"/>
              <g id="Grupo_1119040" data-name="Grupo 1119040" clip-path="url(#clip-path-2)">
                <g id="Grupo_1119039" data-name="Grupo 1119039" transform="translate(2.259 0.778)">
                  <g id="Grupo_1119038" data-name="Grupo 1119038">
                    <path id="Trazado_913551" data-name="Trazado 913551" d="M5011.087,765.378a2.11,2.11,0,1,1-2.345-2.043A2.2,2.2,0,0,1,5011.087,765.378Z" transform="translate(-5006.893 -763.323)" fill="#451d26"/>
                  </g>
                </g>
              </g>
            </g>
          </g>
          <g id="Grupo_1119051" data-name="Grupo 1119051" transform="translate(4756.115 685.753)">
            <g id="Grupo_1119044" data-name="Grupo 1119044" transform="translate(0.19 0.189)">
              <g id="Grupo_1119043" data-name="Grupo 1119043">
                <path id="Trazado_913553" data-name="Trazado 913553" d="M5045.439,756.714a3.091,3.091,0,0,0-1.925-1.511c-1.15-.174-2.27.948-2.749,3.934C5042.863,760.59,5045.318,759.471,5045.439,756.714Z" transform="translate(-5040.766 -755.186)" fill="#fff"/>
              </g>
            </g>
            <g id="Grupo_1119046" data-name="Grupo 1119046" transform="translate(0 0)">
              <g id="Grupo_1119045" data-name="Grupo 1119045">
                <path id="Trazado_913554" data-name="Trazado 913554" d="M5040.112,758.677l-.03,0a.19.19,0,0,1-.157-.218c.644-4,2.286-4.193,2.965-4.091a3.27,3.27,0,0,1,2.055,1.594.19.19,0,0,1-.317.209,2.907,2.907,0,0,0-1.795-1.428c-1.176-.177-2.124,1.234-2.532,3.776A.191.191,0,0,1,5040.112,758.677Z" transform="translate(-5039.922 -754.348)" fill="#451d26"/>
              </g>
            </g>
            <g id="Grupo_1119050" data-name="Grupo 1119050" transform="translate(0.19 0.189)">
              <g id="Grupo_1119049" data-name="Grupo 1119049" clip-path="url(#clip-path-3)">
                <g id="Grupo_1119048" data-name="Grupo 1119048" transform="translate(1.737 0.519)">
                  <g id="Grupo_1119047" data-name="Grupo 1119047">
                    <path id="Trazado_913555" data-name="Trazado 913555" d="M5052.679,759.547a2.11,2.11,0,1,1-2.344-2.043A2.2,2.2,0,0,1,5052.679,759.547Z" transform="translate(-5048.484 -757.492)" fill="#451d26"/>
                  </g>
                </g>
              </g>
            </g>
          </g>
          <g id="Grupo_1119058" data-name="Grupo 1119058" transform="translate(4754.788 687.079)">
            <g id="Grupo_1119053" data-name="Grupo 1119053" transform="translate(0 0.19)">
              <g id="Grupo_1119052" data-name="Grupo 1119052">
                <path id="Trazado_913557" data-name="Trazado 913557" d="M5035.763,761.085a4.537,4.537,0,0,0,.483,3.619c.685,1.012,1.229,1.3.523,2.022-1.845.839-2.588.412-2.733-.36S5034.721,761.445,5035.763,761.085Z" transform="translate(-5034.019 -761.085)" fill="#ff7c6d"/>
              </g>
            </g>
            <g id="Grupo_1119055" data-name="Grupo 1119055" transform="translate(0.05 3.675)">
              <g id="Grupo_1119054" data-name="Grupo 1119054">
                <path id="Trazado_913558" data-name="Trazado 913558" d="M5036.342,776.577a1.486,1.486,0,0,0-.739,1.158c-.094.276-1.1.046-1.363.744.2.7.947,1.051,2.7.253.705-.722.162-1.009-.523-2.022C5036.39,776.669,5036.368,776.62,5036.342,776.577Z" transform="translate(-5034.24 -776.577)" fill="#ff6a59"/>
              </g>
            </g>
            <g id="Grupo_1119057" data-name="Grupo 1119057" transform="translate(1.367)">
              <g id="Grupo_1119056" data-name="Grupo 1119056">
                <path id="Trazado_913559" data-name="Trazado 913559" d="M5041.479,766.262a.189.189,0,0,1-.136-.322c.445-.457.321-.621-.143-1.231-.121-.16-.259-.34-.4-.552a4.728,4.728,0,0,1-.5-3.8.189.189,0,1,1,.347.152,4.358,4.358,0,0,0,.467,3.436c.139.205.272.38.39.535.456.6.786,1.035.112,1.725A.19.19,0,0,1,5041.479,766.262Z" transform="translate(-5040.097 -760.242)" fill="#451d26"/>
              </g>
            </g>
          </g>
          <g id="Grupo_1119060" data-name="Grupo 1119060" transform="translate(4734.541 690.884)">
            <g id="Grupo_1119059" data-name="Grupo 1119059" transform="translate(0 0)">
              <path id="Trazado_913560" data-name="Trazado 913560" d="M4952.29,780.166c-3.648-4.172-8.066-3.677-8.252-.53s2.107,7.741,8.913,5.469C4953.107,781.207,4952.29,780.166,4952.29,780.166Z" transform="translate(-4944.027 -777.156)" fill="#ff7c6d"/>
            </g>
          </g>
          <g id="Grupo_1119062" data-name="Grupo 1119062" transform="translate(4734.352 690.697)">
            <g id="Grupo_1119061" data-name="Grupo 1119061" transform="translate(0 0)">
              <path id="Trazado_913561" data-name="Trazado 913561" d="M4948.956,785.254a5.694,5.694,0,0,1-3.562-1.105,6.116,6.116,0,0,1-2.2-5.17,2.649,2.649,0,0,1,1.827-2.473c1.5-.514,4.174-.066,6.758,2.889a.19.19,0,0,1-.286.25c-2.3-2.633-4.848-3.293-6.35-2.78a2.26,2.26,0,0,0-1.571,2.137,5.816,5.816,0,0,0,2.052,4.846c1.569,1.2,3.856,1.352,6.613.432a.189.189,0,1,1,.12.359A10.77,10.77,0,0,1,4948.956,785.254Z" transform="translate(-4943.185 -776.323)" fill="#451d26"/>
            </g>
          </g>
          <g id="Grupo_1119064" data-name="Grupo 1119064" transform="translate(4736.475 692.788)">
            <g id="Grupo_1119063" data-name="Grupo 1119063" transform="translate(0 0)">
              <path id="Trazado_913562" data-name="Trazado 913562" d="M4958.187,790.027c-.741-3.888-4.01-5.318-5.568-3.832A6.953,6.953,0,0,1,4958.187,790.027Z" transform="translate(-4952.618 -785.619)" fill="#ff6a59"/>
            </g>
          </g>
          <g id="Grupo_1119066" data-name="Grupo 1119066" transform="translate(4736.285 692.597)">
            <g id="Grupo_1119065" data-name="Grupo 1119065">
              <path id="Trazado_913563" data-name="Trazado 913563" d="M4957.533,789.559a.19.19,0,0,1-.187-.154,5.061,5.061,0,0,0-3.084-4.121,2.111,2.111,0,0,0-2.166.391.19.19,0,1,1-.262-.274,2.475,2.475,0,0,1,2.543-.478,5.434,5.434,0,0,1,3.342,4.411.189.189,0,0,1-.151.222A.187.187,0,0,1,4957.533,789.559Z" transform="translate(-4951.776 -784.771)" fill="#451d26"/>
            </g>
          </g>
          <g id="Grupo_1119068" data-name="Grupo 1119068" transform="translate(4738.59 694.444)">
            <g id="Grupo_1119067" data-name="Grupo 1119067" transform="translate(0 0)">
              <path id="Trazado_913564" data-name="Trazado 913564" d="M4962.812,796.058a.19.19,0,0,1-.111-.037,1.606,1.606,0,0,1-.426-2.185,1.744,1.744,0,0,1,2.334-.648.19.19,0,0,1-.167.341,1.358,1.358,0,0,0-1.842.5,1.222,1.222,0,0,0,.325,1.683.19.19,0,0,1-.113.343Z" transform="translate(-4962.022 -792.981)" fill="#451d26"/>
            </g>
          </g>
          <g id="Grupo_1119070" data-name="Grupo 1119070" transform="translate(4754.59 700.313)">
            <g id="Grupo_1119069" data-name="Grupo 1119069" transform="translate(0 0)">
              <path id="Trazado_913565" data-name="Trazado 913565" d="M5035.377,820.638a3.716,3.716,0,0,1-2.236-.725l.237-.3a3.225,3.225,0,0,0,2.939.475,1.2,1.2,0,0,0,.8-1.026l.377.041a1.575,1.575,0,0,1-1.031,1.335A2.857,2.857,0,0,1,5035.377,820.638Z" transform="translate(-5033.141 -819.066)" fill="#ff6a59"/>
            </g>
          </g>
          <g id="Grupo_1119072" data-name="Grupo 1119072" transform="translate(4745.64 689.399)">
            <g id="Grupo_1119071" data-name="Grupo 1119071" transform="translate(0 0)">
              <path id="Trazado_913566" data-name="Trazado 913566" d="M4993.548,771.186a.19.19,0,0,1-.062-.369l.724-.25a.19.19,0,1,1,.124.359l-.724.249A.185.185,0,0,1,4993.548,771.186Z" transform="translate(-4993.358 -770.557)" fill="#451d26"/>
            </g>
          </g>
          <g id="Grupo_1119074" data-name="Grupo 1119074" transform="translate(4746.12 690.055)">
            <g id="Grupo_1119073" data-name="Grupo 1119073" transform="translate(0 0)">
              <path id="Trazado_913567" data-name="Trazado 913567" d="M4995.681,774.227a.189.189,0,0,1-.115-.341l.494-.375a.19.19,0,1,1,.229.3l-.494.375A.19.19,0,0,1,4995.681,774.227Z" transform="translate(-4995.491 -773.473)" fill="#451d26"/>
            </g>
          </g>
          <g id="Grupo_1119076" data-name="Grupo 1119076" transform="translate(4745.88 683.488)">
            <g id="Grupo_1119075" data-name="Grupo 1119075" transform="translate(0 0)">
              <path id="Trazado_913568" data-name="Trazado 913568" d="M5002.17,746.141c.013.463-1.989-.24-4.126-.181s-3.6.855-3.614.392,1.432-2.011,3.569-2.07S5002.158,745.678,5002.17,746.141Z" transform="translate(-4994.43 -744.28)" fill="#451d26"/>
            </g>
          </g>
          <g id="Grupo_1119078" data-name="Grupo 1119078" transform="translate(4756.55 682.423)">
            <g id="Grupo_1119077" data-name="Grupo 1119077">
              <path id="Trazado_913569" data-name="Trazado 913569" d="M5046.309,741.322c.035.416-.641-.368-1.871-.265s-2.548,1.052-2.583.636a3.434,3.434,0,0,1,2.458-2.141C5045.543,739.45,5046.274,740.907,5046.309,741.322Z" transform="translate(-5041.854 -739.547)" fill="#451d26"/>
            </g>
          </g>
          <g id="Grupo_1119080" data-name="Grupo 1119080" transform="translate(4751.762 695.148)">
            <g id="Grupo_1119079" data-name="Grupo 1119079" transform="translate(0 0)">
              <path id="Trazado_913570" data-name="Trazado 913570" d="M5020.573,796.782c4.789.044,8.487-1.838,7.027.51C5028.538,800.72,5025.672,804.1,5020.573,796.782Z" transform="translate(-5020.573 -796.11)" fill="#ff6a59"/>
            </g>
          </g>
          <g id="Grupo_1119082" data-name="Grupo 1119082" transform="translate(4751.307 695.453)">
            <g id="Grupo_1119081" data-name="Grupo 1119081" transform="translate(0 0)">
              <path id="Trazado_913571" data-name="Trazado 913571" d="M5024.095,799.585a11.557,11.557,0,0,1-5.451-1.766.19.19,0,0,1,.187-.331c3.769,2.116,6.186,1.936,6.892,1.3a.333.333,0,0,0,.135-.368.189.189,0,1,1,.347-.152.69.69,0,0,1-.228.8A2.867,2.867,0,0,1,5024.095,799.585Z" transform="translate(-5018.546 -797.465)" fill="#451d26"/>
            </g>
          </g>
          <g id="Grupo_1119084" data-name="Grupo 1119084" transform="translate(4745.587 686.792)">
            <g id="Grupo_1119083" data-name="Grupo 1119083" transform="translate(0 0)">
              <path id="Trazado_913572" data-name="Trazado 913572" d="M5000.435,762.683a.19.19,0,0,1-.17-.1c-1.073-2.115-2.287-3.233-3.51-3.233h-.008a3.262,3.262,0,0,0-2.615,2.019.19.19,0,0,1-.308.045l-.649-.69a.189.189,0,1,1,.275-.26l.469.5a3.509,3.509,0,0,1,2.827-1.991h.009c.961,0,2.406.6,3.849,3.441a.19.19,0,0,1-.084.255A.186.186,0,0,1,5000.435,762.683Z" transform="translate(-4993.123 -758.966)" fill="#451d26"/>
            </g>
          </g>
          <g id="Grupo_1119086" data-name="Grupo 1119086" transform="translate(4760.789 686.54)">
            <g id="Grupo_1119085" data-name="Grupo 1119085">
              <path id="Trazado_913573" data-name="Trazado 913573" d="M5060.887,758.968a.188.188,0,0,1-.127-.049.191.191,0,0,1-.014-.268l.672-.739a.19.19,0,1,1,.281.255l-.672.74A.189.189,0,0,1,5060.887,758.968Z" transform="translate(-5060.698 -757.85)" fill="#451d26"/>
            </g>
          </g>
          <g id="Grupo_1119088" data-name="Grupo 1119088" transform="translate(4721.178 702.434)">
            <g id="Grupo_1119087" data-name="Grupo 1119087" transform="translate(0 0)">
              <path id="Trazado_913574" data-name="Trazado 913574" d="M4923.944,851.868c-.16-.24-1.865-5.538-2.956-9.474a8.806,8.806,0,0,0-1.262-.6c-1.21-.442-2.132-.795-2.846-1.077a84.632,84.632,0,0,1,4.881,16.331s-10.189,3.093-23.016-4c0,0-1.123-13.634-1.109-20.269-2.128-2.047-4.112-3.915-6.695-4.284,0,0,4.049,28.3-6.313,34.465a48.766,48.766,0,0,0,8.167,13.945c3.161,3.925,1.853,8.4,0,9.7h27.476c-.437-8.832,7.305-14.5,8.4-18.645C4928.75,865.508,4929.4,857.872,4923.944,851.868Z" transform="translate(-4884.628 -828.497)" fill="#6693a3"/>
            </g>
          </g>
        </g>
        <g id="Grupo_1119165" data-name="Grupo 1119165" transform="translate(-5663.511 5429.035)">
          <g id="Grupo_1119160" data-name="Grupo 1119160" transform="translate(6003.457 1154.499)">
            <g id="Grupo_1119159" data-name="Grupo 1119159" transform="translate(0)">
              <path id="Trazado_913596" data-name="Trazado 913596" d="M6009.627,1183.289h165.165c-14.9-7.7-40.866-6.736-40.866-6.736-25.541-40.413-71.515-15.075-77.9-3.849C6041.979,1169.177,6015.586,1177.836,6009.627,1183.289Z" transform="translate(-6009.627 -1154.499)" fill="#fff"/>
            </g>
          </g>
          <g id="Grupo_1119162" data-name="Grupo 1119162" transform="translate(6076.143 1157.899)">
            <g id="Grupo_1119161" data-name="Grupo 1119161" transform="translate(0 0)">
              <path id="Trazado_913597" data-name="Trazado 913597" d="M6245.7,1191.717h-18.018a.212.212,0,0,1,0-.425h17.2c-13.349-7.235-35.846-6.4-36.075-6.385a.208.208,0,0,1-.194-.108c-10.562-18.716-24.569-22.392-34.459-22.18a.207.207,0,0,1-.217-.208.213.213,0,0,1,.208-.217c9.977-.208,24.115,3.481,34.775,22.284,1.906-.06,24.049-.582,36.882,6.843a.212.212,0,0,1-.105.4Z" transform="translate(-6173.942 -1162.186)" fill="#451d26"/>
            </g>
          </g>
          <g id="Grupo_1119164" data-name="Grupo 1119164" transform="translate(5998.562 1162.559)">
            <g id="Grupo_1119163" data-name="Grupo 1119163" transform="translate(0 0)">
              <path id="Trazado_913598" data-name="Trazado 913598" d="M6111.048,1197.591H5998.774a.212.212,0,0,1-.152-.36c5.383-5.515,29.089-14.283,41.937-10.8,1.955-3.68,8.045-9.472,16.983-13.687a.212.212,0,1,1,.182.384c-8.974,4.232-15.034,10.042-16.867,13.65a.212.212,0,0,1-.247.108c-12.41-3.491-35.314,4.79-41.312,10.284h111.749a.212.212,0,1,1,0,.425Z" transform="translate(-5998.562 -1172.719)" fill="#451d26"/>
            </g>
          </g>
        </g>
        <g id="Grupo_1119158" data-name="Grupo 1119158" transform="translate(-4051.072 5363.724)">
          <g id="Grupo_1119150-2" data-name="Grupo 1119150">
            <g id="Grupo_1119149-2" data-name="Grupo 1119149">
              <path id="Trazado_913595-2" data-name="Trazado 913595" d="M4523.775,1293.335l5.695-5.694,37.264,37.265v-56.771h8.054v111.509h-8.054V1336.3Z" fill="#824648"/>
            </g>
          </g>
          <g id="Grupo_1119152-2" data-name="Grupo 1119152">
            <g id="Grupo_1119151-2" data-name="Grupo 1119151">
              <circle id="Elipse_11855-2" data-name="Elipse 11855" cx="43.284" cy="43.284" r="43.284" transform="translate(4531.996 1213)" fill="#628056"/>
            </g>
          </g>
          <g id="Grupo_1119154-2" data-name="Grupo 1119154">
            <g id="Grupo_1119153-2" data-name="Grupo 1119153">
              <circle id="Elipse_11856-2" data-name="Elipse 11856" cx="31.207" cy="31.207" r="31.207" transform="translate(4480.123 1276.488) rotate(-45)" fill="#83a973"/>
            </g>
          </g>
          <g id="Grupo_1119156-2" data-name="Grupo 1119156">
            <g id="Grupo_1119155-2" data-name="Grupo 1119155">
              <circle id="Elipse_11857-2" data-name="Elipse 11857" cx="31.207" cy="31.207" r="31.207" transform="translate(4602.175 1313.586) rotate(-13.283)" fill="#628056"/>
            </g>
          </g>
        </g>
        <g id="Grupo_1119148" data-name="Grupo 1119148" transform="translate(-5256.342 4886)">
          <g id="Grupo_1119096" data-name="Grupo 1119096" transform="translate(5702.054 1847.649)">
            <g id="Grupo_1119091" data-name="Grupo 1119091" transform="translate(9.069 17.514)">
              <g id="Grupo_1119090" data-name="Grupo 1119090">
                <path id="Trazado_913575" data-name="Trazado 913575" d="M5732.745,1910.623c-.178,1.424,0,38.626,0,38.626h4.272l6.051-7.3.356-29.725Z" transform="translate(-5732.666 -1910.623)" fill="#824648"/>
              </g>
            </g>
            <g id="Grupo_1119093" data-name="Grupo 1119093" transform="translate(0)">
              <g id="Grupo_1119092" data-name="Grupo 1119092">
                <circle id="Elipse_11849" data-name="Elipse 11849" cx="10.68" cy="10.68" r="10.68" transform="translate(0 8.174) rotate(-22.5)" fill="#cca281"/>
              </g>
            </g>
            <g id="Grupo_1119095" data-name="Grupo 1119095" transform="translate(9.105 45.46)">
              <g id="Grupo_1119094" data-name="Grupo 1119094">
                <path id="Trazado_913576" data-name="Trazado 913576" d="M5732.717,1950.207c.021,6.05.043,10.68.043,10.68h4.272l6.052-7.3.041-3.382Z" transform="translate(-5732.717 -1950.207)" fill="#451d26"/>
              </g>
            </g>
          </g>
          <g id="Grupo_1119103" data-name="Grupo 1119103" transform="translate(5758.005 1847.649)">
            <g id="Grupo_1119098" data-name="Grupo 1119098" transform="translate(9.069 17.514)">
              <g id="Grupo_1119097" data-name="Grupo 1119097">
                <path id="Trazado_913577" data-name="Trazado 913577" d="M5812,1910.623c-.178,1.424,0,38.626,0,38.626h4.272l6.052-7.3.356-29.725Z" transform="translate(-5811.917 -1910.623)" fill="#824648"/>
              </g>
            </g>
            <g id="Grupo_1119100" data-name="Grupo 1119100">
              <g id="Grupo_1119099" data-name="Grupo 1119099">
                <circle id="Elipse_11850" data-name="Elipse 11850" cx="10.68" cy="10.68" r="10.68" transform="translate(0 8.174) rotate(-22.5)" fill="#cca281"/>
              </g>
            </g>
            <g id="Grupo_1119102" data-name="Grupo 1119102" transform="translate(9.106 45.46)">
              <g id="Grupo_1119101" data-name="Grupo 1119101">
                <path id="Trazado_913578" data-name="Trazado 913578" d="M5811.969,1950.207c.021,6.05.042,10.68.042,10.68h4.272l6.052-7.3.041-3.382Z" transform="translate(-5811.969 -1950.207)" fill="#451d26"/>
              </g>
            </g>
          </g>
          <g id="Grupo_1119105" data-name="Grupo 1119105" transform="translate(5679.151 1767.086)">
            <g id="Grupo_1119104" data-name="Grupo 1119104">
              <path id="Trazado_913579" data-name="Trazado 913579" d="M5687.379,1789.245l11.226,18.414.847,28.2a32.01,32.01,0,0,0,32.025,31.078h49.186a32.029,32.029,0,0,0,32.04-32.039v-16.91a32.039,32.039,0,0,0-32.04-32.039h-48.594l-20.47-14.24Z" transform="translate(-5687.379 -1771.703)" fill="#e6be9f"/>
            </g>
          </g>
          <g id="Grupo_1119107" data-name="Grupo 1119107" transform="translate(5678.995 1766.93)">
            <g id="Grupo_1119106" data-name="Grupo 1119106">
              <path id="Trazado_913580" data-name="Trazado 913580" d="M5780.6,1867.023h-49.185a32.168,32.168,0,0,1-32.182-31.229l-.845-28.155-11.2-18.378a.155.155,0,0,1,.042-.208l24.22-17.542a.156.156,0,0,1,.181,0l20.43,14.212H5780.6a32.2,32.2,0,0,1,32.2,32.2v16.91a32.184,32.184,0,0,1-32.2,32.2Zm-93.074-77.8,11.151,18.29a.164.164,0,0,1,.022.077l.846,28.2a31.855,31.855,0,0,0,31.869,30.927H5780.6a31.871,31.871,0,0,0,31.884-31.883v-16.91a31.884,31.884,0,0,0-31.884-31.883H5732a.153.153,0,0,1-.089-.028l-20.379-14.176Z" transform="translate(-5687.157 -1771.481)" fill="#451d26"/>
            </g>
          </g>
          <g id="Grupo_1119112" data-name="Grupo 1119112" transform="translate(5672.266 1758.096)">
            <g id="Grupo_1119109" data-name="Grupo 1119109" transform="translate(0)">
              <g id="Grupo_1119108" data-name="Grupo 1119108">
                <path id="Trazado_913581" data-name="Trazado 913581" d="M5695.6,1762.552c-5.608-.865-7.375-5.142-17.976-2.979C5679.009,1765.484,5687,1768.223,5695.6,1762.552Z" transform="translate(-5677.627 -1758.969)" fill="#824648"/>
              </g>
            </g>
            <g id="Grupo_1119111" data-name="Grupo 1119111" transform="translate(0 0.604)">
              <g id="Grupo_1119110" data-name="Grupo 1119110">
                <path id="Trazado_913582" data-name="Trazado 913582" d="M5695.6,1762.8c-6.607.962-9.3-1.538-17.976-2.979C5679.009,1765.735,5687,1768.475,5695.6,1762.8Z" transform="translate(-5677.627 -1759.824)" fill="#451d26"/>
              </g>
            </g>
          </g>
          <g id="Grupo_1119114" data-name="Grupo 1119114" transform="translate(5659.548 1758.631)">
            <g id="Grupo_1119113" data-name="Grupo 1119113" transform="translate(0)">
              <path id="Trazado_913583" data-name="Trazado 913583" d="M5690.264,1759.727c-3.355,0-8.989,2.758-8.989,2.758l-21.626,13.706c-.535,6.5,5.251,10.5,11.125,9.7a42.967,42.967,0,0,1,8.443-.169,15.348,15.348,0,1,0,11.048-26Z" transform="translate(-5659.614 -1759.727)" fill="#824648"/>
            </g>
          </g>
          <g id="Grupo_1119116" data-name="Grupo 1119116" transform="translate(5659.393 1758.475)">
            <g id="Grupo_1119115" data-name="Grupo 1119115">
              <path id="Trazado_913584" data-name="Trazado 913584" d="M5690.2,1790.523a15.376,15.376,0,0,1-11.119-4.712,43.075,43.075,0,0,0-8.351.172,10.522,10.522,0,0,1-8.621-2.617,8.784,8.784,0,0,1-2.681-7.252.152.152,0,0,1,.072-.119l21.626-13.706c.246-.121,5.72-2.783,9.073-2.783a.156.156,0,0,1,0,.313c-3.28,0-8.864,2.715-8.92,2.743l-21.546,13.656a8.47,8.47,0,0,0,2.59,6.922,10.2,10.2,0,0,0,8.363,2.533,43.569,43.569,0,0,1,8.475-.169.16.16,0,0,1,.1.047,15.067,15.067,0,0,0,10.936,4.66,15.262,15.262,0,0,0,13.132-7.545.156.156,0,1,1,.271.157A15.576,15.576,0,0,1,5690.2,1790.523Z" transform="translate(-5659.394 -1759.505)" fill="#451d26"/>
            </g>
          </g>
          <g id="Grupo_1119118" data-name="Grupo 1119118" transform="translate(5659.426 1774.939)">
            <g id="Grupo_1119117" data-name="Grupo 1119117" transform="translate(0)">
              <path id="Trazado_913585" data-name="Trazado 913585" d="M5662.672,1784.5a6.16,6.16,0,0,1-1.393-.151c-1.016-.238-1.685-.724-1.834-1.334a.157.157,0,0,1,.115-.189.155.155,0,0,1,.189.115c.119.484.718.9,1.6,1.1a7.4,7.4,0,0,0,3.98-.324.156.156,0,0,1,.1.3A8.513,8.513,0,0,1,5662.672,1784.5Z" transform="translate(-5659.441 -1782.826)" fill="#451d26"/>
            </g>
          </g>
          <g id="Grupo_1119120" data-name="Grupo 1119120" transform="translate(5660.924 1776.096)">
            <g id="Grupo_1119119" data-name="Grupo 1119119">
              <path id="Trazado_913586" data-name="Trazado 913586" d="M5663.247,1790.786a.157.157,0,0,1-.137-.08,11.364,11.364,0,0,1-1.531-6.1.156.156,0,1,1,.311.03,11.286,11.286,0,0,0,1.495,5.917.156.156,0,0,1-.137.232Z" transform="translate(-5661.561 -1784.465)" fill="#451d26"/>
            </g>
          </g>
          <g id="Grupo_1119122" data-name="Grupo 1119122" transform="translate(5678.584 1768.999)">
            <g id="Grupo_1119121" data-name="Grupo 1119121" transform="translate(0)">
              <circle id="Elipse_11851" data-name="Elipse 11851" cx="1.513" cy="1.513" r="1.513" transform="translate(0 2.987) rotate(-80.783)" fill="#451d26"/>
            </g>
          </g>
          <g id="Grupo_1119127" data-name="Grupo 1119127" transform="translate(5693.403 1756)">
            <g id="Grupo_1119124" data-name="Grupo 1119124">
              <g id="Grupo_1119123" data-name="Grupo 1119123">
                <path id="Trazado_913587" data-name="Trazado 913587" d="M5707.566,1762.636c6.5-1.6,8.544-9.523,20.826-5.517C5726.79,1768.065,5717.534,1773.138,5707.566,1762.636Z" transform="translate(-5707.566 -1756)" fill="#824648"/>
              </g>
            </g>
            <g id="Grupo_1119126" data-name="Grupo 1119126" transform="translate(0 1.118)">
              <g id="Grupo_1119125" data-name="Grupo 1119125">
                <path id="Trazado_913588" data-name="Trazado 913588" d="M5707.566,1763.1c7.654,1.78,10.769-2.848,20.826-5.517C5726.79,1768.53,5717.534,1773.6,5707.566,1763.1Z" transform="translate(-5707.566 -1757.584)" fill="#451d26"/>
              </g>
            </g>
          </g>
          <g id="Grupo_1119129" data-name="Grupo 1119129" transform="translate(5792.904 1788.624)">
            <g id="Grupo_1119128" data-name="Grupo 1119128" transform="translate(0)">
              <circle id="Elipse_11852" data-name="Elipse 11852" cx="8.544" cy="8.544" r="8.544" fill="#e6be9f"/>
            </g>
          </g>
          <g id="Grupo_1119138" data-name="Grupo 1119138" transform="translate(5722.524 1847.649)">
            <g id="Grupo_1119131" data-name="Grupo 1119131" transform="translate(9.069 17.514)">
              <g id="Grupo_1119130" data-name="Grupo 1119130">
                <path id="Trazado_913589" data-name="Trazado 913589" d="M5761.74,1910.623c-.179,1.424,0,38.626,0,38.626h4.272l6.052-7.3.355-29.725Z" transform="translate(-5761.661 -1910.623)" fill="#824648"/>
              </g>
            </g>
            <g id="Grupo_1119133" data-name="Grupo 1119133">
              <g id="Grupo_1119132" data-name="Grupo 1119132">
                <circle id="Elipse_11853" data-name="Elipse 11853" cx="10.68" cy="10.68" r="10.68" transform="matrix(0.924, -0.383, 0.383, 0.924, 0, 8.174)" fill="#e6be9f"/>
              </g>
            </g>
            <g id="Grupo_1119135" data-name="Grupo 1119135" transform="translate(3.118 3.118)">
              <g id="Grupo_1119134" data-name="Grupo 1119134">
                <path id="Trazado_913590" data-name="Trazado 913590" d="M5764.067,1911.9a10.836,10.836,0,1,1,0-21.673.156.156,0,1,1,0,.313,10.524,10.524,0,0,0,0,21.047.156.156,0,1,1,0,.313Z" transform="translate(-5753.231 -1890.232)" fill="#451d26"/>
              </g>
            </g>
            <g id="Grupo_1119137" data-name="Grupo 1119137" transform="translate(9.105 45.46)">
              <g id="Grupo_1119136" data-name="Grupo 1119136">
                <path id="Trazado_913591" data-name="Trazado 913591" d="M5761.712,1950.207c.021,6.05.042,10.68.042,10.68h4.272l6.053-7.3.041-3.382Z" transform="translate(-5761.712 -1950.207)" fill="#451d26"/>
              </g>
            </g>
          </g>
          <g id="Grupo_1119147" data-name="Grupo 1119147" transform="translate(5771.803 1836.705)">
            <g id="Grupo_1119140" data-name="Grupo 1119140" transform="translate(15.741 28.458)">
              <g id="Grupo_1119139" data-name="Grupo 1119139">
                <path id="Trazado_913592" data-name="Trazado 913592" d="M5840.991,1910.623c-.178,1.424,0,38.626,0,38.626h4.272l6.052-7.3.355-29.725Z" transform="translate(-5840.912 -1910.623)" fill="#824648"/>
              </g>
            </g>
            <g id="Grupo_1119142" data-name="Grupo 1119142" transform="translate(0.157 0.156)">
              <g id="Grupo_1119141" data-name="Grupo 1119141">
                <circle id="Elipse_11854" data-name="Elipse 11854" cx="17.533" cy="17.533" r="17.533" fill="#e6be9f"/>
              </g>
            </g>
            <g id="Grupo_1119144" data-name="Grupo 1119144" transform="translate(0)">
              <g id="Grupo_1119143" data-name="Grupo 1119143">
                <path id="Trazado_913593" data-name="Trazado 913593" d="M5836.3,1905.693a17.689,17.689,0,0,1,0-35.379.156.156,0,1,1,0,.313,17.377,17.377,0,0,0,0,34.753.156.156,0,1,1,0,.313Z" transform="translate(-5818.616 -1870.314)" fill="#451d26"/>
              </g>
            </g>
            <g id="Grupo_1119146" data-name="Grupo 1119146" transform="translate(15.777 56.404)">
              <g id="Grupo_1119145" data-name="Grupo 1119145">
                <path id="Trazado_913594" data-name="Trazado 913594" d="M5840.963,1950.207c.021,6.05.043,10.68.043,10.68h4.271l6.052-7.3.041-3.382Z" transform="translate(-5840.963 -1950.207)" fill="#451d26"/>
              </g>
            </g>
          </g>
        </g>
      </g>
    </g>
  </g>
</svg>
