<svg xmlns="http://www.w3.org/2000/svg" width="71" height="71" viewBox="0 0 71 71">
  <g id="Grupo_1119185" data-name="Grupo 1119185" transform="translate(-824.051 -561)">
    <circle id="Elipse_11635" data-name="Elipse 11635" cx="35.5" cy="35.5" r="35.5" transform="translate(824.051 561)" fill="#fc0"/>
    <g id="Grupo_1119184" data-name="Grupo 1119184" transform="translate(837.051 567)">
      <path id="Trazado_913656" data-name="Trazado 913656" d="M41.328,49.5H34.385v1.592h.354a2.123,2.123,0,0,1,0,4.245H12.805a2.123,2.123,0,0,1,0-4.245h.354V49.5H5.951l-4.2,7.208,43.912.088Z" transform="translate(-1.131 -24.88)" fill="#e1ebf4"/>
      <path id="Trazado_913657" data-name="Trazado 913657" d="M57.566,15.729V30.212H42V15.729A.721.721,0,0,1,42.707,15H56.858a.721.721,0,0,1,.708.729Z" transform="translate(-27.141 -2.585)" fill="#ffdb80"/>
      <path id="Trazado_913658" data-name="Trazado 913658" d="M44.756,53.453l-3.414-5.459A2.146,2.146,0,0,0,39.531,47H33.255v1.415h6.276a.722.722,0,0,1,.612.325L43.556,54.2a2.2,2.2,0,0,1,.244.58H1.482a2.2,2.2,0,0,1,.244-.58L5.14,48.741a.722.722,0,0,1,.612-.325h6.276V47H5.752a2.146,2.146,0,0,0-1.811.994L.527,53.453A3.494,3.494,0,0,0,0,55.292V69.7a2.1,2.1,0,0,0,2.123,2.066H43.16A2.1,2.1,0,0,0,45.283,69.7V55.292a3.494,3.494,0,0,0-.527-1.84ZM43.868,69.7a.683.683,0,0,1-.708.651H2.123a.683.683,0,0,1-.708-.651V56.2H43.868Z" transform="translate(0 -23.264)" fill="#2d4356"/>
      <path id="Trazado_913659" data-name="Trazado 913659" d="M4,73V86.5a.683.683,0,0,0,.708.651H45.745a.683.683,0,0,0,.708-.651V73ZM25.226,83.967a3.538,3.538,0,1,1,3.538-3.538A3.538,3.538,0,0,1,25.226,83.967Z" transform="translate(-2.585 -40.066)" fill="#9387a2"/>
      <path id="Trazado_913660" data-name="Trazado 913660" d="M59.948,39.138,56.6,41.609l-1.392-1.377a.708.708,0,0,0-1,1.006l1.822,1.8a.714.714,0,0,0,.918.066l3.838-2.83a.707.707,0,1,0-.84-1.139Z" transform="translate(-34.896 -18.095)" fill="#2d4356"/>
      <path id="Trazado_913661" data-name="Trazado 913661" d="M57.538,84a3.538,3.538,0,1,0,3.538,3.538A3.538,3.538,0,0,0,57.538,84Zm0,5.66a2.123,2.123,0,1,1,2.123-2.123A2.123,2.123,0,0,1,57.538,89.66Z" transform="translate(-34.896 -47.175)" fill="#2d4356"/>
      <ellipse id="Elipse_11862" data-name="Elipse 11862" cx="1.932" cy="2.318" rx="1.932" ry="2.318" transform="translate(20.554 38.047)" fill="#e1ebf4"/>
      <g id="Grupo_1119183" data-name="Grupo 1119183" transform="translate(10.967 11)">
        <path id="Trazado_913662" data-name="Trazado 913662" d="M36.953,92H32.708a.708.708,0,1,0,0,1.415h4.245a.708.708,0,1,0,0-1.415Z" transform="translate(-31.646 -63.344)" fill="#2d4356"/>
        <path id="Trazado_913663" data-name="Trazado 913663" d="M84.953,92H80.708a.708.708,0,1,0,0,1.415h4.245a.708.708,0,1,0,0-1.415Z" transform="translate(-62.665 -63.344)" fill="#2d4356"/>
        <path id="Trazado_913664" data-name="Trazado 913664" d="M53.641,27.627H51.873V13.144A2.136,2.136,0,0,0,49.75,11H35.6a2.136,2.136,0,0,0-2.123,2.144V27.627H31.708a.708.708,0,1,0,0,1.415H53.641a.708.708,0,0,0,0-1.415Zm-3.184,0H34.891V13.144a.721.721,0,0,1,.708-.729H49.75a.721.721,0,0,1,.708.729Z" transform="translate(-31 -11)" fill="#2d4356"/>
        <path id="Trazado_913665" data-name="Trazado 913665" d="M59.783,21H52.708a.708.708,0,1,0,0,1.415h7.075a.708.708,0,0,0,0-1.415Z" transform="translate(-44.571 -17.462)" fill="#2d4356"/>
        <path id="Trazado_913666" data-name="Trazado 913666" d="M59.783,29H52.708a.708.708,0,1,0,0,1.415h7.075a.708.708,0,0,0,0-1.415Z" transform="translate(-44.571 -22.632)" fill="#2d4356"/>
      </g>
      <path id="Trazado_913667" data-name="Trazado 913667" d="M46.508,67.708H4.19a2.2,2.2,0,0,1,.244-.58L4.515,67H46.186l.078.127a2.2,2.2,0,0,1,.244.58Z" transform="translate(-2.708 -36.189)" fill="#9fa5aa" opacity="0.5"/>
      <path id="Trazado_913668" data-name="Trazado 913668" d="M104.546,57.368h-.322l-3.336-5.335a.722.722,0,0,0-.612-.325H94V51h6.276a.722.722,0,0,1,.612.325l3.414,5.462A2.2,2.2,0,0,1,104.546,57.368Z" transform="translate(-60.745 -25.849)" fill="#fff" opacity="0.5"/>
      <path id="Trazado_913669" data-name="Trazado 913669" d="M14.736,51v.708H8.46a.722.722,0,0,0-.612.325L4.515,57.368H4.19a2.2,2.2,0,0,1,.244-.58l3.414-5.462A.722.722,0,0,1,8.46,51Z" transform="translate(-2.708 -25.849)" fill="#fff" opacity="0.5"/>
      <path id="Trazado_913670" data-name="Trazado 913670" d="M4,73H46.453v.708H4Z" transform="translate(-2.585 -40.066)" fill="#dccef2" opacity="0.2"/>
      <path id="Trazado_913671" data-name="Trazado 913671" d="M46.453,109.16v.708a.683.683,0,0,1-.708.651H4.708A.683.683,0,0,1,4,109.868v-.708a.683.683,0,0,0,.708.651H45.745a.683.683,0,0,0,.708-.651Z" transform="translate(-2.585 -63.434)" fill="#5f5968" opacity="0.5"/>
      <path id="Trazado_913672" data-name="Trazado 913672" d="M57.566,15.729v.708a.721.721,0,0,0-.708-.729H42.707a.721.721,0,0,0-.708.729v-.708A.721.721,0,0,1,42.707,15H56.858A.721.721,0,0,1,57.566,15.729Z" transform="translate(-27.141 -2.585)" fill="#f9edd2" opacity="0.5"/>
      <path id="Trazado_913673" data-name="Trazado 913673" d="M42,56H57.566v.708H42Z" transform="translate(-27.142 -29.08)" fill="#ad9359" opacity="0.45"/>
      <path id="Trazado_913674" data-name="Trazado 913674" d="M62.245,90.123a1.935,1.935,0,0,1-.032.354,2.12,2.12,0,0,0-4.182,0A1.935,1.935,0,0,1,58,90.123a2.123,2.123,0,1,1,4.245,0Z" transform="translate(-37.481 -49.76)" fill="#fff" opacity="0.5"/>
      <path id="Trazado_913675" data-name="Trazado 913675" d="M62.245,93.354a2.123,2.123,0,0,1-4.245,0A1.935,1.935,0,0,1,58.032,93a2.12,2.12,0,0,0,4.182,0A1.935,1.935,0,0,1,62.245,93.354Z" transform="translate(-37.481 -52.991)" fill="#9fa5aa" opacity="0.5"/>
    </g>
  </g>
</svg>
