<svg xmlns="http://www.w3.org/2000/svg" width="71" height="71" viewBox="0 0 71 71">
  <g id="Grupo_1119193" data-name="Grupo 1119193" transform="translate(-194.051 -674)">
    <circle id="Elipse_11636" data-name="Elipse 11636" cx="35.5" cy="35.5" r="35.5" transform="translate(194.051 674)" fill="#fc0"/>
    <g id="Grupo_1119192" data-name="Grupo 1119192" transform="translate(195.77 688.229)">
      <g id="Grupo_1119188" data-name="Grupo 1119188" transform="translate(11.487 0.638)">
        <path id="Trazado_913676" data-name="Trazado 913676" d="M29.056,230.929H24.03L19.985,232.7a2.727,2.727,0,0,0-1.635,2.5v6.035H34.736V235.2a2.727,2.727,0,0,0-1.635-2.5Z" transform="translate(-18.35 -211.928)" fill="#528cd7"/>
        <path id="Trazado_913677" data-name="Trazado 913677" d="M122.91,235.2v6.035H120.4V235.2a2.727,2.727,0,0,0-1.634-2.5l-4.043-1.767h2.51l4.045,1.768A2.727,2.727,0,0,1,122.91,235.2Z" transform="translate(-106.525 -211.929)" fill="#2e73cd"/>
        <path id="Trazado_913678" data-name="Trazado 913678" d="M85.139,158.539h5.026V164.7H85.139Z" transform="translate(-79.459 -145.694)" fill="#ffcebf"/>
        <path id="Trazado_913679" data-name="Trazado 913679" d="M114.695,158.534h2.513v6.156h-2.513Z" transform="translate(-106.502 -145.69)" fill="#ffb09e"/>
        <path id="Trazado_913680" data-name="Trazado 913680" d="M53.961,62.509H51.466A4.513,4.513,0,0,1,46.953,58V50.548H58.474V58A4.513,4.513,0,0,1,53.961,62.509Z" transform="translate(-44.52 -46.887)" fill="#ffdfcf"/>
        <path id="Trazado_913681" data-name="Trazado 913681" d="M104.536,50.542v7.449a4.513,4.513,0,0,1-4.513,4.513H97.528c-.078,0-.155,0-.232-.006a4.514,4.514,0,0,0,4.273-4.507V50.542Z" transform="translate(-90.582 -46.881)" fill="#ffcebf"/>
        <path id="Trazado_913682" data-name="Trazado 913682" d="M43.911,9.265A4.478,4.478,0,0,0,40.347,7.5H34.994a4.481,4.481,0,0,0-4.482,4.482v3.056l1.4-.287a11.377,11.377,0,0,0,5.761-1.772,9.648,9.648,0,0,0,5.76,1.772l1.4.287V11.982a4.479,4.479,0,0,0-.918-2.717Z" transform="translate(-29.478 -7.5)" fill="#918b8b"/>
        <path id="Trazado_913683" data-name="Trazado 913683" d="M118.725,11.979v3.056l-1.4-.286a11,11,0,0,1-1.57-.109V11.979A4.482,4.482,0,0,0,111.276,7.5h2.967a4.482,4.482,0,0,1,4.482,4.482Z" transform="translate(-103.373 -7.497)" fill="#7f7c7c"/>
        <g id="Grupo_1119186" data-name="Grupo 1119186" transform="translate(0 7.251)">
          <path id="Trazado_913684" data-name="Trazado 913684" d="M183.94,92.768h-1.51v3.858h1.51a.922.922,0,0,0,.922-.922V93.69A.922.922,0,0,0,183.94,92.768Z" transform="translate(-168.477 -92.768)" fill="#ffcebf"/>
          <path id="Trazado_913685" data-name="Trazado 913685" d="M19.272,92.768h1.51v3.858h-1.51a.922.922,0,0,1-.922-.922V93.69A.922.922,0,0,1,19.272,92.768Z" transform="translate(-18.35 -92.768)" fill="#ffcebf"/>
          <path id="Trazado_913686" data-name="Trazado 913686" d="M367.756,345.894h5.026v6.156h-5.026Z" transform="translate(-338.042 -324.368)" fill="#ffcebf"/>
        </g>
        <path id="Trazado_913687" data-name="Trazado 913687" d="M397.313,345.889h2.513v6.156h-2.513Z" transform="translate(-365.086 -317.112)" fill="#ffb09e"/>
        <path id="Trazado_913688" data-name="Trazado 913688" d="M317.356,422.547v2.106a.959.959,0,0,1-.958.958H301.928a.958.958,0,0,1-.958-.958v-2.106a2.727,2.727,0,0,1,1.635-2.5l4.045-1.768h5.026l4.045,1.768A2.727,2.727,0,0,1,317.356,422.547Z" transform="translate(-276.936 -383.347)" fill="#eb5569"/>
        <path id="Trazado_913689" data-name="Trazado 913689" d="M405.5,422.547v2.106a.958.958,0,0,1-.958.958H402.22a1.181,1.181,0,0,0,.77-1.107v-1.959a2.729,2.729,0,0,0-1.635-2.5l-4.045-1.767h2.513l4.045,1.768A2.727,2.727,0,0,1,405.5,422.547Z" transform="translate(-365.083 -383.347)" fill="#e53950"/>
        <path id="Trazado_913690" data-name="Trazado 913690" d="M466.557,280.124h-1.51v3.858h1.51a.922.922,0,0,0,.922-.922v-2.014A.922.922,0,0,0,466.557,280.124Z" transform="translate(-427.06 -256.94)" fill="#ffcebf"/>
        <path id="Trazado_913691" data-name="Trazado 913691" d="M301.89,280.124h1.51v3.858h-1.51a.922.922,0,0,1-.922-.922v-2.014A.922.922,0,0,1,301.89,280.124Z" transform="translate(-276.934 -256.94)" fill="#ffcebf"/>
        <path id="Trazado_913692" data-name="Trazado 913692" d="M264.307,8.443v7.7a1.76,1.76,0,0,1-.691,1.4l-2.492,1.9a.567.567,0,0,0,.344,1.017h18.283a.943.943,0,0,0,.943-.943V8.443a.943.943,0,0,0-.943-.943h-14.5a.943.943,0,0,0-.943.943Z" transform="translate(-240.273 -7.5)" fill="#ffe177"/>
        <path id="Trazado_913693" data-name="Trazado 913693" d="M456.466,8.443V19.52a.943.943,0,0,1-.943.943H453.01a.944.944,0,0,0,.943-.943V8.443a.943.943,0,0,0-.943-.943h2.513A.943.943,0,0,1,456.466,8.443Z" transform="translate(-416.046 -7.5)" fill="#ffd15b"/>
        <path id="Trazado_913694" data-name="Trazado 913694" d="M34.735,352.074v8.643a1.76,1.76,0,0,0,.691,1.4l2.492,1.9a.567.567,0,0,1-.344,1.017H19.292a.943.943,0,0,1-.943-.943V352.074Z" transform="translate(-18.349 -322.771)" fill="#0ed2b3"/>
        <path id="Trazado_913695" data-name="Trazado 913695" d="M186.833,365.033h-2.1a.486.486,0,0,0,.148-.849l-2.712-2.071a1.762,1.762,0,0,1-.691-1.4V352.07h2.513v8.644a1.762,1.762,0,0,0,.691,1.4l2.492,1.9A.567.567,0,0,1,186.833,365.033Z" transform="translate(-167.607 -322.767)" fill="#0ab69f"/>
        <g id="Grupo_1119187" data-name="Grupo 1119187" transform="translate(25.068 15.933)">
          <path id="Trazado_913696" data-name="Trazado 913696" d="M326.528,196.62a4.478,4.478,0,0,0-3.564-1.764h-5.354a4.481,4.481,0,0,0-4.482,4.482v2.769a1.4,1.4,0,0,1,1.4,1.4v3.977a3,3,0,0,0,3,3h5.53a3,3,0,0,0,3-3V203.5a1.4,1.4,0,0,1,1.4-1.4h0v-2.769a4.479,4.479,0,0,0-.918-2.717Z" transform="translate(-313.129 -194.855)" fill="#918b8b"/>
          <path id="Trazado_913697" data-name="Trazado 913697" d="M405.822,199.341v2.769a1.4,1.4,0,0,0-1.4,1.4v3.977a3,3,0,0,1-3,3h-2.551a3,3,0,0,0,3-3v-3.977a1.4,1.4,0,0,1,.911-1.312.756.756,0,0,0,.486-.711v-2.145a4.48,4.48,0,0,0-4.481-4.481h2.551a4.48,4.48,0,0,1,4.481,4.481Z" transform="translate(-391.505 -194.86)" fill="#7f7c7c"/>
        </g>
      </g>
      <g id="Grupo_1119191" data-name="Grupo 1119191" transform="translate(10.849 0)">
        <path id="Trazado_913698" data-name="Trazado 913698" d="M310.094,194.7v-2.225a5.12,5.12,0,0,0-5.119-5.119h-5.354a5.151,5.151,0,0,0-2.2.5.638.638,0,1,0,.549,1.151,3.868,3.868,0,0,1,1.655-.374h5.354a3.844,3.844,0,0,1,3.844,3.844v2.234a2.04,2.04,0,0,0-1.4,1.934v3.978a2.36,2.36,0,0,1-2.358,2.358h-5.53a2.36,2.36,0,0,1-2.358-2.358v-3.977a2.04,2.04,0,0,0-1.4-1.934v-2.234a3.838,3.838,0,0,1,.449-1.8.638.638,0,1,0-1.126-.6,5.11,5.11,0,0,0-.6,2.4V194.7a1.561,1.561,0,0,0-1.034,1.467v2.014a1.562,1.562,0,0,0,1.56,1.56h.873v.88a3.638,3.638,0,0,0,3.247,3.613v2.344l-3.662,1.6a3.365,3.365,0,0,0-2.017,3.084v2.107a1.6,1.6,0,0,0,1.6,1.6h14.469a1.6,1.6,0,0,0,1.6-1.6V211.26a3.365,3.365,0,0,0-2.017-3.084l-3.662-1.6v-2.344a3.638,3.638,0,0,0,3.247-3.613v-.88h.873a1.562,1.562,0,0,0,1.56-1.56v-2.014A1.562,1.562,0,0,0,310.094,194.7Zm-15.067,3.765a.284.284,0,0,1-.284-.284v-2.014a.284.284,0,0,1,.284-.284l.056,0,.056,0a.762.762,0,0,1,.76.761v1.821Zm9.146,7.892h-3.751v-2.1h3.751Zm5.68,4.9v2.107a.321.321,0,0,1-.321.321H295.063a.321.321,0,0,1-.321-.321V211.26A2.09,2.09,0,0,1,296,209.345l3.922-1.714h4.76l3.922,1.714A2.089,2.089,0,0,1,309.853,211.26Zm0-13.081a.285.285,0,0,1-.284.284H308.7v-1.822a.762.762,0,0,1,.76-.761l.05,0c.021,0,.042,0,.063,0a.284.284,0,0,1,.284.284v2.014Z" transform="translate(-269.433 -171.422)"/>
        <path id="Trazado_913699" data-name="Trazado 913699" d="M272.875,0h-14.5a1.583,1.583,0,0,0-1.581,1.581v7.7a1.129,1.129,0,0,1-.441.891l-2.492,1.9a1.2,1.2,0,0,0,.731,2.161h18.283a1.583,1.583,0,0,0,1.581-1.581V1.581A1.583,1.583,0,0,0,272.875,0Zm.305,12.657a.305.305,0,0,1-.305.305H254.8l2.325-1.776a2.411,2.411,0,0,0,.942-1.905v-7.7a.305.305,0,0,1,.305-.305h14.5a.306.306,0,0,1,.305.305V12.657Z" transform="translate(-232.76 0)"/>
        <path id="Trazado_913700" data-name="Trazado 913700" d="M31.444,41.379l-2.492-1.9a1.128,1.128,0,0,1-.441-.891V23.905a3.365,3.365,0,0,0-2.018-3.084l-3.662-1.6V16.532a5.163,5.163,0,0,0,3.206-4.147h.914a1.562,1.562,0,0,0,1.56-1.56V8.811a1.561,1.561,0,0,0-1.035-1.467V5.119A5.12,5.12,0,0,0,22.357,0H17a5.118,5.118,0,0,0-5.119,5.119V7.344a1.561,1.561,0,0,0-1.034,1.467v2.014a1.562,1.562,0,0,0,1.56,1.56h.912a5.133,5.133,0,0,0,.138.709.638.638,0,0,0,1.231-.333,3.89,3.89,0,0,1-.134-1.014V8.489a11.782,11.782,0,0,0,5.129-1.6A10.261,10.261,0,0,0,24.8,8.509v3.238a3.88,3.88,0,0,1-3.875,3.875H18.433a3.885,3.885,0,0,1-1.067-.148l-.02-.006a3.847,3.847,0,0,1-1.21-.6.638.638,0,0,0-.757,1.027,5.145,5.145,0,0,0,1.151.64v2.687l-3.662,1.6a3.365,3.365,0,0,0-2.018,3.084v8.588a.638.638,0,0,0,1.276,0V30.578h15.11v8.006a2.412,2.412,0,0,0,.942,1.905L30.5,42.265H12.43a.306.306,0,0,1-.305-.305V35.655a.638.638,0,1,0-1.276,0V41.96a1.583,1.583,0,0,0,1.581,1.581H30.712a1.2,1.2,0,0,0,.731-2.161ZM27.235,10.825a.284.284,0,0,1-.284.284h-.873V8.527h.873a.284.284,0,0,1,.284.284Zm-15.11,0V8.811a.284.284,0,0,1,.284-.284h.873v2.582h-.873a.285.285,0,0,1-.284-.284ZM19.3,5.608a10.775,10.775,0,0,1-5.385,1.643h-.752V5.119A3.845,3.845,0,0,1,17,1.276h5.354A3.844,3.844,0,0,1,26.2,5.119V7.251h-.76A8.975,8.975,0,0,1,20.05,5.6.638.638,0,0,0,19.3,5.608ZM18.432,16.9c.714-.015,2.5.038,3.123-.04V19H17.8V16.86a5.233,5.233,0,0,0,.628.038ZM12.125,29.3v-5.4a2.09,2.09,0,0,1,1.253-1.915L17.3,20.276h4.76l3.922,1.714a2.09,2.09,0,0,1,1.253,1.915v5.4Z" transform="translate(-10.849 0)"/>
        <path id="Trazado_913701" data-name="Trazado 913701" d="M368.994,28.389a2.635,2.635,0,0,0-2.665,2.269,2.665,2.665,0,0,0-.025.367.638.638,0,1,0,1.276,0,1.392,1.392,0,0,1,.013-.191,1.361,1.361,0,1,1,1.348,1.551.638.638,0,0,0-.638.638v2.09a.638.638,0,1,0,1.276,0V33.583a2.648,2.648,0,0,0,1.274-.742,2.616,2.616,0,0,0,.721-1.954A2.644,2.644,0,0,0,368.994,28.389Z" transform="translate(-336.075 -25.975)"/>
        <path id="Trazado_913702" data-name="Trazado 913702" d="M68.38,401.09a.636.636,0,0,0,.451-.187l4.3-4.3a.638.638,0,0,0-.9-.9l-3.854,3.854-2.462-2.379a.638.638,0,0,0-.887.917l2.912,2.815A.635.635,0,0,0,68.38,401.09Z" transform="translate(-60.239 -361.882)"/>
        <circle id="Elipse_11863" data-name="Elipse 11863" cx="0.638" cy="0.638" r="0.638" transform="translate(32.227 10.548)"/>
        <g id="Grupo_1119189" data-name="Grupo 1119189" transform="translate(8.195 9.014)">
          <path id="Trazado_913703" data-name="Trazado 913703" d="M107.858,108.757a.638.638,0,0,1-.638-.638v-1.485a.638.638,0,0,1,1.276,0v1.485A.638.638,0,0,1,107.858,108.757Z" transform="translate(-107.22 -105.997)"/>
        </g>
        <g id="Grupo_1119190" data-name="Grupo 1119190" transform="translate(7.247 12.372)">
          <path id="Trazado_913704" data-name="Trazado 913704" d="M97.666,147.182a1.954,1.954,0,0,1-1.429-.624.638.638,0,1,1,.936-.867.673.673,0,0,0,.974.014.638.638,0,1,1,.911.893A1.934,1.934,0,0,1,97.666,147.182Z" transform="translate(-96.067 -145.487)"/>
        </g>
      </g>
    </g>
  </g>
</svg>
