<svg xmlns="http://www.w3.org/2000/svg" width="71" height="71" viewBox="0 0 71 71">
  <g id="Grupo_1118801" data-name="Grupo 1118801" transform="translate(-1034.051 -1677)">
    <circle id="Elipse_11627" data-name="Elipse 11627" cx="35.5" cy="35.5" r="35.5" transform="translate(1034.051 1677)" fill="#fff"/>
    <g id="Layer1" transform="translate(1041.801 1684.781)">
      <path id="Trazado_913249" data-name="Trazado 913249" d="M12.187,13.651V33.635a15.556,15.556,0,0,0,5.949,12.25l.006,0A15.585,15.585,0,0,0,43.355,33.635V13.651H45.15a4.141,4.141,0,0,0,4.142-4.142V6.961a.742.742,0,0,0-.742-.742H6.992a.742.742,0,0,0-.742.742V9.509a4.142,4.142,0,0,0,4.142,4.142Z" transform="translate(0 0)" fill="#2c2c2c" fill-rule="evenodd"/>
      <path id="Trazado_913250" data-name="Trazado 913250" d="M36,69.609a15.726,15.726,0,0,0-2.115,1.984,2.713,2.713,0,0,0,1.194,2.646,3.67,3.67,0,0,1,1.668,1.528,2.009,2.009,0,0,1,.129,1.162,11.923,11.923,0,0,1-.52,1.725,1.176,1.176,0,0,0-.058.232c0,.033-.017.057,0,.075a.645.645,0,0,0,.188.146,4.175,4.175,0,0,1,.582.422c.467.436.873,1.106.291,2.651a5.219,5.219,0,0,0-.239,2.476,8.8,8.8,0,0,1,.05,1.124A14.1,14.1,0,0,0,59.632,75.243a.058.058,0,0,1,0-.014,15.629,15.629,0,0,0-1.054-1.868,5.1,5.1,0,0,1-4.584-.679c-.32-.182-.613-.36-.872-.5-.073-.039-.166-.079-.246-.111A2.178,2.178,0,0,1,51.1,73.418c-.217.048-.437.084-.641.141-.134.037-.271.06-.343.179a.875.875,0,0,0-.072.475c.057,1.672-.2,2.077-.63,2.567a6.458,6.458,0,0,0-.844,1.07c-.244.4-.512.9-.619,1.107a.768.768,0,0,0,.078.033,3.944,3.944,0,0,0,.7.162c.276.043.6.079.979.109a4.978,4.978,0,0,1,3.9,2.537,7.68,7.68,0,0,1,.915,2.223.742.742,0,0,1-1.146.763,4.691,4.691,0,0,0-2.512-1.047,4.373,4.373,0,0,0-1.5.4,2.852,2.852,0,0,1-2.01-.009,3.7,3.7,0,0,1-1.875-1.444,3.6,3.6,0,0,0-2.391-1.662c-1.83-.484-2.667-1.254-3.047-2.068a4.4,4.4,0,0,1-.146-2.645.532.532,0,0,0-.182-.549c-.123-.109-.256-.206-.379-.309a1.682,1.682,0,0,1-.681-1.705,1.983,1.983,0,0,0-.131-1.233,2.4,2.4,0,0,0-1.059-.953A3.1,3.1,0,0,1,36.1,69.92c-.039-.1-.073-.207-.1-.311Z" transform="translate(-17.783 -40.81)" fill="#baeb6c" fill-rule="evenodd"/>
      <path id="Trazado_913251" data-name="Trazado 913251" d="M77.231,80.4a3.976,3.976,0,0,0,.879-.252,15.628,15.628,0,0,1,1.054,1.868.058.058,0,0,0,0,.014,14.1,14.1,0,0,1-14.078,13.3q-.44,0-.874-.027a14.045,14.045,0,0,0,8.706-3.728.742.742,0,0,0,1.136-.769s-.024-.119-.082-.319a14.04,14.04,0,0,0,3.442-8.459s0-.009,0-.014a5.788,5.788,0,0,0-.185-1.615Z" transform="translate(-37.316 -47.593)" fill="#a4e242" fill-rule="evenodd"/>
      <path id="Trazado_913252" data-name="Trazado 913252" d="M28.272,79.836a15.606,15.606,0,0,0-1.127,1.978v0a14.054,14.054,0,0,0,4.134,9.209l-.005-.076a6.223,6.223,0,0,1,.361-2.708c.179-.475.244-.756.156-.952-.062-.139-.2-.195-.316-.269a3.22,3.22,0,0,1-.554-.417,1.589,1.589,0,0,1-.3-1.843c.182-.539.344-.96.427-1.315a.766.766,0,0,0,.012-.495c-.126-.286-.468-.507-1.05-.842a3.717,3.717,0,0,1-1.736-2.273Z" transform="translate(-13.451 -47.394)" fill="#97c9e8" fill-rule="evenodd"/>
      <path id="Trazado_913253" data-name="Trazado 913253" d="M52.562,60.465v1.512a.742.742,0,0,1-1.484,0V60.465a15.49,15.49,0,0,0-7.47,2.323,2.142,2.142,0,0,0,.15.715,1.6,1.6,0,0,0,.68.862,3.82,3.82,0,0,1,1.671,1.581,3.414,3.414,0,0,1,.277,2.133c-.031.2.1.285.208.377.141.115.29.227.425.353a1.847,1.847,0,0,1,.6,1.864,2.941,2.941,0,0,0,.028,1.761c.252.539.873.942,2.083,1.262a4.723,4.723,0,0,1,2.937,1.855,2.873,2.873,0,0,0,1.455,1.291,1.879,1.879,0,0,0,1.468-.159,3.977,3.977,0,0,1,1.939-.3,4.478,4.478,0,0,1,1.053.26,3.511,3.511,0,0,0-2.726-1.8,7.327,7.327,0,0,1-2.269-.435,1.424,1.424,0,0,1-.846-.864,1.551,1.551,0,0,1,.09-1.079,10.575,10.575,0,0,1,.737-1.291,6.653,6.653,0,0,1,.814-1.073,1.888,1.888,0,0,0,.326-.4,2.947,2.947,0,0,0,.115-1.331,2.179,2.179,0,0,1,.364-1.413,1.9,1.9,0,0,1,.986-.676c.311-.1.666-.151,1-.238a.713.713,0,0,0,.6-.462,1.3,1.3,0,0,1,.658-.829,1.569,1.569,0,0,1,1.345.081c.561.251,1.312.8,2.187,1.156a3.071,3.071,0,0,0,1.953.224,15.559,15.559,0,0,0-11.364-5.756Z" transform="translate(-24.051 -34.923)" fill="#97c9e8" fill-rule="evenodd"/>
      <path id="Trazado_913254" data-name="Trazado 913254" d="M55.283,34.175V10.386h-28.2V34.175a17.178,17.178,0,0,1,1.15-1.5l.02-.024a17.187,17.187,0,0,1,3.274-2.935V26.587a2.963,2.963,0,1,1,1.484,0v2.218a16.965,16.965,0,0,1,7.427-2.066V25.547c-.92-1.262-5.252-7.858.207-13.448a.763.763,0,0,1,1.079,0c5.476,5.607,1.1,12.227.2,13.46v1.179A16.964,16.964,0,0,1,49.337,28.8V26.587a2.963,2.963,0,1,1,1.484,0v3.119a17.184,17.184,0,0,1,4.231,4.14Z" transform="translate(-13.412 -2.683)" fill="#f0f0f0" fill-rule="evenodd"/>
      <path id="Trazado_913255" data-name="Trazado 913255" d="M101.28,10.386V31.993a17.163,17.163,0,0,1,1.54,1.853l.23.328V10.386Z" transform="translate(-61.18 -2.683)" fill="#dbdbdb" fill-rule="evenodd"/>
      <circle id="Elipse_11836" data-name="Elipse 11836" cx="1.479" cy="1.479" r="1.479" transform="translate(17.378 19.556)" fill="#baeb6c"/>
      <path id="Trazado_913256" data-name="Trazado 913256" d="M40.428,43.724a1.479,1.479,0,1,1,0,2.83,1.48,1.48,0,0,0,0-2.83Z" transform="translate(-22.004 -24.104)" fill="#a4e242" fill-rule="evenodd"/>
      <circle id="Elipse_11837" data-name="Elipse 11837" cx="1.479" cy="1.479" r="1.479" transform="translate(35.188 19.556)" fill="#baeb6c"/>
      <path id="Trazado_913257" data-name="Trazado 913257" d="M90.428,43.724a1.479,1.479,0,1,1,0,2.83,1.48,1.48,0,0,0,0-2.83Z" transform="translate(-54.193 -24.104)" fill="#a4e242" fill-rule="evenodd"/>
      <path id="Trazado_913258" data-name="Trazado 913258" d="M64.2,28.718c1.051-2.189,1.958-5.731-.734-8.982a7.367,7.367,0,0,0-1.681,5.992,10.564,10.564,0,0,0,.931,2.959v-1.17a.742.742,0,0,1,1.484,0Z" transform="translate(-35.693 -8.702)" fill="#49cb5c" fill-rule="evenodd"/>
      <path id="Trazado_913259" data-name="Trazado 913259" d="M65.191,20.44a8.5,8.5,0,0,1,.526-.7c2.693,3.251,1.786,6.793.734,8.982v-1.2a.741.741,0,0,0-.353-.631A7.554,7.554,0,0,0,65.191,20.44Z" transform="translate(-37.946 -8.702)" fill="#3cb34e" fill-rule="evenodd"/>
      <path id="Trazado_913260" data-name="Trazado 913260" d="M14.87,10.386H10.417v1.806a2.658,2.658,0,0,0,2.657,2.658h1.8Z" transform="translate(-2.683 -2.683)" fill="#9e9e9e" fill-rule="evenodd"/>
      <path id="Trazado_913261" data-name="Trazado 913261" d="M110.417,10.386V14.85h1.795a2.658,2.658,0,0,0,2.658-2.658V10.386Z" transform="translate(-67.062 -2.683)" fill="#9e9e9e" fill-rule="evenodd"/>
      <path id="Trazado_913262" data-name="Trazado 913262" d="M113.1,10.386h1.77v1.806a2.658,2.658,0,0,1-2.658,2.658h-1.77a2.658,2.658,0,0,0,2.657-2.658Z" transform="translate(-67.062 -2.683)" fill="#878585" fill-rule="evenodd"/>
    </g>
  </g>
</svg>
