<svg xmlns="http://www.w3.org/2000/svg" width="71" height="71" viewBox="0 0 71 71">
  <g id="Grupo_1119200" data-name="Grupo 1119200" transform="translate(-509.051 -674)">
    <circle id="Elipse_11637" data-name="Elipse 11637" cx="35.5" cy="35.5" r="35.5" transform="translate(509.051 674)" fill="#fc0"/>
    <g id="Grupo_1119199" data-name="Grupo 1119199" transform="translate(521.256 678.396)">
      <g id="Grupo_1119197" data-name="Grupo 1119197" transform="translate(0.682 9.272)">
        <path id="Trazado_913705" data-name="Trazado 913705" d="M154.827,186.8h24.267a1.471,1.471,0,0,1,1.471,1.471v19.671a1.471,1.471,0,0,1-1.471,1.471h-3.125V214.3a.634.634,0,0,1-1.108.421l-4.713-5.3H154.46a1.471,1.471,0,0,1-1.471-1.471v-19.3A1.839,1.839,0,0,1,154.827,186.8Z" transform="translate(-139.75 -171.269)" fill="#8ac9fe"/>
        <path id="Trazado_913706" data-name="Trazado 913706" d="M265.02,188.274a1.471,1.471,0,0,0-1.471-1.471H248.027a3.746,3.746,0,0,0,.015,2.483,3.735,3.735,0,0,0-2.145,3.366v2.457a3.734,3.734,0,0,0,2.145,3.366,3.735,3.735,0,0,0,.864,3.9l1.737,1.737a3.718,3.718,0,0,0,3.9.865,3.735,3.735,0,0,0,3.366,2.143h2.457a3.735,3.735,0,0,0,3.366-2.143,3.707,3.707,0,0,0,1.27.223h.022V188.274Z" transform="translate(-224.205 -171.268)" fill="#60b7ff"/>
        <path id="Trazado_913707" data-name="Trazado 913707" d="M33.238,16.086H8.971A1.471,1.471,0,0,0,7.5,17.557V37.228A1.471,1.471,0,0,0,8.971,38.7H12.1v4.881A.634.634,0,0,0,13.2,44l4.713-5.3H33.605a1.471,1.471,0,0,0,1.471-1.471v-19.3a1.839,1.839,0,0,0-1.838-1.838Z" transform="translate(-7.5 -16.086)" fill="#eaf6ff"/>
        <path id="Trazado_913708" data-name="Trazado 913708" d="M249.942,16.086H247a1.838,1.838,0,0,1,1.838,1.838V30.279a3.735,3.735,0,0,0-.8,3.825A3.735,3.735,0,0,0,245.9,37.47V38.7h4.412a1.471,1.471,0,0,0,1.471-1.471v-19.3A1.838,1.838,0,0,0,249.942,16.086Z" transform="translate(-224.204 -16.086)" fill="#d8ecfe"/>
        <g id="Grupo_1119194" data-name="Grupo 1119194" transform="translate(6.434 5.975)">
          <path id="Trazado_913709" data-name="Trazado 913709" d="M81.153,107.1H78.211V98.645a.735.735,0,0,1,.735-.735h1.471a.735.735,0,0,1,.735.735V107.1Z" transform="translate(-78.211 -96.439)" fill="#fd8087"/>
          <path id="Trazado_913710" data-name="Trazado 913710" d="M145.8,134.649h-2.941v-5.7a.735.735,0,0,1,.735-.735h1.471a.735.735,0,0,1,.735.735Z" transform="translate(-136.979 -123.987)" fill="#cb97e7"/>
          <path id="Trazado_913711" data-name="Trazado 913711" d="M210.453,92.41h-2.941V82.482a.735.735,0,0,1,.735-.735h1.471a.735.735,0,0,1,.735.735Z" transform="translate(-195.746 -81.747)" fill="#6cf5c2"/>
          <path id="Trazado_913712" data-name="Trazado 913712" d="M78.211,168.621h2.941v2.758H78.211Z" transform="translate(-78.211 -160.716)" fill="#fe646f"/>
          <path id="Trazado_913713" data-name="Trazado 913713" d="M142.862,168.621H145.8v2.758h-2.941Z" transform="translate(-136.979 -160.716)" fill="#bd80e1"/>
          <path id="Trazado_913714" data-name="Trazado 913714" d="M207.512,168.621h2.941v2.758h-2.941Z" transform="translate(-195.746 -160.716)" fill="#00f2a6"/>
        </g>
        <g id="Grupo_1119195" data-name="Grupo 1119195" transform="translate(24.635 12.317)">
          <path id="Trazado_913715" data-name="Trazado 913715" d="M298.2,159.758l-1.562-.325a8.387,8.387,0,0,0-.744-1.792l.875-1.336a.774.774,0,0,0-.1-.972L294.93,153.6a.774.774,0,0,0-.972-.1l-1.336.875a8.38,8.38,0,0,0-1.792-.743l-.326-1.562a.774.774,0,0,0-.758-.616h-2.457a.774.774,0,0,0-.758.616l-.325,1.562a8.385,8.385,0,0,0-1.792.743l-1.336-.875a.774.774,0,0,0-.972.1l-1.737,1.737a.774.774,0,0,0-.1.972l.875,1.336a8.381,8.381,0,0,0-.744,1.792l-1.562.325a.774.774,0,0,0-.616.758v2.457a.774.774,0,0,0,.616.758l1.562.325a8.384,8.384,0,0,0,.744,1.792l-.875,1.336a.774.774,0,0,0,.1.972l1.737,1.737a.774.774,0,0,0,.972.1l1.336-.875a8.381,8.381,0,0,0,1.792.744l.325,1.562a.774.774,0,0,0,.758.616h2.457a.774.774,0,0,0,.758-.616l.326-1.562a8.382,8.382,0,0,0,1.792-.744l1.336.875a.774.774,0,0,0,.972-.1l1.737-1.737a.774.774,0,0,0,.1-.972l-.875-1.336a8.384,8.384,0,0,0,.744-1.792l1.562-.325a.774.774,0,0,0,.616-.758v-2.457A.774.774,0,0,0,298.2,159.758Z" transform="translate(-278.224 -151.449)" fill="#918291"/>
          <path id="Trazado_913716" data-name="Trazado 913716" d="M317.378,178.938l-1.562-.326a8.386,8.386,0,0,0-.744-1.792l.875-1.336a.774.774,0,0,0-.1-.972l-1.737-1.737a.774.774,0,0,0-.972-.1l-.1.065a10.652,10.652,0,0,1-.64,8.428,4.707,4.707,0,0,1-4.455,4.455,10.652,10.652,0,0,1-8.428.64l-.065.1a.774.774,0,0,0,.1.972l1.737,1.737a.774.774,0,0,0,.972.1l1.336-.875a8.382,8.382,0,0,0,1.792.744l.326,1.562a.774.774,0,0,0,.758.616h2.457a.774.774,0,0,0,.758-.616l.326-1.562a8.382,8.382,0,0,0,1.792-.744l1.336.875a.774.774,0,0,0,.972-.1l1.737-1.737a.774.774,0,0,0,.1-.972l-.875-1.336a8.383,8.383,0,0,0,.744-1.792l1.562-.325a.774.774,0,0,0,.616-.758V179.7A.774.774,0,0,0,317.378,178.938Z" transform="translate(-297.404 -170.629)" fill="#7a6d79"/>
        </g>
        <g id="Grupo_1119196" data-name="Grupo 1119196" transform="translate(29.415 17.097)">
          <circle id="Elipse_11864" data-name="Elipse 11864" cx="5.515" cy="5.515" r="5.515" fill="#6cf5c2"/>
          <path id="Trazado_913717" data-name="Trazado 913717" d="M347.191,212.834a5.516,5.516,0,0,1-7.581,7.581,5.516,5.516,0,1,0,7.581-7.581Z" transform="translate(-338.804 -212.028)" fill="#00f2a6"/>
        </g>
      </g>
      <g id="Grupo_1119198" data-name="Grupo 1119198" transform="translate(0 8.59)">
        <path id="Trazado_913718" data-name="Trazado 913718" d="M51.562,75.718H50.091a1.419,1.419,0,0,0-1.418,1.418V84.91H47.149a.682.682,0,0,0,0,1.365H66.269a.682.682,0,0,0,0-1.365H64.745V75.665a1.419,1.419,0,0,0-1.418-1.418H61.857a1.419,1.419,0,0,0-1.418,1.418V84.91H58.862V79.893a1.419,1.419,0,0,0-1.418-1.418H55.974a1.419,1.419,0,0,0-1.418,1.418V84.91H52.979V77.136A1.419,1.419,0,0,0,51.562,75.718Zm-1.524,1.418a.053.053,0,0,1,.053-.053h1.471a.053.053,0,0,1,.053.053V84.91H50.038ZM61.8,75.665a.053.053,0,0,1,.053-.053h1.471a.053.053,0,0,1,.053.053V84.91H61.8V75.665Zm-5.883,4.228a.053.053,0,0,1,.053-.053h1.471a.053.053,0,0,1,.053.053V84.91H55.921V79.893Z" transform="translate(-42.239 -68.272)"/>
        <path id="Trazado_913719" data-name="Trazado 913719" d="M45.43,29.23l-1.169-.243a9.08,9.08,0,0,0-.485-1.169l.655-1a1.463,1.463,0,0,0-.188-1.828l-1.737-1.737a1.462,1.462,0,0,0-1.828-.188l-1,.655a9.084,9.084,0,0,0-1.168-.485l-.243-1.169a1.462,1.462,0,0,0-1.426-1.159H34.384a1.462,1.462,0,0,0-1.426,1.159l-.244,1.169a9.073,9.073,0,0,0-1.168.485l-1-.655a1.463,1.463,0,0,0-1.606.007V11.111A2.523,2.523,0,0,0,26.42,8.59H2.153A2.155,2.155,0,0,0,0,10.743v2.02a.682.682,0,0,0,1.365,0v-2.02a.789.789,0,0,1,.788-.788H26.421a1.157,1.157,0,0,1,1.156,1.156V24.4l-.595.595a1.462,1.462,0,0,0-.188,1.828l.655,1a9.083,9.083,0,0,0-.485,1.169l-1.169.243a1.463,1.463,0,0,0-1.16,1.426V31.2H11.1a.682.682,0,0,0-.51.229L5.961,36.638V31.885a.682.682,0,0,0-.682-.682H2.153a.789.789,0,0,1-.788-.789V15.957a.682.682,0,1,0-1.365,0V30.414a2.156,2.156,0,0,0,2.153,2.154H4.6v4.2a1.316,1.316,0,0,0,2.3.874l4.509-5.072h1.833V41A.682.682,0,0,0,14.6,41V32.567H24.635v.546a1.463,1.463,0,0,0,1.159,1.426l1.169.243a9.082,9.082,0,0,0,.485,1.169l-.655,1a1.463,1.463,0,0,0,.188,1.828l1.737,1.737a1.462,1.462,0,0,0,1.828.188l1-.655a9.083,9.083,0,0,0,1.168.485l.243,1.169a1.462,1.462,0,0,0,1.426,1.159H36.84A1.462,1.462,0,0,0,38.266,41.7l.244-1.169a9.072,9.072,0,0,0,1.168-.485l1,.655a1.431,1.431,0,0,0,.137.078v5.166a.789.789,0,0,1-.788.788H36.9a.682.682,0,0,0-.682.682v4.754l-4.629-5.208a.682.682,0,0,0-.51-.229H15.392a.789.789,0,0,1-.788-.788V44.194a.682.682,0,0,0-1.365,0v1.754A2.155,2.155,0,0,0,15.392,48.1H30.773l4.509,5.073a1.317,1.317,0,0,0,2.3-.874V48.1h2.443a2.155,2.155,0,0,0,2.153-2.153V40.759a1.439,1.439,0,0,0,.326-.243l1.737-1.737a1.463,1.463,0,0,0,.188-1.828l-.655-1a9.087,9.087,0,0,0,.485-1.169l1.169-.243a1.463,1.463,0,0,0,1.159-1.426V30.656a1.463,1.463,0,0,0-1.16-1.426Zm-.205,3.883a.092.092,0,0,1-.073.09l-1.562.325a.682.682,0,0,0-.517.482,7.715,7.715,0,0,1-.683,1.646.683.683,0,0,0,.025.706L43.29,37.7a.092.092,0,0,1-.012.115L41.541,39.55a.092.092,0,0,1-.115.012l-1.336-.875a.682.682,0,0,0-.706-.025,7.717,7.717,0,0,1-1.646.683.682.682,0,0,0-.482.517l-.325,1.562a.092.092,0,0,1-.09.073H34.384a.092.092,0,0,1-.09-.073l-.325-1.562a.683.683,0,0,0-.482-.517,7.713,7.713,0,0,1-1.646-.683.682.682,0,0,0-.706.025l-1.336.875a.092.092,0,0,1-.115-.012l-1.737-1.737a.092.092,0,0,1-.012-.115l.875-1.336a.683.683,0,0,0,.025-.706,7.71,7.71,0,0,1-.683-1.646.683.683,0,0,0-.517-.482L26.073,33.2a.092.092,0,0,1-.073-.09V30.656a.092.092,0,0,1,.073-.09l1.562-.325a.683.683,0,0,0,.517-.482,7.713,7.713,0,0,1,.683-1.646.683.683,0,0,0-.025-.706l-.875-1.336a.092.092,0,0,1,.012-.115l1.737-1.737a.092.092,0,0,1,.115-.012l1.336.875a.683.683,0,0,0,.706.025,7.717,7.717,0,0,1,1.646-.683.682.682,0,0,0,.482-.517l.325-1.562a.092.092,0,0,1,.09-.073h2.457a.092.092,0,0,1,.09.073l.325,1.562a.683.683,0,0,0,.482.517,7.718,7.718,0,0,1,1.646.683.683.683,0,0,0,.706-.025l1.336-.875a.092.092,0,0,1,.115.012l1.737,1.737a.092.092,0,0,1,.012.115l-.875,1.336a.683.683,0,0,0-.025.706,7.713,7.713,0,0,1,.683,1.646.682.682,0,0,0,.517.482l1.562.325a.092.092,0,0,1,.073.09v2.457Z" transform="translate(0 -8.59)"/>
        <path id="Trazado_913720" data-name="Trazado 913720" d="M329.449,196.48a6.206,6.206,0,0,0-2.874.706.682.682,0,0,0,.635,1.208,4.77,4.77,0,0,1,2.24-.55,4.831,4.831,0,1,1-4.228,2.491.682.682,0,0,0-1.193-.664,6.2,6.2,0,1,0,5.421-3.192Z" transform="translate(-293.837 -179.383)"/>
        <path id="Trazado_913721" data-name="Trazado 913721" d="M361.537,245.095a.68.68,0,0,0,.483-.2l2.972-2.972a.682.682,0,1,0-.965-.965l-2.489,2.489-1-1a.682.682,0,1,0-.965.965l1.486,1.486A.68.68,0,0,0,361.537,245.095Z" transform="translate(-326.667 -219.632)"/>
      </g>
    </g>
  </g>
</svg>
