<svg xmlns="http://www.w3.org/2000/svg" xmlns:xlink="http://www.w3.org/1999/xlink" width="295" height="100" viewBox="0 0 295 100">
  <defs>
    <clipPath id="clip-path">
      <rect id="Rectángulo_405102" data-name="Rectángulo 405102" width="295" height="100" rx="8" transform="translate(810.051 660)" fill="#fc0"/>
    </clipPath>
    <clipPath id="clip-path-2">
      <rect id="Rectángulo_405101" data-name="Rectángulo 405101" width="303" height="178" rx="8" transform="translate(1126.385 3874.322)" fill="#9cc8ff"/>
    </clipPath>
  </defs>
  <g id="Grupo_1119205" data-name="Grupo 1119205" transform="translate(-810.051 -660)">
    <rect id="Rectángulo_404671" data-name="Rectángulo 404671" width="295" height="100" rx="8" transform="translate(810.051 660)" fill="#fc0"/>
    <g id="Enmascarar_grupo_1098778" data-name="Enmascarar grupo 1098778" clip-path="url(#clip-path)">
      <g id="Enmascarar_grupo_1098777" data-name="Enmascarar grupo 1098777" transform="translate(-324.334 -3227.322)" clip-path="url(#clip-path-2)">
        <g id="Grupo_1119204" data-name="Grupo 1119204" transform="translate(1125.994 3887.254)">
          <g id="Grupo_1119202" data-name="Grupo 1119202" transform="translate(2.482 2.472)">
            <path id="Trazado_913722" data-name="Trazado 913722" d="M405.712,4.606q-51.546-2.957-93.094,8.225a200.456,200.456,0,0,0-60.627,27.31l-.006.006c-.315,10.731,6.918,16.085,21.075,16.525l20.473.57c6.412,7.059,11.186,8.243,13.333,0h32.077c8.319,9.321,16.579,9.463,24.775,0l41.994-.527.452-.006C405.929,26.27,405.712,4.606,405.712,4.606Z" transform="translate(-98.27 -3.988)" fill="#89a25b"/>
            <path id="Trazado_913723" data-name="Trazado 913723" d="M178.79,56.673a188.525,188.525,0,0,0-21.075-16.525A200.214,200.214,0,0,0,97.1,12.831Q55.553,1.656,4,4.606v52.11L46,57.243c5.789,7.183,15.049,4.27,24.775,0h32.077c4.279,5.908,8.735,5.5,13.333,0h20.461l1.78,8.474c13.377,35.055,26.99,34.652,40.381-.366V57.243C179.26,57.034,179.072,56.854,178.79,56.673Z" transform="translate(-4.001 -3.988)" fill="#a8b875"/>
            <path id="Trazado_913724" data-name="Trazado 913724" d="M459.732,117.651c-.165-35.623-16.026-43.02-42.676-31.017H392.281c11.377,85.76,30.478,128,67.668,68.325C459.887,142.321,459.813,129.707,459.732,117.651Z" transform="translate(-151.609 -33.379)" fill="#7f5d46"/>
            <path id="Trazado_913725" data-name="Trazado 913725" d="M320.365,89.9H307.032c-45.593,62.325-4.225,139.038,50.269,192.312h61.91C395.009,196.206,367.547,118.358,320.365,89.9Z" transform="translate(-111.769 -36.65)" fill="#7f5d46"/>
            <path id="Trazado_913726" data-name="Trazado 913726" d="M246.214,89.9a20.076,20.076,0,0,0-20.077,20.077A20.075,20.075,0,0,0,206.06,89.9h-1c-36.441,62.819-20.533,127.343,9.025,192.312h24.112c38.224-52.062,49.488-113.343,9.025-192.312Z" transform="translate(-72.416 -36.65)" fill="#7f5d46"/>
            <path id="Trazado_913727" data-name="Trazado 913727" d="M102.847,89.9C57.95,135.108,28.345,204.5,4,282.217h61.91c56.55-63.458,88.768-127.31,50.269-192.312Z" transform="translate(-4.001 -36.65)" fill="#7f5d46"/>
            <path id="Trazado_913728" data-name="Trazado 913728" d="M46,89.9C27.913,89.733,14.461,101.48,4,120.927v37.308c35.8-.019,55.4-27.258,66.769-68.331Z" transform="translate(-4.001 -36.649)" fill="#7f5d46"/>
            <path id="Trazado_913729" data-name="Trazado 913729" d="M99.742,68.908c3.558,2.492,4.63,7.469,3.105,12.44a17.749,17.749,0,0,1-2.424,4.928,18,18,0,0,1-1.9,2.275c2.355,6.8,1.029,15.546-4.19,23a29.718,29.718,0,0,1-7.853,7.717c2.318,9.434.006,21.124-7.1,31.265a45.348,45.348,0,0,1-8.641,9.291,37.158,37.158,0,0,1-11.8,28.7,38.287,38.287,0,0,1-10.847,7.234A21.885,21.885,0,0,1,32.811,219.8a21.888,21.888,0,0,1-13.277,27.7,21.778,21.778,0,0,1-2.1,15.409A21.112,21.112,0,0,1,4,273.661V149.68a38.5,38.5,0,0,1,25.432-20.2,45.735,45.735,0,0,1,5.38-10.178c6.037-8.622,14.318-14.368,22.593-16.537a28.912,28.912,0,0,1,5.176-13.475,29.571,29.571,0,0,1,8.188-7.94,23.538,23.538,0,0,1,10.562-3.775A17.736,17.736,0,0,1,83.186,74.2c4.382-6.254,11.8-8.622,16.556-5.287Z" transform="translate(-4.001 -28.093)" fill="#53b79a"/>
            <path id="Trazado_913730" data-name="Trazado 913730" d="M300.082,81.595a15.147,15.147,0,0,1-2.138,7.364,16.4,16.4,0,0,1,7.866,14.213,16.959,16.959,0,0,1-1.9,7.841,23.656,23.656,0,0,1,6.657,16.8,24.794,24.794,0,0,1-2.554,11.077c7.959,4.9,13.389,14.678,13.389,25.959a33.216,33.216,0,0,1-3.05,14.046c7.711,6.5,12.75,17.157,12.75,29.213a41.593,41.593,0,0,1-1.754,12.025c10.426,5.07,17.325,13.841,17.325,23.814a22.477,22.477,0,0,1-3.607,12.075c5.436,3.477,8.678,7.835,8.678,12.577a11.1,11.1,0,0,1-1.395,5.306H270.6A11.177,11.177,0,0,1,269.2,268.6c0-3.955,2.262-7.649,6.167-10.779a22.977,22.977,0,0,1-4.847-13.872,23.29,23.29,0,0,1,5.69-14.938,40.245,40.245,0,0,1-5.69-20.9A39.685,39.685,0,0,1,278,184.551a33.064,33.064,0,0,1,.973-40.581,24.723,24.723,0,0,1-.682-31.525,16.925,16.925,0,0,1-2.727-9.273,16.5,16.5,0,0,1,6.7-13.451,14.892,14.892,0,0,1-2.641-8.126c-.006-.192-.012-.378-.012-.57,0-7.172,4.587-12.98,10.24-12.98s10.246,5.808,10.246,12.98c0,.192-.006.384-.012.57Z" transform="translate(-104.819 -28.34)" fill="#53b79a"/>
            <path id="Trazado_913731" data-name="Trazado 913731" d="M473.074,109.336l-.682.006c-7.878,4.742-20.139.62-28.166-9.756a31.682,31.682,0,0,1-6.521-15.006,16.7,16.7,0,0,1-7.308-6.26c-.112-.167-.223-.335-.329-.508-4.054-6.552-3.465-14.263,1.32-17.225,4.7-2.907,11.678-.149,15.769,6.155,7.76-2.386,18.143,1.891,25.234,11.052l.452-.006C472.919,87.542,473,98.2,473.074,109.336Z" transform="translate(-164.95 -25.064)" fill="#53b79a"/>
            <path id="Trazado_913732" data-name="Trazado 913732" d="M439.862,149.673c.316,61.736.329,123.987-.9,123.987-5.882,0-10.407-5.182-13.438-10.754a21.778,21.778,0,0,1-2.1-15.409,21.888,21.888,0,0,1-13.277-27.7,21.885,21.885,0,0,1-15.279-24.038,38.286,38.286,0,0,1-10.847-7.234,37.159,37.159,0,0,1-11.8-28.7,45.347,45.347,0,0,1-8.641-9.291c-7.11-10.141-9.422-21.831-7.1-31.265a29.717,29.717,0,0,1-7.853-7.717c-5.219-7.451-6.546-16.2-4.19-23a18,18,0,0,1-1.9-2.275,17.754,17.754,0,0,1-2.424-4.928c-1.525-4.971-.453-9.948,3.105-12.44,4.76-3.335,12.174-.967,16.556,5.287a17.736,17.736,0,0,1,1.853,3.378,23.539,23.539,0,0,1,10.562,3.775,29.572,29.572,0,0,1,8.188,7.94,28.913,28.913,0,0,1,5.176,13.475c8.275,2.169,16.556,7.915,22.593,16.537a45.733,45.733,0,0,1,5.38,10.178,38.5,38.5,0,0,1,25.432,20.2Z" transform="translate(-131.522 -28.093)" fill="#6fceae"/>
            <path id="Trazado_913733" data-name="Trazado 913733" d="M153.295,81.595c-.006-.186-.012-.378-.012-.57,0-7.172,4.587-12.98,10.246-12.98s10.24,5.808,10.24,12.98c0,.192-.006.378-.012.57a14.892,14.892,0,0,1-2.641,8.126,16.5,16.5,0,0,1,6.7,13.451,16.925,16.925,0,0,1-2.727,9.273,24.723,24.723,0,0,1-.682,31.525,33.064,33.064,0,0,1,.973,40.581,39.685,39.685,0,0,1,7.475,23.56,40.245,40.245,0,0,1-5.69,20.9,23.29,23.29,0,0,1,5.69,14.938,22.977,22.977,0,0,1-4.847,13.872c3.905,3.13,6.167,6.824,6.167,10.779a11.176,11.176,0,0,1-1.395,5.306H103.026a11.1,11.1,0,0,1-1.395-5.306c0-4.742,3.242-9.1,8.678-12.577A22.477,22.477,0,0,1,106.7,243.95c0-9.973,6.9-18.744,17.325-23.814a41.592,41.592,0,0,1-1.754-12.025c0-12.056,5.039-22.717,12.75-29.213a33.216,33.216,0,0,1-3.05-14.046c0-11.281,5.43-21.062,13.389-25.959a24.8,24.8,0,0,1-2.554-11.077,23.656,23.656,0,0,1,6.657-16.8,16.959,16.959,0,0,1-1.9-7.841,16.4,16.4,0,0,1,7.866-14.213,15.147,15.147,0,0,1-2.138-7.364Z" transform="translate(-41.116 -28.34)" fill="#6fceae"/>
            <path id="Trazado_913734" data-name="Trazado 913734" d="M45,60.585c4.785,2.963,5.374,10.674,1.32,17.225-.105.174-.217.341-.329.508a16.7,16.7,0,0,1-7.308,6.26,31.682,31.682,0,0,1-6.521,15.006C24.14,109.962,11.879,114.084,4,109.342V77.792c7.091-9.161,17.473-13.438,25.234-11.052C33.326,60.436,40.305,57.678,45,60.585Z" transform="translate(-4.001 -25.064)" fill="#6fceae"/>
            <g id="Grupo_1119201" data-name="Grupo 1119201" transform="translate(6.062 57.532)">
              <path id="Trazado_913735" data-name="Trazado 913735" d="M20.091,96.8a6.313,6.313,0,1,1-6.31,6.316A6.313,6.313,0,0,1,20.091,96.8Z" transform="translate(-13.781 -96.805)" fill="#ffc05a"/>
              <path id="Trazado_913736" data-name="Trazado 913736" d="M479.821,312.165a8.166,8.166,0,1,1-8.17,8.163A8.166,8.166,0,0,1,479.821,312.165Z" transform="translate(-187.844 -178.676)" fill="#ffc05a"/>
              <circle id="Elipse_11865" data-name="Elipse 11865" cx="6.31" cy="6.31" r="6.31" transform="translate(269.842 108.603)" fill="#ffc05a"/>
              <circle id="Elipse_11866" data-name="Elipse 11866" cx="6.31" cy="6.31" r="6.31" transform="translate(217.236 6.316)" fill="#ffc05a"/>
              <path id="Trazado_913737" data-name="Trazado 913737" d="M413.321,147.065a6.31,6.31,0,1,1-6.31,6.31A6.309,6.309,0,0,1,413.321,147.065Z" transform="translate(-163.27 -115.912)" fill="#ffc05a"/>
              <path id="Trazado_913738" data-name="Trazado 913738" d="M460.35,194.385a8.166,8.166,0,1,1-8.169,8.17,8.168,8.168,0,0,1,8.169-8.17Z" transform="translate(-180.442 -133.901)" fill="#ffc05a"/>
              <circle id="Elipse_11867" data-name="Elipse 11867" cx="6.31" cy="6.31" r="6.31" transform="translate(247.137 72.28)" fill="#ffc05a"/>
              <circle id="Elipse_11868" data-name="Elipse 11868" cx="6.31" cy="6.31" r="6.31" transform="translate(108.838 34.786)" fill="#ffc05a"/>
              <path id="Trazado_913739" data-name="Trazado 913739" d="M144.426,355.745a9.728,9.728,0,1,1-9.725,9.732A9.732,9.732,0,0,1,144.426,355.745Z" transform="translate(-59.75 -195.243)" fill="#ffc05a"/>
              <circle id="Elipse_11869" data-name="Elipse 11869" cx="9.732" cy="9.732" r="9.732" transform="translate(102.479 121.223)" fill="#ffc05a"/>
              <path id="Trazado_913740" data-name="Trazado 913740" d="M194.591,216.3a7.454,7.454,0,1,1-7.451,7.451A7.451,7.451,0,0,1,194.591,216.3Z" transform="translate(-79.685 -142.234)" fill="#ffc05a"/>
            </g>
            <path id="Trazado_913741" data-name="Trazado 913741" d="M476.171,96.8a6.313,6.313,0,1,1-6.31,6.316A6.313,6.313,0,0,1,476.171,96.8Z" transform="translate(-181.101 -39.273)" fill="#e15c63"/>
            <path id="Trazado_913742" data-name="Trazado 913742" d="M347.642,355.745a9.728,9.728,0,1,1-9.732,9.732A9.727,9.727,0,0,1,347.642,355.745Z" transform="translate(-130.939 -137.711)" fill="#e15c63"/>
            <circle id="Elipse_11870" data-name="Elipse 11870" cx="9.732" cy="9.732" r="9.732" transform="translate(179.438 178.754)" fill="#e15c63"/>
            <path id="Trazado_913743" data-name="Trazado 913743" d="M300.268,216.3a7.454,7.454,0,1,1-7.457,7.451A7.449,7.449,0,0,1,300.268,216.3Z" transform="translate(-113.794 -84.702)" fill="#e15c63"/>
            <circle id="Elipse_11871" data-name="Elipse 11871" cx="6.31" cy="6.31" r="6.31" transform="translate(179.922 92.317)" fill="#e15c63"/>
            <circle id="Elipse_11872" data-name="Elipse 11872" cx="6.31" cy="6.31" r="6.31" transform="translate(71.524 63.848)" fill="#e15c63"/>
            <path id="Trazado_913744" data-name="Trazado 913744" d="M82.937,147.065a6.31,6.31,0,1,1-6.316,6.31A6.308,6.308,0,0,1,82.937,147.065Z" transform="translate(-31.608 -58.38)" fill="#e15c63"/>
            <circle id="Elipse_11873" data-name="Elipse 11873" cx="6.31" cy="6.31" r="6.31" transform="translate(41.622 129.812)" fill="#e15c63"/>
            <circle id="Elipse_11874" data-name="Elipse 11874" cx="6.31" cy="6.31" r="6.31" transform="translate(18.918 166.134)" fill="#e15c63"/>
            <path id="Trazado_913745" data-name="Trazado 913745" d="M33.634,194.385a8.166,8.166,0,1,1-8.163,8.17,8.169,8.169,0,0,1,8.163-8.17Z" transform="translate(-12.163 -76.369)" fill="#e15c63"/>
            <path id="Trazado_913746" data-name="Trazado 913746" d="M14.164,312.165A8.166,8.166,0,1,1,6,320.328a8.168,8.168,0,0,1,8.163-8.163Z" transform="translate(-4.761 -121.144)" fill="#e15c63"/>
            <path id="Trazado_913747" data-name="Trazado 913747" d="M459.949,158.23l-.9.006a38.5,38.5,0,0,0-25.432-20.2,45.737,45.737,0,0,0-5.38-10.178c-6.037-8.622-14.318-14.368-22.593-16.537a28.911,28.911,0,0,0-5.176-13.475,29.57,29.57,0,0,0-8.188-7.94h14.492a30.7,30.7,0,0,1,2.374,2.981,28.911,28.911,0,0,1,5.176,13.475c8.275,2.169,16.556,7.915,22.593,16.537a45.734,45.734,0,0,1,5.38,10.178,37.873,37.873,0,0,1,17.442,9.446c.043.043.087.081.13.124C459.893,147.811,459.924,153.024,459.949,158.23Z" transform="translate(-151.609 -36.65)" fill="#684d3c"/>
            <path id="Trazado_913748" data-name="Trazado 913748" d="M380.531,276.911a11.1,11.1,0,0,1-1.395,5.306H367.979a11.1,11.1,0,0,0,1.395-5.306c0-4.742-3.242-9.1-8.678-12.577A22.476,22.476,0,0,0,364.3,252.26c0-9.973-6.9-18.744-17.325-23.814a41.6,41.6,0,0,0,1.754-12.025c0-12.056-5.039-22.717-12.75-29.213a33.216,33.216,0,0,0,3.05-14.046c0-11.281-5.43-21.062-13.389-25.959a24.8,24.8,0,0,0,2.554-11.077,23.656,23.656,0,0,0-6.657-16.8,16.959,16.959,0,0,0,1.9-7.841,16.4,16.4,0,0,0-7.866-14.213A15.148,15.148,0,0,0,317.71,89.9h11.157a15.148,15.148,0,0,1-2.138,7.364,16.183,16.183,0,0,1,7.543,10.86,17.481,17.481,0,0,1,.322,3.353,16.959,16.959,0,0,1-1.9,7.841,23.656,23.656,0,0,1,6.657,16.8A24.794,24.794,0,0,1,336.8,147.2c7.959,4.9,13.389,14.678,13.389,25.959a33.216,33.216,0,0,1-3.05,14.046c7.711,6.5,12.75,17.157,12.75,29.213a41.592,41.592,0,0,1-1.754,12.025c10.426,5.07,17.325,13.841,17.325,23.814a22.477,22.477,0,0,1-3.607,12.075C377.289,267.812,380.531,272.17,380.531,276.911Z" transform="translate(-122.447 -36.65)" fill="#684d3c"/>
            <path id="Trazado_913749" data-name="Trazado 913749" d="M237.328,276.911a11.176,11.176,0,0,1-1.395,5.306H225.4a11.176,11.176,0,0,0,1.395-5.306c0-3.955-2.262-7.649-6.167-10.779a22.976,22.976,0,0,0,4.847-13.872,23.29,23.29,0,0,0-5.69-14.938,40.245,40.245,0,0,0,5.69-20.9A39.685,39.685,0,0,0,218,192.861a33.064,33.064,0,0,0-.973-40.581,24.723,24.723,0,0,0,.682-31.525,16.925,16.925,0,0,0,2.727-9.273,16.5,16.5,0,0,0-6.7-13.451,14.892,14.892,0,0,0,2.641-8.126h1a19.939,19.939,0,0,1,9.291,2.275,14.341,14.341,0,0,1-2.4,5.851,16.5,16.5,0,0,1,6.7,13.451,16.925,16.925,0,0,1-2.727,9.273,24.723,24.723,0,0,1-.682,31.525,33.064,33.064,0,0,1,.973,40.581,39.685,39.685,0,0,1,7.475,23.56,40.245,40.245,0,0,1-5.69,20.9,23.29,23.29,0,0,1,5.69,14.938,22.976,22.976,0,0,1-4.847,13.872c3.9,3.13,6.167,6.824,6.167,10.779Z" transform="translate(-83.731 -36.65)" fill="#684d3c"/>
            <path id="Trazado_913750" data-name="Trazado 913750" d="M110.831,89.9h13.2c-.056.2-.118.415-.18.62a17.75,17.75,0,0,1-2.424,4.928,18,18,0,0,1-1.9,2.275,20.645,20.645,0,0,1,1.066,5.411,16.979,16.979,0,0,0-2.157,8.343,17.23,17.23,0,0,0,.267,3.012,30.494,30.494,0,0,1-3.366,6.229,29.717,29.717,0,0,1-7.853,7.717c2.318,9.434.006,21.124-7.1,31.265A45.349,45.349,0,0,1,91.739,169a37.158,37.158,0,0,1-11.8,28.7,38.287,38.287,0,0,1-10.847,7.234,21.885,21.885,0,0,1-15.279,24.037,21.888,21.888,0,0,1-13.277,27.7,21.778,21.778,0,0,1-2.1,15.409A21.29,21.29,0,0,1,27,282.217H25V272.194c.149-.242.285-.483.421-.731a21.778,21.778,0,0,0,2.1-15.409,21.888,21.888,0,0,0,13.277-27.7,21.885,21.885,0,0,0,15.279-24.038,38.287,38.287,0,0,0,10.847-7.234,37.159,37.159,0,0,0,11.8-28.7,45.349,45.349,0,0,0,8.641-9.291c7.11-10.141,9.422-21.831,7.1-31.265a29.717,29.717,0,0,0,7.853-7.717c5.219-7.451,6.546-16.2,4.19-23a18,18,0,0,0,1.9-2.275,17.749,17.749,0,0,0,2.424-4.928Z" transform="translate(-11.984 -36.65)" fill="#684d3c"/>
            <path id="Trazado_913751" data-name="Trazado 913751" d="M56.006,89.905H46a16.7,16.7,0,0,1-7.308,6.26,31.683,31.683,0,0,1-6.521,15.006,30.633,30.633,0,0,1-15.149,10.866c-4.7,1.388-9.341,1.1-13.017-1.11v10.717c3.062,1.841,7.841,2.25,13.017,1.45C24.543,131.937,32.9,128.224,38,122.651c.415-.452.806-.917,1.178-1.395A31.682,31.682,0,0,0,45.7,106.25a16.7,16.7,0,0,0,7.308-6.26c.112-.167.223-.335.329-.508A16.919,16.919,0,0,0,56.006,89.9Z" transform="translate(-4.001 -36.65)" fill="#684d3c"/>
          </g>
          <g id="Grupo_1119203" data-name="Grupo 1119203" transform="translate(0 0)">
            <path id="Trazado_913752" data-name="Trazado 913752" d="M346.12,351.742a12.21,12.21,0,1,0,12.21,12.21A12.224,12.224,0,0,0,346.12,351.742Zm0,19.461a7.251,7.251,0,1,1,7.251-7.251A7.259,7.259,0,0,1,346.12,371.2Z" transform="translate(-126.936 -133.717)" fill="#3a322b"/>
            <path id="Trazado_913753" data-name="Trazado 913753" d="M301.706,288.375a12.21,12.21,0,1,0,12.21,12.21A12.223,12.223,0,0,0,301.706,288.375Zm0,19.461a7.251,7.251,0,1,1,7.251-7.251A7.259,7.259,0,0,1,301.706,307.836Z" transform="translate(-110.052 -109.628)" fill="#3a322b"/>
            <path id="Trazado_913754" data-name="Trazado 913754" d="M298.745,232.171a9.933,9.933,0,1,0-9.932-9.933A9.944,9.944,0,0,0,298.745,232.171Zm0-14.908a4.974,4.974,0,1,1-4.974,4.974A4.98,4.98,0,0,1,298.745,217.263Z" transform="translate(-109.792 -80.709)" fill="#3a322b"/>
            <path id="Trazado_913755" data-name="Trazado 913755" d="M299.06,166.506a8.791,8.791,0,1,0-8.791-8.791A8.8,8.8,0,0,0,299.06,166.506Zm0-12.623a3.832,3.832,0,1,1-3.832,3.832A3.837,3.837,0,0,1,299.06,153.883Z" transform="translate(-110.346 -56.615)" fill="#3a322b"/>
            <path id="Trazado_913756" data-name="Trazado 913756" d="M360.246,111.781a8.791,8.791,0,1,0,8.791-8.791A8.8,8.8,0,0,0,360.246,111.781Zm12.623,0a3.832,3.832,0,1,1-3.832-3.832A3.837,3.837,0,0,1,372.869,111.781Z" transform="translate(-136.948 -39.153)" fill="#3a322b"/>
            <path id="Trazado_913757" data-name="Trazado 913757" d="M420.595,151.851a8.791,8.791,0,1,0-8.791,8.791A8.8,8.8,0,0,0,420.595,151.851Zm-12.623,0a3.832,3.832,0,1,1,3.833,3.832A3.837,3.837,0,0,1,407.972,151.851Z" transform="translate(-153.206 -54.385)" fill="#3a322b"/>
            <path id="Trazado_913758" data-name="Trazado 913758" d="M474.649,92.808a8.791,8.791,0,1,0,8.791,8.791A8.8,8.8,0,0,0,474.649,92.808Zm0,12.622a3.832,3.832,0,1,1,3.832-3.832A3.837,3.837,0,0,1,474.649,105.43Z" transform="translate(-177.097 -35.282)" fill="#3a322b"/>
            <path id="Trazado_913759" data-name="Trazado 913759" d="M417.277,227a8.791,8.791,0,1,0-8.791-8.791A8.8,8.8,0,0,0,417.277,227Zm0-12.622a3.832,3.832,0,1,1-3.832,3.832A3.837,3.837,0,0,1,417.277,214.373Z" transform="translate(-155.287 -79.61)" fill="#3a322b"/>
            <path id="Trazado_913760" data-name="Trazado 913760" d="M453.91,285.592a8.791,8.791,0,1,0-8.791-8.791A8.8,8.8,0,0,0,453.91,285.592Zm0-12.623a3.832,3.832,0,1,1-3.832,3.832A3.837,3.837,0,0,1,453.91,272.969Z" transform="translate(-169.213 -101.886)" fill="#3a322b"/>
            <path id="Trazado_913761" data-name="Trazado 913761" d="M458.828,211.676a10.645,10.645,0,1,0-10.644-10.645A10.657,10.657,0,0,0,458.828,211.676Zm0-16.33a5.686,5.686,0,1,1-5.686,5.686A5.692,5.692,0,0,1,458.828,195.346Z" transform="translate(-170.378 -72.377)" fill="#3a322b"/>
            <path id="Trazado_913762" data-name="Trazado 913762" d="M478.3,329.455a10.645,10.645,0,1,0-10.645-10.645A10.657,10.657,0,0,0,478.3,329.455Zm0-16.33a5.686,5.686,0,1,1-5.686,5.686A5.692,5.692,0,0,1,478.3,313.125Z" transform="translate(-177.78 -117.152)" fill="#3a322b"/>
            <path id="Trazado_913763" data-name="Trazado 913763" d="M310.532,245.636a18.6,18.6,0,0,1-11.873-9.536,19.38,19.38,0,0,1-1.855-13.665,2.479,2.479,0,0,0-1.575-2.894,19.4,19.4,0,0,1-11.774-24.564,2.48,2.48,0,0,0-1.621-3.176,19.408,19.408,0,0,1-13.547-21.31,2.479,2.479,0,0,0-1.451-2.621,35.791,35.791,0,0,1-10.15-6.769,34.652,34.652,0,0,1-11.029-26.781,2.479,2.479,0,0,0-.918-2.049,43.012,43.012,0,0,1-8.168-8.786c-6.449-9.2-8.964-20.139-6.726-29.252a2.48,2.48,0,0,0-1.037-2.657,27.091,27.091,0,0,1-7.2-7.077c-4.569-6.521-6.055-14.476-3.878-20.763a2.478,2.478,0,0,0-.572-2.545,15.743,15.743,0,0,1-1.634-1.962c-3.531-5.041-3.5-11.413.072-13.915a6.975,6.975,0,0,1,6.241-.621A13.7,13.7,0,0,1,228.7,50a15.424,15.424,0,0,1,1.6,2.909,2.478,2.478,0,0,0,2.066,1.513c6.322.567,12.655,4.556,16.94,10.67a26.436,26.436,0,0,1,4.74,12.309,2.479,2.479,0,0,0,1.836,2.138c8.009,2.1,15.733,7.773,21.191,15.562a43.314,43.314,0,0,1,5.091,9.629,2.479,2.479,0,0,0,1.758,1.544A35.99,35.99,0,0,1,307.7,125.163a2.479,2.479,0,0,0,4.439-2.209,40.978,40.978,0,0,0-25.807-21.189,48.384,48.384,0,0,0-5.195-9.51c-5.76-8.22-13.845-14.357-22.384-17.048a31.729,31.729,0,0,0-5.384-12.962,33.112,33.112,0,0,0-3.346-4.04h16.636a19.3,19.3,0,0,0,6.327,5.466,34.4,34.4,0,0,0,6.8,14.84c6.269,8.1,14.915,12.694,22.66,12.694a16.789,16.789,0,0,0,8.748-2.332,2.48,2.48,0,0,0-2.558-4.248c-6.828,4.111-17.778.093-24.927-9.148a29.406,29.406,0,0,1-6.022-13.811,2.479,2.479,0,0,0-1.507-1.966,14.353,14.353,0,0,1-6.478-5.79,14.3,14.3,0,0,1-2.291-8.463,6.6,6.6,0,0,1,2.807-5.346c3.492-2.162,9.049.257,12.385,5.4a2.479,2.479,0,0,0,2.808,1.02c6.969-2.143,16.235,2.054,22.542,10.2a2.479,2.479,0,1,0,3.921-3.034c-7.05-9.112-17.543-13.986-26.147-12.348-4.965-6.427-12.647-8.837-18.12-5.452a11.4,11.4,0,0,0-5.141,9.184,18.3,18.3,0,0,0,1.372,8.179h-20a26.284,26.284,0,0,0-9.577-3.588,20.2,20.2,0,0,0-1.5-2.507,18.675,18.675,0,0,0-9.414-7.181,11.805,11.805,0,0,0-10.6,1.283c-3.647,2.556-5.248,7.129-4.7,11.992h-7.922c-.776-7.627-6.138-13.551-12.62-13.551-5.6,0-10.367,4.426-12.059,10.55q-7.132-6.148-14.831-11.563A199.92,199.92,0,0,1,217.47,13.712c27.311-7.349,58.366-10.09,92.306-8.148a2.479,2.479,0,0,0,.283-4.951c-34.467-1.973-66.054.823-93.877,8.31a204.249,204.249,0,0,0-60,26.739A204.2,204.2,0,0,0,96.214,8.923C68.393,1.436,36.809-1.36,2.339.613a2.479,2.479,0,1,0,.283,4.951c33.939-1.944,64.995.8,92.306,8.148,29.33,7.893,55.185,21.338,76.926,39.981A22.628,22.628,0,0,0,156.2,65.529,22.589,22.589,0,0,0,137.514,53.3c-.758-7.651-6.129-13.6-12.625-13.6s-11.843,5.924-12.62,13.551h-7.922c.545-4.863-1.056-9.436-4.7-11.992a11.807,11.807,0,0,0-10.6-1.283,18.676,18.676,0,0,0-9.414,7.18,20.252,20.252,0,0,0-1.5,2.507,26.284,26.284,0,0,0-9.577,3.588h-20a18.3,18.3,0,0,0,1.372-8.179,11.4,11.4,0,0,0-5.141-9.184c-5.47-3.386-13.156-.976-18.12,5.452C18.065,39.7,7.569,44.572.519,53.685A2.479,2.479,0,1,0,4.44,56.719c6.307-8.15,15.577-12.346,22.542-10.2A2.478,2.478,0,0,0,29.79,45.5c3.336-5.137,8.892-7.558,12.385-5.4a6.6,6.6,0,0,1,2.807,5.346,14.306,14.306,0,0,1-2.291,8.463,14.356,14.356,0,0,1-6.478,5.79,2.481,2.481,0,0,0-1.507,1.966,29.4,29.4,0,0,1-6.022,13.811c-7.149,9.241-18.1,13.258-24.927,9.148A2.48,2.48,0,0,0,1.2,88.873a16.79,16.79,0,0,0,8.748,2.332c7.743,0,16.39-4.593,22.659-12.694a34.406,34.406,0,0,0,6.8-14.84,19.3,19.3,0,0,0,6.327-5.466H62.374a33.055,33.055,0,0,0-3.346,4.04,31.732,31.732,0,0,0-5.384,12.962C45.105,77.9,37.021,84.035,31.26,92.254a48.4,48.4,0,0,0-5.195,9.51A40.978,40.978,0,0,0,.258,122.954,2.479,2.479,0,0,0,4.7,125.163a35.99,35.99,0,0,1,23.775-18.891,2.479,2.479,0,0,0,1.758-1.544A43.3,43.3,0,0,1,35.321,95.1C40.779,87.312,48.5,81.64,56.512,79.538A2.479,2.479,0,0,0,58.348,77.4a26.443,26.443,0,0,1,4.74-12.309c4.285-6.115,10.618-10.1,16.94-10.67a2.478,2.478,0,0,0,2.066-1.513,15.447,15.447,0,0,1,1.6-2.91,13.707,13.707,0,0,1,6.862-5.3,6.978,6.978,0,0,1,6.241.621c3.571,2.5,3.6,8.874.072,13.915a15.64,15.64,0,0,1-1.634,1.962,2.479,2.479,0,0,0-.571,2.545c2.177,6.286.691,14.242-3.878,20.762a27.1,27.1,0,0,1-7.2,7.077,2.48,2.48,0,0,0-1.037,2.657c2.238,9.112-.276,20.048-6.726,29.252a43,43,0,0,1-8.168,8.786,2.478,2.478,0,0,0-.918,2.049A34.654,34.654,0,0,1,55.712,161.1a35.791,35.791,0,0,1-10.15,6.769,2.479,2.479,0,0,0-1.451,2.621A19.408,19.408,0,0,1,30.564,191.8a2.479,2.479,0,0,0-1.622,3.176,19.4,19.4,0,0,1-11.774,24.564,2.479,2.479,0,0,0-1.575,2.894A19.379,19.379,0,0,1,13.739,236.1a18.6,18.6,0,0,1-11.873,9.536,2.479,2.479,0,1,0,1.222,4.805A23.446,23.446,0,0,0,18.094,238.47a24.333,24.333,0,0,0,2.72-15.07,24.334,24.334,0,0,0,11.177-10.468,24.445,24.445,0,0,0,2.317-17.216,24.378,24.378,0,0,0,14.907-24.084,40.805,40.805,0,0,0,9.906-6.93,39.682,39.682,0,0,0,12.613-29.37,48.137,48.137,0,0,0,8.153-9c6.877-9.813,9.748-21.495,7.843-31.609a32.3,32.3,0,0,0,7.115-7.377c5.134-7.327,6.968-16.3,4.945-23.8.4-.478.786-.971,1.139-1.474a20.128,20.128,0,0,0,2.114-3.871h9.376A17.53,17.53,0,0,0,113.6,62.28,19.083,19.083,0,0,0,106.452,77.3a19.718,19.718,0,0,0,1.427,7.369,26.5,26.5,0,0,0-6.19,17.28,27.714,27.714,0,0,0,1.922,10.181c-7.918,5.8-12.758,15.88-12.758,26.851A36.219,36.219,0,0,0,93.4,152.37c-7.7,7.245-12.244,18.264-12.244,29.872a44.377,44.377,0,0,0,1.309,10.746c-10.61,5.794-16.88,15.054-16.88,25.1a24.42,24.42,0,0,0,2.8,11.328c-5.163,3.848-7.875,8.418-7.875,13.32a13.586,13.586,0,0,0,1.69,6.479,2.479,2.479,0,1,0,4.368-2.347,8.691,8.691,0,0,1-1.1-4.133c0-4.685,4.1-8.288,7.534-10.485a2.479,2.479,0,0,0,.762-3.411,19.948,19.948,0,0,1-3.225-10.752c0-8.667,5.954-16.736,15.929-21.585a2.479,2.479,0,0,0,1.29-2.945,39.189,39.189,0,0,1-1.648-11.313c0-10.845,4.437-21.057,11.869-27.316a2.479,2.479,0,0,0,.65-2.944,30.942,30.942,0,0,1-2.82-13c0-10.076,4.678-19.213,12.208-23.846a2.478,2.478,0,0,0,.92-3.216,22.461,22.461,0,0,1-2.293-9.97,21.209,21.209,0,0,1,5.923-15.045,2.479,2.479,0,0,0,.454-2.9,14.628,14.628,0,0,1-1.614-6.7,13.924,13.924,0,0,1,6.642-12.071,2.48,2.48,0,0,0,.86-3.433,12.7,12.7,0,0,1-1.787-6.644c0-5.789,3.482-10.5,7.761-10.5s7.761,4.71,7.761,10.5a12.55,12.55,0,0,1-2.192,7.255,2.48,2.48,0,0,0,.57,3.453A14.037,14.037,0,0,1,136.7,77.3a14.418,14.418,0,0,1-2.323,7.916,2.479,2.479,0,0,0,.17,2.944,22.245,22.245,0,0,1-.6,28.263,2.48,2.48,0,0,0-.051,3.3,29.305,29.305,0,0,1,6.851,19.257,29.754,29.754,0,0,1-5.964,18.181,2.48,2.48,0,0,0-.035,2.99,38.56,38.56,0,0,1,1.659,41.7,2.479,2.479,0,0,0,.211,2.872,20.867,20.867,0,0,1,5.119,13.356,20.6,20.6,0,0,1-4.349,12.378,2.479,2.479,0,0,0,.431,3.423c2.388,1.917,5.235,5.007,5.235,8.846a8.7,8.7,0,0,1-1.1,4.132,2.479,2.479,0,1,0,4.368,2.347,13.586,13.586,0,0,0,1.69-6.479c0-3.981-1.841-7.813-5.35-11.187a25.082,25.082,0,0,0,4.033-13.46,25.4,25.4,0,0,0-5.186-15.149,43.7,43.7,0,0,0-1.723-44.228,35.037,35.037,0,0,0,5.916-19.725,34.593,34.593,0,0,0-6.725-20.848,26.466,26.466,0,0,0,5.3-16.184,26.733,26.733,0,0,0-4.842-15.565,19.449,19.449,0,0,0,2.222-9.083,19.173,19.173,0,0,0-5.956-14,17.542,17.542,0,0,0,1.647-5.045,17.618,17.618,0,0,1,16.373,17.551V248.041a2.479,2.479,0,1,0,4.959,0V75.8a17.618,17.618,0,0,1,16.373-17.551,17.541,17.541,0,0,0,1.647,5.045,19.174,19.174,0,0,0-5.956,14,19.448,19.448,0,0,0,2.222,9.083,26.732,26.732,0,0,0-4.842,15.565,26.465,26.465,0,0,0,5.3,16.184,34.593,34.593,0,0,0-6.725,20.848,35.037,35.037,0,0,0,5.916,19.725,43.7,43.7,0,0,0-1.723,44.228,25.4,25.4,0,0,0-5.186,15.149,25.079,25.079,0,0,0,4.033,13.46c-3.509,3.374-5.35,7.206-5.35,11.187a13.586,13.586,0,0,0,1.69,6.479,2.479,2.479,0,1,0,4.368-2.347,8.691,8.691,0,0,1-1.1-4.132c0-3.839,2.848-6.93,5.235-8.846a2.479,2.479,0,0,0,.431-3.423,20.6,20.6,0,0,1-4.349-12.378,20.864,20.864,0,0,1,5.119-13.356,2.479,2.479,0,0,0,.211-2.872,38.56,38.56,0,0,1,1.659-41.7,2.479,2.479,0,0,0-.035-2.99,29.751,29.751,0,0,1-5.964-18.181,29.305,29.305,0,0,1,6.85-19.257,2.48,2.48,0,0,0-.051-3.3,22.245,22.245,0,0,1-.6-28.263,2.479,2.479,0,0,0,.17-2.944A14.418,14.418,0,0,1,175.7,77.3a14.037,14.037,0,0,1,5.67-11.44,2.48,2.48,0,0,0,.57-3.453,12.552,12.552,0,0,1-2.192-7.255c0-5.789,3.482-10.5,7.761-10.5s7.761,4.71,7.761,10.5a12.7,12.7,0,0,1-1.787,6.644,2.48,2.48,0,0,0,.86,3.433A13.926,13.926,0,0,1,200.981,77.3a14.628,14.628,0,0,1-1.614,6.7,2.479,2.479,0,0,0,.454,2.9,21.212,21.212,0,0,1,5.923,15.045,22.46,22.46,0,0,1-2.293,9.97,2.479,2.479,0,0,0,.92,3.216c7.53,4.633,12.208,13.77,12.208,23.846a30.943,30.943,0,0,1-2.82,13,2.479,2.479,0,0,0,.65,2.944c7.432,6.259,11.869,16.47,11.869,27.316a39.21,39.21,0,0,1-1.648,11.313,2.479,2.479,0,0,0,1.29,2.945c9.975,4.848,15.929,12.918,15.929,21.585a19.948,19.948,0,0,1-3.225,10.752,2.479,2.479,0,0,0,.762,3.411c3.437,2.2,7.534,5.8,7.534,10.485a8.7,8.7,0,0,1-1.1,4.133,2.479,2.479,0,1,0,4.368,2.347,13.587,13.587,0,0,0,1.69-6.479c0-4.9-2.712-9.472-7.875-13.32a24.413,24.413,0,0,0,2.8-11.328c0-10.043-6.269-19.3-16.88-25.1a44.38,44.38,0,0,0,1.309-10.746c0-11.608-4.547-22.627-12.244-29.872a36.216,36.216,0,0,0,2.545-13.387c0-10.972-4.839-21.051-12.758-26.851a27.726,27.726,0,0,0,1.922-10.181,26.5,26.5,0,0,0-6.19-17.28A19.713,19.713,0,0,0,205.94,77.3,19.082,19.082,0,0,0,198.8,62.279a17.532,17.532,0,0,0,1.177-4.075h9.376a20.144,20.144,0,0,0,2.114,3.871c.353.5.734,1,1.139,1.474-2.024,7.5-.19,16.469,4.945,23.8a32.286,32.286,0,0,0,7.115,7.377c-1.9,10.114.967,21.8,7.843,31.609a48.1,48.1,0,0,0,8.153,9,39.679,39.679,0,0,0,12.613,29.37,40.822,40.822,0,0,0,9.906,6.93,24.378,24.378,0,0,0,14.907,24.084A24.358,24.358,0,0,0,291.578,223.4a24.331,24.331,0,0,0,2.72,15.07A23.446,23.446,0,0,0,309.3,250.441a2.479,2.479,0,0,0,1.228-4.8Z" transform="translate(0.003 0)" fill="#3a322b"/>
            <path id="Trazado_913764" data-name="Trazado 913764" d="M142.907,351.742a12.21,12.21,0,1,0,12.21,12.21A12.223,12.223,0,0,0,142.907,351.742Zm0,19.461a7.251,7.251,0,1,1,7.251-7.251A7.259,7.259,0,0,1,142.907,371.2Z" transform="translate(-49.683 -133.717)" fill="#3a322b"/>
            <path id="Trazado_913765" data-name="Trazado 913765" d="M187.321,288.375a12.21,12.21,0,1,0,12.21,12.21A12.224,12.224,0,0,0,187.321,288.375Zm0,19.461a7.251,7.251,0,1,1,7.251-7.251A7.259,7.259,0,0,1,187.321,307.836Z" transform="translate(-66.568 -109.628)" fill="#3a322b"/>
            <path id="Trazado_913766" data-name="Trazado 913766" d="M193.073,212.3a9.933,9.933,0,1,0,9.932,9.933A9.944,9.944,0,0,0,193.073,212.3Zm0,14.908a4.974,4.974,0,1,1,4.974-4.974A4.98,4.98,0,0,1,193.073,227.212Z" transform="translate(-69.62 -80.709)" fill="#3a322b"/>
            <path id="Trazado_913767" data-name="Trazado 913767" d="M194.158,166.506a8.791,8.791,0,1,0-8.791-8.791A8.8,8.8,0,0,0,194.158,166.506Zm0-12.623a3.832,3.832,0,1,1-3.832,3.832A3.837,3.837,0,0,1,194.158,153.883Z" transform="translate(-70.467 -56.615)" fill="#3a322b"/>
            <path id="Trazado_913768" data-name="Trazado 913768" d="M132.973,111.781a8.791,8.791,0,1,0-8.791,8.791A8.8,8.8,0,0,0,132.973,111.781Zm-12.622,0a3.832,3.832,0,1,1,3.832,3.833A3.836,3.836,0,0,1,120.35,111.781Z" transform="translate(-43.865 -39.153)" fill="#3a322b"/>
            <path id="Trazado_913769" data-name="Trazado 913769" d="M90.2,151.851a8.791,8.791,0,1,0-8.791,8.791A8.8,8.8,0,0,0,90.2,151.851Zm-12.622,0a3.832,3.832,0,1,1,3.832,3.832A3.837,3.837,0,0,1,77.582,151.851Z" transform="translate(-27.606 -54.385)" fill="#3a322b"/>
            <path id="Trazado_913770" data-name="Trazado 913770" d="M27.361,101.6a8.791,8.791,0,1,0-8.791,8.791A8.8,8.8,0,0,0,27.361,101.6Zm-12.623,0a3.832,3.832,0,1,1,3.832,3.832A3.837,3.837,0,0,1,14.738,101.6Z" transform="translate(-3.716 -35.281)" fill="#3a322b"/>
            <path id="Trazado_913771" data-name="Trazado 913771" d="M67.151,218.206a8.791,8.791,0,1,0,8.791-8.791A8.8,8.8,0,0,0,67.151,218.206Zm8.791-3.832a3.832,3.832,0,1,1-3.832,3.832A3.837,3.837,0,0,1,75.942,214.374Z" transform="translate(-25.526 -79.611)" fill="#3a322b"/>
            <path id="Trazado_913772" data-name="Trazado 913772" d="M30.519,276.8a8.791,8.791,0,1,0,8.791-8.791A8.8,8.8,0,0,0,30.519,276.8Zm12.622,0a3.832,3.832,0,1,1-3.832-3.832A3.836,3.836,0,0,1,43.141,276.8Z" transform="translate(-11.6 -101.886)" fill="#3a322b"/>
            <path id="Trazado_913773" data-name="Trazado 913773" d="M32.118,190.387a10.645,10.645,0,1,0,10.645,10.645A10.657,10.657,0,0,0,32.118,190.387Zm0,16.33a5.686,5.686,0,1,1,5.686-5.686A5.692,5.692,0,0,1,32.118,206.717Z" transform="translate(-8.161 -72.377)" fill="#3a322b"/>
            <path id="Trazado_913774" data-name="Trazado 913774" d="M2,318.811a10.645,10.645,0,1,0,10.645-10.645A10.657,10.657,0,0,0,2,318.811Zm16.331,0a5.686,5.686,0,1,1-5.686-5.686A5.692,5.692,0,0,1,18.333,318.811Z" transform="translate(-0.759 -117.152)" fill="#3a322b"/>
          </g>
        </g>
      </g>
    </g>
  </g>
</svg>
